<svg width="37" height="29" viewBox="0 0 37 29" fill="none" xmlns="http://www.w3.org/2000/svg">
    <path d="M35.7211 0.711548H1.13014V27.7819H35.7211V0.711548Z" fill="#37AB49"/>
    <path d="M35.721 11.913H32.6389V3.42383H19.8346V7.01677H9.03813V12.8817H1.13013V18.7467H10.6409V27.7643H15.8365V15.823H23.4451V21.688H29.0459V17.778H35.721V11.913Z" fill="#52974D"/>
    <path d="M34.3473 15.5237H29.0459V19.7683H34.3473V15.5237Z" fill="#37AB49"/>
    <path d="M25.0127 6.73499H19.7113V10.9796H25.0127V6.73499Z" fill="#37AB49"/>
    <path d="M11.134 12.7761H5.83266V17.0207H11.134V12.7761Z" fill="#37AB49"/>
    <path d="M1.13013 9.67627H35.721" stroke="#444042" stroke-miterlimit="10"/>
    <path d="M1.13013 20.4023H35.721" stroke="#444042" stroke-miterlimit="10"/>
    <path d="M19.0244 0.711548V9.6763" stroke="#444042" stroke-miterlimit="10"/>
    <path d="M19.0244 19.962V27.7644" stroke="#444042" stroke-miterlimit="10"/>
    <path d="M7.91093 9.81714V19.9619" stroke="#444042" stroke-miterlimit="10"/>
    <path d="M29.3805 9.81714V19.9619" stroke="#444042" stroke-miterlimit="10"/>
    <path d="M35.7211 0.711548H1.13014V27.7819H35.7211V0.711548Z" stroke="#444042" stroke-miterlimit="10"/>
</svg>