<svg width="23" height="27" viewBox="0 0 23 27" fill="none" xmlns="http://www.w3.org/2000/svg">
    <rect x="1.05256" y="2.73376" width="20.6689" height="14.0153" fill="#FFE1DF"/>
    <path d="M11.8482 20.4074H12.2396C12.2532 20.5378 12.2424 20.6686 12.2454 20.7991C12.2452 20.803 12.2441 20.8068 12.2423 20.8102C12.2404 20.8136 12.2377 20.8165 12.2345 20.8187C12.1458 20.8434 12.055 20.825 11.9653 20.8307C11.9323 20.8327 11.8979 20.8244 11.8589 20.8466C11.8518 20.96 11.8522 21.0736 11.86 21.1869C11.9878 21.21 12.1106 21.1819 12.2305 21.2048C12.2377 21.2081 12.2438 21.2135 12.2479 21.2203C12.2659 21.3498 12.2659 21.4811 12.2479 21.6106C12.2451 21.6136 12.2424 21.6165 12.2397 21.6194H11.842C11.8285 21.6313 11.8357 21.6469 11.8357 21.6606C11.8353 22.2828 11.8353 22.9051 11.8357 23.5274V25.6591C11.8119 25.6825 11.7813 25.6792 11.7523 25.6793C11.4094 25.6799 11.0664 25.6799 10.7234 25.6793C10.6943 25.6793 10.6641 25.6814 10.6378 25.6609C10.6237 25.6362 10.6306 25.6083 10.6305 25.5817C10.6301 24.2898 10.6299 22.9979 10.6299 21.706C10.6299 21.6813 10.6362 21.6555 10.6236 21.6317C10.5284 21.6171 10.4327 21.6295 10.3373 21.625C10.298 21.6232 10.2584 21.6308 10.2195 21.6202C10.2141 21.6151 10.2099 21.609 10.207 21.6023C10.2041 21.5955 10.2027 21.5882 10.2027 21.5809C10.2014 21.4624 10.1916 21.3438 10.2082 21.2256C10.2113 21.2183 10.2164 21.212 10.223 21.2076C10.2798 21.1862 10.3391 21.1992 10.3973 21.1959C10.4616 21.1924 10.5268 21.2028 10.5993 21.1867C10.6085 21.072 10.6049 20.9584 10.6017 20.8495C10.5661 20.8242 10.5337 20.8323 10.5029 20.8305C10.4113 20.8249 10.3188 20.8425 10.2279 20.8192C10.2251 20.8166 10.2224 20.8139 10.2196 20.8112V20.4136C10.2274 20.4031 10.2386 20.4072 10.2484 20.4072C10.3599 20.4069 10.4714 20.4072 10.583 20.4072H10.6178C10.6211 20.4033 10.6235 20.4017 10.6235 20.4001C10.6235 19.5987 10.6235 18.7974 10.6235 17.996C10.5996 17.9834 10.5739 17.9897 10.5493 17.9897C9.79496 17.9893 9.04068 17.9891 8.28643 17.9891C8.26118 17.9891 8.23593 17.9936 8.2115 17.9848C8.19926 17.8509 8.2098 17.7168 8.20588 17.5859C8.22886 17.5588 8.2572 17.5595 8.28415 17.5595C8.79443 17.5595 9.3047 17.5567 9.81497 17.5605C9.85486 17.5573 9.89488 17.5588 9.9349 17.5588H13.3741C13.3994 17.5588 13.4246 17.5582 13.4499 17.5605C13.696 17.5573 13.9422 17.5594 14.1884 17.5595C14.2136 17.5595 14.2393 17.5595 14.26 17.5781C14.2735 17.7118 14.2619 17.8457 14.2667 17.9894H11.8533C11.8358 18.0136 11.8421 18.0354 11.8421 18.0557C11.8417 18.819 11.8417 19.5823 11.8421 20.3455C11.8419 20.3663 11.8364 20.3879 11.8482 20.4074Z" fill="#3C3C3C"/>
    <path d="M12.2522 1.82451H21.1271C21.1315 1.83169 21.1337 1.84005 21.1334 1.8485C21.1334 1.97474 21.1334 2.1006 21.1334 2.22167C21.1119 2.2461 21.0883 2.24692 21.0653 2.24812C21.0379 2.24976 21.0106 2.24907 20.9832 2.24907C14.4798 2.24907 7.97642 2.24888 1.47299 2.2485C1.42584 2.2485 1.37547 2.26144 1.33248 2.22849V1.83082C1.34018 1.82041 1.35142 1.82502 1.36127 1.82451C1.37389 1.82388 1.38652 1.82451 1.39914 1.82451H10.2197C10.2323 1.8028 10.226 1.77913 10.226 1.75647C10.2265 1.40299 10.2266 1.04951 10.2265 0.696029C10.2265 0.673242 10.2237 0.650076 10.2328 0.61921C10.3612 0.618642 10.4906 0.618894 10.6171 0.61921C10.65 0.654432 10.6436 0.693819 10.6436 0.730745C10.6443 1.05266 10.6436 1.37458 10.6442 1.6965C10.6442 1.72762 10.6395 1.75962 10.6627 1.80381C11.0366 1.80507 11.4176 1.80425 11.7921 1.80438C11.8216 1.76739 11.8149 1.73494 11.815 1.70414C11.8155 1.38014 11.815 1.05614 11.8157 0.732071C11.8157 0.695082 11.8094 0.655884 11.8409 0.619147C11.9718 0.621419 12.106 0.614476 12.24 0.623187C12.2511 0.645153 12.2456 0.668697 12.2456 0.691421C12.2461 1.0465 12.2463 1.4016 12.2462 1.75672C12.2459 1.77919 12.2399 1.80286 12.2522 1.82451Z" fill="#3C3C3C"/>
    <path d="M1.33223 2.22847H21.1204C21.124 2.225 21.1267 2.22368 21.1267 2.22216C21.127 2.21796 21.127 2.21374 21.1267 2.20954V1.83712C21.1275 1.83621 21.1284 1.83549 21.1295 1.83499C21.1306 1.83449 21.1318 1.83423 21.133 1.83423C21.1342 1.83423 21.1354 1.83449 21.1365 1.83499C21.1376 1.83549 21.1385 1.83621 21.1393 1.83712V2.22847C21.1486 2.36179 21.1546 2.49504 21.1348 2.6281C21.1302 2.63518 21.1237 2.64074 21.1159 2.64406C21.0707 2.65858 21.0241 2.65278 20.978 2.65278C16.9554 2.65303 12.9327 2.65303 8.91007 2.65278C6.42961 2.65278 3.94913 2.65263 1.46863 2.65233C1.42306 2.65233 1.37559 2.66174 1.33273 2.63617C1.29858 2.50059 1.3001 2.36456 1.33223 2.22847Z" fill="#E4352F"/>
    <path d="M1.33223 17.5796V17.1883C1.34485 17.1601 1.37092 17.1586 1.39611 17.1567C1.42767 17.1541 1.45923 17.1554 1.49079 17.1554C3.54177 17.1554 5.59275 17.1553 7.64373 17.1551C7.68305 17.1551 7.72364 17.1623 7.76997 17.1393C7.77891 17.0298 7.77902 16.9198 7.77029 16.8104C7.72894 16.7851 7.69019 16.7927 7.65307 16.7926C6.6454 16.7923 5.63778 16.7922 4.63019 16.7923C3.57207 16.7923 2.51397 16.7923 1.45588 16.7923C1.41448 16.7923 1.3713 16.8003 1.33292 16.7756C1.3264 16.7703 1.32184 16.7629 1.31998 16.7546C1.30856 16.6305 1.30534 16.5063 1.32156 16.3822C1.32238 16.3759 1.32787 16.3715 1.33122 16.3664C1.36669 16.3408 1.40791 16.3481 1.44717 16.348C2.20198 16.3476 2.95674 16.3474 3.71146 16.3477C5.02969 16.3477 6.34789 16.3477 7.66607 16.3477C7.70142 16.3477 7.73778 16.354 7.77136 16.3369C7.79409 16.318 7.79074 16.2919 7.79087 16.2668C7.79087 16.1954 7.79042 16.1239 7.79124 16.0522C7.79124 16.0252 7.7891 15.9971 7.81763 15.9662C7.94252 15.9541 8.06829 15.9543 8.19314 15.9668C8.22249 16.0023 8.22015 16.0346 8.22015 16.0658C8.22066 16.5428 8.22066 17.0198 8.22015 17.4969C8.22015 17.526 8.22236 17.5562 8.20191 17.5813C8.17963 17.5906 8.15621 17.586 8.13336 17.586C5.8891 17.5863 3.64485 17.5863 1.40059 17.586C1.37768 17.5854 1.35407 17.5912 1.33223 17.5796Z" fill="#3C3C3C"/>
    <path d="M0.524272 16.3803H0.13292C0.131183 16.3765 0.131003 16.3722 0.132419 16.3683C0.133835 16.3643 0.136734 16.3611 0.140494 16.3593C0.22312 16.3351 0.307703 16.3522 0.391212 16.3473C0.424351 16.3454 0.458373 16.351 0.488545 16.337C0.50988 16.3013 0.503442 16.2648 0.503442 16.2297C0.503821 15.4954 0.503926 14.7611 0.503758 14.0267C0.503758 10.408 0.503926 6.78925 0.504263 3.17055C0.504263 3.12535 0.492838 3.07726 0.524272 3.03629C0.531847 3.03263 0.521242 3.03427 0.529322 3.03269C0.663202 3.00694 0.797019 3.0029 0.930521 3.03547C0.946175 3.05478 0.947185 3.07808 0.948132 3.10124C0.949331 3.13066 0.948763 3.16013 0.948763 3.18961C0.948763 7.53126 0.948763 11.8729 0.948763 16.2146C0.948763 16.2606 0.954002 16.3072 0.941504 16.3527C0.938613 16.3605 0.933843 16.3674 0.927617 16.3729C0.897003 16.3909 0.862918 16.3875 0.829905 16.3865C0.727901 16.3835 0.625771 16.3956 0.524272 16.3803Z" fill="#E4352F"/>
    <path d="M21.9477 2.64512V3.03647C21.9581 3.05604 21.956 3.07731 21.956 3.09826C21.955 7.48162 21.9548 11.865 21.9554 16.2484C21.9554 16.284 21.959 16.32 21.9474 16.3548C21.944 16.3626 21.9387 16.3694 21.9321 16.3746C21.8362 16.4009 21.7382 16.383 21.6413 16.3868C21.6029 16.3883 21.5617 16.3952 21.5277 16.3671C21.5129 16.3474 21.5121 16.3241 21.5112 16.301C21.5102 16.2736 21.5107 16.2463 21.5107 16.2189C21.5107 11.8755 21.5107 7.53218 21.5107 3.18884C21.5107 3.14276 21.5054 3.09618 21.5181 3.05073C21.521 3.04309 21.5257 3.03629 21.5319 3.03091C21.5795 3.00768 21.6307 3.01942 21.6803 3.01734C21.7549 3.01419 21.8302 3.02201 21.9026 3.01185C21.9238 2.96072 21.9124 2.91408 21.9156 2.86875C21.9206 2.7961 21.9042 2.72219 21.9276 2.65048L21.9361 2.64221L21.9477 2.64512Z" fill="#E4352F"/>
    <path d="M0.524275 3.03642V16.3608C0.52074 16.3646 0.519478 16.3671 0.517963 16.3675C0.513761 16.3678 0.509541 16.3678 0.505338 16.3675H0.132923C0.132222 16.3685 0.131281 16.3693 0.130181 16.3699C0.12908 16.3705 0.127855 16.3708 0.126611 16.3708C0.125366 16.3708 0.124141 16.3705 0.12304 16.3699C0.12194 16.3693 0.120999 16.3685 0.120298 16.3675V3.04375C0.124023 3.03952 0.125222 3.03687 0.126611 3.03661C0.130813 3.0363 0.135033 3.0363 0.139235 3.03661L0.524275 3.03642Z" fill="#3C3C3C"/>
    <path d="M21.935 16.3677V3.05701C21.938 3.04906 21.9495 3.04704 21.9477 3.0365H22.339C22.3506 3.0584 22.3448 3.08201 22.3448 3.10467C22.3451 7.5017 22.3451 11.8987 22.3448 16.2956C22.3448 16.3184 22.3488 16.3417 22.3375 16.3741C22.2053 16.3705 22.0703 16.3812 21.935 16.3677Z" fill="#3C3C3C"/>
    <path d="M8.19983 17.5796V15.9827C8.1961 15.9793 8.19459 15.9768 8.19301 15.9768C8.06702 15.9768 7.94103 15.9768 7.81504 15.9768C7.80444 15.9844 7.80873 15.9957 7.80873 16.0054C7.80873 16.1104 7.80873 16.2154 7.80873 16.3204V16.363L7.7961 16.3682C7.79358 16.3648 7.78941 16.3618 7.78865 16.3581C7.76296 16.2271 7.77767 16.0966 7.78114 15.962C7.91414 15.9236 8.04221 15.96 8.16972 15.9351C8.19661 15.8107 8.16076 15.6827 8.19067 15.5685C8.21857 15.5423 8.24414 15.5416 8.26932 15.5404C8.29666 15.5391 8.32399 15.5398 8.35138 15.5398C10.2718 15.5398 12.1922 15.5398 14.1127 15.5398C14.1442 15.5398 14.1758 15.5376 14.2073 15.5416C14.229 15.5444 14.2557 15.5416 14.2612 15.5732C14.2432 15.5914 14.2196 15.5915 14.1965 15.5925C14.1671 15.5938 14.1376 15.5932 14.1082 15.5932C12.1935 15.5932 10.279 15.5932 8.36464 15.5932C8.32519 15.5932 8.28479 15.5875 8.23966 15.6072C8.22994 15.7132 8.22929 15.8198 8.2377 15.9259C8.27968 15.9507 8.31837 15.9432 8.35542 15.9432C10.0364 15.9435 11.7174 15.9437 13.3984 15.9437C13.6845 15.9437 13.9706 15.9411 14.2568 15.9452C14.3689 15.9423 14.4811 15.9432 14.5932 15.9452C14.6197 15.9457 14.6542 15.9377 14.6648 15.9774C14.6451 15.9968 14.6195 15.9964 14.5948 15.9964C14.4829 15.9967 14.371 15.9987 14.2592 15.9955C13.9898 15.998 13.7205 15.998 13.4512 15.9955C13.4218 15.9981 13.3923 15.9972 13.3628 15.9972C12.2267 15.9972 11.0905 15.9972 9.95428 15.9972C9.91913 15.9972 9.8827 15.9909 9.84912 16.0087C9.83019 16.0378 9.83606 16.0702 9.83606 16.101C9.83568 16.5576 9.83549 17.0141 9.83549 17.4708C9.83549 17.5079 9.84243 17.5472 9.81535 17.5798H8.21838C8.2151 17.5837 8.21264 17.5853 8.21264 17.5868C8.21264 17.7191 8.21264 17.8514 8.21264 17.9837C8.21194 17.9848 8.211 17.9856 8.2099 17.9862C8.2088 17.9868 8.20757 17.9871 8.20633 17.9871C8.20508 17.9871 8.20386 17.9868 8.20276 17.9862C8.20166 17.9856 8.20072 17.9848 8.20002 17.9837V17.5924C8.19541 17.5896 8.1937 17.5868 8.19541 17.584C8.19711 17.5812 8.19825 17.5796 8.19983 17.5796Z" fill="#BB2B26"/>
    <path d="M1.33223 16.7716C3.48429 16.7716 5.63637 16.7716 7.78847 16.7716C7.79011 16.7716 7.79169 16.7739 7.79478 16.7762V17.1705C7.79283 17.1725 7.79156 17.1745 7.78973 17.1753C7.78765 17.1757 7.78551 17.1757 7.78342 17.1753H1.35275C1.34479 17.1782 1.34277 17.1898 1.33223 17.1879H0.940881C0.939871 17.1841 0.938924 17.1803 0.937914 17.1765C0.940691 17.1738 0.943405 17.171 0.94612 17.1682C0.998447 17.1465 1.05343 17.1589 1.10727 17.1563C1.17134 17.1532 1.2361 17.1613 1.29701 17.1503C1.31973 17.1146 1.3109 17.0803 1.31292 17.0476C1.3186 16.9584 1.30086 16.8682 1.32422 16.7797C1.32687 16.7772 1.32952 16.7744 1.33223 16.7716Z" fill="#E4352F"/>
    <path d="M12.2396 0.625269H11.8419C11.8293 0.63499 11.8356 0.648688 11.8356 0.660302C11.8352 1.02615 11.8352 1.39203 11.8356 1.75792V1.81738C11.832 1.82148 11.8307 1.82413 11.8293 1.82439C11.8251 1.8247 11.8209 1.8247 11.8167 1.82439C11.4213 1.82439 11.026 1.82439 10.6307 1.82439C10.6291 1.82439 10.6276 1.82186 10.6244 1.81877V0.630067C10.569 0.623755 10.2945 0.623755 10.233 0.629688V1.81934L10.2204 1.82457C10.2204 1.42333 10.2204 1.02205 10.2204 0.620725C10.2204 0.619084 10.2224 0.617442 10.2248 0.613718H10.6169C10.6192 0.611849 10.6213 0.609732 10.6232 0.607406C10.624 0.605553 10.6243 0.603544 10.6242 0.601536C10.6242 0.4734 10.6242 0.345242 10.6242 0.217064C10.6242 0.21536 10.6261 0.213718 10.6272 0.212077C10.6282 0.210436 10.6305 0.208984 10.6321 0.208984C11.0335 0.208984 11.4348 0.208984 11.836 0.208984C11.8368 0.213024 11.8376 0.217001 11.8384 0.221041C11.8354 0.223818 11.8321 0.226595 11.8295 0.229436C11.7979 0.245532 11.7638 0.241366 11.7305 0.241366C11.4072 0.241807 11.0838 0.241366 10.7605 0.241871C10.7297 0.241871 10.6974 0.236063 10.6609 0.258913C10.653 0.362243 10.6562 0.469991 10.6593 0.572816C10.6947 0.599137 10.7272 0.592573 10.7579 0.592636C11.0833 0.593141 11.4088 0.593309 11.7342 0.593141C11.7657 0.593141 11.7973 0.590111 11.828 0.599895C11.8353 0.603141 11.8421 0.607436 11.8482 0.612645H12.2396C12.2428 0.615423 12.2439 0.618263 12.2428 0.62104C12.2417 0.623818 12.2407 0.625269 12.2396 0.625269Z" fill="#E4352F"/>
    <path d="M7.79585 23.2353V22.8365C7.80065 22.8334 7.80217 22.8314 7.804 22.8314C7.93592 22.8314 8.06786 22.8314 8.19983 22.8314C8.20248 22.8343 8.20513 22.8372 8.20785 22.84C8.23095 22.9226 8.21416 23.0071 8.21927 23.0905C8.22161 23.1278 8.21296 23.1663 8.22969 23.2021C8.25866 23.222 8.29104 23.2152 8.32184 23.2156C8.3933 23.2168 8.46481 23.2151 8.53646 23.2166C8.5617 23.2171 8.58752 23.2162 8.60665 23.2375C8.61378 23.371 8.60936 23.5044 8.60892 23.6442C8.47504 23.6474 8.34583 23.6442 8.2069 23.6463C8.20494 23.7789 8.2069 23.9097 8.20551 24.0498C8.06709 24.0473 7.93201 24.0545 7.7968 24.045C7.77357 24.0214 7.77673 23.9909 7.77629 23.9619C7.77521 23.8885 7.77629 23.815 7.77572 23.7415C7.77572 23.7187 7.77767 23.6951 7.7641 23.6734C7.73886 23.655 7.70856 23.6596 7.67971 23.6598C7.48454 23.6606 7.28937 23.6558 7.09413 23.6569C7.06327 23.6569 7.03101 23.6623 6.99465 23.6356C6.99649 23.5101 6.98992 23.3789 6.99876 23.2476C7.02716 23.236 7.05683 23.2423 7.08587 23.2423C7.29997 23.2416 7.51408 23.2423 7.72819 23.2416C7.7506 23.2416 7.7742 23.2479 7.79585 23.2353Z" fill="#3C3C3C"/>
    <path d="M10.6237 21.632L10.6363 21.6372V25.6528C10.6398 25.6561 10.6412 25.6585 10.6426 25.6587C10.6468 25.659 10.651 25.659 10.6552 25.6587H12.2396C12.2404 25.6627 12.2412 25.6667 12.242 25.6707C12.239 25.6736 12.2357 25.6763 12.2331 25.6792C12.1782 25.7009 12.1209 25.6878 12.0647 25.6912C12.0002 25.6951 11.9348 25.6832 11.866 25.7014C11.838 25.8201 11.8739 25.9439 11.845 26.0549C11.8145 26.0835 11.7843 26.0821 11.7552 26.0821C11.4063 26.0827 11.0574 26.0827 10.7085 26.0821C10.6792 26.0821 10.6493 26.0831 10.6167 26.058C10.5831 25.9468 10.6215 25.8226 10.5926 25.6975C10.4858 25.6882 10.3783 25.6876 10.2713 25.6956C10.2474 25.728 10.2524 25.7583 10.2524 25.787C10.2518 25.9804 10.2524 26.1738 10.2519 26.3672C10.2519 26.3984 10.2553 26.4303 10.2401 26.46L10.2316 26.4689L10.2197 26.4671V25.6654C10.2274 25.6549 10.2386 25.6591 10.2485 25.6591C10.36 25.6588 10.4714 25.6591 10.583 25.6591H10.6179C10.6212 25.6551 10.6236 25.6535 10.6236 25.652C10.6236 24.312 10.6237 22.972 10.6237 21.632Z" fill="#E4352F"/>
    <path d="M21.935 16.3677H22.3327C22.3431 16.36 22.3385 16.3488 22.339 16.3389C22.3396 16.3263 22.339 16.3136 22.339 16.301V3.0365L22.3507 3.0413V16.375C22.3485 16.3772 22.3472 16.3792 22.3454 16.38C22.3434 16.3805 22.3412 16.3806 22.3391 16.3803H21.9541C21.9434 16.3879 21.9478 16.3993 21.9478 16.409C21.9475 16.5205 21.9478 16.632 21.9478 16.7435V16.7785C21.9439 16.7817 21.9425 16.7836 21.9406 16.7843C21.9386 16.7846 21.9364 16.7846 21.9343 16.7843H21.55C21.5482 16.7857 21.5465 16.7874 21.5451 16.7893C21.5442 16.7911 21.5437 16.793 21.5437 16.795C21.5437 16.9233 21.5437 17.0517 21.5437 17.18C21.5437 17.1817 21.5418 17.1834 21.5408 17.1851C21.5393 17.1864 21.5376 17.1874 21.5358 17.1882C21.5337 17.1885 21.5316 17.1885 21.5295 17.1882H21.1507C21.1488 17.1884 21.1468 17.1887 21.1449 17.1893C21.1433 17.1906 21.1418 17.1921 21.1406 17.1939C21.1399 17.1959 21.1396 17.198 21.1398 17.2002C21.1398 17.3285 21.1398 17.4568 21.1398 17.5852C21.1398 17.5868 21.1375 17.5884 21.1346 17.592H14.2789C14.2754 17.5954 14.2735 17.5967 14.2726 17.5983C14.272 17.6003 14.2718 17.6025 14.272 17.6046V17.9833C14.2724 17.9854 14.2724 17.9875 14.272 17.9896C14.2713 17.9914 14.2694 17.9928 14.2662 17.9964H11.8546C11.8511 18.0001 11.8491 18.0014 11.8482 18.0032C11.8479 18.0053 11.8479 18.0074 11.8482 18.0095V20.4081L11.8366 20.4033V17.989C11.8379 17.9873 11.8394 17.9858 11.8412 17.9846C11.8431 17.9838 11.8451 17.9835 11.8471 17.9837H14.2498C14.2517 17.9833 14.2536 17.9827 14.2552 17.9817C14.2567 17.9801 14.2587 17.9788 14.2593 17.977C14.2597 17.9749 14.2597 17.9728 14.2593 17.9707V17.5797C14.2624 17.5769 14.2656 17.574 14.2686 17.5712C14.3109 17.5523 14.3557 17.5595 14.3995 17.5595C16.5919 17.5591 18.7842 17.5589 20.9764 17.5589C21.0157 17.5589 21.0564 17.5663 21.0995 17.5432C21.1139 17.465 21.103 17.383 21.1066 17.3017C21.1084 17.2601 21.0992 17.2171 21.1218 17.1781C21.1509 17.1502 21.1879 17.1574 21.2228 17.1561C21.3141 17.1528 21.4058 17.162 21.4936 17.1506C21.5155 17.1251 21.5107 17.0991 21.5109 17.0749C21.5118 16.9955 21.5103 16.9162 21.5117 16.8368C21.5122 16.8139 21.5131 16.7907 21.5284 16.7713C21.5592 16.7466 21.596 16.7533 21.631 16.7524C21.7207 16.7498 21.8106 16.7567 21.8956 16.7483C21.9194 16.7223 21.9145 16.6961 21.9149 16.6716C21.9156 16.5962 21.9149 16.5207 21.9154 16.4453C21.9161 16.4178 21.9151 16.3901 21.935 16.3677Z" fill="#FEFEFE"/>
    <path d="M14.2595 24.0432V23.6392L14.2676 23.6315C14.327 23.6103 14.3886 23.6238 14.449 23.6206C14.5095 23.6173 14.5706 23.6259 14.6357 23.6129C14.6562 23.4946 14.6357 23.3767 14.648 23.2603C14.6495 23.2529 14.6524 23.2459 14.6566 23.2396C14.6576 23.238 14.6589 23.2366 14.6604 23.2356C14.6619 23.2345 14.6636 23.2338 14.6654 23.2334C14.6672 23.233 14.6691 23.2329 14.6709 23.2333C14.6728 23.2336 14.6745 23.2343 14.6761 23.2353H15.4714C15.4723 23.2392 15.4731 23.2432 15.474 23.2471C15.4711 23.2499 15.4682 23.2526 15.4653 23.2555C15.436 23.2709 15.4039 23.2674 15.3727 23.2675C15.1795 23.2679 14.9862 23.2675 14.793 23.2679C14.7641 23.2679 14.734 23.2627 14.7001 23.2849C14.6934 23.39 14.6932 23.4954 14.6995 23.6005C14.7311 23.6252 14.7615 23.6194 14.7902 23.6194C14.9859 23.62 15.1809 23.6194 15.3762 23.6199C15.4055 23.6199 15.4352 23.6173 15.4638 23.6266C15.4711 23.6298 15.4779 23.6341 15.484 23.6392H15.8754L15.8778 23.6512C15.8749 23.654 15.8719 23.6568 15.869 23.6596C15.8148 23.6811 15.7581 23.67 15.7026 23.671C15.6258 23.6725 15.549 23.6732 15.4722 23.6704C15.349 23.6754 15.2255 23.6658 15.1065 23.6755C15.083 23.7011 15.0876 23.7272 15.0876 23.7518C15.0867 23.8275 15.0879 23.9027 15.0869 23.9781C15.0865 24.0012 15.0862 24.0245 15.072 24.0446C15.0388 24.0698 14.9999 24.0613 14.9628 24.0625C14.8778 24.0653 14.7924 24.0581 14.7104 24.0673C14.6881 24.1147 14.6985 24.1572 14.6957 24.1984C14.6902 24.2794 14.7078 24.3615 14.6836 24.4415C14.6808 24.4444 14.678 24.4471 14.6751 24.4499L14.6635 24.4472V24.0559C14.6585 24.05 14.6542 24.0435 14.6508 24.0365C14.6365 23.947 14.6476 23.8569 14.6439 23.7671C14.6427 23.7383 14.6492 23.7082 14.627 23.6755C14.5232 23.6664 14.4154 23.6721 14.3127 23.6726C14.2842 23.7068 14.2933 23.7394 14.2912 23.7699C14.2852 23.8592 14.3039 23.9497 14.279 24.0382L14.2705 24.0463L14.2595 24.0432Z" fill="#BB2B26"/>
    <path d="M7.00052 23.2478V23.6329C7.00815 23.6435 7.01945 23.6392 7.02917 23.6392C7.2626 23.6394 7.49598 23.6394 7.72932 23.6392H7.78953C7.79288 23.6427 7.79528 23.6441 7.79585 23.6458C7.79613 23.65 7.79613 23.6542 7.79585 23.6584V24.0435L7.78682 24.0517C7.65426 24.0681 7.52234 24.075 7.39042 24.0479C7.36517 24.0147 7.3742 23.9757 7.37255 23.9387C7.36877 23.8538 7.37994 23.7683 7.3634 23.6764C7.25054 23.668 7.14134 23.6706 7.02728 23.6752C7.01415 23.7683 7.02299 23.854 7.01983 23.9391C7.01857 23.9741 7.02614 24.0108 7.00323 24.0425C6.96094 24.0394 6.97098 24.0046 6.96984 23.9814C6.96624 23.9063 6.96896 23.8311 6.96826 23.7558C6.96826 23.7311 6.97066 23.7053 6.95564 23.6821C6.91145 23.6637 6.86493 23.6747 6.81967 23.6716C6.74721 23.6667 6.67355 23.683 6.60203 23.6596C6.59919 23.6568 6.59641 23.6539 6.59364 23.6511C6.59458 23.6472 6.59547 23.6433 6.59641 23.6395C6.72417 23.6395 6.85191 23.6395 6.97962 23.6395C6.98126 23.6395 6.98297 23.6375 6.98461 23.6365C6.98625 23.6354 6.98764 23.6331 6.98764 23.6315C6.98764 23.5037 6.98764 23.376 6.98764 23.2483C6.98829 23.2472 6.98921 23.2462 6.99032 23.2456C6.99142 23.2449 6.99267 23.2446 6.99396 23.2445C6.99524 23.2445 6.99652 23.2447 6.99766 23.2453C6.99881 23.2459 6.99979 23.2468 7.00052 23.2478Z" fill="#BB2B26"/>
    <path d="M21.5432 2.24114V2.63209C21.5575 2.7553 21.5495 2.8787 21.5466 3.0021C21.5453 3.01474 21.5397 3.02654 21.5307 3.03555C21.5217 3.04455 21.51 3.05022 21.4973 3.0516C21.3769 3.05469 21.2563 3.06352 21.1361 3.04637C21.1285 3.04289 21.1223 3.03716 21.1182 3.02997C21.098 2.9067 21.1068 2.78285 21.1126 2.65914C21.1131 2.64867 21.1205 2.64022 21.1271 2.63209C21.1515 2.61071 21.1817 2.61317 21.2108 2.61285C21.2843 2.61222 21.3577 2.61285 21.4311 2.61241C21.4539 2.61241 21.4775 2.61487 21.4993 2.60037C21.5176 2.57029 21.5089 2.53593 21.5111 2.50301C21.5169 2.41769 21.4985 2.33118 21.5232 2.24675C21.5241 2.245 21.5253 2.24346 21.5269 2.24222C21.5284 2.24098 21.5301 2.24007 21.532 2.23954C21.5339 2.23901 21.5358 2.23888 21.5378 2.23915C21.5397 2.23943 21.5416 2.24011 21.5432 2.24114Z" fill="#E4352F"/>
    <path d="M1.33141 16.3677V16.7712C1.32239 16.7802 1.31055 16.7859 1.29786 16.7872C1.17446 16.7903 1.05106 16.7981 0.927849 16.7838H0.536901C0.535955 16.78 0.535072 16.7761 0.534126 16.7723L0.542513 16.764C0.626882 16.7387 0.713395 16.7572 0.798773 16.7519C0.831752 16.7498 0.865676 16.7559 0.90187 16.7392C0.914986 16.6498 0.905149 16.5598 0.908491 16.4702C0.909815 16.4352 0.902185 16.3982 0.927849 16.3676C0.936047 16.361 0.944622 16.3536 0.955153 16.3532C1.07767 16.3482 1.20032 16.3373 1.32245 16.3595L1.33141 16.3677Z" fill="#E4352F"/>
    <path d="M9.81574 21.215V20.8166C9.82053 20.8135 9.82204 20.8115 9.82387 20.8115C9.95566 20.8115 10.0875 20.8115 10.2193 20.8115C10.223 20.8166 10.2286 20.821 10.2295 20.8271C10.2457 20.9507 10.2457 21.0759 10.2295 21.1995C10.2286 21.2058 10.2231 21.21 10.2193 21.2151C10.2111 21.2217 10.2025 21.2291 10.192 21.2295C10.0695 21.2345 9.94683 21.2454 9.82469 21.2232L9.81574 21.215Z" fill="#3C3C3C"/>
    <path d="M12.2522 20.8114H12.6431C12.6567 20.9421 12.6461 21.0732 12.6487 21.2041C12.6483 21.2082 12.647 21.212 12.6448 21.2154C12.6426 21.2188 12.6396 21.2216 12.6361 21.2236C12.5037 21.2362 12.3713 21.2518 12.2398 21.2149C12.2361 21.2099 12.2304 21.2055 12.2296 21.1994C12.2133 21.0758 12.2133 20.9505 12.2296 20.8269C12.2304 20.8206 12.2359 20.8164 12.2398 20.8114C12.2438 20.8051 12.248 20.8051 12.2522 20.8114Z" fill="#3C3C3C"/>
    <path d="M9.41175 21.619V21.2206C9.41655 21.2175 9.41806 21.2156 9.41989 21.2156C9.55168 21.2156 9.68348 21.2156 9.81531 21.2156C9.81784 21.2189 9.82206 21.2219 9.82257 21.2255C9.84148 21.3566 9.84779 21.4875 9.81916 21.6182C9.81241 21.6263 9.80287 21.6315 9.79242 21.6329C9.66846 21.6393 9.54442 21.6489 9.42083 21.6275L9.41175 21.619Z" fill="#3C3C3C"/>
    <path d="M12.6562 21.2154H13.0471C13.0607 21.3456 13.0499 21.4761 13.0529 21.6064C13.0528 21.6104 13.0517 21.6142 13.0497 21.6177C13.0477 21.6212 13.045 21.6242 13.0417 21.6264C12.9117 21.6469 12.7815 21.6423 12.6512 21.6289C12.6438 21.6254 12.6378 21.6195 12.634 21.6122C12.6143 21.4914 12.6249 21.37 12.6277 21.2488C12.6289 21.2362 12.6346 21.2244 12.6436 21.2154C12.6478 21.2091 12.6519 21.2091 12.6562 21.2154Z" fill="#3C3C3C"/>
    <path d="M9.00778 22.0229V21.6246C9.01258 21.6215 9.01409 21.6195 9.01592 21.6195C9.14771 21.6195 9.27951 21.6195 9.41134 21.6195C9.41387 21.6228 9.41809 21.6258 9.4186 21.6295C9.43751 21.7605 9.44382 21.8915 9.41519 22.0221C9.40844 22.0302 9.3989 22.0355 9.38845 22.0369C9.26449 22.0432 9.14045 22.0528 9.01686 22.0315L9.00778 22.0229Z" fill="#3C3C3C"/>
    <path d="M12.6432 22.0228H12.2448C12.2417 22.018 12.2397 22.0165 12.2397 22.0147C12.2397 21.8829 12.2397 21.7511 12.2397 21.6193C12.2448 21.6156 12.2492 21.6099 12.2553 21.6091C12.3789 21.5929 12.5041 21.5929 12.6277 21.6091C12.634 21.6099 12.6382 21.6154 12.6433 21.6193C12.6499 21.6275 12.6573 21.6361 12.6577 21.6466C12.6627 21.7691 12.6735 21.8917 12.6514 22.0139L12.6432 22.0228Z" fill="#3C3C3C"/>
    <path d="M13.0601 21.6194H13.4511C13.4646 21.7495 13.4539 21.88 13.4569 22.0103C13.4567 22.0143 13.4556 22.0182 13.4537 22.0216C13.4517 22.0251 13.449 22.0281 13.4457 22.0303C13.3156 22.0508 13.1855 22.0462 13.0551 22.0329C13.0478 22.0293 13.0417 22.0234 13.0379 22.0161C13.0183 21.8953 13.0289 21.774 13.0316 21.6528C13.0329 21.6401 13.0385 21.6283 13.0475 21.6194C13.0517 21.613 13.0559 21.613 13.0601 21.6194Z" fill="#3C3C3C"/>
    <path d="M8.6038 22.4269V22.0285C8.60859 22.0254 8.61011 22.0234 8.61194 22.0234C8.74372 22.0234 8.87553 22.0234 9.00736 22.0234C9.00988 22.0267 9.01411 22.0297 9.01461 22.0334C9.03353 22.1644 9.03984 22.2954 9.01121 22.4261C9.00446 22.4341 8.99492 22.4394 8.98447 22.4408C8.8605 22.4471 8.73647 22.4568 8.61288 22.4354L8.6038 22.4269Z" fill="#3C3C3C"/>
    <path d="M13.0471 22.4269H12.6487C12.6457 22.4221 12.6437 22.4206 12.6437 22.4188C12.6437 22.287 12.6437 22.1552 12.6437 22.0233C12.6487 22.0197 12.6532 22.014 12.6593 22.0132C12.7829 21.9969 12.9081 21.9969 13.0317 22.0132C13.038 22.014 13.0422 22.0195 13.0473 22.0233C13.0539 22.0315 13.0613 22.0401 13.0617 22.0506C13.0667 22.1732 13.0775 22.2958 13.0554 22.4179L13.0471 22.4269Z" fill="#3C3C3C"/>
    <path d="M13.4641 22.0233H13.8551C13.8686 22.1534 13.8578 22.284 13.8609 22.4142C13.8607 22.4182 13.8596 22.4221 13.8577 22.4256C13.8557 22.429 13.853 22.432 13.8496 22.4342C13.7196 22.4547 13.5895 22.4502 13.4591 22.4368C13.4517 22.4332 13.4457 22.4273 13.4419 22.42C13.4222 22.2993 13.4329 22.1779 13.4356 22.0567C13.4369 22.0441 13.4425 22.0323 13.4515 22.0233C13.4557 22.017 13.4599 22.017 13.4641 22.0233Z" fill="#3C3C3C"/>
    <path d="M8.19983 22.8309V22.4325C8.20462 22.4294 8.20613 22.4275 8.20796 22.4275C8.33975 22.4275 8.47156 22.4275 8.60339 22.4275C8.60591 22.4308 8.6102 22.4338 8.6107 22.4375C8.62861 22.5692 8.63763 22.7009 8.60553 22.832C8.58876 22.8471 8.5677 22.8498 8.54683 22.8502C8.4506 22.852 8.35432 22.8519 8.25809 22.8502C8.23691 22.8498 8.21635 22.8461 8.19983 22.8309Z" fill="#3C3C3C"/>
    <path d="M13.4511 22.8308H13.0527C13.0496 22.826 13.0477 22.8245 13.0477 22.8227C13.0477 22.6909 13.0477 22.5591 13.0477 22.4273C13.0527 22.4236 13.0571 22.4179 13.0632 22.4171C13.1869 22.4008 13.3121 22.4008 13.4357 22.4171C13.442 22.4179 13.4462 22.4234 13.4512 22.4273C13.4579 22.4355 13.4652 22.444 13.4657 22.4546C13.4707 22.5771 13.4815 22.6997 13.4594 22.8219L13.4511 22.8308Z" fill="#3C3C3C"/>
    <path d="M13.8681 22.4273H14.259C14.2726 22.5575 14.2618 22.688 14.2648 22.8183C14.2647 22.8223 14.2636 22.8262 14.2616 22.8296C14.2597 22.8331 14.2569 22.8361 14.2536 22.8383C14.1236 22.8588 13.9934 22.8542 13.8631 22.8409C13.8557 22.8373 13.8497 22.8314 13.8459 22.8241C13.8262 22.7033 13.8369 22.582 13.8396 22.4608C13.8409 22.4481 13.8465 22.4363 13.8555 22.4273C13.8597 22.421 13.8639 22.421 13.8681 22.4273Z" fill="#3C3C3C"/>
    <path d="M13.8551 23.2349H13.4567C13.4536 23.2301 13.4516 23.2286 13.4516 23.2267C13.4516 23.095 13.4516 22.9631 13.4516 22.8313C13.4567 22.8277 13.4611 22.822 13.4672 22.8212C13.5908 22.8049 13.716 22.8049 13.8396 22.8212C13.8459 22.822 13.8502 22.8275 13.8552 22.8313C13.8618 22.8395 13.8692 22.8481 13.8696 22.8586C13.8746 22.9811 13.8855 23.1038 13.8633 23.2259L13.8551 23.2349Z" fill="#3C3C3C"/>
    <path d="M14.2721 22.8313H14.663C14.6732 22.9656 14.6732 23.1005 14.663 23.2348C14.6541 23.2438 14.6423 23.2494 14.6297 23.2508C14.5093 23.2539 14.3887 23.2627 14.2685 23.2455C14.2609 23.2421 14.2547 23.2363 14.2506 23.2292C14.2304 23.1059 14.2392 22.982 14.245 22.8583C14.2455 22.8479 14.2529 22.8394 14.2595 22.8313C14.2637 22.825 14.2678 22.825 14.2721 22.8313Z" fill="#3C3C3C"/>
    <path d="M14.2591 23.6388H13.8607C13.8576 23.634 13.8556 23.6325 13.8556 23.6307C13.8556 23.4989 13.8556 23.3671 13.8556 23.2352C13.8607 23.2316 13.8651 23.2259 13.8712 23.2251C13.9948 23.2088 14.12 23.2088 14.2436 23.2251C14.2499 23.2259 14.2541 23.2314 14.2592 23.2352C14.2628 23.2403 14.2685 23.2447 14.2693 23.2508C14.2856 23.3744 14.2856 23.4996 14.2693 23.6232C14.2684 23.6293 14.2627 23.6338 14.2591 23.6388Z" fill="#3C3C3C"/>
    <path d="M1.33181 2.22852V2.63208C1.32891 2.63472 1.32595 2.63744 1.32311 2.64015C1.19501 2.65802 1.06505 2.65802 0.936955 2.64015C0.933991 2.6375 0.931154 2.63472 0.928253 2.63201V2.23369C0.933045 2.2306 0.934559 2.22864 0.936387 2.22864C1.06817 2.22856 1.19998 2.22852 1.33181 2.22852Z" fill="#3C3C3C"/>
    <path d="M0.927835 3.036H0.524275V2.63761C0.529067 2.63452 0.53058 2.63257 0.532409 2.63257C0.664197 2.63257 0.796005 2.63257 0.927835 2.63257C0.934455 2.64077 0.941833 2.64934 0.942275 2.65987C0.947256 2.78239 0.958102 2.90503 0.935969 3.02717L0.927835 3.036Z" fill="#3C3C3C"/>
    <path d="M0.928253 16.7842C0.936261 16.7863 0.938721 16.7789 0.943639 16.7753C0.947055 16.7735 0.950712 16.7724 0.954485 16.7717C1.0803 16.7717 1.20608 16.7717 1.33181 16.7717V17.1701C1.32702 17.1731 1.32551 17.1752 1.32374 17.1752C1.19612 17.1752 1.06849 17.1752 0.940864 17.1752C0.940165 17.1762 0.939224 17.177 0.938125 17.1776C0.937026 17.1782 0.935802 17.1785 0.934559 17.1785C0.933316 17.1785 0.932091 17.1782 0.930992 17.1776C0.929893 17.177 0.928953 17.1762 0.928253 17.1752V16.7842Z" fill="#3C3C3C"/>
    <path d="M21.531 3.03601V2.65288C21.5341 2.64499 21.5456 2.64298 21.5437 2.63245H21.9346C21.9378 2.63522 21.9389 2.63806 21.9378 2.64083C21.9368 2.64361 21.9357 2.64506 21.9346 2.64506C21.9346 2.77268 21.9346 2.90031 21.9346 3.02793C21.9346 3.02957 21.9326 3.03121 21.9296 3.03601H21.531Z" fill="#3C3C3C"/>
    <path d="M21.5306 2.24113C21.5306 2.36875 21.5306 2.49638 21.5306 2.624C21.5306 2.62564 21.5286 2.62728 21.5256 2.63208H21.1271V2.24895C21.1301 2.24106 21.1416 2.23905 21.1397 2.22852H21.5306C21.5339 2.23129 21.5349 2.23413 21.5339 2.2369C21.5328 2.23968 21.5317 2.24113 21.5306 2.24113Z" fill="#3C3C3C"/>
    <path d="M0.927835 16.3677V16.7661C0.923042 16.7691 0.921529 16.7711 0.919763 16.7711C0.792138 16.7711 0.664512 16.7711 0.536886 16.7711C0.536186 16.7721 0.535246 16.773 0.534147 16.7736C0.533048 16.7741 0.531824 16.7744 0.53058 16.7744C0.529337 16.7744 0.528113 16.7741 0.527014 16.7736C0.525915 16.773 0.524975 16.7721 0.524275 16.7711V16.3802C0.532283 16.3822 0.534742 16.3749 0.539661 16.3712C0.543077 16.3695 0.546733 16.3683 0.550506 16.3677C0.676324 16.3677 0.8021 16.3677 0.927835 16.3677Z" fill="#3C3C3C"/>
    <path d="M8.19983 17.5796V17.5922H1.33741L1.33223 17.5796H8.19983Z" fill="#FEFEFE"/>
    <path d="M7.79585 24.0432C7.92802 24.0432 8.06018 24.0432 8.19231 24.0432C8.19396 24.0432 8.19553 24.041 8.19863 24.0384V23.6466C8.20048 23.6443 8.2026 23.6421 8.20494 23.6403C8.20679 23.6395 8.2088 23.6392 8.21081 23.6393H8.59471C8.59642 23.6393 8.59812 23.6376 8.59989 23.6367C8.60166 23.6357 8.60336 23.6335 8.60336 23.6319C8.60336 23.4998 8.60336 23.3676 8.60336 23.2354C8.6062 23.2328 8.60898 23.2302 8.61176 23.2275C8.67096 23.2062 8.73232 23.2199 8.79266 23.2164C8.853 23.2128 8.91392 23.2227 8.97931 23.2082C9.0033 23.0861 8.973 22.9615 8.99673 22.8403C8.99999 22.8332 9.00531 22.8272 9.01201 22.8232C9.09627 22.8008 9.18243 22.8169 9.2674 22.8123C9.30451 22.8102 9.34238 22.8166 9.38373 22.8024C9.40664 22.6813 9.37742 22.5573 9.40065 22.4363C9.40387 22.4292 9.40914 22.4232 9.41579 22.4191C9.50012 22.3965 9.58622 22.4128 9.67131 22.4082C9.70842 22.4061 9.7463 22.4124 9.78764 22.3982C9.81068 22.2772 9.78133 22.1531 9.80462 22.0321C9.8079 22.025 9.81321 22.0191 9.8199 22.015C9.90644 21.9922 9.99468 22.0091 10.082 22.0041C10.1171 22.002 10.153 22.0086 10.186 21.9957C10.2065 21.9651 10.198 21.9329 10.1999 21.9022C10.2056 21.8108 10.188 21.7184 10.2112 21.6277C10.2139 21.6248 10.2166 21.622 10.2193 21.6193H10.6181L10.6232 21.6319H10.2382C10.2276 21.6395 10.2319 21.6508 10.2319 21.6605C10.2319 21.772 10.2319 21.8834 10.2319 21.9951V22.0297C10.2282 22.033 10.2267 22.0355 10.2251 22.0355C10.2167 22.0359 10.2083 22.0355 10.1998 22.0355H9.83467C9.82438 22.0436 9.82836 22.0549 9.82836 22.0647C9.82836 22.1761 9.82836 22.2875 9.82836 22.3993V22.434C9.82419 22.4373 9.8228 22.439 9.82097 22.4397C9.81888 22.44 9.81675 22.44 9.81466 22.4397H9.43069C9.42888 22.4411 9.42724 22.4428 9.42583 22.4447C9.42489 22.4464 9.42441 22.4484 9.42444 22.4504C9.42444 22.5786 9.42444 22.707 9.42444 22.8354C9.42444 22.8371 9.42261 22.8388 9.42166 22.8405C9.4202 22.8419 9.41854 22.843 9.41674 22.8438C9.41465 22.8441 9.41252 22.8441 9.41043 22.8438H9.02671C9.02477 22.8454 9.02304 22.8472 9.02154 22.8492C9.02072 22.851 9.02035 22.853 9.02047 22.8551C9.02047 22.9833 9.02047 23.1116 9.02047 23.2398C9.02047 23.2414 9.01838 23.2431 9.01592 23.2469H8.62387C8.62021 23.2505 8.61826 23.2518 8.61756 23.2532C8.61684 23.2552 8.61658 23.2574 8.61681 23.2595C8.61681 23.3878 8.61681 23.516 8.61681 23.6443C8.61681 23.6459 8.61453 23.6475 8.61169 23.6512H8.21984C8.21624 23.6548 8.21422 23.6561 8.21352 23.6579C8.21293 23.6599 8.21278 23.6621 8.21308 23.6642V24.0426C8.21341 24.0447 8.21341 24.0468 8.21308 24.0489C8.21245 24.0508 8.21056 24.0521 8.2074 24.0558H7.81605C7.81201 24.0595 7.80974 24.0608 7.80917 24.0624C7.80885 24.0666 7.80885 24.0709 7.80917 24.0751V24.4535C7.80355 24.4623 7.79478 24.4598 7.78676 24.4598C7.3936 24.4598 7.00041 24.4598 6.60721 24.4598C6.6009 24.4598 6.59509 24.4592 6.58935 24.4588L6.58392 24.4472C6.59018 24.442 6.59715 24.4376 6.60462 24.4343C6.63536 24.4244 6.66718 24.4274 6.69861 24.4274C7.02263 24.4271 7.34666 24.427 7.67068 24.4271C7.7018 24.4271 7.7338 24.4307 7.76789 24.414C7.78392 24.3301 7.77212 24.244 7.77603 24.1587C7.7778 24.1195 7.76776 24.078 7.79585 24.0432Z" fill="#FEFEFE"/>
    <path d="M12.2396 25.6718V25.6592L12.2513 25.664V26.4744C12.2491 26.4766 12.2479 26.4786 12.246 26.4794C12.244 26.4799 12.2418 26.48 12.2397 26.4798H10.2297C10.2278 26.4794 10.2259 26.4788 10.2241 26.478L10.2197 26.4672H10.2323C10.2649 26.4402 10.3042 26.4472 10.3413 26.4472C10.9301 26.4468 11.5188 26.4466 12.1076 26.4466C12.1407 26.4466 12.175 26.4524 12.206 26.4348C12.2241 26.4076 12.2186 26.3774 12.219 26.3486C12.2195 26.1551 12.219 25.9617 12.2195 25.7683C12.2196 25.7349 12.2152 25.7002 12.2396 25.6718Z" fill="#FEFEFE"/>
    <path d="M8.19983 17.9835H10.6185L10.6237 17.9961H8.205L8.19983 17.9835Z" fill="white"/>
    <path d="M15.8754 23.6519V23.6393L15.8871 23.6441V24.4554C15.8715 24.465 15.8545 24.4585 15.8384 24.4595C15.8195 24.4608 15.8006 24.4599 15.7816 24.4599H14.6686L14.6634 24.4472H14.6761C14.7066 24.4215 14.7436 24.4274 14.7788 24.4273C15.1029 24.4268 15.4269 24.4266 15.7509 24.4268C15.7821 24.4268 15.814 24.431 15.8425 24.4167C15.8595 24.3902 15.8551 24.3622 15.8551 24.3353C15.8556 24.1396 15.8551 23.944 15.8556 23.7483C15.8555 23.715 15.8509 23.6804 15.8754 23.6519Z" fill="#FEFEFE"/>
    <path d="M12.2396 0.625173V0.612549L12.2522 0.617725V1.82448L12.2396 1.8193V0.625173Z" fill="white"/>
    <path d="M6.59653 24.4464H6.58392V23.6445L6.59653 23.6393V23.6519C6.6181 23.6761 6.61658 23.7061 6.61665 23.7353C6.61711 23.9446 6.61711 24.1538 6.61665 24.363C6.61658 24.3922 6.61803 24.4222 6.59653 24.4464Z" fill="#E4352F"/>
    <path d="M7.00051 23.2478H6.9879C6.98935 23.2442 6.99087 23.2407 6.99307 23.2352H7.79502C7.79357 23.2388 7.79206 23.2424 7.78985 23.2478H7.00051Z" fill="#E4352F"/>
    <path d="M13.8681 22.4269H13.8555V22.0233L13.8681 22.0285V22.4269Z" fill="#FEFEFE"/>
    <path d="M14.6634 23.2349V22.8313L14.6761 22.8365V23.2349H14.6634Z" fill="#FEFEFE"/>
    <path d="M12.2522 20.811H12.2396V20.4075L12.2522 20.4126V20.811Z" fill="#FEFEFE"/>
    <path d="M15.484 23.6388H15.4714C15.46 23.6263 15.4536 23.6101 15.4532 23.5933C15.45 23.4933 15.45 23.3933 15.4532 23.2934C15.4536 23.2765 15.46 23.2603 15.4714 23.2478V23.2352L15.484 23.2403V23.6388Z" fill="#FEFEFE"/>
    <path d="M11.8482 0.612178H11.8356C11.8242 0.59969 11.8178 0.583526 11.8174 0.566651C11.8141 0.466728 11.8141 0.366763 11.8174 0.266756C11.8178 0.249882 11.8242 0.233717 11.8356 0.221229V0.208618L11.8482 0.213789V0.612178Z" fill="white"/>
    <path d="M13.4641 22.0229H13.4515V21.6194L13.4641 21.6246V22.0229Z" fill="#FEFEFE"/>
    <path d="M14.2721 22.8309H14.2595V22.4274L14.2721 22.4325V22.8309Z" fill="#FEFEFE"/>
    <path d="M13.0602 21.6189H13.0475V21.2153L13.0602 21.2205V21.6189Z" fill="#FEFEFE"/>
    <path d="M14.663 24.0432V24.0558H14.2646L14.2595 24.0432H14.2721C14.2846 24.0318 14.3007 24.0253 14.3176 24.0249C14.4176 24.0218 14.5175 24.0218 14.6175 24.0249C14.6344 24.0253 14.6505 24.0318 14.663 24.0432Z" fill="#FEFEFE"/>
    <path d="M12.6562 21.215H12.6436V20.8114L12.6562 20.8166V21.215Z" fill="#FEFEFE"/>
    <path d="M21.1393 1.83676H21.1271V1.82454C21.1288 1.82421 21.1305 1.82429 21.1321 1.82479C21.1338 1.82528 21.1352 1.82617 21.1365 1.82738C21.1377 1.82859 21.1386 1.83008 21.1391 1.83172C21.1395 1.83335 21.1396 1.83509 21.1393 1.83676Z" fill="#FEFEFE"/>
    <path d="M21.531 2.24069V2.22847C21.5327 2.22814 21.5345 2.22822 21.5361 2.22872C21.5377 2.22921 21.5392 2.2301 21.5404 2.23131C21.5416 2.23252 21.5425 2.23401 21.543 2.23565C21.5435 2.23728 21.5436 2.23902 21.5433 2.24069H21.531Z" fill="#FEFEFE"/>
    <path d="M0.928246 17.1757H0.940466V17.1879C0.93879 17.1882 0.937057 17.1881 0.935421 17.1876C0.933785 17.1871 0.932296 17.1862 0.931087 17.185C0.929879 17.1838 0.928987 17.1823 0.928491 17.1807C0.927996 17.1791 0.927912 17.1773 0.928246 17.1757Z" fill="#FEFEFE"/>
    <path d="M0.120292 16.3677H0.132511V16.3799C0.130835 16.3802 0.129102 16.3801 0.127466 16.3797C0.12583 16.3792 0.124342 16.3783 0.123133 16.3771C0.121924 16.3758 0.121032 16.3744 0.120537 16.3727C0.120041 16.3711 0.119957 16.3694 0.120292 16.3677Z" fill="#FEFEFE"/>
    <path d="M0.524262 16.7716H0.536482V16.7838C0.534806 16.7842 0.533073 16.7841 0.531437 16.7836C0.529801 16.7831 0.528312 16.7822 0.527103 16.781C0.525895 16.7798 0.525003 16.7783 0.524507 16.7767C0.524012 16.775 0.523928 16.7733 0.524262 16.7716Z" fill="#FEFEFE"/>
    <path d="M21.935 2.64475V2.63253C21.9367 2.63219 21.9384 2.63227 21.9401 2.63277C21.9417 2.63327 21.9432 2.63416 21.9444 2.63537C21.9456 2.63658 21.9465 2.63806 21.947 2.6397C21.9475 2.64134 21.9476 2.64307 21.9473 2.64475H21.935Z" fill="#FEFEFE"/>
    <path d="M9.81574 17.5796C9.81574 17.0477 9.81574 16.5158 9.81574 15.9838C9.81574 15.9822 9.81807 15.9805 9.82129 15.9763H13.4515C13.4731 16.0006 13.4717 16.0307 13.4717 16.0599C13.4722 16.5386 13.4722 17.0173 13.4717 17.496C13.4717 17.5253 13.4731 17.5554 13.4515 17.5796H9.81574Z" fill="#E4352F"/>
    <path d="M11.4316 20.0035V25.2489C11.4281 25.2522 11.4268 25.2542 11.4253 25.2552C11.4232 25.2556 11.4211 25.2556 11.419 25.2552H11.0403C11.0292 25.2355 11.0344 25.214 11.0344 25.1934C11.0342 23.4824 11.0342 21.7713 11.0344 20.0603C11.0344 20.0414 11.032 20.0225 11.0374 20.0039C11.0422 19.9999 11.046 19.9937 11.0525 19.9929C11.1732 19.9772 11.2954 19.9773 11.4161 19.9932C11.4221 19.9941 11.4265 19.9999 11.4316 20.0035Z" fill="#FFBFBB"/>
    <path d="M13.4515 17.5796V15.9763H14.2595C14.2811 16.0006 14.2797 16.0307 14.2797 16.0599C14.2801 16.5386 14.2801 17.0173 14.2797 17.496C14.2797 17.5253 14.2811 17.5554 14.2595 17.5796H13.4515Z" fill="#BB2B26"/>
    <path d="M11.4316 20.0035H11.0403C11.0312 19.9901 11.034 19.975 11.034 19.9605C11.034 19.5862 11.034 19.2119 11.034 18.8375C11.034 18.8229 11.0323 18.808 11.0383 18.794C11.0411 18.7908 11.0437 18.7857 11.0471 18.7852C11.1755 18.7663 11.3039 18.7551 11.4314 18.7915L11.4316 20.0035Z" fill="#FFC1BD"/>
    <path d="M11.4316 18.7916C11.3036 18.7916 11.1755 18.7916 11.0475 18.7916C11.0459 18.7916 11.0443 18.7939 11.0403 18.7972V25.2552L11.0277 25.25V17.9847H11.4265C11.4289 17.9874 11.4315 17.9889 11.4315 17.9904C11.4316 18.2575 11.4316 18.5245 11.4316 18.7916Z" fill="#FFCECB"/>
    <path d="M10.2197 21.215V20.8114H10.6165C10.6254 20.8168 10.6232 20.8257 10.6232 20.8337C10.6232 20.9533 10.6232 21.073 10.6232 21.1927C10.6232 21.199 10.6225 21.2048 10.6221 21.2099C10.6197 21.2122 10.6183 21.2145 10.6166 21.2148C10.6124 21.2151 10.6082 21.2151 10.604 21.2148L10.2197 21.215Z" fill="#FFCECB"/>
    <path d="M12.2392 20.8114V21.215H11.8424C11.8335 21.2096 11.8357 21.2007 11.8357 21.1927C11.8357 21.073 11.8357 20.9534 11.8357 20.8337C11.8357 20.8274 11.8364 20.8216 11.8368 20.8165C11.8392 20.8142 11.8406 20.8119 11.8423 20.8116C11.8465 20.8113 11.8507 20.8113 11.8549 20.8116L12.2392 20.8114Z" fill="#FFCECB"/>
    <path d="M9.81574 21.6189V21.2153H10.2193V21.6189C10.2111 21.6255 10.2025 21.6329 10.192 21.6333C10.0695 21.6383 9.94683 21.6492 9.82469 21.627L9.81574 21.6189Z" fill="#FFCECB"/>
    <path d="M12.4413 21.7024C12.5989 21.7024 12.7266 21.5746 12.7266 21.417C12.7266 21.2595 12.5989 21.1317 12.4413 21.1317C12.2837 21.1317 12.156 21.2595 12.156 21.417C12.156 21.5746 12.2837 21.7024 12.4413 21.7024Z" fill="#FFCECB"/>
    <path d="M21.1271 2.63251V3.03649C21.109 3.05543 21.0851 3.05334 21.0622 3.05397C21.0306 3.05486 20.9991 3.05435 20.9675 3.05435C14.5906 3.05435 8.21359 3.05435 1.83657 3.05435C1.70193 3.05435 1.56729 3.0582 1.43259 3.05675C1.40331 3.05675 1.37364 3.05865 1.34511 3.04867C1.33734 3.04536 1.33054 3.04012 1.32535 3.03346C1.29833 2.93878 1.31714 2.84252 1.31304 2.74702C1.3114 2.70826 1.3042 2.66685 1.33198 2.63232L21.1271 2.63251Z" fill="#3C3C3C"/>
    <path d="M1.33223 3.03641V16.3676H0.928253V3.03641C0.933303 3.03275 0.937721 3.02707 0.943844 3.02625C1.06758 3.00997 1.19291 3.00997 1.31664 3.02625C1.32276 3.02707 1.32718 3.03275 1.33223 3.03641Z" fill="#3C3C3C"/>
    <path d="M21.1271 16.3677V15.9637C21.1102 15.9453 21.1081 15.9222 21.1071 15.8989C21.1061 15.8755 21.1065 15.8526 21.1065 15.8294C21.1065 11.6141 21.1067 7.39869 21.107 3.18332C21.107 3.13807 21.0956 3.08997 21.1271 3.049V3.03638H21.531V16.3677C21.5281 16.3703 21.5252 16.373 21.5223 16.3757C21.3941 16.3936 21.264 16.3936 21.1358 16.3757C21.1328 16.3732 21.13 16.3704 21.1271 16.3677Z" fill="#3C3C3C"/>
    <path d="M21.9346 16.3677V16.7661C21.9298 16.7692 21.9283 16.7711 21.9265 16.7711C21.7947 16.7711 21.6629 16.7711 21.531 16.7711C21.5283 16.7681 21.5256 16.7648 21.5228 16.7621C21.509 16.6302 21.4946 16.4984 21.531 16.3676L21.9346 16.3677Z" fill="#3C3C3C"/>
    <path d="M14.6635 15.9763V16.3614C14.6712 16.3719 14.6824 16.3672 14.6922 16.3677C14.7048 16.3683 14.7174 16.3677 14.73 16.3677H21.1271C21.1361 16.3767 21.1418 16.3885 21.1431 16.4012C21.1455 16.5225 21.1563 16.644 21.1368 16.765C21.1328 16.7724 21.1266 16.7784 21.1191 16.7821C21.0762 16.7977 21.0316 16.7918 20.9877 16.7918C18.9299 16.7922 16.8722 16.7924 14.8144 16.7924C14.7751 16.7924 14.7347 16.7866 14.6888 16.8072C14.68 16.9176 14.6825 17.0292 14.6877 17.1368C14.7319 17.1621 14.7704 17.1549 14.8076 17.1549C16.4634 17.1552 18.1193 17.1553 19.7753 17.1552C20.1877 17.1552 20.6001 17.1552 21.0124 17.1552C21.0479 17.1552 21.0842 17.1504 21.1181 17.1668L21.1271 17.1756V17.5733C21.1194 17.5838 21.1081 17.5791 21.0984 17.5796C21.0857 17.5803 21.0731 17.5796 21.0605 17.5796H14.2595V15.9763H14.6635Z" fill="#3C3C3C"/>
    <path d="M14.2595 15.5724V15.9637C12.2461 15.9637 10.2327 15.9637 8.21927 15.9637C8.21775 15.9637 8.21624 15.9612 8.21359 15.9589V15.5776C8.21624 15.5753 8.21775 15.5728 8.21927 15.5728C10.2327 15.5725 12.2461 15.5724 14.2595 15.5724Z" fill="#3C3C3C"/>
    <path d="M11.8356 0.221313V0.612666C11.4381 0.612666 11.0406 0.612666 10.6431 0.612666C10.6415 0.612666 10.64 0.610078 10.6374 0.607742V0.226426C10.64 0.224091 10.6415 0.221503 10.6431 0.221503C11.0406 0.221377 11.4381 0.221313 11.8356 0.221313Z" fill="#3C3C3C"/>
    <path d="M8.19983 22.8313H8.60339C8.6061 22.8343 8.60881 22.8376 8.61159 22.8403C8.62546 22.9722 8.63984 23.104 8.60339 23.2349H8.205C8.20191 23.2301 8.19996 23.2286 8.19996 23.2267C8.19987 23.0949 8.19983 22.9631 8.19983 22.8313Z" fill="#FFC1BD"/>
    <path d="M12.2396 25.6718C12.2396 25.9344 12.2396 26.197 12.2396 26.4597C12.2396 26.4613 12.2373 26.4629 12.234 26.4671H10.2323V25.6731H10.6188C10.6204 25.6744 10.6218 25.6758 10.6229 25.6775C10.6236 25.6794 10.6239 25.6815 10.6237 25.6835C10.6237 25.8075 10.6237 25.9314 10.6237 26.0553C10.6237 26.0569 10.6258 26.0586 10.628 26.0616H11.831C11.8395 26.055 11.8353 26.0437 11.8353 26.0339C11.8353 25.9266 11.8353 25.8193 11.8353 25.7125V25.6781C11.8392 25.6747 11.8407 25.6723 11.8422 25.6723C11.9748 25.6719 12.1073 25.6718 12.2396 25.6718Z" fill="#3C3C3C"/>
    <path d="M21.5306 16.7716V17.17C21.5258 17.1731 21.5243 17.1751 21.5225 17.1751C21.3907 17.1751 21.2589 17.1751 21.127 17.1751C21.1234 17.17 21.1177 17.1656 21.1169 17.1595C21.1006 17.0359 21.1006 16.9107 21.1169 16.7871C21.1177 16.7808 21.1232 16.7765 21.127 16.7715C21.1321 16.7678 21.1365 16.7622 21.1426 16.7613C21.2662 16.7451 21.3914 16.7451 21.515 16.7613C21.5211 16.7623 21.5256 16.768 21.5306 16.7716Z" fill="#3C3C3C"/>
    <path d="M15.8754 23.6519C15.8754 23.9144 15.8754 24.1769 15.8754 24.4394C15.8754 24.4411 15.8732 24.4426 15.8701 24.4472H14.6761V24.0484C14.6809 24.0454 14.6824 24.0433 14.6842 24.0433C14.8119 24.0433 14.9397 24.0433 15.0674 24.0433C15.0958 24.0192 15.1305 24.0248 15.1632 24.0238C15.2546 24.0209 15.3463 24.0295 15.4352 24.0183C15.4596 23.9817 15.4505 23.9453 15.4513 23.911C15.4528 23.8462 15.4513 23.7815 15.4522 23.7167C15.4526 23.6936 15.4548 23.6707 15.4711 23.6522L15.8754 23.6519Z" fill="#3C3C3C"/>
    <path d="M15.4706 23.2479V23.6389H14.6771V23.253C14.6797 23.2507 14.6813 23.2481 14.6828 23.2481C14.9454 23.248 15.208 23.2479 15.4706 23.2479Z" fill="#3C3C3C"/>
    <path d="M14.2595 23.6388V23.2352H14.663V23.6336C14.6582 23.6367 14.6567 23.6387 14.6549 23.6387C14.5231 23.6387 14.3913 23.6388 14.2595 23.6388Z" fill="#FFC1BD"/>
    <path d="M15.471 23.6519C15.471 23.7795 15.471 23.9071 15.471 24.0347C15.471 24.0364 15.469 24.038 15.4659 24.0428H15.0674C15.0674 23.9152 15.0674 23.7876 15.0674 23.6599C15.0674 23.6583 15.0694 23.6566 15.0725 23.6519H15.471Z" fill="#E4352F"/>
    <path d="M14.663 24.0429H14.2721V23.6587C14.2775 23.6498 14.2863 23.652 14.2944 23.652C14.4098 23.652 14.5253 23.652 14.6408 23.652C14.6471 23.652 14.6529 23.6527 14.658 23.653C14.6603 23.6555 14.6626 23.6569 14.6629 23.6586C14.6631 23.6628 14.6631 23.667 14.6629 23.6712L14.663 24.0429Z" fill="#3C3C3C"/>
    <path d="M6.59655 24.4472V23.6519C6.72472 23.6519 6.8529 23.6519 6.98108 23.6519C6.9826 23.6519 6.98411 23.6544 6.98739 23.6575V24.0378L7.00002 24.043C7.0125 24.0316 7.02869 24.0251 7.04559 24.0248C7.14562 24.0216 7.24569 24.0216 7.3458 24.0248C7.36289 24.0251 7.37927 24.0317 7.39187 24.0432H7.79585C7.79585 24.1754 7.79585 24.3077 7.79585 24.4399C7.79585 24.4415 7.79345 24.4431 7.79017 24.4472H6.59655Z" fill="#3C3C3C"/>
    <path d="M7.39147 24.0429H7.00052V23.6587C7.00594 23.6498 7.01477 23.652 7.02278 23.652C7.13821 23.652 7.25369 23.652 7.36921 23.652C7.37551 23.652 7.38131 23.6527 7.38642 23.653C7.38869 23.6555 7.39102 23.6569 7.39128 23.6586C7.39156 23.6628 7.39156 23.667 7.39128 23.6712L7.39147 24.0429Z" fill="#E4352F"/>
    <path d="M9.41175 22.0229V21.6194H9.81531C9.81897 21.6244 9.82465 21.6288 9.82547 21.635C9.84173 21.7586 9.84173 21.8838 9.82547 22.0074C9.82465 22.0137 9.81916 22.0179 9.81531 22.0229C9.80712 22.0296 9.79854 22.0369 9.78801 22.0374C9.66549 22.0424 9.54285 22.0532 9.42071 22.0311L9.41175 22.0229Z" fill="#FFC1BD"/>
    <path d="M12.8453 22.1064C13.0028 22.1064 13.1306 21.9787 13.1306 21.8211C13.1306 21.6635 13.0028 21.5358 12.8453 21.5358C12.6877 21.5358 12.5599 21.6635 12.5599 21.8211C12.5599 21.9787 12.6877 22.1064 12.8453 22.1064Z" fill="#FFC1BD"/>
    <path d="M9.00778 22.4269V22.0233H9.41134C9.415 22.0284 9.42068 22.0328 9.4215 22.0389C9.43776 22.1625 9.43776 22.2877 9.4215 22.4113C9.42068 22.4176 9.41519 22.4218 9.41134 22.4269C9.40315 22.4335 9.39457 22.4409 9.38404 22.4413C9.26152 22.4463 9.13888 22.4571 9.01674 22.435L9.00778 22.4269Z" fill="#FFC1BD"/>
    <path d="M13.2492 22.5104C13.4068 22.5104 13.5346 22.3826 13.5346 22.225C13.5346 22.0674 13.4068 21.9397 13.2492 21.9397C13.0917 21.9397 12.9639 22.0674 12.9639 22.225C12.9639 22.3826 13.0917 22.5104 13.2492 22.5104Z" fill="#FFC1BD"/>
    <path d="M8.6038 22.8309V22.4274H9.00736C9.01102 22.4324 9.01669 22.4368 9.01751 22.4429C9.03378 22.5665 9.03378 22.6917 9.01751 22.8154C9.01669 22.8217 9.01121 22.8259 9.00736 22.8309C9.00232 22.8346 8.9979 22.8403 8.99179 22.8411C8.86818 22.8573 8.74298 22.8573 8.61938 22.8411C8.61326 22.8403 8.60885 22.8346 8.6038 22.8309Z" fill="#FFC1BD"/>
    <path d="M13.6532 22.9144C13.8108 22.9144 13.9385 22.7867 13.9385 22.6291C13.9385 22.4715 13.8108 22.3438 13.6532 22.3438C13.4956 22.3438 13.3679 22.4715 13.3679 22.6291C13.3679 22.7867 13.4956 22.9144 13.6532 22.9144Z" fill="#FFC1BD"/>
    <path d="M14.0572 23.3183C14.2148 23.3183 14.3425 23.1906 14.3425 23.033C14.3425 22.8754 14.2148 22.7477 14.0572 22.7477C13.8996 22.7477 13.7719 22.8754 13.7719 23.033C13.7719 23.1906 13.8996 23.3183 14.0572 23.3183Z" fill="#FFC1BD"/>
    <path d="M1.12995 3.11949C1.28753 3.11949 1.41527 2.99174 1.41527 2.83416C1.41527 2.67657 1.28753 2.54883 1.12995 2.54883C0.972362 2.54883 0.844616 2.67657 0.844616 2.83416C0.844616 2.99174 0.972362 3.11949 1.12995 3.11949Z" fill="#E4352F"/>
    <path d="M9.81574 22.0229V21.6194H10.2193V22.0178C10.2145 22.0209 10.213 22.0228 10.2112 22.0228C10.0794 22.0229 9.94757 22.0229 9.81574 22.0229Z" fill="#3C3C3C"/>
    <path d="M9.41175 22.4269V22.0233H9.81531V22.4217C9.81052 22.4248 9.80901 22.4267 9.80718 22.4267C9.67539 22.4268 9.54358 22.4269 9.41175 22.4269Z" fill="#3C3C3C"/>
    <path d="M9.00778 22.8309V22.4274H9.41134V22.8258C9.40655 22.8288 9.40504 22.8308 9.40321 22.8308C9.27142 22.8309 9.13961 22.8309 9.00778 22.8309Z" fill="#3C3C3C"/>
    <path d="M8.6038 22.8313H9.00736V23.2297C9.00257 23.2328 9.00106 23.2347 8.99923 23.2347C8.86744 23.2347 8.73563 23.2347 8.6038 23.2347V22.8313Z" fill="#3C3C3C"/>
    <path d="M21.3288 16.8547C21.4864 16.8547 21.6141 16.727 21.6141 16.5694C21.6141 16.4118 21.4864 16.2841 21.3288 16.2841C21.1712 16.2841 21.0434 16.4118 21.0434 16.5694C21.0434 16.727 21.1712 16.8547 21.3288 16.8547Z" fill="#E4352F"/>
    <path d="M21.1271 16.7716V17.1756H14.6646V16.7767C14.6672 16.7743 14.6688 16.7718 14.6703 16.7718C16.8226 16.7717 18.9749 16.7716 21.1271 16.7716Z" fill="#E4352F"/>
</svg>
