<svg width="39" height="38" viewBox="0 0 39 38" fill="none" xmlns="http://www.w3.org/2000/svg">
    <path d="M31.9992 32.4568H30.5844V33.8717H31.9992V32.4568Z" fill="#B26100"/>
    <path d="M31.9992 31.0417H30.5844V32.4566H31.9992V31.0417Z" fill="#FF9700"/>
    <path d="M31.9992 29.627H30.5844V31.0418H31.9992V29.627Z" fill="#FF9700"/>
    <path d="M31.9992 28.212H30.5844V29.6269H31.9992V28.212Z" fill="#FF9700"/>
    <path d="M31.9992 26.7972H30.5844V28.2121H31.9992V26.7972Z" fill="#FF9700"/>
    <path d="M31.9992 25.3823H30.5844V26.7972H31.9992V25.3823Z" fill="#FF9700"/>
    <path d="M31.9992 23.9675H30.5844V25.3824H31.9992V23.9675Z" fill="#DFDFDF"/>
    <path d="M31.9992 22.5529H30.5844V23.9677H31.9992V22.5529Z" fill="#FF9700"/>
    <path d="M31.9992 21.1379H30.5844V22.5527H31.9992V21.1379Z" fill="#DFDFDF"/>
    <path d="M31.9992 19.7231H30.5844V21.138H31.9992V19.7231Z" fill="#DFDFDF"/>
    <path d="M31.9992 18.3081H30.5844V19.723H31.9992V18.3081Z" fill="#DFDFDF"/>
    <path d="M31.9992 16.8933H30.5844V18.3082H31.9992V16.8933Z" fill="#DFDFDF"/>
    <path d="M31.9992 15.4784H30.5844V16.8933H31.9992V15.4784Z" fill="#DFDFDF"/>
    <path d="M31.9992 14.0635H30.5844V15.4784H31.9992V14.0635Z" fill="#DFDFDF"/>
    <path d="M31.9992 12.6484H30.5844V14.0633H31.9992V12.6484Z" fill="#DFDFDF"/>
    <path d="M31.9992 11.2336H30.5844V12.6485H31.9992V11.2336Z" fill="#DFDFDF"/>
    <path d="M31.9992 9.81873H30.5844V11.2336H31.9992V9.81873Z" fill="#DFDFDF"/>
    <path d="M31.9992 8.40375H30.5844V9.81862H31.9992V8.40375Z" fill="#DFDFDF"/>
    <path d="M31.9992 6.95831H30.5844V8.37318H31.9992V6.95831Z" fill="#DFDFDF"/>
    <path d="M31.9992 5.5434H30.5844V6.95827H31.9992V5.5434Z" fill="#DFDFDF"/>
    <path d="M31.9992 4.1286H30.5844V5.54347H31.9992V4.1286Z" fill="#DFDFDF"/>
    <path d="M30.5843 33.8716H29.1694V35.2865H30.5843V33.8716Z" fill="#7C4100"/>
    <path d="M30.5843 32.4568H29.1694V33.8717H30.5843V32.4568Z" fill="#B26100"/>
    <path d="M30.5843 31.0417H29.1694V32.4566H30.5843V31.0417Z" fill="#FF9700"/>
    <path d="M30.5843 29.627H29.1694V31.0418H30.5843V29.627Z" fill="#FF9700"/>
    <path d="M30.5843 28.212H29.1694V29.6269H30.5843V28.212Z" fill="#FF9700"/>
    <path d="M30.5843 26.7972H29.1694V28.2121H30.5843V26.7972Z" fill="#FF9700"/>
    <path d="M30.5843 25.3823H29.1694V26.7972H30.5843V25.3823Z" fill="#FF9700"/>
    <path d="M30.5843 23.9675H29.1694V25.3824H30.5843V23.9675Z" fill="#FF9700"/>
    <path d="M30.5843 22.5529H29.1694V23.9677H30.5843V22.5529Z" fill="#FF9700"/>
    <path d="M30.5843 21.1379H29.1694V22.5527H30.5843V21.1379Z" fill="#FF9700"/>
    <path d="M30.5843 19.7231H29.1694V21.138H30.5843V19.7231Z" fill="#FF9700"/>
    <path d="M30.5843 18.3081H29.1694V19.723H30.5843V18.3081Z" fill="#FF9700"/>
    <path d="M30.5843 16.8933H29.1694V18.3082H30.5843V16.8933Z" fill="#FF9700"/>
    <path d="M30.5843 15.4784H29.1694V16.8933H30.5843V15.4784Z" fill="#FF9700"/>
    <path d="M30.5843 14.0635H29.1694V15.4784H30.5843V14.0635Z" fill="#FF9700"/>
    <path d="M30.5843 12.6484H29.1694V14.0633H30.5843V12.6484Z" fill="#FF9700"/>
    <path d="M30.5843 11.2336H29.1694V12.6485H30.5843V11.2336Z" fill="#FF9700"/>
    <path d="M30.5843 9.81873H29.1694V11.2336H30.5843V9.81873Z" fill="#FF9700"/>
    <path d="M30.5843 8.40375H29.1694V9.81862H30.5843V8.40375Z" fill="#FF9700"/>
    <path d="M30.5843 6.95831H29.1694V8.37318H30.5843V6.95831Z" fill="#FF9700"/>
    <path d="M30.5843 5.5434H29.1694V6.95827H30.5843V5.5434Z" fill="#FF9700"/>
    <path d="M30.5843 4.1286H29.1694V5.54347H30.5843V4.1286Z" fill="#FF9700"/>
    <path d="M30.5843 2.71362H29.1694V4.12849H30.5843V2.71362Z" fill="#DFDFDF"/>
    <path d="M29.1694 33.8716H27.7545V35.2865H29.1694V33.8716Z" fill="#7C4100"/>
    <path d="M29.1694 32.4568H27.7545V33.8717H29.1694V32.4568Z" fill="#B26100"/>
    <path d="M29.1694 31.0417H27.7545V32.4566H29.1694V31.0417Z" fill="#1F5120"/>
    <path d="M29.1694 29.627H27.7545V31.0418H29.1694V29.627Z" fill="#29632D"/>
    <path d="M29.1694 28.212H27.7545V29.6269H29.1694V28.212Z" fill="#29632D"/>
    <path d="M29.1694 26.7972H27.7545V28.2121H29.1694V26.7972Z" fill="#29632D"/>
    <path d="M29.1694 25.3823H27.7545V26.7972H29.1694V25.3823Z" fill="#FF9700"/>
    <path d="M29.1694 23.9675H27.7545V25.3824H29.1694V23.9675Z" fill="#7C4100"/>
    <path d="M29.1694 22.5529H27.7545V23.9677H29.1694V22.5529Z" fill="#B26100"/>
    <path d="M29.1694 21.1379H27.7545V22.5527H29.1694V21.1379Z" fill="#FF9700"/>
    <path d="M29.1694 19.7231H27.7545V21.138H29.1694V19.7231Z" fill="#7C4100"/>
    <path d="M29.1694 18.3081H27.7545V19.723H29.1694V18.3081Z" fill="#B26100"/>
    <path d="M29.1694 16.8933H27.7545V18.3082H29.1694V16.8933Z" fill="#FF9700"/>
    <path d="M29.1694 15.4784H27.7545V16.8933H29.1694V15.4784Z" fill="#7C4100"/>
    <path d="M29.1694 14.0635H27.7545V15.4784H29.1694V14.0635Z" fill="#B26100"/>
    <path d="M29.1694 12.6484H27.7545V14.0633H29.1694V12.6484Z" fill="#FF9700"/>
    <path d="M29.1694 11.2336H27.7545V12.6485H29.1694V11.2336Z" fill="#7C4100"/>
    <path d="M29.1694 9.81873H27.7545V11.2336H29.1694V9.81873Z" fill="#B26100"/>
    <path d="M29.1694 8.40375H27.7545V9.81862H29.1694V8.40375Z" fill="#B26100"/>
    <path d="M29.1694 6.95831H27.7545V8.37318H29.1694V6.95831Z" fill="#B26100"/>
    <path d="M29.1694 5.5434H27.7545V6.95827H29.1694V5.5434Z" fill="#B26100"/>
    <path d="M29.1694 4.1286H27.7545V5.54347H29.1694V4.1286Z" fill="#FF9700"/>
    <path d="M29.1694 2.71362H27.7545V4.12849H29.1694V2.71362Z" fill="#DFDFDF"/>
    <path d="M27.7547 33.8716H26.3398V35.2865H27.7547V33.8716Z" fill="#7C4100"/>
    <path d="M27.7547 32.4568H26.3398V33.8717H27.7547V32.4568Z" fill="#B26100"/>
    <path d="M27.7547 31.0417H26.3398V32.4566H27.7547V31.0417Z" fill="#1F5120"/>
    <path d="M27.7547 29.627H26.3398V31.0418H27.7547V29.627Z" fill="#29632D"/>
    <path d="M27.7547 28.212H26.3398V29.6269H27.7547V28.212Z" fill="#29632D"/>
    <path d="M27.7547 26.7972H26.3398V28.2121H27.7547V26.7972Z" fill="#29632D"/>
    <path d="M27.7547 25.3823H26.3398V26.7972H27.7547V25.3823Z" fill="#FF9700"/>
    <path d="M27.7547 23.9675H26.3398V25.3824H27.7547V23.9675Z" fill="#7C4100"/>
    <path d="M27.7547 22.5529H26.3398V23.9677H27.7547V22.5529Z" fill="#B26100"/>
    <path d="M27.7547 21.1379H26.3398V22.5527H27.7547V21.1379Z" fill="#FF9700"/>
    <path d="M27.7547 19.7231H26.3398V21.138H27.7547V19.7231Z" fill="#7C4100"/>
    <path d="M27.7547 18.3081H26.3398V19.723H27.7547V18.3081Z" fill="#B26100"/>
    <path d="M27.7547 16.8933H26.3398V18.3082H27.7547V16.8933Z" fill="#FF9700"/>
    <path d="M27.7547 15.4784H26.3398V16.8933H27.7547V15.4784Z" fill="#7C4100"/>
    <path d="M27.7547 14.0635H26.3398V15.4784H27.7547V14.0635Z" fill="#B26100"/>
    <path d="M27.7547 12.6484H26.3398V14.0633H27.7547V12.6484Z" fill="#FF9700"/>
    <path d="M27.7547 11.2336H26.3398V12.6485H27.7547V11.2336Z" fill="#7C4100"/>
    <path d="M27.7547 9.81873H26.3398V11.2336H27.7547V9.81873Z" fill="#BCCACE"/>
    <path d="M27.7547 8.40375H26.3398V9.81862H27.7547V8.40375Z" fill="#BCCACE"/>
    <path d="M27.7547 6.95831H26.3398V8.37318H27.7547V6.95831Z" fill="#BCCACE"/>
    <path d="M27.7547 5.5434H26.3398V6.95827H27.7547V5.5434Z" fill="#B26100"/>
    <path d="M27.7547 4.1286H26.3398V5.54347H27.7547V4.1286Z" fill="#FF9700"/>
    <path d="M27.7547 2.71362H26.3398V4.12849H27.7547V2.71362Z" fill="#DFDFDF"/>
    <path d="M26.3398 33.8716H24.9249V35.2865H26.3398V33.8716Z" fill="#7C4100"/>
    <path d="M26.3398 32.4568H24.9249V33.8717H26.3398V32.4568Z" fill="#B26100"/>
    <path d="M26.3398 31.0417H24.9249V32.4566H26.3398V31.0417Z" fill="#1F5120"/>
    <path d="M26.3398 29.627H24.9249V31.0418H26.3398V29.627Z" fill="#29632D"/>
    <path d="M26.3398 28.212H24.9249V29.6269H26.3398V28.212Z" fill="#29632D"/>
    <path d="M26.3398 26.7972H24.9249V28.2121H26.3398V26.7972Z" fill="#29632D"/>
    <path d="M26.3398 25.3823H24.9249V26.7972H26.3398V25.3823Z" fill="#FF9700"/>
    <path d="M26.3398 23.9675H24.9249V25.3824H26.3398V23.9675Z" fill="#7C4100"/>
    <path d="M26.3398 22.5529H24.9249V23.9677H26.3398V22.5529Z" fill="#B26100"/>
    <path d="M26.3398 21.1379H24.9249V22.5527H26.3398V21.1379Z" fill="#FF9700"/>
    <path d="M26.3398 19.7231H24.9249V21.138H26.3398V19.7231Z" fill="#7C4100"/>
    <path d="M26.3398 18.3081H24.9249V19.723H26.3398V18.3081Z" fill="#B26100"/>
    <path d="M26.3398 16.8933H24.9249V18.3082H26.3398V16.8933Z" fill="#FF9700"/>
    <path d="M26.3398 15.4784H24.9249V16.8933H26.3398V15.4784Z" fill="#7C4100"/>
    <path d="M26.3398 14.0635H24.9249V15.4784H26.3398V14.0635Z" fill="#B26100"/>
    <path d="M26.3398 12.6484H24.9249V14.0633H26.3398V12.6484Z" fill="#FF9700"/>
    <path d="M26.3398 11.2336H24.9249V12.6485H26.3398V11.2336Z" fill="#7C4100"/>
    <path d="M26.3398 9.81873H24.9249V11.2336H26.3398V9.81873Z" fill="#BCCACE"/>
    <path d="M26.3398 8.40375H24.9249V9.81862H26.3398V8.40375Z" fill="#9AA4A5"/>
    <path d="M26.3398 6.95831H24.9249V8.37318H26.3398V6.95831Z" fill="#BCCACE"/>
    <path d="M26.3398 5.5434H24.9249V6.95827H26.3398V5.5434Z" fill="#B26100"/>
    <path d="M26.3398 4.1286H24.9249V5.54347H26.3398V4.1286Z" fill="#FF9700"/>
    <path d="M26.3398 2.71362H24.9249V4.12849H26.3398V2.71362Z" fill="#DFDFDF"/>
    <path d="M24.925 33.8716H23.5101V35.2865H24.925V33.8716Z" fill="#7C4100"/>
    <path d="M24.925 32.4568H23.5101V33.8717H24.925V32.4568Z" fill="#B26100"/>
    <path d="M24.925 31.0417H23.5101V32.4566H24.925V31.0417Z" fill="#1F5120"/>
    <path d="M24.925 29.627H23.5101V31.0418H24.925V29.627Z" fill="#1F5120"/>
    <path d="M24.925 28.212H23.5101V29.6269H24.925V28.212Z" fill="#1F5120"/>
    <path d="M24.925 26.7972H23.5101V28.2121H24.925V26.7972Z" fill="#1F5120"/>
    <path d="M24.925 25.3823H23.5101V26.7972H24.925V25.3823Z" fill="#FF9700"/>
    <path d="M24.925 23.9675H23.5101V25.3824H24.925V23.9675Z" fill="#7C4100"/>
    <path d="M24.925 22.5529H23.5101V23.9677H24.925V22.5529Z" fill="#7C4100"/>
    <path d="M24.925 21.1379H23.5101V22.5527H24.925V21.1379Z" fill="#FF9700"/>
    <path d="M24.925 19.7231H23.5101V21.138H24.925V19.7231Z" fill="#7C4100"/>
    <path d="M24.925 18.3081H23.5101V19.723H24.925V18.3081Z" fill="#7C4100"/>
    <path d="M24.925 16.8933H23.5101V18.3082H24.925V16.8933Z" fill="#FF9700"/>
    <path d="M24.925 15.4784H23.5101V16.8933H24.925V15.4784Z" fill="#7C4100"/>
    <path d="M24.925 14.0635H23.5101V15.4784H24.925V14.0635Z" fill="#7C4100"/>
    <path d="M24.925 12.6484H23.5101V14.0633H24.925V12.6484Z" fill="#FF9700"/>
    <path d="M24.925 11.2336H23.5101V12.6485H24.925V11.2336Z" fill="#7C4100"/>
    <path d="M24.925 9.81873H23.5101V11.2336H24.925V9.81873Z" fill="#BCCACE"/>
    <path d="M24.925 8.40375H23.5101V9.81862H24.925V8.40375Z" fill="#BCCACE"/>
    <path d="M24.925 6.95831H23.5101V8.37318H24.925V6.95831Z" fill="#BCCACE"/>
    <path d="M24.925 5.5434H23.5101V6.95827H24.925V5.5434Z" fill="#B26100"/>
    <path d="M24.925 4.1286H23.5101V5.54347H24.925V4.1286Z" fill="#FF9700"/>
    <path d="M24.925 2.71362H23.5101V4.12849H24.925V2.71362Z" fill="#DFDFDF"/>
    <path d="M23.4794 33.8716H22.0646V35.2865H23.4794V33.8716Z" fill="#7C4100"/>
    <path d="M23.4794 32.4568H22.0646V33.8717H23.4794V32.4568Z" fill="#B26100"/>
    <path d="M23.4794 31.0417H22.0646V32.4566H23.4794V31.0417Z" fill="#FF9700"/>
    <path d="M23.4794 29.627H22.0646V31.0418H23.4794V29.627Z" fill="#FF9700"/>
    <path d="M23.4794 28.212H22.0646V29.6269H23.4794V28.212Z" fill="#FF9700"/>
    <path d="M23.4794 26.7972H22.0646V28.2121H23.4794V26.7972Z" fill="#FF9700"/>
    <path d="M23.4794 25.3823H22.0646V26.7972H23.4794V25.3823Z" fill="#FF9700"/>
    <path d="M23.4794 23.9675H22.0646V25.3824H23.4794V23.9675Z" fill="#FF9700"/>
    <path d="M23.4794 22.5529H22.0646V23.9677H23.4794V22.5529Z" fill="#FF9700"/>
    <path d="M23.4794 21.1379H22.0646V22.5527H23.4794V21.1379Z" fill="#FF9700"/>
    <path d="M23.4794 19.7231H22.0646V21.138H23.4794V19.7231Z" fill="#FF9700"/>
    <path d="M23.4794 18.3081H22.0646V19.723H23.4794V18.3081Z" fill="#FF9700"/>
    <path d="M23.4794 16.8933H22.0646V18.3082H23.4794V16.8933Z" fill="#FF9700"/>
    <path d="M23.4794 15.4784H22.0646V16.8933H23.4794V15.4784Z" fill="#FF9700"/>
    <path d="M23.4794 14.0635H22.0646V15.4784H23.4794V14.0635Z" fill="#FF9700"/>
    <path d="M23.4794 12.6484H22.0646V14.0633H23.4794V12.6484Z" fill="#FF9700"/>
    <path d="M23.4794 11.2336H22.0646V12.6485H23.4794V11.2336Z" fill="#7C4100"/>
    <path d="M23.4794 9.81873H22.0646V11.2336H23.4794V9.81873Z" fill="#BCCACE"/>
    <path d="M23.4794 8.40375H22.0646V9.81862H23.4794V8.40375Z" fill="#9AA4A5"/>
    <path d="M23.4794 6.95831H22.0646V8.37318H23.4794V6.95831Z" fill="#BCCACE"/>
    <path d="M23.4794 5.5434H22.0646V6.95827H23.4794V5.5434Z" fill="#B26100"/>
    <path d="M23.4794 4.1286H22.0646V5.54347H23.4794V4.1286Z" fill="#FF9700"/>
    <path d="M23.4794 2.71362H22.0646V4.12849H23.4794V2.71362Z" fill="#DFDFDF"/>
    <path d="M22.0644 33.8716H20.6495V35.2865H22.0644V33.8716Z" fill="#7C4100"/>
    <path d="M22.0644 32.4568H20.6495V33.8717H22.0644V32.4568Z" fill="#B26100"/>
    <path d="M22.0644 31.0417H20.6495V32.4566H22.0644V31.0417Z" fill="#B26100"/>
    <path d="M22.0644 29.627H20.6495V31.0418H22.0644V29.627Z" fill="#FF9700"/>
    <path d="M22.0644 28.212H20.6495V29.6269H22.0644V28.212Z" fill="#7C4100"/>
    <path d="M22.0644 26.7972H20.6495V28.2121H22.0644V26.7972Z" fill="#B26100"/>
    <path d="M22.0644 25.3823H20.6495V26.7972H22.0644V25.3823Z" fill="#FF9700"/>
    <path d="M22.0644 23.9675H20.6495V25.3824H22.0644V23.9675Z" fill="#7C4100"/>
    <path d="M22.0644 22.5529H20.6495V23.9677H22.0644V22.5529Z" fill="#B26100"/>
    <path d="M22.0644 21.1379H20.6495V22.5527H22.0644V21.1379Z" fill="#FF9700"/>
    <path d="M22.0644 19.7231H20.6495V21.138H22.0644V19.7231Z" fill="#7C4100"/>
    <path d="M22.0644 18.3081H20.6495V19.723H22.0644V18.3081Z" fill="#B26100"/>
    <path d="M22.0644 16.8933H20.6495V18.3082H22.0644V16.8933Z" fill="#FF9700"/>
    <path d="M22.0644 15.4784H20.6495V16.8933H22.0644V15.4784Z" fill="#7C4100"/>
    <path d="M22.0644 14.0635H20.6495V15.4784H22.0644V14.0635Z" fill="#B26100"/>
    <path d="M22.0644 12.6484H20.6495V14.0633H22.0644V12.6484Z" fill="#FF9700"/>
    <path d="M22.0644 11.2336H20.6495V12.6485H22.0644V11.2336Z" fill="#7C4100"/>
    <path d="M22.0644 9.81873H20.6495V11.2336H22.0644V9.81873Z" fill="#BCCACE"/>
    <path d="M22.0644 8.40375H20.6495V9.81862H22.0644V8.40375Z" fill="#BCCACE"/>
    <path d="M22.0644 6.95831H20.6495V8.37318H22.0644V6.95831Z" fill="#BCCACE"/>
    <path d="M22.0644 5.5434H20.6495V6.95827H22.0644V5.5434Z" fill="#B26100"/>
    <path d="M22.0644 4.1286H20.6495V5.54347H22.0644V4.1286Z" fill="#FF9700"/>
    <path d="M22.0644 2.71362H20.6495V4.12849H22.0644V2.71362Z" fill="#FF9700"/>
    <path d="M20.6496 33.8716H19.2347V35.2865H20.6496V33.8716Z" fill="#7C4100"/>
    <path d="M20.6496 32.4568H19.2347V33.8717H20.6496V32.4568Z" fill="#B26100"/>
    <path d="M20.6496 31.0417H19.2347V32.4566H20.6496V31.0417Z" fill="#B26100"/>
    <path d="M20.6496 29.627H19.2347V31.0418H20.6496V29.627Z" fill="#FF9700"/>
    <path d="M20.6496 28.212H19.2347V29.6269H20.6496V28.212Z" fill="#7C4100"/>
    <path d="M20.6496 26.7972H19.2347V28.2121H20.6496V26.7972Z" fill="#B26100"/>
    <path d="M20.6496 25.3823H19.2347V26.7972H20.6496V25.3823Z" fill="#FF9700"/>
    <path d="M20.6496 23.9675H19.2347V25.3824H20.6496V23.9675Z" fill="#7C4100"/>
    <path d="M20.6496 22.5529H19.2347V23.9677H20.6496V22.5529Z" fill="#B26100"/>
    <path d="M20.6496 21.1379H19.2347V22.5527H20.6496V21.1379Z" fill="#FF9700"/>
    <path d="M20.6496 19.7231H19.2347V21.138H20.6496V19.7231Z" fill="#7C4100"/>
    <path d="M20.6496 18.3081H19.2347V19.723H20.6496V18.3081Z" fill="#B26100"/>
    <path d="M20.6496 16.8933H19.2347V18.3082H20.6496V16.8933Z" fill="#FF9700"/>
    <path d="M20.6496 15.4784H19.2347V16.8933H20.6496V15.4784Z" fill="#7C4100"/>
    <path d="M20.6496 14.0635H19.2347V15.4784H20.6496V14.0635Z" fill="#B26100"/>
    <path d="M20.6496 12.6484H19.2347V14.0633H20.6496V12.6484Z" fill="#FF9700"/>
    <path d="M20.6496 11.2336H19.2347V12.6485H20.6496V11.2336Z" fill="#7C4100"/>
    <path d="M20.6496 9.81873H19.2347V11.2336H20.6496V9.81873Z" fill="#BCCACE"/>
    <path d="M20.6496 8.40375H19.2347V9.81862H20.6496V8.40375Z" fill="#9AA4A5"/>
    <path d="M20.6496 6.95831H19.2347V8.37318H20.6496V6.95831Z" fill="#BCCACE"/>
    <path d="M20.6496 5.5434H19.2347V6.95827H20.6496V5.5434Z" fill="#B26100"/>
    <path d="M20.6496 4.1286H19.2347V5.54347H20.6496V4.1286Z" fill="#FF9700"/>
    <path d="M20.6496 2.71362H19.2347V4.12849H20.6496V2.71362Z" fill="#FF9700"/>
    <path d="M19.2347 33.8716H17.8198V35.2865H19.2347V33.8716Z" fill="#7C4100"/>
    <path d="M19.2347 32.4568H17.8198V33.8717H19.2347V32.4568Z" fill="#B26100"/>
    <path d="M19.2347 31.0417H17.8198V32.4566H19.2347V31.0417Z" fill="#B26100"/>
    <path d="M19.2347 29.627H17.8198V31.0418H19.2347V29.627Z" fill="#FF9700"/>
    <path d="M19.2347 28.212H17.8198V29.6269H19.2347V28.212Z" fill="#7C4100"/>
    <path d="M19.2347 26.7972H17.8198V28.2121H19.2347V26.7972Z" fill="#B26100"/>
    <path d="M19.2347 25.3823H17.8198V26.7972H19.2347V25.3823Z" fill="#FF9700"/>
    <path d="M19.2347 23.9675H17.8198V25.3824H19.2347V23.9675Z" fill="#7C4100"/>
    <path d="M19.2347 22.5529H17.8198V23.9677H19.2347V22.5529Z" fill="#B26100"/>
    <path d="M19.2347 21.1379H17.8198V22.5527H19.2347V21.1379Z" fill="#FF9700"/>
    <path d="M19.2347 19.7231H17.8198V21.138H19.2347V19.7231Z" fill="#7C4100"/>
    <path d="M19.2347 18.3081H17.8198V19.723H19.2347V18.3081Z" fill="#B26100"/>
    <path d="M19.2347 16.8933H17.8198V18.3082H19.2347V16.8933Z" fill="#FF9700"/>
    <path d="M19.2347 15.4784H17.8198V16.8933H19.2347V15.4784Z" fill="#7C4100"/>
    <path d="M19.2347 14.0635H17.8198V15.4784H19.2347V14.0635Z" fill="#B26100"/>
    <path d="M19.2347 12.6484H17.8198V14.0633H19.2347V12.6484Z" fill="#FF9700"/>
    <path d="M19.2347 11.2336H17.8198V12.6485H19.2347V11.2336Z" fill="#7C4100"/>
    <path d="M19.2347 9.81873H17.8198V11.2336H19.2347V9.81873Z" fill="#BCCACE"/>
    <path d="M19.2347 8.40375H17.8198V9.81862H19.2347V8.40375Z" fill="#BCCACE"/>
    <path d="M19.2347 6.95831H17.8198V8.37318H19.2347V6.95831Z" fill="#BCCACE"/>
    <path d="M19.2347 5.5434H17.8198V6.95827H19.2347V5.5434Z" fill="#B26100"/>
    <path d="M19.2347 4.1286H17.8198V5.54347H19.2347V4.1286Z" fill="#FF9700"/>
    <path d="M19.2347 2.71362H17.8198V4.12849H19.2347V2.71362Z" fill="#FF9700"/>
    <path d="M17.8198 33.8716H16.4049V35.2865H17.8198V33.8716Z" fill="#7C4100"/>
    <path d="M17.8198 32.4568H16.4049V33.8717H17.8198V32.4568Z" fill="#B26100"/>
    <path d="M17.8198 31.0417H16.4049V32.4566H17.8198V31.0417Z" fill="#7C4100"/>
    <path d="M17.8198 29.627H16.4049V31.0418H17.8198V29.627Z" fill="#FF9700"/>
    <path d="M17.8198 28.212H16.4049V29.6269H17.8198V28.212Z" fill="#7C4100"/>
    <path d="M17.8198 26.7972H16.4049V28.2121H17.8198V26.7972Z" fill="#7C4100"/>
    <path d="M17.8198 25.3823H16.4049V26.7972H17.8198V25.3823Z" fill="#FF9700"/>
    <path d="M17.8198 23.9675H16.4049V25.3824H17.8198V23.9675Z" fill="#7C4100"/>
    <path d="M17.8198 22.5529H16.4049V23.9677H17.8198V22.5529Z" fill="#7C4100"/>
    <path d="M17.8198 21.1379H16.4049V22.5527H17.8198V21.1379Z" fill="#FF9700"/>
    <path d="M17.8198 19.7231H16.4049V21.138H17.8198V19.7231Z" fill="#7C4100"/>
    <path d="M17.8198 18.3081H16.4049V19.723H17.8198V18.3081Z" fill="#7C4100"/>
    <path d="M17.8198 16.8933H16.4049V18.3082H17.8198V16.8933Z" fill="#FF9700"/>
    <path d="M17.8198 15.4784H16.4049V16.8933H17.8198V15.4784Z" fill="#7C4100"/>
    <path d="M17.8198 14.0635H16.4049V15.4784H17.8198V14.0635Z" fill="#7C4100"/>
    <path d="M17.8198 12.6484H16.4049V14.0633H17.8198V12.6484Z" fill="#FF9700"/>
    <path d="M17.8198 11.2336H16.4049V12.6485H17.8198V11.2336Z" fill="#7C4100"/>
    <path d="M17.8198 9.81873H16.4049V11.2336H17.8198V9.81873Z" fill="#BCCACE"/>
    <path d="M17.8198 8.40375H16.4049V9.81862H17.8198V8.40375Z" fill="#9AA4A5"/>
    <path d="M17.8198 6.95831H16.4049V8.37318H17.8198V6.95831Z" fill="#BCCACE"/>
    <path d="M17.8198 5.5434H16.4049V6.95827H17.8198V5.5434Z" fill="#B26100"/>
    <path d="M17.8198 4.1286H16.4049V5.54347H17.8198V4.1286Z" fill="#FF9700"/>
    <path d="M17.8198 2.71362H16.4049V4.12849H17.8198V2.71362Z" fill="#FF9700"/>
    <path d="M16.4047 33.8716H14.9899V35.2865H16.4047V33.8716Z" fill="#7C4100"/>
    <path d="M16.4047 32.4568H14.9899V33.8717H16.4047V32.4568Z" fill="#B26100"/>
    <path d="M16.4047 31.0417H14.9899V32.4566H16.4047V31.0417Z" fill="#FF9700"/>
    <path d="M16.4047 29.627H14.9899V31.0418H16.4047V29.627Z" fill="#FF9700"/>
    <path d="M16.4047 28.212H14.9899V29.6269H16.4047V28.212Z" fill="#FF9700"/>
    <path d="M16.4047 26.7972H14.9899V28.2121H16.4047V26.7972Z" fill="#FF9700"/>
    <path d="M16.4047 25.3823H14.9899V26.7972H16.4047V25.3823Z" fill="#FF9700"/>
    <path d="M16.4047 23.9675H14.9899V25.3824H16.4047V23.9675Z" fill="#FF9700"/>
    <path d="M16.4047 22.5529H14.9899V23.9677H16.4047V22.5529Z" fill="#FF9700"/>
    <path d="M16.4047 21.1379H14.9899V22.5527H16.4047V21.1379Z" fill="#FF9700"/>
    <path d="M16.4047 19.7231H14.9899V21.138H16.4047V19.7231Z" fill="#FF9700"/>
    <path d="M16.4047 18.3081H14.9899V19.723H16.4047V18.3081Z" fill="#FF9700"/>
    <path d="M16.4047 16.8933H14.9899V18.3082H16.4047V16.8933Z" fill="#FF9700"/>
    <path d="M16.4047 15.4784H14.9899V16.8933H16.4047V15.4784Z" fill="#FF9700"/>
    <path d="M16.4047 14.0635H14.9899V15.4784H16.4047V14.0635Z" fill="#FF9700"/>
    <path d="M16.4047 12.6484H14.9899V14.0633H16.4047V12.6484Z" fill="#FF9700"/>
    <path d="M16.4047 11.2336H14.9899V12.6485H16.4047V11.2336Z" fill="#7C4100"/>
    <path d="M16.4047 9.81873H14.9899V11.2336H16.4047V9.81873Z" fill="#BCCACE"/>
    <path d="M16.4047 8.40375H14.9899V9.81862H16.4047V8.40375Z" fill="#BCCACE"/>
    <path d="M16.4047 6.95831H14.9899V8.37318H16.4047V6.95831Z" fill="#BCCACE"/>
    <path d="M16.4047 5.5434H14.9899V6.95827H16.4047V5.5434Z" fill="#B26100"/>
    <path d="M16.4047 4.1286H14.9899V5.54347H16.4047V4.1286Z" fill="#FF9700"/>
    <path d="M16.4047 2.71362H14.9899V4.12849H16.4047V2.71362Z" fill="#FF9700"/>
    <path d="M14.9899 33.8716H13.5751V35.2865H14.9899V33.8716Z" fill="#7C4100"/>
    <path d="M14.9899 32.4568H13.5751V33.8717H14.9899V32.4568Z" fill="#B26100"/>
    <path d="M14.9899 31.0417H13.5751V32.4566H14.9899V31.0417Z" fill="#B26100"/>
    <path d="M14.9899 29.627H13.5751V31.0418H14.9899V29.627Z" fill="#FF9700"/>
    <path d="M14.9899 28.212H13.5751V29.6269H14.9899V28.212Z" fill="#7C4100"/>
    <path d="M14.9899 26.7972H13.5751V28.2121H14.9899V26.7972Z" fill="#B26100"/>
    <path d="M14.9899 25.3823H13.5751V26.7972H14.9899V25.3823Z" fill="#FF9700"/>
    <path d="M14.9899 23.9675H13.5751V25.3824H14.9899V23.9675Z" fill="#7C4100"/>
    <path d="M14.9899 22.5529H13.5751V23.9677H14.9899V22.5529Z" fill="#B26100"/>
    <path d="M14.9899 21.1379H13.5751V22.5527H14.9899V21.1379Z" fill="#FF9700"/>
    <path d="M14.9899 19.7231H13.5751V21.138H14.9899V19.7231Z" fill="#7C4100"/>
    <path d="M14.9899 18.3081H13.5751V19.723H14.9899V18.3081Z" fill="#B26100"/>
    <path d="M14.9899 16.8933H13.5751V18.3082H14.9899V16.8933Z" fill="#FF9700"/>
    <path d="M14.9899 15.4784H13.5751V16.8933H14.9899V15.4784Z" fill="#B71648"/>
    <path d="M14.9899 14.0635H13.5751V15.4784H14.9899V14.0635Z" fill="#DB2E5B"/>
    <path d="M14.9899 12.6484H13.5751V14.0633H14.9899V12.6484Z" fill="#FF9700"/>
    <path d="M14.9899 11.2336H13.5751V12.6485H14.9899V11.2336Z" fill="#7C4100"/>
    <path d="M14.9899 9.81873H13.5751V11.2336H14.9899V9.81873Z" fill="#BCCACE"/>
    <path d="M14.9899 8.40375H13.5751V9.81862H14.9899V8.40375Z" fill="#BCCACE"/>
    <path d="M14.9899 6.95831H13.5751V8.37318H14.9899V6.95831Z" fill="#BCCACE"/>
    <path d="M14.9899 5.5434H13.5751V6.95827H14.9899V5.5434Z" fill="#B26100"/>
    <path d="M14.9899 4.1286H13.5751V5.54347H14.9899V4.1286Z" fill="#FF9700"/>
    <path d="M14.9899 2.71362H13.5751V4.12849H14.9899V2.71362Z" fill="#FF9700"/>
    <path d="M13.575 33.8716H12.1602V35.2865H13.575V33.8716Z" fill="#7C4100"/>
    <path d="M13.575 32.4568H12.1602V33.8717H13.575V32.4568Z" fill="#B26100"/>
    <path d="M13.575 31.0417H12.1602V32.4566H13.575V31.0417Z" fill="#B26100"/>
    <path d="M13.575 29.627H12.1602V31.0418H13.575V29.627Z" fill="#FF9700"/>
    <path d="M13.575 28.212H12.1602V29.6269H13.575V28.212Z" fill="#7C4100"/>
    <path d="M13.575 26.7972H12.1602V28.2121H13.575V26.7972Z" fill="#B26100"/>
    <path d="M13.575 25.3823H12.1602V26.7972H13.575V25.3823Z" fill="#FF9700"/>
    <path d="M13.575 23.9675H12.1602V25.3824H13.575V23.9675Z" fill="#7C4100"/>
    <path d="M13.575 22.5529H12.1602V23.9677H13.575V22.5529Z" fill="#B26100"/>
    <path d="M13.575 21.1379H12.1602V22.5527H13.575V21.1379Z" fill="#FF9700"/>
    <path d="M13.575 19.7231H12.1602V21.138H13.575V19.7231Z" fill="#7C4100"/>
    <path d="M13.575 18.3081H12.1602V19.723H13.575V18.3081Z" fill="#B26100"/>
    <path d="M13.575 16.8933H12.1602V18.3082H13.575V16.8933Z" fill="#FF9700"/>
    <path d="M13.575 15.4784H12.1602V16.8933H13.575V15.4784Z" fill="#B71648"/>
    <path d="M13.575 14.0635H12.1602V15.4784H13.575V14.0635Z" fill="#DB2E5B"/>
    <path d="M13.575 12.6484H12.1602V14.0633H13.575V12.6484Z" fill="#FF9700"/>
    <path d="M13.575 11.2336H12.1602V12.6485H13.575V11.2336Z" fill="#7C4100"/>
    <path d="M13.575 9.81873H12.1602V11.2336H13.575V9.81873Z" fill="#BCCACE"/>
    <path d="M13.575 8.40375H12.1602V9.81862H13.575V8.40375Z" fill="#BCCACE"/>
    <path d="M13.575 6.95831H12.1602V8.37318H13.575V6.95831Z" fill="#BCCACE"/>
    <path d="M13.575 5.5434H12.1602V6.95827H13.575V5.5434Z" fill="#B26100"/>
    <path d="M13.575 4.1286H12.1602V5.54347H13.575V4.1286Z" fill="#FF9700"/>
    <path d="M13.575 2.71362H12.1602V4.12849H13.575V2.71362Z" fill="#FF9700"/>
    <path d="M12.1604 33.8716H10.7455V35.2865H12.1604V33.8716Z" fill="#7C4100"/>
    <path d="M12.1604 32.4568H10.7455V33.8717H12.1604V32.4568Z" fill="#B26100"/>
    <path d="M12.1604 31.0417H10.7455V32.4566H12.1604V31.0417Z" fill="#7C4100"/>
    <path d="M12.1604 29.627H10.7455V31.0418H12.1604V29.627Z" fill="#FF9700"/>
    <path d="M12.1604 28.212H10.7455V29.6269H12.1604V28.212Z" fill="#7C4100"/>
    <path d="M12.1604 26.7972H10.7455V28.2121H12.1604V26.7972Z" fill="#B26100"/>
    <path d="M12.1604 25.3823H10.7455V26.7972H12.1604V25.3823Z" fill="#FF9700"/>
    <path d="M12.1604 23.9675H10.7455V25.3824H12.1604V23.9675Z" fill="#7C4100"/>
    <path d="M12.1604 22.5529H10.7455V23.9677H12.1604V22.5529Z" fill="#B26100"/>
    <path d="M12.1604 21.1379H10.7455V22.5527H12.1604V21.1379Z" fill="#FF9700"/>
    <path d="M12.1604 19.7231H10.7455V21.138H12.1604V19.7231Z" fill="#7C4100"/>
    <path d="M12.1604 18.3081H10.7455V19.723H12.1604V18.3081Z" fill="#B26100"/>
    <path d="M12.1604 16.8933H10.7455V18.3082H12.1604V16.8933Z" fill="#FF9700"/>
    <path d="M12.1604 15.4784H10.7455V16.8933H12.1604V15.4784Z" fill="#B71648"/>
    <path d="M12.1604 14.0635H10.7455V15.4784H12.1604V14.0635Z" fill="#DB2E5B"/>
    <path d="M12.1604 12.6484H10.7455V14.0633H12.1604V12.6484Z" fill="#FF9700"/>
    <path d="M12.1604 11.2336H10.7455V12.6485H12.1604V11.2336Z" fill="#7C4100"/>
    <path d="M12.1604 9.81873H10.7455V11.2336H12.1604V9.81873Z" fill="#BCCACE"/>
    <path d="M12.1604 8.40375H10.7455V9.81862H12.1604V8.40375Z" fill="#BCCACE"/>
    <path d="M12.1604 6.95831H10.7455V8.37318H12.1604V6.95831Z" fill="#BCCACE"/>
    <path d="M12.1604 5.5434H10.7455V6.95827H12.1604V5.5434Z" fill="#B26100"/>
    <path d="M12.1604 4.1286H10.7455V5.54347H12.1604V4.1286Z" fill="#FF9700"/>
    <path d="M12.1604 2.71362H10.7455V4.12849H12.1604V2.71362Z" fill="#FF9700"/>
    <path d="M10.7454 33.8716H9.33057V35.2865H10.7454V33.8716Z" fill="#7C4100"/>
    <path d="M10.7454 32.4568H9.33057V33.8717H10.7454V32.4568Z" fill="#B26100"/>
    <path d="M10.7454 31.0417H9.33057V32.4566H10.7454V31.0417Z" fill="#7C4100"/>
    <path d="M10.7454 29.627H9.33057V31.0418H10.7454V29.627Z" fill="#FF9700"/>
    <path d="M10.7454 28.212H9.33057V29.6269H10.7454V28.212Z" fill="#7C4100"/>
    <path d="M10.7454 26.7972H9.33057V28.2121H10.7454V26.7972Z" fill="#7C4100"/>
    <path d="M10.7454 25.3823H9.33057V26.7972H10.7454V25.3823Z" fill="#FF9700"/>
    <path d="M10.7454 23.9675H9.33057V25.3824H10.7454V23.9675Z" fill="#7C4100"/>
    <path d="M10.7454 22.5529H9.33057V23.9677H10.7454V22.5529Z" fill="#7C4100"/>
    <path d="M10.7454 21.1379H9.33057V22.5527H10.7454V21.1379Z" fill="#FF9700"/>
    <path d="M10.7454 19.7231H9.33057V21.138H10.7454V19.7231Z" fill="#7C4100"/>
    <path d="M10.7454 18.3081H9.33057V19.723H10.7454V18.3081Z" fill="#7C4100"/>
    <path d="M10.7454 16.8933H9.33057V18.3082H10.7454V16.8933Z" fill="#FF9700"/>
    <path d="M10.7454 15.4784H9.33057V16.8933H10.7454V15.4784Z" fill="#B71648"/>
    <path d="M10.7454 14.0635H9.33057V15.4784H10.7454V14.0635Z" fill="#B71648"/>
    <path d="M10.7454 12.6484H9.33057V14.0633H10.7454V12.6484Z" fill="#FF9700"/>
    <path d="M10.7454 11.2336H9.33057V12.6485H10.7454V11.2336Z" fill="#7C4100"/>
    <path d="M10.7454 9.81873H9.33057V11.2336H10.7454V9.81873Z" fill="#7C4100"/>
    <path d="M10.7454 8.40375H9.33057V9.81862H10.7454V8.40375Z" fill="#7C4100"/>
    <path d="M10.7454 6.95831H9.33057V8.37318H10.7454V6.95831Z" fill="#7C4100"/>
    <path d="M10.7454 5.5434H9.33057V6.95827H10.7454V5.5434Z" fill="#7C4100"/>
    <path d="M10.7454 4.1286H9.33057V5.54347H10.7454V4.1286Z" fill="#FF9700"/>
    <path d="M10.7454 2.71362H9.33057V4.12849H10.7454V2.71362Z" fill="#FF9700"/>
    <path d="M9.33064 33.8716H7.91577V35.2865H9.33064V33.8716Z" fill="#7C4100"/>
    <path d="M9.33064 32.4568H7.91577V33.8717H9.33064V32.4568Z" fill="#B26100"/>
    <path d="M9.33064 31.0417H7.91577V32.4566H9.33064V31.0417Z" fill="#B26100"/>
    <path d="M9.33064 29.627H7.91577V31.0418H9.33064V29.627Z" fill="#B26100"/>
    <path d="M9.33064 28.212H7.91577V29.6269H9.33064V28.212Z" fill="#B26100"/>
    <path d="M9.33064 26.7972H7.91577V28.2121H9.33064V26.7972Z" fill="#B26100"/>
    <path d="M9.33064 25.3823H7.91577V26.7972H9.33064V25.3823Z" fill="#B26100"/>
    <path d="M9.33064 23.9675H7.91577V25.3824H9.33064V23.9675Z" fill="#B26100"/>
    <path d="M9.33064 22.5529H7.91577V23.9677H9.33064V22.5529Z" fill="#B26100"/>
    <path d="M9.33064 21.1379H7.91577V22.5527H9.33064V21.1379Z" fill="#B26100"/>
    <path d="M9.33064 19.7231H7.91577V21.138H9.33064V19.7231Z" fill="#B26100"/>
    <path d="M9.33064 18.3081H7.91577V19.723H9.33064V18.3081Z" fill="#B26100"/>
    <path d="M9.33064 16.8933H7.91577V18.3082H9.33064V16.8933Z" fill="#B26100"/>
    <path d="M9.33064 15.4784H7.91577V16.8933H9.33064V15.4784Z" fill="#B26100"/>
    <path d="M9.33064 14.0635H7.91577V15.4784H9.33064V14.0635Z" fill="#B26100"/>
    <path d="M9.33064 12.6484H7.91577V14.0633H9.33064V12.6484Z" fill="#B26100"/>
    <path d="M9.33064 11.2336H7.91577V12.6485H9.33064V11.2336Z" fill="#B26100"/>
    <path d="M9.33064 9.81873H7.91577V11.2336H9.33064V9.81873Z" fill="#B26100"/>
    <path d="M9.33064 8.40375H7.91577V9.81862H9.33064V8.40375Z" fill="#B26100"/>
    <path d="M9.33064 6.95831H7.91577V8.37318H9.33064V6.95831Z" fill="#B26100"/>
    <path d="M9.33064 5.5434H7.91577V6.95827H9.33064V5.5434Z" fill="#B26100"/>
    <path d="M9.33064 4.1286H7.91577V5.54347H9.33064V4.1286Z" fill="#B26100"/>
    <path d="M9.33064 2.71362H7.91577V4.12849H9.33064V2.71362Z" fill="#B26100"/>
    <path d="M7.9156 32.4568H6.50073V33.8717H7.9156V32.4568Z" fill="#7C4100"/>
    <path d="M7.9156 31.0417H6.50073V32.4566H7.9156V31.0417Z" fill="#7C4100"/>
    <path d="M7.9156 29.627H6.50073V31.0418H7.9156V29.627Z" fill="#7C4100"/>
    <path d="M7.9156 28.212H6.50073V29.6269H7.9156V28.212Z" fill="#7C4100"/>
    <path d="M7.9156 26.7972H6.50073V28.2121H7.9156V26.7972Z" fill="#7C4100"/>
    <path d="M7.9156 25.3823H6.50073V26.7972H7.9156V25.3823Z" fill="#7C4100"/>
    <path d="M7.9156 23.9675H6.50073V25.3824H7.9156V23.9675Z" fill="#7C4100"/>
    <path d="M7.9156 22.5529H6.50073V23.9677H7.9156V22.5529Z" fill="#7C4100"/>
    <path d="M7.9156 21.1379H6.50073V22.5527H7.9156V21.1379Z" fill="#7C4100"/>
    <path d="M7.9156 19.7231H6.50073V21.138H7.9156V19.7231Z" fill="#7C4100"/>
    <path d="M7.9156 18.3081H6.50073V19.723H7.9156V18.3081Z" fill="#7C4100"/>
    <path d="M7.9156 16.8933H6.50073V18.3082H7.9156V16.8933Z" fill="#7C4100"/>
    <path d="M7.9156 15.4784H6.50073V16.8933H7.9156V15.4784Z" fill="#7C4100"/>
    <path d="M7.9156 14.0635H6.50073V15.4784H7.9156V14.0635Z" fill="#7C4100"/>
    <path d="M7.9156 12.6484H6.50073V14.0633H7.9156V12.6484Z" fill="#7C4100"/>
    <path d="M7.9156 11.2336H6.50073V12.6485H7.9156V11.2336Z" fill="#7C4100"/>
    <path d="M7.9156 9.81873H6.50073V11.2336H7.9156V9.81873Z" fill="#7C4100"/>
    <path d="M7.9156 8.40375H6.50073V9.81862H7.9156V8.40375Z" fill="#7C4100"/>
    <path d="M7.9156 6.95831H6.50073V8.37318H7.9156V6.95831Z" fill="#7C4100"/>
    <path d="M7.9156 5.5434H6.50073V6.95827H7.9156V5.5434Z" fill="#7C4100"/>
    <path d="M7.9156 4.1286H6.50073V5.54347H7.9156V4.1286Z" fill="#7C4100"/>
</svg>
