<svg width="83" height="240" viewBox="0 0 83 240" fill="none" xmlns="http://www.w3.org/2000/svg">
    <path d="M82.1586 234.108H76.5129V239.737H82.1586V234.108Z" fill="#0A0F1A"/>
    <path d="M82.0013 234.186H76.5908V239.659H82.0013V234.186Z" fill="#0A0F1A"/>
    <path d="M82.1586 147.17H76.5129V152.799H82.1586V147.17Z" fill="#FFE4CE"/>
    <path d="M82.0013 147.248H76.5908V152.642H82.0013V147.248Z" fill="#FFE4CE"/>
    <path d="M82.1586 141.697H76.5129V147.326H82.1586V141.697Z" fill="#FFE4CE"/>
    <path d="M82.0013 141.775H76.5908V147.248H82.0013V141.775Z" fill="#FFE4CE"/>
    <path d="M82.1586 136.224H76.5129V141.853H82.1586V136.224Z" fill="#FFE4CE"/>
    <path d="M82.0013 136.302H76.5908V141.775H82.0013V136.302Z" fill="#FFE4CE"/>
    <path d="M82.1586 130.83H76.5129V136.459H82.1586V130.83Z" fill="#FFE4CE"/>
    <path d="M82.0013 130.908H76.5908V136.381H82.0013V130.908Z" fill="#FFE4CE"/>
    <path d="M82.1586 125.357H76.5129V130.986H82.1586V125.357Z" fill="white"/>
    <path d="M82.0013 125.435H76.5908V130.829H82.0013V125.435Z" fill="white"/>
    <path d="M82.1586 119.962H76.5129V125.592H82.1586V119.962Z" fill="#243454"/>
    <path d="M82.0013 120.04H76.5908V125.513H82.0013V120.04Z" fill="#243454"/>
    <path d="M82.1586 114.489H76.5129V120.118H82.1586V114.489Z" fill="#243454"/>
    <path d="M82.0013 114.568H76.5908V120.041H82.0013V114.568Z" fill="#243454"/>
    <path d="M82.1586 109.095H76.5129V114.724H82.1586V109.095Z" fill="#243454"/>
    <path d="M82.0013 109.173H76.5908V114.646H82.0013V109.173Z" fill="#243454"/>
    <path d="M82.1586 103.622H76.5129V109.251H82.1586V103.622Z" fill="#243454"/>
    <path d="M82.0013 103.7H76.5908V109.095H82.0013V103.7Z" fill="#243454"/>
    <path d="M82.1586 98.2274H76.5129V103.857H82.1586V98.2274Z" fill="#243454"/>
    <path d="M82.0013 98.3055H76.5908V103.778H82.0013V98.3055Z" fill="#243454"/>
    <path d="M82.1586 92.7549H76.5129V98.384H82.1586V92.7549Z" fill="#243454"/>
    <path d="M82.0013 92.8331H76.5908V98.3059H82.0013V92.8331Z" fill="#243454"/>
    <path d="M82.1586 87.3601H76.5129V92.9892H82.1586V87.3601Z" fill="#243454"/>
    <path d="M82.0013 87.4385H76.5908V92.9112H82.0013V87.4385Z" fill="#243454"/>
    <path d="M82.1586 81.8876H76.5129V87.5167H82.1586V81.8876Z" fill="#243454"/>
    <path d="M82.0013 81.9656H76.5908V87.3601H82.0013V81.9656Z" fill="#243454"/>
    <path d="M82.1586 76.4146H76.5129V82.0437H82.1586V76.4146Z" fill="#243454"/>
    <path d="M82.0013 76.5712H76.5908V82.0439H82.0013V76.5712Z" fill="#243454"/>
    <path d="M82.1586 71.02H76.5129V76.6492H82.1586V71.02Z" fill="#243454"/>
    <path d="M82.0013 71.0981H76.5908V76.5709H82.0013V71.0981Z" fill="#243454"/>
    <path d="M76.6692 234.108H71.0236V239.737H76.6692V234.108Z" fill="#0A0F1A"/>
    <path d="M76.5911 234.186H71.1023V239.659H76.5911V234.186Z" fill="#0A0F1A"/>
    <path d="M76.6692 228.714H71.0236V234.343H76.6692V228.714Z" fill="#111724"/>
    <path d="M76.5911 228.792H71.1023V234.187H76.5911V228.792Z" fill="#111724"/>
    <path d="M76.6692 147.17H71.0236V152.799H76.6692V147.17Z" fill="#FFE4CE"/>
    <path d="M76.5911 147.248H71.1023V152.642H76.5911V147.248Z" fill="#FFE4CE"/>
    <path d="M76.6692 141.697H71.0236V147.326H76.6692V141.697Z" fill="#FFE4CE"/>
    <path d="M76.5911 141.775H71.1023V147.248H76.5911V141.775Z" fill="#FFE4CE"/>
    <path d="M76.6692 136.224H71.0236V141.853H76.6692V136.224Z" fill="#FFE4CE"/>
    <path d="M76.5911 136.302H71.1023V141.775H76.5911V136.302Z" fill="#FFE4CE"/>
    <path d="M76.6692 130.83H71.0236V136.459H76.6692V130.83Z" fill="#F57E77"/>
    <path d="M76.5911 130.908H71.1023V136.381H76.5911V130.908Z" fill="#F57E77"/>
    <path d="M76.6692 125.357H71.0236V130.986H76.6692V125.357Z" fill="#877A86"/>
    <path d="M76.5911 125.435H71.1023V130.829H76.5911V125.435Z" fill="#877A86"/>
    <path d="M76.6692 119.962H71.0236V125.592H76.6692V119.962Z" fill="#243454"/>
    <path d="M76.5911 120.04H71.1023V125.513H76.5911V120.04Z" fill="#243454"/>
    <path d="M76.6692 114.489H71.0236V120.118H76.6692V114.489Z" fill="#243454"/>
    <path d="M76.5911 114.568H71.1023V120.041H76.5911V114.568Z" fill="#243454"/>
    <path d="M76.6692 109.095H71.0236V114.724H76.6692V109.095Z" fill="#243454"/>
    <path d="M76.5911 109.173H71.1023V114.646H76.5911V109.173Z" fill="#243454"/>
    <path d="M76.6692 103.622H71.0236V109.251H76.6692V103.622Z" fill="#243454"/>
    <path d="M76.5911 103.7H71.1023V109.095H76.5911V103.7Z" fill="#243454"/>
    <path d="M76.6692 98.2274H71.0236V103.857H76.6692V98.2274Z" fill="#243454"/>
    <path d="M76.5911 98.3055H71.1023V103.778H76.5911V98.3055Z" fill="#243454"/>
    <path d="M76.6692 92.7549H71.0236V98.384H76.6692V92.7549Z" fill="#243454"/>
    <path d="M76.5911 92.8331H71.1023V98.3059H76.5911V92.8331Z" fill="#243454"/>
    <path d="M76.6692 87.3601H71.0236V92.9892H76.6692V87.3601Z" fill="#243454"/>
    <path d="M76.5911 87.4385H71.1023V92.9112H76.5911V87.4385Z" fill="#243454"/>
    <path d="M76.6692 81.8876H71.0236V87.5167H76.6692V81.8876Z" fill="#243454"/>
    <path d="M76.5911 81.9656H71.1023V87.3601H76.5911V81.9656Z" fill="#243454"/>
    <path d="M76.6692 76.4146H71.0236V82.0437H76.6692V76.4146Z" fill="#243454"/>
    <path d="M76.5911 76.5712H71.1023V82.0439H76.5911V76.5712Z" fill="#243454"/>
    <path d="M76.6692 71.02H71.0236V76.6492H76.6692V71.02Z" fill="#243454"/>
    <path d="M76.5911 71.0981H71.1023V76.5709H76.5911V71.0981Z" fill="#243454"/>
    <path d="M76.6692 65.5476H71.0236V71.1767H76.6692V65.5476Z" fill="#243454"/>
    <path d="M76.5911 65.6257H71.1023V71.0985H76.5911V65.6257Z" fill="#243454"/>
    <path d="M76.6692 60.1528H71.0236V65.7819H76.6692V60.1528Z" fill="#243454"/>
    <path d="M76.5911 60.231H71.1023V65.6255H76.5911V60.231Z" fill="#243454"/>
    <path d="M71.2589 234.108H65.6133V239.737H71.2589V234.108Z" fill="#0A0F1A"/>
    <path d="M71.1807 234.186H65.6919V239.659H71.1807V234.186Z" fill="#0A0F1A"/>
    <path d="M71.2589 228.714H65.6133V234.343H71.2589V228.714Z" fill="#111724"/>
    <path d="M71.1807 228.792H65.6919V234.187H71.1807V228.792Z" fill="#111724"/>
    <path d="M71.2589 223.241H65.6133V228.87H71.2589V223.241Z" fill="#111724"/>
    <path d="M71.1807 223.319H65.6919V228.792H71.1807V223.319Z" fill="#111724"/>
    <path d="M71.2589 141.697H65.6133V147.326H71.2589V141.697Z" fill="#FFE4CE"/>
    <path d="M71.1807 141.775H65.6919V147.248H71.1807V141.775Z" fill="#FFE4CE"/>
    <path d="M71.2589 136.224H65.6133V141.853H71.2589V136.224Z" fill="#F57E77"/>
    <path d="M71.1807 136.302H65.6919V141.775H71.1807V136.302Z" fill="#F57E77"/>
    <path d="M71.2589 119.962H65.6133V125.592H71.2589V119.962Z" fill="#131E33"/>
    <path d="M71.1807 120.04H65.6919V125.513H71.1807V120.04Z" fill="#131E33"/>
    <path d="M71.2589 114.489H65.6133V120.118H71.2589V114.489Z" fill="#131E33"/>
    <path d="M71.1807 114.568H65.6919V120.041H71.1807V114.568Z" fill="#131E33"/>
    <path d="M71.2589 109.095H65.6133V114.724H71.2589V109.095Z" fill="#131E33"/>
    <path d="M71.1807 109.173H65.6919V114.646H71.1807V109.173Z" fill="#131E33"/>
    <path d="M71.2589 103.622H65.6133V109.251H71.2589V103.622Z" fill="#131E33"/>
    <path d="M71.1807 103.7H65.6919V109.095H71.1807V103.7Z" fill="#131E33"/>
    <path d="M71.2589 98.2274H65.6133V103.857H71.2589V98.2274Z" fill="#131E33"/>
    <path d="M71.1807 98.3055H65.6919V103.778H71.1807V98.3055Z" fill="#131E33"/>
    <path d="M71.2589 92.7549H65.6133V98.384H71.2589V92.7549Z" fill="#131E33"/>
    <path d="M71.1807 92.8331H65.6919V98.3059H71.1807V92.8331Z" fill="#131E33"/>
    <path d="M71.2589 87.3601H65.6133V92.9892H71.2589V87.3601Z" fill="#131E33"/>
    <path d="M71.1807 87.4385H65.6919V92.9112H71.1807V87.4385Z" fill="#131E33"/>
    <path d="M71.2589 81.8876H65.6133V87.5167H71.2589V81.8876Z" fill="#131E33"/>
    <path d="M71.1807 81.9656H65.6919V87.3601H71.1807V81.9656Z" fill="#131E33"/>
    <path d="M71.2589 76.4146H65.6133V82.0437H71.2589V76.4146Z" fill="#131E33"/>
    <path d="M71.1807 76.5712H65.6919V82.0439H71.1807V76.5712Z" fill="#131E33"/>
    <path d="M71.2589 71.02H65.6133V76.6492H71.2589V71.02Z" fill="#243454"/>
    <path d="M71.1807 71.0981H65.6919V76.5709H71.1807V71.0981Z" fill="#243454"/>
    <path d="M71.2589 65.5476H65.6133V71.1767H71.2589V65.5476Z" fill="#243454"/>
    <path d="M71.1807 65.6257H65.6919V71.0985H71.1807V65.6257Z" fill="#243454"/>
    <path d="M71.2589 60.1528H65.6133V65.7819H71.2589V60.1528Z" fill="#243454"/>
    <path d="M71.1807 60.231H65.6919V65.6255H71.1807V60.231Z" fill="#243454"/>
    <path d="M65.7704 234.108H60.1248V239.737H65.7704V234.108Z" fill="#0A0F1A"/>
    <path d="M65.6912 234.186H60.2024V239.659H65.6912V234.186Z" fill="#0A0F1A"/>
    <path d="M65.7704 228.714H60.1248V234.343H65.7704V228.714Z" fill="#111724"/>
    <path d="M65.6912 228.792H60.2024V234.187H65.6912V228.792Z" fill="#111724"/>
    <path d="M65.7704 223.241H60.1248V228.87H65.7704V223.241Z" fill="#111724"/>
    <path d="M65.6912 223.319H60.2024V228.792H65.6912V223.319Z" fill="#111724"/>
    <path d="M65.7704 71.02H60.1248V76.6492H65.7704V71.02Z" fill="#131E33"/>
    <path d="M65.6912 71.0981H60.2024V76.5709H65.6912V71.0981Z" fill="#131E33"/>
    <path d="M65.7704 65.5476H60.1248V71.1767H65.7704V65.5476Z" fill="#243454"/>
    <path d="M65.6912 65.6257H60.2024V71.0985H65.6912V65.6257Z" fill="#243454"/>
    <path d="M65.7704 60.1528H60.1248V65.7819H65.7704V60.1528Z" fill="#243454"/>
    <path d="M65.6912 60.231H60.2024V65.6255H65.6912V60.231Z" fill="#243454"/>
    <path d="M65.7704 54.6802H60.1248V60.3093H65.7704V54.6802Z" fill="#243454"/>
    <path d="M65.6912 54.7583H60.2024V60.2311H65.6912V54.7583Z" fill="#243454"/>
    <path d="M65.7704 27.5505H60.1248V33.1797H65.7704V27.5505Z" fill="#F57E77"/>
    <path d="M65.6912 27.629H60.2024V33.1018H65.6912V27.629Z" fill="#F57E77"/>
    <path d="M65.7704 22.078H60.1248V27.7071H65.7704V22.078Z" fill="#FFE4CE"/>
    <path d="M65.6912 22.1561H60.2024V27.5507H65.6912V22.1561Z" fill="#FFE4CE"/>
    <path d="M65.7704 16.6835H60.1248V22.3126H65.7704V16.6835Z" fill="#3D041F"/>
    <path d="M65.6912 16.7617H60.2024V22.2345H65.6912V16.7617Z" fill="#3D041F"/>
    <path d="M60.2813 234.108H54.6356V239.737H60.2813V234.108Z" fill="#0A0F1A"/>
    <path d="M60.2032 234.186H54.7927V239.659H60.2032V234.186Z" fill="#0A0F1A"/>
    <path d="M60.2813 228.714H54.6356V234.343H60.2813V228.714Z" fill="#111724"/>
    <path d="M60.2032 228.792H54.7927V234.187H60.2032V228.792Z" fill="#111724"/>
    <path d="M60.2813 223.241H54.6356V228.87H60.2813V223.241Z" fill="#111724"/>
    <path d="M60.2032 223.319H54.7927V228.792H60.2032V223.319Z" fill="#111724"/>
    <path d="M60.2813 217.846H54.6356V223.476H60.2813V217.846Z" fill="#75184B"/>
    <path d="M60.2032 217.925H54.7927V223.397H60.2032V217.925Z" fill="#111724"/>
    <path d="M60.2813 212.374H54.6356V218.003H60.2813V212.374Z" fill="#243454"/>
    <path d="M60.2032 212.452H54.7927V217.925H60.2032V212.452Z" fill="#243454"/>
    <path d="M60.2813 206.979H54.6356V212.608H60.2813V206.979Z" fill="#243454"/>
    <path d="M60.2032 207.057H54.7927V212.452H60.2032V207.057Z" fill="#243454"/>
    <path d="M60.2813 201.507H54.6356V207.136H60.2813V201.507Z" fill="#243454"/>
    <path d="M60.2032 201.585H54.7927V207.057H60.2032V201.585Z" fill="#243454"/>
    <path d="M60.2813 196.034H54.6356V201.663H60.2813V196.034Z" fill="#243454"/>
    <path d="M60.2032 196.112H54.7927V201.584H60.2032V196.112Z" fill="#243454"/>
    <path d="M60.2813 190.639H54.6356V196.268H60.2813V190.639Z" fill="#243454"/>
    <path d="M60.2032 190.717H54.7927V196.19H60.2032V190.717Z" fill="#243454"/>
    <path d="M60.2813 185.166H54.6356V190.795H60.2813V185.166Z" fill="#243454"/>
    <path d="M60.2032 185.244H54.7927V190.639H60.2032V185.244Z" fill="#243454"/>
    <path d="M60.2813 179.772H54.6356V185.401H60.2813V179.772Z" fill="#243454"/>
    <path d="M60.2032 179.85H54.7927V185.322H60.2032V179.85Z" fill="#243454"/>
    <path d="M60.2813 174.299H54.6356V179.928H60.2813V174.299Z" fill="#243454"/>
    <path d="M60.2032 174.377H54.7927V179.85H60.2032V174.377Z" fill="#243454"/>
    <path d="M60.2813 168.904H54.6356V174.534H60.2813V168.904Z" fill="#243454"/>
    <path d="M60.2032 168.983H54.7927V174.377H60.2032V168.983Z" fill="#243454"/>
    <path d="M60.2813 163.432H54.6356V169.061H60.2813V163.432Z" fill="#243454"/>
    <path d="M60.2032 163.51H54.7927V168.982H60.2032V163.51Z" fill="#243454"/>
    <path d="M60.2813 158.037H54.6356V163.666H60.2813V158.037Z" fill="#243454"/>
    <path d="M60.2032 158.115H54.7927V163.588H60.2032V158.115Z" fill="#243454"/>
    <path d="M60.2813 152.564H54.6356V158.193H60.2813V152.564Z" fill="#243454"/>
    <path d="M60.2032 152.642H54.7927V158.115H60.2032V152.642Z" fill="#243454"/>
    <path d="M60.2813 147.17H54.6356V152.799H60.2813V147.17Z" fill="#243454"/>
    <path d="M60.2032 147.248H54.7927V152.642H60.2032V147.248Z" fill="#243454"/>
    <path d="M60.2813 141.697H54.6356V147.326H60.2813V141.697Z" fill="#243454"/>
    <path d="M60.2032 141.775H54.7927V147.248H60.2032V141.775Z" fill="#243454"/>
    <path d="M60.2813 136.224H54.6356V141.853H60.2813V136.224Z" fill="#243454"/>
    <path d="M60.2032 136.302H54.7927V141.775H60.2032V136.302Z" fill="#243454"/>
    <path d="M60.2813 130.83H54.6356V136.459H60.2813V130.83Z" fill="#243454"/>
    <path d="M60.2032 130.908H54.7927V136.381H60.2032V130.908Z" fill="#243454"/>
    <path d="M60.2813 125.357H54.6356V130.986H60.2813V125.357Z" fill="#131E33"/>
    <path d="M60.2032 125.435H54.7927V130.829H60.2032V125.435Z" fill="#131E33"/>
    <path d="M60.2813 119.962H54.6356V125.592H60.2813V119.962Z" fill="#0A0F1A"/>
    <path d="M60.2032 120.04H54.7927V125.513H60.2032V120.04Z" fill="#0A0F1A"/>
    <path d="M60.2813 114.489H54.6356V120.118H60.2813V114.489Z" fill="#131E33"/>
    <path d="M60.2032 114.568H54.7927V120.041H60.2032V114.568Z" fill="#131E33"/>
    <path d="M60.2813 109.095H54.6356V114.724H60.2813V109.095Z" fill="#131E33"/>
    <path d="M60.2032 109.173H54.7927V114.646H60.2032V109.173Z" fill="#131E33"/>
    <path d="M60.2813 103.622H54.6356V109.251H60.2813V103.622Z" fill="#131E33"/>
    <path d="M60.2032 103.7H54.7927V109.095H60.2032V103.7Z" fill="#131E33"/>
    <path d="M60.2813 98.2274H54.6356V103.857H60.2813V98.2274Z" fill="#131E33"/>
    <path d="M60.2032 98.3055H54.7927V103.778H60.2032V98.3055Z" fill="#131E33"/>
    <path d="M60.2813 92.7549H54.6356V98.384H60.2813V92.7549Z" fill="#131E33"/>
    <path d="M60.2032 92.8331H54.7927V98.3059H60.2032V92.8331Z" fill="#131E33"/>
    <path d="M60.2813 87.3601H54.6356V92.9892H60.2813V87.3601Z" fill="#131E33"/>
    <path d="M60.2032 87.4385H54.7927V92.9112H60.2032V87.4385Z" fill="#131E33"/>
    <path d="M60.2813 81.8876H54.6356V87.5167H60.2813V81.8876Z" fill="#131E33"/>
    <path d="M60.2032 81.9656H54.7927V87.3601H60.2032V81.9656Z" fill="#131E33"/>
    <path d="M60.2813 76.4146H54.6356V82.0437H60.2813V76.4146Z" fill="#131E33"/>
    <path d="M60.2032 76.5712H54.7927V82.0439H60.2032V76.5712Z" fill="#131E33"/>
    <path d="M60.2813 71.02H54.6356V76.6492H60.2813V71.02Z" fill="#131E33"/>
    <path d="M60.2032 71.0981H54.7927V76.5709H60.2032V71.0981Z" fill="#131E33"/>
    <path d="M60.2813 65.5476H54.6356V71.1767H60.2813V65.5476Z" fill="#243454"/>
    <path d="M60.2032 65.6257H54.7927V71.0985H60.2032V65.6257Z" fill="#243454"/>
    <path d="M60.2813 60.1528H54.6356V65.7819H60.2813V60.1528Z" fill="#374F80"/>
    <path d="M60.2032 60.231H54.7927V65.6255H60.2032V60.231Z" fill="#374F80"/>
    <path d="M60.2813 54.6802H54.6356V60.3093H60.2813V54.6802Z" fill="#374F80"/>
    <path d="M60.2032 54.7583H54.7927V60.2311H60.2032V54.7583Z" fill="#374F80"/>
    <path d="M60.2813 32.9454H54.6356V38.5746H60.2813V32.9454Z" fill="#F57E77"/>
    <path d="M60.2032 33.0234H54.7927V38.4962H60.2032V33.0234Z" fill="#F57E77"/>
    <path d="M60.2813 27.5505H54.6356V33.1797H60.2813V27.5505Z" fill="#FFE4CE"/>
    <path d="M60.2032 27.629H54.7927V33.1018H60.2032V27.629Z" fill="#FFE4CE"/>
    <path d="M60.2813 22.078H54.6356V27.7071H60.2813V22.078Z" fill="#3D041F"/>
    <path d="M60.2032 22.1561H54.7927V27.5507H60.2032V22.1561Z" fill="#3D041F"/>
    <path d="M60.2813 16.6835H54.6356V22.3126H60.2813V16.6835Z" fill="#3D041F"/>
    <path d="M60.2032 16.7617H54.7927V22.2345H60.2032V16.7617Z" fill="#3D041F"/>
    <path d="M60.2813 11.2107H54.6356V16.8398H60.2813V11.2107Z" fill="#621931"/>
    <path d="M60.2032 11.2888H54.7927V16.7616H60.2032V11.2888Z" fill="#621931"/>
    <path d="M60.2813 5.73804H54.6356V11.3672H60.2813V5.73804Z" fill="#621931"/>
    <path d="M60.2032 5.81616H54.7927V11.2889H60.2032V5.81616Z" fill="#621931"/>
    <path d="M54.8705 234.108H49.2249V239.737H54.8705V234.108Z" fill="#0A0F1A"/>
    <path d="M54.7924 234.186H49.3036V239.659H54.7924V234.186Z" fill="#0A0F1A"/>
    <path d="M54.8705 228.714H49.2249V234.343H54.8705V228.714Z" fill="#111724"/>
    <path d="M54.7924 228.792H49.3036V234.187H54.7924V228.792Z" fill="#111724"/>
    <path d="M54.8705 223.241H49.2249V228.87H54.8705V223.241Z" fill="#111724"/>
    <path d="M54.7924 223.319H49.3036V228.792H54.7924V223.319Z" fill="#111724"/>
    <path d="M54.8705 217.846H49.2249V223.476H54.8705V217.846Z" fill="#111724"/>
    <path d="M54.7924 217.925H49.3036V223.397H54.7924V217.925Z" fill="#111724"/>
    <path d="M54.8705 212.374H49.2249V218.003H54.8705V212.374Z" fill="#243454"/>
    <path d="M54.7924 212.452H49.3036V217.925H54.7924V212.452Z" fill="#243454"/>
    <path d="M54.8705 206.979H49.2249V212.608H54.8705V206.979Z" fill="#243454"/>
    <path d="M54.7924 207.057H49.3036V212.452H54.7924V207.057Z" fill="#243454"/>
    <path d="M54.8705 201.507H49.2249V207.136H54.8705V201.507Z" fill="#243454"/>
    <path d="M54.7924 201.585H49.3036V207.057H54.7924V201.585Z" fill="#243454"/>
    <path d="M54.8705 196.034H49.2249V201.663H54.8705V196.034Z" fill="#243454"/>
    <path d="M54.7924 196.112H49.3036V201.584H54.7924V196.112Z" fill="#243454"/>
    <path d="M54.8705 190.639H49.2249V196.268H54.8705V190.639Z" fill="#243454"/>
    <path d="M54.7924 190.717H49.3036V196.19H54.7924V190.717Z" fill="#243454"/>
    <path d="M54.8705 185.166H49.2249V190.795H54.8705V185.166Z" fill="#243454"/>
    <path d="M54.7924 185.244H49.3036V190.639H54.7924V185.244Z" fill="#243454"/>
    <path d="M54.8705 179.772H49.2249V185.401H54.8705V179.772Z" fill="#243454"/>
    <path d="M54.7924 179.85H49.3036V185.322H54.7924V179.85Z" fill="#243454"/>
    <path d="M54.8705 174.299H49.2249V179.928H54.8705V174.299Z" fill="#243454"/>
    <path d="M54.7924 174.377H49.3036V179.85H54.7924V174.377Z" fill="#243454"/>
    <path d="M54.8705 168.904H49.2249V174.534H54.8705V168.904Z" fill="#243454"/>
    <path d="M54.7924 168.983H49.3036V174.377H54.7924V168.983Z" fill="#243454"/>
    <path d="M54.8705 163.432H49.2249V169.061H54.8705V163.432Z" fill="#243454"/>
    <path d="M54.7924 163.51H49.3036V168.982H54.7924V163.51Z" fill="#243454"/>
    <path d="M54.8705 158.037H49.2249V163.666H54.8705V158.037Z" fill="#243454"/>
    <path d="M54.7924 158.115H49.3036V163.588H54.7924V158.115Z" fill="#243454"/>
    <path d="M54.8705 152.564H49.2249V158.193H54.8705V152.564Z" fill="#243454"/>
    <path d="M54.7924 152.642H49.3036V158.115H54.7924V152.642Z" fill="#243454"/>
    <path d="M54.8705 147.17H49.2249V152.799H54.8705V147.17Z" fill="#243454"/>
    <path d="M54.7924 147.248H49.3036V152.642H54.7924V147.248Z" fill="#243454"/>
    <path d="M54.8705 141.697H49.2249V147.326H54.8705V141.697Z" fill="#243454"/>
    <path d="M54.7924 141.775H49.3036V147.248H54.7924V141.775Z" fill="#243454"/>
    <path d="M54.8705 136.224H49.2249V141.853H54.8705V136.224Z" fill="#243454"/>
    <path d="M54.7924 136.302H49.3036V141.775H54.7924V136.302Z" fill="#243454"/>
    <path d="M54.8705 130.83H49.2249V136.459H54.8705V130.83Z" fill="#243454"/>
    <path d="M54.7924 130.908H49.3036V136.381H54.7924V130.908Z" fill="#243454"/>
    <path d="M54.8705 125.357H49.2249V130.986H54.8705V125.357Z" fill="#243454"/>
    <path d="M54.7924 125.435H49.3036V130.829H54.7924V125.435Z" fill="#243454"/>
    <path d="M54.8705 119.962H49.2249V125.592H54.8705V119.962Z" fill="#0A0F1A"/>
    <path d="M54.7924 120.04H49.3036V125.513H54.7924V120.04Z" fill="#0A0F1A"/>
    <path d="M54.8705 114.489H49.2249V120.118H54.8705V114.489Z" fill="#243454"/>
    <path d="M54.7924 114.568H49.3036V120.041H54.7924V114.568Z" fill="#243454"/>
    <path d="M54.8705 109.095H49.2249V114.724H54.8705V109.095Z" fill="#243454"/>
    <path d="M54.7924 109.173H49.3036V114.646H54.7924V109.173Z" fill="#243454"/>
    <path d="M54.8705 103.622H49.2249V109.251H54.8705V103.622Z" fill="#243454"/>
    <path d="M54.7924 103.7H49.3036V109.095H54.7924V103.7Z" fill="#243454"/>
    <path d="M54.8705 98.2274H49.2249V103.857H54.8705V98.2274Z" fill="#243454"/>
    <path d="M54.7924 98.3055H49.3036V103.778H54.7924V98.3055Z" fill="#243454"/>
    <path d="M54.8705 92.7549H49.2249V98.384H54.8705V92.7549Z" fill="#243454"/>
    <path d="M54.7924 92.8331H49.3036V98.3059H54.7924V92.8331Z" fill="#243454"/>
    <path d="M54.8705 87.3601H49.2249V92.9892H54.8705V87.3601Z" fill="#243454"/>
    <path d="M54.7924 87.4385H49.3036V92.9112H54.7924V87.4385Z" fill="#243454"/>
    <path d="M54.8705 81.8876H49.2249V87.5167H54.8705V81.8876Z" fill="#243454"/>
    <path d="M54.7924 81.9656H49.3036V87.3601H54.7924V81.9656Z" fill="#243454"/>
    <path d="M54.8705 76.4146H49.2249V82.0437H54.8705V76.4146Z" fill="#243454"/>
    <path d="M54.7924 76.5712H49.3036V82.0439H54.7924V76.5712Z" fill="#243454"/>
    <path d="M54.8705 71.02H49.2249V76.6492H54.8705V71.02Z" fill="#374F80"/>
    <path d="M54.7924 71.0981H49.3036V76.5709H54.7924V71.0981Z" fill="#374F80"/>
    <path d="M54.8705 65.5476H49.2249V71.1767H54.8705V65.5476Z" fill="#374F80"/>
    <path d="M54.7924 65.6257H49.3036V71.0985H54.7924V65.6257Z" fill="#374F80"/>
    <path d="M54.8705 60.1528H49.2249V65.7819H54.8705V60.1528Z" fill="white"/>
    <path d="M54.7924 60.231H49.3036V65.6255H54.7924V60.231Z" fill="white"/>
    <path d="M54.8705 54.6802H49.2249V60.3093H54.8705V54.6802Z" fill="#790E37"/>
    <path d="M54.7924 54.7583H49.3036V60.2311H54.7924V54.7583Z" fill="#A3221D"/>
    <path d="M54.8705 49.2853H49.2249V54.9144H54.8705V49.2853Z" fill="white"/>
    <path d="M54.7924 49.3634H49.3036V54.8362H54.7924V49.3634Z" fill="white"/>
    <path d="M54.8705 38.4181H49.2249V44.0472H54.8705V38.4181Z" fill="#F57E77"/>
    <path d="M54.7924 38.4965H49.3036V43.9692H54.7924V38.4965Z" fill="#F57E77"/>
    <path d="M54.8705 32.9454H49.2249V38.5746H54.8705V32.9454Z" fill="#FFE4CE"/>
    <path d="M54.7924 33.0234H49.3036V38.4962H54.7924V33.0234Z" fill="#FFE4CE"/>
    <path d="M54.8705 27.5505H49.2249V33.1797H54.8705V27.5505Z" fill="#FFE4CE"/>
    <path d="M54.7924 27.629H49.3036V33.1018H54.7924V27.629Z" fill="#FFE4CE"/>
    <path d="M54.8705 22.078H49.2249V27.7071H54.8705V22.078Z" fill="#FFE4CE"/>
    <path d="M54.7924 22.1561H49.3036V27.5507H54.7924V22.1561Z" fill="#FFE4CE"/>
    <path d="M54.8705 16.6835H49.2249V22.3126H54.8705V16.6835Z" fill="#FFE4CE"/>
    <path d="M54.7924 16.7617H49.3036V22.2345H54.7924V16.7617Z" fill="#FFE4CE"/>
    <path d="M54.8705 11.2107H49.2249V16.8398H54.8705V11.2107Z" fill="#3D041F"/>
    <path d="M54.7924 11.2888H49.3036V16.7616H54.7924V11.2888Z" fill="#3D041F"/>
    <path d="M54.8705 5.73804H49.2249V11.3672H54.8705V5.73804Z" fill="#621931"/>
    <path d="M54.7924 5.81616H49.3036V11.2889H54.7924V5.81616Z" fill="#621931"/>
    <path d="M54.8705 0.343262H49.2249V5.97237H54.8705V0.343262Z" fill="#621931"/>
    <path d="M54.7924 0.421631H49.3036V5.8162H54.7924V0.421631Z" fill="#621931"/>
    <path d="M49.3821 234.108H43.7365V239.737H49.3821V234.108Z" fill="#0A0F1A"/>
    <path d="M49.304 234.186H43.8152V239.659H49.304V234.186Z" fill="#0A0F1A"/>
    <path d="M49.3821 228.714H43.7365V234.343H49.3821V228.714Z" fill="#3D041F"/>
    <path d="M49.304 228.792H43.8152V234.187H49.304V228.792Z" fill="#111724"/>
    <path d="M49.3821 223.241H43.7365V228.87H49.3821V223.241Z" fill="#3D041F"/>
    <path d="M49.304 223.319H43.8152V228.792H49.304V223.319Z" fill="#111724"/>
    <path d="M49.3821 217.846H43.7365V223.476H49.3821V217.846Z" fill="#3D041F"/>
    <path d="M49.304 217.925H43.8152V223.397H49.304V217.925Z" fill="#111724"/>
    <path d="M49.3821 212.374H43.7365V218.003H49.3821V212.374Z" fill="#131E33"/>
    <path d="M49.304 212.452H43.8152V217.925H49.304V212.452Z" fill="#131E33"/>
    <path d="M49.3821 206.979H43.7365V212.608H49.3821V206.979Z" fill="#131E33"/>
    <path d="M49.304 207.057H43.8152V212.452H49.304V207.057Z" fill="#131E33"/>
    <path d="M49.3821 201.507H43.7365V207.136H49.3821V201.507Z" fill="#131E33"/>
    <path d="M49.304 201.585H43.8152V207.057H49.304V201.585Z" fill="#131E33"/>
    <path d="M49.3821 196.034H43.7365V201.663H49.3821V196.034Z" fill="#131E33"/>
    <path d="M49.304 196.112H43.8152V201.584H49.304V196.112Z" fill="#131E33"/>
    <path d="M49.3821 190.639H43.7365V196.268H49.3821V190.639Z" fill="#131E33"/>
    <path d="M49.304 190.717H43.8152V196.19H49.304V190.717Z" fill="#131E33"/>
    <path d="M49.3821 185.166H43.7365V190.795H49.3821V185.166Z" fill="#131E33"/>
    <path d="M49.304 185.244H43.8152V190.639H49.304V185.244Z" fill="#131E33"/>
    <path d="M49.3821 179.772H43.7365V185.401H49.3821V179.772Z" fill="#131E33"/>
    <path d="M49.304 179.85H43.8152V185.322H49.304V179.85Z" fill="#131E33"/>
    <path d="M49.3821 174.299H43.7365V179.928H49.3821V174.299Z" fill="#131E33"/>
    <path d="M49.304 174.377H43.8152V179.85H49.304V174.377Z" fill="#131E33"/>
    <path d="M49.3821 168.904H43.7365V174.534H49.3821V168.904Z" fill="#131E33"/>
    <path d="M49.304 168.983H43.8152V174.377H49.304V168.983Z" fill="#131E33"/>
    <path d="M49.3821 163.432H43.7365V169.061H49.3821V163.432Z" fill="#131E33"/>
    <path d="M49.304 163.51H43.8152V168.982H49.304V163.51Z" fill="#131E33"/>
    <path d="M49.3821 158.037H43.7365V163.666H49.3821V158.037Z" fill="#131E33"/>
    <path d="M49.304 158.115H43.8152V163.588H49.304V158.115Z" fill="#131E33"/>
    <path d="M49.3821 152.564H43.7365V158.193H49.3821V152.564Z" fill="#131E33"/>
    <path d="M49.304 152.642H43.8152V158.115H49.304V152.642Z" fill="#131E33"/>
    <path d="M49.3821 147.17H43.7365V152.799H49.3821V147.17Z" fill="#131E33"/>
    <path d="M49.304 147.248H43.8152V152.642H49.304V147.248Z" fill="#131E33"/>
    <path d="M49.3821 141.697H43.7365V147.326H49.3821V141.697Z" fill="#131E33"/>
    <path d="M49.304 141.775H43.8152V147.248H49.304V141.775Z" fill="#131E33"/>
    <path d="M49.3821 136.224H43.7365V141.853H49.3821V136.224Z" fill="#243454"/>
    <path d="M49.304 136.302H43.8152V141.775H49.304V136.302Z" fill="#243454"/>
    <path d="M49.3821 130.83H43.7365V136.459H49.3821V130.83Z" fill="#243454"/>
    <path d="M49.304 130.908H43.8152V136.381H49.304V130.908Z" fill="#243454"/>
    <path d="M49.3821 125.357H43.7365V130.986H49.3821V125.357Z" fill="#243454"/>
    <path d="M49.304 125.435H43.8152V130.829H49.304V125.435Z" fill="#243454"/>
    <path d="M49.3821 119.962H43.7365V125.592H49.3821V119.962Z" fill="#0A0F1A"/>
    <path d="M49.304 120.04H43.8152V125.513H49.304V120.04Z" fill="#0A0F1A"/>
    <path d="M49.3821 114.489H43.7365V120.118H49.3821V114.489Z" fill="#243454"/>
    <path d="M49.304 114.568H43.8152V120.041H49.304V114.568Z" fill="#243454"/>
    <path d="M49.3821 109.095H43.7365V114.724H49.3821V109.095Z" fill="#243454"/>
    <path d="M49.304 109.173H43.8152V114.646H49.304V109.173Z" fill="#243454"/>
    <path d="M49.3821 103.622H43.7365V109.251H49.3821V103.622Z" fill="#243454"/>
    <path d="M49.304 103.7H43.8152V109.095H49.304V103.7Z" fill="#243454"/>
    <path d="M49.3821 98.2274H43.7365V103.857H49.3821V98.2274Z" fill="#243454"/>
    <path d="M49.304 98.3055H43.8152V103.778H49.304V98.3055Z" fill="#243454"/>
    <path d="M49.3821 92.7549H43.7365V98.384H49.3821V92.7549Z" fill="#243454"/>
    <path d="M49.304 92.8331H43.8152V98.3059H49.304V92.8331Z" fill="#243454"/>
    <path d="M49.3821 87.3601H43.7365V92.9892H49.3821V87.3601Z" fill="#243454"/>
    <path d="M49.304 87.4385H43.8152V92.9112H49.304V87.4385Z" fill="#243454"/>
    <path d="M49.3821 81.8876H43.7365V87.5167H49.3821V81.8876Z" fill="#243454"/>
    <path d="M49.304 81.9656H43.8152V87.3601H49.304V81.9656Z" fill="#243454"/>
    <path d="M49.3821 76.4146H43.7365V82.0437H49.3821V76.4146Z" fill="#374F80"/>
    <path d="M49.304 76.5712H43.8152V82.0439H49.304V76.5712Z" fill="#374F80"/>
    <path d="M49.3821 71.02H43.7365V76.6492H49.3821V71.02Z" fill="white"/>
    <path d="M49.304 71.0981H43.8152V76.5709H49.304V71.0981Z" fill="white"/>
    <path d="M49.3821 65.5476H43.7365V71.1767H49.3821V65.5476Z" fill="white"/>
    <path d="M49.304 65.6257H43.8152V71.0985H49.304V65.6257Z" fill="white"/>
    <path d="M49.3821 60.1528H43.7365V65.7819H49.3821V60.1528Z" fill="#790E37"/>
    <path d="M49.304 60.231H43.8152V65.6255H49.304V60.231Z" fill="#A3221D"/>
    <path d="M49.3821 54.6802H43.7365V60.3093H49.3821V54.6802Z" fill="#F57E77"/>
    <path d="M49.304 54.7583H43.8152V60.2311H49.304V54.7583Z" fill="#F57E77"/>
    <path d="M49.3821 49.2853H43.7365V54.9144H49.3821V49.2853Z" fill="#F57E77"/>
    <path d="M49.304 49.3634H43.8152V54.8362H49.304V49.3634Z" fill="#F57E77"/>
    <path d="M49.3821 43.8127H43.7365V49.4419H49.3821V43.8127Z" fill="#F57E77"/>
    <path d="M49.304 43.891H43.8152V49.2856H49.304V43.891Z" fill="#F57E77"/>
    <path d="M49.3821 38.4181H43.7365V44.0472H49.3821V38.4181Z" fill="#FFE4CE"/>
    <path d="M49.304 38.4965H43.8152V43.9692H49.304V38.4965Z" fill="#FFE4CE"/>
    <path d="M49.3821 32.9454H43.7365V38.5746H49.3821V32.9454Z" fill="#FFE4CE"/>
    <path d="M49.304 33.0234H43.8152V38.4962H49.304V33.0234Z" fill="#FFE4CE"/>
    <path d="M49.3821 27.5505H43.7365V33.1797H49.3821V27.5505Z" fill="#FFE4CE"/>
    <path d="M49.304 27.629H43.8152V33.1018H49.304V27.629Z" fill="#FFE4CE"/>
    <path d="M49.3821 22.078H43.7365V27.7071H49.3821V22.078Z" fill="#66667C"/>
    <path d="M49.304 22.1561H43.8152V27.5507H49.304V22.1561Z" fill="#66667C"/>
    <path d="M49.3821 16.6835H43.7365V22.3126H49.3821V16.6835Z" fill="#FFE4CE"/>
    <path d="M49.304 16.7617H43.8152V22.2345H49.304V16.7617Z" fill="#FFE4CE"/>
    <path d="M49.3821 11.2107H43.7365V16.8398H49.3821V11.2107Z" fill="#FFE4CE"/>
    <path d="M49.304 11.2888H43.8152V16.7616H49.304V11.2888Z" fill="#FFE4CE"/>
    <path d="M49.3821 5.73804H43.7365V11.3672H49.3821V5.73804Z" fill="#3D041F"/>
    <path d="M49.304 5.81616H43.8152V11.2889H49.304V5.81616Z" fill="#3D041F"/>
    <path d="M49.3821 0.343262H43.7365V5.97237H49.3821V0.343262Z" fill="#621931"/>
    <path d="M49.304 0.421631H43.8152V5.8162H49.304V0.421631Z" fill="#621931"/>
    <path d="M43.9716 136.224H38.3259V141.853H43.9716V136.224Z" fill="#131E33"/>
    <path d="M43.8928 136.302H38.4039V141.775H43.8928V136.302Z" fill="#243454"/>
    <path d="M43.9716 130.83H38.3259V136.459H43.9716V130.83Z" fill="#131E33"/>
    <path d="M43.8928 130.908H38.4039V136.381H43.8928V130.908Z" fill="#243454"/>
    <path d="M43.9716 125.357H38.3259V130.986H43.9716V125.357Z" fill="#243454"/>
    <path d="M43.8928 125.435H38.4039V130.829H43.8928V125.435Z" fill="#243454"/>
    <path d="M43.9716 119.962H38.3259V125.592H43.9716V119.962Z" fill="#0A0F1A"/>
    <path d="M43.9716 114.489H38.3259V120.118H43.9716V114.489Z" fill="#243454"/>
    <path d="M43.8928 114.568H38.4039V120.041H43.8928V114.568Z" fill="#243454"/>
    <path d="M43.9716 109.095H38.3259V114.724H43.9716V109.095Z" fill="#243454"/>
    <path d="M43.8928 109.173H38.4039V114.646H43.8928V109.173Z" fill="#243454"/>
    <path d="M43.9716 103.622H38.3259V109.251H43.9716V103.622Z" fill="#243454"/>
    <path d="M43.8928 103.7H38.4039V109.095H43.8928V103.7Z" fill="#243454"/>
    <path d="M43.9716 98.2274H38.3259V103.857H43.9716V98.2274Z" fill="#243454"/>
    <path d="M43.8928 98.3055H38.4039V103.778H43.8928V98.3055Z" fill="#243454"/>
    <path d="M43.9716 92.7549H38.3259V98.384H43.9716V92.7549Z" fill="#243454"/>
    <path d="M43.8928 92.8331H38.4039V98.3059H43.8928V92.8331Z" fill="#243454"/>
    <path d="M43.9716 87.3601H38.3259V92.9892H43.9716V87.3601Z" fill="#243454"/>
    <path d="M43.8928 87.4385H38.4039V92.9112H43.8928V87.4385Z" fill="#243454"/>
    <path d="M43.9716 81.8876H38.3259V87.5167H43.9716V81.8876Z" fill="#374F80"/>
    <path d="M43.8928 81.9656H38.4039V87.3601H43.8928V81.9656Z" fill="#374F80"/>
    <path d="M43.9716 76.4146H38.3259V82.0437H43.9716V76.4146Z" fill="#111724"/>
    <path d="M43.9716 71.02H38.3259V76.6492H43.9716V71.02Z" fill="#111724"/>
    <path d="M43.9716 65.5476H38.3259V71.1767H43.9716V65.5476Z" fill="#111724"/>
    <path d="M43.9716 60.1528H38.3259V65.7819H43.9716V60.1528Z" fill="#111724"/>
    <path d="M43.9716 54.6802H38.3259V60.3093H43.9716V54.6802Z" fill="#FFE4CE"/>
    <path d="M43.8928 54.7583H38.4039V60.2311H43.8928V54.7583Z" fill="#FFE4CE"/>
    <path d="M43.9716 49.2853H38.3259V54.9144H43.9716V49.2853Z" fill="#FFE4CE"/>
    <path d="M43.8928 49.3634H38.4039V54.8362H43.8928V49.3634Z" fill="#FFE4CE"/>
    <path d="M43.9716 43.8127H38.3259V49.4419H43.9716V43.8127Z" fill="#F57E77"/>
    <path d="M43.8928 43.891H38.4039V49.2856H43.8928V43.891Z" fill="#F57E77"/>
    <path d="M43.9716 38.4181H38.3259V44.0472H43.9716V38.4181Z" fill="#FFE4CE"/>
    <path d="M43.8928 38.4965H38.4039V43.9692H43.8928V38.4965Z" fill="#FFE4CE"/>
    <path d="M43.9716 32.9454H38.3259V38.5746H43.9716V32.9454Z" fill="#FFE4CE"/>
    <path d="M43.8928 33.0234H38.4039V38.4962H43.8928V33.0234Z" fill="#FFE4CE"/>
    <path d="M43.9716 27.5505H38.3259V33.1797H43.9716V27.5505Z" fill="#FFE4CE"/>
    <path d="M43.8928 27.629H38.4039V33.1018H43.8928V27.629Z" fill="#FFE4CE"/>
    <path d="M43.9716 22.078H38.3259V27.7071H43.9716V22.078Z" fill="#FFE4CE"/>
    <path d="M43.8928 22.1561H38.4039V27.5507H43.8928V22.1561Z" fill="#FFE4CE"/>
    <path d="M43.9716 16.6835H38.3259V22.3126H43.9716V16.6835Z" fill="#FFE4CE"/>
    <path d="M43.8928 16.7617H38.4039V22.2345H43.8928V16.7617Z" fill="#FFE4CE"/>
    <path d="M43.9716 11.2107H38.3259V16.8398H43.9716V11.2107Z" fill="#FFE4CE"/>
    <path d="M43.8928 11.2888H38.4039V16.7616H43.8928V11.2888Z" fill="#FFE4CE"/>
    <path d="M43.9716 5.73804H38.3259V11.3672H43.9716V5.73804Z" fill="#3D041F"/>
    <path d="M43.8928 5.81616H38.4039V11.2889H43.8928V5.81616Z" fill="#3D041F"/>
    <path d="M43.9716 0.343262H38.3259V5.97237H43.9716V0.343262Z" fill="#621931"/>
    <path d="M43.8928 0.421631H38.4039V5.8162H43.8928V0.421631Z" fill="#621931"/>
    <path d="M38.4825 234.108H32.8368V239.737H38.4825V234.108Z" fill="#0A0F1A"/>
    <path d="M38.3258 234.186H32.9154V239.659H38.3258V234.186Z" fill="#0A0F1A"/>
    <path d="M38.4825 228.714H32.8368V234.343H38.4825V228.714Z" fill="#3D041F"/>
    <path d="M38.3258 228.792H32.9154V234.187H38.3258V228.792Z" fill="#111724"/>
    <path d="M38.4825 223.241H32.8368V228.87H38.4825V223.241Z" fill="#3D041F"/>
    <path d="M38.3258 223.319H32.9154V228.792H38.3258V223.319Z" fill="#111724"/>
    <path d="M38.4825 217.846H32.8368V223.476H38.4825V217.846Z" fill="#3D041F"/>
    <path d="M38.3258 217.925H32.9154V223.397H38.3258V217.925Z" fill="#111724"/>
    <path d="M38.4825 212.374H32.8368V218.003H38.4825V212.374Z" fill="#131E33"/>
    <path d="M38.3258 212.452H32.9154V217.925H38.3258V212.452Z" fill="#131E33"/>
    <path d="M38.4825 206.979H32.8368V212.608H38.4825V206.979Z" fill="#131E33"/>
    <path d="M38.3258 207.057H32.9154V212.452H38.3258V207.057Z" fill="#131E33"/>
    <path d="M38.4825 201.507H32.8368V207.136H38.4825V201.507Z" fill="#131E33"/>
    <path d="M38.3258 201.585H32.9154V207.057H38.3258V201.585Z" fill="#131E33"/>
    <path d="M38.4825 196.034H32.8368V201.663H38.4825V196.034Z" fill="#131E33"/>
    <path d="M38.3258 196.112H32.9154V201.584H38.3258V196.112Z" fill="#131E33"/>
    <path d="M38.4825 190.639H32.8368V196.268H38.4825V190.639Z" fill="#131E33"/>
    <path d="M38.3258 190.717H32.9154V196.19H38.3258V190.717Z" fill="#131E33"/>
    <path d="M38.4825 185.166H32.8368V190.795H38.4825V185.166Z" fill="#131E33"/>
    <path d="M38.3258 185.244H32.9154V190.639H38.3258V185.244Z" fill="#131E33"/>
    <path d="M38.4825 179.772H32.8368V185.401H38.4825V179.772Z" fill="#131E33"/>
    <path d="M38.3258 179.85H32.9154V185.322H38.3258V179.85Z" fill="#131E33"/>
    <path d="M38.4825 174.299H32.8368V179.928H38.4825V174.299Z" fill="#131E33"/>
    <path d="M38.3258 174.377H32.9154V179.85H38.3258V174.377Z" fill="#131E33"/>
    <path d="M38.4825 168.904H32.8368V174.534H38.4825V168.904Z" fill="#131E33"/>
    <path d="M38.3258 168.983H32.9154V174.377H38.3258V168.983Z" fill="#131E33"/>
    <path d="M38.4825 163.432H32.8368V169.061H38.4825V163.432Z" fill="#131E33"/>
    <path d="M38.3258 163.51H32.9154V168.982H38.3258V163.51Z" fill="#131E33"/>
    <path d="M38.4825 158.037H32.8368V163.666H38.4825V158.037Z" fill="#131E33"/>
    <path d="M38.3258 158.115H32.9154V163.588H38.3258V158.115Z" fill="#131E33"/>
    <path d="M38.4825 152.564H32.8368V158.193H38.4825V152.564Z" fill="#131E33"/>
    <path d="M38.3258 152.642H32.9154V158.115H38.3258V152.642Z" fill="#131E33"/>
    <path d="M38.4825 147.17H32.8368V152.799H38.4825V147.17Z" fill="#131E33"/>
    <path d="M38.3258 147.248H32.9154V152.642H38.3258V147.248Z" fill="#131E33"/>
    <path d="M38.4825 141.697H32.8368V147.326H38.4825V141.697Z" fill="#131E33"/>
    <path d="M38.3258 141.775H32.9154V147.248H38.3258V141.775Z" fill="#131E33"/>
    <path d="M38.4825 136.224H32.8368V141.853H38.4825V136.224Z" fill="#243454"/>
    <path d="M38.3258 136.302H32.9154V141.775H38.3258V136.302Z" fill="#243454"/>
    <path d="M38.4825 130.83H32.8368V136.459H38.4825V130.83Z" fill="#243454"/>
    <path d="M38.3258 130.908H32.9154V136.381H38.3258V130.908Z" fill="#243454"/>
    <path d="M38.4825 125.357H32.8368V130.986H38.4825V125.357Z" fill="#243454"/>
    <path d="M38.3258 125.435H32.9154V130.829H38.3258V125.435Z" fill="#243454"/>
    <path d="M38.4825 119.962H32.8368V125.592H38.4825V119.962Z" fill="#0A0F1A"/>
    <path d="M38.3258 120.04H32.9154V125.513H38.3258V120.04Z" fill="#0A0F1A"/>
    <path d="M38.4825 114.489H32.8368V120.118H38.4825V114.489Z" fill="#243454"/>
    <path d="M38.3258 114.568H32.9154V120.041H38.3258V114.568Z" fill="#243454"/>
    <path d="M38.4825 109.095H32.8368V114.724H38.4825V109.095Z" fill="#243454"/>
    <path d="M38.3258 109.173H32.9154V114.646H38.3258V109.173Z" fill="#243454"/>
    <path d="M38.4825 103.622H32.8368V109.251H38.4825V103.622Z" fill="#243454"/>
    <path d="M38.3258 103.7H32.9154V109.095H38.3258V103.7Z" fill="#243454"/>
    <path d="M38.4825 98.2274H32.8368V103.857H38.4825V98.2274Z" fill="#243454"/>
    <path d="M38.3258 98.3055H32.9154V103.778H38.3258V98.3055Z" fill="#243454"/>
    <path d="M38.4825 92.7549H32.8368V98.384H38.4825V92.7549Z" fill="#243454"/>
    <path d="M38.3258 92.8331H32.9154V98.3059H38.3258V92.8331Z" fill="#243454"/>
    <path d="M38.4825 87.3601H32.8368V92.9892H38.4825V87.3601Z" fill="#243454"/>
    <path d="M38.3258 87.4385H32.9154V92.9112H38.3258V87.4385Z" fill="#243454"/>
    <path d="M38.4825 81.8876H32.8368V87.5167H38.4825V81.8876Z" fill="#243454"/>
    <path d="M38.3258 81.9656H32.9154V87.3601H38.3258V81.9656Z" fill="#243454"/>
    <path d="M38.4825 76.4146H32.8368V82.0437H38.4825V76.4146Z" fill="#374F80"/>
    <path d="M38.3258 76.5712H32.9154V82.0439H38.3258V76.5712Z" fill="#374F80"/>
    <path d="M38.4825 71.02H32.8368V76.6492H38.4825V71.02Z" fill="white"/>
    <path d="M38.3258 71.0981H32.9154V76.5709H38.3258V71.0981Z" fill="white"/>
    <path d="M38.4825 65.5476H32.8368V71.1767H38.4825V65.5476Z" fill="white"/>
    <path d="M38.3258 65.6257H32.9154V71.0985H38.3258V65.6257Z" fill="white"/>
    <path d="M38.4825 60.1528H32.8368V65.7819H38.4825V60.1528Z" fill="#790E37"/>
    <path d="M38.4825 54.6802H32.8368V60.3093H38.4825V54.6802Z" fill="#FFE4CE"/>
    <path d="M38.3258 54.7583H32.9154V60.2311H38.3258V54.7583Z" fill="#FFE4CE"/>
    <path d="M38.4825 49.2853H32.8368V54.9144H38.4825V49.2853Z" fill="#FFE4CE"/>
    <path d="M38.3258 49.3634H32.9154V54.8362H38.3258V49.3634Z" fill="#FFE4CE"/>
    <path d="M38.4825 43.8127H32.8368V49.4419H38.4825V43.8127Z" fill="#F57E77"/>
    <path d="M38.3258 43.891H32.9154V49.2856H38.3258V43.891Z" fill="#F57E77"/>
    <path d="M38.4825 38.4181H32.8368V44.0472H38.4825V38.4181Z" fill="#FFE4CE"/>
    <path d="M38.3258 38.4965H32.9154V43.9692H38.3258V38.4965Z" fill="#FFE4CE"/>
    <path d="M38.4825 32.9454H32.8368V38.5746H38.4825V32.9454Z" fill="#FFE4CE"/>
    <path d="M38.3258 33.0234H32.9154V38.4962H38.3258V33.0234Z" fill="#FFE4CE"/>
    <path d="M38.4825 27.5505H32.8368V33.1797H38.4825V27.5505Z" fill="#FFE4CE"/>
    <path d="M38.3258 27.629H32.9154V33.1018H38.3258V27.629Z" fill="#FFE4CE"/>
    <path d="M38.4825 22.078H32.8368V27.7071H38.4825V22.078Z" fill="#66667C"/>
    <path d="M38.3258 22.1561H32.9154V27.5507H38.3258V22.1561Z" fill="#66667C"/>
    <path d="M38.4825 16.6835H32.8368V22.3126H38.4825V16.6835Z" fill="#FFE4CE"/>
    <path d="M38.3258 16.7617H32.9154V22.2345H38.3258V16.7617Z" fill="#FFE4CE"/>
    <path d="M38.4825 11.2107H32.8368V16.8398H38.4825V11.2107Z" fill="#3D041F"/>
    <path d="M38.3258 11.2888H32.9154V16.7616H38.3258V11.2888Z" fill="#3D041F"/>
    <path d="M38.4825 5.73804H32.8368V11.3672H38.4825V5.73804Z" fill="#621931"/>
    <path d="M38.3258 5.81616H32.9154V11.2889H38.3258V5.81616Z" fill="#621931"/>
    <path d="M38.4825 0.343262H32.8368V5.97237H38.4825V0.343262Z" fill="#621931"/>
    <path d="M38.3258 0.421631H32.9154V5.8162H38.3258V0.421631Z" fill="#621931"/>
    <path d="M33.0721 234.108H27.4264V239.737H33.0721V234.108Z" fill="#0A0F1A"/>
    <path d="M32.9938 234.186H27.505V239.659H32.9938V234.186Z" fill="#0A0F1A"/>
    <path d="M33.0721 228.714H27.4264V234.343H33.0721V228.714Z" fill="#111724"/>
    <path d="M32.9938 228.792H27.505V234.187H32.9938V228.792Z" fill="#111724"/>
    <path d="M33.0721 223.241H27.4264V228.87H33.0721V223.241Z" fill="#111724"/>
    <path d="M32.9938 223.319H27.505V228.792H32.9938V223.319Z" fill="#111724"/>
    <path d="M33.0721 217.846H27.4264V223.476H33.0721V217.846Z" fill="#111724"/>
    <path d="M32.9938 217.925H27.505V223.397H32.9938V217.925Z" fill="#111724"/>
    <path d="M33.0721 212.374H27.4264V218.003H33.0721V212.374Z" fill="#243454"/>
    <path d="M32.9938 212.452H27.505V217.925H32.9938V212.452Z" fill="#243454"/>
    <path d="M33.0721 206.979H27.4264V212.608H33.0721V206.979Z" fill="#243454"/>
    <path d="M32.9938 207.057H27.505V212.452H32.9938V207.057Z" fill="#243454"/>
    <path d="M33.0721 201.507H27.4264V207.136H33.0721V201.507Z" fill="#243454"/>
    <path d="M32.9938 201.585H27.505V207.057H32.9938V201.585Z" fill="#243454"/>
    <path d="M33.0721 196.034H27.4264V201.663H33.0721V196.034Z" fill="#243454"/>
    <path d="M32.9938 196.112H27.505V201.584H32.9938V196.112Z" fill="#243454"/>
    <path d="M33.0721 190.639H27.4264V196.268H33.0721V190.639Z" fill="#243454"/>
    <path d="M32.9938 190.717H27.505V196.19H32.9938V190.717Z" fill="#243454"/>
    <path d="M33.0721 185.166H27.4264V190.795H33.0721V185.166Z" fill="#243454"/>
    <path d="M32.9938 185.244H27.505V190.639H32.9938V185.244Z" fill="#243454"/>
    <path d="M33.0721 179.772H27.4264V185.401H33.0721V179.772Z" fill="#243454"/>
    <path d="M32.9938 179.85H27.505V185.322H32.9938V179.85Z" fill="#243454"/>
    <path d="M33.0721 174.299H27.4264V179.928H33.0721V174.299Z" fill="#243454"/>
    <path d="M32.9938 174.377H27.505V179.85H32.9938V174.377Z" fill="#243454"/>
    <path d="M33.0721 168.904H27.4264V174.534H33.0721V168.904Z" fill="#243454"/>
    <path d="M32.9938 168.983H27.505V174.377H32.9938V168.983Z" fill="#243454"/>
    <path d="M33.0721 163.432H27.4264V169.061H33.0721V163.432Z" fill="#243454"/>
    <path d="M32.9938 163.51H27.505V168.982H32.9938V163.51Z" fill="#243454"/>
    <path d="M33.0721 158.037H27.4264V163.666H33.0721V158.037Z" fill="#243454"/>
    <path d="M32.9938 158.115H27.505V163.588H32.9938V158.115Z" fill="#243454"/>
    <path d="M33.0721 152.564H27.4264V158.193H33.0721V152.564Z" fill="#243454"/>
    <path d="M32.9938 152.642H27.505V158.115H32.9938V152.642Z" fill="#243454"/>
    <path d="M33.0721 147.17H27.4264V152.799H33.0721V147.17Z" fill="#243454"/>
    <path d="M32.9938 147.248H27.505V152.642H32.9938V147.248Z" fill="#243454"/>
    <path d="M33.0721 141.697H27.4264V147.326H33.0721V141.697Z" fill="#243454"/>
    <path d="M32.9938 141.775H27.505V147.248H32.9938V141.775Z" fill="#243454"/>
    <path d="M33.0721 136.224H27.4264V141.853H33.0721V136.224Z" fill="#243454"/>
    <path d="M32.9938 136.302H27.505V141.775H32.9938V136.302Z" fill="#243454"/>
    <path d="M33.0721 130.83H27.4264V136.459H33.0721V130.83Z" fill="#243454"/>
    <path d="M32.9938 130.908H27.505V136.381H32.9938V130.908Z" fill="#243454"/>
    <path d="M33.0721 125.357H27.4264V130.986H33.0721V125.357Z" fill="#243454"/>
    <path d="M32.9938 125.435H27.505V130.829H32.9938V125.435Z" fill="#243454"/>
    <path d="M33.0721 119.962H27.4264V125.592H33.0721V119.962Z" fill="#0A0F1A"/>
    <path d="M32.9938 120.04H27.505V125.513H32.9938V120.04Z" fill="#0A0F1A"/>
    <path d="M33.0721 114.489H27.4264V120.118H33.0721V114.489Z" fill="#243454"/>
    <path d="M32.9938 114.568H27.505V120.041H32.9938V114.568Z" fill="#243454"/>
    <path d="M33.0721 109.095H27.4264V114.724H33.0721V109.095Z" fill="#243454"/>
    <path d="M32.9938 109.173H27.505V114.646H32.9938V109.173Z" fill="#243454"/>
    <path d="M33.0721 103.622H27.4264V109.251H33.0721V103.622Z" fill="#243454"/>
    <path d="M32.9938 103.7H27.505V109.095H32.9938V103.7Z" fill="#243454"/>
    <path d="M33.0721 98.2274H27.4264V103.857H33.0721V98.2274Z" fill="#243454"/>
    <path d="M32.9938 98.3055H27.505V103.778H32.9938V98.3055Z" fill="#243454"/>
    <path d="M33.0721 92.7549H27.4264V98.384H33.0721V92.7549Z" fill="#243454"/>
    <path d="M32.9938 92.8331H27.505V98.3059H32.9938V92.8331Z" fill="#243454"/>
    <path d="M33.0721 87.3601H27.4264V92.9892H33.0721V87.3601Z" fill="#243454"/>
    <path d="M32.9938 87.4385H27.505V92.9112H32.9938V87.4385Z" fill="#243454"/>
    <path d="M33.0721 81.8876H27.4264V87.5167H33.0721V81.8876Z" fill="#243454"/>
    <path d="M32.9938 81.9656H27.505V87.3601H32.9938V81.9656Z" fill="#243454"/>
    <path d="M33.0721 76.4146H27.4264V82.0437H33.0721V76.4146Z" fill="#243454"/>
    <path d="M32.9938 76.5712H27.505V82.0439H32.9938V76.5712Z" fill="#243454"/>
    <path d="M33.0721 71.02H27.4264V76.6492H33.0721V71.02Z" fill="#374F80"/>
    <path d="M32.9938 71.0981H27.505V76.5709H32.9938V71.0981Z" fill="#374F80"/>
    <path d="M33.0721 65.5476H27.4264V71.1767H33.0721V65.5476Z" fill="#374F80"/>
    <path d="M32.9938 65.6257H27.505V71.0985H32.9938V65.6257Z" fill="#374F80"/>
    <path d="M33.0721 60.1528H27.4264V65.7819H33.0721V60.1528Z" fill="white"/>
    <path d="M32.9938 60.231H27.505V65.6255H32.9938V60.231Z" fill="white"/>
    <path d="M33.0721 54.6802H27.4264V60.3093H33.0721V54.6802Z" fill="#790E37"/>
    <path d="M43.8928 76.5712H38.4039V82.0439H43.8928V76.5712Z" fill="#E4352F"/>
    <path d="M43.8928 71.098H38.4039V76.5708H43.8928V71.098Z" fill="#E4352F"/>
    <path d="M43.8928 65.6256H38.4039V71.0984H43.8928V65.6256Z" fill="#E4352F"/>
    <path d="M43.8928 60.231H38.4039V65.6255H43.8928V60.231Z" fill="#E4352F"/>
    <path d="M38.3258 60.231H32.9154V65.6255H38.3258V60.231Z" fill="#A3221D"/>
    <path d="M32.9938 54.7583H27.505V60.2311H32.9938V54.7583Z" fill="#A3221D"/>
    <path d="M33.0721 49.2853H27.4264V54.9144H33.0721V49.2853Z" fill="white"/>
    <path d="M32.9938 49.3634H27.505V54.8362H32.9938V49.3634Z" fill="white"/>
    <path d="M33.0721 38.4181H27.4264V44.0472H33.0721V38.4181Z" fill="#FFE4CE"/>
    <path d="M32.9938 38.4965H27.505V43.9692H32.9938V38.4965Z" fill="#FFE4CE"/>
    <path d="M33.0721 32.9454H27.4264V38.5746H33.0721V32.9454Z" fill="#FFE4CE"/>
    <path d="M32.9938 33.0234H27.505V38.4962H32.9938V33.0234Z" fill="#FFE4CE"/>
    <path d="M33.0721 27.5505H27.4264V33.1797H33.0721V27.5505Z" fill="#FFE4CE"/>
    <path d="M32.9938 27.629H27.505V33.1018H32.9938V27.629Z" fill="#FFE4CE"/>
    <path d="M33.0721 22.078H27.4264V27.7071H33.0721V22.078Z" fill="#FFE4CE"/>
    <path d="M32.9938 22.1561H27.505V27.5507H32.9938V22.1561Z" fill="#FFE4CE"/>
    <path d="M33.0721 16.6835H27.4264V22.3126H33.0721V16.6835Z" fill="#FFE4CE"/>
    <path d="M32.9938 16.7617H27.505V22.2345H32.9938V16.7617Z" fill="#FFE4CE"/>
    <path d="M33.0721 11.2107H27.4264V16.8398H33.0721V11.2107Z" fill="#3D041F"/>
    <path d="M32.9938 11.2888H27.505V16.7616H32.9938V11.2888Z" fill="#3D041F"/>
    <path d="M33.0721 5.73804H27.4264V11.3672H33.0721V5.73804Z" fill="#621931"/>
    <path d="M32.9938 5.81616H27.505V11.2889H32.9938V5.81616Z" fill="#621931"/>
    <path d="M33.0721 0.343262H27.4264V5.97237H33.0721V0.343262Z" fill="#621931"/>
    <path d="M32.9938 0.421631H27.505V5.8162H32.9938V0.421631Z" fill="#621931"/>
    <path d="M27.5835 234.108H21.9379V239.737H27.5835V234.108Z" fill="#0A0F1A"/>
    <path d="M27.5056 234.186H22.0167V239.659H27.5056V234.186Z" fill="#0A0F1A"/>
    <path d="M27.5835 228.714H21.9379V234.343H27.5835V228.714Z" fill="#111724"/>
    <path d="M27.5056 228.792H22.0167V234.187H27.5056V228.792Z" fill="#111724"/>
    <path d="M27.5835 223.241H21.9379V228.87H27.5835V223.241Z" fill="#111724"/>
    <path d="M27.5056 223.319H22.0167V228.792H27.5056V223.319Z" fill="#111724"/>
    <path d="M27.5835 217.846H21.9379V223.476H27.5835V217.846Z" fill="#75184B"/>
    <path d="M27.5056 217.925H22.0167V223.397H27.5056V217.925Z" fill="#111724"/>
    <path d="M27.5835 212.374H21.9379V218.003H27.5835V212.374Z" fill="#243454"/>
    <path d="M27.5056 212.452H22.0167V217.925H27.5056V212.452Z" fill="#243454"/>
    <path d="M27.5835 206.979H21.9379V212.608H27.5835V206.979Z" fill="#243454"/>
    <path d="M27.5056 207.057H22.0167V212.452H27.5056V207.057Z" fill="#243454"/>
    <path d="M27.5835 201.507H21.9379V207.136H27.5835V201.507Z" fill="#243454"/>
    <path d="M27.5056 201.585H22.0167V207.057H27.5056V201.585Z" fill="#243454"/>
    <path d="M27.5835 196.034H21.9379V201.663H27.5835V196.034Z" fill="#243454"/>
    <path d="M27.5056 196.112H22.0167V201.584H27.5056V196.112Z" fill="#243454"/>
    <path d="M27.5835 190.639H21.9379V196.268H27.5835V190.639Z" fill="#243454"/>
    <path d="M27.5056 190.717H22.0167V196.19H27.5056V190.717Z" fill="#243454"/>
    <path d="M27.5835 185.166H21.9379V190.795H27.5835V185.166Z" fill="#243454"/>
    <path d="M27.5056 185.244H22.0167V190.639H27.5056V185.244Z" fill="#243454"/>
    <path d="M27.5835 179.772H21.9379V185.401H27.5835V179.772Z" fill="#243454"/>
    <path d="M27.5056 179.85H22.0167V185.322H27.5056V179.85Z" fill="#243454"/>
    <path d="M27.5835 174.299H21.9379V179.928H27.5835V174.299Z" fill="#243454"/>
    <path d="M27.5056 174.377H22.0167V179.85H27.5056V174.377Z" fill="#243454"/>
    <path d="M27.5835 168.904H21.9379V174.534H27.5835V168.904Z" fill="#243454"/>
    <path d="M27.5056 168.983H22.0167V174.377H27.5056V168.983Z" fill="#243454"/>
    <path d="M27.5835 163.432H21.9379V169.061H27.5835V163.432Z" fill="#243454"/>
    <path d="M27.5056 163.51H22.0167V168.982H27.5056V163.51Z" fill="#243454"/>
    <path d="M27.5835 158.037H21.9379V163.666H27.5835V158.037Z" fill="#243454"/>
    <path d="M27.5056 158.115H22.0167V163.588H27.5056V158.115Z" fill="#243454"/>
    <path d="M27.5835 152.564H21.9379V158.193H27.5835V152.564Z" fill="#243454"/>
    <path d="M27.5056 152.642H22.0167V158.115H27.5056V152.642Z" fill="#243454"/>
    <path d="M27.5835 147.17H21.9379V152.799H27.5835V147.17Z" fill="#243454"/>
    <path d="M27.5056 147.248H22.0167V152.642H27.5056V147.248Z" fill="#243454"/>
    <path d="M27.5835 141.697H21.9379V147.326H27.5835V141.697Z" fill="#243454"/>
    <path d="M27.5056 141.775H22.0167V147.248H27.5056V141.775Z" fill="#243454"/>
    <path d="M27.5835 136.224H21.9379V141.853H27.5835V136.224Z" fill="#243454"/>
    <path d="M27.5056 136.302H22.0167V141.775H27.5056V136.302Z" fill="#243454"/>
    <path d="M27.5835 130.83H21.9379V136.459H27.5835V130.83Z" fill="#243454"/>
    <path d="M27.5056 130.908H22.0167V136.381H27.5056V130.908Z" fill="#243454"/>
    <path d="M27.5835 125.357H21.9379V130.986H27.5835V125.357Z" fill="#131E33"/>
    <path d="M27.5056 125.435H22.0167V130.829H27.5056V125.435Z" fill="#131E33"/>
    <path d="M27.5835 119.962H21.9379V125.592H27.5835V119.962Z" fill="#0A0F1A"/>
    <path d="M27.5056 120.04H22.0167V125.513H27.5056V120.04Z" fill="#0A0F1A"/>
    <path d="M27.5835 114.489H21.9379V120.118H27.5835V114.489Z" fill="#131E33"/>
    <path d="M27.5056 114.568H22.0167V120.041H27.5056V114.568Z" fill="#131E33"/>
    <path d="M27.5835 109.095H21.9379V114.724H27.5835V109.095Z" fill="#131E33"/>
    <path d="M27.5056 109.173H22.0167V114.646H27.5056V109.173Z" fill="#131E33"/>
    <path d="M27.5835 103.622H21.9379V109.251H27.5835V103.622Z" fill="#131E33"/>
    <path d="M27.5056 103.7H22.0167V109.095H27.5056V103.7Z" fill="#131E33"/>
    <path d="M27.5835 98.2274H21.9379V103.857H27.5835V98.2274Z" fill="#131E33"/>
    <path d="M27.5056 98.3055H22.0167V103.778H27.5056V98.3055Z" fill="#131E33"/>
    <path d="M27.5835 92.7549H21.9379V98.384H27.5835V92.7549Z" fill="#131E33"/>
    <path d="M27.5056 92.8331H22.0167V98.3059H27.5056V92.8331Z" fill="#131E33"/>
    <path d="M27.5835 87.3601H21.9379V92.9892H27.5835V87.3601Z" fill="#131E33"/>
    <path d="M27.5056 87.4385H22.0167V92.9112H27.5056V87.4385Z" fill="#131E33"/>
    <path d="M27.5835 81.8876H21.9379V87.5167H27.5835V81.8876Z" fill="#131E33"/>
    <path d="M27.5056 81.9656H22.0167V87.3601H27.5056V81.9656Z" fill="#131E33"/>
    <path d="M27.5835 76.4146H21.9379V82.0437H27.5835V76.4146Z" fill="#131E33"/>
    <path d="M27.5056 76.5712H22.0167V82.0439H27.5056V76.5712Z" fill="#131E33"/>
    <path d="M27.5835 71.02H21.9379V76.6492H27.5835V71.02Z" fill="#243454"/>
    <path d="M27.5056 71.0981H22.0167V76.5709H27.5056V71.0981Z" fill="#243454"/>
    <path d="M27.5835 65.5476H21.9379V71.1767H27.5835V65.5476Z" fill="#243454"/>
    <path d="M27.5056 65.6257H22.0167V71.0985H27.5056V65.6257Z" fill="#243454"/>
    <path d="M27.5835 60.1528H21.9379V65.7819H27.5835V60.1528Z" fill="#374F80"/>
    <path d="M27.5056 60.231H22.0167V65.6255H27.5056V60.231Z" fill="#374F80"/>
    <path d="M27.5835 54.6802H21.9379V60.3093H27.5835V54.6802Z" fill="#374F80"/>
    <path d="M27.5056 54.7583H22.0167V60.2311H27.5056V54.7583Z" fill="#374F80"/>
    <path d="M27.5835 32.9454H21.9379V38.5746H27.5835V32.9454Z" fill="#F57E77"/>
    <path d="M27.5056 33.0234H22.0167V38.4962H27.5056V33.0234Z" fill="#F57E77"/>
    <path d="M27.5835 27.5505H21.9379V33.1797H27.5835V27.5505Z" fill="#FFE4CE"/>
    <path d="M27.5056 27.629H22.0167V33.1018H27.5056V27.629Z" fill="#FFE4CE"/>
    <path d="M27.5835 22.078H21.9379V27.7071H27.5835V22.078Z" fill="#3D041F"/>
    <path d="M27.5056 22.1561H22.0167V27.5507H27.5056V22.1561Z" fill="#3D041F"/>
    <path d="M27.5835 16.6835H21.9379V22.3126H27.5835V16.6835Z" fill="#3D041F"/>
    <path d="M27.5056 16.7617H22.0167V22.2345H27.5056V16.7617Z" fill="#3D041F"/>
    <path d="M27.5835 11.2107H21.9379V16.8398H27.5835V11.2107Z" fill="#621931"/>
    <path d="M27.5056 11.2888H22.0167V16.7616H27.5056V11.2888Z" fill="#621931"/>
    <path d="M27.5835 5.73804H21.9379V11.3672H27.5835V5.73804Z" fill="#621931"/>
    <path d="M27.5056 5.81616H22.0167V11.2889H27.5056V5.81616Z" fill="#621931"/>
    <path d="M22.1729 234.108H16.5272V239.737H22.1729V234.108Z" fill="#0A0F1A"/>
    <path d="M22.0948 234.186H16.606V239.659H22.0948V234.186Z" fill="#0A0F1A"/>
    <path d="M22.1729 228.714H16.5272V234.343H22.1729V228.714Z" fill="#111724"/>
    <path d="M22.0948 228.792H16.606V234.187H22.0948V228.792Z" fill="#111724"/>
    <path d="M22.1729 223.241H16.5272V228.87H22.1729V223.241Z" fill="#111724"/>
    <path d="M22.0948 223.319H16.606V228.792H22.0948V223.319Z" fill="#111724"/>
    <path d="M22.1729 71.02H16.5272V76.6492H22.1729V71.02Z" fill="#131E33"/>
    <path d="M22.0948 71.0981H16.606V76.5709H22.0948V71.0981Z" fill="#131E33"/>
    <path d="M22.1729 65.5476H16.5272V71.1767H22.1729V65.5476Z" fill="#243454"/>
    <path d="M22.0948 65.6257H16.606V71.0985H22.0948V65.6257Z" fill="#243454"/>
    <path d="M22.1729 60.1528H16.5272V65.7819H22.1729V60.1528Z" fill="#243454"/>
    <path d="M22.0948 60.231H16.606V65.6255H22.0948V60.231Z" fill="#243454"/>
    <path d="M22.1729 54.6802H16.5272V60.3093H22.1729V54.6802Z" fill="#243454"/>
    <path d="M22.0948 54.7583H16.606V60.2311H22.0948V54.7583Z" fill="#243454"/>
    <path d="M22.1729 27.5505H16.5272V33.1797H22.1729V27.5505Z" fill="#F57E77"/>
    <path d="M22.0948 27.629H16.606V33.1018H22.0948V27.629Z" fill="#F57E77"/>
    <path d="M22.1729 22.078H16.5272V27.7071H22.1729V22.078Z" fill="#FFE4CE"/>
    <path d="M22.0948 22.1561H16.606V27.5507H22.0948V22.1561Z" fill="#FFE4CE"/>
    <path d="M22.1729 16.6835H16.5272V22.3126H22.1729V16.6835Z" fill="#3D041F"/>
    <path d="M22.0948 16.7617H16.606V22.2345H22.0948V16.7617Z" fill="#3D041F"/>
    <path d="M16.6845 234.108H11.0388V239.737H16.6845V234.108Z" fill="#0A0F1A"/>
    <path d="M16.5271 234.186H11.1167V239.659H16.5271V234.186Z" fill="#0A0F1A"/>
    <path d="M16.6845 228.714H11.0388V234.343H16.6845V228.714Z" fill="#111724"/>
    <path d="M16.5271 228.792H11.1167V234.187H16.5271V228.792Z" fill="#111724"/>
    <path d="M16.6845 223.241H11.0388V228.87H16.6845V223.241Z" fill="#111724"/>
    <path d="M16.5271 223.319H11.1167V228.792H16.5271V223.319Z" fill="#111724"/>
    <path d="M16.6845 141.697H11.0388V147.326H16.6845V141.697Z" fill="#FFE4CE"/>
    <path d="M16.5271 141.775H11.1167V147.248H16.5271V141.775Z" fill="#FFE4CE"/>
    <path d="M16.6845 136.224H11.0388V141.853H16.6845V136.224Z" fill="#F57E77"/>
    <path d="M16.5271 136.302H11.1167V141.775H16.5271V136.302Z" fill="#F57E77"/>
    <path d="M16.6845 119.962H11.0388V125.592H16.6845V119.962Z" fill="#131E33"/>
    <path d="M16.5271 120.04H11.1167V125.513H16.5271V120.04Z" fill="#131E33"/>
    <path d="M16.6845 114.489H11.0388V120.118H16.6845V114.489Z" fill="#131E33"/>
    <path d="M16.5271 114.568H11.1167V120.041H16.5271V114.568Z" fill="#131E33"/>
    <path d="M16.6845 109.095H11.0388V114.724H16.6845V109.095Z" fill="#131E33"/>
    <path d="M16.5271 109.173H11.1167V114.646H16.5271V109.173Z" fill="#131E33"/>
    <path d="M16.6845 103.622H11.0388V109.251H16.6845V103.622Z" fill="#131E33"/>
    <path d="M16.5271 103.7H11.1167V109.095H16.5271V103.7Z" fill="#131E33"/>
    <path d="M16.6845 98.2274H11.0388V103.857H16.6845V98.2274Z" fill="#131E33"/>
    <path d="M16.5271 98.3055H11.1167V103.778H16.5271V98.3055Z" fill="#131E33"/>
    <path d="M16.6845 92.7549H11.0388V98.384H16.6845V92.7549Z" fill="#131E33"/>
    <path d="M16.5271 92.8331H11.1167V98.3059H16.5271V92.8331Z" fill="#131E33"/>
    <path d="M16.6845 87.3601H11.0388V92.9892H16.6845V87.3601Z" fill="#131E33"/>
    <path d="M16.5271 87.4385H11.1167V92.9112H16.5271V87.4385Z" fill="#131E33"/>
    <path d="M16.6845 81.8876H11.0388V87.5167H16.6845V81.8876Z" fill="#131E33"/>
    <path d="M16.5271 81.9656H11.1167V87.3601H16.5271V81.9656Z" fill="#131E33"/>
    <path d="M16.6845 76.4146H11.0388V82.0437H16.6845V76.4146Z" fill="#131E33"/>
    <path d="M16.5271 76.5712H11.1167V82.0439H16.5271V76.5712Z" fill="#131E33"/>
    <path d="M16.6845 71.02H11.0388V76.6492H16.6845V71.02Z" fill="#243454"/>
    <path d="M16.5271 71.0981H11.1167V76.5709H16.5271V71.0981Z" fill="#243454"/>
    <path d="M16.6845 65.5476H11.0388V71.1767H16.6845V65.5476Z" fill="#243454"/>
    <path d="M16.5271 65.6257H11.1167V71.0985H16.5271V65.6257Z" fill="#243454"/>
    <path d="M16.6845 60.1528H11.0388V65.7819H16.6845V60.1528Z" fill="#243454"/>
    <path d="M16.5271 60.231H11.1167V65.6255H16.5271V60.231Z" fill="#243454"/>
    <path d="M11.2741 234.108H5.62842V239.737H11.2741V234.108Z" fill="#0A0F1A"/>
    <path d="M11.1951 234.186H5.7063V239.659H11.1951V234.186Z" fill="#0A0F1A"/>
    <path d="M11.2741 228.714H5.62842V234.343H11.2741V228.714Z" fill="#111724"/>
    <path d="M11.1951 228.792H5.7063V234.187H11.1951V228.792Z" fill="#111724"/>
    <path d="M11.2741 147.17H5.62842V152.799H11.2741V147.17Z" fill="#FFE4CE"/>
    <path d="M11.1951 147.248H5.7063V152.642H11.1951V147.248Z" fill="#FFE4CE"/>
    <path d="M11.2741 141.697H5.62842V147.326H11.2741V141.697Z" fill="#FFE4CE"/>
    <path d="M11.1951 141.775H5.7063V147.248H11.1951V141.775Z" fill="#FFE4CE"/>
    <path d="M11.2741 136.224H5.62842V141.853H11.2741V136.224Z" fill="#FFE4CE"/>
    <path d="M11.1951 136.302H5.7063V141.775H11.1951V136.302Z" fill="#FFE4CE"/>
    <path d="M11.2741 130.83H5.62842V136.459H11.2741V130.83Z" fill="#F57E77"/>
    <path d="M11.1951 130.908H5.7063V136.381H11.1951V130.908Z" fill="#F57E77"/>
    <path d="M11.2741 125.357H5.62842V130.986H11.2741V125.357Z" fill="#877A86"/>
    <path d="M11.1951 125.435H5.7063V130.829H11.1951V125.435Z" fill="#877A86"/>
    <path d="M11.2741 119.962H5.62842V125.592H11.2741V119.962Z" fill="#243454"/>
    <path d="M11.1951 120.04H5.7063V125.513H11.1951V120.04Z" fill="#243454"/>
    <path d="M11.2741 114.489H5.62842V120.118H11.2741V114.489Z" fill="#243454"/>
    <path d="M11.1951 114.568H5.7063V120.041H11.1951V114.568Z" fill="#243454"/>
    <path d="M11.2741 109.095H5.62842V114.724H11.2741V109.095Z" fill="#243454"/>
    <path d="M11.1951 109.173H5.7063V114.646H11.1951V109.173Z" fill="#243454"/>
    <path d="M11.2741 103.622H5.62842V109.251H11.2741V103.622Z" fill="#243454"/>
    <path d="M11.1951 103.7H5.7063V109.095H11.1951V103.7Z" fill="#243454"/>
    <path d="M11.2741 98.2274H5.62842V103.857H11.2741V98.2274Z" fill="#243454"/>
    <path d="M11.1951 98.3055H5.7063V103.778H11.1951V98.3055Z" fill="#243454"/>
    <path d="M11.2741 92.7549H5.62842V98.384H11.2741V92.7549Z" fill="#243454"/>
    <path d="M11.1951 92.8331H5.7063V98.3059H11.1951V92.8331Z" fill="#243454"/>
    <path d="M11.2741 87.3601H5.62842V92.9892H11.2741V87.3601Z" fill="#243454"/>
    <path d="M11.1951 87.4385H5.7063V92.9112H11.1951V87.4385Z" fill="#243454"/>
    <path d="M11.2741 81.8876H5.62842V87.5167H11.2741V81.8876Z" fill="#243454"/>
    <path d="M11.1951 81.9656H5.7063V87.3601H11.1951V81.9656Z" fill="#243454"/>
    <path d="M11.2741 76.4146H5.62842V82.0437H11.2741V76.4146Z" fill="#243454"/>
    <path d="M11.1951 76.5712H5.7063V82.0439H11.1951V76.5712Z" fill="#243454"/>
    <path d="M11.2741 71.02H5.62842V76.6492H11.2741V71.02Z" fill="#243454"/>
    <path d="M11.1951 71.0981H5.7063V76.5709H11.1951V71.0981Z" fill="#243454"/>
    <path d="M11.2741 65.5476H5.62842V71.1767H11.2741V65.5476Z" fill="#243454"/>
    <path d="M11.1951 65.6257H5.7063V71.0985H11.1951V65.6257Z" fill="#243454"/>
    <path d="M11.2741 60.1528H5.62842V65.7819H11.2741V60.1528Z" fill="#243454"/>
    <path d="M11.1951 60.231H5.7063V65.6255H11.1951V60.231Z" fill="#243454"/>
    <path d="M5.78483 234.108H0.13916V239.737H5.78483V234.108Z" fill="#0A0F1A"/>
    <path d="M5.70674 234.186H0.217896V239.659H5.70674V234.186Z" fill="#0A0F1A"/>
    <path d="M5.78483 147.17H0.13916V152.799H5.78483V147.17Z" fill="#FFE4CE"/>
    <path d="M5.70674 147.248H0.217896V152.642H5.70674V147.248Z" fill="#FFE4CE"/>
    <path d="M5.78483 141.697H0.13916V147.326H5.78483V141.697Z" fill="#FFE4CE"/>
    <path d="M5.70674 141.775H0.217896V147.248H5.70674V141.775Z" fill="#FFE4CE"/>
    <path d="M5.78483 136.224H0.13916V141.853H5.78483V136.224Z" fill="#FFE4CE"/>
    <path d="M5.70674 136.302H0.217896V141.775H5.70674V136.302Z" fill="#FFE4CE"/>
    <path d="M5.78483 130.83H0.13916V136.459H5.78483V130.83Z" fill="#FFE4CE"/>
    <path d="M5.70674 130.908H0.217896V136.381H5.70674V130.908Z" fill="#FFE4CE"/>
    <path d="M5.78483 125.357H0.13916V130.986H5.78483V125.357Z" fill="white"/>
    <path d="M5.70674 125.435H0.217896V130.829H5.70674V125.435Z" fill="white"/>
    <path d="M5.78483 119.962H0.13916V125.592H5.78483V119.962Z" fill="#243454"/>
    <path d="M5.70674 120.04H0.217896V125.513H5.70674V120.04Z" fill="#243454"/>
    <path d="M5.78483 114.489H0.13916V120.118H5.78483V114.489Z" fill="#243454"/>
    <path d="M5.70674 114.568H0.217896V120.041H5.70674V114.568Z" fill="#243454"/>
    <path d="M5.78483 109.095H0.13916V114.724H5.78483V109.095Z" fill="#243454"/>
    <path d="M5.70674 109.173H0.217896V114.646H5.70674V109.173Z" fill="#243454"/>
    <path d="M5.78483 103.622H0.13916V109.251H5.78483V103.622Z" fill="#243454"/>
    <path d="M5.70674 103.7H0.217896V109.095H5.70674V103.7Z" fill="#243454"/>
    <path d="M5.78483 98.2274H0.13916V103.857H5.78483V98.2274Z" fill="#243454"/>
    <path d="M5.70674 98.3055H0.217896V103.778H5.70674V98.3055Z" fill="#243454"/>
    <path d="M5.78483 92.7549H0.13916V98.384H5.78483V92.7549Z" fill="#243454"/>
    <path d="M5.70674 92.8331H0.217896V98.3059H5.70674V92.8331Z" fill="#243454"/>
    <path d="M5.78483 87.3601H0.13916V92.9892H5.78483V87.3601Z" fill="#243454"/>
    <path d="M5.70674 87.4385H0.217896V92.9112H5.70674V87.4385Z" fill="#243454"/>
    <path d="M5.78483 81.8876H0.13916V87.5167H5.78483V81.8876Z" fill="#243454"/>
    <path d="M5.70674 81.9656H0.217896V87.3601H5.70674V81.9656Z" fill="#243454"/>
    <path d="M5.78483 76.4146H0.13916V82.0437H5.78483V76.4146Z" fill="#243454"/>
    <path d="M5.70674 76.5712H0.217896V82.0439H5.70674V76.5712Z" fill="#243454"/>
    <path d="M5.78483 71.02H0.13916V76.6492H5.78483V71.02Z" fill="#243454"/>
    <path d="M5.70674 71.0981H0.217896V76.5709H5.70674V71.0981Z" fill="#243454"/>
</svg>
