<svg width="331" height="192" viewBox="0 0 331 192" fill="none" xmlns="http://www.w3.org/2000/svg">
    <rect x="6.61518" y="18.0049" width="314.342" height="130.285" fill="white"/>
    <rect x="23.574" y="4.50781" width="285.759" height="21.6391" fill="white"/>
    <rect x="16.6582" y="6.61328" width="11.9536" height="21.6391" fill="white"/>
    <rect x="13.2304" y="13.3457" width="11.9536" height="21.6391" fill="white"/>
    <rect x="10.2234" y="129.244" width="11.9536" height="21.6391" fill="white"/>
    <rect x="137.169" y="155.294" width="11.9536" height="28.7715" fill="white"/>
    <rect x="145.182" y="148.682" width="11.9536" height="28.7715" fill="white"/>
    <rect x="152.097" y="136.497" width="11.9536" height="28.7715" fill="white"/>
    <rect x="305.057" y="13.2256" width="11.9536" height="21.6391" fill="white"/>
    <rect x="302.388" y="133.753" width="11.9536" height="21.6391" fill="white"/>
    <rect x="19.9659" y="137.96" width="287.46" height="21.6391" fill="white"/>
    <g opacity="0.3">
        <path d="M141.776 158.818L135.161 158.818L135.161 185.388L141.776 185.388L141.776 158.818Z" fill="black"/>
        <path d="M148.392 185.388L141.776 185.388L141.776 192L148.392 192L148.392 185.388Z" fill="black"/>
        <path d="M155.127 178.655L148.512 178.655L148.512 185.268L155.127 185.268L155.127 178.655Z" fill="black"/>
        <path d="M161.742 172.042L155.127 172.042L155.127 178.654L161.742 178.654L161.742 172.042Z" fill="black"/>
        <path d="M168.357 165.431L161.742 165.431L161.742 172.043L168.357 172.043L168.357 165.431Z" fill="black"/>
        <path d="M135.142 158.818L128.526 158.818L128.526 165.431L135.142 165.431L135.142 158.818Z" fill="black"/>
        <path d="M311.034 158.818L160.491 158.818L160.491 165.431L311.034 165.431L311.034 158.818Z" fill="black"/>
        <path d="M137.594 158.817L32.4793 158.817L32.4793 165.43L137.594 165.43L137.594 158.817Z" fill="black"/>
        <path d="M311.034 1.20212L23.5741 1.20215L23.5741 7.81455L311.034 7.81452L311.034 1.20212Z" fill="black"/>
        <path d="M331 21.1592L324.385 21.1592L324.385 145.472L331 145.472L331 21.1592Z" fill="black"/>
        <path d="M317.649 7.81445L311.034 7.81445L311.034 14.4268L317.649 14.4268L317.649 7.81445Z" fill="black"/>
        <path d="M324.264 14.5479L317.649 14.5479L317.649 21.1602L324.264 21.1602L324.264 14.5479Z" fill="black"/>
        <path d="M317.649 152.085L311.034 152.085L311.034 158.697L317.649 158.697L317.649 152.085Z" fill="black"/>
        <path d="M324.265 145.472L317.649 145.472L317.649 152.084L324.265 152.084L324.265 145.472Z" fill="black"/>
        <path d="M10.2234 21.1592L3.60822 21.1592L3.60823 145.472L10.2234 145.472L10.2234 21.1592Z" fill="black"/>
        <path d="M23.5741 7.81543L16.9589 7.81543L16.9589 14.4278L23.5741 14.4278L23.5741 7.81543Z" fill="black"/>
        <path d="M16.8386 14.5479L10.2234 14.5479L10.2234 21.1602L16.8386 21.1602L16.8386 14.5479Z" fill="black"/>
        <path d="M23.5741 152.085L16.9589 152.085L16.9589 158.697L23.5741 158.697L23.5741 152.085Z" fill="black"/>
        <path d="M16.8386 145.472L10.2234 145.472L10.2234 152.084L16.8386 152.084L16.8386 145.472Z" fill="black"/>
    </g>
    <path d="M138.168 157.614L131.553 157.614L131.553 184.184L138.168 184.184L138.168 157.614Z" fill="#231F20"/>
    <path d="M144.783 184.184L138.168 184.184L138.168 190.796L144.783 190.796L144.783 184.184Z" fill="#231F20"/>
    <path d="M151.519 177.451L144.903 177.451L144.903 184.064L151.519 184.064L151.519 177.451Z" fill="#231F20"/>
    <path d="M158.134 170.84L151.519 170.84L151.519 177.452L158.134 177.452L158.134 170.84Z" fill="#231F20"/>
    <path d="M164.749 164.227L158.134 164.227L158.134 170.839L164.749 170.839L164.749 164.227Z" fill="#231F20"/>
    <path d="M131.533 157.614L124.918 157.614L124.918 164.227L131.533 164.227L131.533 157.614Z" fill="#231F20"/>
    <path d="M308.677 157.616L158.134 157.616L158.134 164.229L308.677 164.229L308.677 157.616Z" fill="#231F20"/>
    <path d="M125.081 157.615L19.9659 157.615L19.9659 164.228L125.081 164.228L125.081 157.615Z" fill="#231F20"/>
    <path d="M307.426 -2.51612e-05L19.9659 0L19.9659 6.6124L307.426 6.61237L307.426 -2.51612e-05Z" fill="#231F20"/>
    <path d="M327.392 19.957L320.776 19.957L320.777 144.27L327.392 144.27L327.392 19.957Z" fill="#231F20"/>
    <path d="M314.041 6.6123L307.426 6.6123L307.426 13.2247L314.041 13.2247L314.041 6.6123Z" fill="#231F20"/>
    <path d="M320.656 13.3457L314.041 13.3457L314.041 19.9581L320.656 19.9581L320.656 13.3457Z" fill="#231F20"/>
    <path d="M314.041 150.883L307.426 150.883L307.426 157.495L314.041 157.495L314.041 150.883Z" fill="#231F20"/>
    <path d="M320.656 144.271L314.041 144.271L314.041 150.883L320.656 150.883L320.656 144.271Z" fill="#231F20"/>
    <path d="M6.61519 19.957L3.8147e-06 19.957L1.46871e-05 144.27L6.6152 144.27L6.61519 19.957Z" fill="#231F20"/>
    <path d="M19.9658 6.61328L13.3507 6.61328L13.3507 13.2257L19.9658 13.2257L19.9658 6.61328Z" fill="#231F20"/>
    <path d="M13.2304 13.3457L6.61518 13.3457L6.61518 19.9581L13.2304 19.9581L13.2304 13.3457Z" fill="#231F20"/>
    <path d="M19.9658 150.883L13.3507 150.883L13.3507 157.495L19.9658 157.495L19.9658 150.883Z" fill="#231F20"/>
    <path d="M13.2304 144.271L6.61518 144.271L6.61518 150.883L13.2304 150.883L13.2304 144.271Z" fill="#231F20"/>
</svg>
