<svg width="31" height="25" viewBox="0 0 31 25" fill="none" xmlns="http://www.w3.org/2000/svg">
    <rect x="0.0516357" y="11.0627" width="1.71648" height="1.72866" fill="white"/>
    <rect x="1.76794" y="9.33398" width="1.71648" height="1.72866" fill="white"/>
    <rect x="3.4845" y="7.60522" width="1.71648" height="1.72866" fill="white"/>
    <rect x="5.20105" y="5.87671" width="1.71648" height="1.72866" fill="white"/>
    <rect x="6.9176" y="7.60522" width="1.71648" height="1.72866" fill="white"/>
    <rect x="8.63391" y="9.33398" width="1.71648" height="1.72866" fill="white"/>
    <rect x="10.3505" y="11.0627" width="1.71648" height="1.72866" fill="white"/>
    <rect x="12.067" y="12.7913" width="1.71648" height="1.72866" fill="white"/>
    <rect x="13.7836" y="11.0627" width="1.71648" height="1.72866" fill="white"/>
    <rect x="15.4999" y="9.33398" width="1.71648" height="1.72866" fill="white"/>
    <rect x="17.2164" y="7.60522" width="1.71648" height="1.72866" fill="white"/>
    <rect x="18.9327" y="5.87671" width="1.71648" height="1.72866" fill="white"/>
    <rect x="20.6495" y="4.14795" width="1.71648" height="1.72866" fill="white"/>
    <rect x="22.3658" y="2.41943" width="1.71648" height="1.72866" fill="white"/>
    <rect x="24.0823" y="0.690674" width="1.71648" height="1.72866" fill="white"/>
    <rect x="25.7987" y="2.41943" width="1.71648" height="1.72866" fill="white"/>
    <rect x="27.5153" y="4.14795" width="1.71648" height="1.72866" fill="white"/>
    <rect x="29.2318" y="5.87671" width="1.71648" height="1.72866" fill="white"/>
    <rect x="27.5153" y="7.60522" width="1.71648" height="1.72866" fill="white"/>
    <rect x="25.7987" y="9.33398" width="1.71648" height="1.72866" fill="white"/>
    <rect x="24.0822" y="11.0627" width="1.71648" height="1.72866" fill="white"/>
    <rect x="22.3658" y="12.7913" width="1.71648" height="1.72866" fill="white"/>
    <rect x="20.6495" y="14.52" width="1.71648" height="1.72866" fill="white"/>
    <rect x="18.9327" y="16.2485" width="1.71648" height="1.72866" fill="white"/>
    <rect x="17.2164" y="17.9773" width="1.71648" height="1.72866" fill="white"/>
    <rect x="15.4999" y="19.7061" width="1.71648" height="1.72866" fill="white"/>
    <rect x="13.7836" y="21.4346" width="1.71648" height="1.72866" fill="white"/>
    <rect x="12.067" y="23.1633" width="1.71648" height="1.72866" fill="white"/>
    <rect x="10.3505" y="21.4346" width="1.71648" height="1.72866" fill="white"/>
    <rect x="8.63391" y="19.7061" width="1.71648" height="1.72866" fill="white"/>
    <rect x="6.9176" y="17.9773" width="1.71648" height="1.72866" fill="white"/>
    <rect x="5.20105" y="16.2485" width="1.71648" height="1.72866" fill="white"/>
    <rect x="3.4845" y="14.52" width="1.71648" height="1.72866" fill="white"/>
    <rect x="1.76794" y="12.7913" width="1.71648" height="1.72866" fill="white"/>
</svg>
