<svg width="55" height="25" viewBox="0 0 55 25" fill="none" xmlns="http://www.w3.org/2000/svg">
    <path d="M53.2917 6.66814C53.3074 6.66293 53.3219 6.6671 53.3261 6.68272C53.3313 6.70147 53.3334 6.7223 53.3334 6.74209C53.3334 6.97541 53.3334 7.20872 53.3334 7.43683C53.3449 7.45558 53.3563 7.45974 53.3709 7.45974C53.6115 7.45974 53.8521 7.45974 54.0927 7.45974C54.1115 7.45974 54.1209 7.47224 54.125 7.50141C54.1167 7.50974 54.1073 7.51807 54.099 7.5264C53.8875 7.61181 53.6563 7.51703 53.4261 7.59931C53.3667 7.80346 53.4001 8.01386 53.4073 8.21801C53.5573 8.30342 53.699 8.26176 53.8344 8.27322C53.9427 8.28259 54.0594 8.25238 54.15 8.34404C54.1959 8.42737 54.1844 8.51903 54.1844 8.6086C54.1854 9.52832 54.1854 10.448 54.1844 11.3688C54.1844 11.4709 54.1979 11.5771 54.1282 11.674C53.9188 11.8021 53.6646 11.6771 53.4407 11.776C53.3501 11.9927 53.4501 12.2312 53.3678 12.4479C53.3001 12.5624 53.1844 12.5572 53.074 12.5645C52.923 12.5739 52.7688 12.5447 52.6095 12.5947C52.5001 12.8145 52.6334 13.077 52.5032 13.3103C52.247 13.4051 51.9709 13.3134 51.7074 13.3697C51.6835 13.378 51.6585 13.3832 51.6335 13.3874C51.4074 13.4197 51.1772 13.3697 50.946 13.4259C50.8324 13.6519 50.9689 13.9155 50.8293 14.1488C50.5658 14.2279 50.2856 14.1581 50.0137 14.1946C49.6304 14.2738 49.2429 14.2144 48.8586 14.2331C48.7221 14.2394 48.5825 14.2113 48.4409 14.2654C48.3377 14.4862 48.469 14.7456 48.3325 14.9789C48.0711 15.0633 47.7919 14.9914 47.5211 15.0258C47.2836 15.0945 47.0399 15.057 46.7982 15.0654C46.5159 15.0747 46.2326 15.0487 45.9483 15.082C45.8358 15.3153 45.9681 15.5768 45.8326 15.8111C45.5535 15.907 45.2483 15.8007 44.9608 15.8778C44.7368 15.9257 44.5056 15.8643 44.2785 15.9247C44.1681 16.1507 44.3035 16.4121 44.164 16.6444C43.9015 16.7277 43.6223 16.6559 43.3515 16.6923C43.114 16.76 42.8703 16.7225 42.6296 16.7308C42.3474 16.7402 42.064 16.7142 41.7797 16.7486C41.6745 16.9839 41.7974 17.2423 41.6724 17.4756C41.387 17.5724 41.0818 17.4662 40.7943 17.5443C40.5703 17.5922 40.3391 17.5308 40.112 17.5912C40.0026 17.8172 40.137 18.0786 39.9974 18.3109C39.735 18.3942 39.4558 18.3224 39.1839 18.3588C38.8006 18.439 38.4131 18.3797 38.0277 18.3984C37.8913 18.4047 37.7517 18.3776 37.608 18.4297C37.5059 18.6494 37.6329 18.9088 37.5038 19.1421C37.2382 19.2286 36.959 19.1556 36.6892 19.1911C36.4517 19.2598 36.208 19.2233 35.9674 19.2306C35.6851 19.239 35.4028 19.2192 35.1185 19.2442C35.0008 19.4796 35.1362 19.74 35.0018 19.9764C34.7247 20.0764 34.4206 19.9681 34.1341 20.0431C33.906 20.0941 33.6664 20.0264 33.4373 20.0931C33.3456 20.3201 33.4571 20.568 33.3404 20.8045C33.0862 20.9076 32.8029 20.8086 32.5373 20.869C32.5134 20.8774 32.4884 20.8826 32.4634 20.8867C32.2384 20.917 32.0082 20.8732 31.7842 20.9222C31.6686 21.1534 31.805 21.4169 31.6551 21.6575C31.1197 21.72 30.5676 21.6575 30.0187 21.6919C29.6353 21.7721 29.2468 21.7127 28.8614 21.7315C28.725 21.7377 28.5854 21.7106 28.4427 21.7627C28.3375 21.9825 28.4698 22.2429 28.3333 22.4762C28.0708 22.5606 27.7917 22.4887 27.5208 22.5241C27.1365 22.6043 26.7469 22.546 26.3594 22.5637C26.2219 22.5699 26.0823 22.547 25.9438 22.5908C25.8365 22.8178 25.9719 23.0803 25.8292 23.3115C25.5647 23.3917 25.2845 23.3199 25.0116 23.3595C24.9178 23.3928 24.8209 23.398 24.7241 23.398C22.9481 23.399 21.1721 23.399 19.3961 23.398C19.3409 23.398 19.2847 23.397 19.2305 23.3886C19.2045 23.3855 19.1795 23.3803 19.1545 23.374C18.9784 23.3251 18.7982 23.3584 18.6201 23.348C18.5253 23.3428 18.4253 23.3615 18.3285 23.2918C18.2024 23.0834 18.3337 22.823 18.2316 22.5939C18.0045 22.5168 17.7639 22.6022 17.5368 22.5356C17.5139 22.5262 17.4952 22.5106 17.4795 22.4908C17.417 22.3533 17.4504 22.2064 17.441 22.0637C17.4348 21.9627 17.4618 21.8565 17.3962 21.7513C17.1733 21.694 16.9369 21.7492 16.7067 21.7158C16.6827 21.7127 16.6587 21.7075 16.6348 21.7013C16.3723 21.6429 16.0983 21.7283 15.8348 21.644C15.7119 21.419 15.8192 21.1711 15.7411 20.9367C15.5161 20.8388 15.2661 20.9409 15.0359 20.869C15.013 20.8597 14.9942 20.844 14.9796 20.8232C14.9161 20.6784 14.9505 20.5253 14.9411 20.3753C14.9359 20.2805 14.9546 20.1826 14.9015 20.0858C14.6734 20.0274 14.437 20.0826 14.2068 20.0483C14.1828 20.0452 14.1588 20.0399 14.1349 20.0337C13.8724 19.9764 13.5984 20.0608 13.338 19.9774C13.2047 19.7483 13.3318 19.49 13.2339 19.2608C12.9995 19.1775 12.7495 19.2754 12.5183 19.1921C12.4954 19.1786 12.4777 19.1588 12.4662 19.1348C12.3902 18.9088 12.4849 18.664 12.3985 18.438C12.1589 18.338 11.8923 18.4661 11.66 18.3328C11.5412 18.1057 11.6527 17.8495 11.5662 17.6089C11.3381 17.5006 11.0704 17.6276 10.835 17.5089C10.6996 17.2808 10.8256 17.0142 10.7319 16.7736C10.5006 16.6663 10.234 16.7975 10.01 16.6788C9.92775 16.585 9.93608 16.4788 9.93608 16.3757C9.93504 12.9624 9.93504 9.55019 9.93608 6.13694C9.93608 6.03382 9.93192 5.92758 10.0007 5.82446C10.2204 5.69426 10.4881 5.82342 10.7256 5.72551C10.8329 5.49324 10.7006 5.22555 10.8308 4.99016C11.061 4.86933 11.3256 4.98391 11.561 4.8985C11.6641 4.65581 11.5339 4.39021 11.6558 4.15898C11.7589 4.08086 11.8798 4.09961 11.9964 4.09961C12.8474 4.09752 13.6984 4.09961 14.5495 4.09752C14.6515 4.09752 14.7578 4.11419 14.8578 4.05378C14.9599 3.82463 14.8161 3.5559 14.9609 3.33196C14.9765 3.32675 14.9911 3.33092 14.9953 3.34654C15.0005 3.36529 15.0015 3.38612 15.0015 3.40591C15.0015 3.61319 15.0015 3.82046 15.0026 4.02774C15.0026 4.05482 14.9974 4.0819 15.0078 4.10794C15.0161 4.12356 15.0276 4.1246 15.0432 4.1246C15.8098 4.12356 16.5775 4.12356 17.3441 4.1246C17.3775 4.1246 17.4118 4.12669 17.4452 4.13189C17.4608 4.13398 17.465 4.15064 17.4598 4.16627C17.4504 4.17564 17.441 4.18397 17.4306 4.19335C17.3337 4.24334 17.2275 4.23084 17.1244 4.23084C16.5431 4.23189 15.9619 4.23084 15.3796 4.23189C15.29 4.23189 15.1994 4.22147 15.1046 4.27042C14.9984 4.5027 15.1401 4.77559 15.0098 5.01099C14.9109 5.08077 14.7974 5.06515 14.6869 5.06515C14.0901 5.06723 13.4922 5.06515 12.8953 5.06723C12.7995 5.06723 12.7006 5.05265 12.6026 5.10994C12.5099 5.33909 12.6287 5.60365 12.5141 5.838C12.2787 5.96508 12.0141 5.84425 11.7339 5.94841C11.7339 9.19397 11.7339 12.452 11.7339 15.7038C12.0006 15.8361 12.2787 15.6903 12.5141 15.8309C12.6245 16.059 12.5183 16.3153 12.5995 16.5538C12.8328 16.66 13.0995 16.5361 13.3349 16.6538C13.4703 16.8829 13.3412 17.1506 13.4401 17.3902C13.6724 17.4943 13.9401 17.3672 14.1703 17.4891C14.3015 17.7224 14.1745 17.9901 14.2745 18.2286C14.5078 18.3193 14.763 18.2088 14.9994 18.3172C15.1442 18.5453 15.0026 18.8223 15.113 19.0744C15.6286 19.1515 16.1598 19.0369 16.6681 19.1379C16.7921 19.39 16.6869 19.6441 16.766 19.8889C16.9952 19.991 17.2608 19.8722 17.5035 19.9837C17.6368 20.2087 17.5118 20.4753 17.5973 20.7076C17.6764 20.7784 17.7702 20.7638 17.8587 20.7638C18.192 20.7659 18.5253 20.7638 18.8587 20.7659C18.9618 20.767 19.068 20.7586 19.1764 20.8315C19.3045 21.0472 19.1774 21.3148 19.2878 21.5981C21.1419 21.5981 23.0106 21.5992 24.8709 21.5981C25.0011 21.3336 24.8699 21.0649 24.9866 20.8399C25.0845 20.7534 25.199 20.767 25.3084 20.767C25.9053 20.7649 26.5032 20.767 27.1 20.7649C27.1958 20.7649 27.2948 20.7753 27.3938 20.7201C27.499 20.4941 27.3688 20.2264 27.4875 20.0035C27.5917 19.9212 27.7052 19.9337 27.8156 19.9337C28.4062 19.9316 28.9958 19.9337 29.5864 19.9316C29.6885 19.9316 29.7957 19.9472 29.8978 19.8816C29.9926 19.6577 29.8791 19.4015 29.9791 19.1827C30.0791 19.0879 30.1936 19.1004 30.303 19.0994C30.8936 19.0973 31.4832 19.0994 32.0738 19.0984C32.1769 19.0984 32.2821 19.1067 32.3904 19.0609C32.504 18.8328 32.3686 18.564 32.505 18.3088C33.006 18.1984 33.5373 18.3245 34.0518 18.238C34.1685 17.9932 34.0331 17.7245 34.1581 17.5027C34.2622 17.4214 34.3758 17.4339 34.4862 17.4339C35.0768 17.4318 35.6664 17.4339 36.257 17.4318C36.359 17.4318 36.4663 17.4475 36.5663 17.3808C36.6601 17.1558 36.5465 16.8985 36.6486 16.6819C36.7507 16.5892 36.8653 16.6006 36.9746 16.6006C37.5652 16.5986 38.1548 16.6006 38.7454 16.5986C38.8485 16.5986 38.9537 16.6121 39.0589 16.5527C39.1704 16.3288 39.0329 16.059 39.1579 15.8382C39.2548 15.7591 39.361 15.7674 39.4641 15.7674C39.7902 15.7643 40.1172 15.7674 40.4433 15.7653C40.5391 15.7643 40.6391 15.7778 40.7318 15.7122C40.8276 15.4893 40.7078 15.231 40.8193 15.0112C40.9172 14.9227 41.0318 14.9352 41.1411 14.9341C41.7318 14.932 42.3213 14.9341 42.9119 14.932C43.015 14.932 43.1213 14.9445 43.2265 14.8862C43.3327 14.6612 43.2036 14.3915 43.339 14.1404C43.8421 14.0384 44.366 14.1519 44.8806 14.0748C45.0056 13.8363 44.8671 13.5665 44.9889 13.3426C45.0868 13.2572 45.2014 13.2686 45.3108 13.2686C45.9014 13.2666 46.4909 13.2686 47.0816 13.2666C47.1847 13.2666 47.2909 13.2801 47.394 13.2186C47.5024 12.9926 47.367 12.7228 47.493 12.5041C47.5992 12.425 47.7138 12.4354 47.8232 12.4354C48.4065 12.4333 48.9898 12.4354 49.5731 12.4343C49.6762 12.4343 49.7825 12.4468 49.8898 12.3916C50.0044 12.1687 49.8669 11.8979 49.9908 11.6761C50.0908 11.5927 50.2054 11.6042 50.3148 11.6031C50.9116 11.6011 51.5095 11.6031 52.1064 11.6011C52.2022 11.6011 52.3022 11.6136 52.3959 11.55C52.497 11.323 52.3699 11.0553 52.4918 10.8376C52.6168 10.7522 52.7449 10.7751 52.8688 10.7688C52.9855 10.7626 53.1053 10.7855 53.2136 10.7293C53.2813 10.5626 53.298 9.5429 53.2355 9.27313C53.0074 9.1721 52.7418 9.29709 52.5001 9.18043C52.3595 8.95233 52.5001 8.67631 52.4011 8.44195C52.3043 8.38571 52.2053 8.40133 52.1095 8.40029C51.4981 8.39925 50.8877 8.40029 50.2762 8.39925C50.1731 8.39925 50.0669 8.41071 49.9721 8.35238C49.9221 8.06594 49.8929 7.78159 50.0023 7.50036C50.096 7.42016 50.2106 7.43474 50.32 7.43474C51.1731 7.4337 52.0261 7.43474 52.8792 7.4337C52.9824 7.4337 53.0876 7.44933 53.1886 7.391C53.2917 7.16289 53.1459 6.89312 53.2917 6.66814Z" fill="#DCBB9C"/>
    <path d="M7.46014 0.835334C7.47577 0.830126 7.49035 0.834293 7.49452 0.849916C7.49973 0.868665 7.50181 0.889496 7.50181 0.908245C7.50181 1.16135 7.50181 1.41445 7.50181 1.6686C7.57264 1.7488 7.56535 1.84879 7.56639 1.94462C7.56847 2.28417 7.56639 2.62373 7.56743 2.96328C7.56743 3.05182 7.55493 3.14452 7.60701 3.23097C7.7268 3.29555 7.86117 3.26013 7.99033 3.26951C8.09866 3.27784 8.21532 3.2518 8.3049 3.34242C8.36428 3.42158 8.35178 3.51428 8.35178 3.60385C8.35282 7.03169 8.35282 10.4595 8.35178 13.8874C8.35178 13.9832 8.36532 14.0832 8.30074 14.1676C8.22053 14.2384 8.12054 14.2342 8.02471 14.2342C5.99145 14.2363 3.95819 14.2363 1.92494 14.2342C1.83536 14.2342 1.74369 14.2373 1.66453 14.1811C1.59266 14.0926 1.60307 13.9853 1.60203 13.8822C1.59995 12.9593 1.60099 12.0365 1.60203 11.1136C1.60203 11.0168 1.59578 10.9178 1.65307 10.8314C1.7614 10.7449 1.89161 10.7689 2.01348 10.7678C3.69362 10.7658 5.37481 10.7668 7.05495 10.7658C7.16432 10.7658 7.27786 10.7824 7.37994 10.7303C7.44764 10.5637 7.46327 4.53503 7.39452 4.27776C7.16953 4.16839 6.90079 4.30275 6.66226 4.1736C6.53518 3.94966 6.65601 3.68301 6.56539 3.44345C6.32998 3.34033 6.06436 3.46741 5.82687 3.34346C5.70292 3.11431 5.82062 2.84975 5.73833 2.61956C5.63625 2.54977 5.52897 2.56956 5.42689 2.56956C4.28839 2.56852 3.14885 2.56956 2.01035 2.56748C1.89369 2.56748 1.77286 2.58519 1.66557 2.51644C1.61453 2.46228 1.6062 2.39354 1.60516 2.32375C1.59787 1.84983 1.60307 1.37487 1.60203 0.900954C1.60203 0.872831 1.61245 0.846792 1.62703 0.822835C1.73224 0.748883 1.85307 0.767631 1.96973 0.767631C3.37697 0.76659 4.7842 0.76659 6.1904 0.76659C6.29977 0.76659 6.41227 0.78013 6.51955 0.728051C6.6258 0.494738 6.48101 0.224968 6.62684 0.00102862C6.64247 -0.00417928 6.65705 -1.29563e-05 6.66122 0.0156107C6.66642 0.0343592 6.66851 0.0551908 6.66851 0.0739392C6.66851 0.327043 6.66851 0.580147 6.66851 0.834293C6.75288 0.935326 6.72475 1.05719 6.731 1.17176C6.73725 1.30092 6.71538 1.4332 6.7633 1.5759C6.95808 1.62381 7.15286 1.60923 7.35181 1.58631C7.42577 1.4457 7.38827 1.30509 7.39765 1.17072C7.40494 1.05823 7.37577 0.936367 7.46014 0.835334Z" fill="#483D4E"/>
    <path d="M1.66863 14.1675C3.86855 14.1675 6.06847 14.1675 8.26838 14.1675C8.27359 14.1675 8.2788 14.1602 8.28401 14.1561C8.28713 14.1508 8.29338 14.1446 8.29338 14.1394C8.29338 10.5376 8.29338 6.93686 8.29338 3.33508C8.30067 3.32987 8.30692 3.32467 8.31422 3.31946C8.32151 3.32467 8.32776 3.32987 8.33505 3.33508C8.42463 3.44236 8.40171 3.57256 8.40171 3.69443C8.4038 5.20055 8.40275 6.70668 8.40275 8.2128C8.40275 11.6969 8.40275 15.181 8.4038 18.6661C8.4038 18.7817 8.38088 18.9025 8.46629 19.0515C9.19022 19.0609 9.93395 19.0671 10.6714 19.0463C10.7881 18.8067 10.6641 18.5619 10.7756 18.3505C10.9058 18.312 10.887 18.4255 10.8902 18.4817C10.9037 18.7015 10.9172 18.9223 10.8797 19.1421C10.8714 19.1681 10.8558 19.1911 10.835 19.2088C10.8277 19.2088 10.8183 19.2119 10.8141 19.2088C10.7985 19.1963 10.7839 19.1806 10.7704 19.1671C9.9579 19.1671 9.14648 19.1671 8.33505 19.1671C8.31422 19.1838 8.29234 19.1983 8.26734 19.2088C8.00798 19.2223 7.74445 19.2921 7.49445 19.1619C7.54133 19.04 7.65174 19.0702 7.74236 19.0609C7.88507 19.0463 8.03298 19.0817 8.19026 19.0213C8.24963 18.8317 8.23609 18.639 8.19964 18.4515C8.08193 18.3807 7.9684 18.4005 7.85902 18.4005C5.91847 18.3994 3.97896 18.4005 2.03841 18.3984C1.90925 18.3984 1.7728 18.4244 1.65509 18.3401C1.59884 18.262 1.60093 18.1703 1.60093 18.0797C1.59884 16.8673 1.59884 15.6538 1.60093 14.4414C1.60197 14.3467 1.59155 14.2456 1.66863 14.1675Z" fill="#3A3140"/>
    <path d="M6.62683 0.00231934C6.62683 0.272089 6.62683 0.542899 6.62683 0.812669C6.61642 0.81996 6.606 0.8335 6.59558 0.834542C6.53309 0.836625 6.47059 0.835583 6.40809 0.835583C4.8144 0.835583 3.22071 0.835583 1.62702 0.835583C1.53536 0.923076 1.41974 0.895995 1.31037 0.902244C1.1937 0.908494 1.07496 0.889745 0.961422 0.931409C0.880175 1.03036 0.904132 1.14597 0.903091 1.25326C0.901007 2.69689 0.902049 4.14052 0.902049 5.5831C0.902049 10.7806 0.902049 15.9781 0.903091 21.1766C0.903091 21.2995 0.880175 21.4276 0.940589 21.5443C1.01663 21.6307 1.11975 21.6068 1.2135 21.6068C2.9051 21.6078 4.5967 21.6068 6.2883 21.6089C6.40392 21.6089 6.52475 21.587 6.64141 21.6766C6.64975 21.9317 6.64558 22.1921 6.64246 22.4411C6.56954 22.4942 6.50496 22.4775 6.44455 22.4775C4.35088 22.4786 2.25721 22.4786 0.162494 22.4775C0.108329 22.4775 0.0510397 22.49 0 22.4577C0 14.9761 0 7.49544 0 0.0210678C0.0156244 0.010652 0.0208325 0.00231934 0.0260407 0.00231934C2.22596 0.00231934 4.42587 0.00231934 6.62683 0.00231934Z" fill="#3B3B3B"/>
    <path d="M10.7934 18.3339C10.7934 18.5912 10.7934 18.8474 10.7934 19.1047C10.782 19.1119 10.7715 19.1244 10.7601 19.1244C10.3986 19.1255 10.0382 19.1255 9.6768 19.1255C9.26014 19.1255 8.84349 19.1255 8.42684 19.1255C8.39976 19.1255 8.37268 19.1328 8.34768 19.1182C8.34351 19.113 8.33518 19.1078 8.33518 19.1026C8.33414 13.8468 8.33518 8.59199 8.33518 3.33618C10.5434 3.33618 12.7517 3.33618 14.9599 3.33618C14.9599 3.61116 14.9599 3.88614 14.9599 4.15591C14.9412 4.16424 14.9349 4.16945 14.9297 4.16945C13.8423 4.16945 12.7558 4.16945 11.6684 4.16945C11.5746 4.25069 11.4601 4.23611 11.3507 4.23611C10.7601 4.23819 10.1705 4.23611 9.57992 4.23715C9.48409 4.23715 9.38514 4.22569 9.29348 4.26735C9.22056 4.43401 9.20598 17.985 9.27889 18.2245C9.35806 18.2797 9.45076 18.2662 9.5393 18.2672C9.86533 18.2693 10.1924 18.2662 10.5184 18.2693C10.6143 18.2683 10.7153 18.2568 10.7934 18.3339Z" fill="#3B3B3B"/>
    <path d="M0.00210734 22.4586C2.20098 22.4586 4.39986 22.4586 6.59769 22.4586C6.6029 22.4586 6.60915 22.4534 6.61436 22.4503C6.62894 22.3409 6.63102 22.1836 6.62373 21.6857C6.6154 21.6722 6.60394 21.667 6.58936 21.667C6.52686 21.667 6.46436 21.667 6.40186 21.667C4.59881 21.667 2.79471 21.667 0.991653 21.667C0.943738 21.667 0.895823 21.6743 0.84895 21.6607C0.833326 21.6566 0.829159 21.642 0.834367 21.6253C0.941655 21.5357 1.07082 21.5597 1.19373 21.5587C2.85929 21.5576 4.52381 21.5576 6.18937 21.5566C6.29874 21.5566 6.41124 21.5753 6.52686 21.5118C6.58415 21.3285 6.56019 21.1399 6.53936 20.9629C6.41957 20.8785 6.30603 20.9004 6.19771 20.9004C4.81755 20.8983 3.43635 20.9004 2.0562 20.8983C1.92599 20.8983 1.79162 20.917 1.67392 20.841C1.59476 20.7525 1.60309 20.6452 1.60205 20.5431C1.59996 19.8984 1.59996 19.2526 1.60205 18.6079C1.60205 18.512 1.59059 18.411 1.66767 18.3329C3.86446 18.3329 6.06229 18.3329 8.25909 18.3329C8.26534 18.3329 8.27159 18.336 8.27783 18.3381C8.28304 18.3433 8.29242 18.3475 8.29242 18.3527C8.29346 18.6016 8.29346 18.8516 8.29242 19.1005C8.29242 19.1057 8.28409 19.1109 8.27992 19.1162C8.25492 19.1297 8.2268 19.1234 8.19971 19.1234C7.97785 19.1245 7.75598 19.1234 7.53411 19.1234C7.51536 19.1234 7.50599 19.1359 7.50078 19.1651C7.57161 19.2464 7.56432 19.3453 7.56536 19.4422C7.56744 19.7682 7.56536 20.0942 7.5664 20.4192C7.5664 20.5077 7.5539 20.6004 7.61536 20.7014C7.79869 20.7421 7.99347 20.7327 8.1768 20.7046C8.24242 20.5931 8.22575 20.4942 8.2268 20.3983C8.22888 20.0796 8.2268 19.7609 8.22784 19.4422C8.22888 19.3453 8.22159 19.2464 8.29242 19.1651C8.30596 19.1651 8.32054 19.1651 8.33408 19.1651C8.33408 19.713 8.33408 20.2609 8.33408 20.8098C8.32367 20.8171 8.31325 20.8306 8.30283 20.8316C8.06743 20.8327 7.83098 20.8327 7.59557 20.8327C7.56849 20.8327 7.5414 20.8275 7.51641 20.8379C7.5112 20.8441 7.50182 20.8493 7.50182 20.8546C7.50078 21.1181 7.50078 21.3816 7.50078 21.6451C7.48932 21.6524 7.47787 21.6649 7.46745 21.6649C7.22475 21.6659 6.98205 21.6659 6.73935 21.6659C6.71956 21.6659 6.69977 21.6691 6.6831 21.6701C6.67581 21.6795 6.66852 21.6847 6.66852 21.6899C6.66748 21.9534 6.66852 22.2169 6.66852 22.4773C6.6581 22.494 6.64665 22.4992 6.63311 22.4992C6.59144 22.4992 6.54978 22.4992 6.50811 22.4992C4.39257 22.4992 2.27598 22.4992 0.160435 22.4992C0.11252 22.4992 0.064605 22.5065 0.0177317 22.493C0.00106571 22.4888 -0.00310079 22.4742 0.00210734 22.4586Z" fill="#483D4E"/>
    <path d="M19.1681 23.3335C21.0909 23.3335 23.0127 23.3335 24.9366 23.3335C24.9512 23.3199 24.9647 23.3053 24.9803 23.2918C24.9845 23.2887 24.9939 23.2918 25.0012 23.2918C25.0178 23.3116 25.0324 23.3345 25.0428 23.3585C25.0585 23.6293 25.1189 23.9032 25.0012 24.1667C25.0012 24.4334 25.0012 24.7011 25.0012 24.9677C25.0012 24.9854 24.9887 24.9948 24.9595 25C24.8793 24.9062 24.8981 24.7917 24.8928 24.6823C24.8856 24.5521 24.9116 24.4188 24.8616 24.2896C24.7658 24.2115 24.6501 24.2355 24.5429 24.2355C22.871 24.2334 21.1992 24.2344 19.5274 24.2334C19.4045 24.2334 19.2754 24.2563 19.1681 24.1678C19.0649 23.8886 19.0639 23.6105 19.1681 23.3335Z" fill="#CA9775"/>
    <path d="M34.1675 9.16797C34.4383 9.16797 34.7091 9.16797 34.9789 9.16797C34.9862 9.17838 34.9997 9.18984 34.9997 9.20026C35.0008 9.70022 35.0008 10.1991 35.0008 10.6991C35.0008 10.7397 34.9945 10.7814 35.007 10.821C35.0122 10.8262 35.0175 10.8345 35.0227 10.8345C35.5706 10.8355 36.1185 10.8355 36.6674 10.8355C36.6768 10.8449 36.6851 10.8553 36.6945 10.8647C36.7601 11.0886 36.7299 11.3167 36.7174 11.5428C36.7132 11.6063 36.6809 11.6615 36.6226 11.6959C36.4768 11.7563 36.3226 11.7292 36.1716 11.7334C35.8205 11.7438 35.4685 11.7167 35.131 11.749C35.0508 11.8386 35.0685 11.9323 35.0675 12.0198C35.0643 12.3656 35.0685 12.7104 35.0654 13.0562C35.0643 13.1656 35.0685 13.2801 34.9654 13.3582C34.6946 13.4155 34.4248 13.4478 34.1592 13.3364C34.0956 13.252 34.1008 13.1531 34.1019 13.0572C34.1154 11.8396 34.1071 10.621 34.1102 9.40337C34.1102 9.32004 34.0987 9.23359 34.1675 9.16797Z" fill="#3B3B3B"/>
    <path d="M19.168 24.1667C21.0877 24.1667 23.0084 24.1667 24.9282 24.1667C24.9344 24.1667 24.9396 24.1709 24.9459 24.174C24.95 24.1792 24.9594 24.1845 24.9594 24.1897C24.9605 24.4605 24.9605 24.7302 24.9605 25.0011C23.0407 25.0011 21.12 25.0011 19.2003 25.0011C19.194 25.0011 19.1888 24.9969 19.1826 24.9938C19.1784 24.9886 19.169 24.9833 19.169 24.9781C19.168 24.7073 19.168 24.4365 19.168 24.1667Z" fill="#3B3B3B"/>
    <path d="M54.9583 8.33473C54.974 8.32952 54.9875 8.33369 54.9938 8.34931C54.9979 8.36181 55 8.37535 55 8.38785C55 9.74086 55 11.0939 55 12.4469C55 12.4594 54.9958 12.4729 54.9948 12.4823C54.9885 12.4896 54.9844 12.499 54.9792 12.499C54.7084 12.5 54.4375 12.5 54.1677 12.5C54.0407 12.25 54.1021 11.9855 54.1219 11.7272C54.1282 11.6397 54.1469 11.5501 54.148 11.4605C54.148 10.496 54.148 9.53255 54.149 8.56805C54.149 8.49201 54.1407 8.41493 54.1573 8.33994C54.4219 8.29203 54.6906 8.30661 54.9583 8.33473Z" fill="#3B3B3B"/>
    <path d="M50.0002 7.50146C50.0002 7.75769 50.0002 8.01288 50.0002 8.27015C49.9867 8.28473 49.9721 8.29827 49.9585 8.3139C49.9554 8.31806 49.9585 8.32744 49.9585 8.33473C49.8096 8.44514 49.6377 8.38681 49.4763 8.39931C49.3731 8.4066 49.269 8.40347 49.1648 8.39722C48.4096 8.40764 47.6545 8.40035 46.8993 8.40035C46.8305 8.40035 46.7607 8.39827 46.6972 8.36285C46.6868 8.35348 46.6774 8.3441 46.667 8.33473C46.667 8.06496 46.667 7.79519 46.668 7.52438C46.668 7.51917 46.6764 7.51396 46.6805 7.50876C46.6868 7.50563 46.692 7.50146 46.6982 7.50146C47.7982 7.50146 48.8992 7.50146 50.0002 7.50146Z" fill="#3B3B3B"/>
    <path d="M43.3337 9.16798C43.3337 8.893 43.3337 8.61803 43.3337 8.34826C43.3525 8.33992 43.3587 8.33472 43.3639 8.33472C44.4649 8.33472 45.5659 8.33472 46.6669 8.33472C46.7586 8.62323 46.7961 8.91071 46.6326 9.18985C46.369 9.27422 46.0982 9.22006 45.8295 9.22943C45.0743 9.23985 44.3202 9.23256 43.565 9.23256C43.4962 9.23256 43.4264 9.23048 43.3629 9.19506C43.3535 9.18673 43.3431 9.17735 43.3337 9.16798Z" fill="#3B3B3B"/>
    <path d="M36.6675 10.8345C36.6675 10.5647 36.6675 10.2949 36.6685 10.0241C36.6685 10.0189 36.6769 10.0137 36.681 10.0085C36.6873 10.0054 36.6925 10.0012 36.6987 10.0012C37.7997 10.0012 38.9007 10.0012 40.0017 10.0012C40.0111 10.0106 40.0194 10.021 40.0288 10.0304C40.0944 10.2543 40.0642 10.4814 40.0517 10.7085C40.0486 10.772 40.0153 10.8272 39.958 10.8616C39.6945 10.9345 39.4257 10.8876 39.1601 10.8959C38.408 10.9084 37.6549 10.9001 36.9029 10.9001C36.8175 10.9001 36.7341 10.8949 36.6675 10.8345Z" fill="#3B3B3B"/>
    <path d="M40.0005 10.0012C40.0005 9.73146 40.0005 9.46169 40.0015 9.19088C40.0015 9.18568 40.0099 9.18047 40.014 9.17526C40.0203 9.17214 40.0255 9.16797 40.0317 9.16797C41.1327 9.16797 42.2337 9.16797 43.3347 9.16797C43.4264 9.45753 43.4639 9.74396 43.3004 10.0231C43.0347 10.1075 42.7629 10.0523 42.4941 10.0627C41.741 10.0752 40.988 10.0669 40.2349 10.0669C40.1505 10.0669 40.0672 10.0616 40.0005 10.0012Z" fill="#3B3B3B"/>
    <path d="M53.2916 6.66821C53.2916 6.93798 53.2916 7.20775 53.2906 7.47856C53.2906 7.48377 53.2822 7.48898 53.2781 7.49419C53.2718 7.49731 53.2666 7.50148 53.2604 7.50148C52.1729 7.50148 51.0865 7.50148 49.999 7.50148C49.999 7.23171 49.999 6.96194 50.0001 6.69113C50.0001 6.68592 50.0084 6.68071 50.0126 6.6755C50.0188 6.67238 50.024 6.66821 50.0303 6.66821C51.1177 6.66821 52.2041 6.66821 53.2916 6.66821Z" fill="#3B3B3B"/>
    <path d="M36.6256 20.8336C35.8058 20.8336 34.9871 20.8336 34.1673 20.8336C34.0621 20.5534 34.0663 20.2733 34.1663 19.9931C34.984 19.9806 35.8016 19.8691 36.6391 19.966C36.6433 20.2733 36.6651 20.5524 36.6256 20.8336Z" fill="#3B3B3B"/>
    <path d="M47.4586 16.6674C46.6388 16.6674 45.8201 16.6674 45.0004 16.6674C44.8952 16.3872 44.8983 16.107 44.9983 15.8268C45.8159 15.8143 46.6336 15.7029 47.4711 15.7997C47.4763 16.107 47.4982 16.3861 47.4586 16.6674Z" fill="#3B3B3B"/>
    <path d="M25.0012 24.1668C25.0012 23.8887 25.0012 23.6116 25.0012 23.3335C25.02 23.3252 25.0366 23.3137 25.0596 23.3137C25.7585 23.321 26.4543 23.2304 27.1532 23.2658C27.2553 23.271 27.3626 23.2554 27.473 23.3387C27.4772 23.6054 27.499 23.8856 27.4595 24.1657C26.6397 24.1668 25.821 24.1668 25.0012 24.1668Z" fill="#3B3B3B"/>
    <path d="M39.1257 20.0004C38.3059 20.0004 37.4872 20.0004 36.6674 20.0004C36.5622 19.7202 36.5664 19.4401 36.6654 19.1599C37.483 19.1484 38.3007 19.0359 39.1382 19.1328C39.1434 19.4401 39.1653 19.7192 39.1257 20.0004Z" fill="#3B3B3B"/>
    <path d="M32.4592 22.5002C31.6394 22.5002 30.8207 22.5002 30.0009 22.5002C29.8957 22.22 29.8999 21.9398 29.9989 21.6596C30.4072 21.6305 30.8155 21.6398 31.2238 21.6513C31.5436 21.6596 31.855 21.5742 32.1748 21.5992C32.2706 21.6065 32.3686 21.5971 32.4738 21.668C32.4769 21.9398 32.4988 22.2189 32.4592 22.5002Z" fill="#3B3B3B"/>
    <path d="M29.9592 23.3335C29.1394 23.3335 28.3207 23.3335 27.5009 23.3335C27.3957 23.0533 27.3999 22.7731 27.4989 22.4929C28.3165 22.4794 29.1342 22.3742 29.9717 22.4617C29.9769 22.7731 29.9988 23.0523 29.9592 23.3335Z" fill="#3B3B3B"/>
    <path d="M43.2921 18.3339C42.4723 18.3339 41.6536 18.3339 40.8338 18.3339C40.7286 18.0537 40.7328 17.7735 40.8328 17.4933C41.6505 17.4808 42.4681 17.3694 43.3056 17.4662C43.3098 17.7735 43.3316 18.0526 43.2921 18.3339Z" fill="#3B3B3B"/>
    <path d="M49.9585 15.834C49.1387 15.834 48.32 15.834 47.5002 15.834C47.395 15.5539 47.3992 15.2737 47.4981 14.9935C48.3158 14.982 49.1335 14.8695 49.9709 14.9664C49.9762 15.2737 49.998 15.5528 49.9585 15.834Z" fill="#3B3B3B"/>
    <path d="M23.2928 6.66814C23.3085 6.66294 23.3231 6.6671 23.3272 6.68272C23.3324 6.70147 23.3335 6.7223 23.3335 6.74209C23.3335 6.95666 23.3335 7.17227 23.3335 7.38683C23.3335 7.40662 23.3366 7.42641 23.3376 7.44308C23.346 7.45037 23.3512 7.4587 23.3564 7.4587C23.4189 7.45974 23.4814 7.45974 23.5439 7.45974C26.7198 7.45974 29.8957 7.45974 33.0716 7.45974C33.1404 7.45974 33.2091 7.45245 33.2768 7.46599C33.2925 7.46912 33.2966 7.48474 33.2914 7.50036C33.281 7.50974 33.2706 7.51911 33.2612 7.52849C33.1362 7.58786 33.0019 7.56703 32.8716 7.56703C29.8457 7.56807 26.8198 7.56807 23.7939 7.56911C23.6782 7.56911 23.5574 7.54932 23.4387 7.61286C23.3397 7.84305 23.4689 8.10865 23.3481 8.33884C23.2856 8.393 23.2085 8.39821 23.1324 8.39925C22.7168 8.40342 22.3002 8.40342 21.8846 8.39925C21.8085 8.39821 21.7314 8.39404 21.6408 8.31905C21.569 8.06803 21.5992 7.7868 21.6127 7.50557C21.6887 7.42641 21.7898 7.43891 21.8846 7.43787C22.2283 7.43475 22.5731 7.43787 22.9168 7.43579C23.0054 7.43579 23.096 7.4462 23.1928 7.39412C23.2856 7.17539 23.1741 6.92333 23.2668 6.69522C23.2751 6.68689 23.2835 6.67752 23.2928 6.66814Z" fill="#DCBB9C"/>
    <path d="M17.4598 4.16839C17.4755 4.16318 17.49 4.16735 17.4942 4.18297C17.4994 4.20172 17.5005 4.22255 17.5005 4.24234C17.5005 4.44961 17.5005 4.65585 17.5005 4.86312C17.5005 4.8902 17.5005 4.91728 17.5005 4.93499C17.513 4.9579 17.5255 4.95999 17.54 4.95999C18.0369 4.95895 18.5337 4.95895 19.0306 4.95999C19.0577 4.95999 19.0848 4.96207 19.1108 4.96728C19.1264 4.9704 19.1306 4.98603 19.1254 5.00165C19.116 5.00998 19.1066 5.01936 19.0973 5.02769C18.9514 5.09123 18.7983 5.06206 18.6483 5.06415C18.3723 5.06831 18.0973 5.06415 17.8213 5.06623C17.7463 5.06623 17.6692 5.0579 17.5963 5.11102C17.5025 5.34641 17.64 5.61722 17.5025 5.85054C17.4609 5.87866 17.415 5.89324 17.3661 5.89429C16.9036 5.9047 16.4411 5.90574 15.9786 5.89324C15.9297 5.8922 15.8838 5.87762 15.8109 5.8245C15.7359 5.5714 15.7641 5.28496 15.7828 4.99957C15.863 4.9277 15.963 4.93707 16.0588 4.93707C16.4047 4.93395 16.7505 4.93707 17.0963 4.93603C17.1848 4.93603 17.2755 4.94436 17.3609 4.89541C17.4557 4.66001 17.3171 4.39441 17.4598 4.16839Z" fill="#DCBB9C"/>
    <path d="M43.2921 18.3339C43.2921 18.0641 43.2921 17.7944 43.2911 17.5246C43.2911 17.5194 43.2828 17.5142 43.2786 17.509C43.2723 17.5058 43.2671 17.5006 43.2609 17.5006C42.4515 17.5006 41.6422 17.5006 40.8329 17.5006C40.8193 17.5152 40.8047 17.5152 40.7912 17.5006C40.786 17.485 40.7901 17.4704 40.8058 17.4663C40.8245 17.4611 40.8454 17.46 40.8651 17.46C41.0933 17.46 41.3203 17.46 41.5485 17.46C41.5818 17.46 41.6162 17.46 41.6453 17.46C41.6547 17.4506 41.662 17.4465 41.6641 17.4402C41.6672 17.435 41.6662 17.4267 41.6662 17.4204C41.6662 17.1788 41.6662 16.9371 41.6662 16.6955C41.6662 16.6903 41.6724 16.6851 41.6766 16.6788C41.6818 16.6757 41.687 16.6684 41.6932 16.6684C42.2182 16.6684 42.7432 16.6684 43.2682 16.6684C43.2828 16.6549 43.2963 16.6403 43.3119 16.6268C43.3161 16.6236 43.3255 16.6268 43.3317 16.6268C43.3484 16.6465 43.363 16.6695 43.3734 16.6934C43.389 16.9642 43.4494 17.2382 43.3317 17.5017C43.3317 17.7683 43.3317 18.036 43.3317 18.3027C43.3338 18.3193 43.3213 18.3287 43.2921 18.3339Z" fill="#CA9775"/>
    <path d="M36.6673 19.1671C36.6673 19.4452 36.6673 19.7223 36.6673 20.0004C36.6673 20.267 36.6673 20.5347 36.6673 20.8014C36.6673 20.8191 36.6548 20.8285 36.6256 20.8337C36.6256 20.5639 36.6256 20.2941 36.6246 20.0244C36.6246 20.0191 36.6163 20.0139 36.6121 20.0087C36.6058 20.0056 36.6006 20.0004 36.5944 20.0004C35.785 20.0004 34.9757 20.0004 34.1664 20.0004C34.1528 20.015 34.1382 20.015 34.1247 20.0004C34.1195 19.9848 34.1236 19.9702 34.1393 19.966C34.158 19.9608 34.1788 19.9598 34.1986 19.9598C34.4268 19.9598 34.6538 19.9598 34.8819 19.9598C34.9153 19.9598 34.9497 19.9598 34.9788 19.9598C34.9882 19.9504 34.9955 19.9462 34.9976 19.94C35.0007 19.9348 34.9997 19.9264 34.9997 19.9202C34.9997 19.6785 34.9997 19.4369 34.9997 19.1953C34.9997 19.19 35.0059 19.1848 35.0101 19.1786C35.0153 19.1755 35.0205 19.1682 35.0267 19.1682C35.5517 19.1682 36.0767 19.1682 36.6017 19.1682C36.6163 19.1546 36.6298 19.1401 36.6454 19.1265C36.6496 19.1234 36.659 19.1265 36.6652 19.1265C36.6798 19.1359 36.685 19.1453 36.6798 19.1546C36.6767 19.1619 36.6725 19.1671 36.6673 19.1671Z" fill="#CA9775"/>
    <path d="M47.5003 15.0009C47.5003 15.279 47.5003 15.556 47.5003 15.8341C47.5003 16.1008 47.5003 16.3685 47.5003 16.6351C47.5003 16.6528 47.4878 16.6622 47.4586 16.6674C47.4586 16.3976 47.4586 16.1279 47.4576 15.8581C47.4576 15.8529 47.4493 15.8477 47.4451 15.8425C47.4388 15.8393 47.4336 15.8341 47.4274 15.8341C46.618 15.8341 45.8087 15.8341 44.9994 15.8341C44.9858 15.8487 44.9712 15.8487 44.9577 15.8341C44.9525 15.8185 44.9567 15.8039 44.9723 15.7998C44.991 15.7946 45.0119 15.7935 45.0317 15.7935C45.2598 15.7935 45.4868 15.7935 45.715 15.7935C45.7483 15.7935 45.7827 15.7935 45.8118 15.7935C45.8212 15.7841 45.8285 15.78 45.8306 15.7737C45.8337 15.7685 45.8327 15.7602 45.8327 15.7539C45.8327 15.5123 45.8327 15.2706 45.8327 15.029C45.8327 15.0238 45.8389 15.0186 45.8431 15.0123C45.8483 15.0092 45.8535 15.0019 45.8597 15.0019C46.3847 15.0019 46.9097 15.0019 47.4347 15.0019C47.4493 14.9884 47.4628 14.9738 47.4784 14.9603C47.4826 14.9571 47.492 14.9603 47.4982 14.9603C47.5128 14.9696 47.518 14.979 47.5128 14.9884C47.5097 14.9957 47.5055 15.0009 47.5003 15.0009Z" fill="#CA9775"/>
    <path d="M47.5002 15.0008C47.5002 14.9872 47.5002 14.9726 47.5002 14.9591C47.77 14.9591 48.0408 14.9591 48.3106 14.9591C48.3179 14.9487 48.3325 14.9383 48.3325 14.9279C48.3335 14.7133 48.3335 14.4987 48.3335 14.2831C48.3335 14.2498 48.3294 14.2154 48.3367 14.1842C48.344 14.1769 48.3492 14.1675 48.3533 14.1675C48.8804 14.1665 49.4064 14.1665 49.9345 14.1665C49.9491 14.1529 49.9626 14.1383 49.9783 14.1248C49.9824 14.1217 49.9918 14.1248 49.9991 14.1248C50.0158 14.1446 50.0304 14.1675 50.0408 14.1915C50.0564 14.4623 50.1168 14.7362 49.9991 14.9997C49.9991 15.2664 49.9991 15.5341 49.9991 15.8007C49.9991 15.8184 49.9866 15.8278 49.9574 15.833C49.9574 15.5632 49.9574 15.2935 49.9564 15.0237C49.9564 15.0185 49.9481 15.0133 49.9439 15.0081C49.9376 15.0049 49.9324 14.9997 49.9262 14.9997C49.1189 15.0008 48.3096 15.0008 47.5002 15.0008Z" fill="#CA9775"/>
    <path d="M36.6675 19.1671C36.6675 19.1535 36.6675 19.139 36.6675 19.1254C36.9373 19.1254 37.2081 19.1254 37.4779 19.1254C37.4852 19.115 37.4997 19.1046 37.4997 19.0942C37.5008 18.8796 37.5008 18.665 37.5008 18.4494C37.5008 18.4161 37.4945 18.3817 37.506 18.3494C37.5112 18.3432 37.5164 18.3349 37.5216 18.3349C38.0487 18.3338 38.5747 18.3338 39.1028 18.3338C39.1174 18.3203 39.1309 18.3057 39.1466 18.2922C39.1507 18.289 39.1601 18.2922 39.1674 18.2922C39.1841 18.312 39.1986 18.3349 39.2091 18.3588C39.2247 18.6296 39.2851 18.9036 39.1674 19.1671C39.1674 19.4337 39.1674 19.7014 39.1674 19.9681C39.1674 19.9858 39.1549 19.9951 39.1257 20.0004C39.1257 19.7306 39.1257 19.4608 39.1247 19.191C39.1247 19.1858 39.1163 19.1806 39.1122 19.1754C39.1059 19.1723 39.1007 19.1671 39.0945 19.1671C38.2862 19.1671 37.4768 19.1671 36.6675 19.1671Z" fill="#CA9775"/>
    <path d="M29.9591 23.3335C29.9591 23.0637 29.9591 22.7939 29.9581 22.5242C29.9581 22.519 29.9498 22.5138 29.9456 22.5086C29.9393 22.5054 29.9341 22.5002 29.9279 22.5002C29.1185 22.5002 28.3092 22.5002 27.4999 22.5002C27.4884 22.4908 27.4842 22.4815 27.4884 22.4721C27.4926 22.4627 27.4967 22.4586 27.4999 22.4586C27.7696 22.4586 28.0405 22.4586 28.3102 22.4586C28.3175 22.4481 28.3321 22.4377 28.3321 22.4273C28.3332 22.2127 28.3332 21.9982 28.3332 21.7826C28.3332 21.7492 28.3269 21.7149 28.3384 21.6826C28.3446 21.6763 28.3488 21.668 28.354 21.668C28.8811 21.667 29.4071 21.667 29.9352 21.667C29.9498 21.6534 29.9633 21.6388 29.9789 21.6253C29.9831 21.6222 29.9925 21.6253 29.9998 21.6253C30.0143 21.6347 30.0195 21.644 30.0143 21.6534C30.0091 21.6628 30.005 21.667 29.9998 21.667C29.9998 21.9451 29.9998 22.2221 29.9998 22.5002C29.9998 22.7669 29.9998 23.0345 29.9998 23.3012C30.0008 23.3189 29.9883 23.3283 29.9591 23.3335Z" fill="#CA9775"/>
    <path d="M27.5009 22.4585C27.5009 22.4721 27.5009 22.4867 27.5009 22.5002C27.5009 22.7783 27.5009 23.0554 27.5009 23.3335C27.5009 23.6001 27.5009 23.8678 27.5009 24.1344C27.5009 24.1522 27.4884 24.1615 27.4593 24.1667C27.4593 23.897 27.4593 23.6272 27.4582 23.3574C27.4582 23.3522 27.4499 23.347 27.4457 23.3418C27.4395 23.3387 27.4343 23.3335 27.428 23.3335C26.6187 23.3335 25.8093 23.3335 25 23.3335C25 23.3199 25 23.3053 25 23.2918C25.2698 23.2918 25.5406 23.2918 25.8104 23.2918C25.8177 23.2814 25.8323 23.271 25.8323 23.2606C25.8333 23.046 25.8333 22.8314 25.8333 22.6158C25.8333 22.5825 25.8271 22.5481 25.8385 22.5158C25.8448 22.5096 25.8489 22.5012 25.8541 22.5012C26.3812 22.5002 26.9072 22.5002 27.4353 22.5002C27.4499 22.4867 27.4634 22.4721 27.4791 22.4585C27.4843 22.4554 27.4937 22.4585 27.5009 22.4585Z" fill="#CA9775"/>
    <path d="M14.1682 20.8337C13.6162 20.8337 13.0651 20.8337 12.5204 20.8337C12.51 20.8191 12.5027 20.8139 12.5027 20.8087C12.5016 20.5389 12.5027 20.2702 12.5027 20.0004C12.5131 19.9911 12.5225 19.9827 12.5329 19.9734C12.7412 19.9025 12.9599 19.915 13.1662 19.9442C13.4682 19.9869 13.7693 19.9723 14.0703 19.9807C14.1047 19.9817 14.1391 19.9796 14.1693 20.0004C14.2797 20.265 14.2432 20.5348 14.1963 20.8045C14.1859 20.8139 14.1776 20.8243 14.1682 20.8337Z" fill="#3B3B3B"/>
    <path d="M10.835 19.2088C10.835 19.1953 10.835 19.1807 10.835 19.1672C10.9016 19.1067 10.985 19.1015 11.0683 19.1015C11.4683 19.0995 11.8683 19.0995 12.2682 19.1015C12.3516 19.1026 12.4349 19.1067 12.5016 19.1672C12.6047 19.4453 12.6047 19.7223 12.5016 20.0004C11.9495 20.0004 11.3985 20.0004 10.8537 20.0004C10.8433 19.9858 10.836 19.9806 10.836 19.9754C10.835 19.7202 10.835 19.464 10.835 19.2088Z" fill="#3B3B3B"/>
    <path d="M16.668 22.5002C16.1159 22.5002 15.5649 22.5002 15.0201 22.5002C15.0097 22.4856 15.0024 22.4804 15.0024 22.4752C15.0014 22.2054 15.0024 21.9367 15.0024 21.6669C15.0128 21.6576 15.0222 21.6492 15.0326 21.6399C15.2409 21.569 15.4597 21.5815 15.6659 21.6107C15.968 21.6534 16.269 21.6388 16.5701 21.6472C16.6044 21.6482 16.6388 21.6461 16.669 21.6669C16.7794 21.9315 16.743 22.2013 16.6961 22.471C16.6857 22.4804 16.6774 22.4908 16.668 22.5002Z" fill="#3B3B3B"/>
    <path d="M19.168 23.3335C19.168 23.6116 19.168 23.8886 19.168 24.1667C18.6159 24.1667 18.0649 24.1667 17.5201 24.1667C17.5097 24.1521 17.5024 24.1469 17.5024 24.1417C17.5014 23.872 17.5024 23.6032 17.5024 23.3335C17.5128 23.3241 17.5222 23.3157 17.5326 23.3064C17.7409 23.2355 17.9597 23.248 18.1659 23.2772C18.468 23.3199 18.769 23.3053 19.0701 23.3137C19.1034 23.3137 19.1378 23.3126 19.168 23.3335Z" fill="#3B3B3B"/>
    <path d="M53.2918 14.1675C52.7501 14.1675 52.2085 14.1675 51.6668 14.1675C51.5627 13.8894 51.5637 13.6123 51.6668 13.3342C51.6793 13.328 51.6918 13.3165 51.7043 13.3176C52.1408 13.3457 52.572 13.2624 53.0074 13.2676C53.1032 13.2686 53.2012 13.2634 53.3053 13.3363C53.3084 13.6071 53.3314 13.8873 53.2918 14.1675Z" fill="#3B3B3B"/>
    <path d="M43.3337 17.5007C43.3337 17.2226 43.3337 16.9455 43.3337 16.6674C43.3462 16.6611 43.3587 16.6497 43.3712 16.6507C43.8077 16.6799 44.2389 16.5955 44.6743 16.6018C44.7701 16.6028 44.8691 16.5934 44.9722 16.6757C44.9764 16.9413 44.9983 17.2215 44.9587 17.5017C44.417 17.5007 43.8754 17.5007 43.3337 17.5007Z" fill="#3B3B3B"/>
    <path d="M39.1672 19.1672C39.1672 18.8891 39.1672 18.612 39.1672 18.3339C39.1797 18.3276 39.1922 18.3162 39.2047 18.3172C39.6412 18.3464 40.0724 18.262 40.5078 18.2683C40.6036 18.2693 40.7026 18.2599 40.8057 18.3422C40.8099 18.6078 40.8318 18.888 40.7922 19.1682C40.2505 19.1672 39.7089 19.1672 39.1672 19.1672Z" fill="#3B3B3B"/>
    <path d="M34.1259 21.6669C33.5842 21.6669 33.0426 21.6669 32.5009 21.6669C32.3978 21.3888 32.3978 21.1117 32.5009 20.8336C32.5134 20.8274 32.5259 20.8159 32.5384 20.817C32.9749 20.8451 33.4061 20.7618 33.8415 20.767C33.9373 20.768 34.0363 20.7586 34.1394 20.8409C34.1436 21.1065 34.1654 21.3867 34.1259 21.6669Z" fill="#3B3B3B"/>
    <path d="M50.0002 15.0008C50.0002 14.7227 50.0002 14.4456 50.0002 14.1675C50.0127 14.1613 50.0252 14.1498 50.0377 14.1508C50.4742 14.18 50.9054 14.0956 51.3408 14.1019C51.4366 14.1029 51.5356 14.0936 51.6387 14.1758C51.6429 14.4414 51.6648 14.7216 51.6252 15.0018C51.0835 15.0008 50.5419 15.0008 50.0002 15.0008Z" fill="#3B3B3B"/>
    <path d="M8.29353 3.33516C8.03833 3.33516 7.78209 3.33516 7.52689 3.33516C7.52168 3.33516 7.51647 3.32787 7.51126 3.32371C7.50814 3.3185 7.50293 3.31225 7.50293 3.30704C7.50293 2.76125 7.50293 2.21547 7.50293 1.66968C7.76646 1.66968 8.03103 1.66968 8.29457 1.66968C8.33936 2.06027 8.30707 2.45295 8.31227 2.84458C8.31332 3.00707 8.33832 3.17268 8.29353 3.33516Z" fill="#3B3B3B"/>
    <path d="M54.1668 8.33472C54.1668 9.72314 54.1668 11.1126 54.1668 12.501C54.1668 12.7677 54.1668 13.0354 54.1668 13.302C54.1668 13.3197 54.1543 13.3291 54.1251 13.3343C54.0418 13.2343 54.0699 13.1135 54.0626 12.9989C54.0543 12.8698 54.0835 12.7385 54.0293 12.6042C53.8127 12.5062 53.5668 12.6208 53.3491 12.524C53.3252 12.5073 53.32 12.4854 53.3335 12.4604C53.3335 12.2042 53.3335 11.9469 53.3335 11.6907C53.3439 11.6834 53.3554 11.6699 53.3658 11.6699C53.5877 11.6688 53.8095 11.6688 54.0324 11.6688C54.0595 11.6688 54.0866 11.6761 54.1126 11.6615C54.1168 11.6563 54.1251 11.6511 54.1251 11.6459C54.1262 10.5429 54.1262 9.43983 54.1262 8.33576C54.0231 8.05766 54.0231 7.7806 54.1262 7.50249C54.1418 7.49729 54.1564 7.50145 54.1606 7.51708C54.1658 7.53582 54.1678 7.55561 54.1678 7.5754C54.1678 7.81497 54.1678 8.05453 54.1678 8.29409C54.1835 8.30347 54.1887 8.31284 54.1835 8.32222C54.1772 8.32951 54.172 8.33472 54.1668 8.33472Z" fill="#C99674"/>
    <path d="M34.1676 9.16797C34.1676 10.5564 34.1676 11.9459 34.1676 13.3343C34.1582 13.3426 34.1488 13.352 34.1394 13.3603C33.8707 13.4145 33.603 13.4259 33.3363 13.351C33.3165 13.3332 33.303 13.3114 33.2936 13.2864C33.2676 13.0249 33.2634 12.7656 33.3009 12.5177C33.4603 12.4062 33.6176 12.4562 33.7655 12.4427C33.8582 12.4344 33.9634 12.4719 34.0332 12.375C34.0696 12.2813 34.0592 12.1833 34.0592 12.0875C34.0624 11.1407 34.054 10.1929 34.0634 9.24609C34.0644 9.22005 34.0655 9.19401 34.0655 9.16797C34.0769 8.90028 34.028 8.62947 34.0988 8.36387C34.1071 8.35449 34.1165 8.34512 34.1259 8.33575C34.1415 8.33054 34.1561 8.3347 34.1603 8.35033C34.1655 8.36908 34.1676 8.38991 34.1676 8.40866C34.1676 8.66072 34.1676 8.91486 34.1676 9.16797Z" fill="#C99674"/>
    <path d="M20.7929 5.83489C20.8085 5.82968 20.8231 5.83385 20.8272 5.84947C20.8324 5.86822 20.8335 5.88905 20.8335 5.90884C20.8335 6.11612 20.8335 6.32339 20.8345 6.53067C20.8345 6.55775 20.8293 6.58483 20.8397 6.61087C20.8481 6.62649 20.8595 6.62753 20.8751 6.62753C21.6418 6.62649 22.4095 6.62649 23.1761 6.62753C23.2094 6.62753 23.2438 6.62962 23.2771 6.63482C23.2928 6.63691 23.2969 6.65357 23.2917 6.6692C23.198 6.7494 23.0844 6.73377 22.9751 6.73377C22.3959 6.73586 21.8157 6.73377 21.2366 6.73482C21.1408 6.73482 21.0429 6.72232 20.9408 6.77335C20.8314 7.00354 20.972 7.27644 20.8449 7.50975C20.5637 7.61599 20.2825 7.57225 19.9908 7.53162C19.8991 7.2379 19.9366 6.95771 19.9439 6.67857C20.0168 6.59212 20.1189 6.61191 20.2137 6.6067C20.371 6.59733 20.5304 6.62441 20.6908 6.57754C20.7866 6.34318 20.6762 6.09112 20.7679 5.86197C20.7752 5.8526 20.7845 5.84322 20.7929 5.83489Z" fill="#DBBA9B"/>
    <path d="M32.5009 20.8337C32.5009 21.1118 32.5009 21.3888 32.5009 21.6669C32.5009 21.9336 32.5009 22.2013 32.5009 22.4679C32.5009 22.4856 32.4884 22.495 32.4593 22.5002C32.4593 22.2304 32.4593 21.9607 32.4582 21.6909C32.4582 21.6857 32.4499 21.6805 32.4457 21.6753C32.4395 21.6722 32.4343 21.6669 32.428 21.6669C31.6187 21.6669 30.8093 21.6669 30 21.6669C30 21.6534 30 21.6388 30 21.6253C30.5479 21.6253 31.0958 21.6253 31.6437 21.6242C31.6489 21.6242 31.6541 21.6159 31.6593 21.6107C31.6739 21.5638 31.6645 21.5159 31.6656 21.468C31.6666 21.4128 31.6656 21.3566 31.6656 21.3014C31.6656 21.2524 31.6656 21.2045 31.6656 21.1555C31.6656 21.1003 31.6645 21.0441 31.6656 20.9889C31.6666 20.941 31.6583 20.8931 31.6718 20.8462C31.677 20.841 31.6822 20.8326 31.6874 20.8326C31.9593 20.8337 32.2301 20.8337 32.5009 20.8337Z" fill="#C99674"/>
    <path d="M19.1263 5.00164C19.1419 4.99643 19.1565 5.0006 19.1607 5.01622C19.1659 5.03497 19.1669 5.0558 19.1669 5.07559C19.1669 5.28287 19.1669 5.4891 19.1669 5.69637C19.1669 5.72345 19.1669 5.75053 19.1669 5.76824C19.1794 5.79116 19.1919 5.79324 19.2065 5.79324C19.7033 5.7922 20.2002 5.7922 20.6971 5.79324C20.7241 5.79324 20.7512 5.79532 20.7773 5.80053C20.7929 5.80366 20.797 5.81928 20.7918 5.8349C20.7116 5.90573 20.6127 5.89844 20.5158 5.89948C20.1908 5.90156 19.8669 5.89948 19.5419 5.90052C19.4533 5.90052 19.3617 5.88906 19.269 5.93906C19.1648 6.17237 19.3054 6.44423 19.1742 6.67962C18.8919 6.77753 18.6107 6.74316 18.3169 6.69421C18.2388 6.39736 18.2628 6.11717 18.2794 5.83699C18.3784 5.74637 18.5013 5.77762 18.6169 5.77137C18.7482 5.76407 18.8805 5.78387 19.0127 5.74845C19.0919 5.6245 19.0513 5.4891 19.0617 5.36098C19.0711 5.23912 19.0377 5.10996 19.1263 5.00164Z" fill="#DBBA9B"/>
    <path d="M34.1258 9.16792C34.1258 9.18146 34.1258 9.19605 34.1258 9.20959C33.8696 9.33458 33.5998 9.25854 33.3362 9.26271C33.0633 9.195 32.7738 9.28145 32.48 9.18146C32.4092 8.90024 32.43 8.61589 32.4519 8.33153C32.5675 8.24404 32.704 8.2805 32.8321 8.27216C32.9488 8.26487 33.0665 8.2857 33.1863 8.24404C33.2613 8.11593 33.2185 7.97427 33.229 7.83991C33.2383 7.72429 33.2092 7.60243 33.2935 7.50139C33.3092 7.49619 33.3238 7.50035 33.3279 7.51598C33.3331 7.53473 33.3352 7.55556 33.3352 7.57535C33.3352 7.80866 33.3352 8.04197 33.3352 8.27008C33.3467 8.28883 33.3581 8.293 33.3727 8.293C33.6133 8.293 33.8539 8.293 34.0946 8.293C34.1133 8.293 34.1227 8.30549 34.1268 8.33466C34.0258 8.41903 33.9039 8.3909 33.7894 8.39715C33.6737 8.4034 33.555 8.38257 33.4248 8.43257C33.379 8.63776 33.3925 8.84712 33.4154 9.05856C33.6477 9.17417 33.9102 9.02523 34.1258 9.16792Z" fill="#DBBA9B"/>
    <path d="M53.3335 12.4594C53.3335 12.4729 53.3335 12.4875 53.3335 12.5011C53.4366 12.7792 53.4366 13.0562 53.3335 13.3343C53.3335 13.601 53.3335 13.8687 53.3335 14.1353C53.3335 14.153 53.321 14.1624 53.2918 14.1676C53.2918 13.8978 53.2918 13.6291 53.2918 13.3593C53.2918 13.3541 53.2845 13.3489 53.2803 13.3437C53.2751 13.3406 53.2689 13.3354 53.2637 13.3354C52.7314 13.3354 52.1991 13.3354 51.6679 13.3354C51.6627 13.3197 51.6669 13.3052 51.6825 13.301C51.7012 13.2958 51.7221 13.2947 51.7419 13.2937C51.9898 13.2937 52.2366 13.2937 52.4845 13.2937C52.5179 13.2395 52.496 13.1843 52.5002 13.1312C52.5043 13.0833 52.5012 13.0343 52.5012 12.9864C52.5012 12.9312 52.5012 12.876 52.5012 12.8208C52.5012 12.7729 52.4991 12.724 52.5012 12.676C52.5033 12.6219 52.4918 12.5677 52.5064 12.5156C52.5137 12.5094 52.5189 12.5021 52.5241 12.5021C52.772 12.5011 53.0199 12.5011 53.2699 12.5011C53.2845 12.4875 53.298 12.4729 53.3137 12.4594C53.3168 12.4563 53.3262 12.4594 53.3335 12.4594Z" fill="#C99674"/>
    <path d="M34.1258 21.6669C34.1258 21.3971 34.1258 21.1284 34.1258 20.8587C34.1258 20.8534 34.1185 20.8482 34.1143 20.843C34.1091 20.8399 34.1029 20.8347 34.0977 20.8347C33.5654 20.8347 33.0331 20.8347 32.5019 20.8347C32.4967 20.8191 32.5008 20.8045 32.5165 20.8003C32.5352 20.7951 32.556 20.7941 32.5758 20.7941C32.7894 20.7941 33.0039 20.7941 33.2175 20.7941C33.2508 20.7941 33.2852 20.7941 33.3144 20.7941C33.3237 20.7847 33.3331 20.7795 33.3331 20.7743C33.3373 20.5201 33.3341 20.267 33.3352 20.0202C33.3498 20.0098 33.355 20.0035 33.3612 20.0035C33.6164 20.0025 33.8716 20.0035 34.1268 20.0035C34.1404 20.0035 34.1549 20.0035 34.1685 20.0035C34.1685 20.2816 34.1685 20.5587 34.1685 20.8368C34.1685 21.1034 34.1685 21.3711 34.1685 21.6378C34.1674 21.6523 34.1549 21.6617 34.1258 21.6669Z" fill="#C99674"/>
    <path d="M51.6251 15.0008C51.6251 14.731 51.6251 14.4623 51.6251 14.1925C51.6251 14.1873 51.6178 14.1821 51.6137 14.1769C51.6085 14.1737 51.6022 14.1685 51.597 14.1685C51.0647 14.1685 50.5325 14.1685 50.0012 14.1685C50.0012 14.155 50.0012 14.1404 50.0012 14.1269C50.272 14.1269 50.5418 14.1269 50.8127 14.1269C50.8199 14.1165 50.8335 14.106 50.8335 14.0946C50.8345 13.8727 50.8345 13.6509 50.8345 13.429C50.8345 13.4019 50.8283 13.3749 50.8408 13.3488C50.846 13.3436 50.8512 13.3353 50.8564 13.3353C51.1272 13.3342 51.397 13.3342 51.6678 13.3342C51.6678 13.6123 51.6678 13.8894 51.6678 14.1675C51.6678 14.4341 51.6678 14.7018 51.6678 14.9685C51.6668 14.9862 51.6543 14.9955 51.6251 15.0008Z" fill="#C99674"/>
    <path d="M44.9589 17.5006C44.9589 17.2309 44.9589 16.9621 44.9589 16.6924C44.9589 16.6872 44.9516 16.682 44.9474 16.6767C44.9422 16.6736 44.9359 16.6684 44.9307 16.6684C44.3985 16.6684 43.8662 16.6684 43.335 16.6684C43.335 16.6549 43.335 16.6403 43.335 16.6267C43.6058 16.6267 43.8756 16.6267 44.1464 16.6267C44.1537 16.6163 44.1672 16.6059 44.1672 16.5945C44.1683 16.3726 44.1683 16.1507 44.1683 15.9289C44.1683 15.9018 44.1631 15.8747 44.1735 15.8497C44.1797 15.8445 44.1849 15.8351 44.1901 15.8351C44.4464 15.8341 44.7037 15.8341 44.9599 15.8341C44.9734 15.8341 44.988 15.8341 45.0016 15.8341C45.0016 16.1122 45.0016 16.3893 45.0016 16.6674C45.0016 16.934 45.0016 17.2017 45.0016 17.4683C45.0005 17.4861 44.988 17.4954 44.9589 17.5006Z" fill="#C99674"/>
    <path d="M40.7924 19.1671C40.7924 18.8974 40.7924 18.6286 40.7924 18.3589C40.7924 18.3537 40.7851 18.3485 40.7809 18.3432C40.7757 18.3401 40.7694 18.3349 40.7642 18.3349C40.232 18.3349 39.6997 18.3349 39.1685 18.3349C39.1685 18.3214 39.1685 18.3068 39.1685 18.2933C39.4393 18.2933 39.7091 18.2933 39.9799 18.2933C39.9872 18.2828 40.0007 18.2724 40.0007 18.261C40.0018 18.0391 40.0018 17.8173 40.0018 17.5954C40.0018 17.5683 39.9966 17.5412 40.007 17.5162C40.0132 17.511 40.0184 17.5017 40.0236 17.5017C40.2799 17.5006 40.5372 17.5006 40.7934 17.5006C40.8069 17.5006 40.8215 17.5006 40.8351 17.5006C40.8351 17.7787 40.8351 18.0558 40.8351 18.3339C40.8351 18.6005 40.8351 18.8682 40.8351 19.1348C40.834 19.1526 40.8215 19.1619 40.7924 19.1671Z" fill="#C99674"/>
    <path d="M15.0015 21.6669C14.7276 21.6669 14.4526 21.6669 14.1849 21.6669C14.1745 21.6513 14.1682 21.6461 14.1682 21.6399C14.1682 21.3711 14.1682 21.1024 14.1682 20.8337C14.4463 20.7306 14.7234 20.7306 15.0015 20.8337C15.1046 21.1107 15.1046 21.3888 15.0015 21.6669Z" fill="#3B3B3B"/>
    <path d="M17.5013 23.3335C17.2325 23.3335 16.9638 23.3335 16.6951 23.3335C16.6898 23.3335 16.6846 23.3272 16.6784 23.323C16.6753 23.3178 16.668 23.3126 16.668 23.3064C16.668 23.0376 16.668 22.7689 16.668 22.5002C16.9461 22.3971 17.2232 22.3971 17.5013 22.5002C17.6044 22.7772 17.6044 23.0554 17.5013 23.3335Z" fill="#3B3B3B"/>
    <path d="M7.46016 0.835327C7.46016 1.10614 7.46016 1.37591 7.46016 1.64672C7.44974 1.65401 7.43933 1.66755 7.42787 1.66755C7.18517 1.66859 6.94247 1.66859 6.69977 1.66859C6.69352 1.66859 6.68831 1.66442 6.68206 1.66234C6.6779 1.65713 6.66852 1.65193 6.66852 1.64776C6.66748 1.37695 6.66748 1.10718 6.66748 0.836369C6.93205 0.835327 7.19663 0.835327 7.46016 0.835327Z" fill="#3B3B3B"/>
    <path d="M53.3335 13.3342C53.3335 13.0561 53.3335 12.7791 53.3335 12.501C53.5887 12.501 53.8439 12.501 54.098 12.501C54.1033 12.501 54.1085 12.5072 54.1147 12.5114C54.1178 12.5166 54.1241 12.5218 54.1241 12.5281C54.1241 12.7968 54.1241 13.0655 54.1241 13.3342C53.8616 13.3342 53.597 13.3342 53.3335 13.3342Z" fill="#3B3B3B"/>
    <path d="M8.29346 3.33516C8.29346 2.78 8.29346 2.22379 8.29346 1.66863C8.30908 1.66342 8.32471 1.66759 8.32783 1.68321C8.33304 1.70925 8.33512 1.73633 8.33512 1.76341C8.33512 2.28733 8.33512 2.81124 8.33512 3.33516C8.32158 3.33516 8.307 3.33516 8.29346 3.33516Z" fill="#483D4E"/>
    <path d="M54.1667 8.33475C54.1667 8.32121 54.1667 8.30663 54.1667 8.29309C54.4199 8.29309 54.673 8.29309 54.9261 8.29309C54.9438 8.29309 54.9532 8.30559 54.9584 8.33475C54.6949 8.33475 54.4303 8.33475 54.1667 8.33475Z" fill="#DCBB9C"/>
    <path d="M32.4592 8.33469C32.4592 8.34198 32.4561 8.35135 32.4592 8.35448C32.4738 8.36906 32.4905 8.38052 32.5009 8.38885C32.5009 8.65237 32.5009 8.90443 32.5009 9.15025C32.5165 9.16066 32.5217 9.16691 32.528 9.16691C32.7749 9.16691 33.0228 9.16691 33.28 9.16691C33.2884 9.17733 33.3009 9.19295 33.3144 9.20857C33.3175 9.2117 33.328 9.20857 33.3342 9.20857C33.3998 9.28253 33.3998 9.37419 33.3998 9.46376C33.4019 10.095 33.404 10.7262 33.3988 11.3574C33.3967 11.6677 33.3321 11.7229 33.0113 11.7334C32.8748 11.7375 32.7332 11.7052 32.6061 11.7771C32.5478 11.8844 32.5686 11.9979 32.5676 12.1073C32.5634 12.5302 32.5301 12.5645 32.0988 12.5656C31.9457 12.5666 31.7936 12.5656 31.6405 12.5656C29.2958 12.5656 26.9511 12.5656 24.6064 12.5666C24.497 12.5666 24.3835 12.5489 24.2804 12.6041C24.221 12.6843 24.2345 12.777 24.2325 12.8656C24.2241 13.3884 24.222 13.3905 23.6887 13.3989C23.6064 13.3999 23.5221 13.3905 23.4283 13.4509C23.3658 13.6384 23.419 13.8499 23.3887 14.053C23.3867 14.078 23.3815 14.1019 23.3752 14.1259C23.319 14.355 23.3565 14.5883 23.3502 14.8196C23.3492 14.8644 23.3762 14.8956 23.4148 14.9164C23.571 14.955 23.7294 14.9279 23.8866 14.9362C23.9752 14.9414 24.0658 14.9341 24.145 14.9873C24.2325 15.0664 24.2252 15.1737 24.2304 15.2768C24.2377 15.4216 24.2137 15.5685 24.2554 15.707C24.4231 15.7789 32.1343 15.7955 32.3905 15.7247C32.4947 15.4945 32.3644 15.2299 32.4811 14.9977C32.629 14.8925 32.7998 14.9446 32.9603 14.9341C33.0623 14.9279 33.1655 14.931 33.2686 14.9331C33.53 14.9352 33.7925 14.9446 34.056 14.9237C34.154 14.6737 34.0561 14.4227 34.131 14.1915C34.1425 14.1686 34.1581 14.1509 34.18 14.1373C34.4112 14.054 34.6612 14.1498 34.8966 14.0696C35.0008 13.828 34.8581 13.5551 34.9966 13.3218C35.1164 13.2416 35.2518 13.277 35.381 13.2676C35.4966 13.2593 35.6164 13.2905 35.7331 13.228C35.8206 12.9937 35.7049 12.7312 35.8216 12.4885C36.0528 12.3708 36.3153 12.4843 36.5591 12.4031C36.6664 12.1646 36.5226 11.8886 36.6612 11.6552C36.7528 11.5875 36.8591 11.6 36.9622 11.599C37.5653 11.5969 38.1684 11.599 38.7725 11.598C38.8684 11.598 38.9673 11.6125 39.0621 11.5532C39.1631 11.3251 39.0194 11.0563 39.1642 10.8314C39.4277 10.8314 39.6923 10.8314 39.9558 10.8314C40.0527 10.7626 40.1642 10.7657 40.2756 10.7657C40.886 10.7657 41.4954 10.7657 42.1057 10.7647C42.2016 10.7647 42.2995 10.7751 42.3932 10.7251C42.4964 10.4918 42.3537 10.2231 42.4974 9.99809C42.7609 9.99809 43.0255 9.99809 43.289 9.99809C43.3859 9.92935 43.4974 9.93247 43.6088 9.93247C44.2192 9.93247 44.8286 9.93351 45.4389 9.93143C45.5348 9.93143 45.6337 9.94601 45.7285 9.88664C45.8296 9.65854 45.6858 9.38981 45.8306 9.16483C46.0941 9.16483 46.3587 9.16483 46.6222 9.16483C46.7191 9.09608 46.8306 9.09921 46.942 9.09921C47.5524 9.09921 48.1618 9.10025 48.7722 9.09817C48.868 9.09817 48.9669 9.11275 49.0617 9.05338C49.1628 8.82527 49.019 8.55655 49.1638 8.33156C49.4273 8.33156 49.6919 8.33156 49.9554 8.33156C50.796 8.33156 51.6356 8.33156 52.4762 8.33156C52.4835 8.34198 52.496 8.35344 52.496 8.36385C52.497 8.60654 52.497 8.85027 52.497 9.09296C52.497 9.11275 52.5001 9.13254 52.5012 9.14921C52.5106 9.1565 52.5158 9.16379 52.521 9.16379C52.7845 9.16483 53.048 9.16483 53.3084 9.16483C53.3251 9.17524 53.3303 9.1867 53.3303 9.20128C53.3303 9.72207 53.3303 10.2429 53.3303 10.7668C53.3137 10.7845 53.2949 10.8043 53.2762 10.8241C53.2282 10.8397 53.1803 10.8303 53.1324 10.8314C53.0772 10.8324 53.021 10.8314 52.9657 10.8314C52.9168 10.8314 52.8689 10.8314 52.8199 10.8314C52.7647 10.8314 52.7085 10.8303 52.6533 10.8314C52.6053 10.8324 52.5574 10.8241 52.5106 10.8376C52.5054 10.8428 52.497 10.848 52.497 10.8532C52.496 11.1032 52.496 11.3532 52.496 11.6021C52.4751 11.623 52.4564 11.6417 52.4335 11.6646C51.6314 11.6646 50.8262 11.6646 50.0211 11.6646C50.0159 11.6646 50.0107 11.6719 50.0054 11.6761C50.0023 11.6813 49.9981 11.6875 49.9971 11.6927C49.9961 11.699 49.9971 11.7063 49.9971 11.7136C49.9971 11.95 49.9971 12.1854 49.9971 12.4218C49.9971 12.4281 49.994 12.4343 49.995 12.4312C49.9711 12.4583 49.9534 12.4791 49.9367 12.4979C49.1274 12.4979 48.3222 12.4979 47.518 12.4979C47.5035 12.5073 47.4972 12.5187 47.4972 12.5323C47.4972 12.7749 47.4972 13.0187 47.4972 13.2655C47.4805 13.2832 47.4618 13.303 47.442 13.3239C47.3889 13.3384 47.3337 13.328 47.2795 13.3301C47.217 13.3322 47.1545 13.3301 47.092 13.3301C47.0368 13.3301 46.9806 13.3301 46.9254 13.3301C46.8701 13.3301 46.8139 13.3301 46.7587 13.3301C46.6962 13.3301 46.6337 13.3301 46.5712 13.3301C46.516 13.3301 46.4597 13.3301 46.4045 13.3301C46.3493 13.3301 46.2931 13.3301 46.2379 13.3301C46.1754 13.3301 46.1129 13.3301 46.0504 13.3301C45.9952 13.3301 45.9389 13.3301 45.8837 13.3301C45.8212 13.3301 45.7587 13.3301 45.6962 13.3301C45.641 13.3301 45.5848 13.3301 45.5296 13.3301C45.4744 13.3301 45.4181 13.3301 45.3629 13.3301C45.3004 13.3301 45.2379 13.3301 45.1754 13.3301C45.1202 13.3301 45.066 13.3301 45.0202 13.3301C45.0077 13.3416 44.9973 13.3468 44.9973 13.3509C44.9963 13.6009 44.9963 13.8509 44.9963 14.1009C44.9765 14.1207 44.9567 14.1405 44.9338 14.1634C44.4046 14.1634 43.8723 14.1634 43.3453 14.1634C43.3359 14.18 43.3297 14.1863 43.3297 14.1915C43.3297 14.4404 43.3297 14.6904 43.3297 14.9289C43.3036 14.9571 43.2859 14.9779 43.2682 14.9966C42.4599 14.9966 41.6547 14.9966 40.8506 14.9966C40.837 15.006 40.8298 15.0164 40.8298 15.031C40.8298 15.2737 40.8298 15.5174 40.8298 15.7643C40.8131 15.782 40.7943 15.8018 40.7777 15.8205C40.7704 15.8247 40.7641 15.8299 40.7589 15.8299C40.2381 15.8299 39.7173 15.8299 39.1965 15.8309C39.1902 15.8309 39.184 15.8351 39.1777 15.8372C39.1725 15.8424 39.1632 15.8466 39.1632 15.8518C39.1621 16.1018 39.1621 16.3517 39.1621 16.6017C39.1423 16.6215 39.1225 16.6402 39.0986 16.6642C38.2976 16.6642 37.4934 16.6642 36.6882 16.6642C36.683 16.6642 36.6778 16.6705 36.6716 16.6746C36.6685 16.6798 36.6622 16.6861 36.6622 16.6913C36.6622 16.9402 36.6622 17.1902 36.6622 17.4308C36.6372 17.4579 36.6185 17.4777 36.6007 17.4975C35.7935 17.4975 34.9883 17.4975 34.1831 17.4975C34.1758 17.5089 34.1633 17.5204 34.1633 17.5308C34.1623 17.7735 34.1623 18.0172 34.1623 18.2651C34.1467 18.2828 34.1279 18.3026 34.1113 18.3203C34.104 18.3245 34.0977 18.3297 34.0925 18.3297C33.5717 18.3297 33.0509 18.3297 32.5301 18.3307C32.5238 18.3307 32.5176 18.3339 32.5113 18.3359C32.5061 18.3411 32.4967 18.3453 32.4967 18.3505C32.4957 18.6005 32.4957 18.8505 32.4957 19.1015C32.4759 19.1203 32.4561 19.139 32.4301 19.164C31.6311 19.164 30.827 19.164 30.0218 19.164C30.0166 19.164 30.0104 19.1702 30.0052 19.1734C30.002 19.1786 29.9947 19.1848 29.9947 19.19C29.9947 19.439 29.9947 19.689 29.9947 19.9327C29.9708 19.9577 29.951 19.9775 29.9333 19.9973C29.1271 19.9973 28.3209 19.9973 27.5157 19.9973C27.5084 20.0087 27.4959 20.0191 27.4959 20.0306C27.4948 20.2733 27.4948 20.517 27.4948 20.7649C27.4792 20.7816 27.4605 20.8014 27.4428 20.8212C27.4292 20.8243 27.4167 20.8305 27.4032 20.8305C26.6605 20.8305 25.9178 20.8305 25.1741 20.8305C25.1189 20.8305 25.0647 20.8305 25.0147 20.8305C25.0043 20.8409 24.996 20.8451 24.996 20.8503C24.9949 21.1003 24.9949 21.3503 24.9949 21.6023C24.9751 21.62 24.9543 21.6388 24.9262 21.6638C23.02 21.6638 21.1045 21.6638 19.1889 21.6638C19.1837 21.6638 19.1774 21.6575 19.1722 21.6544C19.1681 21.6492 19.1618 21.644 19.1608 21.6388C19.1597 21.3753 19.1608 21.1118 19.1608 20.8545C19.1493 20.8357 19.1379 20.8316 19.1233 20.8316C18.5952 20.8316 18.0681 20.8316 17.54 20.8326C17.5244 20.8326 17.5119 20.8326 17.5036 20.8201C17.5004 20.8149 17.4963 20.8087 17.4952 20.8034C17.4942 20.7972 17.4952 20.7899 17.4952 20.7826C17.4952 20.5326 17.4952 20.2827 17.4952 20.0327C17.4952 20.0264 17.4921 20.0202 17.49 20.0139C17.4848 20.0087 17.4806 19.9993 17.4754 19.9993C17.2119 19.9983 16.9484 19.9983 16.6848 19.9983C16.6775 19.9868 16.664 19.9764 16.664 19.966C16.663 19.7296 16.663 19.4942 16.663 19.2577C16.663 19.2307 16.6692 19.2036 16.6567 19.1786C16.6505 19.1734 16.6453 19.165 16.64 19.165C16.0984 19.164 15.5578 19.164 15.0182 19.164C15.0026 19.1536 14.9964 19.1432 14.9964 19.1286C14.9964 18.8786 14.9964 18.6286 14.9964 18.3786C14.9964 18.363 14.9964 18.3505 14.9859 18.3411C14.9807 18.338 14.9755 18.3307 14.9693 18.3307C14.7057 18.3307 14.4422 18.3307 14.186 18.3307C14.1651 18.3182 14.162 18.3068 14.162 18.2922C14.162 18.0422 14.162 17.7922 14.1631 17.5423C14.1631 17.5266 14.162 17.5141 14.1464 17.5027C14.0964 17.4891 14.0412 17.4996 13.987 17.4975C13.9318 17.4954 13.8756 17.4975 13.8204 17.4975C13.7714 17.4975 13.7235 17.4975 13.6745 17.4975C13.6193 17.4975 13.5631 17.4975 13.5079 17.4975C13.4527 17.4975 13.3985 17.4975 13.3516 17.4975C13.3391 17.486 13.3298 17.4808 13.3298 17.4766C13.3287 17.2131 13.3287 16.9486 13.3287 16.685C13.3173 16.6777 13.3068 16.6652 13.2954 16.6652C13.0527 16.6642 12.8089 16.6642 12.5662 16.6642C12.5465 16.6642 12.5267 16.6611 12.51 16.66C12.5027 16.6507 12.4954 16.6455 12.4954 16.6402C12.4944 16.3767 12.4954 16.1132 12.4954 15.8539C12.485 15.8361 12.4735 15.8309 12.459 15.8309C12.209 15.8309 11.959 15.8309 11.709 15.832C11.6934 15.832 11.6809 15.832 11.6715 15.8205C11.6684 15.8153 11.6621 15.8091 11.6621 15.8039C11.6621 12.4854 11.6621 9.16795 11.6621 5.85677C11.6746 5.83594 11.6861 5.83281 11.7007 5.83281C11.9506 5.83281 12.2006 5.83281 12.4506 5.83386C12.4662 5.83386 12.4787 5.83281 12.4871 5.82032C12.4902 5.81407 12.4933 5.80886 12.4954 5.80261C12.4965 5.79636 12.4954 5.78907 12.4954 5.78178C12.4954 5.53909 12.4954 5.29536 12.4954 5.05267C12.4954 5.04538 12.4944 5.03913 12.4954 5.03184C12.4965 5.02559 12.4996 5.01934 12.5006 5.01622C12.5069 5.00997 12.5121 4.99955 12.5162 4.99955C13.3423 4.99851 14.1683 4.99851 14.9953 4.99851C15.2588 4.89643 15.5234 4.89331 15.787 4.99851C15.787 5.0058 15.7838 5.01413 15.787 5.0183C15.7995 5.03392 15.8151 5.0485 15.8286 5.06205C15.8286 5.31202 15.8286 5.55992 15.8286 5.80886C15.839 5.81615 15.8495 5.83073 15.8599 5.83073C16.4046 5.83177 16.9505 5.83177 17.4952 5.83177C17.7588 5.7297 18.0233 5.72657 18.2869 5.83177C18.2869 5.83906 18.2837 5.8474 18.2869 5.85156C18.2994 5.86719 18.315 5.88177 18.3285 5.89531C18.3285 6.14425 18.3285 6.39214 18.3285 6.639C18.3285 6.64421 18.3358 6.64941 18.34 6.65462C18.3452 6.65775 18.3514 6.66295 18.3566 6.66295C18.6254 6.66295 18.8931 6.66295 19.1618 6.66295C19.4254 6.56088 19.6899 6.55775 19.9535 6.66295C19.9535 6.67024 19.9503 6.67858 19.9535 6.68274C19.966 6.69837 19.9816 6.71295 19.9951 6.72649C19.9951 6.98064 19.9951 7.23374 19.9951 7.47955C20.0128 7.48893 20.018 7.49518 20.0233 7.49518C20.292 7.49518 20.5597 7.49518 20.8284 7.49518C21.092 7.3931 21.3565 7.38998 21.6201 7.49518C21.6201 7.50247 21.6169 7.5108 21.6201 7.51497C21.6326 7.53059 21.6482 7.54517 21.6617 7.55871C21.6617 7.80869 21.6617 8.05659 21.6617 8.30553C21.6721 8.31282 21.6826 8.3274 21.693 8.3274C22.2378 8.32844 22.7836 8.32844 23.3283 8.32844C23.4085 8.25657 23.5075 8.26178 23.6044 8.26178C26.4626 8.26074 29.3198 8.26074 32.178 8.26178C32.2801 8.26803 32.3811 8.25761 32.4592 8.33469Z" fill="#EED3BF"/>
    <path d="M12.5017 19.1671C11.9465 19.1671 11.3903 19.1671 10.8351 19.1671C10.8351 18.9005 10.8351 18.6328 10.8351 18.3662C10.8351 18.3485 10.8226 18.3391 10.7934 18.3339C10.2591 18.3339 9.7247 18.3339 9.18931 18.3339C9.18201 18.3235 9.16951 18.312 9.16951 18.3016C9.16743 18.2464 9.16847 18.1901 9.16847 18.1349C9.16847 13.5457 9.16847 8.95653 9.16847 4.36838C9.16847 4.31317 9.16847 4.25693 9.16847 4.20172C9.16847 4.19547 9.17264 4.18922 9.17368 4.18714C9.18097 4.17985 9.18514 4.17048 9.18931 4.17048C10.0153 4.16943 10.8413 4.16943 11.6684 4.16943C11.6684 4.44024 11.6684 4.71106 11.6684 4.98082C11.658 4.98812 11.6465 5.00166 11.6361 5.00166C11.4007 5.0027 11.1642 5.0027 10.9288 5.0027C10.9017 5.0027 10.8747 4.99541 10.8486 5.00999C10.8445 5.0152 10.8361 5.0204 10.8361 5.02561C10.8351 5.28913 10.8351 5.55265 10.8351 5.81513C10.8226 5.82242 10.8122 5.83492 10.8007 5.83492C10.558 5.83596 10.3153 5.83596 10.0726 5.83596C10.0528 5.83596 10.033 5.83909 10.0174 5.84013C10.0101 5.8495 10.0028 5.85471 10.0028 5.85992C10.0028 9.45337 10.0028 13.0468 10.0028 16.6403C10.0028 16.6455 10.0091 16.6517 10.0132 16.6569C10.0184 16.6601 10.0247 16.6673 10.0299 16.6673C10.2934 16.6673 10.5559 16.6673 10.8132 16.6673C10.834 16.6788 10.8372 16.6903 10.8372 16.7059C10.8372 16.9559 10.8372 17.2058 10.8361 17.4548C10.8361 17.4704 10.8361 17.4829 10.8486 17.4912C10.8538 17.4944 10.8601 17.4985 10.8653 17.4996C10.8715 17.5006 10.8788 17.4996 10.8861 17.4996C11.1361 17.4996 11.3861 17.4996 11.635 17.4996C11.6413 17.4996 11.6475 17.5027 11.6538 17.5048C11.659 17.51 11.6653 17.5142 11.6684 17.5194C11.6705 17.5256 11.6694 17.5329 11.6694 17.5392C11.6694 17.7954 11.6694 18.0527 11.6705 18.3089C11.6705 18.3141 11.6788 18.3193 11.685 18.3255C11.7371 18.3391 11.7923 18.3287 11.8465 18.3308C11.9017 18.3328 11.958 18.3308 12.0132 18.3308C12.0621 18.3308 12.11 18.3308 12.159 18.3308C12.2142 18.3308 12.2704 18.3297 12.3256 18.3308C12.3798 18.3328 12.435 18.3235 12.4881 18.336C12.4944 18.3422 12.5027 18.3474 12.5027 18.3526C12.5017 18.6255 12.5017 18.8963 12.5017 19.1671Z" fill="#CA9775"/>
    <path d="M15.7931 5.00166C15.5296 5.00166 15.265 5.00166 15.0015 5.00166C15.0015 4.72668 15.0015 4.4517 15.0015 4.18297C15.0202 4.17464 15.0254 4.16943 15.0317 4.16943C15.841 4.16943 16.6504 4.16943 17.4597 4.16943C17.4597 4.44441 17.4597 4.71939 17.4597 4.98707C17.442 4.99645 17.4368 5.00166 17.4305 5.00166C16.8847 5.00166 16.3389 5.00166 15.7931 5.00166Z" fill="#3B3B3B"/>
    <path d="M12.5015 20.0004C12.5015 19.7223 12.5015 19.4452 12.5015 19.1671C12.7702 19.1671 13.04 19.1671 13.3087 19.1671C13.3139 19.1671 13.3191 19.1744 13.3254 19.1775C13.3285 19.1827 13.3348 19.189 13.3348 19.1942C13.3348 19.4421 13.3348 19.691 13.3348 19.9368C13.3441 19.9525 13.3556 19.9587 13.3691 19.9587C13.6108 19.9587 13.8525 19.9587 14.0941 19.9587C14.1139 19.9587 14.1347 19.9608 14.1535 19.965C14.1691 19.9691 14.1733 19.9837 14.1681 19.9993C13.6129 20.0004 13.0567 20.0004 12.5015 20.0004Z" fill="#CA9775"/>
    <path d="M15.0015 21.6669C15.0015 21.3888 15.0015 21.1117 15.0015 20.8336C15.2702 20.8336 15.54 20.8336 15.8087 20.8336C15.8139 20.8336 15.8191 20.8409 15.8254 20.844C15.8285 20.8492 15.8348 20.8555 15.8348 20.8607C15.8348 21.1086 15.8348 21.3575 15.8348 21.6033C15.8441 21.619 15.8556 21.6252 15.8691 21.6252C16.1108 21.6252 16.3525 21.6252 16.5941 21.6252C16.6139 21.6252 16.6347 21.6273 16.6535 21.6315C16.6691 21.6356 16.6733 21.6502 16.6681 21.6658C16.1129 21.6669 15.5567 21.6669 15.0015 21.6669Z" fill="#CA9775"/>
    <path d="M17.5015 23.3335C17.5015 23.0554 17.5015 22.7783 17.5015 22.5002C17.7702 22.5002 18.04 22.5002 18.3087 22.5002C18.3139 22.5002 18.3191 22.5075 18.3254 22.5107C18.3285 22.5159 18.3348 22.5221 18.3348 22.5273C18.3348 22.7752 18.3348 23.0242 18.3348 23.27C18.3441 23.2856 18.3556 23.2918 18.3691 23.2918C18.6108 23.2918 18.8525 23.2918 19.0941 23.2918C19.1139 23.2918 19.1347 23.2939 19.1535 23.2981C19.1691 23.3023 19.1733 23.3168 19.1681 23.3325C18.6129 23.3335 18.0567 23.3335 17.5015 23.3335Z" fill="#CA9775"/>
    <path d="M17.5013 22.5003C17.2232 22.5003 16.9461 22.5003 16.668 22.5003C16.668 22.2222 16.668 21.9451 16.668 21.667C16.9367 21.667 17.2054 21.667 17.4742 21.667C17.4794 21.667 17.4846 21.6732 17.4909 21.6774C17.494 21.6826 17.5013 21.6878 17.5013 21.6941C17.5013 21.9628 17.5013 22.2315 17.5013 22.5003Z" fill="#CA9775"/>
    <path d="M15.0015 20.8336C14.7234 20.8336 14.4463 20.8336 14.1682 20.8336C14.1682 20.5555 14.1682 20.2785 14.1682 20.0004C14.4422 20.0004 14.7172 20.0004 14.9848 20.0004C14.9953 20.016 15.0015 20.0212 15.0015 20.0274C15.0015 20.2962 15.0015 20.5649 15.0015 20.8336Z" fill="#CA9775"/>
    <path d="M54.1251 7.50146C54.1251 7.77957 54.1251 8.05663 54.1251 8.33473C53.8689 8.33473 53.6116 8.33473 53.3554 8.33473C53.3481 8.32431 53.3345 8.3139 53.3345 8.30244C53.3335 8.04621 53.3335 7.78894 53.3335 7.53271C53.3335 7.52646 53.3377 7.52125 53.3397 7.51501C53.3449 7.51084 53.3502 7.50146 53.3543 7.50146C53.6116 7.50146 53.8689 7.50146 54.1251 7.50146Z" fill="#3B3B3B"/>
    <path d="M1.66863 2.50183C3.04983 2.50183 4.43103 2.50183 5.81223 2.50287C5.81743 2.50287 5.82264 2.51121 5.82993 2.51745C5.84348 2.56953 5.83306 2.62474 5.83514 2.6789C5.83723 2.7341 5.83514 2.79035 5.83514 2.84555C5.83514 2.89451 5.83514 2.94242 5.83514 2.99137C5.83514 3.04658 5.8341 3.10282 5.83514 3.15803C5.83723 3.21219 5.82785 3.26739 5.84035 3.32051C5.8466 3.32676 5.85181 3.3351 5.85702 3.3351C6.12055 3.33614 6.38408 3.33614 6.64761 3.33614C6.6549 3.34759 6.6674 3.35801 6.6674 3.36947C6.66844 3.61216 6.66844 3.85484 6.66844 4.09857C6.66844 4.11836 6.67157 4.13815 6.67261 4.15482C6.68198 4.16211 6.68719 4.1694 6.6924 4.1694C6.95593 4.17044 7.21946 4.1694 7.47883 4.1694C7.4955 4.17982 7.50175 4.19127 7.5007 4.20586C7.5007 4.24752 7.5007 4.28918 7.5007 4.33085C7.5007 6.45463 7.5007 8.57841 7.5007 10.7022C7.5007 10.7428 7.5007 10.7834 7.5007 10.8168C7.48716 10.8272 7.48195 10.8355 7.47675 10.8355C5.54036 10.8366 3.60398 10.8355 1.66759 10.8355C1.59051 10.7574 1.60093 10.6564 1.60093 10.5605C1.59884 7.96596 1.59884 5.37138 1.60093 2.77785C1.60197 2.68098 1.59155 2.57995 1.66863 2.50183Z" fill="#58495F"/>
    <path d="M1.66875 2.50186C1.66875 5.27976 1.66875 8.05661 1.66875 10.8345C1.66875 11.9459 1.66875 13.0562 1.66875 14.1676C1.66875 15.556 1.66875 16.9455 1.66875 18.3339C1.66875 19.1588 1.66875 19.9848 1.66979 20.8097C1.66979 20.8149 1.67813 20.8201 1.68229 20.8253C1.68854 20.8285 1.69375 20.8326 1.7 20.8326C3.3364 20.8326 4.97279 20.8326 6.60711 20.8326C6.6144 20.8399 6.62377 20.8451 6.62377 20.8503C6.62585 21.0993 6.6269 21.3493 6.6269 21.5982C6.6269 21.6034 6.62065 21.6086 6.61648 21.6149C6.61127 21.618 6.60502 21.6242 6.59981 21.6242C4.67801 21.6242 2.75725 21.6242 0.835449 21.6242C0.835449 14.6988 0.835449 7.77434 0.835449 0.857208C0.846907 0.843668 0.852115 0.834294 0.856282 0.834294C1.11356 0.833252 1.3698 0.833252 1.62709 0.833252C1.62709 0.840543 1.62396 0.849917 1.62709 0.854084C1.63959 0.869707 1.65521 0.884289 1.66875 0.89783C1.66875 1.43424 1.66875 1.96857 1.66875 2.50186Z" fill="#715E79"/>
    <path d="M8.29335 19.1672C8.29335 19.7015 8.29335 20.2358 8.29335 20.7702C8.28293 20.7775 8.27251 20.791 8.2621 20.791C8.0194 20.792 7.7767 20.792 7.534 20.792C7.52775 20.792 7.52254 20.7879 7.51629 20.7848C7.51212 20.7795 7.50275 20.7743 7.50275 20.7691C7.50171 20.2348 7.50171 19.7005 7.50171 19.1661C7.76524 19.1672 8.02981 19.1672 8.29335 19.1672Z" fill="#3B3B3B"/>
    <path d="M6.67573 21.6253C6.66636 21.4086 6.66636 21.0316 6.67573 20.8472C6.68094 20.8431 6.68615 20.8337 6.69031 20.8337C6.93926 20.8326 7.18925 20.8326 7.4382 20.8326C7.44549 20.8431 7.45799 20.8545 7.45799 20.8649C7.45904 21.1076 7.45904 21.3503 7.45904 21.592C7.45904 21.5982 7.45487 21.6034 7.45174 21.6097C7.44654 21.6138 7.44133 21.6232 7.43716 21.6232C7.18821 21.6253 6.93926 21.6253 6.67573 21.6253Z" fill="#3B3B3B"/>
    <path d="M7.45274 20.0004C7.46211 20.2045 7.46211 20.5837 7.45378 20.7774C7.44857 20.7826 7.44336 20.7909 7.4392 20.7909C7.19025 20.792 6.94026 20.792 6.69131 20.792C6.68402 20.7816 6.67048 20.7711 6.67048 20.7597C6.66943 20.517 6.66943 20.2743 6.66943 20.0327C6.66943 20.0264 6.6736 20.0202 6.67568 20.0149C6.68089 20.0097 6.6861 20.0014 6.69027 20.0014C6.93922 20.0004 7.18921 20.0004 7.45274 20.0004Z" fill="#705E78"/>
    <path d="M39.1672 10.8345C39.1672 11.1095 39.1672 11.3845 39.1672 11.6532C39.1485 11.6616 39.1433 11.6668 39.137 11.6668C38.3141 11.6668 37.4902 11.6668 36.6673 11.6668C36.6538 11.6813 36.6392 11.6813 36.6257 11.6668C36.6257 11.6595 36.6225 11.6501 36.6257 11.6459C36.6382 11.6303 36.6538 11.6157 36.6673 11.6022C36.6673 11.3449 36.6673 11.0897 36.6673 10.8335C37.5006 10.8345 38.3339 10.8345 39.1672 10.8345Z" fill="#DCBB9C"/>
    <path d="M36.6256 11.6678C36.6392 11.6678 36.6538 11.6678 36.6673 11.6678C36.6673 11.9376 36.6673 12.2073 36.6673 12.4761C36.6673 12.4813 36.66 12.4865 36.6558 12.4917C36.6506 12.4948 36.6444 12.5 36.6392 12.5C36.3767 12.5 36.1152 12.5 35.8579 12.5C35.8392 12.5115 35.835 12.5229 35.835 12.5375C35.835 12.7792 35.835 13.0208 35.835 13.2635C35.835 13.2833 35.8319 13.3031 35.8309 13.3187C35.8215 13.326 35.8163 13.3333 35.8111 13.3333C35.5413 13.3343 35.2715 13.3333 35.0028 13.3333C34.9892 13.3479 34.9746 13.3479 34.9611 13.3333C34.9611 13.326 34.958 13.3166 34.9611 13.3124C34.9736 13.2968 34.9892 13.2822 35.0028 13.2687C35.0028 12.7427 35.0028 12.2167 35.0028 11.6917C35.0028 11.6865 35.0101 11.6813 35.0142 11.6761C35.0194 11.673 35.0257 11.6667 35.0309 11.6667C35.5611 11.6678 36.0934 11.6678 36.6256 11.6678Z" fill="#DCBB9C"/>
    <path d="M34.9592 13.3342C34.9728 13.3342 34.9873 13.3342 35.0009 13.3342C35.0009 13.603 35.0009 13.8717 35.0009 14.1404C35.0009 14.1456 34.9946 14.1508 34.9905 14.1571C34.9853 14.1602 34.98 14.1675 34.9738 14.1675C34.7051 14.1675 34.4363 14.1675 34.1676 14.1675C34.0634 13.8894 34.0645 13.6123 34.1676 13.3342C34.4311 13.3342 34.6957 13.3342 34.9592 13.3342Z" fill="#DCBB9C"/>
    <path d="M49.1668 8.33472C49.1668 8.60449 49.1668 8.87426 49.1658 9.14402C49.1658 9.14923 49.1574 9.15444 49.1533 9.15965C49.147 9.16277 49.1418 9.16798 49.1356 9.16798C48.2981 9.16798 47.4606 9.16798 46.6242 9.16798C46.6242 9.16069 46.6211 9.15132 46.6242 9.14715C46.6367 9.13153 46.6523 9.11694 46.6659 9.1034C46.6659 8.84613 46.6659 8.59095 46.6659 8.33472C47.5002 8.33472 48.3335 8.33472 49.1668 8.33472Z" fill="#DCBB9C"/>
    <path d="M45.8336 9.16797C45.8336 9.43774 45.8336 9.70751 45.8325 9.97728C45.8325 9.98248 45.8242 9.98769 45.82 9.9929C45.8138 9.99602 45.8086 10.0012 45.8023 10.0012C44.9648 10.0012 44.1274 10.0012 43.2909 10.0012C43.2909 9.99394 43.2878 9.98457 43.2909 9.9804C43.3034 9.96478 43.3191 9.9502 43.3326 9.93665C43.3326 9.67938 43.3326 9.42316 43.3326 9.16797C44.1669 9.16797 45.0003 9.16797 45.8336 9.16797Z" fill="#DCBB9C"/>
    <path d="M42.5005 10.0012C42.5005 10.271 42.5005 10.5408 42.4995 10.8105C42.4995 10.8157 42.4912 10.8209 42.487 10.8262C42.4808 10.8293 42.4755 10.8345 42.4693 10.8345C41.6318 10.8345 40.7944 10.8345 39.9579 10.8345C39.9579 10.8272 39.9548 10.8178 39.9579 10.8137C39.9704 10.798 39.9861 10.7834 39.9996 10.7699C39.9996 10.5126 39.9996 10.2564 39.9996 10.0012C40.8339 10.0012 41.6672 10.0012 42.5005 10.0012Z" fill="#DCBB9C"/>
    <path d="M32.4591 8.33475C29.4176 8.33475 26.376 8.33475 23.3345 8.33475C23.3345 8.06393 23.3345 7.79416 23.3345 7.52335C23.3449 7.51606 23.3553 7.50252 23.3668 7.50252C23.4293 7.50044 23.4918 7.50148 23.5543 7.50148C26.8 7.50148 30.0467 7.50148 33.2924 7.50148C33.2924 7.77542 33.2924 8.05039 33.2924 8.31808C33.2768 8.3285 33.2716 8.33475 33.2653 8.33475C32.9966 8.33475 32.7279 8.33475 32.4591 8.33475Z" fill="#3B3B3B"/>
    <path d="M21.6261 7.50148C21.3626 7.50148 21.098 7.50148 20.8345 7.50148C20.8345 7.23171 20.8345 6.96194 20.8355 6.69217C20.8355 6.68696 20.8438 6.68175 20.848 6.67655C20.8543 6.67342 20.8595 6.66821 20.8657 6.66821C21.6751 6.66821 22.4844 6.66821 23.2938 6.66821C23.2938 6.94319 23.2938 7.21817 23.2938 7.48585C23.276 7.49523 23.2708 7.50043 23.2646 7.50043C22.7177 7.50148 22.1719 7.50148 21.6261 7.50148Z" fill="#3B3B3B"/>
    <path d="M18.2931 5.83491C18.0296 5.83491 17.765 5.83491 17.5015 5.83491C17.5015 5.56514 17.5015 5.29641 17.5015 5.02664C17.5015 5.02143 17.5088 5.01623 17.5129 5.01102C17.5181 5.00789 17.5244 5.00269 17.5296 5.00269C18.0619 5.00269 18.5941 5.00269 19.1254 5.00269C19.1254 5.27141 19.1254 5.54014 19.1254 5.80887C19.1254 5.81408 19.1191 5.81928 19.1149 5.82553C19.1097 5.82866 19.1045 5.83595 19.0983 5.83595C18.8306 5.83491 18.5618 5.83491 18.2931 5.83491Z" fill="#3B3B3B"/>
    <path d="M23.3345 14.1258C23.3345 13.8686 23.3345 13.6123 23.3345 13.3551C23.3459 13.3478 23.3563 13.3353 23.3678 13.3353C23.6105 13.3342 23.8542 13.3342 24.1022 13.3342C24.1188 13.3186 24.1386 13.3009 24.1574 13.2832C24.1605 13.2697 24.1667 13.2572 24.1667 13.2447C24.1678 13.0291 24.1667 12.8145 24.1667 12.5989C24.1667 12.5718 24.1667 12.5447 24.1667 12.5176C24.2219 12.4854 24.2782 12.5062 24.3324 12.5031C24.3948 12.4989 24.4573 12.502 24.5198 12.502C24.5751 12.502 24.6313 12.502 24.6865 12.502C24.749 12.502 24.8115 12.502 24.874 12.502C24.9292 12.502 24.9855 12.502 25.0407 12.502C25.1032 12.502 25.1657 12.502 25.2282 12.502C25.2834 12.502 25.3396 12.502 25.3948 12.502C25.4573 12.502 25.5198 12.502 25.5823 12.502C25.6375 12.502 25.6938 12.502 25.749 12.502C25.8042 12.502 25.8604 12.502 25.9156 12.502C25.9781 12.502 26.0406 12.502 26.1031 12.502C26.1583 12.502 26.2146 12.502 26.2698 12.502C26.3323 12.502 26.3948 12.502 26.4573 12.502C26.5125 12.502 26.5687 12.502 26.6239 12.502C26.6864 12.502 26.7489 12.502 26.8114 12.502C26.8666 12.502 26.9229 12.502 26.9781 12.502C27.0406 12.502 27.1031 12.502 27.1656 12.502C27.2208 12.502 27.277 12.502 27.3322 12.502C27.3874 12.502 27.4437 12.502 27.4989 12.502C27.5614 12.502 27.6239 12.502 27.6864 12.502C27.7416 12.502 27.7978 12.502 27.8531 12.502C27.9155 12.502 27.978 12.502 28.0405 12.502C28.0958 12.502 28.152 12.502 28.2072 12.502C28.2697 12.502 28.3322 12.502 28.3947 12.502C28.4499 12.502 28.5062 12.502 28.5614 12.502C28.6239 12.502 28.6864 12.502 28.7489 12.502C28.8041 12.502 28.8603 12.502 28.9155 12.502C28.978 12.502 29.0405 12.502 29.103 12.502C29.1582 12.502 29.2145 12.502 29.2697 12.502C29.3249 12.502 29.3811 12.502 29.4363 12.502C29.4988 12.502 29.5613 12.502 29.6238 12.502C29.679 12.502 29.7353 12.502 29.7905 12.502C29.853 12.502 29.9155 12.502 29.978 12.502C30.0332 12.502 30.0894 12.502 30.1446 12.502C30.2071 12.502 30.2696 12.502 30.3321 12.502C30.3873 12.502 30.4436 12.502 30.4988 12.502C30.5613 12.502 30.6238 12.502 30.6863 12.502C30.7415 12.502 30.7977 12.502 30.8529 12.502C30.9081 12.502 30.9644 12.502 31.0196 12.502C31.0821 12.502 31.1446 12.502 31.2071 12.502C31.2623 12.502 31.3185 12.502 31.3738 12.502C31.4362 12.502 31.4987 12.502 31.5612 12.502C31.6165 12.502 31.6727 12.502 31.7279 12.502C31.7904 12.502 31.8529 12.502 31.9154 12.502C31.9706 12.502 32.0269 12.502 32.0821 12.502C32.1446 12.502 32.2071 12.502 32.2696 12.502C32.3248 12.502 32.381 12.502 32.4404 12.502C32.457 12.4833 32.4758 12.4624 32.4977 12.4385C32.4977 12.4385 32.5008 12.4322 32.5008 12.426C32.5008 12.1833 32.5008 11.9396 32.5018 11.6969C32.5018 11.6917 32.5081 11.6854 32.5112 11.6802C32.5164 11.676 32.5216 11.6698 32.5279 11.6698C32.7779 11.6688 33.0268 11.6698 33.2726 11.6698C33.2966 11.6469 33.3153 11.6271 33.3351 11.6073C33.3351 10.8084 33.3351 10.0106 33.3351 9.21167C33.5987 9.21167 33.8632 9.21167 34.1268 9.21167C34.1268 10.2949 34.1268 11.3782 34.1268 12.4614C33.8684 12.5114 33.606 12.4593 33.3258 12.4916C33.2976 12.7624 33.3258 13.0364 33.3101 13.3082C33.2518 13.4155 33.1456 13.3947 33.0529 13.4019C32.9091 13.4134 32.7622 13.3863 32.6185 13.4322C32.5091 13.655 32.6352 13.9113 32.5164 14.1165C32.4352 14.1935 32.3414 14.1852 32.2529 14.1852C29.3592 14.1863 26.4656 14.1863 23.5709 14.1852C23.4876 14.1831 23.4001 14.1946 23.3345 14.1258Z" fill="#DCBB9C"/>
    <path d="M23.3344 14.1259C26.378 14.1259 29.4227 14.1259 32.4663 14.1259C32.4726 14.1259 32.4788 14.1228 32.4851 14.1207C32.4903 14.1155 32.4966 14.1114 32.4997 14.1062C32.5018 14.0999 32.5007 14.0926 32.5007 14.0864C32.5007 13.8437 32.5007 13.601 32.5018 13.3583C32.5018 13.3531 32.5101 13.3479 32.5143 13.3427C32.5393 13.3281 32.5674 13.3354 32.5945 13.3354C32.8163 13.3343 33.0382 13.3354 33.2601 13.3354C33.2788 13.3354 33.2882 13.3229 33.2934 13.2937C33.3069 13.275 33.3215 13.275 33.3351 13.2937C33.3351 13.3073 33.3351 13.3218 33.3351 13.3354C33.4392 13.6156 33.4371 13.8968 33.3361 14.178C33.2455 14.2447 33.1382 14.2353 33.0351 14.2353C29.8987 14.2364 26.7614 14.2364 23.625 14.2353C23.5354 14.2353 23.4438 14.2405 23.3604 14.1968C23.3323 14.1791 23.324 14.1562 23.3344 14.1259Z" fill="#C99674"/>
    <path d="M33.3342 14.1675C33.3342 13.8894 33.3342 13.6123 33.3342 13.3342C33.6123 13.3342 33.8894 13.3342 34.1675 13.3342C34.1675 13.6123 34.1675 13.8894 34.1675 14.1675C33.903 14.2779 33.6332 14.2414 33.3634 14.1946C33.353 14.1852 33.3436 14.1769 33.3342 14.1675Z" fill="#3B3B3B"/>
    <path d="M34.1259 9.16792C33.8696 9.16792 33.6123 9.16792 33.3561 9.16792C33.3488 9.15751 33.3353 9.14709 33.3353 9.13563C33.3342 8.87941 33.3342 8.62214 33.3342 8.36591C33.3342 8.35966 33.3384 8.35445 33.3405 8.3482C33.3457 8.34403 33.3509 8.33466 33.3551 8.33466C33.6113 8.33362 33.8686 8.33362 34.1248 8.33362C34.1259 8.61172 34.1259 8.88982 34.1259 9.16792Z" fill="#3B3B3B"/>
    <path d="M33.3341 13.2926C33.3206 13.2926 33.306 13.2926 33.2925 13.2926C33.2925 13.0187 33.2925 12.7437 33.2925 12.476C33.3081 12.4656 33.3133 12.4594 33.3196 12.4594C33.5883 12.4594 33.857 12.4594 34.1258 12.4594C34.131 12.475 34.1268 12.4896 34.1112 12.4937C34.0925 12.4989 34.0716 12.5 34.0518 12.5C33.8373 12.5 33.6227 12.5 33.4071 12.5C33.3873 12.5 33.3675 12.5031 33.3508 12.5041C33.3435 12.5125 33.3352 12.5177 33.3352 12.5229C33.3341 12.7802 33.3341 13.0364 33.3341 13.2926Z" fill="#DBBA9B"/>
    <path d="M19.9596 6.66816C19.6961 6.66816 19.4315 6.66816 19.168 6.66816C19.168 6.39318 19.168 6.11821 19.168 5.85052C19.1857 5.84115 19.1909 5.83594 19.1971 5.83594C19.7294 5.83594 20.2617 5.83594 20.7929 5.83594C20.7929 6.10467 20.7929 6.37339 20.7929 6.64212C20.7929 6.64733 20.7867 6.65254 20.7825 6.65879C20.7773 6.66191 20.7721 6.6692 20.7658 6.6692C20.4971 6.66816 20.2283 6.66816 19.9596 6.66816Z" fill="#3B3B3B"/>
    <path d="M23.3345 14.1676C26.6677 14.1676 30.0009 14.1676 33.3341 14.1676C33.4175 14.4499 33.4789 14.7321 33.2925 15.0009C33.0289 15.0009 32.7644 15.0009 32.5008 15.0009C32.4206 15.0727 32.3217 15.0675 32.2248 15.0675C29.6176 15.0686 27.0115 15.0686 24.4043 15.0686C24.3053 15.0686 24.2105 15.0582 24.1262 15.0009C23.8626 15.0009 23.5981 15.0009 23.3345 15.0009C23.3022 14.7228 23.3022 14.4447 23.3345 14.1676Z" fill="#3B3B3B"/>
    <path d="M24.1261 15.0009C26.9177 15.0009 29.7093 15.0009 32.5008 15.0009C32.5008 15.2717 32.5008 15.5425 32.5008 15.8122C32.4904 15.8195 32.48 15.832 32.4685 15.8331C32.4269 15.8352 32.3852 15.8341 32.3435 15.8341C29.6718 15.8341 27 15.8341 24.3293 15.8341C24.2813 15.8341 24.2334 15.8341 24.1866 15.8341C24.1678 15.7862 24.1678 15.7862 24.1678 15.0654C24.1543 15.0509 24.1397 15.0373 24.1261 15.0217C24.123 15.0165 24.1261 15.0071 24.1261 15.0009Z" fill="#DCBB9C"/>
    <path d="M33.2924 15.0009C33.2924 14.9936 33.2893 14.9842 33.2924 14.98C33.3049 14.9644 33.3205 14.9498 33.3341 14.9363C33.3341 14.679 33.3341 14.4228 33.3341 14.1676C33.6122 14.1676 33.8893 14.1676 34.1674 14.1676C34.1674 14.4415 34.1674 14.7165 34.1674 14.9842C34.1517 14.9946 34.1455 15.0009 34.1403 15.0009C33.858 15.0009 33.5747 15.0009 33.2924 15.0009Z" fill="#DCBB9C"/>
    <path d="M23.3346 14.1676C23.3346 14.4457 23.3346 14.7227 23.3346 15.0008C23.319 15.006 23.3065 15.0008 23.2992 14.9863C23.2961 14.981 23.293 14.9738 23.293 14.9685C23.293 14.6988 23.293 14.429 23.293 14.1592C23.293 14.1405 23.3055 14.1311 23.3346 14.127C23.3346 14.1395 23.3346 14.153 23.3346 14.1676Z" fill="#DCBB9C"/>
</svg>
