<svg width="121" height="235" viewBox="0 0 121 235" fill="none" xmlns="http://www.w3.org/2000/svg">
    <path d="M27.4951 224.439L32.646 222.004L35.0756 227.166L29.9247 229.601L27.4951 224.439Z" fill="#382A4C"/>
    <path d="M32.5025 222.072L37.6534 219.637L40.0831 224.799L34.9322 227.234L32.5025 222.072Z" fill="#382A4C"/>
    <path d="M30.1401 217.052L35.291 214.617L37.7206 219.78L32.5697 222.215L30.1401 217.052Z" fill="white"/>
    <path d="M27.8121 212.106L32.963 209.671L35.3926 214.833L30.2417 217.268L27.8121 212.106Z" fill="white"/>
    <path d="M37.4397 219.738L42.5906 217.303L45.0202 222.465L39.8693 224.9L37.4397 219.738Z" fill="#382A4C"/>
    <path d="M35.0772 214.719L40.2281 212.284L42.6578 217.446L37.5069 219.881L35.0772 214.719Z" fill="white"/>
    <path d="M32.7485 209.772L37.8994 207.337L40.329 212.5L35.1781 214.935L32.7485 209.772Z" fill="#E7E0D4"/>
    <path d="M42.5519 217.408L47.5597 215.041L49.9218 220.06L44.914 222.427L42.5519 217.408Z" fill="#382A4C"/>
    <path d="M40.0847 212.351L45.2356 209.916L47.6652 215.079L42.5143 217.514L40.0847 212.351Z" fill="#E7E0D4"/>
    <path d="M37.7567 207.405L42.9076 204.97L45.3372 210.132L40.1863 212.567L37.7567 207.405Z" fill="#F39200"/>
    <path d="M33.0663 197.439L38.2172 195.004L40.6468 200.166L35.4959 202.601L33.0663 197.439Z" fill="#F39200"/>
    <path d="M47.4553 215.003L52.6062 212.568L55.0358 217.731L49.8849 220.165L47.4553 215.003Z" fill="#382A4C"/>
    <path d="M45.093 209.984L50.2439 207.549L52.6735 212.711L47.5226 215.146L45.093 209.984Z" fill="#F39200"/>
    <path d="M42.764 205.038L47.9149 202.603L50.3445 207.765L45.1936 210.2L42.764 205.038Z" fill="#F39200"/>
    <path d="M40.4017 200.018L45.5526 197.583L47.9822 202.746L42.8313 205.181L40.4017 200.018Z" fill="#F39200"/>
    <path d="M38.0733 195.071L43.2242 192.636L45.6539 197.798L40.503 200.233L38.0733 195.071Z" fill="#E17346"/>
    <path d="M35.7114 190.053L40.8623 187.618L43.2919 192.78L38.141 195.215L35.7114 190.053Z" fill="#1D71B8"/>
    <path d="M33.383 185.105L38.5339 182.67L40.9636 187.833L35.8127 190.268L33.383 185.105Z" fill="#1D71B8"/>
    <path d="M31.0218 180.086L36.1727 177.651L38.6023 182.814L33.4514 185.249L31.0218 180.086Z" fill="#1D71B8"/>
    <path d="M28.6595 175.067L33.8104 172.632L36.24 177.794L31.0891 180.229L28.6595 175.067Z" fill="#1D71B8"/>
    <path d="M23.3224 163.729L28.4733 161.294L33.9108 172.848L28.7599 175.283L23.3224 163.729Z" fill="#1D71B8"/>
    <path d="M52.391 212.67L57.5419 210.235L59.9715 215.397L54.8206 217.832L52.391 212.67Z" fill="#382A4C"/>
    <path d="M50.0285 207.651L55.1794 205.216L57.6091 210.378L52.4582 212.813L50.0285 207.651Z" fill="#F39200"/>
    <path d="M47.7005 202.704L52.8514 200.269L55.281 205.431L50.1301 207.866L47.7005 202.704Z" fill="#F39200"/>
    <path d="M45.3381 197.685L50.489 195.25L52.9186 200.412L47.7677 202.847L45.3381 197.685Z" fill="#F39200"/>
    <path d="M43.0097 192.738L48.1606 190.303L50.5903 195.465L45.4393 197.9L43.0097 192.738Z" fill="#1D71B8"/>
    <path d="M40.6478 187.719L45.7987 185.284L48.2283 190.446L43.0774 192.881L40.6478 187.719Z" fill="#1D71B8"/>
    <path d="M38.3193 182.772L43.4702 180.337L45.8998 185.499L40.7489 187.934L38.3193 182.772Z" fill="#1D71B8"/>
    <path d="M35.9571 177.752L41.108 175.317L43.5376 180.48L38.3867 182.915L35.9571 177.752Z" fill="#1D71B8"/>
    <path d="M33.5952 172.734L38.7461 170.299L41.1757 175.461L36.0248 177.896L33.5952 172.734Z" fill="#1D71B8"/>
    <path d="M27.2163 159.179L32.3672 156.744L38.8482 170.514L33.6973 172.949L27.2163 159.179Z" fill="#1D71B8"/>
    <path d="M57.3993 210.302L62.5502 207.867L64.9798 213.03L59.8289 215.465L57.3993 210.302Z" fill="#26031F"/>
    <path d="M55.0368 205.283L60.1877 202.848L62.6174 208.01L57.4665 210.445L55.0368 205.283Z" fill="#E17346"/>
    <path d="M52.8131 200.375L57.8209 198.008L60.183 203.027L55.1752 205.394L52.8131 200.375Z" fill="#E17346"/>
    <path d="M50.3465 195.317L55.4974 192.882L57.927 198.045L52.7761 200.479L50.3465 195.317Z" fill="#E17346"/>
    <path d="M48.0182 190.37L53.1691 187.935L55.5987 193.097L50.4478 195.532L48.0182 190.37Z" fill="#105E7C"/>
    <path d="M45.6561 185.351L50.807 182.916L53.2366 188.079L48.0857 190.514L45.6561 185.351Z" fill="#105E7C"/>
    <path d="M43.3277 180.404L48.4786 177.969L50.9083 183.131L45.7574 185.566L43.3277 180.404Z" fill="#105E7C"/>
    <path d="M40.9654 175.385L46.1163 172.95L48.546 178.112L43.395 180.547L40.9654 175.385Z" fill="#105E7C"/>
    <path d="M38.6034 170.366L43.7543 167.931L46.1839 173.094L41.033 175.529L38.6034 170.366Z" fill="#105E7C"/>
    <path d="M29.9587 151.864L35.0472 149.458L43.9924 168.464L38.9039 170.87L29.9587 151.864Z" fill="#105E7C"/>
    <path d="M25.653 158.781L30.8224 161.176L28.4324 166.357L23.263 163.962L25.653 158.781Z" fill="#1D71B8"/>
    <path d="M25.6914 158.886L30.6454 161.181L28.355 166.146L23.401 163.851L25.6914 158.886Z" fill="#1D71B8"/>
    <path d="M27.9427 153.816L33.1121 156.211L30.722 161.392L25.5527 158.997L27.9427 153.816Z" fill="#1D71B8"/>
    <path d="M27.9817 153.921L32.9357 156.217L30.612 161.254L25.658 158.958L27.9817 153.921Z" fill="#1D71B8"/>
    <path d="M30.267 148.779L35.4364 151.175L33.0464 156.355L27.877 153.96L30.267 148.779Z" fill="#1D71B8"/>
    <path d="M30.3052 148.885L35.2592 151.18L32.9355 156.217L27.9815 153.922L30.3052 148.885Z" fill="#1D71B8"/>
    <path d="M32.5574 143.814L37.7268 146.209L35.3368 151.39L30.1674 148.995L32.5574 143.814Z" fill="#1D71B8"/>
    <path d="M32.5963 143.92L37.5503 146.215L35.2267 151.252L30.2727 148.957L32.5963 143.92Z" fill="#1D71B8"/>
    <path d="M34.8809 138.777L40.0503 141.173L37.6603 146.354L32.4909 143.958L34.8809 138.777Z" fill="#1D71B8"/>
    <path d="M34.9197 138.882L39.8737 141.178L37.5832 146.143L32.6292 143.847L34.9197 138.882Z" fill="#1D71B8"/>
    <path d="M37.1713 133.812L42.3407 136.207L39.9507 141.388L34.7813 138.993L37.1713 133.812Z" fill="#1D71B8"/>
    <path d="M37.2101 133.918L42.1641 136.213L39.8404 141.25L34.8864 138.955L37.2101 133.918Z" fill="#1D71B8"/>
    <path d="M39.4955 128.775L44.6649 131.17L42.2749 136.351L37.1055 133.956L39.4955 128.775Z" fill="#1D71B8"/>
    <path d="M39.5337 128.88L44.4877 131.176L42.164 136.213L37.21 133.917L39.5337 128.88Z" fill="#1D71B8"/>
    <path d="M41.7851 123.81L46.9545 126.206L44.5644 131.386L39.3951 128.991L41.7851 123.81Z" fill="#105E7C"/>
    <path d="M41.824 123.916L46.778 126.211L44.4543 131.248L39.5003 128.953L41.824 123.916Z" fill="#105E7C"/>
    <path d="M30.6066 161.076L35.776 163.471L33.386 168.652L28.2166 166.257L30.6066 161.076Z" fill="#1D71B8"/>
    <path d="M30.6451 161.182L35.6709 163.511L33.3805 168.476L28.3547 166.147L30.6451 161.182Z" fill="#1D71B8"/>
    <path d="M32.897 156.111L38.0664 158.507L35.6764 163.687L30.507 161.292L32.897 156.111Z" fill="#1D71B8"/>
    <path d="M32.9353 156.217L37.9611 158.546L35.6374 163.583L30.6116 161.254L32.9353 156.217Z" fill="#1D71B8"/>
    <path d="M35.2212 151.075L40.3906 153.47L38.0006 158.651L32.8312 156.256L35.2212 151.075Z" fill="#1D71B8"/>
    <path d="M35.2589 151.18L40.2847 153.509L37.961 158.546L32.9352 156.217L35.2589 151.18Z" fill="#1D71B8"/>
    <path d="M37.5107 146.109L42.6801 148.505L40.29 153.686L35.1206 151.29L37.5107 146.109Z" fill="#1D71B8"/>
    <path d="M37.5501 146.215L42.5759 148.544L40.2523 153.581L35.2265 151.252L37.5501 146.215Z" fill="#1D71B8"/>
    <path d="M39.8351 141.073L45.0045 143.468L42.6145 148.649L37.4451 146.254L39.8351 141.073Z" fill="#1D71B8"/>
    <path d="M39.8735 141.178L44.8993 143.506L42.6089 148.471L37.5831 146.143L39.8735 141.178Z" fill="#1D71B8"/>
    <path d="M42.1245 136.108L47.2939 138.503L44.9039 143.684L39.7345 141.288L42.1245 136.108Z" fill="#1D71B8"/>
    <path d="M42.1639 136.213L47.1897 138.542L44.8661 143.579L39.8403 141.25L42.1639 136.213Z" fill="#1D71B8"/>
    <path d="M44.449 131.07L49.6184 133.465L47.2284 138.646L42.059 136.251L44.449 131.07Z" fill="#1D71B8"/>
    <path d="M44.4874 131.176L49.5132 133.504L47.1896 138.541L42.1638 136.213L44.4874 131.176Z" fill="#1D71B8"/>
    <path d="M46.7394 126.106L51.9088 128.501L49.5188 133.682L44.3494 131.287L46.7394 126.106Z" fill="#1D71B8"/>
    <path d="M46.7777 126.211L51.8035 128.539L49.4798 133.576L44.454 131.247L46.7777 126.211Z" fill="#1D71B8"/>
    <path d="M49.0629 121.069L54.2323 123.464L51.8423 128.645L46.6729 126.25L49.0629 121.069Z" fill="#1D71B8"/>
    <path d="M49.1012 121.174L54.127 123.503L51.8365 128.468L46.8107 126.139L49.1012 121.174Z" fill="#1D71B8"/>
    <path d="M37.9225 158.44L43.0919 160.835L40.7019 166.016L35.5325 163.621L37.9225 158.44Z" fill="#105E7C"/>
    <path d="M37.9608 158.545L42.9866 160.873L40.6629 165.91L35.6371 163.582L37.9608 158.545Z" fill="#105E7C"/>
    <path d="M40.2469 153.403L45.4163 155.799L43.0262 160.979L37.8568 158.584L40.2469 153.403Z" fill="#105E7C"/>
    <path d="M40.2843 153.508L45.3101 155.837L42.9864 160.874L37.9606 158.545L40.2843 153.508Z" fill="#105E7C"/>
    <path d="M42.5371 148.438L47.7065 150.833L45.3165 156.014L40.1471 153.619L42.5371 148.438Z" fill="#105E7C"/>
    <path d="M42.5755 148.543L47.6013 150.872L45.2777 155.908L40.2519 153.58L42.5755 148.543Z" fill="#105E7C"/>
    <path d="M44.8606 143.401L50.03 145.797L47.64 150.978L42.4706 148.582L44.8606 143.401Z" fill="#105E7C"/>
    <path d="M44.899 143.506L49.9248 145.835L47.6344 150.8L42.6086 148.471L44.899 143.506Z" fill="#105E7C"/>
    <path d="M47.1509 138.436L52.3203 140.832L49.9303 146.012L44.7609 143.617L47.1509 138.436Z" fill="#105E7C"/>
    <path d="M49.4753 133.4L54.6447 135.795L52.2546 140.976L47.0852 138.58L49.4753 133.4Z" fill="#1D71B8"/>
    <path d="M49.5128 133.504L54.5386 135.833L52.2149 140.87L47.1891 138.541L49.5128 133.504Z" fill="#1D71B8"/>
    <path d="M51.7648 128.434L56.9342 130.83L54.5442 136.011L49.3748 133.615L51.7648 128.434Z" fill="#1D71B8"/>
    <path d="M51.8032 128.539L56.829 130.868L54.5054 135.905L49.4796 133.576L51.8032 128.539Z" fill="#1D71B8"/>
    <path d="M54.0883 123.398L59.2577 125.793L56.8677 130.974L51.6983 128.578L54.0883 123.398Z" fill="#1D71B8"/>
    <path d="M54.1268 123.502L59.1526 125.831L56.8622 130.796L51.8364 128.467L54.1268 123.502Z" fill="#1D71B8"/>
    <path d="M56.4122 118.361L61.582 120.756L59.1911 125.936L54.0213 123.542L56.4122 118.361Z" fill="#54A84E"/>
    <path d="M50.0488 132.341L55.0746 134.67L49.8906 145.907L44.8648 143.578L50.0488 132.341Z" fill="#105E7C"/>
    <path d="M72.4628 160.017L77.5444 157.44L80.1157 162.533L75.0341 165.11L72.4628 160.017Z" fill="#1D71B8"/>
    <path d="M72.5694 160.053L77.4393 157.583L81.9518 166.521L77.0818 168.99L72.5694 160.053Z" fill="#1D71B8"/>
    <path d="M69.9991 155.137L75.0808 152.56L77.6521 157.653L72.5704 160.23L69.9991 155.137Z" fill="#1D71B8"/>
    <path d="M70.105 155.171L74.975 152.702L77.4748 157.653L72.6049 160.123L70.105 155.171Z" fill="#1D71B8"/>
    <path d="M67.499 150.185L72.5807 147.608L75.152 152.701L70.0703 155.278L67.499 150.185Z" fill="#1D71B8"/>
    <path d="M67.6053 150.22L72.4752 147.751L74.9751 152.702L70.1051 155.172L67.6053 150.22Z" fill="#1D71B8"/>
    <path d="M65.0353 145.304L70.1169 142.728L72.6882 147.82L67.6066 150.397L65.0353 145.304Z" fill="#1D71B8"/>
    <path d="M65.1411 145.339L70.011 142.87L72.5108 147.821L67.6409 150.291L65.1411 145.339Z" fill="#1D71B8"/>
    <path d="M62.5355 140.353L67.6172 137.776L70.1885 142.869L65.1068 145.446L62.5355 140.353Z" fill="#1D71B8"/>
    <path d="M62.6413 140.387L67.5112 137.918L69.9754 142.798L65.1054 145.268L62.6413 140.387Z" fill="#1D71B8"/>
    <path d="M60.0712 135.472L65.1528 132.895L67.7241 137.988L62.6424 140.565L60.0712 135.472Z" fill="#1D71B8"/>
    <path d="M60.1778 135.507L65.0477 133.037L67.5476 137.989L62.6777 140.458L60.1778 135.507Z" fill="#1D71B8"/>
    <path d="M57.5709 130.52L62.6526 127.943L65.2239 133.036L60.1422 135.613L57.5709 130.52Z" fill="#1D71B8"/>
    <path d="M57.6773 130.556L62.5472 128.086L65.0471 133.038L60.1772 135.507L57.6773 130.556Z" fill="#1D71B8"/>
    <path d="M55.1072 125.64L60.1888 123.063L62.7601 128.156L57.6785 130.733L55.1072 125.64Z" fill="#105E7C"/>
    <path d="M55.213 125.675L60.0829 123.205L62.5827 128.157L57.7128 130.626L55.213 125.675Z" fill="#105E7C"/>
    <path d="M77.3325 157.547L82.4142 154.97L84.9855 160.063L79.9038 162.64L77.3325 157.547Z" fill="#1D71B8"/>
    <path d="M77.4389 157.583L82.3794 155.078L90.4256 171.015L85.4851 173.52L77.4389 157.583Z" fill="#1D71B8"/>
    <path d="M74.8688 152.667L79.9504 150.09L82.5217 155.183L77.4401 157.76L74.8688 152.667Z" fill="#1D71B8"/>
    <path d="M74.9745 152.702L79.915 150.197L82.4149 155.148L77.4744 157.653L74.9745 152.702Z" fill="#1D71B8"/>
    <path d="M72.3693 147.715L77.4509 145.138L80.0222 150.231L74.9405 152.808L72.3693 147.715Z" fill="#1D71B8"/>
    <path d="M72.4749 147.751L77.4154 145.246L79.9153 150.197L74.9748 152.702L72.4749 147.751Z" fill="#1D71B8"/>
    <path d="M69.9048 142.835L74.9865 140.258L77.5577 145.351L72.4761 147.927L69.9048 142.835Z" fill="#1D71B8"/>
    <path d="M70.0113 142.87L74.9518 140.364L77.4516 145.316L72.5111 147.821L70.0113 142.87Z" fill="#1D71B8"/>
    <path d="M67.4053 137.884L72.4869 135.307L75.0582 140.399L69.9766 142.976L67.4053 137.884Z" fill="#1D71B8"/>
    <path d="M67.5109 137.918L72.4514 135.413L74.9156 140.293L69.9751 142.799L67.5109 137.918Z" fill="#1D71B8"/>
    <path d="M64.9407 133.003L70.0223 130.426L72.5936 135.519L67.512 138.096L64.9407 133.003Z" fill="#1D71B8"/>
    <path d="M65.0474 133.038L69.9879 130.532L72.4878 135.484L67.5473 137.989L65.0474 133.038Z" fill="#1D71B8"/>
    <path d="M62.4403 128.05L67.522 125.473L70.0933 130.566L65.0116 133.143L62.4403 128.05Z" fill="#1D71B8"/>
    <path d="M62.5468 128.086L67.4873 125.581L69.9872 130.533L65.0467 133.038L62.5468 128.086Z" fill="#1D71B8"/>
    <path d="M59.9767 123.171L65.0583 120.594L67.6296 125.687L62.548 128.264L59.9767 123.171Z" fill="#1D71B8"/>
    <path d="M60.0826 123.205L65.0231 120.7L67.5229 125.651L62.5824 128.157L60.0826 123.205Z" fill="#1D71B8"/>
    <path d="M57.4762 118.219L62.5579 115.642L65.1291 120.735L60.0475 123.312L57.4762 118.219Z" fill="#1D71B8"/>
    <path d="M57.4935 118.212L62.434 115.707L64.8981 120.587L59.9576 123.093L57.4935 118.212Z" fill="#54A84E"/>
    <path d="M82.2743 155.042L87.356 152.465L91.3947 160.464L86.313 163.041L82.2743 155.042Z" fill="#105E7C"/>
    <path d="M79.809 150.161L84.8906 147.584L87.4619 152.677L82.3802 155.254L79.809 150.161Z" fill="#105E7C"/>
    <path d="M79.9147 150.196L84.8552 147.691L87.3551 152.642L82.4146 155.147L79.9147 150.196Z" fill="#105E7C"/>
    <path d="M77.3102 145.21L82.3918 142.633L84.9631 147.726L79.8815 150.303L77.3102 145.21Z" fill="#105E7C"/>
    <path d="M77.415 145.246L82.3555 142.74L84.8553 147.692L79.9148 150.197L77.415 145.246Z" fill="#105E7C"/>
    <path d="M74.845 140.329L79.9266 137.752L82.4979 142.845L77.4163 145.422L74.845 140.329Z" fill="#105E7C"/>
    <path d="M74.9516 140.364L79.8921 137.858L82.3919 142.81L77.4514 145.315L74.9516 140.364Z" fill="#105E7C"/>
    <path d="M72.3453 135.378L77.427 132.801L79.9983 137.894L74.9166 140.471L72.3453 135.378Z" fill="#105E7C"/>
    <path d="M72.4511 135.413L77.3916 132.907L79.8557 137.788L74.9152 140.293L72.4511 135.413Z" fill="#105E7C"/>
    <path d="M69.8809 130.497L74.9625 127.92L77.5338 133.013L72.4521 135.59L69.8809 130.497Z" fill="#105E7C"/>
    <path d="M69.9867 130.532L74.9272 128.027L77.4271 132.978L72.4866 135.484L69.9867 130.532Z" fill="#105E7C"/>
    <path d="M67.3812 125.545L72.4629 122.968L75.0342 128.061L69.9525 130.638L67.3812 125.545Z" fill="#1D71B8"/>
    <path d="M67.4871 125.581L72.4276 123.075L74.9275 128.027L69.987 130.532L67.4871 125.581Z" fill="#1D71B8"/>
    <path d="M64.9177 120.665L69.9994 118.088L72.5707 123.181L67.489 125.758L64.9177 120.665Z" fill="#1D71B8"/>
    <path d="M65.0226 120.7L69.9631 118.195L72.463 123.146L67.5225 125.652L65.0226 120.7Z" fill="#1D71B8"/>
    <path d="M62.4172 115.714L67.4989 113.137L70.0702 118.23L64.9885 120.807L62.4172 115.714Z" fill="#1D71B8"/>
    <path d="M60.5367 114.159L70.2618 114.159L70.2618 119.629L60.5367 119.629L60.5367 114.159Z" fill="#54A84E"/>
    <path d="M82.8112 229.763L87.9001 227.2L90.457 232.301L85.3681 234.863L82.8112 229.763Z" fill="#382A4C"/>
    <path d="M87.7593 227.272L92.8483 224.709L95.4051 229.809L90.3162 232.372L87.7593 227.272Z" fill="#382A4C"/>
    <path d="M85.2728 222.312L90.3617 219.75L92.9186 224.85L87.8296 227.412L85.2728 222.312Z" fill="white"/>
    <path d="M82.8231 217.425L87.912 214.863L90.4689 219.963L85.3799 222.525L82.8231 217.425Z" fill="white"/>
    <path d="M92.6359 224.816L97.7249 222.253L100.282 227.353L95.1928 229.916L92.6359 224.816Z" fill="#382A4C"/>
    <path d="M90.1501 219.857L95.239 217.294L97.7959 222.395L92.707 224.957L90.1501 219.857Z" fill="white"/>
    <path d="M87.6996 214.969L92.7886 212.407L95.3454 217.507L90.2565 220.07L87.6996 214.969Z" fill="#E7E0D4"/>
    <path d="M97.6896 222.359L102.637 219.868L105.123 224.826L100.175 227.318L97.6896 222.359Z" fill="#382A4C"/>
    <path d="M95.098 217.365L100.187 214.803L102.744 219.903L97.6548 222.466L95.098 217.365Z" fill="#E7E0D4"/>
    <path d="M92.6475 212.478L97.7365 209.915L100.293 215.016L95.2044 217.578L92.6475 212.478Z" fill="#F39200"/>
    <path d="M87.7111 202.632L92.8 200.069L95.3569 205.169L90.268 207.732L87.7111 202.632Z" fill="#F39200"/>
    <path d="M102.532 219.833L107.621 217.27L110.178 222.37L105.089 224.933L102.532 219.833Z" fill="#382A4C"/>
    <path d="M100.045 214.873L105.134 212.311L107.691 217.411L102.602 219.974L100.045 214.873Z" fill="#F39200"/>
    <path d="M97.5948 209.987L102.684 207.424L105.241 212.525L100.152 215.087L97.5948 209.987Z" fill="#F39200"/>
    <path d="M95.1089 205.028L100.198 202.466L102.755 207.566L97.6658 210.128L95.1089 205.028Z" fill="#F39200"/>
    <path d="M92.6586 200.141L97.7476 197.578L100.304 202.678L95.2155 205.241L92.6586 200.141Z" fill="#E17346"/>
    <path d="M90.1725 195.182L95.2615 192.619L97.8183 197.719L92.7294 200.282L90.1725 195.182Z" fill="#1D71B8"/>
    <path d="M87.7228 190.294L92.8118 187.731L95.3686 192.832L90.2797 195.394L87.7228 190.294Z" fill="#1D71B8"/>
    <path d="M85.2375 185.336L90.3264 182.773L92.8833 187.873L87.7944 190.436L85.2375 185.336Z" fill="#1D71B8"/>
    <path d="M82.7515 180.377L87.8405 177.814L90.3973 182.914L85.3084 185.477L82.7515 180.377Z" fill="#1D71B8"/>
    <path d="M80.3011 175.489L85.39 172.927L87.9469 178.027L82.858 180.59L80.3011 175.489Z" fill="#1D71B8"/>
    <path d="M75.7219 166.236L80.8108 163.673L85.7364 173.498L80.6474 176.061L75.7219 166.236Z" fill="#1D71B8"/>
    <path d="M107.409 217.377L112.497 214.814L115.054 219.915L109.965 222.477L107.409 217.377Z" fill="#382A4C"/>
    <path d="M104.923 212.418L110.011 209.856L112.568 214.956L107.479 217.518L104.923 212.418Z" fill="#F39200"/>
    <path d="M102.472 207.531L107.561 204.968L110.118 210.068L105.029 212.631L102.472 207.531Z" fill="#F39200"/>
    <path d="M99.9863 202.572L105.075 200.009L107.632 205.11L102.543 207.672L99.9863 202.572Z" fill="#F39200"/>
    <path d="M97.5358 197.684L102.625 195.122L105.182 200.222L100.093 202.785L97.5358 197.684Z" fill="#1D71B8"/>
    <path d="M95.0497 192.727L100.139 190.164L102.696 195.264L97.6066 197.827L95.0497 192.727Z" fill="#1D71B8"/>
    <path d="M92.5995 187.838L97.6885 185.276L100.245 190.376L95.1564 192.938L92.5995 187.838Z" fill="#1D71B8"/>
    <path d="M90.1135 182.88L95.2024 180.318L97.7593 185.418L92.6703 187.981L90.1135 182.88Z" fill="#1D71B8"/>
    <path d="M87.6275 177.922L92.7164 175.359L95.2733 180.459L90.1844 183.022L87.6275 177.922Z" fill="#1D71B8"/>
    <path d="M83.6159 169.918L88.7048 167.356L92.8237 175.572L87.7347 178.134L83.6159 169.918Z" fill="#1D71B8"/>
    <path d="M112.356 214.886L117.445 212.324L120.002 217.424L114.913 219.986L112.356 214.886Z" fill="#26031F"/>
    <path d="M109.87 209.927L114.959 207.365L117.516 212.465L112.427 215.027L109.87 209.927Z" fill="#E17346"/>
    <path d="M107.526 205.075L112.473 202.584L114.959 207.542L110.012 210.034L107.526 205.075Z" fill="#E17346"/>
    <path d="M104.934 200.081L110.022 197.518L112.579 202.619L107.49 205.181L104.934 200.081Z" fill="#E17346"/>
    <path d="M102.484 195.193L107.573 192.63L110.129 197.731L105.041 200.293L102.484 195.193Z" fill="#105E7C"/>
    <path d="M99.9977 190.235L105.087 187.673L107.644 192.773L102.555 195.335L99.9977 190.235Z" fill="#105E7C"/>
    <path d="M97.5474 185.347L102.636 182.784L105.193 187.884L100.104 190.447L97.5474 185.347Z" fill="#105E7C"/>
    <path d="M95.0615 180.389L100.15 177.826L102.707 182.927L97.6183 185.489L95.0615 180.389Z" fill="#105E7C"/>
    <path d="M84.7427 159.804L89.8317 157.241L100.222 177.967L95.1334 180.53L84.7427 159.804Z" fill="#105E7C"/>
    <path d="M39.2153 124.184H48.8488V134.632H39.2153V124.184Z" fill="#1D71B8"/>
    <path d="M48.8488 124.184H58.622V134.632H48.8488V124.184Z" fill="#1D71B8"/>
    <path d="M58.622 124.184H68.3938V134.632H58.622V124.184Z" fill="#1D71B8"/>
    <path d="M68.2555 124.184H78.0286V134.632H68.2555V124.184Z" fill="#1D71B8"/>
    <path d="M17.0491 82.529L18.4617 87.8126L13.1898 89.2283L11.7772 83.9447L17.0491 82.529Z" fill="#FFE4CE"/>
    <path d="M22.3207 81.1136L23.7333 86.3971L18.385 87.8333L16.9724 82.5498L22.3207 81.1136Z" fill="#FFE4CE"/>
    <path d="M27.6691 79.6773L29.0817 84.9609L23.7334 86.3971L22.3208 81.1136L27.6691 79.6773Z" fill="#FFE4CE"/>
    <path d="M36.9921 77.1744L38.4047 82.4579L29.0054 84.982L27.5928 79.6985L36.9921 77.1744Z" fill="#FFE4CE"/>
    <path d="M38.2892 76.8249L39.7018 82.1084L34.4299 83.5241L33.0173 78.2406L38.2892 76.8249Z" fill="#FFE4CE"/>
    <path d="M43.5608 75.4097L44.9734 80.6932L39.6251 82.1294L38.2125 76.8459L43.5608 75.4097Z" fill="#FFE4CE"/>
    <path d="M18.4616 87.8128L19.8947 93.1729L14.6228 94.5887L13.1897 89.2285L18.4616 87.8128Z" fill="#FFE4CE"/>
    <path d="M23.7332 86.3974L25.1663 91.7575L19.818 93.1937L18.3849 87.8336L23.7332 86.3974Z" fill="#FFE4CE"/>
    <path d="M29.0817 84.9611L30.5148 90.3213L25.1665 91.7575L23.7334 86.3974L29.0817 84.9611Z" fill="#FFE4CE"/>
    <path d="M38.9015 82.3237L40.3346 87.6838L30.4382 90.3414L29.0051 84.9813L38.9015 82.3237Z" fill="#F57E77"/>
    <path d="M39.7017 82.1087L41.1348 87.4688L35.8629 88.8845L34.4298 83.5244L39.7017 82.1087Z" fill="#F57E77"/>
    <path d="M44.9733 80.6934L46.4064 86.0535L41.0581 87.4897L39.625 82.1296L44.9733 80.6934Z" fill="#F57E77"/>
    <path d="M25.1462 91.6806L26.5792 97.0407L21.2309 98.4769L19.7979 93.1168L25.1462 91.6806Z" fill="#FFE4CE"/>
    <path d="M30.4939 90.2443L31.927 95.6045L26.5787 97.0407L25.1456 91.6806L30.4939 90.2443Z" fill="#F57E77"/>
    <path d="M39.2707 116.604H44.9658V122.311H39.2707V116.604Z" fill="#54A84E"/>
    <path d="M39.3495 116.683H44.8074V122.233H39.3495V116.683Z" fill="#54A84E"/>
    <path d="M39.2707 111.055H44.9658V116.762H39.2707V111.055Z" fill="#54A84E"/>
    <path d="M39.3495 111.134H44.8074V116.683H39.3495V111.134Z" fill="#54A84E"/>
    <path d="M39.2707 105.585H44.9658V111.293H39.2707V105.585Z" fill="#54A84E"/>
    <path d="M39.3495 105.664H44.8074V111.134H39.3495V105.664Z" fill="#54A84E"/>
    <path d="M39.2707 100.035H44.9658V105.743H39.2707V100.035Z" fill="#54A84E"/>
    <path d="M39.3495 100.115H44.8074V105.664H39.3495V100.115Z" fill="#54A84E"/>
    <path d="M39.2707 94.5652H44.9658V100.273H39.2707V94.5652Z" fill="#54A84E"/>
    <path d="M39.3495 94.6449H44.8074V100.194H39.3495V94.6449Z" fill="#54A84E"/>
    <path d="M39.2707 89.0164H44.9658V94.7241H39.2707V89.0164Z" fill="#54A84E"/>
    <path d="M39.3495 89.0952H44.8074V94.6444H39.3495V89.0952Z" fill="#54A84E"/>
    <path d="M39.2707 83.5463H44.9658V89.254H39.2707V83.5463Z" fill="#54A84E"/>
    <path d="M39.3495 83.6252H44.8074V89.0951H39.3495V83.6252Z" fill="#54A84E"/>
    <path d="M39.2707 77.9967H44.9658V83.7044H39.2707V77.9967Z" fill="#54A84E"/>
    <path d="M39.3505 77.3973H44.8083V82.9465H39.3505V77.3973Z" fill="#54A84E"/>
    <path d="M39.2707 72.5275H44.9658V78.2353H39.2707V72.5275Z" fill="#54A84E"/>
    <path d="M39.3505 71.9274H44.8083V77.4766H39.3505V71.9274Z" fill="#54A84E"/>
    <path d="M39.2707 66.9779H44.9658V72.6856H39.2707V66.9779Z" fill="#54A84E"/>
    <path d="M39.3495 67.0567H44.8074V72.6059H39.3495V67.0567Z" fill="#54A84E"/>
    <path d="M39.2707 61.5078H44.9658V67.2156H39.2707V61.5078Z" fill="#54A84E"/>
    <path d="M39.3495 61.5875H44.8074V67.0574H39.3495V61.5875Z" fill="#54A84E"/>
    <path d="M39.2707 55.959H44.9658V61.6668H39.2707V55.959Z" fill="#54A84E"/>
    <path d="M39.3495 56.0379H44.8074V61.5871H39.3495V56.0379Z" fill="#54A84E"/>
    <path d="M35.4118 61.4805H40.8696V67.0297H35.4118V61.4805Z" fill="#54A84E"/>
    <path d="M35.4118 64.9631H40.8696V70.5123H35.4118V64.9631Z" fill="#54A84E"/>
    <path d="M35.4118 68.4456H40.8696V73.9948H35.4118V68.4456Z" fill="#54A84E"/>
    <path d="M39.2707 17.3521H44.9658V23.0599H39.2707V17.3521Z" fill="#3D041F"/>
    <path d="M39.3495 17.4309H44.8074V22.9801H39.3495V17.4309Z" fill="#3D041F"/>
    <path d="M39.2707 11.8821H44.9658V17.5898H39.2707V11.8821Z" fill="#621931"/>
    <path d="M39.3495 11.9618H44.8074V17.511H39.3495V11.9618Z" fill="#621931"/>
    <path d="M39.2707 6.33325H44.9658V12.041H39.2707V6.33325Z" fill="#621931"/>
    <path d="M39.3495 6.41214H44.8074V11.9613H39.3495V6.41214Z" fill="#621931"/>
    <path d="M44.7292 116.604H50.4243V122.311H44.7292V116.604Z" fill="#54A84E"/>
    <path d="M44.7292 111.055H50.4243V116.762H44.7292V111.055Z" fill="#54A84E"/>
    <path d="M44.808 111.134H50.345V116.683H44.808V111.134Z" fill="#54A84E"/>
    <path d="M44.7292 105.585H50.4243V111.293H44.7292V105.585Z" fill="#54A84E"/>
    <path d="M44.808 105.664H50.345V111.134H44.808V105.664Z" fill="#54A84E"/>
    <path d="M44.7292 100.035H50.4243V105.743H44.7292V100.035Z" fill="#54A84E"/>
    <path d="M44.808 100.115H50.345V105.664H44.808V100.115Z" fill="#54A84E"/>
    <path d="M44.7292 94.5652H50.4243V100.273H44.7292V94.5652Z" fill="#54A84E"/>
    <path d="M44.808 94.6449H50.345V100.194H44.808V94.6449Z" fill="#54A84E"/>
    <path d="M44.7292 89.0164H50.4243V94.7241H44.7292V89.0164Z" fill="#54A84E"/>
    <path d="M44.808 89.0952H50.345V94.6444H44.808V89.0952Z" fill="#54A84E"/>
    <path d="M44.7292 83.5463H50.4243V89.254H44.7292V83.5463Z" fill="#54A84E"/>
    <path d="M44.808 83.6252H50.345V89.0951H44.808V83.6252Z" fill="#54A84E"/>
    <path d="M44.7292 77.9967H50.4243V83.7044H44.7292V77.9967Z" fill="#54A84E"/>
    <path d="M44.808 78.0764H50.345V83.6256H44.808V78.0764Z" fill="#54A84E"/>
    <path d="M44.7292 72.5275H50.4243V78.2353H44.7292V72.5275Z" fill="#54A84E"/>
    <path d="M44.808 72.6064H50.345V78.1556H44.808V72.6064Z" fill="#54A84E"/>
    <path d="M44.7292 66.9779H50.4243V72.6856H44.7292V66.9779Z" fill="#54A84E"/>
    <path d="M44.808 67.0567H50.345V72.6059H44.808V67.0567Z" fill="#54A84E"/>
    <path d="M44.7292 61.5078H50.4243V67.2156H44.7292V61.5078Z" fill="#54A84E"/>
    <path d="M44.808 61.5875H50.345V67.0574H44.808V61.5875Z" fill="#54A84E"/>
    <path d="M44.7292 55.959H50.4243V61.6668H44.7292V55.959Z" fill="#F57E77"/>
    <path d="M44.808 56.0379H50.345V61.5871H44.808V56.0379Z" fill="#54A84E"/>
    <path d="M44.7292 33.9206H50.4243V39.6283H44.7292V33.9206Z" fill="#FFE4CE"/>
    <path d="M44.808 33.9995H50.345V39.5486H44.808V33.9995Z" fill="#FFE4CE"/>
    <path d="M44.7292 28.3709H50.4243V34.0787H44.7292V28.3709Z" fill="#FFE4CE"/>
    <path d="M44.808 28.4506H50.345V33.9998H44.808V28.4506Z" fill="#FFE4CE"/>
    <path d="M47.8186 23.1733H58.2429V30.1382H47.8186V23.1733Z" fill="#FFE4CE"/>
    <path d="M44.7292 22.9018H50.4243V28.6095H44.7292V22.9018Z" fill="#FFE4CE"/>
    <path d="M44.808 22.9807H50.345V28.4506H44.808V22.9807Z" fill="#FFE4CE"/>
    <path d="M44.7292 17.3521H50.4243V23.0599H44.7292V17.3521Z" fill="#FFE4CE"/>
    <path d="M44.808 17.4309H50.345V22.9801H44.808V17.4309Z" fill="#FFE4CE"/>
    <path d="M44.7292 11.8821H50.4243V17.5898H44.7292V11.8821Z" fill="#3D041F"/>
    <path d="M44.808 11.9618H50.345V17.511H44.808V11.9618Z" fill="#3D041F"/>
    <path d="M44.7292 6.33325H50.4243V12.041H44.7292V6.33325Z" fill="#621931"/>
    <path d="M44.808 6.41214H50.345V11.9613H44.808V6.41214Z" fill="#621931"/>
    <path d="M44.7292 0.863312H50.4243V6.57106H44.7292V0.863312Z" fill="#621931"/>
    <path d="M44.808 0.942078H50.345V6.412H44.808V0.942078Z" fill="#621931"/>
    <path d="M50.2658 116.604H55.9609V122.311H50.2658V116.604Z" fill="#54A84E"/>
    <path d="M50.3445 116.683H55.8815V122.233H50.3445V116.683Z" fill="#54A84E"/>
    <path d="M50.2658 111.055H55.9609V116.762H50.2658V111.055Z" fill="#54A84E"/>
    <path d="M50.3445 111.134H55.8815V116.683H50.3445V111.134Z" fill="#54A84E"/>
    <path d="M50.2658 105.585H55.9609V111.293H50.2658V105.585Z" fill="#54A84E"/>
    <path d="M50.3445 105.664H55.8815V111.134H50.3445V105.664Z" fill="#54A84E"/>
    <path d="M50.2658 100.035H55.9609V105.743H50.2658V100.035Z" fill="#54A84E"/>
    <path d="M50.3445 100.115H55.8815V105.664H50.3445V100.115Z" fill="#54A84E"/>
    <path d="M50.2658 94.5652H55.9609V100.273H50.2658V94.5652Z" fill="#54A84E"/>
    <path d="M50.3445 94.6449H55.8815V100.194H50.3445V94.6449Z" fill="#54A84E"/>
    <path d="M50.2658 89.0164H55.9609V94.7241H50.2658V89.0164Z" fill="#54A84E"/>
    <path d="M50.3445 89.0952H55.8815V94.6444H50.3445V89.0952Z" fill="#54A84E"/>
    <path d="M50.2658 83.5463H55.9609V89.254H50.2658V83.5463Z" fill="#54A84E"/>
    <path d="M50.3445 83.6252H55.8815V89.0951H50.3445V83.6252Z" fill="#54A84E"/>
    <path d="M50.2658 77.9967H55.9609V83.7044H50.2658V77.9967Z" fill="#54A84E"/>
    <path d="M50.3445 78.0764H55.8815V83.6256H50.3445V78.0764Z" fill="#54A84E"/>
    <path d="M50.2658 72.5275H55.9609V78.2353H50.2658V72.5275Z" fill="#54A84E"/>
    <path d="M50.3445 72.6064H55.8815V78.1556H50.3445V72.6064Z" fill="#54A84E"/>
    <path d="M50.2658 66.9779H55.9609V72.6856H50.2658V66.9779Z" fill="#54A84E"/>
    <path d="M50.3445 67.0567H55.8815V72.6059H50.3445V67.0567Z" fill="#54A84E"/>
    <path d="M50.2658 61.5078H55.9609V67.2156H50.2658V61.5078Z" fill="#54A84E"/>
    <path d="M50.3445 61.5875H55.8815V67.0574H50.3445V61.5875Z" fill="#54A84E"/>
    <path d="M50.2658 55.959H55.9609V61.6668H50.2658V55.959Z" fill="#F57E77"/>
    <path d="M50.3445 56.0379H55.8815V61.5871H50.3445V56.0379Z" fill="#F57E77"/>
    <path d="M50.2658 50.4102H55.9609V56.1179H50.2658V50.4102Z" fill="#F57E77"/>
    <path d="M50.3445 50.4891H55.8815V56.0383H50.3445V50.4891Z" fill="#F57E77"/>
    <path d="M50.2658 44.9395H55.9609V50.6472H50.2658V44.9395Z" fill="#F57E77"/>
    <path d="M50.2658 39.3906H55.9609V45.0984H50.2658V39.3906Z" fill="#FFE4CE"/>
    <path d="M47.8191 19.6916H68.6676V30.1389H47.8191V19.6916Z" fill="#FFE4CE"/>
    <path d="M50.2658 33.9206H55.9609V39.6283H50.2658V33.9206Z" fill="#FFE4CE"/>
    <path d="M50.3445 33.9995H55.8815V39.5486H50.3445V33.9995Z" fill="#FFE4CE"/>
    <path d="M50.2658 28.3709H55.9609V34.0787H50.2658V28.3709Z" fill="#FFE4CE"/>
    <path d="M50.3445 28.4506H55.8815V33.9998H50.3445V28.4506Z" fill="#FFE4CE"/>
    <path d="M50.2658 17.3521H55.9609V23.0599H50.2658V17.3521Z" fill="#FFE4CE"/>
    <path d="M50.3445 17.4309H55.8815V22.9801H50.3445V17.4309Z" fill="#FFE4CE"/>
    <path d="M50.2658 11.8821H55.9609V17.5898H50.2658V11.8821Z" fill="#FFE4CE"/>
    <path d="M50.3445 11.9618H55.8815V17.511H50.3445V11.9618Z" fill="#FFE4CE"/>
    <path d="M50.2658 6.33325H55.9609V12.041H50.2658V6.33325Z" fill="#3D041F"/>
    <path d="M50.3445 6.41214H55.8815V11.9613H50.3445V6.41214Z" fill="#3D041F"/>
    <path d="M50.2658 0.863312H55.9609V6.57106H50.2658V0.863312Z" fill="#621931"/>
    <path d="M50.3445 0.942078H55.8815V6.412H50.3445V0.942078Z" fill="#621931"/>
    <path d="M59.2781 122.311H64.8151V124.192H59.2781V122.311Z" fill="#105E7C"/>
    <path d="M64.0589 120.682H74.4832V124.165H64.0589V120.682Z" fill="#105E7C"/>
    <path d="M55.7227 111.055H61.4178V116.762H55.7227V111.055Z" fill="#54A84E"/>
    <path d="M55.8031 111.134H61.3401V116.683H55.8031V111.134Z" fill="#54A84E"/>
    <path d="M55.7227 105.585H61.4178V111.293H55.7227V105.585Z" fill="#54A84E"/>
    <path d="M55.8031 105.664H61.3401V111.134H55.8031V105.664Z" fill="#54A84E"/>
    <path d="M55.7227 100.035H61.4178V105.743H55.7227V100.035Z" fill="#54A84E"/>
    <path d="M55.8031 100.115H61.3401V105.664H55.8031V100.115Z" fill="#54A84E"/>
    <path d="M55.7227 94.5652H61.4178V100.273H55.7227V94.5652Z" fill="#54A84E"/>
    <path d="M55.8031 94.6449H61.3401V100.194H55.8031V94.6449Z" fill="#54A84E"/>
    <path d="M55.7227 89.0164H61.4178V94.7241H55.7227V89.0164Z" fill="#54A84E"/>
    <path d="M55.8031 89.0952H61.3401V94.6444H55.8031V89.0952Z" fill="#54A84E"/>
    <path d="M55.7227 83.5463H61.4178V89.254H55.7227V83.5463Z" fill="#54A84E"/>
    <path d="M55.8031 83.6252H61.3401V89.0951H55.8031V83.6252Z" fill="#54A84E"/>
    <path d="M55.7227 77.9967H61.4178V83.7044H55.7227V77.9967Z" fill="#54A84E"/>
    <path d="M55.8031 78.0764H61.3401V83.6256H55.8031V78.0764Z" fill="#54A84E"/>
    <path d="M55.7227 72.5275H61.4178V78.2353H55.7227V72.5275Z" fill="#54A84E"/>
    <path d="M55.8031 72.6064H61.3401V78.1556H55.8031V72.6064Z" fill="#54A84E"/>
    <path d="M55.7227 66.9779H61.4178V72.6856H55.7227V66.9779Z" fill="#54A84E"/>
    <path d="M55.8031 67.0567H61.3401V72.6059H55.8031V67.0567Z" fill="#54A84E"/>
    <path d="M55.7227 61.5078H61.4178V67.2156H55.7227V61.5078Z" fill="#F57E77"/>
    <path d="M50.4243 61.5875H61.3401V69.3782H50.4243V61.5875Z" fill="#54A84E"/>
    <path d="M55.7227 55.959H61.4178V61.6668H55.7227V55.959Z" fill="#FFE4CE"/>
    <path d="M55.8031 56.0379H61.3401V61.5871H55.8031V56.0379Z" fill="#FFE4CE"/>
    <path d="M55.7227 50.4102H61.4178V56.1179H55.7227V50.4102Z" fill="#FFE4CE"/>
    <path d="M55.8031 50.4891H61.3401V56.0383H55.8031V50.4891Z" fill="#FFE4CE"/>
    <path d="M55.7227 44.9395H61.4178V50.6472H55.7227V44.9395Z" fill="#FFE4CE"/>
    <path d="M55.8031 45.0191H61.3401V50.4891H55.8031V45.0191Z" fill="#FFE4CE"/>
    <path d="M55.7227 39.3906H61.4178V45.0984H55.7227V39.3906Z" fill="#FFE4CE"/>
    <path d="M55.8031 39.4694H61.3401V45.0186H55.8031V39.4694Z" fill="#FFE4CE"/>
    <path d="M55.7227 33.9206H61.4178V39.6283H55.7227V33.9206Z" fill="#FFE4CE"/>
    <path d="M55.8031 33.9995H61.3401V39.5486H55.8031V33.9995Z" fill="#FFE4CE"/>
    <path d="M55.7227 28.3709H61.4178V34.0787H55.7227V28.3709Z" fill="#FFE4CE"/>
    <path d="M55.8031 28.4506H61.3401V33.9998H55.8031V28.4506Z" fill="#FFE4CE"/>
    <path d="M55.7227 22.9018H61.4178V28.6095H55.7227V22.9018Z" fill="#FFE4CE"/>
    <path d="M55.8031 22.9807H61.3401V28.4506H55.8031V22.9807Z" fill="#FFE4CE"/>
    <path d="M55.7227 17.3521H61.4178V23.0599H55.7227V17.3521Z" fill="#FFE4CE"/>
    <path d="M55.8031 17.4309H61.3401V22.9801H55.8031V17.4309Z" fill="#FFE4CE"/>
    <path d="M55.7227 11.8821H61.4178V17.5898H55.7227V11.8821Z" fill="#FFE4CE"/>
    <path d="M55.8031 11.9618H61.3401V17.511H55.8031V11.9618Z" fill="#FFE4CE"/>
    <path d="M55.7227 6.33325H61.4178V12.041H55.7227V6.33325Z" fill="#3D041F"/>
    <path d="M55.8031 6.41214H61.3401V11.9613H55.8031V6.41214Z" fill="#3D041F"/>
    <path d="M55.7227 0.863312H61.4178V6.57106H55.7227V0.863312Z" fill="#621931"/>
    <path d="M55.8031 0.942078H61.3401V6.412H55.8031V0.942078Z" fill="#621931"/>
    <path d="M61.2602 111.055H66.9553V116.762H61.2602V111.055Z" fill="#54A84E"/>
    <path d="M61.418 111.134H66.8759V116.683H61.418V111.134Z" fill="#54A84E"/>
    <path d="M61.2602 105.585H66.9553V111.293H61.2602V105.585Z" fill="#54A84E"/>
    <path d="M61.418 105.664H66.8759V111.134H61.418V105.664Z" fill="#54A84E"/>
    <path d="M61.2602 100.035H66.9553V105.743H61.2602V100.035Z" fill="#54A84E"/>
    <path d="M61.418 100.115H66.8759V105.664H61.418V100.115Z" fill="#54A84E"/>
    <path d="M61.2602 94.5652H66.9553V100.273H61.2602V94.5652Z" fill="#54A84E"/>
    <path d="M61.418 94.6449H66.8759V100.194H61.418V94.6449Z" fill="#54A84E"/>
    <path d="M61.2602 89.0164H66.9553V94.7241H61.2602V89.0164Z" fill="#54A84E"/>
    <path d="M61.418 89.0952H66.8759V94.6444H61.418V89.0952Z" fill="#54A84E"/>
    <path d="M61.2602 83.5463H66.9553V89.254H61.2602V83.5463Z" fill="#54A84E"/>
    <path d="M61.418 83.6252H66.8759V89.0951H61.418V83.6252Z" fill="#54A84E"/>
    <path d="M61.2602 77.9967H66.9553V83.7044H61.2602V77.9967Z" fill="#54A84E"/>
    <path d="M61.418 78.0764H66.8759V83.6256H61.418V78.0764Z" fill="#54A84E"/>
    <path d="M61.2602 72.5275H66.9553V78.2353H61.2602V72.5275Z" fill="#54A84E"/>
    <path d="M61.418 72.6064H66.8759V78.1556H61.418V72.6064Z" fill="#54A84E"/>
    <path d="M61.2602 66.9779H66.9553V72.6856H61.2602V66.9779Z" fill="#54A84E"/>
    <path d="M61.418 67.0567H66.8759V72.6059H61.418V67.0567Z" fill="#54A84E"/>
    <path d="M61.2602 61.5078H66.9553V67.2156H61.2602V61.5078Z" fill="#54A84E"/>
    <path d="M61.418 61.5875H66.8759V67.0574H61.418V61.5875Z" fill="#54A84E"/>
    <path d="M61.2602 55.959H66.9553V61.6668H61.2602V55.959Z" fill="#FFE4CE"/>
    <path d="M61.418 56.0379H66.8759V61.5871H61.418V56.0379Z" fill="#FFE4CE"/>
    <path d="M61.2602 50.4102H66.9553V56.1179H61.2602V50.4102Z" fill="#FFE4CE"/>
    <path d="M61.418 50.4891H66.8759V56.0383H61.418V50.4891Z" fill="#FFE4CE"/>
    <path d="M61.2602 44.9395H66.9553V50.6472H61.2602V44.9395Z" fill="#FFE4CE"/>
    <path d="M61.418 45.0191H66.8759V50.4891H61.418V45.0191Z" fill="#FFE4CE"/>
    <path d="M61.2602 39.3906H66.9553V45.0984H61.2602V39.3906Z" fill="#FFE4CE"/>
    <path d="M61.418 39.4694H66.8759V45.0186H61.418V39.4694Z" fill="#FFE4CE"/>
    <path d="M61.2602 33.9206H66.9553V39.6283H61.2602V33.9206Z" fill="#FFE4CE"/>
    <path d="M61.418 33.9995H66.8759V39.5486H61.418V33.9995Z" fill="#FFE4CE"/>
    <path d="M61.2602 28.3709H66.9553V34.0787H61.2602V28.3709Z" fill="#FFE4CE"/>
    <path d="M61.418 28.4506H66.8759V33.9998H61.418V28.4506Z" fill="#FFE4CE"/>
    <path d="M61.2602 17.3521H66.9553V23.0599H61.2602V17.3521Z" fill="#FFE4CE"/>
    <path d="M61.418 17.4309H66.8759V22.9801H61.418V17.4309Z" fill="#FFE4CE"/>
    <path d="M61.2602 11.8821H66.9553V17.5898H61.2602V11.8821Z" fill="#FFE4CE"/>
    <path d="M61.418 11.9618H66.8759V17.511H61.418V11.9618Z" fill="#FFE4CE"/>
    <path d="M61.2602 6.33325H66.9553V12.041H61.2602V6.33325Z" fill="#3D041F"/>
    <path d="M61.418 6.41214H66.8759V11.9613H61.418V6.41214Z" fill="#3D041F"/>
    <path d="M61.2602 0.863312H66.9553V6.57106H61.2602V0.863312Z" fill="#621931"/>
    <path d="M61.418 0.942078H66.8759V6.412H61.418V0.942078Z" fill="#621931"/>
    <path d="M66.7182 116.604H72.4133V122.311H66.7182V116.604Z" fill="#54A84E"/>
    <path d="M66.7975 116.683H72.3345V122.233H66.7975V116.683Z" fill="#54A84E"/>
    <path d="M66.7182 111.055H72.4133V116.762H66.7182V111.055Z" fill="#54A84E"/>
    <path d="M66.7975 111.134H72.3345V116.683H66.7975V111.134Z" fill="#54A84E"/>
    <path d="M66.7182 105.585H72.4133V111.293H66.7182V105.585Z" fill="#54A84E"/>
    <path d="M66.7975 105.664H72.3345V111.134H66.7975V105.664Z" fill="#54A84E"/>
    <path d="M66.7182 100.035H72.4133V105.743H66.7182V100.035Z" fill="#54A84E"/>
    <path d="M66.7975 100.115H72.3345V105.664H66.7975V100.115Z" fill="#54A84E"/>
    <path d="M66.7182 94.5652H72.4133V100.273H66.7182V94.5652Z" fill="#54A84E"/>
    <path d="M66.7975 94.6449H72.3345V100.194H66.7975V94.6449Z" fill="#54A84E"/>
    <path d="M66.7182 89.0164H72.4133V94.7241H66.7182V89.0164Z" fill="#54A84E"/>
    <path d="M66.7975 89.0952H72.3345V94.6444H66.7975V89.0952Z" fill="#54A84E"/>
    <path d="M66.7182 83.5463H72.4133V89.254H66.7182V83.5463Z" fill="#54A84E"/>
    <path d="M66.7975 83.6252H72.3345V89.0951H66.7975V83.6252Z" fill="#54A84E"/>
    <path d="M66.7182 77.9967H72.4133V83.7044H66.7182V77.9967Z" fill="#54A84E"/>
    <path d="M66.7975 78.0764H72.3345V83.6256H66.7975V78.0764Z" fill="#54A84E"/>
    <path d="M66.7182 72.5275H72.4133V78.2353H66.7182V72.5275Z" fill="#54A84E"/>
    <path d="M66.7975 72.6064H72.3345V78.1556H66.7975V72.6064Z" fill="#54A84E"/>
    <path d="M66.7182 66.9779H72.4133V72.6856H66.7182V66.9779Z" fill="#54A84E"/>
    <path d="M66.7975 67.0567H72.3345V72.6059H66.7975V67.0567Z" fill="#54A84E"/>
    <path d="M66.7182 61.5078H72.4133V67.2156H66.7182V61.5078Z" fill="#54A84E"/>
    <path d="M66.7975 61.5875H72.3345V67.0574H66.7975V61.5875Z" fill="#54A84E"/>
    <path d="M66.7182 55.959H72.4133V61.6668H66.7182V55.959Z" fill="#FFE4CE"/>
    <path d="M66.7975 56.0379H72.3345V61.5871H66.7975V56.0379Z" fill="#FFE4CE"/>
    <path d="M66.7182 33.9206H72.4133V39.6283H66.7182V33.9206Z" fill="#FFE4CE"/>
    <path d="M66.7975 33.9995H72.3345V39.5486H66.7975V33.9995Z" fill="#F57E77"/>
    <path d="M66.7182 28.3709H72.4133V34.0787H66.7182V28.3709Z" fill="#FFE4CE"/>
    <path d="M66.7975 28.4506H72.3345V33.9998H66.7975V28.4506Z" fill="#FFE4CE"/>
    <path d="M66.7182 22.9018H72.4133V28.6095H66.7182V22.9018Z" fill="#FFE4CE"/>
    <path d="M66.7975 22.9807H72.3345V28.4506H66.7975V22.9807Z" fill="#FFE4CE"/>
    <path d="M66.7182 17.3521H72.4133V23.0599H66.7182V17.3521Z" fill="#FFE4CE"/>
    <path d="M66.7975 17.4309H72.3345V22.9801H66.7975V17.4309Z" fill="#FFE4CE"/>
    <path d="M66.7182 11.8821H72.4133V17.5898H66.7182V11.8821Z" fill="#3D041F"/>
    <path d="M66.7975 11.9618H72.3345V17.511H66.7975V11.9618Z" fill="#3D041F"/>
    <path d="M65.1922 16.209H75.6165V23.1738H65.1922V16.209Z" fill="#3D041F"/>
    <path d="M61.7181 9.24388H68.6676V19.6912H61.7181V9.24388Z" fill="#3D041F"/>
    <path d="M66.7182 6.33325H72.4133V12.041H66.7182V6.33325Z" fill="#621931"/>
    <path d="M66.7975 6.41214H72.3345V11.9613H66.7975V6.41214Z" fill="#621931"/>
    <path d="M66.7182 0.863312H72.4133V6.57106H66.7182V0.863312Z" fill="#621931"/>
    <path d="M66.7975 0.942078H72.3345V6.412H66.7975V0.942078Z" fill="#621931"/>
    <path d="M72.2548 116.604H77.95V122.311H72.2548V116.604Z" fill="#54A84E"/>
    <path d="M72.3341 116.683H77.8711V122.233H72.3341V116.683Z" fill="#54A84E"/>
    <path d="M72.2548 111.055H77.95V116.762H72.2548V111.055Z" fill="#54A84E"/>
    <path d="M72.3341 111.134H77.8711V116.683H72.3341V111.134Z" fill="#54A84E"/>
    <path d="M72.2548 105.585H77.95V111.293H72.2548V105.585Z" fill="#54A84E"/>
    <path d="M72.3341 105.664H77.8711V111.134H72.3341V105.664Z" fill="#54A84E"/>
    <path d="M72.2548 100.035H77.95V105.743H72.2548V100.035Z" fill="#54A84E"/>
    <path d="M72.3341 100.115H77.8711V105.664H72.3341V100.115Z" fill="#54A84E"/>
    <path d="M72.2548 94.5652H77.95V100.273H72.2548V94.5652Z" fill="#54A84E"/>
    <path d="M72.2548 89.0164H77.95V94.7241H72.2548V89.0164Z" fill="#54A84E"/>
    <path d="M72.3341 89.0952H77.8711V94.6444H72.3341V89.0952Z" fill="#376732"/>
    <path d="M72.2548 83.5463H77.95V89.254H72.2548V83.5463Z" fill="#54A84E"/>
    <path d="M72.2548 77.9967H77.95V83.7044H72.2548V77.9967Z" fill="#54A84E"/>
    <path d="M72.3341 78.0764H77.8711V83.6256H72.3341V78.0764Z" fill="#54A84E"/>
    <path d="M72.2548 72.5275H77.95V78.2353H72.2548V72.5275Z" fill="#54A84E"/>
    <path d="M72.3341 72.6064H77.8711V78.1556H72.3341V72.6064Z" fill="#54A84E"/>
    <path d="M72.2548 66.9779H77.95V72.6856H72.2548V66.9779Z" fill="#54A84E"/>
    <path d="M72.3341 67.0567H77.8711V72.6059H72.3341V67.0567Z" fill="#54A84E"/>
    <path d="M72.2548 61.5078H77.95V67.2156H72.2548V61.5078Z" fill="#54A84E"/>
    <path d="M72.3341 61.5875H77.8711V67.0574H72.3341V61.5875Z" fill="#54A84E"/>
    <path d="M72.2548 55.959H77.95V61.6668H72.2548V55.959Z" fill="#54A84E"/>
    <path d="M72.3341 56.0379H77.8711V61.5871H72.3341V56.0379Z" fill="#54A84E"/>
    <path d="M72.2548 28.3709H77.95V34.0787H72.2548V28.3709Z" fill="#3D041F"/>
    <path d="M72.3341 28.4506H77.8711V33.9998H72.3341V28.4506Z" fill="#3D041F"/>
    <path d="M72.2548 22.9018H77.95V28.6095H72.2548V22.9018Z" fill="#3D041F"/>
    <path d="M72.3341 22.9807H77.8711V28.4506H72.3341V22.9807Z" fill="#3D041F"/>
    <path d="M72.2548 17.3521H77.95V23.0599H72.2548V17.3521Z" fill="#621931"/>
    <path d="M72.3341 17.4309H77.8711V22.9801H72.3341V17.4309Z" fill="#621931"/>
    <path d="M72.2548 11.8821H77.95V17.5898H72.2548V11.8821Z" fill="#621931"/>
    <path d="M72.3341 11.9618H77.8711V17.511H72.3341V11.9618Z" fill="#621931"/>
    <path d="M72.2548 6.33325H77.95V12.041H72.2548V6.33325Z" fill="#621931"/>
    <path d="M72.3341 6.41214H77.8711V11.9613H72.3341V6.41214Z" fill="#621931"/>
    <path d="M77.7134 72.5275H83.4086V78.2353H77.7134V72.5275Z" fill="#54A84E"/>
    <path d="M77.7921 72.6064H83.3291V78.1556H77.7921V72.6064Z" fill="#54A84E"/>
    <path d="M77.7134 66.9779H83.4086V72.6856H77.7134V66.9779Z" fill="#54A84E"/>
    <path d="M77.7921 67.0567H83.3291V72.6059H77.7921V67.0567Z" fill="#54A84E"/>
    <path d="M77.7134 61.5078H83.4086V67.2156H77.7134V61.5078Z" fill="#54A84E"/>
    <path d="M77.7921 61.5875H83.3291V67.0574H77.7921V61.5875Z" fill="#54A84E"/>
    <path d="M77.7134 55.959H83.4086V61.6668H77.7134V55.959Z" fill="#54A84E"/>
    <path d="M77.7921 56.0379H83.3291V61.5871H77.7921V56.0379Z" fill="#54A84E"/>
    <path d="M75.6165 16.209H82.566V26.6563H75.6165V16.209Z" fill="#3D041F"/>
    <path d="M83.25 72.5275H88.9452V78.2353H83.25V72.5275Z" fill="#54A84E"/>
    <path d="M83.25 66.9779H88.9452V72.6856H83.25V66.9779Z" fill="#54A84E"/>
    <path d="M83.4079 67.0567H88.8657V72.6059H83.4079V67.0567Z" fill="#54A84E"/>
    <path d="M83.25 61.5078H88.9452V67.2156H83.25V61.5078Z" fill="#54A84E"/>
    <path d="M83.4079 61.5875H88.8657V67.0574H83.4079V61.5875Z" fill="#54A84E"/>
    <path d="M88.708 72.5275H94.4032V78.2353H88.708V72.5275Z" fill="#54A84E"/>
    <path d="M88.708 66.9779H94.4032V72.6856H88.708V66.9779Z" fill="#54A84E"/>
    <path d="M88.7866 67.0567H94.3236V72.6059H88.7866V67.0567Z" fill="#54A84E"/>
    <path d="M77.0291 23.1733H82.566V28.7225H77.0291V23.1733Z" fill="#3D041F"/>
    <path d="M49.0732 23.1733H54.7683V28.881H49.0732V23.1733Z" fill="#66667C"/>
    <path d="M70.1577 26.6558H75.6156V32.205H70.1577V26.6558Z" fill="#FFE4CE"/>
    <path d="M88.7866 72.6064H94.3236V78.1556H88.7866V72.6064Z" fill="#54A84E"/>
    <path d="M71.9051 120.807L78.0284 120.807L78.0284 134.625L71.9051 134.625L71.9051 120.807Z" fill="#105E7C"/>
    <path d="M72.3341 72.6861H77.8711V89.0951H72.3341V72.6861Z" fill="#376732"/>
    <path d="M72.3341 86.398H77.8711V100.194H72.3341V86.398Z" fill="#376732"/>
    <path d="M74.2495 72.6354H83.4873V78.1846H74.2495V72.6354Z" fill="#376732"/>
    <path d="M72.4132 67.2153H77.8711V72.7645H72.4132V67.2153Z" fill="#376732"/>
    <path d="M92.0563 93.6531L90.9966 99.019L79.248 96.6884L80.3077 91.3226L92.0563 93.6531Z" fill="#FFE4CE"/>
    <path d="M91.5504 99.1284L90.4753 104.572L76.3101 101.762L77.3852 96.3185L91.5504 99.1284Z" fill="#F57E77"/>
    <path d="M58.814 87.059L57.7543 92.4249L52.4003 91.3628L53.46 85.997L58.814 87.059Z" fill="#FFE4CE"/>
    <path d="M64.1681 88.1199L63.1084 93.4857L57.6768 92.4083L58.7365 87.0425L64.1681 88.1199Z" fill="#FFE4CE"/>
    <path d="M69.5994 89.198L68.5397 94.5638L63.1081 93.4863L64.1678 88.1205L69.5994 89.198Z" fill="#FFE4CE"/>
    <path d="M76.533 90.5727L75.4733 95.9385L68.4623 94.5478L69.522 89.182L76.533 90.5727Z" fill="#FFE4CE"/>
    <path d="M80.3849 91.3368L79.3252 96.7026L73.9712 95.6406L75.0309 90.2747L80.3849 91.3368Z" fill="#FFE4CE"/>
    <path d="M57.7544 92.4242L56.6793 97.8678L51.3253 96.8057L52.4004 91.3621L57.7544 92.4242Z" fill="#FFE4CE"/>
    <path d="M63.1083 93.4862L62.0332 98.9298L56.6016 97.8524L57.6767 92.4088L63.1083 93.4862Z" fill="#FFE4CE"/>
    <path d="M68.5402 94.5636L67.4651 100.007L62.0335 98.9297L63.1086 93.4862L68.5402 94.5636Z" fill="#FFE4CE"/>
    <path d="M75.4456 95.9335L74.3705 101.377L67.3872 99.9918L68.4623 94.5482L75.4456 95.9335Z" fill="#F57E77"/>
    <path d="M79.3251 96.7031L78.25 102.147L72.896 101.085L73.9711 95.641L79.3251 96.7031Z" fill="#F57E77"/>
    <path d="M62.0486 98.8519L60.9735 104.296L55.5419 103.218L56.617 97.7745L62.0486 98.8519Z" fill="#FFE4CE"/>
    <path d="M67.4795 99.9292L66.4044 105.373L60.9728 104.295L62.0479 98.8518L67.4795 99.9292Z" fill="#F57E77"/>
    <path d="M50.2662 39.6289H66.9562V44.8605H50.2662V39.6289Z" fill="#FFE4CE"/>
    <path d="M50.4236 45.1777H67.2543V51.3379H50.4236V45.1777Z" fill="#F57E77"/>
    <path d="M61.7173 39.6289H67.2543V45.1781H61.7173V39.6289Z" fill="#F57E77"/>
    <path d="M96.713 88.7513L91.181 88.5166L90.5005 104.63L96.0325 104.864L96.713 88.7513Z" fill="#F57E77"/>
    <path d="M96.9475 83.2067L91.4155 82.972L91.1814 88.5162L96.7134 88.7509L96.9475 83.2067Z" fill="#F57E77"/>
    <path d="M97.1786 77.7417L91.6466 77.507L91.4125 83.0512L96.9445 83.2859L97.1786 77.7417Z" fill="#F57E77"/>
    <path d="M91.1813 88.5164L85.6493 88.2818L85.4185 93.7468L90.9505 93.9815L91.1813 88.5164Z" fill="#FFE4CE"/>
    <path d="M91.4151 82.9726L85.8831 82.7379L85.6489 88.2821L91.1809 88.5168L91.4151 82.9726Z" fill="#FFE4CE"/>
    <path d="M91.646 77.5076L86.114 77.2729L85.8799 82.8172L91.4119 83.0518L91.646 77.5076Z" fill="#FFE4CE"/>
    <path d="M55.7228 116.604H67.1809V122.311H55.7228V116.604Z" fill="#54A84E"/>
    <path d="M39.2153 120.682H48.8488V126.811H39.2153V120.682Z" fill="#105E7C"/>
    <path d="M48.8488 120.682H58.6221V126.811H48.8488V120.682Z" fill="#105E7C"/>
    <path d="M58.6221 120.682H68.3938V126.811H58.6221V120.682Z" fill="#105E7C"/>
    <path d="M68.2555 120.682H78.0286V126.811H68.2555V120.682Z" fill="#105E7C"/>
    <path d="M94.2454 72.5275H99.9406V78.2353H94.2454V72.5275Z" fill="#54A84E"/>
    <path d="M83.4078 72.6064H95.5321V78.1556H83.4078V72.6064Z" fill="#54A84E"/>
</svg>
