<svg width="39" height="38" viewBox="0 0 39 38" fill="none" xmlns="http://www.w3.org/2000/svg">
    <path d="M35.7852 8.06543H34.7184V29.9346H35.7852V8.06543Z" fill="#24292A"/>
    <path d="M3.78163 8.06543H2.71484V29.9346H3.78163V8.06543Z" fill="#24292A"/>
    <path d="M35.7852 29.9345L35.7852 28.8411L2.71475 28.8411L2.71475 29.9345L35.7852 29.9345Z" fill="#24292A"/>
    <path d="M35.7852 9.15889L35.7852 8.06543L2.71475 8.06543L2.71475 9.15889L35.7852 9.15889Z" fill="#24292A"/>
    <path d="M35.7852 13.5327L35.7852 12.4392L2.71475 12.4392L2.71475 13.5327L35.7852 13.5327Z" fill="#24292A"/>
    <path d="M9.11549 13.5327H8.04871L8.04871 29.9346H9.11549L9.11549 13.5327Z" fill="#24292A"/>
    <path d="M14.4495 13.5327H13.3827L13.3827 29.9346H14.4495L14.4495 13.5327Z" fill="#24292A"/>
    <path d="M19.7835 13.5327H18.7167L18.7167 29.9346H19.7835L19.7835 13.5327Z" fill="#24292A"/>
    <path d="M25.1173 13.5327H24.0505L24.0505 29.9346H25.1173L25.1173 13.5327Z" fill="#24292A"/>
    <path d="M30.4513 13.5327H29.3845L29.3845 29.9346H30.4513L30.4513 13.5327Z" fill="#24292A"/>
    <path d="M35.7852 19L35.7852 17.9065L3.78154 17.9065L3.78154 19L35.7852 19Z" fill="#24292A"/>
    <path d="M35.7852 24.4672L35.7852 23.3738L3.78154 23.3738L3.78154 24.4672L35.7852 24.4672Z" fill="#24292A"/>
</svg>
