<svg width="194" height="106" viewBox="0 0 194 106" fill="none" xmlns="http://www.w3.org/2000/svg">
    <rect x="189.234" y="95.3633" width="184.452" height="66.2531" transform="rotate(-180 189.234 95.3633)" fill="white"/>
    <rect x="179.209" y="102.39" width="167.411" height="11.0422" transform="rotate(-180 179.209 102.39)" fill="white"/>
    <rect x="182.464" y="100.966" width="7.82728" height="10.9803" transform="rotate(-180 182.464 100.966)" fill="white"/>
    <rect x="184.709" y="97.5493" width="7.82728" height="10.9803" transform="rotate(-180 184.709 97.5493)" fill="white"/>
    <rect x="186.678" y="41.5684" width="7.82728" height="14.1948" transform="rotate(-180 186.678 41.5684)" fill="white"/>
    <rect x="160.451" y="24.48" width="7.82728" height="18.8735" transform="rotate(-180 160.451 24.48)" fill="white"/>
    <rect x="155.205" y="28.8179" width="7.82728" height="18.8735" transform="rotate(-180 155.205 28.8179)" fill="white"/>
    <rect x="150.677" y="36.8105" width="7.82728" height="18.8735" transform="rotate(-180 150.677 36.8105)" fill="white"/>
    <rect x="13.8037" y="97.3711" width="7.01721" height="11.0422" transform="rotate(-180 13.8037 97.3711)" fill="white"/>
    <rect x="15.8086" y="38.1445" width="7.01721" height="14.0537" transform="rotate(-180 15.8086 38.1445)" fill="white"/>
    <rect x="181.214" y="36.1372" width="168.413" height="14.0537" transform="rotate(-180 181.214 36.1372)" fill="white"/>
    <g opacity="0.3">
        <path d="M158.089 22.1685L162.421 22.1685L162.421 4.7392L158.089 4.7392L158.089 22.1685Z" fill="black"/>
        <path d="M153.757 4.73926L158.089 4.73926L158.089 0.401659L153.757 0.401658L153.757 4.73926Z" fill="black"/>
        <path d="M149.347 9.15527L153.678 9.15527L153.678 4.81767L149.347 4.81767L149.347 9.15527Z" fill="black"/>
        <path d="M145.015 13.4932L149.347 13.4932L149.347 9.15556L145.015 9.15556L145.015 13.4932Z" fill="black"/>
        <path d="M140.683 17.8306L145.015 17.8306L145.015 13.493L140.683 13.493L140.683 17.8306Z" fill="black"/>
        <path d="M136.273 22.1685L140.605 22.1685L140.605 17.8309L136.273 17.8309L136.273 22.1685Z" fill="black"/>
        <path d="M13.8037 22.0835L147.131 22.0835L147.131 18.0682L13.8037 18.0682L13.8037 22.0835Z" fill="black"/>
        <path d="M158.089 22.1685L177.936 22.1685L177.936 17.8309L158.089 17.8309L158.089 22.1685Z" fill="black"/>
        <path d="M13.8038 105.401L178.207 105.401L178.207 100.382L13.8038 100.382L13.8038 105.401Z" fill="black"/>
        <path d="M0.372325 92.1245L4.70398 92.1245L4.70399 30.7584L0.372332 30.7584L0.372325 92.1245Z" fill="black"/>
        <path d="M9.11427 100.684L13.4459 100.684L13.4459 96.346L9.11427 96.346L9.11427 100.684Z" fill="black"/>
        <path d="M4.78273 96.2666L9.11438 96.2666L9.11438 91.929L4.78273 91.929L4.78273 96.2666Z" fill="black"/>
        <path d="M9.11402 26.4209L13.4457 26.4209L13.4457 22.0833L9.11402 22.0833L9.11402 26.4209Z" fill="black"/>
        <path d="M4.78248 30.7578L9.11414 30.7578L9.11414 26.4202L4.78248 26.4202L4.78248 30.7578Z" fill="black"/>
        <path d="M186.678 92.2886L191.009 92.2886L191.009 30.9225L186.678 30.9225L186.678 92.2886Z" fill="black"/>
        <path d="M177.936 100.848L182.267 100.848L182.267 96.5101L177.936 96.5101L177.936 100.848Z" fill="black"/>
        <path d="M182.346 96.4307L186.678 96.4307L186.678 92.0931L182.346 92.0931L182.346 96.4307Z" fill="black"/>
        <path d="M177.936 26.585L182.267 26.585L182.267 22.2474L177.936 22.2474L177.936 26.585Z" fill="black"/>
        <path d="M182.346 30.9229L186.678 30.9229L186.678 26.5853L182.346 26.5853L182.346 30.9229Z" fill="black"/>
    </g>
    <path d="M160.452 22.957L164.783 22.957L164.783 5.52777L160.452 5.52777L160.452 22.957Z" fill="#231F20"/>
    <path d="M156.12 5.52783L160.452 5.52783L160.452 1.19023L156.12 1.19023L156.12 5.52783Z" fill="#231F20"/>
    <path d="M151.709 9.94482L156.041 9.94482L156.041 5.60722L151.709 5.60722L151.709 9.94482Z" fill="#231F20"/>
    <path d="M147.378 14.2822L151.709 14.2822L151.709 9.94463L147.378 9.94463L147.378 14.2822Z" fill="#231F20"/>
    <path d="M143.046 18.6201L147.378 18.6201L147.378 14.2825L143.046 14.2825L143.046 18.6201Z" fill="#231F20"/>
    <path d="M138.636 22.957L142.968 22.957L142.968 18.6194L138.636 18.6194L138.636 22.957Z" fill="#231F20"/>
    <path d="M13.8036 23.0869L147.131 23.0869L147.131 19.0716L13.8036 19.0716L13.8036 23.0869Z" fill="#231F20"/>
    <path d="M160.451 22.957L180.298 22.957L180.298 18.6194L160.451 18.6194L160.451 22.957Z" fill="#231F20"/>
    <path d="M15.8087 105.401L180.212 105.401L180.212 101.386L15.8087 101.386L15.8087 105.401Z" fill="#231F20"/>
    <path d="M2.73475 92.7178L7.06641 92.7178L7.06641 31.3517L2.73476 31.3517L2.73475 92.7178Z" fill="#231F20"/>
    <path d="M11.4769 101.709L15.8086 101.709L15.8086 97.3714L11.4769 97.3714L11.4769 101.709Z" fill="#231F20"/>
    <path d="M7.1454 97.0552L11.4771 97.0552L11.4771 92.7176L7.1454 92.7176L7.1454 97.0552Z" fill="#231F20"/>
    <path d="M11.4767 27.2095L15.8083 27.2095L15.8083 22.8719L11.4767 22.8719L11.4767 27.2095Z" fill="#231F20"/>
    <path d="M7.14515 31.5469L11.4768 31.5469L11.4768 27.2093L7.14515 27.2093L7.14515 31.5469Z" fill="#231F20"/>
    <path d="M189.04 92.8823L193.372 92.8823L193.372 31.5162L189.04 31.5162L189.04 92.8823Z" fill="#231F20"/>
    <path d="M180.298 101.636L184.63 101.636L184.63 97.2986L180.298 97.2986L180.298 101.636Z" fill="#231F20"/>
    <path d="M184.709 97.2192L189.041 97.2192L189.041 92.8816L184.709 92.8816L184.709 97.2192Z" fill="#231F20"/>
    <path d="M180.298 27.3735L184.63 27.3735L184.63 23.0359L180.298 23.0359L180.298 27.3735Z" fill="#231F20"/>
    <path d="M184.709 31.7114L189.041 31.7114L189.041 27.3738L184.709 27.3738L184.709 31.7114Z" fill="#231F20"/>
    <path d="M21.5422 54.1289V38.5734H32.6533V40.7956H25.9867V45.24H32.6533V47.4622H34.8756V51.9067H32.6533V54.1289H21.5422ZM30.4311 47.4622H25.9867V51.9067H30.4311V47.4622ZM41.5336 51.9067V54.1289H37.0891V43.0178H41.5336V47.4622H43.7558V45.24H45.978V43.0178H50.4224V54.1289H45.978V49.6845H43.7558V51.9067H41.5336ZM61.5249 54.1289V49.6845H57.0804V54.1289H52.636V43.0178H57.0804V47.4622H61.5249V43.0178H65.9693V54.1289H61.5249ZM70.4051 51.9067H68.1829V45.24H70.4051V43.0178H79.294V45.24H81.5162V51.9067H79.294V54.1289H70.4051V51.9067ZM77.0718 45.24H72.6273V51.9067H77.0718V45.24ZM83.7297 54.1289V43.0178H88.1742V47.4622H90.3964V45.24H92.6186V43.0178H97.0631V45.24H94.8408V47.4622H92.6186V49.6845H94.8408V51.9067H97.0631V54.1289H92.6186V51.9067H90.3964V49.6845H88.1742V54.1289H83.7297ZM99.2766 54.1289V51.9067H101.499V43.0178H112.61V54.1289H108.166V45.24H105.943V51.9067H103.721V54.1289H99.2766ZM125.935 49.6845H128.157V51.9067H125.935V54.1289H114.823V43.0178H119.268V47.4622H125.935V49.6845ZM123.712 51.9067V49.6845H119.268V51.9067H123.712Z" fill="#444042"/>
    <path d="M21.8911 72.6031H23.4467V78.8253H25.0022V72.6031H26.5578V78.8253H28.1133V72.6031H29.6689V80.3809H21.8911V72.6031ZM32.7846 78.8253V80.3809H31.229V72.6031H32.7846V77.2697H34.3401V78.8253H32.7846ZM37.4512 74.1586V72.6031H39.0068V80.3809H37.4512V75.7142H35.8957V74.1586H37.4512ZM35.8957 77.2697H34.3401V75.7142H35.8957V77.2697ZM46.7891 74.1586H42.1225V72.6031H46.7891V74.1586ZM42.1225 80.3809V83.492H40.5669V74.1586H42.1225V78.8253H46.7891V80.3809H42.1225ZM48.3447 78.8253H46.7891V74.1586H48.3447V78.8253ZM51.4603 78.8253H49.9048V74.1586H51.4603V78.8253ZM56.127 74.1586H51.4603V72.6031H56.127V74.1586ZM57.6826 78.8253H56.127V74.1586H57.6826V78.8253ZM56.127 80.3809H51.4603V78.8253H56.127V80.3809ZM60.7982 77.2697V80.3809H59.2427V72.6031H60.7982V75.7142H63.9093V77.2697H60.7982ZM67.0205 80.3809H65.4649V78.8253H67.0205V80.3809ZM65.4649 78.8253H63.9093V77.2697H65.4649V78.8253ZM67.0205 74.1586H65.4649V72.6031H67.0205V74.1586ZM65.4649 75.7142H63.9093V74.1586H65.4649V75.7142ZM70.1361 78.8253V80.3809H68.5806V72.6031H70.1361V77.2697H71.6917V78.8253H70.1361ZM74.8028 74.1586V72.6031H76.3583V80.3809H74.8028V75.7142H73.2472V74.1586H74.8028ZM73.2472 77.2697H71.6917V75.7142H73.2472V77.2697ZM79.474 78.8253V80.3809H77.9185V72.6031H79.474V77.2697H81.0296V78.8253H79.474ZM84.1407 69.492H82.5851V67.9364H84.1407V69.492ZM82.5851 71.0475H81.0296V69.492H82.5851V71.0475ZM81.0296 69.492H79.474V67.9364H81.0296V69.492ZM84.1407 74.1586V72.6031H85.6962V80.3809H84.1407V75.7142H82.5851V74.1586H84.1407ZM82.5851 77.2697H81.0296V75.7142H82.5851V77.2697ZM93.474 77.2697V80.3809H91.9185V72.6031H93.474V75.7142H96.5851V77.2697H93.474ZM99.6962 80.3809H98.1407V78.8253H99.6962V80.3809ZM98.1407 78.8253H96.5851V77.2697H98.1407V78.8253ZM99.6962 74.1586H98.1407V72.6031H99.6962V74.1586ZM98.1407 75.7142H96.5851V74.1586H98.1407V75.7142ZM107.479 74.1586H102.812V72.6031H107.479V74.1586ZM102.812 80.3809V83.492H101.256V74.1586H102.812V78.8253H107.479V80.3809H102.812ZM109.034 78.8253H107.479V74.1586H109.034V78.8253ZM118.372 77.2697H116.816V72.6031H118.372V77.2697ZM116.816 77.2697V80.3809H115.261V78.8253H112.15V77.2697H116.816ZM112.15 77.2697H110.594V72.6031H112.15V77.2697ZM115.261 81.9364H110.594V80.3809H115.261V81.9364ZM121.488 74.1586V80.3809H119.932V72.6031H127.71V74.1586H121.488ZM130.826 78.8253H129.27V74.1586H130.826V78.8253ZM135.492 74.1586H130.826V72.6031H135.492V74.1586ZM137.048 78.8253H135.492V74.1586H137.048V78.8253ZM135.492 80.3809H130.826V78.8253H135.492V80.3809ZM140.163 75.7142H138.608V74.1586H140.163V75.7142ZM144.83 74.1586H140.163V72.6031H144.83V74.1586ZM144.83 80.3809H140.163V78.8253H144.83V80.3809ZM140.163 78.8253H138.608V77.2697H140.163V78.8253ZM144.83 77.2697H143.275V75.7142H144.83V77.2697ZM146.386 75.7142H144.83V74.1586H146.386V75.7142ZM146.386 78.8253H144.83V77.2697H146.386V78.8253ZM149.501 78.8253H147.946V74.1586H149.501V78.8253ZM154.168 74.1586H149.501V72.6031H154.168V74.1586ZM155.724 78.8253H154.168V74.1586H155.724V78.8253ZM154.168 80.3809H149.501V78.8253H154.168V80.3809ZM163.506 74.1586H158.839V72.6031H163.506V74.1586ZM158.839 80.3809V83.492H157.284V74.1586H158.839V78.8253H163.506V80.3809H158.839ZM165.061 78.8253H163.506V74.1586H165.061V78.8253Z" fill="#1B1A1A"/>
</svg>
