<svg width="38" height="38" viewBox="0 0 38 38" fill="none" xmlns="http://www.w3.org/2000/svg">
    <path d="M23.675 34.068H22.5128H21.3613V35.2299H22.5235L23.675 35.2193H24.8478V34.0574L23.675 34.068Z" fill="#424343"/>
    <path d="M23.6641 30.5822H22.502H21.3398L21.3505 31.7441V32.906L21.3612 34.0679H22.5127H23.6748L24.8476 34.0573L24.837 32.8954V31.7334L24.8263 30.5715L23.6641 30.5822Z" fill="#EFD6BD"/>
    <path d="M15.5616 34.0894L14.3888 34.1H13.2373V35.2619L14.3995 35.2513H15.5616H16.7238V34.0894H15.5616Z" fill="#424343"/>
    <path d="M15.5508 30.6033H14.378L13.2158 30.6139L13.2265 31.7758V32.9271L13.2371 34.0997H14.3886L15.5614 34.089H16.7236L16.7129 32.9164V31.7545L16.7023 30.6033H15.5508Z" fill="#EFD6BD"/>
    <path d="M23.6431 25.945H22.4916H21.3295L20.1673 25.9556H19.0158H17.8537L16.6915 25.9663H15.5294L14.3672 25.977H13.2051V27.1389L13.2157 28.2901V29.452V30.614L14.3779 30.6033H15.5507H16.7022L17.8643 30.5926H19.0265H20.1886L21.3401 30.582H22.5023H23.6644L24.8266 30.5713V29.4094V28.2582L24.8159 27.0962V25.9343L23.6431 25.945Z" fill="#424343"/>
    <path d="M24.7732 12.0129V10.851V9.68906V8.52715H23.6004V7.36523H22.4383H21.2761H20.114H18.9518H17.7897H16.6275H15.4654H14.2926V8.52715H13.1304V9.68906V10.851V12.0129H11.9683V13.1748V14.3367H13.1304V15.5093V16.6712H14.2926H15.4654V17.8331H16.6275V18.995H17.7897H18.9518H20.114H21.2761V17.8331H22.4383V16.6712H23.6004H24.7732V15.5093V14.3367H25.9354V13.1748V12.0129H24.7732ZM15.4867 12.0449V10.883H16.6488V12.0449V13.2068H15.4867V12.0449ZM21.2868 13.1855V12.0235V10.8616H22.4489V12.0235V13.1855H21.2868Z" fill="#EFD6BD"/>
    <path d="M27.1299 24.7726H25.9678L25.9784 25.9345V27.0964V28.2477H27.1406V27.0858H28.3027L28.2921 25.9239V24.762L27.1299 24.7726Z" fill="#EFD6BD"/>
    <path d="M9.71875 24.8257L9.72941 25.9876V27.1495L10.8916 27.1388V28.3008H12.0537V27.1388L12.043 25.9769V24.8257H10.8809H9.71875Z" fill="#EFD6BD"/>
    <path d="M27.1189 20.1249H25.9568V18.9736H24.7946H23.6218V17.8224H22.4597H21.2975L21.3082 18.9843H20.146L18.9839 18.995H17.8324L16.6702 19.0056L16.6596 17.8437H15.5081L14.3353 17.8544L14.3459 19.0056L13.1838 19.0163H12.0216V20.1782H10.8702H9.70801V21.3401L9.71867 22.502V23.6639V24.8258H10.8808H12.043V23.6533L12.0323 22.4914H13.1945V23.6533L13.2051 24.8152V25.9771H14.3673L15.5294 25.9664H16.6916L17.8537 25.9558H19.0159H20.1674L21.3295 25.9451H22.4917H23.6431L24.8159 25.9345V24.7725L24.8053 23.6106V22.4487H25.9674V23.6106V24.7725H27.1296L28.2917 24.7619L28.2811 23.6V22.4381V21.2761L28.2704 20.1249H27.1189Z" fill="#3FA937"/>
    <path d="M22.4385 12.0128V10.8616H21.2764L21.287 12.0235V13.1854L22.4492 13.1747L22.4385 12.0128Z" fill="black"/>
    <path d="M15.4867 13.1959H16.6489V12.0339L16.6382 10.8827H15.4761L15.4867 12.0446V13.1959Z" fill="black"/>
    <path d="M12.0003 12.0553H13.1625L13.1518 8.58024H14.314V7.41832V7.40766L23.6005 7.37568V8.54826H24.7733V9.71017H24.784L24.7946 12.0447H25.9141L25.9248 14.3472H27.1083V13.1959H27.1189H28.2811V12.034V10.8721V9.71017V8.54826V7.38634H27.1189V6.22443H25.9568V5.05186H24.7946V3.88995H23.6218V2.72803H22.4597L22.4064 1.57678H21.2442H20.0821H18.9199H17.7578H16.5956V2.73869H15.4335H14.2607H13.0985L13.1305 3.92193H11.9683H10.8062V5.08384V6.25641V7.41832H9.64404V8.58024V9.74215V10.9041V12.066V13.2279H10.8062V14.3791H11.9683L12.0003 12.0553Z" fill="black"/>
    <path d="M14.3355 17.8328H15.5083L15.4977 16.6709L13.184 16.6816V17.8328L12.0112 17.8435L12.0219 19.0054H14.3462L14.3355 17.8328Z" fill="black"/>
    <path d="M24.7843 17.8114V16.6495L22.46 16.6602V17.8221H23.6221V18.9734L25.9571 18.9627L25.9464 17.8114H24.7843Z" fill="black"/>
    <path d="M28.2687 18.959L25.9551 18.9669L25.959 20.1288L28.2727 20.1209L28.2687 18.959Z" fill="black"/>
    <path d="M29.4317 20.1124L28.2695 20.1163L28.2929 27.0665L29.4551 27.0626L29.4317 20.1124Z" fill="black"/>
    <path d="M12.0202 19.0123L9.70654 19.0201L9.71046 20.1821L12.0241 20.1743L12.0202 19.0123Z" fill="black"/>
    <path d="M9.70707 20.1761L8.54492 20.1801L8.56854 27.1302L9.73069 27.1263L9.70707 20.1761Z" fill="black"/>
    <path d="M13.1801 14.356L12.0073 14.36L12.0152 16.6732L13.188 16.6691L13.1801 14.356Z" fill="black"/>
    <path d="M25.9424 14.324L24.7803 14.328L24.7882 16.6518L25.9504 16.6479L25.9424 14.324Z" fill="black"/>
    <path d="M27.1404 28.2369L25.9889 28.2475L25.9676 22.438L24.8054 22.4486L24.8268 28.2475L24.8481 35.219L21.3616 35.2297L21.351 30.582H20.1888L17.8645 30.5927H16.7024L16.7237 35.251L13.2373 35.2617L13.2053 28.2902L13.1946 22.4806L12.0325 22.4913L12.0538 28.2902H10.8916V27.1283H9.72949V28.3008L10.8916 28.2902V29.4521H12.0538L12.0751 36.4236L13.2373 36.4129L16.7237 36.4023H16.7344H17.8859L17.8752 31.7439H20.1888L20.2102 36.3916H21.3616L24.8481 36.3809L26.0102 36.3703L25.9889 29.3988H27.1511L27.1404 28.2369H28.3026V27.0643L27.1404 27.075V28.2369Z" fill="black"/>
    <path d="M16.6685 17.8415L15.5063 17.8455L15.5103 19.0074L16.6725 19.0034L16.6685 17.8415Z" fill="black"/>
    <path d="M22.4688 17.8206L21.3066 17.8246L21.3106 18.9865L22.4728 18.9825L22.4688 17.8206Z" fill="black"/>
</svg>