<svg width="24" height="57" viewBox="0 0 24 57" fill="none" xmlns="http://www.w3.org/2000/svg">
    <path d="M24 55.3887H22.348V57.0001H24V55.3887Z" fill="#0A0F1A"/>
    <path d="M23.954 55.4111H22.3708V56.9777H23.954V55.4111Z" fill="#0A0F1A"/>
    <path d="M22.3938 55.3887H20.7418V57.0001H22.3938V55.3887Z" fill="#0A0F1A"/>
    <path d="M22.3709 55.4111H20.7648V56.9777H22.3709V55.4111Z" fill="#0A0F1A"/>
    <path d="M22.3938 53.8445H20.7418V55.4559H22.3938V53.8445Z" fill="#111724"/>
    <path d="M22.3709 53.8667H20.7648V55.4109H22.3709V53.8667Z" fill="#111724"/>
    <path d="M20.8106 55.3887H19.1586V57.0001H20.8106V55.3887Z" fill="#0A0F1A"/>
    <path d="M20.7878 55.4111H19.1816V56.9777H20.7878V55.4111Z" fill="#0A0F1A"/>
    <path d="M20.8106 53.8445H19.1586V55.4559H20.8106V53.8445Z" fill="#111724"/>
    <path d="M20.7878 53.8667H19.1816V55.4109H20.7878V53.8667Z" fill="#111724"/>
    <path d="M20.8106 52.2778H19.1586V53.8892H20.8106V52.2778Z" fill="#111724"/>
    <path d="M20.7878 52.3003H19.1816V53.8669H20.7878V52.3003Z" fill="#111724"/>
    <path d="M19.2046 55.3887H17.5526V57.0001H19.2046V55.3887Z" fill="#0A0F1A"/>
    <path d="M19.1816 55.4111H17.5754V56.9777H19.1816V55.4111Z" fill="#0A0F1A"/>
    <path d="M19.2046 53.8445H17.5526V55.4559H19.2046V53.8445Z" fill="#111724"/>
    <path d="M19.1816 53.8667H17.5754V55.4109H19.1816V53.8667Z" fill="#111724"/>
    <path d="M19.2046 52.2778H17.5526V53.8892H19.2046V52.2778Z" fill="#111724"/>
    <path d="M19.1816 52.3003H17.5754V53.8669H19.1816V52.3003Z" fill="#111724"/>
    <path d="M19.1816 4.04834H17.5754V5.61496H19.1816V4.04834Z" fill="#243454"/>
    <path d="M17.5984 55.3887H15.9464V57.0001H17.5984V55.3887Z" fill="#0A0F1A"/>
    <path d="M17.5756 55.4111H15.9924V56.9777H17.5756V55.4111Z" fill="#0A0F1A"/>
    <path d="M17.5984 53.8445H15.9464V55.4559H17.5984V53.8445Z" fill="#111724"/>
    <path d="M17.5756 53.8667H15.9924V55.4109H17.5756V53.8667Z" fill="#111724"/>
    <path d="M17.5984 52.2778H15.9464V53.8892H17.5984V52.2778Z" fill="#111724"/>
    <path d="M17.5756 52.3003H15.9924V53.8669H17.5756V52.3003Z" fill="#111724"/>
    <path d="M17.5984 50.7336H15.9464V52.345H17.5984V50.7336Z" fill="#75184B"/>
    <path d="M17.5756 50.7561H15.9924V52.3227H17.5756V50.7561Z" fill="#111724"/>
    <path d="M17.5756 22.7358H15.9924V24.3025H17.5756V22.7358Z" fill="#0A0F1A"/>
    <path d="M16.0152 55.3887H14.3632V57.0001H16.0152V55.3887Z" fill="#0A0F1A"/>
    <path d="M15.9923 55.4111H14.3862V56.9777H15.9923V55.4111Z" fill="#0A0F1A"/>
    <path d="M16.0152 53.8445H14.3632V55.4559H16.0152V53.8445Z" fill="#111724"/>
    <path d="M15.9923 53.8667H14.3862V55.4109H15.9923V53.8667Z" fill="#111724"/>
    <path d="M16.0152 52.2778H14.3632V53.8892H16.0152V52.2778Z" fill="#111724"/>
    <path d="M15.9923 52.3003H14.3862V53.8669H15.9923V52.3003Z" fill="#111724"/>
    <path d="M16.0152 50.7336H14.3632V52.345H16.0152V50.7336Z" fill="#111724"/>
    <path d="M15.9923 50.7561H14.3862V52.3227H15.9923V50.7561Z" fill="#111724"/>
    <path d="M14.4092 55.3887H12.7572V57.0001H14.4092V55.3887Z" fill="#0A0F1A"/>
    <path d="M14.3863 55.4111H12.7802V56.9777H14.3863V55.4111Z" fill="#0A0F1A"/>
    <path d="M14.4092 53.8445H12.7572V55.4559H14.4092V53.8445Z" fill="#3D041F"/>
    <path d="M14.3863 53.8667H12.7802V55.4109H14.3863V53.8667Z" fill="#111724"/>
    <path d="M14.4092 52.2778H12.7572V53.8892H14.4092V52.2778Z" fill="#3D041F"/>
    <path d="M14.3863 52.3003H12.7802V53.8669H14.3863V52.3003Z" fill="#111724"/>
    <path d="M14.4092 50.7336H12.7572V52.345H14.4092V50.7336Z" fill="#3D041F"/>
    <path d="M14.3863 50.7561H12.7802V52.3227H14.3863V50.7561Z" fill="#111724"/>
    <path d="M11.2198 55.3887H9.56775V57.0001H11.2198V55.3887Z" fill="#0A0F1A"/>
    <path d="M11.174 55.4111H9.59082V56.9777H11.174V55.4111Z" fill="#0A0F1A"/>
    <path d="M11.2198 53.8445H9.56775V55.4559H11.2198V53.8445Z" fill="#3D041F"/>
    <path d="M11.174 53.8667H9.59082V55.4109H11.174V53.8667Z" fill="#111724"/>
    <path d="M11.2198 52.2778H9.56775V53.8892H11.2198V52.2778Z" fill="#3D041F"/>
    <path d="M11.174 52.3003H9.59082V53.8669H11.174V52.3003Z" fill="#111724"/>
    <path d="M11.2198 50.7336H9.56775V52.345H11.2198V50.7336Z" fill="#3D041F"/>
    <path d="M11.174 50.7561H9.59082V52.3227H11.174V50.7561Z" fill="#111724"/>
    <path d="M9.63662 55.3887H7.98462V57.0001H9.63662V55.3887Z" fill="#0A0F1A"/>
    <path d="M9.6138 55.4111H8.00769V56.9777H9.6138V55.4111Z" fill="#0A0F1A"/>
    <path d="M9.63662 53.8445H7.98462V55.4559H9.63662V53.8445Z" fill="#111724"/>
    <path d="M9.6138 53.8667H8.00769V55.4109H9.6138V53.8667Z" fill="#111724"/>
    <path d="M9.63662 52.2778H7.98462V53.8892H9.63662V52.2778Z" fill="#111724"/>
    <path d="M9.6138 52.3003H8.00769V53.8669H9.6138V52.3003Z" fill="#111724"/>
    <path d="M9.63662 50.7336H7.98462V52.345H9.63662V50.7336Z" fill="#111724"/>
    <path d="M9.6138 50.7561H8.00769V52.3227H9.6138V50.7561Z" fill="#111724"/>
    <path d="M8.03066 55.3887H6.37866V57.0001H8.03066V55.3887Z" fill="#0A0F1A"/>
    <path d="M8.00772 55.4111H6.40161V56.9777H8.00772V55.4111Z" fill="#0A0F1A"/>
    <path d="M8.03066 53.8445H6.37866V55.4559H8.03066V53.8445Z" fill="#111724"/>
    <path d="M8.00772 53.8667H6.40161V55.4109H8.00772V53.8667Z" fill="#111724"/>
    <path d="M8.03066 52.2778H6.37866V53.8892H8.03066V52.2778Z" fill="#111724"/>
    <path d="M8.00772 52.3003H6.40161V53.8669H8.00772V52.3003Z" fill="#111724"/>
    <path d="M8.03066 50.7336H6.37866V52.345H8.03066V50.7336Z" fill="#75184B"/>
    <path d="M8.00772 50.7561H6.40161V52.3227H8.00772V50.7561Z" fill="#111724"/>
    <path d="M17.5984 47.1824H15.9464V48.7938H17.5984V47.1824Z" fill="#243454"/>
    <path d="M17.5756 47.2046H15.9924V48.7712H17.5756V47.2046Z" fill="#243454"/>
    <path d="M17.5984 45.6379H15.9464V47.2493H17.5984V45.6379Z" fill="#243454"/>
    <path d="M17.5756 45.6604H15.9924V47.2046H17.5756V45.6604Z" fill="#243454"/>
    <path d="M17.5984 44.0715H15.9464V45.6829H17.5984V44.0715Z" fill="#243454"/>
    <path d="M17.5756 44.0938H15.9924V45.6604H17.5756V44.0938Z" fill="#243454"/>
    <path d="M17.5984 42.5046H15.9464V44.116H17.5984V42.5046Z" fill="#243454"/>
    <path d="M17.5756 42.5271H15.9924V44.0937H17.5756V42.5271Z" fill="#243454"/>
    <path d="M17.5984 40.9607H15.9464V42.5721H17.5984V40.9607Z" fill="#243454"/>
    <path d="M17.5756 40.9829H15.9924V42.5495H17.5756V40.9829Z" fill="#243454"/>
    <path d="M17.5984 39.3938H15.9464V41.0052H17.5984V39.3938Z" fill="#243454"/>
    <path d="M17.5756 39.4163H15.9924V40.9605H17.5756V39.4163Z" fill="#243454"/>
    <path d="M17.5984 37.8499H15.9464V39.4612H17.5984V37.8499Z" fill="#243454"/>
    <path d="M17.5756 37.8721H15.9924V39.4387H17.5756V37.8721Z" fill="#243454"/>
    <path d="M17.5984 36.283H15.9464V37.8943H17.5984V36.283Z" fill="#243454"/>
    <path d="M17.5756 36.3052H15.9924V37.8718H17.5756V36.3052Z" fill="#243454"/>
    <path d="M17.5984 34.7388H15.9464V36.3501H17.5984V34.7388Z" fill="#243454"/>
    <path d="M17.5756 34.7612H15.9924V36.3055H17.5756V34.7612Z" fill="#243454"/>
    <path d="M17.5984 33.1721H15.9464V34.7835H17.5984V33.1721Z" fill="#243454"/>
    <path d="M17.5756 33.1943H15.9924V34.761H17.5756V33.1943Z" fill="#243454"/>
    <path d="M17.5984 31.6279H15.9464V33.2393H17.5984V31.6279Z" fill="#243454"/>
    <path d="M17.5756 31.6504H15.9924V33.217H17.5756V31.6504Z" fill="#243454"/>
    <path d="M17.5984 30.0613H15.9464V31.6727H17.5984V30.0613Z" fill="#243454"/>
    <path d="M17.5756 30.0837H15.9924V31.6504H17.5756V30.0837Z" fill="#243454"/>
    <path d="M17.5984 28.5171H15.9464V30.1285H17.5984V28.5171Z" fill="#243454"/>
    <path d="M17.5756 28.5396H15.9924V30.0838H17.5756V28.5396Z" fill="#243454"/>
    <path d="M17.5984 26.9504H15.9464V28.5618H17.5984V26.9504Z" fill="#243454"/>
    <path d="M17.5756 26.9729H15.9924V28.5395H17.5756V26.9729Z" fill="#243454"/>
    <path d="M17.5984 25.3838H15.9464V26.9952H17.5984V25.3838Z" fill="#243454"/>
    <path d="M17.5756 25.4062H15.9924V26.9729H17.5756V25.4062Z" fill="#243454"/>
    <path d="M17.5984 23.8396H15.9464V25.451H17.5984V23.8396Z" fill="#243454"/>
    <path d="M17.5756 23.8618H15.9924V25.4284H17.5756V23.8618Z" fill="#243454"/>
    <path d="M17.5984 22.2729H15.9464V23.8843H17.5984V22.2729Z" fill="#131E33"/>
    <path d="M17.5756 22.2954H15.9924V23.8397H17.5756V22.2954Z" fill="#131E33"/>
    <path d="M17.5984 20.7288H15.9464V22.3401H17.5984V20.7288Z" fill="#0A0F1A"/>
    <path d="M16.0152 47.1824H14.3632V48.7938H16.0152V47.1824Z" fill="#243454"/>
    <path d="M15.9923 47.2046H14.3862V48.7712H15.9923V47.2046Z" fill="#243454"/>
    <path d="M16.0152 45.6379H14.3632V47.2493H16.0152V45.6379Z" fill="#243454"/>
    <path d="M15.9923 45.6604H14.3862V47.2046H15.9923V45.6604Z" fill="#243454"/>
    <path d="M16.0152 44.0715H14.3632V45.6829H16.0152V44.0715Z" fill="#243454"/>
    <path d="M15.9923 44.0938H14.3862V45.6604H15.9923V44.0938Z" fill="#243454"/>
    <path d="M16.0152 42.5046H14.3632V44.116H16.0152V42.5046Z" fill="#243454"/>
    <path d="M15.9923 42.5271H14.3862V44.0937H15.9923V42.5271Z" fill="#243454"/>
    <path d="M16.0152 40.9607H14.3632V42.5721H16.0152V40.9607Z" fill="#243454"/>
    <path d="M15.9923 40.9829H14.3862V42.5495H15.9923V40.9829Z" fill="#243454"/>
    <path d="M16.0152 39.3938H14.3632V41.0052H16.0152V39.3938Z" fill="#243454"/>
    <path d="M15.9923 39.4163H14.3862V40.9605H15.9923V39.4163Z" fill="#243454"/>
    <path d="M16.0152 37.8499H14.3632V39.4612H16.0152V37.8499Z" fill="#243454"/>
    <path d="M15.9923 37.8721H14.3862V39.4387H15.9923V37.8721Z" fill="#243454"/>
    <path d="M16.0152 36.283H14.3632V37.8943H16.0152V36.283Z" fill="#243454"/>
    <path d="M15.9923 36.3052H14.3862V37.8718H15.9923V36.3052Z" fill="#243454"/>
    <path d="M16.0152 34.7388H14.3632V36.3501H16.0152V34.7388Z" fill="#243454"/>
    <path d="M15.9923 34.7612H14.3862V36.3055H15.9923V34.7612Z" fill="#243454"/>
    <path d="M16.0152 33.1721H14.3632V34.7835H16.0152V33.1721Z" fill="#243454"/>
    <path d="M15.9923 33.1943H14.3862V34.761H15.9923V33.1943Z" fill="#243454"/>
    <path d="M16.0152 31.6279H14.3632V33.2393H16.0152V31.6279Z" fill="#243454"/>
    <path d="M15.9923 31.6504H14.3862V33.217H15.9923V31.6504Z" fill="#243454"/>
    <path d="M16.0152 30.0613H14.3632V31.6727H16.0152V30.0613Z" fill="#243454"/>
    <path d="M15.9923 30.0837H14.3862V31.6504H15.9923V30.0837Z" fill="#243454"/>
    <path d="M16.0152 28.5171H14.3632V30.1285H16.0152V28.5171Z" fill="#243454"/>
    <path d="M15.9923 28.5396H14.3862V30.0838H15.9923V28.5396Z" fill="#243454"/>
    <path d="M16.0152 26.9504H14.3632V28.5618H16.0152V26.9504Z" fill="#243454"/>
    <path d="M15.9923 26.9729H14.3862V28.5395H15.9923V26.9729Z" fill="#243454"/>
    <path d="M16.0152 25.3838H14.3632V26.9952H16.0152V25.3838Z" fill="#243454"/>
    <path d="M15.9923 25.4062H14.3862V26.9729H15.9923V25.4062Z" fill="#243454"/>
    <path d="M16.0152 23.8396H14.3632V25.451H16.0152V23.8396Z" fill="#243454"/>
    <path d="M15.9923 23.8618H14.3862V25.4284H15.9923V23.8618Z" fill="#243454"/>
    <path d="M16.0152 22.2729H14.3632V23.8843H16.0152V22.2729Z" fill="#243454"/>
    <path d="M15.9923 22.2954H14.3862V23.8397H15.9923V22.2954Z" fill="#243454"/>
    <path d="M16.0152 20.7288H14.3632V22.3401H16.0152V20.7288Z" fill="#0A0F1A"/>
    <path d="M15.9923 20.7512H14.3862V22.3178H15.9923V20.7512Z" fill="#0A0F1A"/>
    <path d="M14.4092 47.1824H12.7572V48.7938H14.4092V47.1824Z" fill="#131E33"/>
    <path d="M14.3863 47.2046H12.7802V48.7712H14.3863V47.2046Z" fill="#131E33"/>
    <path d="M14.4092 45.6379H12.7572V47.2493H14.4092V45.6379Z" fill="#131E33"/>
    <path d="M14.3863 45.6604H12.7802V47.2046H14.3863V45.6604Z" fill="#131E33"/>
    <path d="M14.4092 44.0715H12.7572V45.6829H14.4092V44.0715Z" fill="#131E33"/>
    <path d="M14.3863 44.0938H12.7802V45.6604H14.3863V44.0938Z" fill="#131E33"/>
    <path d="M14.4092 42.5046H12.7572V44.116H14.4092V42.5046Z" fill="#131E33"/>
    <path d="M14.3863 42.5271H12.7802V44.0937H14.3863V42.5271Z" fill="#131E33"/>
    <path d="M14.4092 40.9607H12.7572V42.5721H14.4092V40.9607Z" fill="#131E33"/>
    <path d="M14.3863 40.9829H12.7802V42.5495H14.3863V40.9829Z" fill="#131E33"/>
    <path d="M14.4092 39.3938H12.7572V41.0052H14.4092V39.3938Z" fill="#131E33"/>
    <path d="M14.3863 39.4163H12.7802V40.9605H14.3863V39.4163Z" fill="#131E33"/>
    <path d="M14.4092 37.8499H12.7572V39.4612H14.4092V37.8499Z" fill="#131E33"/>
    <path d="M14.3863 37.8721H12.7802V39.4387H14.3863V37.8721Z" fill="#131E33"/>
    <path d="M14.4092 36.283H12.7572V37.8943H14.4092V36.283Z" fill="#131E33"/>
    <path d="M14.3863 36.3052H12.7802V37.8718H14.3863V36.3052Z" fill="#131E33"/>
    <path d="M14.4092 34.7388H12.7572V36.3501H14.4092V34.7388Z" fill="#131E33"/>
    <path d="M14.3863 34.7612H12.7802V36.3055H14.3863V34.7612Z" fill="#131E33"/>
    <path d="M14.4092 33.1721H12.7572V34.7835H14.4092V33.1721Z" fill="#131E33"/>
    <path d="M14.3863 33.1943H12.7802V34.761H14.3863V33.1943Z" fill="#131E33"/>
    <path d="M14.4092 31.6279H12.7572V33.2393H14.4092V31.6279Z" fill="#131E33"/>
    <path d="M14.3863 31.6504H12.7802V33.217H14.3863V31.6504Z" fill="#131E33"/>
    <path d="M14.4092 30.0613H12.7572V31.6727H14.4092V30.0613Z" fill="#131E33"/>
    <path d="M14.3863 30.0837H12.7802V31.6504H14.3863V30.0837Z" fill="#131E33"/>
    <path d="M14.4092 28.5171H12.7572V30.1285H14.4092V28.5171Z" fill="#131E33"/>
    <path d="M14.3863 28.5396H12.7802V30.0838H14.3863V28.5396Z" fill="#131E33"/>
    <path d="M14.4092 26.9504H12.7572V28.5618H14.4092V26.9504Z" fill="#131E33"/>
    <path d="M14.3863 26.9729H12.7802V28.5395H14.3863V26.9729Z" fill="#131E33"/>
    <path d="M14.4092 25.3838H12.7572V26.9952H14.4092V25.3838Z" fill="#243454"/>
    <path d="M14.3863 25.4062H12.7802V26.9729H14.3863V25.4062Z" fill="#243454"/>
    <path d="M14.4092 23.8396H12.7572V25.451H14.4092V23.8396Z" fill="#243454"/>
    <path d="M14.3863 23.8618H12.7802V25.4284H14.3863V23.8618Z" fill="#243454"/>
    <path d="M14.4092 22.2729H12.7572V23.8843H14.4092V22.2729Z" fill="#243454"/>
    <path d="M14.3863 22.2954H12.7802V23.8397H14.3863V22.2954Z" fill="#243454"/>
    <path d="M14.4092 20.7288H12.7572V22.3401H14.4092V20.7288Z" fill="#0A0F1A"/>
    <path d="M14.3863 20.7512H12.7802V22.3178H14.3863V20.7512Z" fill="#0A0F1A"/>
    <path d="M12.826 25.3838H11.174V26.9952H12.826V25.3838Z" fill="#131E33"/>
    <path d="M12.803 25.4062H11.1969V26.9729H12.803V25.4062Z" fill="#243454"/>
    <path d="M12.826 23.8396H11.174V25.451H12.826V23.8396Z" fill="#131E33"/>
    <path d="M12.803 23.8618H11.1969V25.4284H12.803V23.8618Z" fill="#243454"/>
    <path d="M12.826 22.2729H11.174V23.8843H12.826V22.2729Z" fill="#243454"/>
    <path d="M12.803 22.2954H11.1969V23.8397H12.803V22.2954Z" fill="#243454"/>
    <path d="M12.826 20.7288H11.174V22.3401H12.826V20.7288Z" fill="#0A0F1A"/>
    <path d="M11.2198 47.1824H9.56775V48.7938H11.2198V47.1824Z" fill="#131E33"/>
    <path d="M11.174 47.2046H9.59082V48.7712H11.174V47.2046Z" fill="#131E33"/>
    <path d="M11.2198 45.6379H9.56775V47.2493H11.2198V45.6379Z" fill="#131E33"/>
    <path d="M11.174 45.6604H9.59082V47.2046H11.174V45.6604Z" fill="#131E33"/>
    <path d="M11.2198 44.0715H9.56775V45.6829H11.2198V44.0715Z" fill="#131E33"/>
    <path d="M11.174 44.0938H9.59082V45.6604H11.174V44.0938Z" fill="#131E33"/>
    <path d="M11.2198 42.5046H9.56775V44.116H11.2198V42.5046Z" fill="#131E33"/>
    <path d="M11.174 42.5271H9.59082V44.0937H11.174V42.5271Z" fill="#131E33"/>
    <path d="M11.2198 40.9607H9.56775V42.5721H11.2198V40.9607Z" fill="#131E33"/>
    <path d="M11.174 40.9829H9.59082V42.5495H11.174V40.9829Z" fill="#131E33"/>
    <path d="M11.2198 39.3938H9.56775V41.0052H11.2198V39.3938Z" fill="#131E33"/>
    <path d="M11.174 39.4163H9.59082V40.9605H11.174V39.4163Z" fill="#131E33"/>
    <path d="M11.2198 37.8499H9.56775V39.4612H11.2198V37.8499Z" fill="#131E33"/>
    <path d="M11.174 37.8721H9.59082V39.4387H11.174V37.8721Z" fill="#131E33"/>
    <path d="M11.2198 36.283H9.56775V37.8943H11.2198V36.283Z" fill="#131E33"/>
    <path d="M11.174 36.3052H9.59082V37.8718H11.174V36.3052Z" fill="#131E33"/>
    <path d="M11.2198 34.7388H9.56775V36.3501H11.2198V34.7388Z" fill="#131E33"/>
    <path d="M11.174 34.7612H9.59082V36.3055H11.174V34.7612Z" fill="#131E33"/>
    <path d="M11.2198 33.1721H9.56775V34.7835H11.2198V33.1721Z" fill="#131E33"/>
    <path d="M11.174 33.1943H9.59082V34.761H11.174V33.1943Z" fill="#131E33"/>
    <path d="M11.2198 31.6279H9.56775V33.2393H11.2198V31.6279Z" fill="#131E33"/>
    <path d="M11.174 31.6504H9.59082V33.217H11.174V31.6504Z" fill="#131E33"/>
    <path d="M11.2198 30.0613H9.56775V31.6727H11.2198V30.0613Z" fill="#131E33"/>
    <path d="M11.174 30.0837H9.59082V31.6504H11.174V30.0837Z" fill="#131E33"/>
    <path d="M11.2198 28.5171H9.56775V30.1285H11.2198V28.5171Z" fill="#131E33"/>
    <path d="M11.174 28.5396H9.59082V30.0838H11.174V28.5396Z" fill="#131E33"/>
    <path d="M11.2198 26.9504H9.56775V28.5618H11.2198V26.9504Z" fill="#131E33"/>
    <path d="M11.174 26.9729H9.59082V28.5395H11.174V26.9729Z" fill="#131E33"/>
    <path d="M11.2198 25.3838H9.56775V26.9952H11.2198V25.3838Z" fill="#243454"/>
    <path d="M11.174 25.4062H9.59082V26.9729H11.174V25.4062Z" fill="#243454"/>
    <path d="M11.2198 23.8396H9.56775V25.451H11.2198V23.8396Z" fill="#243454"/>
    <path d="M11.174 23.8618H9.59082V25.4284H11.174V23.8618Z" fill="#243454"/>
    <path d="M11.2198 22.2729H9.56775V23.8843H11.2198V22.2729Z" fill="#243454"/>
    <path d="M11.174 22.2954H9.59082V23.8397H11.174V22.2954Z" fill="#243454"/>
    <path d="M11.2198 20.7288H9.56775V22.3401H11.2198V20.7288Z" fill="#0A0F1A"/>
    <path d="M11.174 20.7512H9.59082V22.3178H11.174V20.7512Z" fill="#0A0F1A"/>
    <path d="M9.63662 47.1824H7.98462V48.7938H9.63662V47.1824Z" fill="#243454"/>
    <path d="M9.6138 47.2046H8.00769V48.7712H9.6138V47.2046Z" fill="#243454"/>
    <path d="M9.63662 45.6379H7.98462V47.2493H9.63662V45.6379Z" fill="#243454"/>
    <path d="M9.6138 45.6604H8.00769V47.2046H9.6138V45.6604Z" fill="#243454"/>
    <path d="M9.63662 44.0715H7.98462V45.6829H9.63662V44.0715Z" fill="#243454"/>
    <path d="M9.6138 44.0938H8.00769V45.6604H9.6138V44.0938Z" fill="#243454"/>
    <path d="M9.63662 42.5046H7.98462V44.116H9.63662V42.5046Z" fill="#243454"/>
    <path d="M9.6138 42.5271H8.00769V44.0937H9.6138V42.5271Z" fill="#243454"/>
    <path d="M9.63662 40.9607H7.98462V42.5721H9.63662V40.9607Z" fill="#243454"/>
    <path d="M9.6138 40.9829H8.00769V42.5495H9.6138V40.9829Z" fill="#243454"/>
    <path d="M9.63662 39.3938H7.98462V41.0052H9.63662V39.3938Z" fill="#243454"/>
    <path d="M9.6138 39.4163H8.00769V40.9605H9.6138V39.4163Z" fill="#243454"/>
    <path d="M9.63662 37.8499H7.98462V39.4612H9.63662V37.8499Z" fill="#243454"/>
    <path d="M9.6138 37.8721H8.00769V39.4387H9.6138V37.8721Z" fill="#243454"/>
    <path d="M9.63662 36.283H7.98462V37.8943H9.63662V36.283Z" fill="#243454"/>
    <path d="M9.6138 36.3052H8.00769V37.8718H9.6138V36.3052Z" fill="#243454"/>
    <path d="M9.63662 34.7388H7.98462V36.3501H9.63662V34.7388Z" fill="#243454"/>
    <path d="M9.6138 34.7612H8.00769V36.3055H9.6138V34.7612Z" fill="#243454"/>
    <path d="M9.63662 33.1721H7.98462V34.7835H9.63662V33.1721Z" fill="#243454"/>
    <path d="M9.6138 33.1943H8.00769V34.761H9.6138V33.1943Z" fill="#243454"/>
    <path d="M9.63662 31.6279H7.98462V33.2393H9.63662V31.6279Z" fill="#243454"/>
    <path d="M9.6138 31.6504H8.00769V33.217H9.6138V31.6504Z" fill="#243454"/>
    <path d="M9.63662 30.0613H7.98462V31.6727H9.63662V30.0613Z" fill="#243454"/>
    <path d="M9.6138 30.0837H8.00769V31.6504H9.6138V30.0837Z" fill="#243454"/>
    <path d="M9.63662 28.5171H7.98462V30.1285H9.63662V28.5171Z" fill="#243454"/>
    <path d="M9.6138 28.5396H8.00769V30.0838H9.6138V28.5396Z" fill="#243454"/>
    <path d="M9.63662 26.9504H7.98462V28.5618H9.63662V26.9504Z" fill="#243454"/>
    <path d="M9.6138 26.9729H8.00769V28.5395H9.6138V26.9729Z" fill="#243454"/>
    <path d="M9.63662 25.3838H7.98462V26.9952H9.63662V25.3838Z" fill="#243454"/>
    <path d="M9.6138 25.4062H8.00769V26.9729H9.6138V25.4062Z" fill="#243454"/>
    <path d="M9.63662 23.8396H7.98462V25.451H9.63662V23.8396Z" fill="#243454"/>
    <path d="M9.6138 23.8618H8.00769V25.4284H9.6138V23.8618Z" fill="#243454"/>
    <path d="M9.63662 22.2729H7.98462V23.8843H9.63662V22.2729Z" fill="#243454"/>
    <path d="M9.6138 22.2954H8.00769V23.8397H9.6138V22.2954Z" fill="#243454"/>
    <path d="M9.63662 20.7288H7.98462V22.3401H9.63662V20.7288Z" fill="#0A0F1A"/>
    <path d="M9.6138 20.7512H8.00769V22.3178H9.6138V20.7512Z" fill="#0A0F1A"/>
    <path d="M8.03066 47.1824H6.37866V48.7938H8.03066V47.1824Z" fill="#243454"/>
    <path d="M8.00772 47.2046H6.40161V48.7712H8.00772V47.2046Z" fill="#243454"/>
    <path d="M8.03066 45.6379H6.37866V47.2493H8.03066V45.6379Z" fill="#243454"/>
    <path d="M8.00772 45.6604H6.40161V47.2046H8.00772V45.6604Z" fill="#243454"/>
    <path d="M8.03066 44.0715H6.37866V45.6829H8.03066V44.0715Z" fill="#243454"/>
    <path d="M8.00772 44.0938H6.40161V45.6604H8.00772V44.0938Z" fill="#243454"/>
    <path d="M8.03066 42.5046H6.37866V44.116H8.03066V42.5046Z" fill="#243454"/>
    <path d="M8.00772 42.5271H6.40161V44.0937H8.00772V42.5271Z" fill="#243454"/>
    <path d="M8.03066 40.9607H6.37866V42.5721H8.03066V40.9607Z" fill="#243454"/>
    <path d="M8.00772 40.9829H6.40161V42.5495H8.00772V40.9829Z" fill="#243454"/>
    <path d="M8.03066 39.3938H6.37866V41.0052H8.03066V39.3938Z" fill="#243454"/>
    <path d="M8.00772 39.4163H6.40161V40.9605H8.00772V39.4163Z" fill="#243454"/>
    <path d="M8.03066 37.8499H6.37866V39.4612H8.03066V37.8499Z" fill="#243454"/>
    <path d="M8.00772 37.8721H6.40161V39.4387H8.00772V37.8721Z" fill="#243454"/>
    <path d="M8.03066 36.283H6.37866V37.8943H8.03066V36.283Z" fill="#243454"/>
    <path d="M8.00772 36.3052H6.40161V37.8718H8.00772V36.3052Z" fill="#243454"/>
    <path d="M8.03066 34.7388H6.37866V36.3501H8.03066V34.7388Z" fill="#243454"/>
    <path d="M8.00772 34.7612H6.40161V36.3055H8.00772V34.7612Z" fill="#243454"/>
    <path d="M8.03066 33.1721H6.37866V34.7835H8.03066V33.1721Z" fill="#243454"/>
    <path d="M8.00772 33.1943H6.40161V34.761H8.00772V33.1943Z" fill="#243454"/>
    <path d="M8.03066 31.6279H6.37866V33.2393H8.03066V31.6279Z" fill="#243454"/>
    <path d="M8.00772 31.6504H6.40161V33.217H8.00772V31.6504Z" fill="#243454"/>
    <path d="M8.03066 30.0613H6.37866V31.6727H8.03066V30.0613Z" fill="#243454"/>
    <path d="M8.00772 30.0837H6.40161V31.6504H8.00772V30.0837Z" fill="#243454"/>
    <path d="M8.03066 28.5171H6.37866V30.1285H8.03066V28.5171Z" fill="#243454"/>
    <path d="M8.00772 28.5396H6.40161V30.0838H8.00772V28.5396Z" fill="#243454"/>
    <path d="M8.03066 26.9504H6.37866V28.5618H8.03066V26.9504Z" fill="#243454"/>
    <path d="M8.00772 26.9729H6.40161V28.5395H8.00772V26.9729Z" fill="#243454"/>
    <path d="M8.03066 25.3838H6.37866V26.9952H8.03066V25.3838Z" fill="#243454"/>
    <path d="M8.00772 25.4062H6.40161V26.9729H8.00772V25.4062Z" fill="#243454"/>
    <path d="M8.03066 23.8396H6.37866V25.451H8.03066V23.8396Z" fill="#243454"/>
    <path d="M8.00772 23.8618H6.40161V25.4284H8.00772V23.8618Z" fill="#243454"/>
    <path d="M8.03066 22.2729H6.37866V23.8843H8.03066V22.2729Z" fill="#131E33"/>
    <path d="M8.00772 22.2954H6.40161V23.8397H8.00772V22.2954Z" fill="#131E33"/>
    <path d="M8.03066 20.7288H6.37866V22.3401H8.03066V20.7288Z" fill="#0A0F1A"/>
    <path d="M8.00772 20.7512H6.40161V22.3178H8.00772V20.7512Z" fill="#0A0F1A"/>
    <path d="M6.44729 55.3887H4.79529V57.0001H6.44729V55.3887Z" fill="#0A0F1A"/>
    <path d="M6.42459 55.4111H4.81848V56.9777H6.42459V55.4111Z" fill="#0A0F1A"/>
    <path d="M6.44729 53.8445H4.79529V55.4559H6.44729V53.8445Z" fill="#111724"/>
    <path d="M6.42459 53.8667H4.81848V55.4109H6.42459V53.8667Z" fill="#111724"/>
    <path d="M6.44729 52.2778H4.79529V53.8892H6.44729V52.2778Z" fill="#111724"/>
    <path d="M6.42459 52.3003H4.81848V53.8669H6.42459V52.3003Z" fill="#111724"/>
    <path d="M4.84145 55.3887H3.18945V57.0001H4.84145V55.3887Z" fill="#0A0F1A"/>
    <path d="M4.79545 55.4111H3.21228V56.9777H4.79545V55.4111Z" fill="#0A0F1A"/>
    <path d="M4.84145 53.8445H3.18945V55.4559H4.84145V53.8445Z" fill="#111724"/>
    <path d="M4.79545 53.8667H3.21228V55.4109H4.79545V53.8667Z" fill="#111724"/>
    <path d="M4.84145 52.2778H3.18945V53.8892H4.84145V52.2778Z" fill="#111724"/>
    <path d="M4.79545 52.3003H3.21228V53.8669H4.79545V52.3003Z" fill="#111724"/>
    <path d="M3.2582 55.3887H1.6062V57.0001H3.2582V55.3887Z" fill="#0A0F1A"/>
    <path d="M3.23514 55.4111H1.62903V56.9777H3.23514V55.4111Z" fill="#0A0F1A"/>
    <path d="M3.2582 53.8445H1.6062V55.4559H3.2582V53.8445Z" fill="#111724"/>
    <path d="M3.23514 53.8667H1.62903V55.4109H3.23514V53.8667Z" fill="#111724"/>
    <path d="M1.652 55.3887H0V57.0001H1.652V55.3887Z" fill="#0A0F1A"/>
    <path d="M1.62918 55.4111H0.0230713V56.9777H1.62918V55.4111Z" fill="#0A0F1A"/>
    <path d="M24 18.6875H22.348V20.2989H24V18.6875Z" fill="#243454"/>
    <path d="M23.954 18.71H22.3708V20.2766H23.954V18.71Z" fill="#243454"/>
    <path d="M24 17.1208H22.348V18.7322H24V17.1208Z" fill="#243454"/>
    <path d="M23.954 17.1433H22.3708V18.7099H23.954V17.1433Z" fill="#243454"/>
    <path d="M24 15.5764H22.348V17.1878H24V15.5764Z" fill="#243454"/>
    <path d="M23.954 15.5991H22.3708V17.1657H23.954V15.5991Z" fill="#243454"/>
    <path d="M24 14.01H22.348V15.6214H24V14.01Z" fill="#243454"/>
    <path d="M23.954 14.0325H22.3708V15.5767H23.954V14.0325Z" fill="#243454"/>
    <path d="M24 12.4656H22.348V14.077H24V12.4656Z" fill="#243454"/>
    <path d="M23.954 12.4883H22.3708V14.0549H23.954V12.4883Z" fill="#243454"/>
    <path d="M24 10.8992H22.348V12.5105H24V10.8992Z" fill="#243454"/>
    <path d="M23.954 10.9216H22.3708V12.4882H23.954V10.9216Z" fill="#243454"/>
    <path d="M24 9.35474H22.348V10.9661H24V9.35474Z" fill="#243454"/>
    <path d="M23.954 9.37744H22.3708V10.9441H23.954V9.37744Z" fill="#243454"/>
    <path d="M24 7.78833H22.348V9.39971H24V7.78833Z" fill="#243454"/>
    <path d="M23.954 7.81055H22.3708V9.35478H23.954V7.81055Z" fill="#243454"/>
    <path d="M24 6.22168H22.348V7.83306H24V6.22168Z" fill="#243454"/>
    <path d="M23.954 6.2666H22.3708V7.83322H23.954V6.2666Z" fill="#243454"/>
    <path d="M24 4.67749H22.348V6.28887H24V4.67749Z" fill="#243454"/>
    <path d="M23.954 4.69971H22.3708V6.26632H23.954V4.69971Z" fill="#243454"/>
    <path d="M22.3938 18.6875H20.7418V20.2989H22.3938V18.6875Z" fill="#243454"/>
    <path d="M22.3709 18.71H20.7648V20.2766H22.3709V18.71Z" fill="#243454"/>
    <path d="M22.3938 17.1208H20.7418V18.7322H22.3938V17.1208Z" fill="#243454"/>
    <path d="M22.3709 17.1433H20.7648V18.7099H22.3709V17.1433Z" fill="#243454"/>
    <path d="M22.3938 15.5764H20.7418V17.1878H22.3938V15.5764Z" fill="#243454"/>
    <path d="M22.3709 15.5991H20.7648V17.1657H22.3709V15.5991Z" fill="#243454"/>
    <path d="M22.3938 14.01H20.7418V15.6214H22.3938V14.01Z" fill="#243454"/>
    <path d="M22.3709 14.0325H20.7648V15.5767H22.3709V14.0325Z" fill="#243454"/>
    <path d="M22.3938 12.4656H20.7418V14.077H22.3938V12.4656Z" fill="#243454"/>
    <path d="M22.3709 12.4883H20.7648V14.0549H22.3709V12.4883Z" fill="#243454"/>
    <path d="M22.3938 10.8992H20.7418V12.5105H22.3938V10.8992Z" fill="#243454"/>
    <path d="M22.3709 10.9216H20.7648V12.4882H22.3709V10.9216Z" fill="#243454"/>
    <path d="M22.3938 9.35474H20.7418V10.9661H22.3938V9.35474Z" fill="#243454"/>
    <path d="M22.3709 9.37744H20.7648V10.9441H22.3709V9.37744Z" fill="#243454"/>
    <path d="M22.3938 7.78833H20.7418V9.39971H22.3938V7.78833Z" fill="#243454"/>
    <path d="M22.3709 7.81055H20.7648V9.35478H22.3709V7.81055Z" fill="#243454"/>
    <path d="M22.3938 6.22168H20.7418V7.83306H22.3938V6.22168Z" fill="#243454"/>
    <path d="M22.3709 6.2666H20.7648V7.83322H22.3709V6.2666Z" fill="#243454"/>
    <path d="M22.3938 4.67749H20.7418V6.28887H22.3938V4.67749Z" fill="#243454"/>
    <path d="M22.3709 4.69971H20.7648V6.26632H22.3709V4.69971Z" fill="#243454"/>
    <path d="M22.3938 3.11084H20.7418V4.72222H22.3938V3.11084Z" fill="#243454"/>
    <path d="M22.3709 3.13306H20.7648V4.69967H22.3709V3.13306Z" fill="#243454"/>
    <path d="M22.3938 1.56665H20.7418V3.17802H22.3938V1.56665Z" fill="#243454"/>
    <path d="M22.3709 1.58887H20.7648V3.1331H22.3709V1.58887Z" fill="#243454"/>
    <path d="M20.8106 18.6875H19.1586V20.2989H20.8106V18.6875Z" fill="#131E33"/>
    <path d="M20.8106 17.1208H19.1586V18.7322H20.8106V17.1208Z" fill="#131E33"/>
    <path d="M20.7878 17.1433H19.1816V18.7099H20.7878V17.1433Z" fill="#131E33"/>
    <path d="M20.8106 15.5764H19.1586V17.1878H20.8106V15.5764Z" fill="#131E33"/>
    <path d="M20.7878 15.5991H19.1816V17.1657H20.7878V15.5991Z" fill="#131E33"/>
    <path d="M20.8106 14.01H19.1586V15.6214H20.8106V14.01Z" fill="#131E33"/>
    <path d="M20.7878 14.0325H19.1816V15.5767H20.7878V14.0325Z" fill="#131E33"/>
    <path d="M20.8106 12.4656H19.1586V14.077H20.8106V12.4656Z" fill="#131E33"/>
    <path d="M20.7878 12.4883H19.1816V14.0549H20.7878V12.4883Z" fill="#131E33"/>
    <path d="M20.8106 10.8992H19.1586V12.5105H20.8106V10.8992Z" fill="#131E33"/>
    <path d="M20.7878 10.9216H19.1816V12.4882H20.7878V10.9216Z" fill="#131E33"/>
    <path d="M20.8106 9.35474H19.1586V10.9661H20.8106V9.35474Z" fill="#131E33"/>
    <path d="M20.7878 9.37744H19.1816V10.9441H20.7878V9.37744Z" fill="#131E33"/>
    <path d="M20.8106 7.78833H19.1586V9.39971H20.8106V7.78833Z" fill="#131E33"/>
    <path d="M20.7878 7.81055H19.1816V9.35478H20.7878V7.81055Z" fill="#131E33"/>
    <path d="M20.8106 6.22168H19.1586V7.83306H20.8106V6.22168Z" fill="#131E33"/>
    <path d="M20.7878 6.2666H19.1816V7.83322H20.7878V6.2666Z" fill="#131E33"/>
    <path d="M20.8106 4.67749H19.1586V6.28887H20.8106V4.67749Z" fill="#243454"/>
    <path d="M20.7878 4.69971H19.1816V6.26632H20.7878V4.69971Z" fill="#243454"/>
    <path d="M20.8106 3.11084H19.1586V4.72222H20.8106V3.11084Z" fill="#243454"/>
    <path d="M20.7878 3.13306H19.1816V4.69967H20.7878V3.13306Z" fill="#243454"/>
    <path d="M20.8106 1.56665H19.1586V3.17802H20.8106V1.56665Z" fill="#243454"/>
    <path d="M20.7878 1.58887H19.1816V3.1331H20.7878V1.58887Z" fill="#243454"/>
    <path d="M19.2046 4.67749H17.5526V6.28887H19.2046V4.67749Z" fill="#131E33"/>
    <path d="M19.1816 4.69971H17.5754V6.26632H19.1816V4.69971Z" fill="#131E33"/>
    <path d="M19.2046 3.11084H17.5526V4.72222H19.2046V3.11084Z" fill="#243454"/>
    <path d="M19.1816 3.13306H17.5754V4.69967H19.1816V3.13306Z" fill="#243454"/>
    <path d="M19.2046 1.56665H17.5526V3.17802H19.2046V1.56665Z" fill="#243454"/>
    <path d="M19.1816 1.58887H17.5754V3.1331H19.1816V1.58887Z" fill="#243454"/>
    <path d="M19.2046 0H17.5526V1.61137H19.2046V0Z" fill="#243454"/>
    <path d="M17.5984 17.1208H15.9464V18.7322H17.5984V17.1208Z" fill="#131E33"/>
    <path d="M17.5756 17.1433H15.9924V18.7099H17.5756V17.1433Z" fill="#131E33"/>
    <path d="M17.5984 15.5764H15.9464V17.1878H17.5984V15.5764Z" fill="#131E33"/>
    <path d="M17.5756 15.5991H15.9924V17.1657H17.5756V15.5991Z" fill="#131E33"/>
    <path d="M17.5984 14.01H15.9464V15.6214H17.5984V14.01Z" fill="#131E33"/>
    <path d="M17.5756 14.0325H15.9924V15.5767H17.5756V14.0325Z" fill="#131E33"/>
    <path d="M17.5984 12.4656H15.9464V14.077H17.5984V12.4656Z" fill="#131E33"/>
    <path d="M17.5756 12.4883H15.9924V14.0549H17.5756V12.4883Z" fill="#131E33"/>
    <path d="M17.5984 10.8992H15.9464V12.5105H17.5984V10.8992Z" fill="#131E33"/>
    <path d="M17.5756 10.9216H15.9924V12.4882H17.5756V10.9216Z" fill="#131E33"/>
    <path d="M17.5984 9.35474H15.9464V10.9661H17.5984V9.35474Z" fill="#131E33"/>
    <path d="M17.5756 9.37744H15.9924V10.9441H17.5756V9.37744Z" fill="#131E33"/>
    <path d="M17.5984 7.78833H15.9464V9.39971H17.5984V7.78833Z" fill="#131E33"/>
    <path d="M17.5756 7.81055H15.9924V9.35478H17.5756V7.81055Z" fill="#131E33"/>
    <path d="M17.5984 6.22168H15.9464V7.83306H17.5984V6.22168Z" fill="#131E33"/>
    <path d="M17.5756 6.2666H15.9924V7.83322H17.5756V6.2666Z" fill="#131E33"/>
    <path d="M17.5984 4.67749H15.9464V6.28887H17.5984V4.67749Z" fill="#131E33"/>
    <path d="M17.5756 4.69971H15.9924V6.26632H17.5756V4.69971Z" fill="#131E33"/>
    <path d="M17.5984 3.11084H15.9464V4.72222H17.5984V3.11084Z" fill="#243454"/>
    <path d="M17.5756 3.13306H15.9924V4.69967H17.5756V3.13306Z" fill="#243454"/>
    <path d="M17.5984 1.56665H15.9464V3.17802H17.5984V1.56665Z" fill="#374F80"/>
    <path d="M17.5756 1.58887H15.9924V3.1331H17.5756V1.58887Z" fill="#374F80"/>
    <path d="M17.5984 0H15.9464V1.61137H17.5984V0Z" fill="#374F80"/>
    <path d="M17.5756 0.0224609H15.9924V1.58908H17.5756V0.0224609Z" fill="#374F80"/>
    <path d="M16.0152 17.1208H14.3632V18.7322H16.0152V17.1208Z" fill="#243454"/>
    <path d="M15.9923 17.1433H14.3862V18.7099H15.9923V17.1433Z" fill="#243454"/>
    <path d="M16.0152 15.5764H14.3632V17.1878H16.0152V15.5764Z" fill="#243454"/>
    <path d="M15.9923 15.5991H14.3862V17.1657H15.9923V15.5991Z" fill="#243454"/>
    <path d="M16.0152 14.01H14.3632V15.6214H16.0152V14.01Z" fill="#243454"/>
    <path d="M15.9923 14.0325H14.3862V15.5767H15.9923V14.0325Z" fill="#243454"/>
    <path d="M16.0152 12.4656H14.3632V14.077H16.0152V12.4656Z" fill="#243454"/>
    <path d="M15.9923 12.4883H14.3862V14.0549H15.9923V12.4883Z" fill="#243454"/>
    <path d="M16.0152 10.8992H14.3632V12.5105H16.0152V10.8992Z" fill="#243454"/>
    <path d="M15.9923 10.9216H14.3862V12.4882H15.9923V10.9216Z" fill="#243454"/>
    <path d="M16.0152 9.35474H14.3632V10.9661H16.0152V9.35474Z" fill="#243454"/>
    <path d="M15.9923 9.37744H14.3862V10.9441H15.9923V9.37744Z" fill="#243454"/>
    <path d="M16.0152 7.78833H14.3632V9.39971H16.0152V7.78833Z" fill="#243454"/>
    <path d="M15.9923 7.81055H14.3862V9.35478H15.9923V7.81055Z" fill="#243454"/>
    <path d="M16.0152 6.22168H14.3632V7.83306H16.0152V6.22168Z" fill="#243454"/>
    <path d="M15.9923 6.2666H14.3862V7.83322H15.9923V6.2666Z" fill="#243454"/>
    <path d="M16.0152 4.67749H14.3632V6.28887H16.0152V4.67749Z" fill="#374F80"/>
    <path d="M15.9923 4.69971H14.3862V6.26632H15.9923V4.69971Z" fill="#374F80"/>
    <path d="M16.0152 3.11084H14.3632V4.72222H16.0152V3.11084Z" fill="#374F80"/>
    <path d="M15.9923 3.13306H14.3862V4.69967H15.9923V3.13306Z" fill="#374F80"/>
    <path d="M16.0152 1.56665H14.3632V3.17802H16.0152V1.56665Z" fill="white"/>
    <path d="M15.9923 1.58887H14.3862V3.1331H15.9923V1.58887Z" fill="white"/>
    <path d="M16.0152 0H14.3632V1.61137H16.0152V0Z" fill="#790E37"/>
    <path d="M15.9923 0.0224609H14.3862V1.58908H15.9923V0.0224609Z" fill="#A3221D"/>
    <path d="M14.4092 17.1208H12.7572V18.7322H14.4092V17.1208Z" fill="#243454"/>
    <path d="M14.3863 17.1433H12.7802V18.7099H14.3863V17.1433Z" fill="#243454"/>
    <path d="M14.4092 15.5764H12.7572V17.1878H14.4092V15.5764Z" fill="#243454"/>
    <path d="M14.3863 15.5991H12.7802V17.1657H14.3863V15.5991Z" fill="#243454"/>
    <path d="M14.4092 14.01H12.7572V15.6214H14.4092V14.01Z" fill="#243454"/>
    <path d="M14.3863 14.0325H12.7802V15.5767H14.3863V14.0325Z" fill="#243454"/>
    <path d="M14.4092 12.4656H12.7572V14.077H14.4092V12.4656Z" fill="#243454"/>
    <path d="M14.3863 12.4883H12.7802V14.0549H14.3863V12.4883Z" fill="#243454"/>
    <path d="M14.4092 10.8992H12.7572V12.5105H14.4092V10.8992Z" fill="#243454"/>
    <path d="M14.3863 10.9216H12.7802V12.4882H14.3863V10.9216Z" fill="#243454"/>
    <path d="M14.4092 9.35474H12.7572V10.9661H14.4092V9.35474Z" fill="#243454"/>
    <path d="M14.3863 9.37744H12.7802V10.9441H14.3863V9.37744Z" fill="#243454"/>
    <path d="M14.4092 7.78833H12.7572V9.39971H14.4092V7.78833Z" fill="#243454"/>
    <path d="M14.3863 7.81055H12.7802V9.35478H14.3863V7.81055Z" fill="#243454"/>
    <path d="M14.4092 6.22168H12.7572V7.83306H14.4092V6.22168Z" fill="#374F80"/>
    <path d="M14.3863 6.2666H12.7802V7.83322H14.3863V6.2666Z" fill="#374F80"/>
    <path d="M14.4092 4.67749H12.7572V6.28887H14.4092V4.67749Z" fill="white"/>
    <path d="M14.3863 4.69971H12.7802V6.26632H14.3863V4.69971Z" fill="white"/>
    <path d="M14.4092 3.11084H12.7572V4.72222H14.4092V3.11084Z" fill="white"/>
    <path d="M14.3863 3.13306H12.7802V4.69967H14.3863V3.13306Z" fill="white"/>
    <path d="M14.4092 1.56665H12.7572V3.17802H14.4092V1.56665Z" fill="#790E37"/>
    <path d="M14.3863 1.58887H12.7802V3.1331H14.3863V1.58887Z" fill="#A3221D"/>
    <path d="M14.4092 0H12.7572V1.61137H14.4092V0Z" fill="white"/>
    <path d="M12.826 17.1208H11.174V18.7322H12.826V17.1208Z" fill="#243454"/>
    <path d="M12.803 17.1433H11.1969V18.7099H12.803V17.1433Z" fill="#243454"/>
    <path d="M12.826 15.5764H11.174V17.1878H12.826V15.5764Z" fill="#243454"/>
    <path d="M12.803 15.5991H11.1969V17.1657H12.803V15.5991Z" fill="#243454"/>
    <path d="M12.826 14.01H11.174V15.6214H12.826V14.01Z" fill="#243454"/>
    <path d="M12.803 14.0325H11.1969V15.5767H12.803V14.0325Z" fill="#243454"/>
    <path d="M12.826 12.4656H11.174V14.077H12.826V12.4656Z" fill="#243454"/>
    <path d="M12.803 12.4883H11.1969V14.0549H12.803V12.4883Z" fill="#243454"/>
    <path d="M12.826 10.8992H11.174V12.5105H12.826V10.8992Z" fill="#243454"/>
    <path d="M12.803 10.9216H11.1969V12.4882H12.803V10.9216Z" fill="#243454"/>
    <path d="M12.826 9.35474H11.174V10.9661H12.826V9.35474Z" fill="#243454"/>
    <path d="M12.803 9.37744H11.1969V10.9441H12.803V9.37744Z" fill="#243454"/>
    <path d="M12.826 7.78833H11.174V9.39971H12.826V7.78833Z" fill="#374F80"/>
    <path d="M12.803 7.81055H11.1969V9.35478H12.803V7.81055Z" fill="#374F80"/>
    <path d="M12.826 6.22168H11.174V7.83306H12.826V6.22168Z" fill="#111724"/>
    <path d="M12.826 4.67749H11.174V6.28887H12.826V4.67749Z" fill="#111724"/>
    <path d="M12.826 3.11084H11.174V4.72222H12.826V3.11084Z" fill="#111724"/>
    <path d="M12.826 1.56665H11.174V3.17802H12.826V1.56665Z" fill="#111724"/>
    <path d="M12.826 0H11.174V1.61137H12.826V0Z" fill="white"/>
    <path d="M12.803 0.0224609H11.1969V1.58908H12.803V0.0224609Z" fill="white"/>
    <path d="M11.2198 17.1208H9.56775V18.7322H11.2198V17.1208Z" fill="#243454"/>
    <path d="M11.174 17.1433H9.59082V18.7099H11.174V17.1433Z" fill="#243454"/>
    <path d="M11.2198 15.5764H9.56775V17.1878H11.2198V15.5764Z" fill="#243454"/>
    <path d="M11.174 15.5991H9.59082V17.1657H11.174V15.5991Z" fill="#243454"/>
    <path d="M11.2198 14.01H9.56775V15.6214H11.2198V14.01Z" fill="#243454"/>
    <path d="M11.174 14.0325H9.59082V15.5767H11.174V14.0325Z" fill="#243454"/>
    <path d="M11.2198 12.4656H9.56775V14.077H11.2198V12.4656Z" fill="#243454"/>
    <path d="M11.174 12.4883H9.59082V14.0549H11.174V12.4883Z" fill="#243454"/>
    <path d="M11.2198 10.8992H9.56775V12.5105H11.2198V10.8992Z" fill="#243454"/>
    <path d="M11.174 10.9216H9.59082V12.4882H11.174V10.9216Z" fill="#243454"/>
    <path d="M11.2198 9.35474H9.56775V10.9661H11.2198V9.35474Z" fill="#243454"/>
    <path d="M11.174 9.37744H9.59082V10.9441H11.174V9.37744Z" fill="#243454"/>
    <path d="M11.2198 7.78833H9.56775V9.39971H11.2198V7.78833Z" fill="#243454"/>
    <path d="M11.174 7.81055H9.59082V9.35478H11.174V7.81055Z" fill="#243454"/>
    <path d="M11.2198 6.22168H9.56775V7.83306H11.2198V6.22168Z" fill="#374F80"/>
    <path d="M11.174 6.2666H9.59082V7.83322H11.174V6.2666Z" fill="#374F80"/>
    <path d="M11.2198 4.67749H9.56775V6.28887H11.2198V4.67749Z" fill="white"/>
    <path d="M11.174 4.69971H9.59082V6.26632H11.174V4.69971Z" fill="white"/>
    <path d="M11.2198 3.11084H9.56775V4.72222H11.2198V3.11084Z" fill="white"/>
    <path d="M11.174 3.13306H9.59082V4.69967H11.174V3.13306Z" fill="white"/>
    <path d="M11.2198 1.56665H9.56775V3.17802H11.2198V1.56665Z" fill="#790E37"/>
    <path d="M11.2198 0H9.56775V1.61137H11.2198V0Z" fill="white"/>
    <path d="M11.174 0.0224609H9.59082V1.58908H11.174V0.0224609Z" fill="white"/>
    <path d="M9.63662 17.1208H7.98462V18.7322H9.63662V17.1208Z" fill="#243454"/>
    <path d="M9.6138 17.1433H8.00769V18.7099H9.6138V17.1433Z" fill="#243454"/>
    <path d="M9.63662 15.5764H7.98462V17.1878H9.63662V15.5764Z" fill="#243454"/>
    <path d="M9.6138 15.5991H8.00769V17.1657H9.6138V15.5991Z" fill="#243454"/>
    <path d="M9.63662 14.01H7.98462V15.6214H9.63662V14.01Z" fill="#243454"/>
    <path d="M9.6138 14.0325H8.00769V15.5767H9.6138V14.0325Z" fill="#243454"/>
    <path d="M9.63662 12.4656H7.98462V14.077H9.63662V12.4656Z" fill="#243454"/>
    <path d="M9.6138 12.4883H8.00769V14.0549H9.6138V12.4883Z" fill="#243454"/>
    <path d="M9.63662 10.8992H7.98462V12.5105H9.63662V10.8992Z" fill="#243454"/>
    <path d="M9.6138 10.9216H8.00769V12.4882H9.6138V10.9216Z" fill="#243454"/>
    <path d="M9.63662 9.35474H7.98462V10.9661H9.63662V9.35474Z" fill="#243454"/>
    <path d="M9.6138 9.37744H8.00769V10.9441H9.6138V9.37744Z" fill="#243454"/>
    <path d="M9.63662 7.78833H7.98462V9.39971H9.63662V7.78833Z" fill="#243454"/>
    <path d="M9.6138 7.81055H8.00769V9.35478H9.6138V7.81055Z" fill="#243454"/>
    <path d="M9.63662 6.22168H7.98462V7.83306H9.63662V6.22168Z" fill="#243454"/>
    <path d="M9.6138 6.2666H8.00769V7.83322H9.6138V6.2666Z" fill="#243454"/>
    <path d="M9.63662 4.67749H7.98462V6.28887H9.63662V4.67749Z" fill="#374F80"/>
    <path d="M9.6138 4.69971H8.00769V6.26632H9.6138V4.69971Z" fill="#374F80"/>
    <path d="M9.63662 3.11084H7.98462V4.72222H9.63662V3.11084Z" fill="#374F80"/>
    <path d="M9.6138 3.13306H8.00769V4.69967H9.6138V3.13306Z" fill="#374F80"/>
    <path d="M9.63662 1.56665H7.98462V3.17802H9.63662V1.56665Z" fill="white"/>
    <path d="M9.6138 1.58887H8.00769V3.1331H9.6138V1.58887Z" fill="white"/>
    <path d="M9.63662 0H7.98462V1.61137H9.63662V0Z" fill="#790E37"/>
    <path d="M12.803 6.26636H11.1969V7.83297H12.803V6.26636Z" fill="#E4352F"/>
    <path d="M12.803 4.69971H11.1969V6.26632H12.803V4.69971Z" fill="#E4352F"/>
    <path d="M12.803 3.13306H11.1969V4.69967H12.803V3.13306Z" fill="#E4352F"/>
    <path d="M12.803 1.58887H11.1969V3.1331H12.803V1.58887Z" fill="#E4352F"/>
    <path d="M11.1741 1.58887H9.59094V3.1331H11.1741V1.58887Z" fill="#A3221D"/>
    <path d="M9.6138 0.0224609H8.00769V1.58908H9.6138V0.0224609Z" fill="#A3221D"/>
    <path d="M8.03066 17.1208H6.37866V18.7322H8.03066V17.1208Z" fill="#131E33"/>
    <path d="M8.00772 17.1433H6.40161V18.7099H8.00772V17.1433Z" fill="#131E33"/>
    <path d="M8.03066 15.5764H6.37866V17.1878H8.03066V15.5764Z" fill="#131E33"/>
    <path d="M8.00772 15.5991H6.40161V17.1657H8.00772V15.5991Z" fill="#131E33"/>
    <path d="M8.03066 14.01H6.37866V15.6214H8.03066V14.01Z" fill="#131E33"/>
    <path d="M8.00772 14.0325H6.40161V15.5767H8.00772V14.0325Z" fill="#131E33"/>
    <path d="M8.03066 12.4656H6.37866V14.077H8.03066V12.4656Z" fill="#131E33"/>
    <path d="M8.00772 12.4883H6.40161V14.0549H8.00772V12.4883Z" fill="#131E33"/>
    <path d="M8.03066 10.8992H6.37866V12.5105H8.03066V10.8992Z" fill="#131E33"/>
    <path d="M8.00772 10.9216H6.40161V12.4882H8.00772V10.9216Z" fill="#131E33"/>
    <path d="M8.03066 9.35474H6.37866V10.9661H8.03066V9.35474Z" fill="#131E33"/>
    <path d="M8.00772 9.37744H6.40161V10.9441H8.00772V9.37744Z" fill="#131E33"/>
    <path d="M8.03066 7.78833H6.37866V9.39971H8.03066V7.78833Z" fill="#131E33"/>
    <path d="M8.00772 7.81055H6.40161V9.35478H8.00772V7.81055Z" fill="#131E33"/>
    <path d="M8.03066 6.22168H6.37866V7.83306H8.03066V6.22168Z" fill="#131E33"/>
    <path d="M8.00772 6.2666H6.40161V7.83322H8.00772V6.2666Z" fill="#131E33"/>
    <path d="M8.03066 4.67749H6.37866V6.28887H8.03066V4.67749Z" fill="#243454"/>
    <path d="M8.00772 4.69971H6.40161V6.26632H8.00772V4.69971Z" fill="#243454"/>
    <path d="M8.03066 3.11084H6.37866V4.72222H8.03066V3.11084Z" fill="#243454"/>
    <path d="M8.00772 3.13306H6.40161V4.69967H8.00772V3.13306Z" fill="#243454"/>
    <path d="M8.03066 1.56665H6.37866V3.17802H8.03066V1.56665Z" fill="#374F80"/>
    <path d="M8.00772 1.58887H6.40161V3.1331H8.00772V1.58887Z" fill="#374F80"/>
    <path d="M8.03066 0H6.37866V1.61137H8.03066V0Z" fill="#374F80"/>
    <path d="M8.00772 0.0224609H6.40161V1.58908H8.00772V0.0224609Z" fill="#374F80"/>
    <path d="M6.44729 4.67749H4.79529V6.28887H6.44729V4.67749Z" fill="#131E33"/>
    <path d="M6.42459 4.69971H4.81848V6.26632H6.42459V4.69971Z" fill="#131E33"/>
    <path d="M6.44729 3.11084H4.79529V4.72222H6.44729V3.11084Z" fill="#243454"/>
    <path d="M6.42459 3.13306H4.81848V4.69967H6.42459V3.13306Z" fill="#243454"/>
    <path d="M6.44729 1.56665H4.79529V3.17802H6.44729V1.56665Z" fill="#243454"/>
    <path d="M6.42459 1.58887H4.81848V3.1331H6.42459V1.58887Z" fill="#243454"/>
    <path d="M6.44729 0H4.79529V1.61137H6.44729V0Z" fill="#243454"/>
    <path d="M6.42459 0.0224609H4.81848V1.58908H6.42459V0.0224609Z" fill="#243454"/>
    <path d="M4.84145 18.6875H3.18945V20.2989H4.84145V18.6875Z" fill="#131E33"/>
    <path d="M4.84145 17.1208H3.18945V18.7322H4.84145V17.1208Z" fill="#131E33"/>
    <path d="M4.79545 17.1433H3.21228V18.7099H4.79545V17.1433Z" fill="#131E33"/>
    <path d="M4.84145 15.5764H3.18945V17.1878H4.84145V15.5764Z" fill="#131E33"/>
    <path d="M4.79545 15.5991H3.21228V17.1657H4.79545V15.5991Z" fill="#131E33"/>
    <path d="M4.84145 14.01H3.18945V15.6214H4.84145V14.01Z" fill="#131E33"/>
    <path d="M4.79545 14.0325H3.21228V15.5767H4.79545V14.0325Z" fill="#131E33"/>
    <path d="M4.84145 12.4656H3.18945V14.077H4.84145V12.4656Z" fill="#131E33"/>
    <path d="M4.79545 12.4883H3.21228V14.0549H4.79545V12.4883Z" fill="#131E33"/>
    <path d="M4.84145 10.8992H3.18945V12.5105H4.84145V10.8992Z" fill="#131E33"/>
    <path d="M4.79545 10.9216H3.21228V12.4882H4.79545V10.9216Z" fill="#131E33"/>
    <path d="M4.84145 9.35474H3.18945V10.9661H4.84145V9.35474Z" fill="#131E33"/>
    <path d="M4.79545 9.37744H3.21228V10.9441H4.79545V9.37744Z" fill="#131E33"/>
    <path d="M4.84145 7.78833H3.18945V9.39971H4.84145V7.78833Z" fill="#131E33"/>
    <path d="M4.79545 7.81055H3.21228V9.35478H4.79545V7.81055Z" fill="#131E33"/>
    <path d="M4.84145 6.22168H3.18945V7.83306H4.84145V6.22168Z" fill="#131E33"/>
    <path d="M4.79545 6.2666H3.21228V7.83322H4.79545V6.2666Z" fill="#131E33"/>
    <path d="M4.84145 4.67749H3.18945V6.28887H4.84145V4.67749Z" fill="#243454"/>
    <path d="M4.79545 4.69971H3.21228V6.26632H4.79545V4.69971Z" fill="#243454"/>
    <path d="M4.84145 3.11084H3.18945V4.72222H4.84145V3.11084Z" fill="#243454"/>
    <path d="M4.79545 3.13306H3.21228V4.69967H4.79545V3.13306Z" fill="#243454"/>
    <path d="M4.84145 1.56665H3.18945V3.17802H4.84145V1.56665Z" fill="#243454"/>
    <path d="M4.79545 1.58887H3.21228V3.1331H4.79545V1.58887Z" fill="#243454"/>
    <path d="M3.2582 18.6875H1.6062V20.2989H3.2582V18.6875Z" fill="#243454"/>
    <path d="M3.23514 18.71H1.62903V20.2766H3.23514V18.71Z" fill="#243454"/>
    <path d="M3.2582 17.1208H1.6062V18.7322H3.2582V17.1208Z" fill="#243454"/>
    <path d="M3.23514 17.1433H1.62903V18.7099H3.23514V17.1433Z" fill="#243454"/>
    <path d="M3.2582 15.5764H1.6062V17.1878H3.2582V15.5764Z" fill="#243454"/>
    <path d="M3.23514 15.5991H1.62903V17.1657H3.23514V15.5991Z" fill="#243454"/>
    <path d="M3.2582 14.01H1.6062V15.6214H3.2582V14.01Z" fill="#243454"/>
    <path d="M3.23514 14.0325H1.62903V15.5767H3.23514V14.0325Z" fill="#243454"/>
    <path d="M3.2582 12.4656H1.6062V14.077H3.2582V12.4656Z" fill="#243454"/>
    <path d="M3.23514 12.4883H1.62903V14.0549H3.23514V12.4883Z" fill="#243454"/>
    <path d="M3.2582 10.8992H1.6062V12.5105H3.2582V10.8992Z" fill="#243454"/>
    <path d="M3.23514 10.9216H1.62903V12.4882H3.23514V10.9216Z" fill="#243454"/>
    <path d="M3.2582 9.35474H1.6062V10.9661H3.2582V9.35474Z" fill="#243454"/>
    <path d="M3.23514 9.37744H1.62903V10.9441H3.23514V9.37744Z" fill="#243454"/>
    <path d="M3.2582 7.78833H1.6062V9.39971H3.2582V7.78833Z" fill="#243454"/>
    <path d="M3.23514 7.81055H1.62903V9.35478H3.23514V7.81055Z" fill="#243454"/>
    <path d="M3.2582 6.22168H1.6062V7.83306H3.2582V6.22168Z" fill="#243454"/>
    <path d="M3.23514 6.2666H1.62903V7.83322H3.23514V6.2666Z" fill="#243454"/>
    <path d="M3.2582 4.67749H1.6062V6.28887H3.2582V4.67749Z" fill="#243454"/>
    <path d="M3.23514 4.69971H1.62903V6.26632H3.23514V4.69971Z" fill="#243454"/>
    <path d="M3.2582 3.11084H1.6062V4.72222H3.2582V3.11084Z" fill="#243454"/>
    <path d="M3.23514 3.13306H1.62903V4.69967H3.23514V3.13306Z" fill="#243454"/>
    <path d="M3.2582 1.56665H1.6062V3.17802H3.2582V1.56665Z" fill="#243454"/>
    <path d="M3.23514 1.58887H1.62903V3.1331H3.23514V1.58887Z" fill="#243454"/>
    <path d="M1.652 18.6875H0V20.2989H1.652V18.6875Z" fill="#243454"/>
    <path d="M1.62918 18.71H0.0230713V20.2766H1.62918V18.71Z" fill="#243454"/>
    <path d="M1.652 17.1208H0V18.7322H1.652V17.1208Z" fill="#243454"/>
    <path d="M1.62918 17.1433H0.0230713V18.7099H1.62918V17.1433Z" fill="#243454"/>
    <path d="M1.652 15.5764H0V17.1878H1.652V15.5764Z" fill="#243454"/>
    <path d="M1.62918 15.5991H0.0230713V17.1657H1.62918V15.5991Z" fill="#243454"/>
    <path d="M1.652 14.01H0V15.6214H1.652V14.01Z" fill="#243454"/>
    <path d="M1.62918 14.0325H0.0230713V15.5767H1.62918V14.0325Z" fill="#243454"/>
    <path d="M1.652 12.4656H0V14.077H1.652V12.4656Z" fill="#243454"/>
    <path d="M1.62918 12.4883H0.0230713V14.0549H1.62918V12.4883Z" fill="#243454"/>
    <path d="M1.652 10.8992H0V12.5105H1.652V10.8992Z" fill="#243454"/>
    <path d="M1.62918 10.9216H0.0230713V12.4882H1.62918V10.9216Z" fill="#243454"/>
    <path d="M1.652 9.35474H0V10.9661H1.652V9.35474Z" fill="#243454"/>
    <path d="M1.62918 9.37744H0.0230713V10.9441H1.62918V9.37744Z" fill="#243454"/>
    <path d="M1.652 7.78833H0V9.39971H1.652V7.78833Z" fill="#243454"/>
    <path d="M1.62918 7.81055H0.0230713V9.35478H1.62918V7.81055Z" fill="#243454"/>
    <path d="M1.652 6.22168H0V7.83306H1.652V6.22168Z" fill="#243454"/>
    <path d="M1.62918 6.2666H0.0230713V7.83322H1.62918V6.2666Z" fill="#243454"/>
    <path d="M1.652 4.67749H0V6.28887H1.652V4.67749Z" fill="#243454"/>
    <path d="M1.62918 4.69971H0.0230713V6.26632H1.62918V4.69971Z" fill="#243454"/>
</svg>
