<svg width="96" height="241" viewBox="0 0 96 241" fill="none" xmlns="http://www.w3.org/2000/svg">
    <path d="M89.8019 234.42H84.2031V240.043H89.8019V234.42Z" fill="#0A0F1A"/>
    <path d="M89.6468 234.498H84.2812V239.965H89.6468V234.498Z" fill="#0A0F1A"/>
    <path d="M89.8019 71.5112H84.2031V77.1342H89.8019V71.5112Z" fill="#243454"/>
    <path d="M89.6468 71.5892H84.2812V77.056H89.6468V71.5892Z" fill="#243454"/>
    <path d="M84.3589 234.42H78.7601V240.043H84.3589V234.42Z" fill="#0A0F1A"/>
    <path d="M84.2808 234.498H78.8375V239.965H84.2808V234.498Z" fill="#0A0F1A"/>
    <path d="M84.3589 229.032H78.7601V234.655H84.3589V229.032Z" fill="#111724"/>
    <path d="M84.2808 229.11H78.8375V234.499H84.2808V229.11Z" fill="#111724"/>
    <path d="M84.3589 71.5112H78.7601V77.1342H84.3589V71.5112Z" fill="#243454"/>
    <path d="M84.2808 71.5892H78.8375V77.056H84.2808V71.5892Z" fill="#243454"/>
    <path d="M84.3589 66.0447H78.7601V71.6676H84.3589V66.0447Z" fill="#243454"/>
    <path d="M84.2808 66.1227H78.8375V71.5894H84.2808V66.1227Z" fill="#243454"/>
    <path d="M84.3589 60.6558H78.7601V66.2787H84.3589V60.6558Z" fill="#243454"/>
    <path d="M84.2808 60.7338H78.8375V66.1224H84.2808V60.7338Z" fill="#243454"/>
    <path d="M78.9936 234.42H73.3948V240.043H78.9936V234.42Z" fill="#0A0F1A"/>
    <path d="M78.9151 234.498H73.4718V239.965H78.9151V234.498Z" fill="#0A0F1A"/>
    <path d="M78.9936 229.032H73.3948V234.655H78.9936V229.032Z" fill="#111724"/>
    <path d="M78.9151 229.11H73.4718V234.499H78.9151V229.11Z" fill="#111724"/>
    <path d="M78.9936 223.565H73.3948V229.188H78.9936V223.565Z" fill="#111724"/>
    <path d="M78.9151 223.643H73.4718V229.11H78.9151V223.643Z" fill="#111724"/>
    <path d="M78.9936 71.5112H73.3948V77.1342H78.9936V71.5112Z" fill="#243454"/>
    <path d="M78.9151 71.5892H73.4718V77.056H78.9151V71.5892Z" fill="#243454"/>
    <path d="M78.9936 66.0447H73.3948V71.6676H78.9936V66.0447Z" fill="#243454"/>
    <path d="M78.9151 66.1227H73.4718V71.5894H78.9151V66.1227Z" fill="#243454"/>
    <path d="M78.9936 60.6558H73.3948V66.2787H78.9936V60.6558Z" fill="#243454"/>
    <path d="M78.9151 60.7338H73.4718V66.1224H78.9151V60.7338Z" fill="#243454"/>
    <path d="M73.5497 234.42H67.9509V240.043H73.5497V234.42Z" fill="#0A0F1A"/>
    <path d="M73.4723 234.498H68.0291V239.965H73.4723V234.498Z" fill="#0A0F1A"/>
    <path d="M73.5497 229.032H67.9509V234.655H73.5497V229.032Z" fill="#111724"/>
    <path d="M73.4723 229.11H68.0291V234.499H73.4723V229.11Z" fill="#111724"/>
    <path d="M73.5497 223.565H67.9509V229.188H73.5497V223.565Z" fill="#111724"/>
    <path d="M73.4723 223.643H68.0291V229.11H73.4723V223.643Z" fill="#111724"/>
    <path d="M73.5497 71.5112H67.9509V77.1342H73.5497V71.5112Z" fill="#131E33"/>
    <path d="M73.4723 71.5892H68.0291V77.056H73.4723V71.5892Z" fill="#131E33"/>
    <path d="M73.5497 66.0447H67.9509V71.6676H73.5497V66.0447Z" fill="#243454"/>
    <path d="M73.4723 66.1227H68.0291V71.5894H73.4723V66.1227Z" fill="#243454"/>
    <path d="M73.5497 60.6558H67.9509V66.2787H73.5497V60.6558Z" fill="#243454"/>
    <path d="M73.4723 60.7338H68.0291V66.1224H73.4723V60.7338Z" fill="#243454"/>
    <path d="M73.5497 55.1892H67.9509V60.8121H73.5497V55.1892Z" fill="#243454"/>
    <path d="M73.4723 55.2672H68.0291V60.734H73.4723V55.2672Z" fill="#243454"/>
    <path d="M73.5497 28.0894H67.9509V33.7123H73.5497V28.0894Z" fill="#F57E77"/>
    <path d="M73.4723 28.1677H68.0291V33.6345H73.4723V28.1677Z" fill="#F57E77"/>
    <path d="M73.5497 22.6228H67.9509V28.2458H73.5497V22.6228Z" fill="#FFE4CE"/>
    <path d="M73.4723 22.7008H68.0291V28.0895H73.4723V22.7008Z" fill="#FFE4CE"/>
    <path d="M73.5497 17.2344H67.9509V22.8573H73.5497V17.2344Z" fill="#3D041F"/>
    <path d="M73.4723 17.3124H68.0291V22.7791H73.4723V17.3124Z" fill="#3D041F"/>
    <path d="M68.1071 234.42H62.5083V240.043H68.1071V234.42Z" fill="#0A0F1A"/>
    <path d="M68.029 234.498H62.6635V239.965H68.029V234.498Z" fill="#0A0F1A"/>
    <path d="M68.1071 229.032H62.5083V234.655H68.1071V229.032Z" fill="#111724"/>
    <path d="M68.029 229.11H62.6635V234.499H68.029V229.11Z" fill="#111724"/>
    <path d="M68.1071 223.565H62.5083V229.188H68.1071V223.565Z" fill="#111724"/>
    <path d="M68.029 223.643H62.6635V229.11H68.029V223.643Z" fill="#111724"/>
    <path d="M68.1071 218.177H62.5083V223.799H68.1071V218.177Z" fill="#75184B"/>
    <path d="M68.029 218.255H62.6635V223.721H68.029V218.255Z" fill="#111724"/>
    <path d="M68.1071 212.71H62.5083V218.333H68.1071V212.71Z" fill="#243454"/>
    <path d="M68.029 212.788H62.6635V218.255H68.029V212.788Z" fill="#243454"/>
    <path d="M68.1071 207.321H62.5083V212.944H68.1071V207.321Z" fill="#243454"/>
    <path d="M68.029 207.399H62.6635V212.788H68.029V207.399Z" fill="#243454"/>
    <path d="M68.1071 201.854H62.5083V207.477H68.1071V201.854Z" fill="#243454"/>
    <path d="M68.029 201.932H62.6635V207.399H68.029V201.932Z" fill="#243454"/>
    <path d="M68.1071 196.388H62.5083V202.01H68.1071V196.388Z" fill="#243454"/>
    <path d="M68.029 196.466H62.6635V201.932H68.029V196.466Z" fill="#243454"/>
    <path d="M68.1071 190.999H62.5083V196.622H68.1071V190.999Z" fill="#243454"/>
    <path d="M68.029 191.077H62.6635V196.544H68.029V191.077Z" fill="#243454"/>
    <path d="M68.1071 185.532H62.5083V191.155H68.1071V185.532Z" fill="#243454"/>
    <path d="M68.029 185.61H62.6635V190.999H68.029V185.61Z" fill="#243454"/>
    <path d="M68.1071 180.144H62.5083V185.767H68.1071V180.144Z" fill="#243454"/>
    <path d="M68.029 180.222H62.6635V185.688H68.029V180.222Z" fill="#243454"/>
    <path d="M68.1071 174.677H62.5083V180.3H68.1071V174.677Z" fill="#243454"/>
    <path d="M68.029 174.755H62.6635V180.221H68.029V174.755Z" fill="#243454"/>
    <path d="M68.1071 169.288H62.5083V174.911H68.1071V169.288Z" fill="#243454"/>
    <path d="M68.029 169.366H62.6635V174.755H68.029V169.366Z" fill="#243454"/>
    <path d="M68.1071 163.821H62.5083V169.444H68.1071V163.821Z" fill="#243454"/>
    <path d="M68.029 163.899H62.6635V169.366H68.029V163.899Z" fill="#243454"/>
    <path d="M68.1071 158.433H62.5083V164.056H68.1071V158.433Z" fill="#243454"/>
    <path d="M68.029 158.511H62.6635V163.977H68.029V158.511Z" fill="#243454"/>
    <path d="M68.1071 152.966H62.5083V158.589H68.1071V152.966Z" fill="#243454"/>
    <path d="M68.029 153.044H62.6635V158.511H68.029V153.044Z" fill="#243454"/>
    <path d="M68.1071 147.577H62.5083V153.2H68.1071V147.577Z" fill="#243454"/>
    <path d="M68.029 147.655H62.6635V153.044H68.029V147.655Z" fill="#243454"/>
    <path d="M68.1071 142.111H62.5083V147.734H68.1071V142.111Z" fill="#243454"/>
    <path d="M68.029 142.189H62.6635V147.655H68.029V142.189Z" fill="#243454"/>
    <path d="M68.1071 136.644H62.5083V142.267H68.1071V136.644Z" fill="#243454"/>
    <path d="M68.029 136.722H62.6635V142.188H68.029V136.722Z" fill="#243454"/>
    <path d="M68.1071 131.255H62.5083V136.878H68.1071V131.255Z" fill="#243454"/>
    <path d="M68.029 131.333H62.6635V136.8H68.029V131.333Z" fill="#243454"/>
    <path d="M68.1071 125.788H62.5083V131.411H68.1071V125.788Z" fill="#131E33"/>
    <path d="M68.029 125.866H62.6635V131.255H68.029V125.866Z" fill="#131E33"/>
    <path d="M68.1071 120.4H62.5083V126.023H68.1071V120.4Z" fill="#0A0F1A"/>
    <path d="M68.029 120.478H62.6635V125.945H68.029V120.478Z" fill="#0A0F1A"/>
    <path d="M68.1071 114.933H62.5083V120.556H68.1071V114.933Z" fill="#131E33"/>
    <path d="M68.029 115.011H62.6635V120.478H68.029V115.011Z" fill="#131E33"/>
    <path d="M68.1071 109.544H62.5083V115.167H68.1071V109.544Z" fill="#131E33"/>
    <path d="M68.029 109.622H62.6635V115.089H68.029V109.622Z" fill="#131E33"/>
    <path d="M68.1071 104.078H62.5083V109.701H68.1071V104.078Z" fill="#131E33"/>
    <path d="M68.029 104.156H62.6635V109.544H68.029V104.156Z" fill="#131E33"/>
    <path d="M68.1071 98.6887H62.5083V104.312H68.1071V98.6887Z" fill="#131E33"/>
    <path d="M68.029 98.7668H62.6635V104.234H68.029V98.7668Z" fill="#131E33"/>
    <path d="M68.1071 93.2222H62.5083V98.8451H68.1071V93.2222Z" fill="#131E33"/>
    <path d="M68.029 93.3002H62.6635V98.7669H68.029V93.3002Z" fill="#131E33"/>
    <path d="M68.1071 87.8333H62.5083V93.4562H68.1071V87.8333Z" fill="#131E33"/>
    <path d="M68.029 87.9116H62.6635V93.3784H68.029V87.9116Z" fill="#131E33"/>
    <path d="M68.1071 82.3666H62.5083V87.9895H68.1071V82.3666Z" fill="#131E33"/>
    <path d="M68.029 82.4447H62.6635V87.8334H68.029V82.4447Z" fill="#131E33"/>
    <path d="M68.1071 76.8999H62.5083V82.5229H68.1071V76.8999Z" fill="#131E33"/>
    <path d="M68.029 77.0562H62.6635V82.5229H68.029V77.0562Z" fill="#131E33"/>
    <path d="M68.1071 71.5112H62.5083V77.1342H68.1071V71.5112Z" fill="#131E33"/>
    <path d="M68.029 71.5892H62.6635V77.056H68.029V71.5892Z" fill="#131E33"/>
    <path d="M68.1071 66.0447H62.5083V71.6676H68.1071V66.0447Z" fill="#243454"/>
    <path d="M68.029 66.1227H62.6635V71.5894H68.029V66.1227Z" fill="#243454"/>
    <path d="M68.1071 60.6558H62.5083V66.2787H68.1071V60.6558Z" fill="#374F80"/>
    <path d="M68.029 60.7338H62.6635V66.1224H68.029V60.7338Z" fill="#374F80"/>
    <path d="M68.1071 55.1892H62.5083V60.8121H68.1071V55.1892Z" fill="#374F80"/>
    <path d="M68.029 55.2672H62.6635V60.734H68.029V55.2672Z" fill="#374F80"/>
    <path d="M68.1071 33.4784H62.5083V39.1013H68.1071V33.4784Z" fill="#F57E77"/>
    <path d="M68.029 33.5563H62.6635V39.023H68.029V33.5563Z" fill="#F57E77"/>
    <path d="M68.1071 28.0894H62.5083V33.7123H68.1071V28.0894Z" fill="#FFE4CE"/>
    <path d="M68.029 28.1677H62.6635V33.6345H68.029V28.1677Z" fill="#FFE4CE"/>
    <path d="M68.1071 22.6228H62.5083V28.2458H68.1071V22.6228Z" fill="#3D041F"/>
    <path d="M68.029 22.7008H62.6635V28.0895H68.029V22.7008Z" fill="#3D041F"/>
    <path d="M68.1071 17.2344H62.5083V22.8573H68.1071V17.2344Z" fill="#3D041F"/>
    <path d="M68.029 17.3124H62.6635V22.7791H68.029V17.3124Z" fill="#3D041F"/>
    <path d="M68.1071 11.7673H62.5083V17.3903H68.1071V11.7673Z" fill="#621931"/>
    <path d="M68.029 11.8455H62.6635V17.3122H68.029V11.8455Z" fill="#621931"/>
    <path d="M68.1071 6.30078H62.5083V11.9237H68.1071V6.30078Z" fill="#621931"/>
    <path d="M68.029 6.37878H62.6635V11.8455H68.029V6.37878Z" fill="#621931"/>
    <path d="M62.7414 234.42H57.1426V240.043H62.7414V234.42Z" fill="#0A0F1A"/>
    <path d="M62.663 234.498H57.2197V239.965H62.663V234.498Z" fill="#0A0F1A"/>
    <path d="M62.7414 229.032H57.1426V234.655H62.7414V229.032Z" fill="#111724"/>
    <path d="M62.663 229.11H57.2197V234.499H62.663V229.11Z" fill="#111724"/>
    <path d="M62.7414 223.565H57.1426V229.188H62.7414V223.565Z" fill="#111724"/>
    <path d="M62.663 223.643H57.2197V229.11H62.663V223.643Z" fill="#111724"/>
    <path d="M62.7414 218.177H57.1426V223.799H62.7414V218.177Z" fill="#111724"/>
    <path d="M62.663 218.255H57.2197V223.721H62.663V218.255Z" fill="#111724"/>
    <path d="M62.7414 212.71H57.1426V218.333H62.7414V212.71Z" fill="#243454"/>
    <path d="M62.663 212.788H57.2197V218.255H62.663V212.788Z" fill="#243454"/>
    <path d="M62.7414 207.321H57.1426V212.944H62.7414V207.321Z" fill="#243454"/>
    <path d="M62.663 207.399H57.2197V212.788H62.663V207.399Z" fill="#243454"/>
    <path d="M62.7414 201.854H57.1426V207.477H62.7414V201.854Z" fill="#243454"/>
    <path d="M62.663 201.932H57.2197V207.399H62.663V201.932Z" fill="#243454"/>
    <path d="M62.7414 196.388H57.1426V202.01H62.7414V196.388Z" fill="#243454"/>
    <path d="M62.663 196.466H57.2197V201.932H62.663V196.466Z" fill="#243454"/>
    <path d="M62.7414 190.999H57.1426V196.622H62.7414V190.999Z" fill="#243454"/>
    <path d="M62.663 191.077H57.2197V196.544H62.663V191.077Z" fill="#243454"/>
    <path d="M62.7414 185.532H57.1426V191.155H62.7414V185.532Z" fill="#243454"/>
    <path d="M62.663 185.61H57.2197V190.999H62.663V185.61Z" fill="#243454"/>
    <path d="M62.7414 180.144H57.1426V185.767H62.7414V180.144Z" fill="#243454"/>
    <path d="M62.663 180.222H57.2197V185.688H62.663V180.222Z" fill="#243454"/>
    <path d="M62.7414 174.677H57.1426V180.3H62.7414V174.677Z" fill="#243454"/>
    <path d="M62.663 174.755H57.2197V180.221H62.663V174.755Z" fill="#243454"/>
    <path d="M62.7414 169.288H57.1426V174.911H62.7414V169.288Z" fill="#243454"/>
    <path d="M62.663 169.366H57.2197V174.755H62.663V169.366Z" fill="#243454"/>
    <path d="M62.7414 163.821H57.1426V169.444H62.7414V163.821Z" fill="#243454"/>
    <path d="M62.663 163.899H57.2197V169.366H62.663V163.899Z" fill="#243454"/>
    <path d="M62.7414 158.433H57.1426V164.056H62.7414V158.433Z" fill="#243454"/>
    <path d="M62.663 158.511H57.2197V163.977H62.663V158.511Z" fill="#243454"/>
    <path d="M62.7414 152.966H57.1426V158.589H62.7414V152.966Z" fill="#243454"/>
    <path d="M62.663 153.044H57.2197V158.511H62.663V153.044Z" fill="#243454"/>
    <path d="M62.7414 147.577H57.1426V153.2H62.7414V147.577Z" fill="#243454"/>
    <path d="M62.663 147.655H57.2197V153.044H62.663V147.655Z" fill="#243454"/>
    <path d="M62.7414 142.111H57.1426V147.734H62.7414V142.111Z" fill="#243454"/>
    <path d="M62.663 142.189H57.2197V147.655H62.663V142.189Z" fill="#243454"/>
    <path d="M62.7414 136.644H57.1426V142.267H62.7414V136.644Z" fill="#243454"/>
    <path d="M62.663 136.722H57.2197V142.188H62.663V136.722Z" fill="#243454"/>
    <path d="M62.7414 131.255H57.1426V136.878H62.7414V131.255Z" fill="#243454"/>
    <path d="M62.663 131.333H57.2197V136.8H62.663V131.333Z" fill="#243454"/>
    <path d="M62.7414 125.788H57.1426V131.411H62.7414V125.788Z" fill="#243454"/>
    <path d="M62.663 125.866H57.2197V131.255H62.663V125.866Z" fill="#243454"/>
    <path d="M62.7414 120.4H57.1426V126.023H62.7414V120.4Z" fill="#0A0F1A"/>
    <path d="M62.663 120.478H57.2197V125.945H62.663V120.478Z" fill="#0A0F1A"/>
    <path d="M62.7414 114.933H57.1426V120.556H62.7414V114.933Z" fill="#243454"/>
    <path d="M62.663 115.011H57.2197V120.478H62.663V115.011Z" fill="#243454"/>
    <path d="M62.7414 109.544H57.1426V115.167H62.7414V109.544Z" fill="#243454"/>
    <path d="M62.663 109.622H57.2197V115.089H62.663V109.622Z" fill="#243454"/>
    <path d="M62.7414 104.078H57.1426V109.701H62.7414V104.078Z" fill="#243454"/>
    <path d="M62.663 104.156H57.2197V109.544H62.663V104.156Z" fill="#243454"/>
    <path d="M62.7414 98.6887H57.1426V104.312H62.7414V98.6887Z" fill="#243454"/>
    <path d="M62.663 98.7668H57.2197V104.234H62.663V98.7668Z" fill="#243454"/>
    <path d="M62.7414 93.2222H57.1426V98.8451H62.7414V93.2222Z" fill="#243454"/>
    <path d="M62.663 93.3002H57.2197V98.7669H62.663V93.3002Z" fill="#243454"/>
    <path d="M62.7414 87.8333H57.1426V93.4562H62.7414V87.8333Z" fill="#243454"/>
    <path d="M62.663 87.9116H57.2197V93.3784H62.663V87.9116Z" fill="#243454"/>
    <path d="M62.7414 82.3666H57.1426V87.9895H62.7414V82.3666Z" fill="#243454"/>
    <path d="M62.663 82.4447H57.2197V87.8334H62.663V82.4447Z" fill="#243454"/>
    <path d="M62.7414 76.8999H57.1426V82.5229H62.7414V76.8999Z" fill="#243454"/>
    <path d="M62.663 77.0562H57.2197V82.5229H62.663V77.0562Z" fill="#243454"/>
    <path d="M62.7414 71.5112H57.1426V77.1342H62.7414V71.5112Z" fill="#374F80"/>
    <path d="M62.663 71.5892H57.2197V77.056H62.663V71.5892Z" fill="#374F80"/>
    <path d="M62.7414 66.0447H57.1426V71.6676H62.7414V66.0447Z" fill="#374F80"/>
    <path d="M62.663 66.1227H57.2197V71.5894H62.663V66.1227Z" fill="#374F80"/>
    <path d="M62.7414 60.6558H57.1426V66.2787H62.7414V60.6558Z" fill="white"/>
    <path d="M62.663 60.7338H57.2197V66.1224H62.663V60.7338Z" fill="white"/>
    <path d="M62.7414 55.1892H57.1426V60.8121H62.7414V55.1892Z" fill="#790E37"/>
    <path d="M62.663 55.2672H57.2197V60.734H62.663V55.2672Z" fill="#A3221D"/>
    <path d="M62.7414 49.8003H57.1426V55.4232H62.7414V49.8003Z" fill="white"/>
    <path d="M62.663 49.8784H57.2197V55.3452H62.663V49.8784Z" fill="white"/>
    <path d="M62.7414 38.9449H57.1426V44.5679H62.7414V38.9449Z" fill="#F57E77"/>
    <path d="M62.663 39.0233H57.2197V44.4901H62.663V39.0233Z" fill="#F57E77"/>
    <path d="M62.7414 33.4784H57.1426V39.1013H62.7414V33.4784Z" fill="#FFE4CE"/>
    <path d="M62.663 33.5563H57.2197V39.023H62.663V33.5563Z" fill="#FFE4CE"/>
    <path d="M62.7414 28.0894H57.1426V33.7123H62.7414V28.0894Z" fill="#FFE4CE"/>
    <path d="M62.663 28.1677H57.2197V33.6345H62.663V28.1677Z" fill="#FFE4CE"/>
    <path d="M62.7414 22.6228H57.1426V28.2458H62.7414V22.6228Z" fill="#FFE4CE"/>
    <path d="M62.663 22.7008H57.2197V28.0895H62.663V22.7008Z" fill="#FFE4CE"/>
    <path d="M62.7414 17.2344H57.1426V22.8573H62.7414V17.2344Z" fill="#FFE4CE"/>
    <path d="M62.663 17.3124H57.2197V22.7791H62.663V17.3124Z" fill="#FFE4CE"/>
    <path d="M62.7414 11.7673H57.1426V17.3903H62.7414V11.7673Z" fill="#3D041F"/>
    <path d="M62.663 11.8455H57.2197V17.3122H62.663V11.8455Z" fill="#3D041F"/>
    <path d="M62.7414 6.30078H57.1426V11.9237H62.7414V6.30078Z" fill="#621931"/>
    <path d="M62.663 6.37878H57.2197V11.8455H62.663V6.37878Z" fill="#621931"/>
    <path d="M62.7414 0.911987H57.1426V6.53492H62.7414V0.911987Z" fill="#621931"/>
    <path d="M62.663 0.990356H57.2197V6.37901H62.663V0.990356Z" fill="#621931"/>
    <path d="M57.2977 234.42H51.6989V240.043H57.2977V234.42Z" fill="#0A0F1A"/>
    <path d="M57.22 234.498H51.7767V239.965H57.22V234.498Z" fill="#0A0F1A"/>
    <path d="M57.2977 229.032H51.6989V234.655H57.2977V229.032Z" fill="#3D041F"/>
    <path d="M57.22 229.11H51.7767V234.499H57.22V229.11Z" fill="#111724"/>
    <path d="M57.2977 223.565H51.6989V229.188H57.2977V223.565Z" fill="#3D041F"/>
    <path d="M57.22 223.643H51.7767V229.11H57.22V223.643Z" fill="#111724"/>
    <path d="M57.2977 218.177H51.6989V223.799H57.2977V218.177Z" fill="#3D041F"/>
    <path d="M57.22 218.255H51.7767V223.721H57.22V218.255Z" fill="#111724"/>
    <path d="M57.2977 212.71H51.6989V218.333H57.2977V212.71Z" fill="#131E33"/>
    <path d="M57.22 212.788H51.7767V218.255H57.22V212.788Z" fill="#131E33"/>
    <path d="M57.2977 207.321H51.6989V212.944H57.2977V207.321Z" fill="#131E33"/>
    <path d="M57.22 207.399H51.7767V212.788H57.22V207.399Z" fill="#131E33"/>
    <path d="M57.2977 201.854H51.6989V207.477H57.2977V201.854Z" fill="#131E33"/>
    <path d="M57.22 201.932H51.7767V207.399H57.22V201.932Z" fill="#131E33"/>
    <path d="M57.2977 196.388H51.6989V202.01H57.2977V196.388Z" fill="#131E33"/>
    <path d="M57.22 196.466H51.7767V201.932H57.22V196.466Z" fill="#131E33"/>
    <path d="M57.2977 190.999H51.6989V196.622H57.2977V190.999Z" fill="#131E33"/>
    <path d="M57.22 191.077H51.7767V196.544H57.22V191.077Z" fill="#131E33"/>
    <path d="M57.2977 185.532H51.6989V191.155H57.2977V185.532Z" fill="#131E33"/>
    <path d="M57.22 185.61H51.7767V190.999H57.22V185.61Z" fill="#131E33"/>
    <path d="M57.2977 180.144H51.6989V185.767H57.2977V180.144Z" fill="#131E33"/>
    <path d="M57.22 180.222H51.7767V185.688H57.22V180.222Z" fill="#131E33"/>
    <path d="M57.2977 174.677H51.6989V180.3H57.2977V174.677Z" fill="#131E33"/>
    <path d="M57.22 174.755H51.7767V180.221H57.22V174.755Z" fill="#131E33"/>
    <path d="M57.2977 169.288H51.6989V174.911H57.2977V169.288Z" fill="#131E33"/>
    <path d="M57.22 169.366H51.7767V174.755H57.22V169.366Z" fill="#131E33"/>
    <path d="M57.2977 163.821H51.6989V169.444H57.2977V163.821Z" fill="#131E33"/>
    <path d="M57.22 163.899H51.7767V169.366H57.22V163.899Z" fill="#131E33"/>
    <path d="M57.2977 158.433H51.6989V164.056H57.2977V158.433Z" fill="#131E33"/>
    <path d="M57.22 158.511H51.7767V163.977H57.22V158.511Z" fill="#131E33"/>
    <path d="M57.2977 152.966H51.6989V158.589H57.2977V152.966Z" fill="#131E33"/>
    <path d="M57.22 153.044H51.7767V158.511H57.22V153.044Z" fill="#131E33"/>
    <path d="M57.2977 147.577H51.6989V153.2H57.2977V147.577Z" fill="#131E33"/>
    <path d="M57.22 147.655H51.7767V153.044H57.22V147.655Z" fill="#131E33"/>
    <path d="M57.2977 142.111H51.6989V147.734H57.2977V142.111Z" fill="#131E33"/>
    <path d="M57.22 142.189H51.7767V147.655H57.22V142.189Z" fill="#131E33"/>
    <path d="M57.2977 136.644H51.6989V142.267H57.2977V136.644Z" fill="#243454"/>
    <path d="M57.22 136.722H51.7767V142.188H57.22V136.722Z" fill="#243454"/>
    <path d="M57.2977 131.255H51.6989V136.878H57.2977V131.255Z" fill="#243454"/>
    <path d="M57.22 131.333H51.7767V136.8H57.22V131.333Z" fill="#243454"/>
    <path d="M57.2977 125.788H51.6989V131.411H57.2977V125.788Z" fill="#243454"/>
    <path d="M57.22 125.866H51.7767V131.255H57.22V125.866Z" fill="#243454"/>
    <path d="M57.2977 120.4H51.6989V126.023H57.2977V120.4Z" fill="#0A0F1A"/>
    <path d="M57.22 120.478H51.7767V125.945H57.22V120.478Z" fill="#0A0F1A"/>
    <path d="M57.2977 114.933H51.6989V120.556H57.2977V114.933Z" fill="#243454"/>
    <path d="M57.22 115.011H51.7767V120.478H57.22V115.011Z" fill="#243454"/>
    <path d="M57.2977 109.544H51.6989V115.167H57.2977V109.544Z" fill="#243454"/>
    <path d="M57.22 109.622H51.7767V115.089H57.22V109.622Z" fill="#243454"/>
    <path d="M57.2977 104.078H51.6989V109.701H57.2977V104.078Z" fill="#243454"/>
    <path d="M57.22 104.156H51.7767V109.544H57.22V104.156Z" fill="#243454"/>
    <path d="M57.2977 98.6887H51.6989V104.312H57.2977V98.6887Z" fill="#243454"/>
    <path d="M57.22 98.7668H51.7767V104.234H57.22V98.7668Z" fill="#243454"/>
    <path d="M57.2977 93.2222H51.6989V98.8451H57.2977V93.2222Z" fill="#243454"/>
    <path d="M57.22 93.3002H51.7767V98.7669H57.22V93.3002Z" fill="#243454"/>
    <path d="M57.2977 87.8333H51.6989V93.4562H57.2977V87.8333Z" fill="#243454"/>
    <path d="M57.22 87.9116H51.7767V93.3784H57.22V87.9116Z" fill="#243454"/>
    <path d="M57.2977 82.3666H51.6989V87.9895H57.2977V82.3666Z" fill="#243454"/>
    <path d="M57.22 82.4447H51.7767V87.8334H57.22V82.4447Z" fill="#243454"/>
    <path d="M57.2977 76.8999H51.6989V82.5229H57.2977V76.8999Z" fill="#374F80"/>
    <path d="M57.22 77.0562H51.7767V82.5229H57.22V77.0562Z" fill="#374F80"/>
    <path d="M57.2977 71.5112H51.6989V77.1342H57.2977V71.5112Z" fill="white"/>
    <path d="M57.22 71.5892H51.7767V77.056H57.22V71.5892Z" fill="white"/>
    <path d="M57.2977 66.0447H51.6989V71.6676H57.2977V66.0447Z" fill="white"/>
    <path d="M57.22 66.1227H51.7767V71.5894H57.22V66.1227Z" fill="white"/>
    <path d="M57.2977 60.6558H51.6989V66.2787H57.2977V60.6558Z" fill="#790E37"/>
    <path d="M57.22 60.7338H51.7767V66.1224H57.22V60.7338Z" fill="#A3221D"/>
    <path d="M57.2977 55.1892H51.6989V60.8121H57.2977V55.1892Z" fill="#F57E77"/>
    <path d="M57.22 55.2672H51.7767V60.734H57.22V55.2672Z" fill="#F57E77"/>
    <path d="M57.2977 49.8003H51.6989V55.4232H57.2977V49.8003Z" fill="#F57E77"/>
    <path d="M57.22 49.8784H51.7767V55.3452H57.22V49.8784Z" fill="#F57E77"/>
    <path d="M57.2977 44.3339H51.6989V49.9568H57.2977V44.3339Z" fill="#F57E77"/>
    <path d="M57.22 44.4117H51.7767V49.8004H57.22V44.4117Z" fill="#F57E77"/>
    <path d="M57.2977 38.9449H51.6989V44.5679H57.2977V38.9449Z" fill="#FFE4CE"/>
    <path d="M57.22 39.0233H51.7767V44.4901H57.22V39.0233Z" fill="#FFE4CE"/>
    <path d="M57.2977 33.4784H51.6989V39.1013H57.2977V33.4784Z" fill="#FFE4CE"/>
    <path d="M57.22 33.5563H51.7767V39.023H57.22V33.5563Z" fill="#FFE4CE"/>
    <path d="M57.2977 28.0894H51.6989V33.7123H57.2977V28.0894Z" fill="#FFE4CE"/>
    <path d="M57.22 28.1677H51.7767V33.6345H57.22V28.1677Z" fill="#FFE4CE"/>
    <path d="M57.2977 22.6228H51.6989V28.2458H57.2977V22.6228Z" fill="#66667C"/>
    <path d="M57.22 22.7008H51.7767V28.0895H57.22V22.7008Z" fill="#66667C"/>
    <path d="M57.2977 17.2344H51.6989V22.8573H57.2977V17.2344Z" fill="#FFE4CE"/>
    <path d="M57.22 17.3124H51.7767V22.7791H57.22V17.3124Z" fill="#FFE4CE"/>
    <path d="M57.2977 11.7673H51.6989V17.3903H57.2977V11.7673Z" fill="#FFE4CE"/>
    <path d="M57.22 11.8455H51.7767V17.3122H57.22V11.8455Z" fill="#FFE4CE"/>
    <path d="M57.2977 6.30078H51.6989V11.9237H57.2977V6.30078Z" fill="#3D041F"/>
    <path d="M57.22 6.37878H51.7767V11.8455H57.22V6.37878Z" fill="#3D041F"/>
    <path d="M57.2977 0.911987H51.6989V6.53492H57.2977V0.911987Z" fill="#621931"/>
    <path d="M57.22 0.990356H51.7767V6.37901H57.22V0.990356Z" fill="#621931"/>
    <path d="M51.9321 136.644H46.3333V142.267H51.9321V136.644Z" fill="#131E33"/>
    <path d="M51.8545 136.722H46.4113V142.188H51.8545V136.722Z" fill="#243454"/>
    <path d="M51.9321 131.255H46.3333V136.878H51.9321V131.255Z" fill="#131E33"/>
    <path d="M51.8545 131.333H46.4113V136.8H51.8545V131.333Z" fill="#243454"/>
    <path d="M51.9321 125.788H46.3333V131.411H51.9321V125.788Z" fill="#243454"/>
    <path d="M51.8545 125.866H46.4113V131.255H51.8545V125.866Z" fill="#243454"/>
    <path d="M51.9321 120.4H46.3333V126.023H51.9321V120.4Z" fill="#0A0F1A"/>
    <path d="M51.9321 114.933H46.3333V120.556H51.9321V114.933Z" fill="#243454"/>
    <path d="M51.8545 115.011H46.4113V120.478H51.8545V115.011Z" fill="#243454"/>
    <path d="M51.9321 109.544H46.3333V115.167H51.9321V109.544Z" fill="#243454"/>
    <path d="M51.8545 109.622H46.4113V115.089H51.8545V109.622Z" fill="#243454"/>
    <path d="M51.9321 104.078H46.3333V109.701H51.9321V104.078Z" fill="#243454"/>
    <path d="M51.8545 104.156H46.4113V109.544H51.8545V104.156Z" fill="#243454"/>
    <path d="M51.9321 98.6887H46.3333V104.312H51.9321V98.6887Z" fill="#243454"/>
    <path d="M51.8545 98.7668H46.4113V104.234H51.8545V98.7668Z" fill="#243454"/>
    <path d="M51.9321 93.2222H46.3333V98.8451H51.9321V93.2222Z" fill="#243454"/>
    <path d="M51.8545 93.3002H46.4113V98.7669H51.8545V93.3002Z" fill="#243454"/>
    <path d="M51.9321 87.8333H46.3333V93.4562H51.9321V87.8333Z" fill="#243454"/>
    <path d="M51.8545 87.9116H46.4113V93.3784H51.8545V87.9116Z" fill="#243454"/>
    <path d="M51.9321 82.3666H46.3333V87.9895H51.9321V82.3666Z" fill="#374F80"/>
    <path d="M51.8545 82.4447H46.4113V87.8334H51.8545V82.4447Z" fill="#374F80"/>
    <path d="M51.9321 76.8999H46.3333V82.5229H51.9321V76.8999Z" fill="#111724"/>
    <path d="M51.9321 71.5112H46.3333V77.1342H51.9321V71.5112Z" fill="#111724"/>
    <path d="M51.9321 66.0447H46.3333V71.6676H51.9321V66.0447Z" fill="#111724"/>
    <path d="M51.9321 60.6558H46.3333V66.2787H51.9321V60.6558Z" fill="#111724"/>
    <path d="M51.9321 55.1892H46.3333V60.8121H51.9321V55.1892Z" fill="#FFE4CE"/>
    <path d="M51.8545 55.2672H46.4113V60.734H51.8545V55.2672Z" fill="#FFE4CE"/>
    <path d="M51.9321 49.8003H46.3333V55.4232H51.9321V49.8003Z" fill="#FFE4CE"/>
    <path d="M51.8545 49.8784H46.4113V55.3452H51.8545V49.8784Z" fill="#FFE4CE"/>
    <path d="M51.9321 44.3339H46.3333V49.9568H51.9321V44.3339Z" fill="#F57E77"/>
    <path d="M51.8545 44.4117H46.4113V49.8004H51.8545V44.4117Z" fill="#F57E77"/>
    <path d="M51.9321 38.9449H46.3333V44.5679H51.9321V38.9449Z" fill="#FFE4CE"/>
    <path d="M51.8545 39.0233H46.4113V44.4901H51.8545V39.0233Z" fill="#FFE4CE"/>
    <path d="M51.9321 33.4784H46.3333V39.1013H51.9321V33.4784Z" fill="#FFE4CE"/>
    <path d="M51.8545 33.5563H46.4113V39.023H51.8545V33.5563Z" fill="#FFE4CE"/>
    <path d="M51.9321 28.0894H46.3333V33.7123H51.9321V28.0894Z" fill="#FFE4CE"/>
    <path d="M51.8545 28.1677H46.4113V33.6345H51.8545V28.1677Z" fill="#FFE4CE"/>
    <path d="M51.9321 22.6228H46.3333V28.2458H51.9321V22.6228Z" fill="#FFE4CE"/>
    <path d="M51.8545 22.7008H46.4113V28.0895H51.8545V22.7008Z" fill="#FFE4CE"/>
    <path d="M51.9321 17.2344H46.3333V22.8573H51.9321V17.2344Z" fill="#FFE4CE"/>
    <path d="M51.8545 17.3124H46.4113V22.7791H51.8545V17.3124Z" fill="#FFE4CE"/>
    <path d="M51.9321 11.7673H46.3333V17.3903H51.9321V11.7673Z" fill="#FFE4CE"/>
    <path d="M51.8545 11.8455H46.4113V17.3122H51.8545V11.8455Z" fill="#FFE4CE"/>
    <path d="M51.9321 6.30078H46.3333V11.9237H51.9321V6.30078Z" fill="#3D041F"/>
    <path d="M51.8545 6.37878H46.4113V11.8455H51.8545V6.37878Z" fill="#3D041F"/>
    <path d="M51.9321 0.911987H46.3333V6.53492H51.9321V0.911987Z" fill="#621931"/>
    <path d="M51.8545 0.990356H46.4113V6.37901H51.8545V0.990356Z" fill="#621931"/>
    <path d="M46.4892 234.42H40.8904V240.043H46.4892V234.42Z" fill="#0A0F1A"/>
    <path d="M46.3339 234.498H40.9684V239.965H46.3339V234.498Z" fill="#0A0F1A"/>
    <path d="M46.4892 229.032H40.8904V234.655H46.4892V229.032Z" fill="#3D041F"/>
    <path d="M46.3339 229.11H40.9684V234.499H46.3339V229.11Z" fill="#111724"/>
    <path d="M46.4892 223.565H40.8904V229.188H46.4892V223.565Z" fill="#3D041F"/>
    <path d="M46.3339 223.643H40.9684V229.11H46.3339V223.643Z" fill="#111724"/>
    <path d="M46.4892 218.177H40.8904V223.799H46.4892V218.177Z" fill="#3D041F"/>
    <path d="M46.3339 218.255H40.9684V223.721H46.3339V218.255Z" fill="#111724"/>
    <path d="M46.4892 212.71H40.8904V218.333H46.4892V212.71Z" fill="#131E33"/>
    <path d="M46.3339 212.788H40.9684V218.255H46.3339V212.788Z" fill="#131E33"/>
    <path d="M46.4892 207.321H40.8904V212.944H46.4892V207.321Z" fill="#131E33"/>
    <path d="M46.3339 207.399H40.9684V212.788H46.3339V207.399Z" fill="#131E33"/>
    <path d="M46.4892 201.854H40.8904V207.477H46.4892V201.854Z" fill="#131E33"/>
    <path d="M46.3339 201.932H40.9684V207.399H46.3339V201.932Z" fill="#131E33"/>
    <path d="M46.4892 196.388H40.8904V202.01H46.4892V196.388Z" fill="#131E33"/>
    <path d="M46.3339 196.466H40.9684V201.932H46.3339V196.466Z" fill="#131E33"/>
    <path d="M46.4892 190.999H40.8904V196.622H46.4892V190.999Z" fill="#131E33"/>
    <path d="M46.3339 191.077H40.9684V196.544H46.3339V191.077Z" fill="#131E33"/>
    <path d="M46.4892 185.532H40.8904V191.155H46.4892V185.532Z" fill="#131E33"/>
    <path d="M46.3339 185.61H40.9684V190.999H46.3339V185.61Z" fill="#131E33"/>
    <path d="M46.4892 180.144H40.8904V185.767H46.4892V180.144Z" fill="#131E33"/>
    <path d="M46.3339 180.222H40.9684V185.688H46.3339V180.222Z" fill="#131E33"/>
    <path d="M46.4892 174.677H40.8904V180.3H46.4892V174.677Z" fill="#131E33"/>
    <path d="M46.3339 174.755H40.9684V180.221H46.3339V174.755Z" fill="#131E33"/>
    <path d="M46.4892 169.288H40.8904V174.911H46.4892V169.288Z" fill="#131E33"/>
    <path d="M46.3339 169.366H40.9684V174.755H46.3339V169.366Z" fill="#131E33"/>
    <path d="M46.4892 163.821H40.8904V169.444H46.4892V163.821Z" fill="#131E33"/>
    <path d="M46.3339 163.899H40.9684V169.366H46.3339V163.899Z" fill="#131E33"/>
    <path d="M46.4892 158.433H40.8904V164.056H46.4892V158.433Z" fill="#131E33"/>
    <path d="M46.3339 158.511H40.9684V163.977H46.3339V158.511Z" fill="#131E33"/>
    <path d="M46.4892 152.966H40.8904V158.589H46.4892V152.966Z" fill="#131E33"/>
    <path d="M46.3339 153.044H40.9684V158.511H46.3339V153.044Z" fill="#131E33"/>
    <path d="M46.4892 147.577H40.8904V153.2H46.4892V147.577Z" fill="#131E33"/>
    <path d="M46.3339 147.655H40.9684V153.044H46.3339V147.655Z" fill="#131E33"/>
    <path d="M46.4892 142.111H40.8904V147.734H46.4892V142.111Z" fill="#131E33"/>
    <path d="M46.3339 142.189H40.9684V147.655H46.3339V142.189Z" fill="#131E33"/>
    <path d="M46.4892 136.644H40.8904V142.267H46.4892V136.644Z" fill="#243454"/>
    <path d="M46.3339 136.722H40.9684V142.188H46.3339V136.722Z" fill="#243454"/>
    <path d="M46.4892 131.255H40.8904V136.878H46.4892V131.255Z" fill="#243454"/>
    <path d="M46.3339 131.333H40.9684V136.8H46.3339V131.333Z" fill="#243454"/>
    <path d="M46.4892 125.788H40.8904V131.411H46.4892V125.788Z" fill="#243454"/>
    <path d="M46.3339 125.866H40.9684V131.255H46.3339V125.866Z" fill="#243454"/>
    <path d="M46.4892 120.4H40.8904V126.023H46.4892V120.4Z" fill="#0A0F1A"/>
    <path d="M46.3339 120.478H40.9684V125.945H46.3339V120.478Z" fill="#0A0F1A"/>
    <path d="M46.4892 114.933H40.8904V120.556H46.4892V114.933Z" fill="#243454"/>
    <path d="M46.3339 115.011H40.9684V120.478H46.3339V115.011Z" fill="#243454"/>
    <path d="M46.4892 109.544H40.8904V115.167H46.4892V109.544Z" fill="#243454"/>
    <path d="M46.3339 109.622H40.9684V115.089H46.3339V109.622Z" fill="#243454"/>
    <path d="M46.4892 104.078H40.8904V109.701H46.4892V104.078Z" fill="#243454"/>
    <path d="M46.3339 104.156H40.9684V109.544H46.3339V104.156Z" fill="#243454"/>
    <path d="M46.4892 98.6887H40.8904V104.312H46.4892V98.6887Z" fill="#243454"/>
    <path d="M46.3339 98.7668H40.9684V104.234H46.3339V98.7668Z" fill="#243454"/>
    <path d="M46.4892 93.2222H40.8904V98.8451H46.4892V93.2222Z" fill="#243454"/>
    <path d="M46.3339 93.3002H40.9684V98.7669H46.3339V93.3002Z" fill="#243454"/>
    <path d="M46.4892 87.8333H40.8904V93.4562H46.4892V87.8333Z" fill="#243454"/>
    <path d="M46.3339 87.9116H40.9684V93.3784H46.3339V87.9116Z" fill="#243454"/>
    <path d="M46.4892 82.3666H40.8904V87.9895H46.4892V82.3666Z" fill="#243454"/>
    <path d="M46.3339 82.4447H40.9684V87.8334H46.3339V82.4447Z" fill="#243454"/>
    <path d="M46.4892 76.8999H40.8904V82.5229H46.4892V76.8999Z" fill="#374F80"/>
    <path d="M46.3339 77.0562H40.9684V82.5229H46.3339V77.0562Z" fill="#374F80"/>
    <path d="M46.4892 71.5112H40.8904V77.1342H46.4892V71.5112Z" fill="white"/>
    <path d="M46.3339 71.5892H40.9684V77.056H46.3339V71.5892Z" fill="white"/>
    <path d="M46.4892 66.0447H40.8904V71.6676H46.4892V66.0447Z" fill="white"/>
    <path d="M46.3339 66.1227H40.9684V71.5894H46.3339V66.1227Z" fill="white"/>
    <path d="M46.4892 60.6558H40.8904V66.2787H46.4892V60.6558Z" fill="#790E37"/>
    <path d="M46.4892 55.1892H40.8904V60.8121H46.4892V55.1892Z" fill="#FFE4CE"/>
    <path d="M46.3339 55.2672H40.9684V60.734H46.3339V55.2672Z" fill="#FFE4CE"/>
    <path d="M46.4892 49.8003H40.8904V55.4232H46.4892V49.8003Z" fill="#FFE4CE"/>
    <path d="M46.3339 49.8784H40.9684V55.3452H46.3339V49.8784Z" fill="#FFE4CE"/>
    <path d="M46.4892 44.3339H40.8904V49.9568H46.4892V44.3339Z" fill="#F57E77"/>
    <path d="M46.3339 44.4117H40.9684V49.8004H46.3339V44.4117Z" fill="#F57E77"/>
    <path d="M46.4892 38.9449H40.8904V44.5679H46.4892V38.9449Z" fill="#FFE4CE"/>
    <path d="M46.3339 39.0233H40.9684V44.4901H46.3339V39.0233Z" fill="#FFE4CE"/>
    <path d="M46.4892 33.4784H40.8904V39.1013H46.4892V33.4784Z" fill="#FFE4CE"/>
    <path d="M46.3339 33.5563H40.9684V39.023H46.3339V33.5563Z" fill="#FFE4CE"/>
    <path d="M46.4892 28.0894H40.8904V33.7123H46.4892V28.0894Z" fill="#FFE4CE"/>
    <path d="M46.3339 28.1677H40.9684V33.6345H46.3339V28.1677Z" fill="#FFE4CE"/>
    <path d="M46.4892 22.6228H40.8904V28.2458H46.4892V22.6228Z" fill="#66667C"/>
    <path d="M46.3339 22.7008H40.9684V28.0895H46.3339V22.7008Z" fill="#66667C"/>
    <path d="M46.4892 17.2344H40.8904V22.8573H46.4892V17.2344Z" fill="#FFE4CE"/>
    <path d="M46.3339 17.3124H40.9684V22.7791H46.3339V17.3124Z" fill="#FFE4CE"/>
    <path d="M46.4892 11.7673H40.8904V17.3903H46.4892V11.7673Z" fill="#3D041F"/>
    <path d="M46.3339 11.8455H40.9684V17.3122H46.3339V11.8455Z" fill="#3D041F"/>
    <path d="M46.4892 6.30078H40.8904V11.9237H46.4892V6.30078Z" fill="#621931"/>
    <path d="M46.3339 6.37878H40.9684V11.8455H46.3339V6.37878Z" fill="#621931"/>
    <path d="M46.4892 0.911987H40.8904V6.53492H46.4892V0.911987Z" fill="#621931"/>
    <path d="M46.3339 0.990356H40.9684V6.37901H46.3339V0.990356Z" fill="#621931"/>
    <path d="M41.1236 234.42H35.5248V240.043H41.1236V234.42Z" fill="#0A0F1A"/>
    <path d="M41.0452 234.498H35.6019V239.965H41.0452V234.498Z" fill="#0A0F1A"/>
    <path d="M41.1236 229.032H35.5248V234.655H41.1236V229.032Z" fill="#111724"/>
    <path d="M41.0452 229.11H35.6019V234.499H41.0452V229.11Z" fill="#111724"/>
    <path d="M41.1236 223.565H35.5248V229.188H41.1236V223.565Z" fill="#111724"/>
    <path d="M41.0452 223.643H35.6019V229.11H41.0452V223.643Z" fill="#111724"/>
    <path d="M41.1236 218.177H35.5248V223.799H41.1236V218.177Z" fill="#111724"/>
    <path d="M41.0452 218.255H35.6019V223.721H41.0452V218.255Z" fill="#111724"/>
    <path d="M41.1236 212.71H35.5248V218.333H41.1236V212.71Z" fill="#243454"/>
    <path d="M41.0452 212.788H35.6019V218.255H41.0452V212.788Z" fill="#243454"/>
    <path d="M41.1236 207.321H35.5248V212.944H41.1236V207.321Z" fill="#243454"/>
    <path d="M41.0452 207.399H35.6019V212.788H41.0452V207.399Z" fill="#243454"/>
    <path d="M41.1236 201.854H35.5248V207.477H41.1236V201.854Z" fill="#243454"/>
    <path d="M41.0452 201.932H35.6019V207.399H41.0452V201.932Z" fill="#243454"/>
    <path d="M41.1236 196.388H35.5248V202.01H41.1236V196.388Z" fill="#243454"/>
    <path d="M41.0452 196.466H35.6019V201.932H41.0452V196.466Z" fill="#243454"/>
    <path d="M41.1236 190.999H35.5248V196.622H41.1236V190.999Z" fill="#243454"/>
    <path d="M41.0452 191.077H35.6019V196.544H41.0452V191.077Z" fill="#243454"/>
    <path d="M41.1236 185.532H35.5248V191.155H41.1236V185.532Z" fill="#243454"/>
    <path d="M41.0452 185.61H35.6019V190.999H41.0452V185.61Z" fill="#243454"/>
    <path d="M41.1236 180.144H35.5248V185.767H41.1236V180.144Z" fill="#243454"/>
    <path d="M41.0452 180.222H35.6019V185.688H41.0452V180.222Z" fill="#243454"/>
    <path d="M41.1236 174.677H35.5248V180.3H41.1236V174.677Z" fill="#243454"/>
    <path d="M41.0452 174.755H35.6019V180.221H41.0452V174.755Z" fill="#243454"/>
    <path d="M41.1236 169.288H35.5248V174.911H41.1236V169.288Z" fill="#243454"/>
    <path d="M41.0452 169.366H35.6019V174.755H41.0452V169.366Z" fill="#243454"/>
    <path d="M41.1236 163.821H35.5248V169.444H41.1236V163.821Z" fill="#243454"/>
    <path d="M41.0452 163.899H35.6019V169.366H41.0452V163.899Z" fill="#243454"/>
    <path d="M41.1236 158.433H35.5248V164.056H41.1236V158.433Z" fill="#243454"/>
    <path d="M41.0452 158.511H35.6019V163.977H41.0452V158.511Z" fill="#243454"/>
    <path d="M41.1236 152.966H35.5248V158.589H41.1236V152.966Z" fill="#243454"/>
    <path d="M41.0452 153.044H35.6019V158.511H41.0452V153.044Z" fill="#243454"/>
    <path d="M41.1236 147.577H35.5248V153.2H41.1236V147.577Z" fill="#243454"/>
    <path d="M41.0452 147.655H35.6019V153.044H41.0452V147.655Z" fill="#243454"/>
    <path d="M41.1236 142.111H35.5248V147.734H41.1236V142.111Z" fill="#243454"/>
    <path d="M41.0452 142.189H35.6019V147.655H41.0452V142.189Z" fill="#243454"/>
    <path d="M41.1236 136.644H35.5248V142.267H41.1236V136.644Z" fill="#243454"/>
    <path d="M41.0452 136.722H35.6019V142.188H41.0452V136.722Z" fill="#243454"/>
    <path d="M41.1236 131.255H35.5248V136.878H41.1236V131.255Z" fill="#243454"/>
    <path d="M41.0452 131.333H35.6019V136.8H41.0452V131.333Z" fill="#243454"/>
    <path d="M41.1236 125.788H35.5248V131.411H41.1236V125.788Z" fill="#243454"/>
    <path d="M41.0452 125.866H35.6019V131.255H41.0452V125.866Z" fill="#243454"/>
    <path d="M41.1236 120.4H35.5248V126.023H41.1236V120.4Z" fill="#0A0F1A"/>
    <path d="M41.0452 120.478H35.6019V125.945H41.0452V120.478Z" fill="#0A0F1A"/>
    <path d="M41.1236 114.933H35.5248V120.556H41.1236V114.933Z" fill="#243454"/>
    <path d="M41.0452 115.011H35.6019V120.478H41.0452V115.011Z" fill="#243454"/>
    <path d="M41.1236 109.544H35.5248V115.167H41.1236V109.544Z" fill="#243454"/>
    <path d="M41.0452 109.622H35.6019V115.089H41.0452V109.622Z" fill="#243454"/>
    <path d="M41.1236 104.078H35.5248V109.701H41.1236V104.078Z" fill="#243454"/>
    <path d="M41.0452 104.156H35.6019V109.544H41.0452V104.156Z" fill="#243454"/>
    <path d="M41.1236 98.6887H35.5248V104.312H41.1236V98.6887Z" fill="#243454"/>
    <path d="M41.0452 98.7668H35.6019V104.234H41.0452V98.7668Z" fill="#243454"/>
    <path d="M41.1236 93.2222H35.5248V98.8451H41.1236V93.2222Z" fill="#243454"/>
    <path d="M41.0452 93.3002H35.6019V98.7669H41.0452V93.3002Z" fill="#243454"/>
    <path d="M41.1236 87.8333H35.5248V93.4562H41.1236V87.8333Z" fill="#243454"/>
    <path d="M41.0452 87.9116H35.6019V93.3784H41.0452V87.9116Z" fill="#243454"/>
    <path d="M41.1236 82.3666H35.5248V87.9895H41.1236V82.3666Z" fill="#243454"/>
    <path d="M41.0452 82.4447H35.6019V87.8334H41.0452V82.4447Z" fill="#243454"/>
    <path d="M41.1236 76.8999H35.5248V82.5229H41.1236V76.8999Z" fill="#243454"/>
    <path d="M41.0452 77.0562H35.6019V82.5229H41.0452V77.0562Z" fill="#243454"/>
    <path d="M41.1236 71.5112H35.5248V77.1342H41.1236V71.5112Z" fill="#374F80"/>
    <path d="M41.0452 71.5892H35.6019V77.056H41.0452V71.5892Z" fill="#374F80"/>
    <path d="M41.1236 66.0447H35.5248V71.6676H41.1236V66.0447Z" fill="#374F80"/>
    <path d="M41.0452 66.1227H35.6019V71.5894H41.0452V66.1227Z" fill="#374F80"/>
    <path d="M41.1236 60.6558H35.5248V66.2787H41.1236V60.6558Z" fill="white"/>
    <path d="M41.0452 60.7338H35.6019V66.1224H41.0452V60.7338Z" fill="white"/>
    <path d="M41.1236 55.1892H35.5248V60.8121H41.1236V55.1892Z" fill="#790E37"/>
    <path d="M51.8554 77.0563H46.4121V82.523H51.8554V77.0563Z" fill="#E4352F"/>
    <path d="M51.8554 71.5891H46.4121V77.0559H51.8554V71.5891Z" fill="#E4352F"/>
    <path d="M51.8554 66.1228H46.4121V71.5896H51.8554V66.1228Z" fill="#E4352F"/>
    <path d="M51.8554 60.734H46.4121V66.1227H51.8554V60.734Z" fill="#E4352F"/>
    <path d="M46.3339 60.734H40.9684V66.1227H46.3339V60.734Z" fill="#A3221D"/>
    <path d="M41.046 55.2673H35.6027V60.7341H41.046V55.2673Z" fill="#A3221D"/>
    <path d="M41.1236 49.8003H35.5248V55.4232H41.1236V49.8003Z" fill="white"/>
    <path d="M41.0452 49.8784H35.6019V55.3452H41.0452V49.8784Z" fill="white"/>
    <path d="M41.1236 38.9449H35.5248V44.5679H41.1236V38.9449Z" fill="#FFE4CE"/>
    <path d="M41.0452 39.0233H35.6019V44.4901H41.0452V39.0233Z" fill="#FFE4CE"/>
    <path d="M41.1236 33.4784H35.5248V39.1013H41.1236V33.4784Z" fill="#FFE4CE"/>
    <path d="M41.0452 33.5563H35.6019V39.023H41.0452V33.5563Z" fill="#FFE4CE"/>
    <path d="M41.1236 28.0894H35.5248V33.7123H41.1236V28.0894Z" fill="#FFE4CE"/>
    <path d="M41.0452 28.1677H35.6019V33.6345H41.0452V28.1677Z" fill="#FFE4CE"/>
    <path d="M41.1236 22.6228H35.5248V28.2458H41.1236V22.6228Z" fill="#FFE4CE"/>
    <path d="M41.0452 22.7008H35.6019V28.0895H41.0452V22.7008Z" fill="#FFE4CE"/>
    <path d="M41.1236 17.2344H35.5248V22.8573H41.1236V17.2344Z" fill="#FFE4CE"/>
    <path d="M41.0452 17.3124H35.6019V22.7791H41.0452V17.3124Z" fill="#FFE4CE"/>
    <path d="M41.1236 11.7673H35.5248V17.3903H41.1236V11.7673Z" fill="#3D041F"/>
    <path d="M41.0452 11.8455H35.6019V17.3122H41.0452V11.8455Z" fill="#3D041F"/>
    <path d="M41.1236 6.30078H35.5248V11.9237H41.1236V6.30078Z" fill="#621931"/>
    <path d="M41.0452 6.37878H35.6019V11.8455H41.0452V6.37878Z" fill="#621931"/>
    <path d="M41.1236 0.911987H35.5248V6.53492H41.1236V0.911987Z" fill="#621931"/>
    <path d="M41.0452 0.990356H35.6019V6.37901H41.0452V0.990356Z" fill="#621931"/>
    <path d="M35.6806 234.42H30.0818V240.043H35.6806V234.42Z" fill="#0A0F1A"/>
    <path d="M35.6024 234.498H30.1591V239.965H35.6024V234.498Z" fill="#0A0F1A"/>
    <path d="M35.6806 229.032H30.0818V234.655H35.6806V229.032Z" fill="#111724"/>
    <path d="M35.6024 229.11H30.1591V234.499H35.6024V229.11Z" fill="#111724"/>
    <path d="M35.6806 223.565H30.0818V229.188H35.6806V223.565Z" fill="#111724"/>
    <path d="M35.6024 223.643H30.1591V229.11H35.6024V223.643Z" fill="#111724"/>
    <path d="M35.6806 218.177H30.0818V223.799H35.6806V218.177Z" fill="#75184B"/>
    <path d="M35.6024 218.255H30.1591V223.721H35.6024V218.255Z" fill="#111724"/>
    <path d="M35.6806 212.71H30.0818V218.333H35.6806V212.71Z" fill="#243454"/>
    <path d="M35.6024 212.788H30.1591V218.255H35.6024V212.788Z" fill="#243454"/>
    <path d="M35.6806 207.321H30.0818V212.944H35.6806V207.321Z" fill="#243454"/>
    <path d="M35.6024 207.399H30.1591V212.788H35.6024V207.399Z" fill="#243454"/>
    <path d="M35.6806 201.854H30.0818V207.477H35.6806V201.854Z" fill="#243454"/>
    <path d="M35.6024 201.932H30.1591V207.399H35.6024V201.932Z" fill="#243454"/>
    <path d="M35.6806 196.388H30.0818V202.01H35.6806V196.388Z" fill="#243454"/>
    <path d="M35.6024 196.466H30.1591V201.932H35.6024V196.466Z" fill="#243454"/>
    <path d="M35.6806 190.999H30.0818V196.622H35.6806V190.999Z" fill="#243454"/>
    <path d="M35.6024 191.077H30.1591V196.544H35.6024V191.077Z" fill="#243454"/>
    <path d="M35.6806 185.532H30.0818V191.155H35.6806V185.532Z" fill="#243454"/>
    <path d="M35.6024 185.61H30.1591V190.999H35.6024V185.61Z" fill="#243454"/>
    <path d="M35.6806 180.144H30.0818V185.767H35.6806V180.144Z" fill="#243454"/>
    <path d="M35.6024 180.222H30.1591V185.688H35.6024V180.222Z" fill="#243454"/>
    <path d="M35.6806 174.677H30.0818V180.3H35.6806V174.677Z" fill="#243454"/>
    <path d="M35.6024 174.755H30.1591V180.221H35.6024V174.755Z" fill="#243454"/>
    <path d="M35.6806 169.288H30.0818V174.911H35.6806V169.288Z" fill="#243454"/>
    <path d="M35.6024 169.366H30.1591V174.755H35.6024V169.366Z" fill="#243454"/>
    <path d="M35.6806 163.821H30.0818V169.444H35.6806V163.821Z" fill="#243454"/>
    <path d="M35.6024 163.899H30.1591V169.366H35.6024V163.899Z" fill="#243454"/>
    <path d="M35.6806 158.433H30.0818V164.056H35.6806V158.433Z" fill="#243454"/>
    <path d="M35.6024 158.511H30.1591V163.977H35.6024V158.511Z" fill="#243454"/>
    <path d="M35.6806 152.966H30.0818V158.589H35.6806V152.966Z" fill="#243454"/>
    <path d="M35.6024 153.044H30.1591V158.511H35.6024V153.044Z" fill="#243454"/>
    <path d="M35.6806 147.577H30.0818V153.2H35.6806V147.577Z" fill="#243454"/>
    <path d="M35.6024 147.655H30.1591V153.044H35.6024V147.655Z" fill="#243454"/>
    <path d="M35.6806 142.111H30.0818V147.734H35.6806V142.111Z" fill="#243454"/>
    <path d="M35.6024 142.189H30.1591V147.655H35.6024V142.189Z" fill="#243454"/>
    <path d="M35.6806 136.644H30.0818V142.267H35.6806V136.644Z" fill="#243454"/>
    <path d="M35.6024 136.722H30.1591V142.188H35.6024V136.722Z" fill="#243454"/>
    <path d="M35.6806 131.255H30.0818V136.878H35.6806V131.255Z" fill="#243454"/>
    <path d="M35.6024 131.333H30.1591V136.8H35.6024V131.333Z" fill="#243454"/>
    <path d="M35.6806 125.788H30.0818V131.411H35.6806V125.788Z" fill="#131E33"/>
    <path d="M35.6024 125.866H30.1591V131.255H35.6024V125.866Z" fill="#131E33"/>
    <path d="M35.6806 120.4H30.0818V126.023H35.6806V120.4Z" fill="#0A0F1A"/>
    <path d="M35.6024 120.478H30.1591V125.945H35.6024V120.478Z" fill="#0A0F1A"/>
    <path d="M35.6806 114.933H30.0818V120.556H35.6806V114.933Z" fill="#131E33"/>
    <path d="M35.6024 115.011H30.1591V120.478H35.6024V115.011Z" fill="#131E33"/>
    <path d="M35.6806 109.544H30.0818V115.167H35.6806V109.544Z" fill="#131E33"/>
    <path d="M35.6024 109.622H30.1591V115.089H35.6024V109.622Z" fill="#131E33"/>
    <path d="M35.6806 104.078H30.0818V109.701H35.6806V104.078Z" fill="#131E33"/>
    <path d="M35.6024 104.156H30.1591V109.544H35.6024V104.156Z" fill="#131E33"/>
    <path d="M35.6806 98.6887H30.0818V104.312H35.6806V98.6887Z" fill="#131E33"/>
    <path d="M35.6024 98.7668H30.1591V104.234H35.6024V98.7668Z" fill="#131E33"/>
    <path d="M35.6806 93.2222H30.0818V98.8451H35.6806V93.2222Z" fill="#131E33"/>
    <path d="M35.6024 93.3002H30.1591V98.7669H35.6024V93.3002Z" fill="#131E33"/>
    <path d="M35.6806 87.8333H30.0818V93.4562H35.6806V87.8333Z" fill="#131E33"/>
    <path d="M35.6024 87.9116H30.1591V93.3784H35.6024V87.9116Z" fill="#131E33"/>
    <path d="M35.6806 82.3666H30.0818V87.9895H35.6806V82.3666Z" fill="#131E33"/>
    <path d="M35.6024 82.4447H30.1591V87.8334H35.6024V82.4447Z" fill="#131E33"/>
    <path d="M35.6806 76.8999H30.0818V82.5229H35.6806V76.8999Z" fill="#131E33"/>
    <path d="M35.6024 77.0562H30.1591V82.5229H35.6024V77.0562Z" fill="#131E33"/>
    <path d="M35.6806 71.5112H30.0818V77.1342H35.6806V71.5112Z" fill="#243454"/>
    <path d="M35.6024 71.5892H30.1591V77.056H35.6024V71.5892Z" fill="#243454"/>
    <path d="M35.6806 66.0447H30.0818V71.6676H35.6806V66.0447Z" fill="#243454"/>
    <path d="M35.6024 66.1227H30.1591V71.5894H35.6024V66.1227Z" fill="#243454"/>
    <path d="M35.6806 60.6558H30.0818V66.2787H35.6806V60.6558Z" fill="#374F80"/>
    <path d="M35.6024 60.7338H30.1591V66.1224H35.6024V60.7338Z" fill="#374F80"/>
    <path d="M35.6806 55.1892H30.0818V60.8121H35.6806V55.1892Z" fill="#374F80"/>
    <path d="M35.6024 55.2672H30.1591V60.734H35.6024V55.2672Z" fill="#374F80"/>
    <path d="M35.6806 33.4784H30.0818V39.1013H35.6806V33.4784Z" fill="#F57E77"/>
    <path d="M35.6024 33.5563H30.1591V39.023H35.6024V33.5563Z" fill="#F57E77"/>
    <path d="M35.6806 28.0894H30.0818V33.7123H35.6806V28.0894Z" fill="#FFE4CE"/>
    <path d="M35.6024 28.1677H30.1591V33.6345H35.6024V28.1677Z" fill="#FFE4CE"/>
    <path d="M35.6806 22.6228H30.0818V28.2458H35.6806V22.6228Z" fill="#3D041F"/>
    <path d="M35.6024 22.7008H30.1591V28.0895H35.6024V22.7008Z" fill="#3D041F"/>
    <path d="M35.6806 17.2344H30.0818V22.8573H35.6806V17.2344Z" fill="#3D041F"/>
    <path d="M35.6024 17.3124H30.1591V22.7791H35.6024V17.3124Z" fill="#3D041F"/>
    <path d="M35.6806 11.7673H30.0818V17.3903H35.6806V11.7673Z" fill="#621931"/>
    <path d="M35.6024 11.8455H30.1591V17.3122H35.6024V11.8455Z" fill="#621931"/>
    <path d="M35.6806 6.30078H30.0818V11.9237H35.6806V6.30078Z" fill="#621931"/>
    <path d="M35.6024 6.37878H30.1591V11.8455H35.6024V6.37878Z" fill="#621931"/>
    <path d="M30.3143 234.42H24.7155V240.043H30.3143V234.42Z" fill="#0A0F1A"/>
    <path d="M30.2366 234.498H24.7933V239.965H30.2366V234.498Z" fill="#0A0F1A"/>
    <path d="M30.3143 229.032H24.7155V234.655H30.3143V229.032Z" fill="#111724"/>
    <path d="M30.2366 229.11H24.7933V234.499H30.2366V229.11Z" fill="#111724"/>
    <path d="M30.3143 223.565H24.7155V229.188H30.3143V223.565Z" fill="#111724"/>
    <path d="M30.2366 223.643H24.7933V229.11H30.2366V223.643Z" fill="#111724"/>
    <path d="M30.3143 71.5112H24.7155V77.1342H30.3143V71.5112Z" fill="#131E33"/>
    <path d="M30.2366 71.5892H24.7933V77.056H30.2366V71.5892Z" fill="#131E33"/>
    <path d="M30.3143 66.0447H24.7155V71.6676H30.3143V66.0447Z" fill="#243454"/>
    <path d="M30.2366 66.1227H24.7933V71.5894H30.2366V66.1227Z" fill="#243454"/>
    <path d="M30.3143 60.6558H24.7155V66.2787H30.3143V60.6558Z" fill="#243454"/>
    <path d="M30.2366 60.7338H24.7933V66.1224H30.2366V60.7338Z" fill="#243454"/>
    <path d="M30.3143 55.1892H24.7155V60.8121H30.3143V55.1892Z" fill="#243454"/>
    <path d="M30.2366 55.2672H24.7933V60.734H30.2366V55.2672Z" fill="#243454"/>
    <path d="M30.3143 28.0894H24.7155V33.7123H30.3143V28.0894Z" fill="#F57E77"/>
    <path d="M30.2366 28.1677H24.7933V33.6345H30.2366V28.1677Z" fill="#F57E77"/>
    <path d="M30.3143 22.6228H24.7155V28.2458H30.3143V22.6228Z" fill="#FFE4CE"/>
    <path d="M30.2366 22.7008H24.7933V28.0895H30.2366V22.7008Z" fill="#FFE4CE"/>
    <path d="M30.3143 17.2344H24.7155V22.8573H30.3143V17.2344Z" fill="#3D041F"/>
    <path d="M30.2366 17.3124H24.7933V22.7791H30.2366V17.3124Z" fill="#3D041F"/>
    <path d="M24.8714 234.42H19.2726V240.043H24.8714V234.42Z" fill="#0A0F1A"/>
    <path d="M24.7161 234.498H19.3506V239.965H24.7161V234.498Z" fill="#0A0F1A"/>
    <path d="M24.8714 229.032H19.2726V234.655H24.8714V229.032Z" fill="#111724"/>
    <path d="M24.7161 229.11H19.3506V234.499H24.7161V229.11Z" fill="#111724"/>
    <path d="M24.8714 223.565H19.2726V229.188H24.8714V223.565Z" fill="#111724"/>
    <path d="M24.7161 223.643H19.3506V229.11H24.7161V223.643Z" fill="#111724"/>
    <path d="M24.8714 71.5112H19.2726V77.1342H24.8714V71.5112Z" fill="#243454"/>
    <path d="M24.7161 71.5892H19.3506V77.056H24.7161V71.5892Z" fill="#243454"/>
    <path d="M24.8714 66.0447H19.2726V71.6676H24.8714V66.0447Z" fill="#243454"/>
    <path d="M24.7161 66.1227H19.3506V71.5894H24.7161V66.1227Z" fill="#243454"/>
    <path d="M24.8714 60.6558H19.2726V66.2787H24.8714V60.6558Z" fill="#243454"/>
    <path d="M24.7161 60.7338H19.3506V66.1224H24.7161V60.7338Z" fill="#243454"/>
    <path d="M19.5057 234.42H13.9069V240.043H19.5057V234.42Z" fill="#0A0F1A"/>
    <path d="M19.4283 234.498H13.985V239.965H19.4283V234.498Z" fill="#0A0F1A"/>
    <path d="M19.5057 229.032H13.9069V234.655H19.5057V229.032Z" fill="#111724"/>
    <path d="M19.4283 229.11H13.985V234.499H19.4283V229.11Z" fill="#111724"/>
    <path d="M19.5057 71.5112H13.9069V77.1342H19.5057V71.5112Z" fill="#243454"/>
    <path d="M19.4283 71.5892H13.985V77.056H19.4283V71.5892Z" fill="#243454"/>
    <path d="M19.5057 66.0447H13.9069V71.6676H19.5057V66.0447Z" fill="#243454"/>
    <path d="M19.4283 66.1227H13.985V71.5894H19.4283V66.1227Z" fill="#243454"/>
    <path d="M19.5057 60.6558H13.9069V66.2787H19.5057V60.6558Z" fill="#243454"/>
    <path d="M19.4283 60.7338H13.985V66.1224H19.4283V60.7338Z" fill="#243454"/>
    <path d="M14.0628 234.42H8.46399V240.043H14.0628V234.42Z" fill="#0A0F1A"/>
    <path d="M13.9846 234.498H8.54126V239.965H13.9846V234.498Z" fill="#0A0F1A"/>
    <path d="M16.7462 11.7384L11.1473 11.7384L11.1473 6.1155L16.7462 6.11549L16.7462 11.7384Z" fill="#FFE4CE"/>
    <path d="M16.5909 11.6604L11.2253 11.6604L11.2253 6.19365L16.5909 6.19365L16.5909 11.6604Z" fill="#FFE4CE"/>
    <path d="M16.7462 17.2056L11.1473 17.2056L11.1473 11.5827L16.7462 11.5827L16.7462 17.2056Z" fill="#F57E77"/>
    <path d="M16.5909 17.1276L11.2253 17.1276L11.2253 11.6608L16.5909 11.6608L16.5909 17.1276Z" fill="#F57E77"/>
    <path d="M16.7462 33.4493L11.1473 33.4493L11.1473 27.8264L16.7462 27.8264L16.7462 33.4493Z" fill="#131E33"/>
    <path d="M16.5909 33.3713L11.2253 33.3713L11.2253 27.9046L16.5909 27.9046L16.5909 33.3713Z" fill="#131E33"/>
    <path d="M16.7462 38.9165L11.1473 38.9165L11.1473 33.2936L16.7462 33.2936L16.7462 38.9165Z" fill="#131E33"/>
    <path d="M16.5909 38.8381L11.2253 38.8381L11.2253 33.3714L16.5909 33.3714L16.5909 38.8381Z" fill="#131E33"/>
    <path d="M16.7462 44.3048L11.1473 44.3048L11.1473 38.6819L16.7462 38.6819L16.7462 44.3048Z" fill="#131E33"/>
    <path d="M16.5909 44.2269L11.2253 44.2269L11.2253 38.7602L16.5909 38.7602L16.5909 44.2269Z" fill="#131E33"/>
    <path d="M16.7462 49.7716L11.1473 49.7716L11.1473 44.1487L16.7462 44.1487L16.7462 49.7716Z" fill="#131E33"/>
    <path d="M16.5909 49.6936L11.2253 49.6936L11.2253 44.3049L16.5909 44.3049L16.5909 49.6936Z" fill="#131E33"/>
    <path d="M16.7462 55.1603L11.1473 55.1603L11.1473 49.5373L16.7462 49.5373L16.7462 55.1603Z" fill="#131E33"/>
    <path d="M16.5909 55.0824L11.2253 55.0824L11.2253 49.6156L16.5909 49.6156L16.5909 55.0824Z" fill="#131E33"/>
    <path d="M16.7462 60.6271L11.1473 60.6271L11.1473 55.0041L16.7462 55.0041L16.7462 60.6271Z" fill="#131E33"/>
    <path d="M16.5909 60.5491L11.2253 60.5491L11.2253 55.0823L16.5909 55.0823L16.5909 60.5491Z" fill="#131E33"/>
    <path d="M16.7462 66.0159L11.1473 66.0159L11.1473 60.3929L16.7462 60.3929L16.7462 66.0159Z" fill="#131E33"/>
    <path d="M16.7462 71.4824L11.1473 71.4824L11.1473 65.8595L16.7462 65.8595L16.7462 71.4824Z" fill="#131E33"/>
    <path d="M19.5061 71.4045L11.2253 71.4045L11.2253 66.0159L19.5061 66.0159L19.5061 71.4045Z" fill="#243454"/>
    <path d="M16.7469 76.9492L11.1481 76.9492L11.1481 71.3263L16.7469 71.3263L16.7469 76.9492Z" fill="#131E33"/>
    <path d="M19.2728 76.793L11.2253 76.793L11.2253 71.3262L19.2728 71.3262L19.2728 76.793Z" fill="#243454"/>
    <path d="M11.3814 6.27209L5.78259 6.27209L5.78259 0.649187L11.3814 0.649186L11.3814 6.27209Z" fill="#FFE4CE"/>
    <path d="M11.3029 6.19373L5.85962 6.19373L5.85962 0.805049L11.3029 0.805049L11.3029 6.19373Z" fill="#FFE4CE"/>
    <path d="M11.3814 11.7384L5.78259 11.7384L5.78259 6.1155L11.3814 6.11549L11.3814 11.7384Z" fill="#FFE4CE"/>
    <path d="M11.3029 11.6604L5.85962 11.6604L5.85962 6.19365L11.3029 6.19365L11.3029 11.6604Z" fill="#FFE4CE"/>
    <path d="M11.3814 17.2056L5.78259 17.2056L5.78259 11.5827L11.3814 11.5827L11.3814 17.2056Z" fill="#FFE4CE"/>
    <path d="M11.3029 17.1276L5.85962 17.1276L5.85962 11.6608L11.3029 11.6608L11.3029 17.1276Z" fill="#FFE4CE"/>
    <path d="M11.3814 22.594L5.78259 22.594L5.78259 16.971L11.3814 16.971L11.3814 22.594Z" fill="#F57E77"/>
    <path d="M11.3029 22.5159L5.85962 22.5159L5.85962 17.0491L11.3029 17.0491L11.3029 22.5159Z" fill="#F57E77"/>
    <path d="M11.3814 28.061L5.78259 28.061L5.78259 22.4381L11.3814 22.4381L11.3814 28.061Z" fill="#877A86"/>
    <path d="M11.3029 27.983L5.85962 27.983L5.85962 22.5944L11.3029 22.5944L11.3029 27.983Z" fill="#877A86"/>
    <path d="M11.3814 33.4493L5.78259 33.4493L5.78259 27.8264L11.3814 27.8264L11.3814 33.4493Z" fill="#243454"/>
    <path d="M11.3029 33.3713L5.85962 33.3713L5.85962 27.9046L11.3029 27.9046L11.3029 33.3713Z" fill="#243454"/>
    <path d="M11.3814 38.9165L5.78259 38.9165L5.78259 33.2936L11.3814 33.2936L11.3814 38.9165Z" fill="#243454"/>
    <path d="M11.3029 38.8381L5.85962 38.8381L5.85962 33.3714L11.3029 33.3714L11.3029 38.8381Z" fill="#243454"/>
    <path d="M11.3814 44.3048L5.78259 44.3048L5.78259 38.6819L11.3814 38.6819L11.3814 44.3048Z" fill="#243454"/>
    <path d="M11.3029 44.2269L5.85962 44.2269L5.85962 38.7602L11.3029 38.7602L11.3029 44.2269Z" fill="#243454"/>
    <path d="M11.3814 49.7716L5.78259 49.7716L5.78259 44.1487L11.3814 44.1487L11.3814 49.7716Z" fill="#243454"/>
    <path d="M11.3029 49.6936L5.85962 49.6936L5.85962 44.3049L11.3029 44.3049L11.3029 49.6936Z" fill="#243454"/>
    <path d="M11.3814 55.1603L5.78259 55.1603L5.78259 49.5373L11.3814 49.5373L11.3814 55.1603Z" fill="#243454"/>
    <path d="M11.3029 55.0824L5.85962 55.0824L5.85962 49.6156L11.3029 49.6156L11.3029 55.0824Z" fill="#243454"/>
    <path d="M11.3814 60.6271L5.78259 60.6271L5.78259 55.0041L11.3814 55.0041L11.3814 60.6271Z" fill="#243454"/>
    <path d="M11.3029 60.5491L5.85962 60.5491L5.85962 55.0823L11.3029 55.0823L11.3029 60.5491Z" fill="#243454"/>
    <path d="M11.3814 66.0159L5.78259 66.0159L5.78259 60.3929L11.3814 60.3929L11.3814 66.0159Z" fill="#243454"/>
    <path d="M11.3029 65.9375L5.85962 65.9375L5.85962 60.4707L11.3029 60.4707L11.3029 65.9375Z" fill="#243454"/>
    <path d="M11.3814 71.4824L5.78259 71.4824L5.78259 65.8595L11.3814 65.8595L11.3814 71.4824Z" fill="#243454"/>
    <path d="M11.3029 71.4045L5.85962 71.4045L5.85962 66.0159L11.3029 66.0159L11.3029 71.4045Z" fill="#243454"/>
    <path d="M11.3814 76.9492L5.78259 76.9492L5.78259 71.3263L11.3814 71.3263L11.3814 76.9492Z" fill="#243454"/>
    <path d="M11.3029 76.793L5.85962 76.793L5.85962 71.3262L11.3029 71.3262L11.3029 76.793Z" fill="#243454"/>
    <path d="M5.93756 6.27209L0.338745 6.27209L0.338745 0.649187L5.93756 0.649186L5.93756 6.27209Z" fill="#FFE4CE"/>
    <path d="M5.86016 6.19373L0.41687 6.19373L0.41687 0.805049L5.86016 0.805049L5.86016 6.19373Z" fill="#FFE4CE"/>
    <path d="M5.93756 11.7384L0.338745 11.7384L0.338745 6.1155L5.93756 6.11549L5.93756 11.7384Z" fill="#FFE4CE"/>
    <path d="M5.93756 17.2056L0.338745 17.2056L0.338745 11.5827L5.93756 11.5827L5.93756 17.2056Z" fill="#FFE4CE"/>
    <path d="M5.86016 17.1276L0.41687 17.1276L0.41687 11.6608L5.86016 11.6608L5.86016 17.1276Z" fill="#FFE4CE"/>
    <path d="M5.93756 22.5939L0.338745 22.5939L0.338745 16.9709L5.93756 16.9709L5.93756 22.5939Z" fill="#FFE4CE"/>
    <path d="M5.86016 22.5159L0.41687 22.5159L0.41687 17.0491L5.86016 17.0491L5.86016 22.5159Z" fill="#FFE4CE"/>
    <path d="M5.93756 28.061L0.338745 28.061L0.338745 22.4381L5.93756 22.4381L5.93756 28.061Z" fill="white"/>
    <path d="M5.86016 27.983L0.41687 27.983L0.41687 22.5944L5.86016 22.5944L5.86016 27.983Z" fill="white"/>
    <path d="M5.93756 33.4493L0.338745 33.4493L0.338745 27.8264L5.93756 27.8264L5.93756 33.4493Z" fill="#243454"/>
    <path d="M5.86016 33.3713L0.41687 33.3713L0.41687 27.9046L5.86016 27.9046L5.86016 33.3713Z" fill="#243454"/>
    <path d="M5.93756 38.9165L0.338745 38.9165L0.338745 33.2936L5.93756 33.2936L5.93756 38.9165Z" fill="#243454"/>
    <path d="M5.86016 38.8381L0.41687 38.8381L0.41687 33.3714L5.86016 33.3714L5.86016 38.8381Z" fill="#243454"/>
    <path d="M5.93756 44.3048L0.338745 44.3048L0.338745 38.6819L5.93756 38.6819L5.93756 44.3048Z" fill="#243454"/>
    <path d="M5.86016 44.2269L0.41687 44.2269L0.41687 38.7602L5.86016 38.7602L5.86016 44.2269Z" fill="#243454"/>
    <path d="M5.93756 49.7716L0.338745 49.7716L0.338745 44.1487L5.93756 44.1487L5.93756 49.7716Z" fill="#243454"/>
    <path d="M5.86016 49.6936L0.41687 49.6936L0.41687 44.3049L5.86016 44.3049L5.86016 49.6936Z" fill="#243454"/>
    <path d="M5.93756 55.1603L0.338745 55.1603L0.338745 49.5373L5.93756 49.5373L5.93756 55.1603Z" fill="#243454"/>
    <path d="M5.86016 55.0824L0.41687 55.0824L0.41687 49.6156L5.86016 49.6156L5.86016 55.0824Z" fill="#243454"/>
    <path d="M5.93756 60.6271L0.338745 60.6271L0.338745 55.0041L5.93756 55.0041L5.93756 60.6271Z" fill="#243454"/>
    <path d="M5.86016 60.5491L0.41687 60.5491L0.41687 55.0823L5.86016 55.0823L5.86016 60.5491Z" fill="#243454"/>
    <path d="M5.93756 66.0159L0.338745 66.0159L0.338745 60.3929L5.93756 60.3929L5.93756 66.0159Z" fill="#243454"/>
    <path d="M5.86016 65.9375L0.41687 65.9375L0.41687 60.4707L5.86016 60.4707L5.86016 65.9375Z" fill="#243454"/>
    <path d="M5.93756 71.4824L0.338745 71.4824L0.338745 65.8595L5.93756 65.8595L5.93756 71.4824Z" fill="#243454"/>
    <path d="M5.86016 71.4045L0.41687 71.4045L0.41687 66.0159L5.86016 66.0159L5.86016 71.4045Z" fill="#243454"/>
    <path d="M5.93756 76.9492L0.338745 76.9492L0.338745 71.3263L5.93756 71.3263L5.93756 76.9492Z" fill="#243454"/>
    <path d="M5.86016 76.793L0.41687 76.793L0.41687 71.3262L5.86016 71.3262L5.86016 76.793Z" fill="#243454"/>
    <path d="M19.5061 71.5114L11.2253 71.5114L11.2253 60.4707L19.506 60.4707L19.5061 71.5114Z" fill="#243454"/>
    <path d="M78.9538 11.9233L84.5526 11.9233L84.5526 6.30043L78.9538 6.30043L78.9538 11.9233Z" fill="#FFE4CE"/>
    <path d="M79.109 11.8453L84.4745 11.8453L84.4745 6.37858L79.109 6.37858L79.109 11.8453Z" fill="#FFE4CE"/>
    <path d="M78.9538 17.3904L84.5526 17.3904L84.5526 11.7675L78.9538 11.7675L78.9538 17.3904Z" fill="#F57E77"/>
    <path d="M79.109 17.3124L84.4745 17.3124L84.4745 11.8456L79.109 11.8456L79.109 17.3124Z" fill="#F57E77"/>
    <path d="M78.9538 33.6342L84.5526 33.6342L84.5526 28.0112L78.9538 28.0112L78.9538 33.6342Z" fill="#131E33"/>
    <path d="M79.109 33.5563L84.4745 33.5563L84.4745 28.0895L79.109 28.0895L79.109 33.5563Z" fill="#131E33"/>
    <path d="M78.9538 39.1013L84.5526 39.1013L84.5526 33.4784L78.9538 33.4784L78.9538 39.1013Z" fill="#131E33"/>
    <path d="M79.109 39.0229L84.4745 39.0229L84.4745 33.5562L79.109 33.5562L79.109 39.0229Z" fill="#131E33"/>
    <path d="M78.9538 44.4897L84.5526 44.4897L84.5526 38.8668L78.9538 38.8668L78.9538 44.4897Z" fill="#131E33"/>
    <path d="M79.109 44.4117L84.4745 44.4117L84.4745 38.945L79.109 38.945L79.109 44.4117Z" fill="#131E33"/>
    <path d="M78.9538 49.9564L84.5526 49.9564L84.5526 44.3335L78.9538 44.3335L78.9538 49.9564Z" fill="#131E33"/>
    <path d="M79.109 49.8785L84.4745 49.8785L84.4745 44.4899L79.109 44.4899L79.109 49.8785Z" fill="#131E33"/>
    <path d="M78.9538 55.3452L84.5526 55.3452L84.5526 49.7223L78.9538 49.7223L78.9538 55.3452Z" fill="#131E33"/>
    <path d="M79.109 55.2673L84.4745 55.2673L84.4745 49.8006L79.109 49.8006L79.109 55.2673Z" fill="#131E33"/>
    <path d="M78.9538 60.8119L84.5526 60.8119L84.5526 55.1889L78.9538 55.1889L78.9538 60.8119Z" fill="#131E33"/>
    <path d="M79.109 60.7339L84.4745 60.7339L84.4745 55.2671L79.109 55.2671L79.109 60.7339Z" fill="#131E33"/>
    <path d="M78.9538 66.2007L84.5526 66.2007L84.5526 60.5777L78.9538 60.5777L78.9538 66.2007Z" fill="#131E33"/>
    <path d="M78.9538 71.6674L84.5526 71.6674L84.5526 66.0444L78.9538 66.0444L78.9538 71.6674Z" fill="#131E33"/>
    <path d="M76.1938 71.5894L84.4745 71.5894L84.4745 66.2007L76.1938 66.2007L76.1938 71.5894Z" fill="#243454"/>
    <path d="M78.9531 77.1342L84.5519 77.1342L84.5519 71.5112L78.9531 71.5112L78.9531 77.1342Z" fill="#131E33"/>
    <path d="M76.4271 76.9777L84.4745 76.9777L84.4745 71.5109L76.4271 71.5109L76.4271 76.9777Z" fill="#243454"/>
    <path d="M84.3185 6.45703L89.9174 6.45703L89.9174 0.834123L84.3185 0.834123L84.3185 6.45703Z" fill="#FFE4CE"/>
    <path d="M84.397 6.37854L89.8403 6.37854L89.8403 0.989864L84.397 0.989863L84.397 6.37854Z" fill="#FFE4CE"/>
    <path d="M84.3185 11.9233L89.9174 11.9233L89.9174 6.30043L84.3185 6.30043L84.3185 11.9233Z" fill="#FFE4CE"/>
    <path d="M84.397 11.8452L89.8403 11.8452L89.8403 6.37846L84.397 6.37846L84.397 11.8452Z" fill="#FFE4CE"/>
    <path d="M84.3185 17.3904L89.9174 17.3904L89.9174 11.7675L84.3185 11.7675L84.3185 17.3904Z" fill="#FFE4CE"/>
    <path d="M84.397 17.3124L89.8403 17.3124L89.8403 11.8456L84.397 11.8456L84.397 17.3124Z" fill="#FFE4CE"/>
    <path d="M84.3185 22.7787L89.9174 22.7787L89.9174 17.1557L84.3185 17.1557L84.3185 22.7787Z" fill="#F57E77"/>
    <path d="M84.397 22.7008L89.8403 22.7008L89.8403 17.2341L84.397 17.2341L84.397 22.7008Z" fill="#F57E77"/>
    <path d="M84.3185 28.246L89.9174 28.246L89.9174 22.623L84.3185 22.623L84.3185 28.246Z" fill="#877A86"/>
    <path d="M84.397 28.1678L89.8403 28.1678L89.8403 22.7792L84.397 22.7792L84.397 28.1678Z" fill="#877A86"/>
    <path d="M84.3185 33.6342L89.9174 33.6342L89.9174 28.0112L84.3185 28.0112L84.3185 33.6342Z" fill="#243454"/>
    <path d="M84.397 33.5563L89.8403 33.5563L89.8403 28.0895L84.397 28.0895L84.397 33.5563Z" fill="#243454"/>
    <path d="M84.3185 39.1013L89.9174 39.1013L89.9174 33.4784L84.3185 33.4784L84.3185 39.1013Z" fill="#243454"/>
    <path d="M84.397 39.0229L89.8403 39.0229L89.8403 33.5562L84.397 33.5562L84.397 39.0229Z" fill="#243454"/>
    <path d="M84.3185 44.4897L89.9174 44.4897L89.9174 38.8668L84.3185 38.8668L84.3185 44.4897Z" fill="#243454"/>
    <path d="M84.397 44.4117L89.8403 44.4117L89.8403 38.945L84.397 38.945L84.397 44.4117Z" fill="#243454"/>
    <path d="M84.3185 49.9564L89.9174 49.9564L89.9174 44.3335L84.3185 44.3335L84.3185 49.9564Z" fill="#243454"/>
    <path d="M84.397 49.8785L89.8403 49.8785L89.8403 44.4899L84.397 44.4899L84.397 49.8785Z" fill="#243454"/>
    <path d="M84.3185 55.3452L89.9174 55.3452L89.9174 49.7223L84.3185 49.7223L84.3185 55.3452Z" fill="#243454"/>
    <path d="M84.397 55.2673L89.8403 55.2673L89.8403 49.8006L84.397 49.8006L84.397 55.2673Z" fill="#243454"/>
    <path d="M84.3185 60.8119L89.9174 60.8119L89.9174 55.1889L84.3185 55.1889L84.3185 60.8119Z" fill="#243454"/>
    <path d="M84.397 60.7339L89.8403 60.7339L89.8403 55.2671L84.397 55.2671L84.397 60.7339Z" fill="#243454"/>
    <path d="M84.3185 66.2007L89.9174 66.2007L89.9174 60.5777L84.3185 60.5777L84.3185 66.2007Z" fill="#243454"/>
    <path d="M84.397 66.1223L89.8403 66.1223L89.8403 60.6556L84.397 60.6556L84.397 66.1223Z" fill="#243454"/>
    <path d="M84.3185 71.6674L89.9174 71.6674L89.9174 66.0444L84.3185 66.0444L84.3185 71.6674Z" fill="#243454"/>
    <path d="M84.397 71.5894L89.8403 71.5894L89.8403 66.2007L84.397 66.2007L84.397 71.5894Z" fill="#243454"/>
    <path d="M84.3185 77.1342L89.9174 77.1342L89.9174 71.5112L84.3185 71.5112L84.3185 77.1342Z" fill="#243454"/>
    <path d="M84.397 76.9777L89.8403 76.9777L89.8403 71.5109L84.397 71.5109L84.397 76.9777Z" fill="#243454"/>
    <path d="M89.7623 6.45703L95.3611 6.45703L95.3611 0.834123L89.7623 0.834123L89.7623 6.45703Z" fill="#FFE4CE"/>
    <path d="M89.8397 6.37854L95.283 6.37854L95.283 0.989864L89.8397 0.989863L89.8397 6.37854Z" fill="#FFE4CE"/>
    <path d="M89.7623 11.9233L95.3611 11.9233L95.3611 6.30043L89.7623 6.30043L89.7623 11.9233Z" fill="#FFE4CE"/>
    <path d="M89.7623 17.3904L95.3611 17.3904L95.3611 11.7675L89.7623 11.7675L89.7623 17.3904Z" fill="#FFE4CE"/>
    <path d="M89.8397 17.3124L95.283 17.3124L95.283 11.8456L89.8397 11.8456L89.8397 17.3124Z" fill="#FFE4CE"/>
    <path d="M89.7623 22.7787L95.3611 22.7787L95.3611 17.1557L89.7623 17.1557L89.7623 22.7787Z" fill="#FFE4CE"/>
    <path d="M89.8397 22.7008L95.283 22.7008L95.283 17.2341L89.8397 17.2341L89.8397 22.7008Z" fill="#FFE4CE"/>
    <path d="M89.7623 28.246L95.3611 28.246L95.3611 22.623L89.7623 22.623L89.7623 28.246Z" fill="white"/>
    <path d="M89.8397 28.1678L95.283 28.1678L95.283 22.7792L89.8397 22.7792L89.8397 28.1678Z" fill="white"/>
    <path d="M89.7623 33.6342L95.3611 33.6342L95.3611 28.0112L89.7623 28.0112L89.7623 33.6342Z" fill="#243454"/>
    <path d="M89.8397 33.5563L95.283 33.5563L95.283 28.0895L89.8397 28.0895L89.8397 33.5563Z" fill="#243454"/>
    <path d="M89.7623 39.1013L95.3611 39.1013L95.3611 33.4784L89.7623 33.4784L89.7623 39.1013Z" fill="#243454"/>
    <path d="M89.8397 39.0229L95.283 39.0229L95.283 33.5562L89.8397 33.5562L89.8397 39.0229Z" fill="#243454"/>
    <path d="M89.7623 44.4897L95.3611 44.4897L95.3611 38.8668L89.7623 38.8668L89.7623 44.4897Z" fill="#243454"/>
    <path d="M89.8397 44.4117L95.283 44.4117L95.283 38.945L89.8397 38.945L89.8397 44.4117Z" fill="#243454"/>
    <path d="M89.7623 49.9564L95.3611 49.9564L95.3611 44.3335L89.7623 44.3335L89.7623 49.9564Z" fill="#243454"/>
    <path d="M89.8397 49.8785L95.283 49.8785L95.283 44.4899L89.8397 44.4899L89.8397 49.8785Z" fill="#243454"/>
    <path d="M89.7623 55.3452L95.3611 55.3452L95.3611 49.7223L89.7623 49.7223L89.7623 55.3452Z" fill="#243454"/>
    <path d="M89.8397 55.2673L95.283 55.2673L95.283 49.8006L89.8397 49.8006L89.8397 55.2673Z" fill="#243454"/>
    <path d="M89.7623 60.8119L95.3611 60.8119L95.3611 55.1889L89.7623 55.1889L89.7623 60.8119Z" fill="#243454"/>
    <path d="M89.8397 60.7339L95.283 60.7339L95.283 55.2671L89.8397 55.2671L89.8397 60.7339Z" fill="#243454"/>
    <path d="M89.7623 66.2007L95.3611 66.2007L95.3611 60.5777L89.7623 60.5777L89.7623 66.2007Z" fill="#243454"/>
    <path d="M89.8397 66.1223L95.283 66.1223L95.283 60.6556L89.8397 60.6556L89.8397 66.1223Z" fill="#243454"/>
    <path d="M89.7623 71.6674L95.3611 71.6674L95.3611 66.0444L89.7623 66.0444L89.7623 71.6674Z" fill="#243454"/>
    <path d="M89.8397 71.5894L95.283 71.5894L95.283 66.2007L89.8397 66.2007L89.8397 71.5894Z" fill="#243454"/>
    <path d="M89.7624 77.1342L95.3612 77.1342L95.3612 71.5112L89.7624 71.5112L89.7624 77.1342Z" fill="#243454"/>
    <path d="M89.8397 76.9777L95.283 76.9777L95.283 71.5109L89.8397 71.5109L89.8397 76.9777Z" fill="#243454"/>
    <path d="M76.1938 71.6962L84.4745 71.6962L84.4745 60.6556L76.1938 60.6556L76.1938 71.6962Z" fill="#243454"/>
</svg>
