<svg width="121" height="235" viewBox="0 0 121 235" fill="none" xmlns="http://www.w3.org/2000/svg">
    <path d="M93.4058 224.331L88.2537 221.892L85.8235 227.063L90.9756 229.502L93.4058 224.331Z" fill="#0A0F1A"/>
    <path d="M88.3972 221.96L83.2451 219.521L80.8149 224.692L85.967 227.131L88.3972 221.96Z" fill="#0A0F1A"/>
    <path d="M90.7603 216.932L85.6082 214.493L83.178 219.664L88.3301 222.103L90.7603 216.932Z" fill="#111724"/>
    <path d="M83.459 219.622L78.3069 217.183L75.8767 222.354L81.0288 224.793L83.459 219.622Z" fill="#0A0F1A"/>
    <path d="M85.8219 214.594L80.6698 212.155L78.2396 217.326L83.3917 219.765L85.8219 214.594Z" fill="#111724"/>
    <path d="M88.1513 209.64L82.9991 207.201L80.569 212.372L85.7211 214.811L88.1513 209.64Z" fill="#111724"/>
    <path d="M78.3456 217.289L73.3365 214.917L70.9739 219.945L75.9829 222.316L78.3456 217.289Z" fill="#0A0F1A"/>
    <path d="M80.8132 212.223L75.6611 209.784L73.2309 214.955L78.3831 217.394L80.8132 212.223Z" fill="#111724"/>
    <path d="M83.1419 207.269L77.9897 204.83L75.5596 210.001L80.7117 212.439L83.1419 207.269Z" fill="#111724"/>
    <path d="M73.4409 214.88L68.2888 212.441L65.8586 217.611L71.0107 220.05L73.4409 214.88Z" fill="#0A0F1A"/>
    <path d="M75.804 209.852L70.6519 207.413L68.2217 212.584L73.3738 215.023L75.804 209.852Z" fill="#111724"/>
    <path d="M78.1332 204.897L72.9811 202.458L70.5509 207.629L75.703 210.068L78.1332 204.897Z" fill="#111724"/>
    <path d="M80.4962 199.87L75.3441 197.431L72.9139 202.602L78.0661 205.041L80.4962 199.87Z" fill="#111724"/>
    <path d="M82.825 194.915L77.6729 192.476L75.2427 197.646L80.3948 200.085L82.825 194.915Z" fill="#243454"/>
    <path d="M85.1875 189.888L80.0354 187.449L77.6052 192.62L82.7573 195.059L85.1875 189.888Z" fill="#243454"/>
    <path d="M87.5165 184.932L82.3644 182.493L79.9342 187.664L85.0863 190.103L87.5165 184.932Z" fill="#243454"/>
    <path d="M89.8783 179.905L84.7262 177.466L82.296 182.637L87.4481 185.076L89.8783 179.905Z" fill="#243454"/>
    <path d="M92.2412 174.878L87.0891 172.439L84.6589 177.609L89.811 180.048L92.2412 174.878Z" fill="#243454"/>
    <path d="M97.5795 163.521L92.4274 161.082L86.9885 172.654L92.1406 175.093L97.5795 163.521Z" fill="#243454"/>
    <path d="M68.5042 212.543L63.3521 210.104L60.9219 215.274L66.074 217.713L68.5042 212.543Z" fill="#0A0F1A"/>
    <path d="M70.8671 207.515L65.715 205.076L63.2848 210.246L68.4369 212.685L70.8671 207.515Z" fill="#111724"/>
    <path d="M73.1957 202.56L68.0436 200.121L65.6134 205.292L70.7655 207.731L73.1957 202.56Z" fill="#111724"/>
    <path d="M75.5586 197.533L70.4065 195.094L67.9763 200.264L73.1284 202.703L75.5586 197.533Z" fill="#111724"/>
    <path d="M77.8876 192.577L72.7355 190.138L70.3053 195.309L75.4574 197.748L77.8876 192.577Z" fill="#243454"/>
    <path d="M80.2499 187.55L75.0978 185.111L72.6676 190.282L77.8197 192.721L80.2499 187.55Z" fill="#243454"/>
    <path d="M82.579 182.595L77.4269 180.156L74.9967 185.327L80.1488 187.766L82.579 182.595Z" fill="#243454"/>
    <path d="M84.9418 177.567L79.7897 175.128L77.3595 180.299L82.5116 182.738L84.9418 177.567Z" fill="#243454"/>
    <path d="M87.3043 172.54L82.1522 170.101L79.722 175.272L84.8742 177.711L87.3043 172.54Z" fill="#243454"/>
    <path d="M93.6846 158.963L88.5325 156.524L82.05 170.317L87.2021 172.756L93.6846 158.963Z" fill="#243454"/>
    <path d="M63.4946 210.171L58.3425 207.732L55.9123 212.903L61.0645 215.342L63.4946 210.171Z" fill="#0A0F1A"/>
    <path d="M65.8577 205.143L60.7056 202.704L58.2754 207.875L63.4275 210.314L65.8577 205.143Z" fill="#111724"/>
    <path d="M68.0819 200.228L63.0729 197.856L60.7102 202.883L65.7192 205.255L68.0819 200.228Z" fill="#111724"/>
    <path d="M70.5491 195.161L65.397 192.722L62.9668 197.893L68.1189 200.332L70.5491 195.161Z" fill="#111724"/>
    <path d="M72.8779 190.206L67.7258 187.767L65.2956 192.938L70.4478 195.377L72.8779 190.206Z" fill="#131E33"/>
    <path d="M75.2406 185.179L70.0885 182.74L67.6583 187.911L72.8104 190.35L75.2406 185.179Z" fill="#131E33"/>
    <path d="M77.5695 180.223L72.4174 177.784L69.9872 182.955L75.1393 185.394L77.5695 180.223Z" fill="#131E33"/>
    <path d="M79.9324 175.196L74.7803 172.757L72.3501 177.928L77.5022 180.367L79.9324 175.196Z" fill="#131E33"/>
    <path d="M82.2949 170.169L77.1428 167.73L74.7126 172.901L79.8648 175.34L82.2949 170.169Z" fill="#131E33"/>
    <path d="M90.9417 151.636L85.8519 149.227L76.9047 168.264L81.9944 170.673L90.9417 151.636Z" fill="#131E33"/>
    <path d="M95.2482 158.565L90.0776 160.964L92.4682 166.153L97.6388 163.754L95.2482 158.565Z" fill="#243454"/>
    <path d="M95.2099 158.67L90.2548 160.969L92.5457 165.942L97.5009 163.643L95.2099 158.67Z" fill="#243454"/>
    <path d="M92.958 153.591L87.7874 155.991L90.1779 161.18L95.3485 158.781L92.958 153.591Z" fill="#243454"/>
    <path d="M92.919 153.697L87.9639 155.996L90.288 161.042L95.2432 158.742L92.919 153.697Z" fill="#243454"/>
    <path d="M90.633 148.547L85.4624 150.946L87.853 156.135L93.0236 153.736L90.633 148.547Z" fill="#243454"/>
    <path d="M90.5951 148.652L85.6399 150.952L87.9641 155.997L92.9192 153.697L90.5951 148.652Z" fill="#243454"/>
    <path d="M88.3422 143.573L83.1716 145.972L85.5622 151.162L90.7328 148.762L88.3422 143.573Z" fill="#243454"/>
    <path d="M88.3033 143.679L83.3481 145.978L85.6723 151.023L90.6275 148.724L88.3033 143.679Z" fill="#243454"/>
    <path d="M86.0183 138.528L80.8477 140.927L83.2382 146.117L88.4088 143.717L86.0183 138.528Z" fill="#243454"/>
    <path d="M85.9795 138.633L81.0243 140.932L83.3153 145.906L88.2704 143.606L85.9795 138.633Z" fill="#243454"/>
    <path d="M83.7273 133.555L78.5566 135.954L80.9472 141.143L86.1178 138.744L83.7273 133.555Z" fill="#243454"/>
    <path d="M83.6883 133.66L78.7332 135.96L81.0573 141.005L86.0125 138.706L83.6883 133.66Z" fill="#243454"/>
    <path d="M81.4025 128.509L76.2319 130.908L78.6225 136.098L83.7931 133.698L81.4025 128.509Z" fill="#243454"/>
    <path d="M81.3642 128.615L76.4091 130.914L78.7332 135.959L83.6884 133.66L81.3642 128.615Z" fill="#243454"/>
    <path d="M79.1124 123.536L73.9418 125.936L76.3324 131.125L81.503 128.726L79.1124 123.536Z" fill="#131E33"/>
    <path d="M79.0736 123.642L74.1184 125.941L76.4426 130.987L81.3978 128.687L79.0736 123.642Z" fill="#131E33"/>
    <path d="M90.2935 160.863L85.1229 163.263L87.5135 168.452L92.6841 166.053L90.2935 160.863Z" fill="#243454"/>
    <path d="M90.255 160.97L85.228 163.302L87.519 168.276L92.546 165.943L90.255 160.97Z" fill="#243454"/>
    <path d="M88.0025 155.891L82.8319 158.29L85.2225 163.479L90.3931 161.08L88.0025 155.891Z" fill="#243454"/>
    <path d="M87.9644 155.996L82.9374 158.329L85.2616 163.374L90.2885 161.042L87.9644 155.996Z" fill="#243454"/>
    <path d="M85.6778 150.846L80.5072 153.245L82.8978 158.434L88.0684 156.035L85.6778 150.846Z" fill="#243454"/>
    <path d="M85.6401 150.951L80.6132 153.284L82.9373 158.329L87.9643 155.997L85.6401 150.951Z" fill="#243454"/>
    <path d="M83.3877 145.872L78.217 148.271L80.6076 153.461L85.7782 151.062L83.3877 145.872Z" fill="#243454"/>
    <path d="M83.3484 145.978L78.3214 148.311L80.6456 153.356L85.6726 151.023L83.3484 145.978Z" fill="#243454"/>
    <path d="M81.0627 140.827L75.8921 143.227L78.2827 148.416L83.4533 146.017L81.0627 140.827Z" fill="#243454"/>
    <path d="M81.0244 140.932L75.9974 143.265L78.2884 148.238L83.3154 145.906L81.0244 140.932Z" fill="#243454"/>
    <path d="M78.7729 135.854L73.6023 138.253L75.9929 143.443L81.1635 141.043L78.7729 135.854Z" fill="#243454"/>
    <path d="M78.7335 135.96L73.7065 138.292L76.0307 143.337L81.0577 141.005L78.7335 135.96Z" fill="#243454"/>
    <path d="M76.4478 130.808L71.2772 133.207L73.6678 138.397L78.8384 135.998L76.4478 130.808Z" fill="#243454"/>
    <path d="M76.4094 130.914L71.3824 133.247L73.7066 138.292L78.7336 135.959L76.4094 130.914Z" fill="#243454"/>
    <path d="M74.1569 125.836L68.9863 128.235L71.3769 133.424L76.5475 131.025L74.1569 125.836Z" fill="#243454"/>
    <path d="M74.1187 125.94L69.0917 128.273L71.4159 133.318L76.4428 130.986L74.1187 125.94Z" fill="#243454"/>
    <path d="M71.8328 120.791L66.6622 123.19L69.0528 128.379L74.2234 125.98L71.8328 120.791Z" fill="#243454"/>
    <path d="M71.7946 120.896L66.7676 123.228L69.0586 128.201L74.0855 125.869L71.7946 120.896Z" fill="#243454"/>
    <path d="M82.9759 158.223L77.8053 160.622L80.1959 165.812L85.3665 163.412L82.9759 158.223Z" fill="#131E33"/>
    <path d="M82.9376 158.328L77.9106 160.661L80.2348 165.706L85.2618 163.373L82.9376 158.328Z" fill="#131E33"/>
    <path d="M80.651 153.178L75.4803 155.578L77.8709 160.767L83.0415 158.368L80.651 153.178Z" fill="#131E33"/>
    <path d="M80.6135 153.283L75.5865 155.616L77.9107 160.661L82.9377 158.328L80.6135 153.283Z" fill="#131E33"/>
    <path d="M78.3602 148.205L73.1896 150.604L75.5802 155.793L80.7508 153.394L78.3602 148.205Z" fill="#131E33"/>
    <path d="M78.3218 148.31L73.2948 150.642L75.619 155.688L80.646 153.355L78.3218 148.31Z" fill="#131E33"/>
    <path d="M76.0361 143.16L70.8655 145.559L73.2561 150.748L78.4267 148.349L76.0361 143.16Z" fill="#131E33"/>
    <path d="M75.9977 143.265L70.9707 145.597L73.2617 150.57L78.2887 148.238L75.9977 143.265Z" fill="#131E33"/>
    <path d="M73.7453 138.186L68.5747 140.586L70.9653 145.775L76.1359 143.376L73.7453 138.186Z" fill="#131E33"/>
    <path d="M71.4204 133.141L66.2498 135.541L68.6403 140.73L73.811 138.331L71.4204 133.141Z" fill="#243454"/>
    <path d="M71.3827 133.246L66.3557 135.579L68.6799 140.624L73.7069 138.292L71.3827 133.246Z" fill="#243454"/>
    <path d="M69.1303 128.168L63.9597 130.567L66.3503 135.757L71.5209 133.357L69.1303 128.168Z" fill="#243454"/>
    <path d="M69.0919 128.273L64.0649 130.606L66.3891 135.651L71.4161 133.318L69.0919 128.273Z" fill="#243454"/>
    <path d="M66.8062 123.123L61.6356 125.522L64.0262 130.712L69.1968 128.312L66.8062 123.123Z" fill="#243454"/>
    <path d="M66.7678 123.228L61.7408 125.561L64.0318 130.534L69.0588 128.201L66.7678 123.228Z" fill="#243454"/>
    <path d="M64.4816 118.078L59.3108 120.477L61.7018 125.666L66.8727 123.267L64.4816 118.078Z" fill="#243454"/>
    <path d="M70.8466 132.081L65.8196 134.414L71.0048 145.67L76.0318 143.337L70.8466 132.081Z" fill="#131E33"/>
    <path d="M48.4268 159.803L43.3445 157.222L40.7729 162.322L45.8553 164.903L48.4268 159.803Z" fill="#243454"/>
    <path d="M48.3208 159.838L43.4497 157.365L38.9362 166.317L43.8073 168.791L48.3208 159.838Z" fill="#243454"/>
    <path d="M50.8912 154.914L45.8088 152.333L43.2373 157.434L48.3197 160.015L50.8912 154.914Z" fill="#243454"/>
    <path d="M50.7853 154.949L45.9147 152.475L43.4146 157.434L48.2852 159.908L50.7853 154.949Z" fill="#243454"/>
    <path d="M53.3919 149.954L48.3096 147.373L45.738 152.474L50.8204 155.054L53.3919 149.954Z" fill="#243454"/>
    <path d="M53.2856 149.99L48.415 147.516L45.9149 152.475L50.7855 154.949L53.2856 149.99Z" fill="#243454"/>
    <path d="M55.8562 145.066L50.7738 142.485L48.2023 147.585L53.2846 150.166L55.8562 145.066Z" fill="#243454"/>
    <path d="M55.7505 145.1L50.8799 142.627L48.3798 147.586L53.2504 150.059L55.7505 145.1Z" fill="#243454"/>
    <path d="M58.3565 140.106L53.2742 137.526L50.7026 142.626L55.785 145.207L58.3565 140.106Z" fill="#243454"/>
    <path d="M58.2507 140.14L53.3801 137.667L50.9157 142.555L55.7863 145.028L58.2507 140.14Z" fill="#243454"/>
    <path d="M60.8214 135.217L55.739 132.636L53.1675 137.737L58.2498 140.318L60.8214 135.217Z" fill="#243454"/>
    <path d="M60.7148 135.252L55.8442 132.779L53.3441 137.737L58.2147 140.211L60.7148 135.252Z" fill="#243454"/>
    <path d="M63.3223 130.257L58.24 127.676L55.6685 132.777L60.7508 135.358L63.3223 130.257Z" fill="#243454"/>
    <path d="M63.2159 130.293L58.3453 127.819L55.8452 132.778L60.7158 135.252L63.2159 130.293Z" fill="#243454"/>
    <path d="M65.7867 125.369L60.7043 122.788L58.1328 127.888L63.2152 130.469L65.7867 125.369Z" fill="#131E33"/>
    <path d="M65.6809 125.403L60.8103 122.93L58.3102 127.889L63.1808 130.362L65.6809 125.403Z" fill="#131E33"/>
    <path d="M43.5561 157.329L38.4738 154.748L35.9022 159.848L40.9846 162.429L43.5561 157.329Z" fill="#243454"/>
    <path d="M43.4502 157.365L38.5085 154.855L30.4604 170.819L35.4021 173.328L43.4502 157.365Z" fill="#243454"/>
    <path d="M46.0203 152.44L40.938 149.859L38.3664 154.96L43.4488 157.541L46.0203 152.44Z" fill="#243454"/>
    <path d="M45.9146 152.475L40.9734 149.966L38.4733 154.925L43.4145 157.434L45.9146 152.475Z" fill="#243454"/>
    <path d="M48.5205 147.48L43.4381 144.899L40.8666 150L45.9489 152.581L48.5205 147.48Z" fill="#243454"/>
    <path d="M48.4148 147.516L43.4736 145.007L40.9735 149.966L45.9147 152.475L48.4148 147.516Z" fill="#243454"/>
    <path d="M50.9856 142.592L45.9032 140.011L43.3317 145.111L48.414 147.692L50.9856 142.592Z" fill="#243454"/>
    <path d="M50.8789 142.627L45.9377 140.118L43.4376 145.077L48.3788 147.586L50.8789 142.627Z" fill="#243454"/>
    <path d="M53.4858 137.632L48.4034 135.052L45.8319 140.152L50.9143 142.733L53.4858 137.632Z" fill="#243454"/>
    <path d="M53.38 137.667L48.4388 135.158L45.9745 140.046L50.9156 142.555L53.38 137.667Z" fill="#243454"/>
    <path d="M55.9509 132.744L50.8685 130.163L48.297 135.264L53.3793 137.845L55.9509 132.744Z" fill="#243454"/>
    <path d="M55.8441 132.779L50.903 130.269L48.4028 135.228L53.344 137.737L55.8441 132.779Z" fill="#243454"/>
    <path d="M58.4517 127.783L53.3694 125.202L50.7978 130.303L55.8802 132.884L58.4517 127.783Z" fill="#243454"/>
    <path d="M58.3451 127.819L53.4039 125.31L50.9038 130.269L55.845 132.778L58.3451 127.819Z" fill="#243454"/>
    <path d="M60.916 122.896L55.8336 120.315L53.2621 125.415L58.3444 127.996L60.916 122.896Z" fill="#243454"/>
    <path d="M60.8101 122.93L55.8689 120.421L53.3688 125.38L58.31 127.889L60.8101 122.93Z" fill="#243454"/>
    <path d="M63.417 117.935L58.3346 115.354L55.7631 120.455L60.8454 123.036L63.417 117.935Z" fill="#243454"/>
    <path d="M63.3998 117.928L58.4586 115.419L55.9942 120.307L60.9354 122.816L63.3998 117.928Z" fill="#243454"/>
    <path d="M38.6135 154.819L33.5306 152.238L29.491 160.251L34.5738 162.832L38.6135 154.819Z" fill="#131E33"/>
    <path d="M41.0791 149.93L35.9967 147.349L33.4252 152.45L38.5075 155.031L41.0791 149.93Z" fill="#131E33"/>
    <path d="M40.9733 149.965L36.0321 147.456L33.532 152.415L38.4732 154.924L40.9733 149.965Z" fill="#131E33"/>
    <path d="M43.5784 144.971L38.4961 142.39L35.9246 147.491L41.0069 150.072L43.5784 144.971Z" fill="#131E33"/>
    <path d="M43.4736 145.007L38.5325 142.498L36.0324 147.456L40.9735 149.966L43.4736 145.007Z" fill="#131E33"/>
    <path d="M46.0441 140.082L40.9618 137.501L38.3903 142.602L43.4726 145.183L46.0441 140.082Z" fill="#131E33"/>
    <path d="M45.9375 140.117L40.9963 137.608L38.4962 142.567L43.4374 145.076L45.9375 140.117Z" fill="#131E33"/>
    <path d="M48.5444 135.123L43.462 132.542L40.8905 137.643L45.9729 140.224L48.5444 135.123Z" fill="#131E33"/>
    <path d="M48.4386 135.157L43.4974 132.648L41.033 137.536L45.9742 140.046L48.4386 135.157Z" fill="#131E33"/>
    <path d="M51.0094 130.234L45.927 127.653L43.3555 132.754L48.4378 135.335L51.0094 130.234Z" fill="#131E33"/>
    <path d="M50.9036 130.269L45.9624 127.76L43.4623 132.719L48.4035 135.228L50.9036 130.269Z" fill="#131E33"/>
    <path d="M53.5097 125.274L48.4274 122.693L45.8558 127.793L50.9382 130.374L53.5097 125.274Z" fill="#243454"/>
    <path d="M53.4038 125.309L48.4626 122.8L45.9625 127.759L50.9037 130.268L53.4038 125.309Z" fill="#243454"/>
    <path d="M55.9738 120.386L50.8915 117.805L48.3199 122.905L53.4023 125.486L55.9738 120.386Z" fill="#243454"/>
    <path d="M55.8689 120.421L50.9277 117.911L48.4276 122.87L53.3688 125.38L55.8689 120.421Z" fill="#243454"/>
    <path d="M58.4747 115.426L53.3923 112.845L50.8208 117.946L55.9031 120.527L58.4747 115.426Z" fill="#243454"/>
    <path d="M60.3563 113.869L50.6289 113.869L50.6289 119.348L60.3563 119.348L60.3563 113.869Z" fill="#243454"/>
    <path d="M38.0766 229.664L32.9865 227.097L30.429 232.206L35.5191 234.772L38.0766 229.664Z" fill="#0A0F1A"/>
    <path d="M33.1272 227.168L28.0371 224.601L25.4796 229.71L30.5698 232.277L33.1272 227.168Z" fill="#0A0F1A"/>
    <path d="M35.6144 222.201L30.5243 219.634L27.9668 224.743L33.0569 227.309L35.6144 222.201Z" fill="#111724"/>
    <path d="M28.2496 224.708L23.1594 222.141L20.6019 227.25L25.6921 229.817L28.2496 224.708Z" fill="#0A0F1A"/>
    <path d="M30.736 219.741L25.6459 217.175L23.0884 222.283L28.1785 224.85L30.736 219.741Z" fill="#111724"/>
    <path d="M33.1869 214.846L28.0968 212.279L25.5393 217.388L30.6295 219.955L33.1869 214.846Z" fill="#111724"/>
    <path d="M23.1946 222.248L18.2458 219.752L15.7594 224.719L20.7082 227.214L23.1946 222.248Z" fill="#0A0F1A"/>
    <path d="M25.7869 217.246L20.6968 214.679L18.1393 219.788L23.2294 222.354L25.7869 217.246Z" fill="#111724"/>
    <path d="M28.2378 212.35L23.1477 209.783L20.5902 214.892L25.6804 217.459L28.2378 212.35Z" fill="#111724"/>
    <path d="M18.3512 219.717L13.2611 217.15L10.7036 222.259L15.7938 224.826L18.3512 219.717Z" fill="#0A0F1A"/>
    <path d="M20.8384 214.749L15.7483 212.183L13.1908 217.291L18.2809 219.858L20.8384 214.749Z" fill="#111724"/>
    <path d="M23.2895 209.855L18.1993 207.288L15.6419 212.397L20.732 214.964L23.2895 209.855Z" fill="#111724"/>
    <path d="M25.7759 204.888L20.6858 202.321L18.1283 207.43L23.2185 209.997L25.7759 204.888Z" fill="#111724"/>
    <path d="M28.2269 199.993L23.1367 197.426L20.5793 202.534L25.6694 205.101L28.2269 199.993Z" fill="#243454"/>
    <path d="M30.7135 195.026L25.6234 192.459L23.0659 197.567L28.1561 200.134L30.7135 195.026Z" fill="#243454"/>
    <path d="M33.1637 190.129L28.0736 187.563L25.5161 192.671L30.6063 195.238L33.1637 190.129Z" fill="#243454"/>
    <path d="M35.6497 185.163L30.5596 182.596L28.0021 187.705L33.0922 190.272L35.6497 185.163Z" fill="#243454"/>
    <path d="M38.1363 180.196L33.0461 177.629L30.4887 182.738L35.5788 185.305L38.1363 180.196Z" fill="#243454"/>
    <path d="M40.5873 175.301L35.4972 172.734L32.9397 177.842L38.0298 180.409L40.5873 175.301Z" fill="#243454"/>
    <path d="M45.1676 166.031L40.0775 163.465L35.1508 173.306L40.2409 175.873L45.1676 166.031Z" fill="#243454"/>
    <path d="M13.4734 217.257L8.3833 214.691L5.82582 219.799L10.916 222.366L13.4734 217.257Z" fill="#0A0F1A"/>
    <path d="M15.96 212.29L10.8699 209.724L8.3124 214.832L13.4025 217.399L15.96 212.29Z" fill="#111724"/>
    <path d="M18.4111 207.395L13.3209 204.828L10.7635 209.937L15.8536 212.503L18.4111 207.395Z" fill="#111724"/>
    <path d="M20.8975 202.428L15.8074 199.861L13.2499 204.97L18.34 207.536L20.8975 202.428Z" fill="#111724"/>
    <path d="M23.3484 197.532L18.2583 194.965L15.7008 200.074L20.791 202.641L23.3484 197.532Z" fill="#243454"/>
    <path d="M25.8351 192.566L20.745 190L18.1875 195.108L23.2777 197.675L25.8351 192.566Z" fill="#243454"/>
    <path d="M28.2859 187.67L23.1958 185.103L20.6383 190.212L25.7285 192.778L28.2859 187.67Z" fill="#243454"/>
    <path d="M30.7726 182.704L25.6825 180.137L23.125 185.246L28.2152 187.812L30.7726 182.704Z" fill="#243454"/>
    <path d="M33.2592 177.737L28.1691 175.17L25.6116 180.279L30.7017 182.845L33.2592 177.737Z" fill="#243454"/>
    <path d="M37.2717 169.72L32.1815 167.154L28.0617 175.383L33.1518 177.95L37.2717 169.72Z" fill="#243454"/>
    <path d="M8.52507 214.762L3.43494 212.195L0.877459 217.304L5.96759 219.871L8.52507 214.762Z" fill="#0A0F1A"/>
    <path d="M11.0115 209.795L5.92139 207.228L3.36391 212.337L8.45404 214.904L11.0115 209.795Z" fill="#111724"/>
    <path d="M13.3561 204.935L8.40735 202.44L5.92092 207.407L10.8697 209.902L13.3561 204.935Z" fill="#111724"/>
    <path d="M15.949 199.933L10.8589 197.366L8.30142 202.475L13.3916 205.041L15.949 199.933Z" fill="#111724"/>
    <path d="M18.3995 195.037L13.3093 192.47L10.7519 197.578L15.842 200.145L18.3995 195.037Z" fill="#131E33"/>
    <path d="M20.886 190.071L15.7959 187.504L13.2384 192.613L18.3286 195.179L20.886 190.071Z" fill="#131E33"/>
    <path d="M23.3368 185.174L18.2467 182.607L15.6892 187.716L20.7794 190.283L23.3368 185.174Z" fill="#131E33"/>
    <path d="M25.8234 180.208L20.7333 177.641L18.1758 182.75L23.2659 185.317L25.8234 180.208Z" fill="#131E33"/>
    <path d="M36.1446 159.589L31.0544 157.022L20.6613 177.783L25.7514 180.349L36.1446 159.589Z" fill="#131E33"/>
    <path d="M81.6828 123.911H72.047V134.376H81.6828V123.911Z" fill="#243454"/>
    <path d="M72.047 123.911H62.2715V134.376H72.047V123.911Z" fill="#243454"/>
    <path d="M62.2715 123.911H52.4974V134.376H62.2715V123.911Z" fill="#243454"/>
    <path d="M52.6358 123.911H42.8604V134.376H52.6358V123.911Z" fill="#243454"/>
    <path d="M103.854 82.1869L102.441 87.4791L107.715 88.8972L109.127 83.6049L103.854 82.1869Z" fill="#FFE4CE"/>
    <path d="M98.5815 80.769L97.1686 86.0613L102.518 87.4999L103.931 82.2076L98.5815 80.769Z" fill="#FFE4CE"/>
    <path d="M93.2319 79.3304L91.819 84.6227L97.1685 86.0613L98.5815 80.769L93.2319 79.3304Z" fill="#FFE4CE"/>
    <path d="M87.8706 77.8893L86.4576 83.1815L91.8951 84.6438L93.3081 79.3515L87.8706 77.8893Z" fill="white"/>
    <path d="M82.6092 76.4732L81.1963 81.7655L86.4694 83.1836L87.8823 77.8913L82.6092 76.4732Z" fill="#243454"/>
    <path d="M77.3364 75.0556L75.9235 80.3479L81.273 81.7865L82.6859 76.4943L77.3364 75.0556Z" fill="#243454"/>
    <path d="M102.442 87.4794L101.008 92.8484L106.281 94.2664L107.715 88.8975L102.442 87.4794Z" fill="#FFE4CE"/>
    <path d="M97.1686 86.0615L95.7352 91.4304L101.085 92.869L102.518 87.5001L97.1686 86.0615Z" fill="#FFE4CE"/>
    <path d="M91.8189 84.623L90.3855 89.9919L95.7351 91.4305L97.1685 86.0616L91.8189 84.623Z" fill="#FFE4CE"/>
    <path d="M81.9203 81.9818L80.4869 87.3507L90.3857 90.0127L91.8191 84.6437L81.9203 81.9818Z" fill="#F57E77"/>
    <path d="M81.1962 81.7658L79.7628 87.1348L85.0359 88.5528L86.4694 83.1839L81.1962 81.7658Z" fill="#131E33"/>
    <path d="M75.9236 80.348L74.4902 85.7169L79.8398 87.1555L81.2732 81.7866L75.9236 80.348Z" fill="#F57E77"/>
    <path d="M95.7554 91.3535L94.322 96.7224L99.6716 98.161L101.105 92.7921L95.7554 91.3535Z" fill="#FFE4CE"/>
    <path d="M90.4062 89.9149L88.9728 95.2838L94.3223 96.7224L95.7557 91.3535L90.4062 89.9149Z" fill="#F57E77"/>
    <path d="M86.4578 83.2058L85.0244 88.5747L90.374 90.0133L91.8074 84.6444L86.4578 83.2058Z" fill="#877A86"/>
    <path d="M81.6274 116.318H75.9309V122.035H81.6274V116.318Z" fill="#243454"/>
    <path d="M81.5485 116.398H76.0894V121.956H81.5485V116.398Z" fill="#243454"/>
    <path d="M81.6274 110.76H75.9309V116.477H81.6274V110.76Z" fill="#243454"/>
    <path d="M81.5485 110.839H76.0894V116.397H81.5485V110.839Z" fill="#243454"/>
    <path d="M81.6274 105.281H75.9309V110.998H81.6274V105.281Z" fill="#243454"/>
    <path d="M81.5485 105.36H76.0894V110.839H81.5485V105.36Z" fill="#243454"/>
    <path d="M81.6274 99.7219H75.9309V105.439H81.6274V99.7219Z" fill="#243454"/>
    <path d="M81.5485 99.8018H76.0894V105.36H81.5485V99.8018Z" fill="#243454"/>
    <path d="M81.6274 94.2429H75.9309V99.9601H81.6274V94.2429Z" fill="#243454"/>
    <path d="M81.5485 94.3228H76.0894V99.8811H81.5485V94.3228Z" fill="#243454"/>
    <path d="M81.6274 88.6849H75.9309V94.4021H81.6274V88.6849Z" fill="#243454"/>
    <path d="M81.5485 88.7638H76.0894V94.3221H81.5485V88.7638Z" fill="#243454"/>
    <path d="M81.6274 83.2058H75.9309V88.923H81.6274V83.2058Z" fill="#243454"/>
    <path d="M81.5485 83.2848H76.0894V88.7637H81.5485V83.2848Z" fill="#243454"/>
    <path d="M81.6274 77.6471H75.9309V83.3643H81.6274V77.6471Z" fill="#243454"/>
    <path d="M81.5476 77.0468H76.0885V82.6051H81.5476V77.0468Z" fill="#243454"/>
    <path d="M81.6274 72.1688H75.9309V77.886H81.6274V72.1688Z" fill="#243454"/>
    <path d="M81.5476 71.5676H76.0885V77.126H81.5476V71.5676Z" fill="#243454"/>
    <path d="M81.6274 66.6101H75.9309V72.3273H81.6274V66.6101Z" fill="#243454"/>
    <path d="M81.5485 66.689H76.0894V72.2473H81.5485V66.689Z" fill="#243454"/>
    <path d="M81.6274 61.131H75.9309V66.8481H81.6274V61.131Z" fill="#243454"/>
    <path d="M81.5485 61.2107H76.0894V66.6896H81.5485V61.2107Z" fill="#243454"/>
    <path d="M81.6274 55.573H75.9309V61.2902H81.6274V55.573Z" fill="#243454"/>
    <path d="M81.5485 55.6521H76.0894V61.2104H81.5485V55.6521Z" fill="#243454"/>
    <path d="M85.4873 61.1036H80.0282V66.662H85.4873V61.1036Z" fill="#243454"/>
    <path d="M85.4873 64.5919H80.0282V70.1503H85.4873V64.5919Z" fill="#243454"/>
    <path d="M85.4873 68.0802H80.0282V73.6385H85.4873V68.0802Z" fill="#243454"/>
    <path d="M81.6274 16.9025H75.9309V22.6196H81.6274V16.9025Z" fill="#3D041F"/>
    <path d="M81.5485 16.9814H76.0894V22.5398H81.5485V16.9814Z" fill="#3D041F"/>
    <path d="M81.6274 11.4235H75.9309V17.1406H81.6274V11.4235Z" fill="#621931"/>
    <path d="M81.5485 11.5032H76.0894V17.0615H81.5485V11.5032Z" fill="#621931"/>
    <path d="M81.6274 5.86536H75.9309V11.5825H81.6274V5.86536Z" fill="#621931"/>
    <path d="M81.5485 5.94446H76.0894V11.5028H81.5485V5.94446Z" fill="#621931"/>
    <path d="M76.1676 116.318H70.4711V122.035H76.1676V116.318Z" fill="#243454"/>
    <path d="M76.1676 110.76H70.4711V116.477H76.1676V110.76Z" fill="#243454"/>
    <path d="M76.0888 110.839H70.5505V116.397H76.0888V110.839Z" fill="#243454"/>
    <path d="M76.1676 105.281H70.4711V110.998H76.1676V105.281Z" fill="#243454"/>
    <path d="M76.0888 105.36H70.5505V110.839H76.0888V105.36Z" fill="#243454"/>
    <path d="M76.1676 99.7219H70.4711V105.439H76.1676V99.7219Z" fill="#243454"/>
    <path d="M76.0888 99.8018H70.5505V105.36H76.0888V99.8018Z" fill="#243454"/>
    <path d="M76.1676 94.2429H70.4711V99.9601H76.1676V94.2429Z" fill="#243454"/>
    <path d="M76.0888 94.3228H70.5505V99.8811H76.0888V94.3228Z" fill="#243454"/>
    <path d="M76.1676 88.6849H70.4711V94.4021H76.1676V88.6849Z" fill="#243454"/>
    <path d="M76.0888 88.7638H70.5505V94.3221H76.0888V88.7638Z" fill="#243454"/>
    <path d="M76.1676 83.2058H70.4711V88.923H76.1676V83.2058Z" fill="#243454"/>
    <path d="M76.0888 83.2848H70.5505V88.7637H76.0888V83.2848Z" fill="#243454"/>
    <path d="M76.1676 77.6471H70.4711V83.3643H76.1676V77.6471Z" fill="#243454"/>
    <path d="M76.0888 77.7269H70.5505V83.2853H76.0888V77.7269Z" fill="#243454"/>
    <path d="M76.1676 72.1688H70.4711V77.886H76.1676V72.1688Z" fill="#243454"/>
    <path d="M76.0888 72.2479H70.5505V77.8063H76.0888V72.2479Z" fill="#243454"/>
    <path d="M76.1676 66.6101H70.4711V72.3273H76.1676V66.6101Z" fill="#243454"/>
    <path d="M76.0888 66.689H70.5505V72.2473H76.0888V66.689Z" fill="#374F80"/>
    <path d="M76.1676 61.131H70.4711V66.8481H76.1676V61.131Z" fill="#243454"/>
    <path d="M76.0888 61.2107H70.5505V66.6896H76.0888V61.2107Z" fill="#374F80"/>
    <path d="M76.1676 55.573H70.4711V61.2902H76.1676V55.573Z" fill="#243454"/>
    <path d="M76.0888 55.6521H70.5505V61.2104H76.0888V55.6521Z" fill="#374F80"/>
    <path d="M76.1676 33.4983H70.4711V39.2155H76.1676V33.4983Z" fill="#FFE4CE"/>
    <path d="M76.0888 33.5773H70.5505V39.1356H76.0888V33.5773Z" fill="#FFE4CE"/>
    <path d="M76.1676 27.9395H70.4711V33.6566H76.1676V27.9395Z" fill="#FFE4CE"/>
    <path d="M76.0888 28.0193H70.5505V33.5776H76.0888V28.0193Z" fill="#FFE4CE"/>
    <path d="M73.0774 22.7333H62.6506V29.7096H73.0774V22.7333Z" fill="#FFE4CE"/>
    <path d="M76.1676 22.4613H70.4711V28.1785H76.1676V22.4613Z" fill="#FFE4CE"/>
    <path d="M76.0888 22.5403H70.5505V28.0192H76.0888V22.5403Z" fill="#FFE4CE"/>
    <path d="M76.1676 16.9025H70.4711V22.6196H76.1676V16.9025Z" fill="#FFE4CE"/>
    <path d="M76.0888 16.9814H70.5505V22.5398H76.0888V16.9814Z" fill="#FFE4CE"/>
    <path d="M76.1676 11.4235H70.4711V17.1406H76.1676V11.4235Z" fill="#3D041F"/>
    <path d="M76.0888 11.5032H70.5505V17.0615H76.0888V11.5032Z" fill="#3D041F"/>
    <path d="M76.1676 5.86536H70.4711V11.5825H76.1676V5.86536Z" fill="#621931"/>
    <path d="M76.0888 5.94446H70.5505V11.5028H76.0888V5.94446Z" fill="#621931"/>
    <path d="M76.1676 0.386475H70.4711V6.10363H76.1676V0.386475Z" fill="#621931"/>
    <path d="M76.0888 0.46521H70.5505V5.94415H76.0888V0.46521Z" fill="#621931"/>
    <path d="M70.6297 116.318H64.9332V122.035H70.6297V116.318Z" fill="#243454"/>
    <path d="M70.5511 116.398H65.0128V121.956H70.5511V116.398Z" fill="#243454"/>
    <path d="M70.6297 110.76H64.9332V116.477H70.6297V110.76Z" fill="#243454"/>
    <path d="M70.5511 110.839H65.0128V116.397H70.5511V110.839Z" fill="#243454"/>
    <path d="M70.6297 105.281H64.9332V110.998H70.6297V105.281Z" fill="#243454"/>
    <path d="M70.5511 105.36H65.0128V110.839H70.5511V105.36Z" fill="#243454"/>
    <path d="M70.6297 99.7219H64.9332V105.439H70.6297V99.7219Z" fill="#243454"/>
    <path d="M70.5511 99.8018H65.0128V105.36H70.5511V99.8018Z" fill="#243454"/>
    <path d="M70.6297 94.2429H64.9332V99.9601H70.6297V94.2429Z" fill="#243454"/>
    <path d="M70.5511 94.3228H65.0128V99.8811H70.5511V94.3228Z" fill="#243454"/>
    <path d="M70.6297 88.6849H64.9332V94.4021H70.6297V88.6849Z" fill="#243454"/>
    <path d="M70.5511 88.7638H65.0128V94.3221H70.5511V88.7638Z" fill="#243454"/>
    <path d="M70.6297 83.2058H64.9332V88.923H70.6297V83.2058Z" fill="#243454"/>
    <path d="M70.5511 83.2848H65.0128V88.7637H70.5511V83.2848Z" fill="#243454"/>
    <path d="M70.6297 77.6471H64.9332V83.3643H70.6297V77.6471Z" fill="#243454"/>
    <path d="M70.5511 77.7269H65.0128V83.2853H70.5511V77.7269Z" fill="#243454"/>
    <path d="M70.6297 72.1688H64.9332V77.886H70.6297V72.1688Z" fill="#243454"/>
    <path d="M70.5511 72.2479H65.0128V77.8063H70.5511V72.2479Z" fill="#374F80"/>
    <path d="M70.6297 66.6101H64.9332V72.3273H70.6297V66.6101Z" fill="#243454"/>
    <path d="M70.5511 66.689H65.0128V72.2473H70.5511V66.689Z" fill="#243454"/>
    <path d="M70.6297 61.131H64.9332V66.8481H70.6297V61.131Z" fill="#243454"/>
    <path d="M70.5511 61.2107H65.0128V66.6896H70.5511V61.2107Z" fill="#243454"/>
    <path d="M70.6297 55.573H64.9332V61.2902H70.6297V55.573Z" fill="#F57E77"/>
    <path d="M70.5511 55.6521H65.0128V61.2104H70.5511V55.6521Z" fill="#F57E77"/>
    <path d="M70.6297 50.015H64.9332V55.7322H70.6297V50.015Z" fill="#F57E77"/>
    <path d="M70.5511 50.0941H65.0128V55.6525H70.5511V50.0941Z" fill="#F57E77"/>
    <path d="M70.6297 44.5353H64.9332V50.2524H70.6297V44.5353Z" fill="#F57E77"/>
    <path d="M70.6297 38.9773H64.9332V44.6945H70.6297V38.9773Z" fill="#FFE4CE"/>
    <path d="M73.0769 19.2458H52.2234V29.7104H73.0769V19.2458Z" fill="#FFE4CE"/>
    <path d="M70.6297 33.4983H64.9332V39.2155H70.6297V33.4983Z" fill="#FFE4CE"/>
    <path d="M70.5511 33.5773H65.0128V39.1356H70.5511V33.5773Z" fill="#FFE4CE"/>
    <path d="M70.6297 27.9395H64.9332V33.6566H70.6297V27.9395Z" fill="#FFE4CE"/>
    <path d="M70.5511 28.0193H65.0128V33.5776H70.5511V28.0193Z" fill="#FFE4CE"/>
    <path d="M70.6297 16.9025H64.9332V22.6196H70.6297V16.9025Z" fill="#FFE4CE"/>
    <path d="M70.5511 16.9814H65.0128V22.5398H70.5511V16.9814Z" fill="#FFE4CE"/>
    <path d="M70.6297 11.4235H64.9332V17.1406H70.6297V11.4235Z" fill="#FFE4CE"/>
    <path d="M70.5511 11.5032H65.0128V17.0615H70.5511V11.5032Z" fill="#FFE4CE"/>
    <path d="M70.6297 5.86536H64.9332V11.5825H70.6297V5.86536Z" fill="#3D041F"/>
    <path d="M70.5511 5.94446H65.0128V11.5028H70.5511V5.94446Z" fill="#3D041F"/>
    <path d="M70.6297 0.386475H64.9332V6.10363H70.6297V0.386475Z" fill="#621931"/>
    <path d="M70.5511 0.46521H65.0128V5.94415H70.5511V0.46521Z" fill="#621931"/>
    <path d="M61.6153 122.035H56.077V123.919H61.6153V122.035Z" fill="#131E33"/>
    <path d="M56.8332 120.403H46.4065V123.891H56.8332V120.403Z" fill="#131E33"/>
    <path d="M65.1715 110.76H59.475V116.477H65.1715V110.76Z" fill="#243454"/>
    <path d="M65.091 110.839H59.5527V116.397H65.091V110.839Z" fill="#243454"/>
    <path d="M65.1715 105.281H59.475V110.998H65.1715V105.281Z" fill="#243454"/>
    <path d="M65.091 105.36H59.5527V110.839H65.091V105.36Z" fill="#243454"/>
    <path d="M65.1715 99.7219H59.475V105.439H65.1715V99.7219Z" fill="#243454"/>
    <path d="M65.091 99.8018H59.5527V105.36H65.091V99.8018Z" fill="#243454"/>
    <path d="M65.1715 94.2429H59.475V99.9601H65.1715V94.2429Z" fill="#243454"/>
    <path d="M65.091 94.3228H59.5527V99.8811H65.091V94.3228Z" fill="#243454"/>
    <path d="M65.1715 88.6849H59.475V94.4021H65.1715V88.6849Z" fill="#243454"/>
    <path d="M65.091 88.7638H59.5527V94.3221H65.091V88.7638Z" fill="#243454"/>
    <path d="M65.1715 83.2058H59.475V88.923H65.1715V83.2058Z" fill="#243454"/>
    <path d="M65.091 83.2848H59.5527V88.7637H65.091V83.2848Z" fill="#243454"/>
    <path d="M65.1715 77.6471H59.475V83.3643H65.1715V77.6471Z" fill="#243454"/>
    <path d="M65.091 77.7269H59.5527V83.2853H65.091V77.7269Z" fill="#243454"/>
    <path d="M65.1715 72.1688H59.475V77.886H65.1715V72.1688Z" fill="#243454"/>
    <path d="M65.091 72.2479H59.5527V77.8063H65.091V72.2479Z" fill="#243454"/>
    <path d="M65.1715 66.6101H59.475V72.3273H65.1715V66.6101Z" fill="#243454"/>
    <path d="M65.1715 61.131H59.475V66.8481H65.1715V61.131Z" fill="#F57E77"/>
    <path d="M70.4711 61.2107H59.5527V69.0142H70.4711V61.2107Z" fill="#243454"/>
    <path d="M65.1715 55.573H59.475V61.2902H65.1715V55.573Z" fill="#FFE4CE"/>
    <path d="M65.091 55.6521H59.5527V61.2104H65.091V55.6521Z" fill="#FFE4CE"/>
    <path d="M65.1715 50.015H59.475V55.7322H65.1715V50.015Z" fill="#FFE4CE"/>
    <path d="M65.091 50.0941H59.5527V55.6525H65.091V50.0941Z" fill="#FFE4CE"/>
    <path d="M65.1715 44.5353H59.475V50.2524H65.1715V44.5353Z" fill="#FFE4CE"/>
    <path d="M65.091 44.6151H59.5527V50.0941H65.091V44.6151Z" fill="#FFE4CE"/>
    <path d="M65.1715 38.9773H59.475V44.6945H65.1715V38.9773Z" fill="#FFE4CE"/>
    <path d="M65.091 39.0563H59.5527V44.6146H65.091V39.0563Z" fill="#FFE4CE"/>
    <path d="M65.1715 33.4983H59.475V39.2155H65.1715V33.4983Z" fill="#FFE4CE"/>
    <path d="M65.091 33.5773H59.5527V39.1356H65.091V33.5773Z" fill="#FFE4CE"/>
    <path d="M65.1715 27.9395H59.475V33.6566H65.1715V27.9395Z" fill="#FFE4CE"/>
    <path d="M65.091 28.0193H59.5527V33.5776H65.091V28.0193Z" fill="#FFE4CE"/>
    <path d="M65.1715 22.4613H59.475V28.1785H65.1715V22.4613Z" fill="#FFE4CE"/>
    <path d="M65.091 22.5403H59.5527V28.0192H65.091V22.5403Z" fill="#FFE4CE"/>
    <path d="M65.1715 16.9025H59.475V22.6196H65.1715V16.9025Z" fill="#FFE4CE"/>
    <path d="M65.091 16.9814H59.5527V22.5398H65.091V16.9814Z" fill="#FFE4CE"/>
    <path d="M65.1715 11.4235H59.475V17.1406H65.1715V11.4235Z" fill="#FFE4CE"/>
    <path d="M65.091 11.5032H59.5527V17.0615H65.091V11.5032Z" fill="#FFE4CE"/>
    <path d="M65.1715 5.86536H59.475V11.5825H65.1715V5.86536Z" fill="#3D041F"/>
    <path d="M65.091 5.94446H59.5527V11.5028H65.091V5.94446Z" fill="#3D041F"/>
    <path d="M65.1715 0.386475H59.475V6.10363H65.1715V0.386475Z" fill="#621931"/>
    <path d="M65.091 0.46521H59.5527V5.94415H65.091V0.46521Z" fill="#621931"/>
    <path d="M59.6324 110.76H53.9359V116.477H59.6324V110.76Z" fill="#243454"/>
    <path d="M59.4749 110.839H54.0157V116.397H59.4749V110.839Z" fill="#243454"/>
    <path d="M59.6324 105.281H53.9359V110.998H59.6324V105.281Z" fill="#243454"/>
    <path d="M59.4749 105.36H54.0157V110.839H59.4749V105.36Z" fill="#243454"/>
    <path d="M59.6324 99.7219H53.9359V105.439H59.6324V99.7219Z" fill="#243454"/>
    <path d="M59.4749 99.8018H54.0157V105.36H59.4749V99.8018Z" fill="#243454"/>
    <path d="M59.6324 94.2429H53.9359V99.9601H59.6324V94.2429Z" fill="#243454"/>
    <path d="M59.4749 94.3228H54.0157V99.8811H59.4749V94.3228Z" fill="#243454"/>
    <path d="M59.6324 88.6849H53.9359V94.4021H59.6324V88.6849Z" fill="#243454"/>
    <path d="M59.4749 88.7638H54.0157V94.3221H59.4749V88.7638Z" fill="#243454"/>
    <path d="M59.6324 83.2058H53.9359V88.923H59.6324V83.2058Z" fill="#243454"/>
    <path d="M59.4749 83.2848H54.0157V88.7637H59.4749V83.2848Z" fill="#243454"/>
    <path d="M59.6324 77.6471H53.9359V83.3643H59.6324V77.6471Z" fill="#243454"/>
    <path d="M59.4749 77.7269H54.0157V83.2853H59.4749V77.7269Z" fill="#243454"/>
    <path d="M59.6324 72.1688H53.9359V77.886H59.6324V72.1688Z" fill="#243454"/>
    <path d="M59.4749 72.2479H54.0157V77.8063H59.4749V72.2479Z" fill="#243454"/>
    <path d="M59.6324 66.6101H53.9359V72.3273H59.6324V66.6101Z" fill="#243454"/>
    <path d="M59.4749 66.689H54.0157V72.2473H59.4749V66.689Z" fill="#243454"/>
    <path d="M59.6324 61.131H53.9359V66.8481H59.6324V61.131Z" fill="#243454"/>
    <path d="M59.4749 61.2107H54.0157V66.6896H59.4749V61.2107Z" fill="#374F80"/>
    <path d="M59.6324 55.573H53.9359V61.2902H59.6324V55.573Z" fill="#FFE4CE"/>
    <path d="M59.4749 55.6521H54.0157V61.2104H59.4749V55.6521Z" fill="#FFE4CE"/>
    <path d="M59.6324 50.015H53.9359V55.7322H59.6324V50.015Z" fill="#FFE4CE"/>
    <path d="M59.4749 50.0941H54.0157V55.6525H59.4749V50.0941Z" fill="#FFE4CE"/>
    <path d="M59.6324 44.5353H53.9359V50.2524H59.6324V44.5353Z" fill="#FFE4CE"/>
    <path d="M59.4749 44.6151H54.0157V50.0941H59.4749V44.6151Z" fill="#FFE4CE"/>
    <path d="M59.6324 38.9773H53.9359V44.6945H59.6324V38.9773Z" fill="#FFE4CE"/>
    <path d="M59.4749 39.0563H54.0157V44.6146H59.4749V39.0563Z" fill="#FFE4CE"/>
    <path d="M59.6324 33.4983H53.9359V39.2155H59.6324V33.4983Z" fill="#FFE4CE"/>
    <path d="M59.4749 33.5773H54.0157V39.1356H59.4749V33.5773Z" fill="#FFE4CE"/>
    <path d="M59.6324 27.9395H53.9359V33.6566H59.6324V27.9395Z" fill="#FFE4CE"/>
    <path d="M59.4749 28.0193H54.0157V33.5776H59.4749V28.0193Z" fill="#FFE4CE"/>
    <path d="M59.6324 16.9025H53.9359V22.6196H59.6324V16.9025Z" fill="#FFE4CE"/>
    <path d="M59.4749 16.9814H54.0157V22.5398H59.4749V16.9814Z" fill="#FFE4CE"/>
    <path d="M59.6324 11.4235H53.9359V17.1406H59.6324V11.4235Z" fill="#FFE4CE"/>
    <path d="M59.4749 11.5032H54.0157V17.0615H59.4749V11.5032Z" fill="#FFE4CE"/>
    <path d="M59.6324 5.86536H53.9359V11.5825H59.6324V5.86536Z" fill="#3D041F"/>
    <path d="M59.4749 5.94446H54.0157V11.5028H59.4749V5.94446Z" fill="#3D041F"/>
    <path d="M59.6324 0.386475H53.9359V6.10363H59.6324V0.386475Z" fill="#621931"/>
    <path d="M59.4749 0.46521H54.0157V5.94415H59.4749V0.46521Z" fill="#621931"/>
    <path d="M54.1734 116.318H48.4769V122.035H54.1734V116.318Z" fill="#243454"/>
    <path d="M54.0939 116.398H48.5557V121.956H54.0939V116.398Z" fill="#243454"/>
    <path d="M54.1734 110.76H48.4769V116.477H54.1734V110.76Z" fill="#243454"/>
    <path d="M54.0939 110.839H48.5557V116.397H54.0939V110.839Z" fill="#243454"/>
    <path d="M54.1734 105.281H48.4769V110.998H54.1734V105.281Z" fill="#243454"/>
    <path d="M54.0939 105.36H48.5557V110.839H54.0939V105.36Z" fill="#243454"/>
    <path d="M54.1734 99.7219H48.4769V105.439H54.1734V99.7219Z" fill="#243454"/>
    <path d="M54.0939 99.8018H48.5557V105.36H54.0939V99.8018Z" fill="#243454"/>
    <path d="M54.1734 94.2429H48.4769V99.9601H54.1734V94.2429Z" fill="#243454"/>
    <path d="M54.0939 94.3228H48.5557V99.8811H54.0939V94.3228Z" fill="#243454"/>
    <path d="M54.1734 88.6849H48.4769V94.4021H54.1734V88.6849Z" fill="#243454"/>
    <path d="M54.0939 88.7638H48.5557V94.3221H54.0939V88.7638Z" fill="#243454"/>
    <path d="M54.1734 83.2058H48.4769V88.923H54.1734V83.2058Z" fill="#243454"/>
    <path d="M54.0939 83.2848H48.5557V88.7637H54.0939V83.2848Z" fill="#243454"/>
    <path d="M54.1734 77.6471H48.4769V83.3643H54.1734V77.6471Z" fill="#243454"/>
    <path d="M54.0939 77.7269H48.5557V83.2853H54.0939V77.7269Z" fill="#243454"/>
    <path d="M54.1734 72.1688H48.4769V77.886H54.1734V72.1688Z" fill="#243454"/>
    <path d="M54.0939 72.2479H48.5557V77.8063H54.0939V72.2479Z" fill="#243454"/>
    <path d="M54.1734 66.6101H48.4769V72.3273H54.1734V66.6101Z" fill="#243454"/>
    <path d="M54.0939 66.689H48.5557V72.2473H54.0939V66.689Z" fill="#243454"/>
    <path d="M54.1734 61.131H48.4769V66.8481H54.1734V61.131Z" fill="#243454"/>
    <path d="M54.0939 61.2107H48.5557V66.6896H54.0939V61.2107Z" fill="#243454"/>
    <path d="M54.1734 55.573H48.4769V61.2902H54.1734V55.573Z" fill="#243454"/>
    <path d="M53.936 55.6521H48.5557V61.2104H53.936V55.6521Z" fill="#374F80"/>
    <path d="M54.1734 33.4983H48.4769V39.2155H54.1734V33.4983Z" fill="#FFE4CE"/>
    <path d="M54.0939 33.5773H48.5557V39.1356H54.0939V33.5773Z" fill="#F57E77"/>
    <path d="M54.1734 27.9395H48.4769V33.6566H54.1734V27.9395Z" fill="#FFE4CE"/>
    <path d="M54.0939 28.0193H48.5557V33.5776H54.0939V28.0193Z" fill="#FFE4CE"/>
    <path d="M54.1734 22.4613H48.4769V28.1785H54.1734V22.4613Z" fill="#FFE4CE"/>
    <path d="M54.0939 22.5403H48.5557V28.0192H54.0939V22.5403Z" fill="#FFE4CE"/>
    <path d="M54.1734 16.9025H48.4769V22.6196H54.1734V16.9025Z" fill="#FFE4CE"/>
    <path d="M54.0939 16.9814H48.5557V22.5398H54.0939V16.9814Z" fill="#FFE4CE"/>
    <path d="M54.1734 11.4235H48.4769V17.1406H54.1734V11.4235Z" fill="#3D041F"/>
    <path d="M54.0939 11.5032H48.5557V17.0615H54.0939V11.5032Z" fill="#3D041F"/>
    <path d="M55.6998 15.7574H45.2731V22.7338H55.6998V15.7574Z" fill="#3D041F"/>
    <path d="M59.1745 8.78088H52.2234V19.2454H59.1745V8.78088Z" fill="#3D041F"/>
    <path d="M54.1734 5.86536H48.4769V11.5825H54.1734V5.86536Z" fill="#621931"/>
    <path d="M54.0939 5.94446H48.5557V11.5028H54.0939V5.94446Z" fill="#621931"/>
    <path d="M54.1734 0.386475H48.4769V6.10363H54.1734V0.386475Z" fill="#621931"/>
    <path d="M54.0939 0.46521H48.5557V5.94415H54.0939V0.46521Z" fill="#621931"/>
    <path d="M48.6355 116.318H42.939V122.035H48.6355V116.318Z" fill="#243454"/>
    <path d="M48.5561 116.398H43.0178V121.956H48.5561V116.398Z" fill="#243454"/>
    <path d="M48.6355 110.76H42.939V116.477H48.6355V110.76Z" fill="#243454"/>
    <path d="M48.5561 110.839H43.0178V116.397H48.5561V110.839Z" fill="#243454"/>
    <path d="M48.6355 105.281H42.939V110.998H48.6355V105.281Z" fill="#243454"/>
    <path d="M48.5561 105.36H43.0178V110.839H48.5561V105.36Z" fill="#243454"/>
    <path d="M48.6355 99.7219H42.939V105.439H48.6355V99.7219Z" fill="#243454"/>
    <path d="M48.5561 99.8018H43.0178V105.36H48.5561V99.8018Z" fill="#243454"/>
    <path d="M48.6355 94.2429H42.939V99.9601H48.6355V94.2429Z" fill="#243454"/>
    <path d="M48.6355 88.6849H42.939V94.4021H48.6355V88.6849Z" fill="#243454"/>
    <path d="M48.5561 88.7638H43.0178V94.3221H48.5561V88.7638Z" fill="#131E33"/>
    <path d="M48.6355 83.2058H42.939V88.923H48.6355V83.2058Z" fill="#243454"/>
    <path d="M48.6355 77.6471H42.939V83.3643H48.6355V77.6471Z" fill="#243454"/>
    <path d="M48.5561 77.7269H43.0178V83.2853H48.5561V77.7269Z" fill="#243454"/>
    <path d="M48.6355 72.1688H42.939V77.886H48.6355V72.1688Z" fill="#243454"/>
    <path d="M48.5561 72.2479H43.0178V77.8063H48.5561V72.2479Z" fill="#243454"/>
    <path d="M48.6355 66.6101H42.939V72.3273H48.6355V66.6101Z" fill="#243454"/>
    <path d="M48.5561 66.689H43.0178V72.2473H48.5561V66.689Z" fill="#243454"/>
    <path d="M48.6355 61.131H42.939V66.8481H48.6355V61.131Z" fill="#243454"/>
    <path d="M48.5561 61.2107H43.0178V66.6896H48.5561V61.2107Z" fill="#243454"/>
    <path d="M48.6355 55.573H42.939V61.2902H48.6355V55.573Z" fill="#243454"/>
    <path d="M48.5561 55.6521H43.0178V61.2104H48.5561V55.6521Z" fill="#243454"/>
    <path d="M48.6355 27.9395H42.939V33.6566H48.6355V27.9395Z" fill="#3D041F"/>
    <path d="M48.5561 28.0193H43.0178V33.5776H48.5561V28.0193Z" fill="#3D041F"/>
    <path d="M48.6355 22.4613H42.939V28.1785H48.6355V22.4613Z" fill="#3D041F"/>
    <path d="M48.5561 22.5403H43.0178V28.0192H48.5561V22.5403Z" fill="#3D041F"/>
    <path d="M48.6355 16.9025H42.939V22.6196H48.6355V16.9025Z" fill="#621931"/>
    <path d="M48.5561 16.9814H43.0178V22.5398H48.5561V16.9814Z" fill="#621931"/>
    <path d="M48.6355 11.4235H42.939V17.1406H48.6355V11.4235Z" fill="#621931"/>
    <path d="M48.5561 11.5032H43.0178V17.0615H48.5561V11.5032Z" fill="#621931"/>
    <path d="M48.6355 5.86536H42.939V11.5825H48.6355V5.86536Z" fill="#621931"/>
    <path d="M48.5561 5.94446H43.0178V11.5028H48.5561V5.94446Z" fill="#621931"/>
    <path d="M43.1755 72.1688H37.479V77.886H43.1755V72.1688Z" fill="#243454"/>
    <path d="M43.0969 72.2479H37.5586V77.8063H43.0969V72.2479Z" fill="#243454"/>
    <path d="M43.1755 66.6101H37.479V72.3273H43.1755V66.6101Z" fill="#243454"/>
    <path d="M43.0969 66.689H37.5586V72.2473H43.0969V66.689Z" fill="#243454"/>
    <path d="M43.1755 61.131H37.479V66.8481H43.1755V61.131Z" fill="#243454"/>
    <path d="M43.0969 61.2107H37.5586V66.6896H43.0969V61.2107Z" fill="#243454"/>
    <path d="M43.1755 55.573H37.479V61.2902H43.1755V55.573Z" fill="#243454"/>
    <path d="M43.0969 55.6521H37.5586V61.2104H43.0969V55.6521Z" fill="#243454"/>
    <path d="M45.2729 15.7574H38.3218V26.222H45.2729V15.7574Z" fill="#3D041F"/>
    <path d="M37.6377 72.1688H31.9412V77.886H37.6377V72.1688Z" fill="#243454"/>
    <path d="M37.6377 66.6101H31.9412V72.3273H37.6377V66.6101Z" fill="#243454"/>
    <path d="M37.4798 66.689H32.0206V72.2473H37.4798V66.689Z" fill="#243454"/>
    <path d="M37.6377 61.131H31.9412V66.8481H37.6377V61.131Z" fill="#243454"/>
    <path d="M37.4798 61.2107H32.0206V66.6896H37.4798V61.2107Z" fill="#243454"/>
    <path d="M32.1783 72.1688H26.4818V77.886H32.1783V72.1688Z" fill="#243454"/>
    <path d="M32.1783 66.6101H26.4818V72.3273H32.1783V66.6101Z" fill="#243454"/>
    <path d="M32.0995 66.689H26.5613V72.2473H32.0995V66.689Z" fill="#243454"/>
    <path d="M29.4096 72.0098H23.7131V77.7269H29.4096V72.0098Z" fill="#243454"/>
    <path d="M43.86 22.7333H38.3218V28.2916H43.86V22.7333Z" fill="#3D041F"/>
    <path d="M71.8226 22.7333H66.1261V28.4504H71.8226V22.7333Z" fill="#66667C"/>
    <path d="M50.733 26.2214H45.2738V31.7798H50.733V26.2214Z" fill="#FFE4CE"/>
    <path d="M32.0995 72.2479H26.5613V77.8063H32.0995V72.2479Z" fill="#243454"/>
    <path d="M48.9852 120.528L42.8605 120.528L42.8605 134.369L48.9852 134.369L48.9852 120.528Z" fill="#131E33"/>
    <path d="M48.5561 72.3276H43.0178V88.7637H48.5561V72.3276Z" fill="#131E33"/>
    <path d="M48.5561 86.0623H43.0178V99.8811H48.5561V86.0623Z" fill="#131E33"/>
    <path d="M46.6403 72.2769H37.4003V77.8352H46.6403V72.2769Z" fill="#131E33"/>
    <path d="M48.477 66.8478H43.0178V72.4061H48.477V66.8478Z" fill="#131E33"/>
    <path d="M28.8292 93.3293L29.8892 98.704L41.6405 96.3696L40.5805 90.9949L28.8292 93.3293Z" fill="#243454"/>
    <path d="M29.3353 98.8135L30.4106 104.266L44.5792 101.452L43.5039 95.999L29.3353 98.8135Z" fill="#131E33"/>
    <path d="M62.0794 86.7242L63.1394 92.0989L68.4947 91.0351L67.4347 85.6604L62.0794 86.7242Z" fill="#FFE4CE"/>
    <path d="M56.7241 87.7869L57.7841 93.1616L63.2169 92.0824L62.157 86.7077L56.7241 87.7869Z" fill="#FFE4CE"/>
    <path d="M51.2915 88.8667L52.3514 94.2413L57.7843 93.1621L56.7243 87.7874L51.2915 88.8667Z" fill="#FFE4CE"/>
    <path d="M45.7638 89.9642L46.8237 95.3389L52.4289 94.2254L51.3689 88.8507L45.7638 89.9642Z" fill="white"/>
    <path d="M40.5035 91.009L41.5635 96.3837L46.9187 95.3199L45.8588 89.9452L40.5035 91.009Z" fill="#243454"/>
    <path d="M63.1393 92.0983L64.2146 97.5509L69.5698 96.4871L68.4945 91.0345L63.1393 92.0983Z" fill="#FFE4CE"/>
    <path d="M57.7842 93.1621L58.8595 98.6146L64.2924 97.5354L63.217 92.0828L57.7842 93.1621Z" fill="#FFE4CE"/>
    <path d="M52.3508 94.2413L53.4261 99.6938L58.859 98.6146L57.7837 93.162L52.3508 94.2413Z" fill="#FFE4CE"/>
    <path d="M45.444 95.6133L46.5193 101.066L53.5042 99.6784L52.4289 94.2258L45.444 95.6133Z" fill="#877A86"/>
    <path d="M41.5636 96.3843L42.6389 101.837L47.9942 100.773L46.9188 95.3205L41.5636 96.3843Z" fill="#131E33"/>
    <path d="M58.8441 98.5366L59.9194 103.989L65.3523 102.91L64.277 97.4573L58.8441 98.5366Z" fill="#FFE4CE"/>
    <path d="M53.412 99.6157L54.4873 105.068L59.9202 103.989L58.8448 98.5364L53.412 99.6157Z" fill="#F57E77"/>
    <path d="M70.6291 39.2159H53.9352V44.4562H70.6291V39.2159Z" fill="#FFE4CE"/>
    <path d="M70.4718 44.7739H53.6371V50.9443H70.4718V44.7739Z" fill="#F57E77"/>
    <path d="M59.1753 39.2159H53.6371V44.7743H59.1753V39.2159Z" fill="#F57E77"/>
    <path d="M37.4797 72.2479H25.3525V77.8063H37.4797V72.2479Z" fill="#243454"/>
    <path d="M24.1715 88.4194L29.7048 88.1843L30.3855 104.324L24.8522 104.559L24.1715 88.4194Z" fill="#131E33"/>
    <path d="M23.9369 82.8656L29.4702 82.6305L29.7044 88.1839L24.1711 88.4189L23.9369 82.8656Z" fill="#131E33"/>
    <path d="M23.7058 77.3916L29.2391 77.1565L29.4733 82.7099L23.94 82.9449L23.7058 77.3916Z" fill="#131E33"/>
    <path d="M29.7045 88.1842L35.2378 87.9491L35.4687 93.4231L29.9353 93.6582L29.7045 88.1842Z" fill="#243454"/>
    <path d="M29.4707 82.6312L35.004 82.3961L35.2382 87.9495L29.7049 88.1846L29.4707 82.6312Z" fill="#243454"/>
    <path d="M29.2396 77.1571L34.7729 76.922L35.0072 82.4754L29.4739 82.7104L29.2396 77.1571Z" fill="#243454"/>
    <path d="M65.1713 116.318H53.7106V122.035H65.1713V116.318Z" fill="#243454"/>
    <path d="M81.6827 120.403H72.047V126.542H81.6827V120.403Z" fill="#131E33"/>
    <path d="M72.047 120.403H62.2714V126.542H72.047V120.403Z" fill="#131E33"/>
    <path d="M62.2714 120.403H52.4974V126.542H62.2714V120.403Z" fill="#131E33"/>
    <path d="M52.6358 120.403H42.8604V126.542H52.6358V120.403Z" fill="#131E33"/>
    <path d="M70.6295 55.54H53.9359V61.2687H70.6295V55.54Z" fill="white"/>
    <path d="M70.6297 55.4861H64.9233V71.5677H70.6297V55.4861Z" fill="white"/>
    <path d="M70.6295 55.6998H65.0039V66.6538H70.6295V55.6998Z" fill="white"/>
    <path d="M64.9798 55.4861H59.5354V66.4401H64.9798V55.4861Z" fill="white"/>
    <path d="M70.6289 55.4861H64.9799V71.6284H70.6289V55.4861Z" fill="#E4352F"/>
    <path d="M64.9949 55.5403H59.2922V61.2906H64.9949V55.5403Z" fill="#A3211D"/>
    <path d="M59.3302 55.54H53.8409V61.2903H59.3302V55.54Z" fill="#A3211D"/>
    <path d="M65.0127 66.4401H59.5526V72.2474H65.0127V66.4401Z" fill="#374F80"/>
</svg>
