<svg width="666" height="418" viewBox="0 0 666 418" fill="none" xmlns="http://www.w3.org/2000/svg">
    <path d="M87.8345 75.6666V51.0177H76.6964V75.6666H66.2258V68.1741H53.9709V58.0361H46.6199V68.1741H37.7079V44.781H28.5725V68.1741H21.2215V75.6666H3.8988V238.48H98.4664V75.6666H87.8345Z" fill="#D2E3F1"/>
    <path d="M161.421 28.4509V23.9962H156.964H143.056V18.4916H133.283V12.0316H127.716V18.4916H121.477V0H115.906V18.4916H105.435V23.9962H98.4663H94.0116V28.4509H98.4663V32.4615H94.0116V36.9187H98.4663V40.9268H94.0116V45.384H98.4663V49.3921H94.0116V53.8493H98.4663V57.8598H94.0116V62.3146H98.4663V66.3251H94.0116V70.7824H98.4663V238.48H156.964V104.646H161.421V100.189H156.964V96.1807H161.421V91.7235H156.964V87.713H161.421V83.2582H156.964V79.2477H161.421V74.7904H156.964V70.7824H161.421V66.3251H156.964V62.3146H161.421V57.8598H156.964V53.8493H161.421V49.3921H156.964V45.384H161.421V40.9268H156.964V36.9187H161.421V32.4615H156.964V28.4509H161.421Z" fill="#D2E3F1"/>
    <path d="M209.255 104.914V100.189H201.68V75.7484H197.447V100.189H190.875V92.2397H178.064V100.189H172.495V104.914H156.964V264.558H217.41V104.914H209.255Z" fill="#D2E3F1"/>
    <path d="M289.681 72.7405V68.5538H276.538V72.7405H268.517V46.5629H263.839V72.7405H255.594V66.3252H246.462V61.044H238.996V66.3252H233.008V53.8493H226.632V66.3252H222.401V72.7405H217.41V285.276H298.328V72.7405H289.681Z" fill="#D2E3F1"/>
    <path d="M362.672 92.2398V85.9957H352.063V81.2679H342.687V85.9957H336.244V66.3252H331.122V85.9957H325.106V92.2398H317.976V81.0942H310.178V92.2398H298.328V294.052H387.046V92.2398H362.672Z" fill="#D2E3F1"/>
    <path d="M431.598 131.238V125.652H424.468V110.726H420.458V125.652H414.668V120.974H408.429V125.652H403.622V131.238H387.046V307.699H437.743V131.238H431.598Z" fill="#D2E3F1"/>
    <path d="M522.496 43.89H513.807V39.8795H506.009V29.1856H500.887V39.8795H490.414V43.89H481.949V11.3218H477.27V43.89H467.691V34.978H454.768V24.2841H450.313V34.978H444.298V43.89H434.271V49.9033H437.743V314.037H519.637V49.9033H522.496V43.89Z" fill="#D2E3F1"/>
    <path d="M591.784 104.914V93.1258H581.09V104.914H570.843V97.3596H563.045V90.4529H556.582V97.3596H549.676V78.868H540.766V97.3596H532.968V104.914H519.636V303.311H600.557V104.914H591.784Z" fill="#D2E3F1"/>
    <path d="M633.217 68.8416V63.4934H627.429V46.8979H621.86V63.4934H616.242V68.8416H609.608V57.2568H602.701V68.8416H600.557V225.317H665.877V68.8416H633.217Z" fill="#D2E3F1"/>
    <path d="M64.4762 154.393V145.766H56.7653V154.393H47.0269V140.086H38.9115V117.767H30.7962V140.086H20.6532V154.393H3.8988V296.732H77.9943V154.393H64.4762Z" fill="#A5C6E3"/>
    <path d="M143.056 126.835V122.219H138.44H118.445V115.739H109.193V109.044H105.053V115.739H98.4666V95.451H92.4756V115.739H86.3878V122.219H77.9945V301.12H138.44V170.065H143.056V165.449H138.44V161.419H143.056V156.805H138.44V152.775H143.056V148.159H138.44V144.128H143.056V139.512H138.44V135.482H143.056V130.866H138.44V126.835H143.056Z" fill="#A5C6E3"/>
    <path d="M215.829 169.016V148.159H203.251V169.016H193.036V161.419H185.725V140.086H180.528V161.419H172.818V154.393H163.079V161.419H156.964V169.016H138.44V310.379H233.008V169.016H215.829Z" fill="#A5C6E3"/>
    <path d="M303.477 200.214V181.69H289.555V200.214H280.754V192.778H257.868V169.016H251.944V192.778H246.263V200.214H233.008V323.054H321.726V200.214H303.477Z" fill="#A5C6E3"/>
    <path d="M391.478 154.393V119.797H379.762V154.393H368.4V144.128H356.634V128.724H346.084V144.128H335.462V154.393H321.726V323.054H403.622V154.393H391.478Z" fill="#A5C6E3"/>
    <path d="M487.292 181.69V124.666H482.018V181.69H470.656V171.736H461.323V157.532H451.18V171.736H437.743V141.709H430.08V171.736H417.907V181.69H403.622V334.266H502.088V181.69H487.292Z" fill="#A5C6E3"/>
    <path d="M557.898 218.738V211.501H554.652V179.01H548.971V211.501H542.072V202.169H524.625V211.501H515.698V218.738H502.088V337.19H588.858V218.738H557.898Z" fill="#A5C6E3"/>
    <path d="M575.752 192.778H566.606V230.166H575.752V192.778Z" fill="#A5C6E3"/>
    <path d="M629.313 160.24V150.025H616.242V131.238H609.432V150.025H597.663V160.24H588.858V337.19H661.976V160.24H629.313Z" fill="#A5C6E3"/>
    <path d="M96.3594 278.695V249.772H83.7768V278.695H65.4788V264.558H54.5963V257.977H51.1838V264.558H40.9466V231.573H32.8808V264.558H22.0157V278.695H-6.10352e-05V408.362H109.193V278.695H96.3594Z" fill="#77AAD4"/>
    <path d="M180.424 200.214V179.01H170.701V200.214H156.964V188.683H138.671V174.959H131.243V188.683H120.378V200.214H102.077V206.55H109.193V408.362H193.037V206.55H198.722V200.214H180.424Z" fill="#77AAD4"/>
    <path d="M271.922 250.422V200.214H263.345V250.422H250.762V239.699H245.615V231.573H241.294V239.699H230.176V219.467H222.17V239.699H214.735V250.422H193.036V408.362H289.555V250.422H271.922Z" fill="#77AAD4"/>
    <path d="M326.307 307.456V285.276H306.805V307.456H289.555V408.362H342.2V307.456H326.307Z" fill="#77AAD4"/>
    <path d="M428.042 225.074V218.37H406.883V225.074H394.846V211.67H377.131V192.778H367.422V211.67H359.416V225.074H342.2H335.462V231.812H342.2V240.786H335.462V247.524H342.2V256.5H335.462V263.236H342.2V272.212H335.462V278.95H342.2V287.924H335.462V294.662H342.2V303.636H335.462V310.374H342.2V408.362H447.492V225.074H428.042Z" fill="#77AAD4"/>
    <path d="M525.258 267.971V244.156H511.533V267.971H490.374V257.977H478.69V239.699H468.644V257.977H456.634V267.971H447.492V413.236H539.136V267.971H525.258Z" fill="#77AAD4"/>
    <path d="M643.062 294.295V264.558H616.242V294.295H593.883V281.899H588.858V273.895H583.016V281.899H572.724V259.868H560.097V281.899H551.564V294.295H539.136V417.135H661.976V294.295H643.062Z" fill="#77AAD4"/>
</svg>
