<svg width="183" height="125" viewBox="0 0 183 125" fill="none" xmlns="http://www.w3.org/2000/svg">
    <rect width="175" height="85" transform="matrix(1 -8.685e-08 -8.79972e-08 -1 4 114)" fill="white"/>
    <rect width="156" height="15" transform="matrix(1 -9.91056e-08 -7.71127e-08 -1 14 123)" fill="white"/>
    <rect width="7.79396" height="14.1406" transform="matrix(1 -8.74228e-08 -8.74228e-08 -1 10.8615 121.146)" fill="white"/>
    <rect width="7.79396" height="14.1406" transform="matrix(1 -8.74228e-08 -8.74228e-08 -1 8.62646 116.747)" fill="white"/>
    <rect width="7.79396" height="14.1406" transform="matrix(1 -8.74228e-08 -8.74228e-08 -1 6.66589 41.0098)" fill="white"/>
    <rect x="130.798" y="23.9868" width="7.79396" height="18.8014" transform="rotate(-180 130.798 23.9868)" fill="white"/>
    <rect x="125.574" y="28.3076" width="7.79396" height="18.8014" transform="rotate(-180 125.574 28.3076)" fill="white"/>
    <rect width="7" height="17" transform="matrix(1 -8.74228e-08 -8.74228e-08 -1 43 36)" fill="white"/>
    <rect width="7" height="14" transform="matrix(1 -1.03705e-07 -7.36917e-08 -1 168 117)" fill="white"/>
    <rect width="7" height="14" transform="matrix(1 -1.03705e-07 -7.36917e-08 -1 167 38)" fill="white"/>
    <rect width="159" height="14" transform="matrix(1 -1.04024e-07 -7.34694e-08 -1 11 35)" fill="white"/>
    <g opacity="0.3">
        <path d="M128.798 21.6836L133.112 21.6836L133.112 4.32092L128.798 4.32092L128.798 21.6836Z" fill="black"/>
        <path d="M124.485 4.32129L128.798 4.32129L128.798 0.000259399L124.485 0.000259022L124.485 4.32129Z" fill="black"/>
        <path d="M120.094 8.7207L124.407 8.7207L124.407 4.39967L120.094 4.39967L120.094 8.7207Z" fill="black"/>
        <path d="M115.78 13.0415L120.094 13.0415L120.094 8.72047L115.78 8.72047L115.78 13.0415Z" fill="black"/>
        <path d="M111 17.3208L115.313 17.3208L115.313 12.9998L111 12.9998L111 17.3208Z" fill="black"/>
        <path d="M170 23L15 23L15 18L170 18L170 23Z" fill="black"/>
        <path d="M170 125L15 125L15 120L170 120L170 125Z" fill="black"/>
        <path d="M183 111.877L178.687 111.877L178.687 30.6421L183 30.6421L183 111.877Z" fill="black"/>
        <path d="M174.295 120.598L169.982 120.598L169.982 116.277L174.295 116.277L174.295 120.598Z" fill="black"/>
        <path d="M178.608 116.198L174.295 116.198L174.295 111.877L178.608 111.877L178.608 116.198Z" fill="black"/>
        <path d="M174.295 26.3208L169.982 26.3208L169.982 21.9998L174.295 21.9998L174.295 26.3208Z" fill="black"/>
        <path d="M178.608 30.6421L174.295 30.6421L174.295 26.3211L178.608 26.3211L178.608 30.6421Z" fill="black"/>
        <path d="M6.66587 111.64L2.35266 111.64L2.35265 30.4043L6.66587 30.4043L6.66587 111.64Z" fill="black"/>
        <path d="M15.3707 120.36L11.0575 120.36L11.0575 116.039L15.3707 116.039L15.3707 120.36Z" fill="black"/>
        <path d="M10.9791 115.961L6.66589 115.961L6.66589 111.64L10.9791 111.64L10.9791 115.961Z" fill="black"/>
        <path d="M15.3707 26.0835L11.0575 26.0835L11.0575 21.7625L15.3707 21.7625L15.3707 26.0835Z" fill="black"/>
        <path d="M10.9791 30.4043L6.66589 30.4043L6.66589 26.0833L10.9791 26.0833L10.9791 30.4043Z" fill="black"/>
    </g>
    <path d="M131.151 22.4692L135.465 22.4692L135.465 5.10656L131.151 5.10656L131.151 22.4692Z" fill="#231F20"/>
    <path d="M126.838 5.10644L131.151 5.10645L131.151 0.785416L126.838 0.785415L126.838 5.10644Z" fill="#231F20"/>
    <path d="M122.447 9.50635L126.76 9.50635L126.76 5.18532L122.447 5.18532L122.447 9.50635Z" fill="#231F20"/>
    <path d="M118.133 13.8271L122.447 13.8271L122.447 9.50612L118.133 9.50612L118.133 13.8271Z" fill="#231F20"/>
    <path d="M118.112 18.1484L113.799 18.1484L113.799 13.8274L118.112 13.8274L118.112 18.1484Z" fill="#231F20"/>
    <path d="M168 22L43 22L43 18L168 18L168 22Z" fill="#231F20"/>
    <path d="M45 22L13 22L13 18L45 18L45 22Z" fill="#231F20"/>
    <path d="M168 125L13 125L13 121L168 121L168 125Z" fill="#231F20"/>
    <path d="M180.647 112.663L176.334 112.663L176.334 31.4277L180.647 31.4277L180.647 112.663Z" fill="#231F20"/>
    <path d="M171.942 121.384L167.629 121.384L167.629 117.063L171.942 117.063L171.942 121.384Z" fill="#231F20"/>
    <path d="M176.256 116.984L171.942 116.984L171.942 112.663L176.256 112.663L176.256 116.984Z" fill="#231F20"/>
    <path d="M171.942 27.1064L167.629 27.1064L167.629 22.7854L171.942 22.7854L171.942 27.1064Z" fill="#231F20"/>
    <path d="M176.256 31.4277L171.943 31.4277L171.943 27.1067L176.256 27.1067L176.256 31.4277Z" fill="#231F20"/>
    <path d="M4.31321 112.425L0 112.425L-7.10182e-06 31.1899L4.31321 31.1899L4.31321 112.425Z" fill="#231F20"/>
    <path d="M13.018 121.146L8.70483 121.146L8.70483 116.825L13.018 116.825L13.018 121.146Z" fill="#231F20"/>
    <path d="M8.62645 116.747L4.31323 116.747L4.31323 112.426L8.62645 112.426L8.62645 116.747Z" fill="#231F20"/>
    <path d="M13.018 26.8691L8.70483 26.8691L8.70483 22.5481L13.018 22.5481L13.018 26.8691Z" fill="#231F20"/>
    <path d="M8.62645 31.1899L4.31323 31.1899L4.31323 26.8689L8.62645 26.8689L8.62645 31.1899Z" fill="#231F20"/>
    <path d="M19 52V36.4444H23.4444V40.8889H25.6667V38.6667H27.8889V36.4444H32.3333V38.6667H30.1111V40.8889H27.8889V43.1111H25.6667V45.3333H27.8889V47.5556H30.1111V49.7778H32.3333V52H27.8889V49.7778H25.6667V47.5556H23.4444V52H19ZM34.5469 52V49.7778H36.7691V40.8889H47.8802V52H43.4358V43.1111H41.2135V49.7778H38.9913V52H34.5469ZM54.5382 49.7778V52H50.0938V40.8889H54.5382V45.3333H56.7604V43.1111H58.9826V40.8889H63.4271V52H58.9826V47.5556H56.7604V49.7778H54.5382ZM76.7517 40.8889V43.1111H78.974V47.5556H70.0851V49.7778H78.974V52H67.8628V49.7778H65.6406V43.1111H67.8628V40.8889H76.7517ZM74.5295 43.1111H70.0851V45.3333H74.5295V43.1111ZM90.0764 52V47.5556H85.6319V52H81.1875V40.8889H85.6319V45.3333H90.0764V40.8889H94.5208V52H90.0764ZM96.7344 43.1111V40.8889H110.068V43.1111H105.623V52H101.179V43.1111H96.7344ZM123.392 52V40.8889H127.837V52H123.392ZM112.281 52V40.8889H116.726V45.3333H118.948V47.5556H116.726V49.7778H118.948V52H112.281ZM121.17 49.7778H118.948V47.5556H121.17V49.7778Z" fill="#444042"/>
    <path d="M21.5556 67.7778V74H20V66.2222H27.7778V74H26.2222V67.7778H21.5556ZM30.8934 72.4444H29.3379V67.7778H30.8934V72.4444ZM35.5601 67.7778H30.8934V66.2222H35.5601V67.7778ZM37.1157 72.4444H35.5601V67.7778H37.1157V72.4444ZM35.5601 74H30.8934V72.4444H35.5601V74ZM40.2313 74V75.5556H38.6758V72.4444H40.2313V67.7778H41.7869V72.4444H44.898V67.7778H46.4536V72.4444H48.0091V75.5556H46.4536V74H40.2313ZM44.898 67.7778H41.7869V66.2222H44.898V67.7778ZM51.1141 74V75.5556H49.5586V72.4444H51.1141V67.7778H52.6697V72.4444H55.7808V67.7778H57.3364V72.4444H58.8919V75.5556H57.3364V74H51.1141ZM55.7808 67.7778H52.6697V66.2222H55.7808V67.7778ZM66.6636 67.7778H61.997V66.2222H66.6636V67.7778ZM61.997 70.8889V72.4444H60.4414V67.7778H61.997V69.3333H66.6636V67.7778H68.2192V70.8889H61.997ZM68.2192 74H61.997V72.4444H68.2192V74ZM76.0015 67.7778H71.3349V66.2222H76.0015V67.7778ZM71.3349 74V77.1111H69.7793V67.7778H71.3349V72.4444H76.0015V74H71.3349ZM77.5571 72.4444H76.0015V67.7778H77.5571V72.4444ZM83.7839 69.3333H85.3394V70.8889H83.7839V74H82.2283V70.8889H80.6727V69.3333H82.2283V66.2222H83.7839V69.3333ZM86.895 74H85.3394V70.8889H86.895V74ZM86.895 69.3333H85.3394V66.2222H86.895V69.3333ZM80.6727 74H79.1172V70.8889H80.6727V74ZM80.6727 69.3333H79.1172V66.2222H80.6727V69.3333ZM90.0106 72.4444H88.4551V67.7778H90.0106V72.4444ZM94.6773 69.3333H93.1217V67.7778H94.6773V66.2222H96.2329V74H94.6773V72.4444H93.1217V70.8889H94.6773V69.3333ZM93.1217 74H90.0106V72.4444H93.1217V74ZM93.1217 67.7778H90.0106V66.2222H93.1217V67.7778ZM99.3485 70.8889V74H97.793V66.2222H99.3485V69.3333H104.015V66.2222H105.571V74H104.015V70.8889H99.3485ZM108.686 72.4444V74H107.131V66.2222H108.686V70.8889H110.242V72.4444H108.686ZM113.353 67.7778V66.2222H114.909V74H113.353V69.3333H111.798V67.7778H113.353ZM111.798 70.8889H110.242V69.3333H111.798V70.8889ZM122.691 67.7778H118.024V66.2222H122.691V67.7778ZM118.024 70.8889V72.4444H116.469V67.7778H118.024V69.3333H122.691V67.7778H124.247V70.8889H118.024ZM124.247 74H118.024V72.4444H124.247V74ZM21.5556 91V92.5556H20V89.4444H21.5556V84.7778H23.1111V89.4444H26.2222V84.7778H27.7778V89.4444H29.3333V92.5556H27.7778V91H21.5556ZM26.2222 84.7778H23.1111V83.2222H26.2222V84.7778ZM32.4384 89.4444H30.8828V84.7778H32.4384V89.4444ZM37.105 84.7778H32.4384V83.2222H37.105V84.7778ZM38.6606 89.4444H37.105V84.7778H38.6606V89.4444ZM37.105 91H32.4384V89.4444H37.105V91ZM41.7763 91H40.2207V89.4444H41.7763V91ZM43.3318 84.7778V89.4444H41.7763V83.2222H47.9985V91H46.4429V84.7778H43.3318ZM51.1141 84.7778V91H49.5586V83.2222H57.3364V84.7778H51.1141ZM60.452 89.4444H58.8965V84.7778H60.452V89.4444ZM65.1187 84.7778H60.452V83.2222H65.1187V84.7778ZM66.6743 89.4444H65.1187V84.7778H66.6743V89.4444ZM65.1187 91H60.452V89.4444H65.1187V91ZM69.7899 89.4444H68.2344V84.7778H69.7899V89.4444ZM76.0122 84.7778H69.7899V83.2222H76.0122V84.7778ZM76.0122 91H69.7899V89.4444H76.0122V91ZM83.7945 84.7778H79.1278V83.2222H83.7945V84.7778ZM79.1278 91V94.1111H77.5723V84.7778H79.1278V89.4444H83.7945V91H79.1278ZM85.35 89.4444H83.7945V84.7778H85.35V89.4444ZM88.4657 89.4444H86.9102V84.7778H88.4657V89.4444ZM93.1324 84.7778H88.4657V83.2222H93.1324V84.7778ZM94.6879 89.4444H93.1324V84.7778H94.6879V89.4444ZM93.1324 91H88.4657V89.4444H93.1324V91ZM96.248 83.2222H97.8036V86.3333H96.248V83.2222ZM102.47 86.3333V83.2222H104.026V91H102.47V87.8889H97.8036V86.3333H102.47ZM107.141 87.8889V91H105.586V83.2222H107.141V86.3333H111.808V83.2222H113.364V91H111.808V87.8889H107.141ZM119.59 89.4444H118.035V87.8889H119.59V89.4444ZM122.702 91H121.146V83.2222H122.702V91ZM116.479 86.3333H118.035V87.8889H116.479V89.4444H118.035V91H114.924V83.2222H116.479V86.3333ZM125.817 91H124.262V89.4444H125.817V91ZM127.373 89.4444H125.817V87.8889H127.373V89.4444ZM128.928 87.8889H127.373V86.3333H128.928V87.8889ZM125.817 84.7778H124.262V83.2222H125.817V84.7778ZM127.373 86.3333H125.817V84.7778H127.373V86.3333ZM130.484 89.4444H128.928V87.8889H130.484V89.4444ZM132.039 91H130.484V89.4444H132.039V91ZM130.484 86.3333H128.928V84.7778H130.484V86.3333ZM132.039 84.7778H130.484V83.2222H132.039V84.7778ZM27.7778 106.444H26.2222V104.889H27.7778V106.444ZM26.2222 100.222V101.778H21.5556V103.333H26.2222V104.889H21.5556V106.444H26.2222V108H20V100.222H26.2222ZM27.7778 103.333H26.2222V101.778H27.7778V103.333ZM30.8934 103.333H29.3379V101.778H30.8934V103.333ZM35.5601 101.778H30.8934V100.222H35.5601V101.778ZM35.5601 108H30.8934V106.444H35.5601V108ZM30.8934 106.444H29.3379V104.889H30.8934V106.444ZM35.5601 104.889H34.0046V103.333H35.5601V104.889ZM37.1157 103.333H35.5601V101.778H37.1157V103.333ZM37.1157 106.444H35.5601V104.889H37.1157V106.444ZM40.2313 106.444H38.6758V101.778H40.2313V106.444ZM44.898 103.333H43.3424V101.778H44.898V100.222H46.4536V108H44.898V106.444H43.3424V104.889H44.898V103.333ZM43.3424 108H40.2313V106.444H43.3424V108ZM43.3424 101.778H40.2313V100.222H43.3424V101.778ZM49.5692 106.444V108H48.0137V100.222H49.5692V104.889H51.1248V106.444H49.5692ZM54.2359 101.778V100.222H55.7914V108H54.2359V103.333H52.6803V101.778H54.2359ZM52.6803 104.889H51.1248V103.333H52.6803V104.889ZM62.0182 106.444H60.4627V103.333H62.0182V106.444ZM63.5738 101.778V100.222H65.1293V108H63.5738V103.333H62.0182V101.778H63.5738ZM58.9071 103.333V108H57.3516V100.222H58.9071V101.778H60.4627V103.333H58.9071ZM68.245 106.444H66.6895V101.778H68.245V106.444ZM72.9117 101.778H68.245V100.222H72.9117V101.778ZM74.4672 106.444H72.9117V101.778H74.4672V106.444ZM72.9117 108H68.245V106.444H72.9117V108ZM77.5829 106.444H76.0273V101.778H77.5829V106.444ZM82.2496 101.778H77.5829V100.222H82.2496V101.778ZM83.8051 106.444H82.2496V101.778H83.8051V106.444ZM82.2496 108H77.5829V106.444H82.2496V108ZM90.0319 101.778V108H88.4763V101.778H85.3652V100.222H93.143V101.778H90.0319ZM96.2587 104.889V108H94.7031V100.222H96.2587V103.333H100.925V100.222H102.481V108H100.925V104.889H96.2587ZM105.597 106.444H104.041V101.778H105.597V106.444ZM110.263 101.778H105.597V100.222H110.263V101.778ZM111.819 106.444H110.263V101.778H111.819V106.444ZM110.263 108H105.597V106.444H110.263V108ZM113.379 100.222H114.934V106.444H116.49V100.222H118.046V106.444H119.601V100.222H121.157V108H113.379V100.222ZM128.939 101.778H124.272V100.222H128.939V101.778ZM124.272 104.889V106.444H122.717V101.778H124.272V103.333H128.939V101.778H130.495V104.889H124.272ZM130.495 108H124.272V106.444H130.495V108ZM133.61 104.889V108H132.055V100.222H133.61V103.333H138.277V100.222H139.832V108H138.277V104.889H133.61ZM142.948 106.444V108H141.393V100.222H142.948V104.889H144.504V106.444H142.948ZM147.615 101.778V100.222H149.17V108H147.615V103.333H146.059V101.778H147.615ZM146.059 104.889H144.504V103.333H146.059V104.889ZM152.286 106.444V108H150.73V100.222H152.286V104.889H153.842V106.444H152.286ZM156.953 97.1111H155.397V95.5556H156.953V97.1111ZM155.397 98.6667H153.842V97.1111H155.397V98.6667ZM153.842 97.1111H152.286V95.5556H153.842V97.1111ZM156.953 101.778V100.222H158.508V108H156.953V103.333H155.397V101.778H156.953ZM155.397 104.889H153.842V103.333H155.397V104.889Z" fill="#1B1A1A"/>
</svg>
