<svg width="82" height="238" viewBox="0 0 82 238" fill="none" xmlns="http://www.w3.org/2000/svg">
    <path d="M81.8256 146.025H76.2509V151.598H81.8256V146.025Z" fill="#FFE4CE"/>
    <path d="M81.6714 146.103H76.329V151.443H81.6714V146.103Z" fill="#FFE4CE"/>
    <path d="M81.8256 140.685H76.2509V146.258H81.8256V140.685Z" fill="#FFE4CE"/>
    <path d="M81.6714 140.762H76.329V146.18H81.6714V140.762Z" fill="#FFE4CE"/>
    <path d="M81.8256 135.266H76.2509V140.839H81.8256V135.266Z" fill="#FFE4CE"/>
    <path d="M81.6714 135.344H76.329V140.762H81.6714V135.344Z" fill="#FFE4CE"/>
    <path d="M81.8256 129.926H76.2509V135.499H81.8256V129.926Z" fill="#FFE4CE"/>
    <path d="M81.6714 130.003H76.329V135.422H81.6714V130.003Z" fill="#FFE4CE"/>
    <path d="M81.8256 124.508H76.2509V130.081H81.8256V124.508Z" fill="#FFE4CE"/>
    <path d="M81.6714 124.585H76.329V129.926H81.6714V124.585Z" fill="#FFE4CE"/>
    <path d="M81.8256 119.09H76.2509V124.662H81.8256V119.09Z" fill="#FFE4CE"/>
    <path d="M81.6714 119.245H76.329V124.663H81.6714V119.245Z" fill="#FFE4CE"/>
    <path d="M81.8256 113.749H76.2509V119.322H81.8256V113.749Z" fill="#FFE4CE"/>
    <path d="M81.6714 113.827H76.329V119.245H81.6714V113.827Z" fill="#FFE4CE"/>
    <path d="M81.8256 108.331H76.2509V113.904H81.8256V108.331Z" fill="#FFE4CE"/>
    <path d="M81.6714 108.409H76.329V113.827H81.6714V108.409Z" fill="#FFE4CE"/>
    <path d="M81.8256 102.991H76.2509V108.563H81.8256V102.991Z" fill="#FFE4CE"/>
    <path d="M81.6714 103.068H76.329V108.409H81.6714V103.068Z" fill="#FFE4CE"/>
    <path d="M81.8256 97.5726H76.2509V103.145H81.8256V97.5726Z" fill="#FFE4CE"/>
    <path d="M81.6714 97.6498H76.329V103.068H81.6714V97.6498Z" fill="#FFE4CE"/>
    <path d="M81.8256 92.2319H76.2509V97.8047H81.8256V92.2319Z" fill="#FFE4CE"/>
    <path d="M81.6714 92.3092H76.329V97.7272H81.6714V92.3092Z" fill="#FFE4CE"/>
    <path d="M81.8256 86.8139H76.2509V92.3867H81.8256V86.8139Z" fill="white"/>
    <path d="M81.8256 86.8913H76.329V130.081H81.8256V86.8913Z" fill="white"/>
    <path d="M81.8256 81.4735H76.2509V87.0463H81.8256V81.4735Z" fill="white"/>
    <path d="M81.6714 81.5506H76.329V86.8912H81.6714V81.5506Z" fill="white"/>
    <path d="M81.8256 76.0551H76.2509V81.6279H81.8256V76.0551Z" fill="white"/>
    <path d="M81.6714 76.1324H76.329V81.5505H81.6714V76.1324Z" fill="white"/>
    <path d="M81.8256 70.7148H76.2509V76.2877H81.8256V70.7148Z" fill="white"/>
    <path d="M81.6714 70.7922H76.329V76.2102H81.6714V70.7922Z" fill="white"/>
    <path d="M76.4049 232.172H70.8302V237.745H76.4049V232.172Z" fill="#391709"/>
    <path d="M76.3281 232.249H70.9082V237.667H76.3281V232.249Z" fill="#391709"/>
    <path d="M76.4049 226.753H70.8302V232.326H76.4049V226.753Z" fill="#482C02"/>
    <path d="M76.3281 226.831H70.9082V232.172H76.3281V226.831Z" fill="#482C02"/>
    <path d="M76.4049 146.025H70.8302V151.598H76.4049V146.025Z" fill="#FFE4CE"/>
    <path d="M76.3281 146.103H70.9082V151.443H76.3281V146.103Z" fill="#FFE4CE"/>
    <path d="M76.4049 140.685H70.8302V146.258H76.4049V140.685Z" fill="#FFE4CE"/>
    <path d="M76.3281 140.762H70.9082V146.18H76.3281V140.762Z" fill="#FFE4CE"/>
    <path d="M76.4049 135.266H70.8302V140.839H76.4049V135.266Z" fill="#FFE4CE"/>
    <path d="M76.3281 135.344H70.9082V140.762H76.3281V135.344Z" fill="#FFE4CE"/>
    <path d="M76.4049 129.926H70.8302V135.499H76.4049V129.926Z" fill="#F57E77"/>
    <path d="M76.3281 130.003H70.9082V135.422H76.3281V130.003Z" fill="#F57E77"/>
    <path d="M76.4049 124.508H70.8302V130.081H76.4049V124.508Z" fill="#F57E77"/>
    <path d="M76.3281 124.585H70.9082V129.926H76.3281V124.585Z" fill="#F57E77"/>
    <path d="M76.4049 119.09H70.8302V124.662H76.4049V119.09Z" fill="#F57E77"/>
    <path d="M76.3281 119.245H70.9082V124.663H76.3281V119.245Z" fill="#F57E77"/>
    <path d="M76.4049 113.749H70.8302V119.322H76.4049V113.749Z" fill="#F57E77"/>
    <path d="M76.3281 113.827H70.9082V119.245H76.3281V113.827Z" fill="#F57E77"/>
    <path d="M76.4049 108.331H70.8302V113.904H76.4049V108.331Z" fill="#F57E77"/>
    <path d="M76.3281 108.409H70.9082V113.827H76.3281V108.409Z" fill="#F57E77"/>
    <path d="M76.4049 102.991H70.8302V108.563H76.4049V102.991Z" fill="#F57E77"/>
    <path d="M76.3281 103.068H70.9082V108.409H76.3281V103.068Z" fill="#F57E77"/>
    <path d="M76.4049 97.5726H70.8302V103.145H76.4049V97.5726Z" fill="#F57E77"/>
    <path d="M76.3281 97.6498H70.9082V103.068H76.3281V97.6498Z" fill="#F57E77"/>
    <path d="M76.4049 92.2319H70.8302V97.8047H76.4049V92.2319Z" fill="#F57E77"/>
    <path d="M76.3281 92.3092H70.9082V97.7272H76.3281V92.3092Z" fill="#F57E77"/>
    <path d="M76.4049 86.8139H70.8302V92.3867H76.4049V86.8139Z" fill="white"/>
    <path d="M76.4049 81.4735H70.8302V87.0463H76.4049V81.4735Z" fill="white"/>
    <path d="M76.3281 81.5506H70.9082V86.8912H76.3281V81.5506Z" fill="#C5C5C5"/>
    <path d="M76.4049 76.0551H70.8302V81.6279H76.4049V76.0551Z" fill="white"/>
    <path d="M76.3281 76.1324H70.9082V81.5505H76.3281V76.1324Z" fill="white"/>
    <path d="M76.4049 70.7148H70.8302V76.2877H76.4049V70.7148Z" fill="white"/>
    <path d="M76.3281 70.7922H70.9082V76.2102H76.3281V70.7922Z" fill="white"/>
    <path d="M76.4049 65.2967H70.8302V70.8695H76.4049V65.2967Z" fill="white"/>
    <path d="M76.3281 65.3738H70.9082V70.7918H76.3281V65.3738Z" fill="white"/>
    <path d="M76.4049 59.9561H70.8302V65.5289H76.4049V59.9561Z" fill="white"/>
    <path d="M76.3281 60.0334H70.9082V65.3741H76.3281V60.0334Z" fill="white"/>
    <path d="M71.0622 232.172H65.4874V237.745H71.0622V232.172Z" fill="#391709"/>
    <path d="M70.9847 232.249H65.5648V237.667H70.9847V232.249Z" fill="#391709"/>
    <path d="M71.0622 226.753H65.4874V232.326H71.0622V226.753Z" fill="#482C02"/>
    <path d="M70.9847 226.831H65.5648V232.172H70.9847V226.831Z" fill="#482C02"/>
    <path d="M71.0622 221.413H65.4874V226.986H71.0622V221.413Z" fill="#391709"/>
    <path d="M70.9847 221.491H65.5648V226.909H70.9847V221.491Z" fill="#482C02"/>
    <path d="M71.0622 140.685H65.4874V146.258H71.0622V140.685Z" fill="#FFE4CE"/>
    <path d="M70.9847 140.762H65.5648V146.18H70.9847V140.762Z" fill="#FFE4CE"/>
    <path d="M71.0622 135.266H65.4874V140.839H71.0622V135.266Z" fill="#F57E77"/>
    <path d="M70.9847 135.344H65.5648V140.762H70.9847V135.344Z" fill="#F57E77"/>
    <path d="M71.0622 76.0551H65.4874V81.6279H71.0622V76.0551Z" fill="#C5C5C5"/>
    <path d="M70.9847 76.1324H65.5648V81.5505H70.9847V76.1324Z" fill="#C5C5C5"/>
    <path d="M71.0622 70.7148H65.4874V76.2877H71.0622V70.7148Z" fill="white"/>
    <path d="M70.9847 70.7922H65.5648V76.2102H70.9847V70.7922Z" fill="white"/>
    <path d="M71.0622 65.2967H65.4874V70.8695H71.0622V65.2967Z" fill="white"/>
    <path d="M70.9847 65.3738H65.5648V70.7918H70.9847V65.3738Z" fill="white"/>
    <path d="M71.0622 59.9561H65.4874V65.5289H71.0622V59.9561Z" fill="white"/>
    <path d="M70.9847 60.0334H65.5648V65.3741H70.9847V60.0334Z" fill="white"/>
    <path d="M65.6414 232.172H60.0667V237.745H65.6414V232.172Z" fill="#391709"/>
    <path d="M65.5638 232.249H60.1439V237.667H65.5638V232.249Z" fill="#391709"/>
    <path d="M65.6414 226.753H60.0667V232.326H65.6414V226.753Z" fill="#391709"/>
    <path d="M65.5638 226.831H60.1439V232.172H65.5638V226.831Z" fill="#482C02"/>
    <path d="M65.6414 221.413H60.0667V226.986H65.6414V221.413Z" fill="#482C02"/>
    <path d="M65.5638 221.491H60.1439V226.909H65.5638V221.491Z" fill="#482C02"/>
    <path d="M65.6414 70.7148H60.0667V76.2877H65.6414V70.7148Z" fill="#C5C5C5"/>
    <path d="M65.5638 70.7922H60.1439V76.2102H65.5638V70.7922Z" fill="#C5C5C5"/>
    <path d="M65.6414 65.2967H60.0667V70.8695H65.6414V65.2967Z" fill="white"/>
    <path d="M65.5638 65.3738H60.1439V70.7918H65.5638V65.3738Z" fill="white"/>
    <path d="M65.6414 59.9561H60.0667V65.5289H65.6414V59.9561Z" fill="white"/>
    <path d="M65.5638 60.0334H60.1439V65.3741H65.5638V60.0334Z" fill="white"/>
    <path d="M65.6414 54.538H60.0667V60.1108H65.6414V54.538Z" fill="white"/>
    <path d="M65.5638 54.6154H60.1439V60.0334H65.5638V54.6154Z" fill="white"/>
    <path d="M65.6414 27.6025H60.0667V33.1753H65.6414V27.6025Z" fill="#F57E77"/>
    <path d="M65.5638 27.6799H60.1439V33.0979H65.5638V27.6799Z" fill="#F57E77"/>
    <path d="M65.6414 22.2623H60.0667V27.8352H65.6414V22.2623Z" fill="#FFE4CE"/>
    <path d="M65.5638 22.3396H60.1439V27.6802H65.5638V22.3396Z" fill="#FFE4CE"/>
    <path d="M65.6414 16.8438H60.0667V22.4166H65.6414V16.8438Z" fill="#3D041F"/>
    <path d="M65.5638 16.9211H60.1439V22.3392H65.5638V16.9211Z" fill="#3D041F"/>
    <path d="M60.2206 232.172H54.6459V237.745H60.2206V232.172Z" fill="#391709"/>
    <path d="M60.1427 232.249H54.8003V237.667H60.1427V232.249Z" fill="#391709"/>
    <path d="M60.2206 226.753H54.6459V232.326H60.2206V226.753Z" fill="#482C02"/>
    <path d="M60.1427 226.831H54.8003V232.172H60.1427V226.831Z" fill="#482C02"/>
    <path d="M60.2206 221.413H54.6459V226.986H60.2206V221.413Z" fill="#482C02"/>
    <path d="M60.1427 221.491H54.8003V226.909H60.1427V221.491Z" fill="#482C02"/>
    <path d="M60.2206 215.995H54.6459V221.568H60.2206V215.995Z" fill="#482C02"/>
    <path d="M60.1427 216.073H54.8003V221.491H60.1427V216.073Z" fill="#482C02"/>
    <path d="M60.2206 210.655H54.6459V216.227H60.2206V210.655Z" fill="#424343"/>
    <path d="M60.2206 205.237H54.6459V210.809H60.2206V205.237Z" fill="#424343"/>
    <path d="M60.1427 205.314H54.8003V210.654H60.1427V205.314Z" fill="#424343"/>
    <path d="M60.2206 199.896H54.6459V205.469H60.2206V199.896Z" fill="#424343"/>
    <path d="M60.1427 199.973H54.8003V205.391H60.1427V199.973Z" fill="#424343"/>
    <path d="M60.2206 194.478H54.6459V200.05H60.2206V194.478Z" fill="#424343"/>
    <path d="M60.1427 194.555H54.8003V199.973H60.1427V194.555Z" fill="#424343"/>
    <path d="M60.2206 189.06H54.6459V194.633H60.2206V189.06Z" fill="#424343"/>
    <path d="M60.1427 189.215H54.8003V194.633H60.1427V189.215Z" fill="#424343"/>
    <path d="M60.2206 183.719H54.6459V189.292H60.2206V183.719Z" fill="#424343"/>
    <path d="M60.1427 183.796H54.8003V189.137H60.1427V183.796Z" fill="#424343"/>
    <path d="M60.2206 178.301H54.6459V183.874H60.2206V178.301Z" fill="#424343"/>
    <path d="M60.1427 178.456H54.8003V183.874H60.1427V178.456Z" fill="#424343"/>
    <path d="M60.2206 172.961H54.6459V178.533H60.2206V172.961Z" fill="#424343"/>
    <path d="M60.1427 173.038H54.8003V178.456H60.1427V173.038Z" fill="#424343"/>
    <path d="M60.2206 167.543H54.6459V173.115H60.2206V167.543Z" fill="#424343"/>
    <path d="M60.1427 167.62H54.8003V172.961H60.1427V167.62Z" fill="#424343"/>
    <path d="M60.2206 162.202H54.6459V167.775H60.2206V162.202Z" fill="#424343"/>
    <path d="M60.1427 162.279H54.8003V167.697H60.1427V162.279Z" fill="#424343"/>
    <path d="M60.2206 156.784H54.6459V162.357H60.2206V156.784Z" fill="#424343"/>
    <path d="M60.1427 156.861H54.8003V162.279H60.1427V156.861Z" fill="#424343"/>
    <path d="M60.2206 151.443H54.6459V157.016H60.2206V151.443Z" fill="#424343"/>
    <path d="M60.1427 151.521H54.8003V156.939H60.1427V151.521Z" fill="#424343"/>
    <path d="M60.2206 146.025H54.6459V151.598H60.2206V146.025Z" fill="#424343"/>
    <path d="M60.1427 146.103H54.8003V151.443H60.1427V146.103Z" fill="#424343"/>
    <path d="M60.2206 140.685H54.6459V146.258H60.2206V140.685Z" fill="#424343"/>
    <path d="M60.1427 140.762H54.8003V146.18H60.1427V140.762Z" fill="#424343"/>
    <path d="M60.2206 135.266H54.6459V140.839H60.2206V135.266Z" fill="#424343"/>
    <path d="M60.1427 135.344H54.8003V140.762H60.1427V135.344Z" fill="#424343"/>
    <path d="M60.2206 129.926H54.6459V135.499H60.2206V129.926Z" fill="#262828"/>
    <path d="M60.1427 130.003H54.8003V135.422H60.1427V130.003Z" fill="#262828"/>
    <path d="M60.2206 124.508H54.6459V130.081H60.2206V124.508Z" fill="#262828"/>
    <path d="M60.1427 124.585H54.8003V129.926H60.1427V124.585Z" fill="#262828"/>
    <path d="M60.2206 119.09H54.6459V124.662H60.2206V119.09Z" fill="#262828"/>
    <path d="M60.1427 119.245H54.8003V124.663H60.1427V119.245Z" fill="#262828"/>
    <path d="M60.2206 113.749H54.6459V119.322H60.2206V113.749Z" fill="#C5C5C5"/>
    <path d="M60.1427 113.827H54.8003V119.245H60.1427V113.827Z" fill="#C5C5C5"/>
    <path d="M60.2206 108.331H54.6459V113.904H60.2206V108.331Z" fill="#C5C5C5"/>
    <path d="M60.1427 108.409H54.8003V113.827H60.1427V108.409Z" fill="#C5C5C5"/>
    <path d="M60.2206 102.991H54.6459V108.563H60.2206V102.991Z" fill="#C5C5C5"/>
    <path d="M60.1427 103.068H54.8003V108.409H60.1427V103.068Z" fill="#C5C5C5"/>
    <path d="M60.2206 97.5726H54.6459V103.145H60.2206V97.5726Z" fill="#C5C5C5"/>
    <path d="M60.1427 97.6498H54.8003V103.068H60.1427V97.6498Z" fill="#C5C5C5"/>
    <path d="M60.2206 92.2319H54.6459V97.8047H60.2206V92.2319Z" fill="#C5C5C5"/>
    <path d="M60.1427 92.3092H54.8003V97.7272H60.1427V92.3092Z" fill="#C5C5C5"/>
    <path d="M60.2206 86.8139H54.6459V92.3867H60.2206V86.8139Z" fill="#C5C5C5"/>
    <path d="M60.1427 86.8913H54.8003V92.3093H60.1427V86.8913Z" fill="#C5C5C5"/>
    <path d="M60.2206 81.4735H54.6459V87.0463H60.2206V81.4735Z" fill="#C5C5C5"/>
    <path d="M60.1427 81.5506H54.8003V86.8912H60.1427V81.5506Z" fill="#C5C5C5"/>
    <path d="M60.2206 76.0551H54.6459V81.6279H60.2206V76.0551Z" fill="#C5C5C5"/>
    <path d="M60.1427 76.1324H54.8003V81.5505H60.1427V76.1324Z" fill="#C5C5C5"/>
    <path d="M60.2206 70.7148H54.6459V76.2877H60.2206V70.7148Z" fill="#C5C5C5"/>
    <path d="M60.1427 70.7922H54.8003V76.2102H60.1427V70.7922Z" fill="#C5C5C5"/>
    <path d="M60.2206 65.2967H54.6459V70.8695H60.2206V65.2967Z" fill="white"/>
    <path d="M60.1427 65.3738H54.8003V70.7918H60.1427V65.3738Z" fill="white"/>
    <path d="M60.2206 59.9561H54.6459V65.5289H60.2206V59.9561Z" fill="white"/>
    <path d="M60.1427 60.0334H54.8003V65.3741H60.1427V60.0334Z" fill="white"/>
    <path d="M60.2206 54.538H54.6459V60.1108H60.2206V54.538Z" fill="white"/>
    <path d="M60.1427 54.6154H54.8003V60.0334H60.1427V54.6154Z" fill="white"/>
    <path d="M60.2206 33.0206H54.6459V38.5934H60.2206V33.0206Z" fill="#F57E77"/>
    <path d="M60.1427 33.0979H54.8003V38.5159H60.1427V33.0979Z" fill="#F57E77"/>
    <path d="M60.2206 27.6025H54.6459V33.1753H60.2206V27.6025Z" fill="#3D041F"/>
    <path d="M60.1427 27.6799H54.8003V33.0979H60.1427V27.6799Z" fill="#3D041F"/>
    <path d="M60.2206 22.2623H54.6459V27.8352H60.2206V22.2623Z" fill="#3D041F"/>
    <path d="M60.1427 22.3396H54.8003V27.6802H60.1427V22.3396Z" fill="#3D041F"/>
    <path d="M60.2206 16.8438H54.6459V22.4166H60.2206V16.8438Z" fill="#3D041F"/>
    <path d="M60.1427 16.9211H54.8003V22.3392H60.1427V16.9211Z" fill="#3D041F"/>
    <path d="M60.2206 11.5035H54.6459V17.0764H60.2206V11.5035Z" fill="#621931"/>
    <path d="M60.1427 11.5809H54.8003V16.9989H60.1427V11.5809Z" fill="#621931"/>
    <path d="M60.2206 6.08539H54.6459V11.6582H60.2206V6.08539Z" fill="#621931"/>
    <path d="M60.1427 6.16248H54.8003V11.5805H60.1427V6.16248Z" fill="#621931"/>
    <path d="M54.8772 232.172H49.3025V237.745H54.8772V232.172Z" fill="#391709"/>
    <path d="M54.7995 232.249H49.3796V237.667H54.7995V232.249Z" fill="#391709"/>
    <path d="M54.8772 226.753H49.3025V232.326H54.8772V226.753Z" fill="#482C02"/>
    <path d="M54.7995 226.831H49.3796V232.172H54.7995V226.831Z" fill="#482C02"/>
    <path d="M54.8772 221.413H49.3025V226.986H54.8772V221.413Z" fill="#482C02"/>
    <path d="M54.7995 221.491H49.3796V226.909H54.7995V221.491Z" fill="#482C02"/>
    <path d="M54.8772 215.995H49.3025V221.568H54.8772V215.995Z" fill="#482C02"/>
    <path d="M54.7995 216.073H49.3796V221.491H54.7995V216.073Z" fill="#482C02"/>
    <path d="M54.8772 210.655H49.3025V216.227H54.8772V210.655Z" fill="#424343"/>
    <path d="M54.7995 210.732H49.3796V216.15H54.7995V210.732Z" fill="#424343"/>
    <path d="M54.8772 205.237H49.3025V210.809H54.8772V205.237Z" fill="#424343"/>
    <path d="M54.7995 205.314H49.3796V210.654H54.7995V205.314Z" fill="#424343"/>
    <path d="M54.8772 199.896H49.3025V205.469H54.8772V199.896Z" fill="#424343"/>
    <path d="M54.7995 199.973H49.3796V205.391H54.7995V199.973Z" fill="#424343"/>
    <path d="M54.8772 194.478H49.3025V200.05H54.8772V194.478Z" fill="#424343"/>
    <path d="M54.7995 194.555H49.3796V199.973H54.7995V194.555Z" fill="#424343"/>
    <path d="M54.8772 189.06H49.3025V194.633H54.8772V189.06Z" fill="#424343"/>
    <path d="M54.7995 189.215H49.3796V194.633H54.7995V189.215Z" fill="#424343"/>
    <path d="M54.8772 183.719H49.3025V189.292H54.8772V183.719Z" fill="#424343"/>
    <path d="M54.7995 183.796H49.3796V189.137H54.7995V183.796Z" fill="#424343"/>
    <path d="M54.8772 178.301H49.3025V183.874H54.8772V178.301Z" fill="#424343"/>
    <path d="M54.7995 178.456H49.3796V183.874H54.7995V178.456Z" fill="#424343"/>
    <path d="M54.8772 172.961H49.3025V178.533H54.8772V172.961Z" fill="#424343"/>
    <path d="M54.7995 173.038H49.3796V178.456H54.7995V173.038Z" fill="#424343"/>
    <path d="M54.8772 167.543H49.3025V173.115H54.8772V167.543Z" fill="#424343"/>
    <path d="M54.7995 167.62H49.3796V172.961H54.7995V167.62Z" fill="#424343"/>
    <path d="M54.8772 162.202H49.3025V167.775H54.8772V162.202Z" fill="#424343"/>
    <path d="M54.7995 162.279H49.3796V167.697H54.7995V162.279Z" fill="#424343"/>
    <path d="M54.8772 156.784H49.3025V162.357H54.8772V156.784Z" fill="#424343"/>
    <path d="M54.7995 156.861H49.3796V162.279H54.7995V156.861Z" fill="#424343"/>
    <path d="M54.8772 151.443H49.3025V157.016H54.8772V151.443Z" fill="#424343"/>
    <path d="M54.7995 151.521H49.3796V156.939H54.7995V151.521Z" fill="#424343"/>
    <path d="M54.8772 146.025H49.3025V151.598H54.8772V146.025Z" fill="#424343"/>
    <path d="M54.7995 146.103H49.3796V151.443H54.7995V146.103Z" fill="#424343"/>
    <path d="M54.8772 140.685H49.3025V146.258H54.8772V140.685Z" fill="#424343"/>
    <path d="M54.7995 140.762H49.3796V146.18H54.7995V140.762Z" fill="#424343"/>
    <path d="M54.8772 135.266H49.3025V140.839H54.8772V135.266Z" fill="#424343"/>
    <path d="M54.7995 135.344H49.3796V140.762H54.7995V135.344Z" fill="#424343"/>
    <path d="M54.8772 129.926H49.3025V135.499H54.8772V129.926Z" fill="#424343"/>
    <path d="M54.7995 130.003H49.3796V135.422H54.7995V130.003Z" fill="#424343"/>
    <path d="M54.8772 124.508H49.3025V130.081H54.8772V124.508Z" fill="#424343"/>
    <path d="M54.7995 124.585H49.3796V129.926H54.7995V124.585Z" fill="#424343"/>
    <path d="M54.8772 119.09H49.3025V124.662H54.8772V119.09Z" fill="#262828"/>
    <path d="M54.7995 119.245H49.3796V124.663H54.7995V119.245Z" fill="#262828"/>
    <path d="M54.8772 113.749H49.3025V119.322H54.8772V113.749Z" fill="white"/>
    <path d="M54.8772 108.331H49.3025V113.904H54.8772V108.331Z" fill="white"/>
    <path d="M54.7995 108.409H49.3796V113.827H54.7995V108.409Z" fill="white"/>
    <path d="M54.8772 102.991H49.3025V108.563H54.8772V102.991Z" fill="white"/>
    <path d="M54.7995 103.068H49.3796V108.409H54.7995V103.068Z" fill="white"/>
    <path d="M54.8772 97.5726H49.3025V103.145H54.8772V97.5726Z" fill="white"/>
    <path d="M54.7995 97.6498H49.3796V103.068H54.7995V97.6498Z" fill="white"/>
    <path d="M54.8772 92.2319H49.3025V97.8047H54.8772V92.2319Z" fill="white"/>
    <path d="M54.7995 92.3092H49.3796V97.7272H54.7995V92.3092Z" fill="white"/>
    <path d="M54.8772 86.8139H49.3025V92.3867H54.8772V86.8139Z" fill="white"/>
    <path d="M54.7995 86.8913H49.3796V92.3093H54.7995V86.8913Z" fill="white"/>
    <path d="M54.8772 81.4735H49.3025V87.0463H54.8772V81.4735Z" fill="white"/>
    <path d="M54.7995 81.5506H49.3796V86.8912H54.7995V81.5506Z" fill="white"/>
    <path d="M54.8772 76.0551H49.3025V81.6279H54.8772V76.0551Z" fill="white"/>
    <path d="M54.7995 76.1324H49.3796V81.5505H54.7995V76.1324Z" fill="white"/>
    <path d="M54.8772 70.7148H49.3025V76.2877H54.8772V70.7148Z" fill="white"/>
    <path d="M54.7995 70.7922H49.3796V76.2102H54.7995V70.7922Z" fill="white"/>
    <path d="M54.8772 65.2967H49.3025V70.8695H54.8772V65.2967Z" fill="white"/>
    <path d="M54.7995 65.3738H49.3796V70.7918H54.7995V65.3738Z" fill="white"/>
    <path d="M54.8772 59.9561H49.3025V65.5289H54.8772V59.9561Z" fill="white"/>
    <path d="M54.7995 60.0334H49.3796V65.3741H54.7995V60.0334Z" fill="white"/>
    <path d="M54.8772 54.538H49.3025V60.1108H54.8772V54.538Z" fill="#F57E77"/>
    <path d="M54.7995 54.6154H49.3796V60.0334H54.7995V54.6154Z" fill="white"/>
    <path d="M54.8772 38.3612H49.3025V43.934H54.8772V38.3612Z" fill="#F57E77"/>
    <path d="M54.7995 38.4386H49.3796V43.8566H54.7995V38.4386Z" fill="#F57E77"/>
    <path d="M54.8772 33.0206H49.3025V38.5934H54.8772V33.0206Z" fill="#FFE4CE"/>
    <path d="M54.7995 33.0979H49.3796V38.5159H54.7995V33.0979Z" fill="#FFE4CE"/>
    <path d="M54.8772 27.6025H49.3025V33.1753H54.8772V27.6025Z" fill="#FFE4CE"/>
    <path d="M54.7995 27.6799H49.3796V33.0979H54.7995V27.6799Z" fill="#FFE4CE"/>
    <path d="M54.8772 22.2623H49.3025V27.8352H54.8772V22.2623Z" fill="#FFE4CE"/>
    <path d="M54.7995 22.3396H49.3796V27.6802H54.7995V22.3396Z" fill="#FFE4CE"/>
    <path d="M54.8772 16.8438H49.3025V22.4166H54.8772V16.8438Z" fill="#FFE4CE"/>
    <path d="M54.7995 16.9211H49.3796V22.3392H54.7995V16.9211Z" fill="#FFE4CE"/>
    <path d="M54.8772 11.5035H49.3025V17.0764H54.8772V11.5035Z" fill="#3D041F"/>
    <path d="M54.7995 11.5809H49.3796V16.9989H54.7995V11.5809Z" fill="#3D041F"/>
    <path d="M54.8772 6.08539H49.3025V11.6582H54.8772V6.08539Z" fill="#621931"/>
    <path d="M54.7995 6.16248H49.3796V11.5805H54.7995V6.16248Z" fill="#621931"/>
    <path d="M54.8772 0.744812H49.3025V6.31764H54.8772V0.744812Z" fill="#621931"/>
    <path d="M54.7995 0.822205H49.3796V6.16283H54.7995V0.822205Z" fill="#621931"/>
    <path d="M49.4562 232.172H43.8815V237.745H49.4562V232.172Z" fill="#26031F"/>
    <path d="M49.3794 232.249H43.9595V237.667H49.3794V232.249Z" fill="#26031F"/>
    <path d="M49.4562 226.753H43.8815V232.326H49.4562V226.753Z" fill="#391709"/>
    <path d="M49.3794 226.831H43.9595V232.172H49.3794V226.831Z" fill="#391709"/>
    <path d="M49.4562 221.413H43.8815V226.986H49.4562V221.413Z" fill="#391709"/>
    <path d="M49.3794 221.491H43.9595V226.909H49.3794V221.491Z" fill="#391709"/>
    <path d="M49.4562 215.995H43.8815V221.568H49.4562V215.995Z" fill="#391709"/>
    <path d="M49.3794 216.073H43.9595V221.491H49.3794V216.073Z" fill="#391709"/>
    <path d="M49.4562 210.655H43.8815V216.227H49.4562V210.655Z" fill="#262828"/>
    <path d="M49.3794 210.732H43.9595V216.15H49.3794V210.732Z" fill="#262828"/>
    <path d="M49.4562 205.237H43.8815V210.809H49.4562V205.237Z" fill="#262828"/>
    <path d="M49.3794 205.314H43.9595V210.654H49.3794V205.314Z" fill="#262828"/>
    <path d="M49.4562 199.896H43.8815V205.469H49.4562V199.896Z" fill="#262828"/>
    <path d="M49.3794 199.973H43.9595V205.391H49.3794V199.973Z" fill="#262828"/>
    <path d="M49.4562 194.478H43.8815V200.05H49.4562V194.478Z" fill="#262828"/>
    <path d="M49.3794 194.555H43.9595V199.973H49.3794V194.555Z" fill="#262828"/>
    <path d="M49.4562 189.06H43.8815V194.633H49.4562V189.06Z" fill="#262828"/>
    <path d="M49.3794 189.215H43.9595V194.633H49.3794V189.215Z" fill="#262828"/>
    <path d="M49.4562 183.719H43.8815V189.292H49.4562V183.719Z" fill="#262828"/>
    <path d="M49.3794 183.796H43.9595V189.137H49.3794V183.796Z" fill="#262828"/>
    <path d="M49.4562 178.301H43.8815V183.874H49.4562V178.301Z" fill="#262828"/>
    <path d="M49.3794 178.456H43.9595V183.874H49.3794V178.456Z" fill="#262828"/>
    <path d="M49.4562 172.961H43.8815V178.533H49.4562V172.961Z" fill="#262828"/>
    <path d="M49.3794 173.038H43.9595V178.456H49.3794V173.038Z" fill="#262828"/>
    <path d="M49.4562 167.543H43.8815V173.115H49.4562V167.543Z" fill="#262828"/>
    <path d="M49.3794 167.62H43.9595V172.961H49.3794V167.62Z" fill="#262828"/>
    <path d="M49.4562 162.202H43.8815V167.775H49.4562V162.202Z" fill="#262828"/>
    <path d="M49.3794 162.279H43.9595V167.697H49.3794V162.279Z" fill="#262828"/>
    <path d="M49.4562 156.784H43.8815V162.357H49.4562V156.784Z" fill="#262828"/>
    <path d="M49.3794 156.861H43.9595V162.279H49.3794V156.861Z" fill="#262828"/>
    <path d="M49.4562 151.443H43.8815V157.016H49.4562V151.443Z" fill="#262828"/>
    <path d="M49.3794 151.521H43.9595V156.939H49.3794V151.521Z" fill="#262828"/>
    <path d="M49.4562 146.025H43.8815V151.598H49.4562V146.025Z" fill="#262828"/>
    <path d="M49.3794 146.103H43.9595V151.443H49.3794V146.103Z" fill="#262828"/>
    <path d="M49.4562 140.685H43.8815V146.258H49.4562V140.685Z" fill="#262828"/>
    <path d="M49.3794 140.762H43.9595V146.18H49.3794V140.762Z" fill="#262828"/>
    <path d="M49.4562 135.266H43.8815V140.839H49.4562V135.266Z" fill="#424343"/>
    <path d="M49.3794 135.344H43.9595V140.762H49.3794V135.344Z" fill="#424343"/>
    <path d="M49.4562 129.926H43.8815V135.499H49.4562V129.926Z" fill="#424343"/>
    <path d="M49.3794 130.003H43.9595V135.422H49.3794V130.003Z" fill="#424343"/>
    <path d="M49.4562 124.508H43.8815V130.081H49.4562V124.508Z" fill="#424343"/>
    <path d="M49.3794 124.585H43.9595V129.926H49.3794V124.585Z" fill="#424343"/>
    <path d="M49.4562 119.09H43.8815V124.662H49.4562V119.09Z" fill="#391709"/>
    <path d="M49.3794 119.245H43.9595V124.663H49.3794V119.245Z" fill="#262828"/>
    <path d="M49.4562 113.749H43.8815V119.322H49.4562V113.749Z" fill="white"/>
    <path d="M49.3794 113.827H43.9595V119.245H49.3794V113.827Z" fill="white"/>
    <path d="M49.4562 108.331H43.8815V113.904H49.4562V108.331Z" fill="white"/>
    <path d="M49.3794 108.409H43.9595V113.827H49.3794V108.409Z" fill="white"/>
    <path d="M49.4562 102.991H43.8815V108.563H49.4562V102.991Z" fill="white"/>
    <path d="M49.3794 103.068H43.9595V108.409H49.3794V103.068Z" fill="white"/>
    <path d="M49.4562 97.5726H43.8815V103.145H49.4562V97.5726Z" fill="white"/>
    <path d="M49.3794 97.6498H43.9595V103.068H49.3794V97.6498Z" fill="white"/>
    <path d="M49.4562 92.2319H43.8815V97.8047H49.4562V92.2319Z" fill="white"/>
    <path d="M49.3794 92.3092H43.9595V97.7272H49.3794V92.3092Z" fill="white"/>
    <path d="M49.4562 86.8139H43.8815V92.3867H49.4562V86.8139Z" fill="white"/>
    <path d="M49.3794 86.8913H43.9595V92.3093H49.3794V86.8913Z" fill="white"/>
    <path d="M49.4562 81.4735H43.8815V87.0463H49.4562V81.4735Z" fill="white"/>
    <path d="M49.3794 81.5506H43.9595V86.8912H49.3794V81.5506Z" fill="white"/>
    <path d="M49.4562 76.0551H43.8815V81.6279H49.4562V76.0551Z" fill="white"/>
    <path d="M49.3794 76.1324H43.9595V81.5505H49.3794V76.1324Z" fill="white"/>
    <path d="M49.4562 70.7148H43.8815V76.2877H49.4562V70.7148Z" fill="white"/>
    <path d="M49.3794 70.7922H43.9595V76.2102H49.3794V70.7922Z" fill="white"/>
    <path d="M49.4562 65.2967H43.8815V70.8695H49.4562V65.2967Z" fill="white"/>
    <path d="M49.3794 65.3738H43.9595V70.7918H49.3794V65.3738Z" fill="white"/>
    <path d="M49.4562 59.9561H43.8815V65.5289H49.4562V59.9561Z" fill="white"/>
    <path d="M49.3794 60.0334H43.9595V65.3741H49.3794V60.0334Z" fill="white"/>
    <path d="M49.4562 54.538H43.8815V60.1108H49.4562V54.538Z" fill="#F57E77"/>
    <path d="M49.3794 54.6154H43.9595V60.0334H49.3794V54.6154Z" fill="#F57E77"/>
    <path d="M49.4562 49.1199H43.8815V54.6928H49.4562V49.1199Z" fill="#F57E77"/>
    <path d="M49.3794 49.1973H43.9595V54.6153H49.3794V49.1973Z" fill="#F57E77"/>
    <path d="M49.4562 43.7793H43.8815V49.3521H49.4562V43.7793Z" fill="#F57E77"/>
    <path d="M49.3794 43.8566H43.9595V49.1973H49.3794V43.8566Z" fill="#F57E77"/>
    <path d="M49.4562 38.3612H43.8815V43.934H49.4562V38.3612Z" fill="#FFE4CE"/>
    <path d="M49.3794 38.4386H43.9595V43.8566H49.3794V38.4386Z" fill="#FFE4CE"/>
    <path d="M49.4562 33.0206H43.8815V38.5934H49.4562V33.0206Z" fill="#FFE4CE"/>
    <path d="M49.3794 33.0979H43.9595V38.5159H49.3794V33.0979Z" fill="#FFE4CE"/>
    <path d="M49.4562 27.6025H43.8815V33.1753H49.4562V27.6025Z" fill="#FFE4CE"/>
    <path d="M49.3794 27.6799H43.9595V33.0979H49.3794V27.6799Z" fill="#FFE4CE"/>
    <path d="M49.4562 22.2623H43.8815V27.8352H49.4562V22.2623Z" fill="#66667C"/>
    <path d="M49.3794 22.3396H43.9595V27.6802H49.3794V22.3396Z" fill="#66667C"/>
    <path d="M49.4562 16.8438H43.8815V22.4166H49.4562V16.8438Z" fill="#FFE4CE"/>
    <path d="M49.3794 16.9211H43.9595V22.3392H49.3794V16.9211Z" fill="#FFE4CE"/>
    <path d="M49.4562 11.5035H43.8815V17.0764H49.4562V11.5035Z" fill="#FFE4CE"/>
    <path d="M49.3794 11.5809H43.9595V16.9989H49.3794V11.5809Z" fill="#FFE4CE"/>
    <path d="M49.4562 6.08539H43.8815V11.6582H49.4562V6.08539Z" fill="#3D041F"/>
    <path d="M49.3794 6.16248H43.9595V11.5805H49.3794V6.16248Z" fill="#3D041F"/>
    <path d="M49.4562 0.744812H43.8815V6.31764H49.4562V0.744812Z" fill="#621931"/>
    <path d="M49.3794 0.822205H43.9595V6.16283H49.3794V0.822205Z" fill="#621931"/>
    <path d="M44.1134 135.266H38.5387V140.839H44.1134V135.266Z" fill="#424343"/>
    <path d="M44.1134 129.926H38.5387V135.499H44.1134V129.926Z" fill="#424343"/>
    <path d="M44.1134 124.508H38.5387V130.081H44.1134V124.508Z" fill="#424343"/>
    <path d="M44.1134 119.09H38.5387V124.662H44.1134V119.09Z" fill="#391709"/>
    <path d="M44.036 119.245H38.6161V124.663H44.036V119.245Z" fill="#262828"/>
    <path d="M44.1134 113.749H38.5387V119.322H44.1134V113.749Z" fill="white"/>
    <path d="M44.036 113.827H38.6161V119.245H44.036V113.827Z" fill="white"/>
    <path d="M44.1134 108.331H38.5387V113.904H44.1134V108.331Z" fill="white"/>
    <path d="M44.036 108.409H38.6161V113.827H44.036V108.409Z" fill="white"/>
    <path d="M44.1134 102.991H38.5387V108.563H44.1134V102.991Z" fill="white"/>
    <path d="M44.036 103.068H38.6161V108.409H44.036V103.068Z" fill="white"/>
    <path d="M44.1134 97.5726H38.5387V103.145H44.1134V97.5726Z" fill="white"/>
    <path d="M44.036 97.6498H38.6161V103.068H44.036V97.6498Z" fill="white"/>
    <path d="M44.1134 92.2319H38.5387V97.8047H44.1134V92.2319Z" fill="white"/>
    <path d="M44.036 92.3092H38.6161V97.7272H44.036V92.3092Z" fill="white"/>
    <path d="M44.1134 86.8139H38.5387V92.3867H44.1134V86.8139Z" fill="white"/>
    <path d="M44.036 86.8913H38.6161V92.3093H44.036V86.8913Z" fill="white"/>
    <path d="M44.1134 81.4735H38.5387V87.0463H44.1134V81.4735Z" fill="white"/>
    <path d="M44.036 81.5506H38.6161V86.8912H44.036V81.5506Z" fill="white"/>
    <path d="M44.1134 76.0551H38.5387V81.6279H44.1134V76.0551Z" fill="white"/>
    <path d="M44.036 76.1324H38.6161V81.5505H44.036V76.1324Z" fill="white"/>
    <path d="M44.1134 70.7148H38.5387V76.2877H44.1134V70.7148Z" fill="white"/>
    <path d="M44.036 70.7922H38.6161V76.2102H44.036V70.7922Z" fill="white"/>
    <path d="M44.1134 65.2967H38.5387V70.8695H44.1134V65.2967Z" fill="white"/>
    <path d="M44.036 65.3738H38.6161V70.7918H44.036V65.3738Z" fill="white"/>
    <path d="M44.1134 59.9561H38.5387V65.5289H44.1134V59.9561Z" fill="#F57E77"/>
    <path d="M44.036 60.0334H38.6161V65.3741H44.036V60.0334Z" fill="#F57E77"/>
    <path d="M44.1134 54.538H38.5387V60.1108H44.1134V54.538Z" fill="#FFE4CE"/>
    <path d="M44.036 54.6154H38.6161V60.0334H44.036V54.6154Z" fill="#FFE4CE"/>
    <path d="M44.1134 49.1199H38.5387V54.6928H44.1134V49.1199Z" fill="#FFE4CE"/>
    <path d="M44.036 49.1973H38.6161V54.6153H44.036V49.1973Z" fill="#FFE4CE"/>
    <path d="M44.1134 43.7793H38.5387V49.3521H44.1134V43.7793Z" fill="#F57E77"/>
    <path d="M44.036 43.8566H38.6161V49.1973H44.036V43.8566Z" fill="#F57E77"/>
    <path d="M44.1134 38.3612H38.5387V43.934H44.1134V38.3612Z" fill="#FFE4CE"/>
    <path d="M44.036 38.4386H38.6161V43.8566H44.036V38.4386Z" fill="#FFE4CE"/>
    <path d="M44.1134 33.0206H38.5387V38.5934H44.1134V33.0206Z" fill="#FFE4CE"/>
    <path d="M44.036 33.0979H38.6161V38.5159H44.036V33.0979Z" fill="#FFE4CE"/>
    <path d="M44.1134 27.6025H38.5387V33.1753H44.1134V27.6025Z" fill="#FFE4CE"/>
    <path d="M44.036 27.6799H38.6161V33.0979H44.036V27.6799Z" fill="#FFE4CE"/>
    <path d="M44.1134 22.2623H38.5387V27.8352H44.1134V22.2623Z" fill="#FFE4CE"/>
    <path d="M44.036 22.3396H38.6161V27.6802H44.036V22.3396Z" fill="#FFE4CE"/>
    <path d="M44.1134 16.8438H38.5387V22.4166H44.1134V16.8438Z" fill="#FFE4CE"/>
    <path d="M44.036 16.9211H38.6161V22.3392H44.036V16.9211Z" fill="#FFE4CE"/>
    <path d="M44.1134 11.5035H38.5387V17.0764H44.1134V11.5035Z" fill="#FFE4CE"/>
    <path d="M44.036 11.5809H38.6161V16.9989H44.036V11.5809Z" fill="#FFE4CE"/>
    <path d="M44.1134 6.08539H38.5387V11.6582H44.1134V6.08539Z" fill="#3D041F"/>
    <path d="M44.036 6.16248H38.6161V11.5805H44.036V6.16248Z" fill="#3D041F"/>
    <path d="M44.1134 0.744812H38.5387V6.31764H44.1134V0.744812Z" fill="#621931"/>
    <path d="M44.036 0.822205H38.6161V6.16283H44.036V0.822205Z" fill="#621931"/>
    <path d="M38.6919 232.172H33.1172V237.745H38.6919V232.172Z" fill="#26031F"/>
    <path d="M38.5378 232.249H33.1953V237.667H38.5378V232.249Z" fill="#26031F"/>
    <path d="M38.6919 226.753H33.1172V232.326H38.6919V226.753Z" fill="#391709"/>
    <path d="M38.5378 226.831H33.1953V232.172H38.5378V226.831Z" fill="#391709"/>
    <path d="M38.6919 221.413H33.1172V226.986H38.6919V221.413Z" fill="#391709"/>
    <path d="M38.5378 221.491H33.1953V226.909H38.5378V221.491Z" fill="#391709"/>
    <path d="M38.6919 215.995H33.1172V221.568H38.6919V215.995Z" fill="#391709"/>
    <path d="M38.5378 216.073H33.1953V221.491H38.5378V216.073Z" fill="#391709"/>
    <path d="M38.6919 210.655H33.1172V216.227H38.6919V210.655Z" fill="#262828"/>
    <path d="M38.5378 210.732H33.1953V216.15H38.5378V210.732Z" fill="#262828"/>
    <path d="M38.6919 205.237H33.1172V210.809H38.6919V205.237Z" fill="#262828"/>
    <path d="M38.5378 205.314H33.1953V210.654H38.5378V205.314Z" fill="#262828"/>
    <path d="M38.6919 199.896H33.1172V205.469H38.6919V199.896Z" fill="#262828"/>
    <path d="M38.5378 199.973H33.1953V205.391H38.5378V199.973Z" fill="#262828"/>
    <path d="M38.6919 194.478H33.1172V200.05H38.6919V194.478Z" fill="#262828"/>
    <path d="M38.5378 194.555H33.1953V199.973H38.5378V194.555Z" fill="#262828"/>
    <path d="M38.6919 189.06H33.1172V194.633H38.6919V189.06Z" fill="#262828"/>
    <path d="M38.5378 189.215H33.1953V194.633H38.5378V189.215Z" fill="#262828"/>
    <path d="M38.6919 183.719H33.1172V189.292H38.6919V183.719Z" fill="#262828"/>
    <path d="M38.5378 183.796H33.1953V189.137H38.5378V183.796Z" fill="#262828"/>
    <path d="M38.6919 178.301H33.1172V183.874H38.6919V178.301Z" fill="#262828"/>
    <path d="M38.5378 178.456H33.1953V183.874H38.5378V178.456Z" fill="#262828"/>
    <path d="M38.6919 172.961H33.1172V178.533H38.6919V172.961Z" fill="#262828"/>
    <path d="M38.5378 173.038H33.1953V178.456H38.5378V173.038Z" fill="#262828"/>
    <path d="M38.6919 167.543H33.1172V173.115H38.6919V167.543Z" fill="#262828"/>
    <path d="M38.5378 167.62H33.1953V172.961H38.5378V167.62Z" fill="#262828"/>
    <path d="M38.6919 162.202H33.1172V167.775H38.6919V162.202Z" fill="#262828"/>
    <path d="M38.5378 162.279H33.1953V167.697H38.5378V162.279Z" fill="#262828"/>
    <path d="M38.6919 156.784H33.1172V162.357H38.6919V156.784Z" fill="#262828"/>
    <path d="M38.5378 156.861H33.1953V162.279H38.5378V156.861Z" fill="#262828"/>
    <path d="M38.6919 151.443H33.1172V157.016H38.6919V151.443Z" fill="#262828"/>
    <path d="M38.5378 151.521H33.1953V156.939H38.5378V151.521Z" fill="#262828"/>
    <path d="M38.6919 146.025H33.1172V151.598H38.6919V146.025Z" fill="#262828"/>
    <path d="M38.5378 146.103H33.1953V151.443H38.5378V146.103Z" fill="#262828"/>
    <path d="M38.6919 140.685H33.1172V146.258H38.6919V140.685Z" fill="#262828"/>
    <path d="M38.5378 140.762H33.1953V146.18H38.5378V140.762Z" fill="#262828"/>
    <path d="M38.6919 135.266H33.1172V140.839H38.6919V135.266Z" fill="#424343"/>
    <path d="M38.5378 135.344H33.1953V140.762H38.5378V135.344Z" fill="#424343"/>
    <path d="M38.6919 129.926H33.1172V135.499H38.6919V129.926Z" fill="#424343"/>
    <path d="M38.5378 130.003H33.1953V135.422H38.5378V130.003Z" fill="#424343"/>
    <path d="M38.6919 124.508H33.1172V130.081H38.6919V124.508Z" fill="#424343"/>
    <path d="M38.5378 124.585H33.1953V129.926H38.5378V124.585Z" fill="#424343"/>
    <path d="M38.6919 119.09H33.1172V124.662H38.6919V119.09Z" fill="#391709"/>
    <path d="M38.5378 119.245H33.1953V124.663H38.5378V119.245Z" fill="#262828"/>
    <path d="M38.6919 113.749H33.1172V119.322H38.6919V113.749Z" fill="white"/>
    <path d="M38.5378 113.827H33.1953V119.245H38.5378V113.827Z" fill="white"/>
    <path d="M38.6919 108.331H33.1172V113.904H38.6919V108.331Z" fill="white"/>
    <path d="M38.5378 108.409H33.1953V113.827H38.5378V108.409Z" fill="white"/>
    <path d="M38.6919 102.991H33.1172V108.563H38.6919V102.991Z" fill="white"/>
    <path d="M38.5378 103.068H33.1953V108.409H38.5378V103.068Z" fill="white"/>
    <path d="M38.6919 97.5726H33.1172V103.145H38.6919V97.5726Z" fill="white"/>
    <path d="M38.5378 97.6498H33.1953V103.068H38.5378V97.6498Z" fill="white"/>
    <path d="M38.6919 92.2319H33.1172V97.8047H38.6919V92.2319Z" fill="white"/>
    <path d="M38.5378 92.3092H33.1953V97.7272H38.5378V92.3092Z" fill="white"/>
    <path d="M38.6919 86.8139H33.1172V92.3867H38.6919V86.8139Z" fill="white"/>
    <path d="M38.5378 86.8913H33.1953V92.3093H38.5378V86.8913Z" fill="white"/>
    <path d="M38.6919 81.4735H33.1172V87.0463H38.6919V81.4735Z" fill="white"/>
    <path d="M38.5378 81.5506H33.1953V86.8912H38.5378V81.5506Z" fill="white"/>
    <path d="M38.6919 76.0551H33.1172V81.6279H38.6919V76.0551Z" fill="white"/>
    <path d="M38.5378 76.1324H33.1953V81.5505H38.5378V76.1324Z" fill="white"/>
    <path d="M38.6919 70.7148H33.1172V76.2877H38.6919V70.7148Z" fill="white"/>
    <path d="M38.5378 70.7922H33.1953V76.2102H38.5378V70.7922Z" fill="white"/>
    <path d="M38.6919 65.2967H33.1172V70.8695H38.6919V65.2967Z" fill="white"/>
    <path d="M38.5378 65.3738H33.1953V70.7918H38.5378V65.3738Z" fill="white"/>
    <path d="M38.6919 59.9561H33.1172V65.5289H38.6919V59.9561Z" fill="white"/>
    <path d="M38.5378 60.0334H33.1953V65.3741H38.5378V60.0334Z" fill="white"/>
    <path d="M38.6919 54.538H33.1172V60.1108H38.6919V54.538Z" fill="#FFE4CE"/>
    <path d="M38.5378 54.6154H33.1953V60.0334H38.5378V54.6154Z" fill="#FFE4CE"/>
    <path d="M38.6919 49.1199H33.1172V54.6928H38.6919V49.1199Z" fill="#FFE4CE"/>
    <path d="M38.5378 49.1973H33.1953V54.6153H38.5378V49.1973Z" fill="#FFE4CE"/>
    <path d="M38.6919 43.7793H33.1172V49.3521H38.6919V43.7793Z" fill="#F57E77"/>
    <path d="M38.5378 43.8566H33.1953V49.1973H38.5378V43.8566Z" fill="#F57E77"/>
    <path d="M38.6919 38.3612H33.1172V43.934H38.6919V38.3612Z" fill="#FFE4CE"/>
    <path d="M38.5378 38.4386H33.1953V43.8566H38.5378V38.4386Z" fill="#FFE4CE"/>
    <path d="M38.6919 33.0206H33.1172V38.5934H38.6919V33.0206Z" fill="#FFE4CE"/>
    <path d="M38.5378 33.0979H33.1953V38.5159H38.5378V33.0979Z" fill="#FFE4CE"/>
    <path d="M38.6919 27.6025H33.1172V33.1753H38.6919V27.6025Z" fill="#FFE4CE"/>
    <path d="M38.5378 27.6799H33.1953V33.0979H38.5378V27.6799Z" fill="#FFE4CE"/>
    <path d="M38.6919 22.2623H33.1172V27.8352H38.6919V22.2623Z" fill="#66667C"/>
    <path d="M38.5378 22.3396H33.1953V27.6802H38.5378V22.3396Z" fill="#66667C"/>
    <path d="M38.6919 16.8438H33.1172V22.4166H38.6919V16.8438Z" fill="#FFE4CE"/>
    <path d="M38.5378 16.9211H33.1953V22.3392H38.5378V16.9211Z" fill="#FFE4CE"/>
    <path d="M38.6919 11.5035H33.1172V17.0764H38.6919V11.5035Z" fill="#FFE4CE"/>
    <path d="M38.5378 11.5809H33.1953V16.9989H38.5378V11.5809Z" fill="#FFE4CE"/>
    <path d="M38.6919 6.08539H33.1172V11.6582H38.6919V6.08539Z" fill="#3D041F"/>
    <path d="M38.5378 6.16248H33.1953V11.5805H38.5378V6.16248Z" fill="#3D041F"/>
    <path d="M38.6919 0.744812H33.1172V6.31764H38.6919V0.744812Z" fill="#621931"/>
    <path d="M38.5378 0.822205H33.1953V6.16283H38.5378V0.822205Z" fill="#621931"/>
    <path d="M33.3493 232.172H27.7745V237.745H33.3493V232.172Z" fill="#391709"/>
    <path d="M33.2716 232.249H27.8517V237.667H33.2716V232.249Z" fill="#391709"/>
    <path d="M33.3493 226.753H27.7745V232.326H33.3493V226.753Z" fill="#482C02"/>
    <path d="M33.2716 226.831H27.8517V232.172H33.2716V226.831Z" fill="#482C02"/>
    <path d="M33.3493 221.413H27.7745V226.986H33.3493V221.413Z" fill="#482C02"/>
    <path d="M33.2716 221.491H27.8517V226.909H33.2716V221.491Z" fill="#482C02"/>
    <path d="M33.3493 215.995H27.7745V221.568H33.3493V215.995Z" fill="#482C02"/>
    <path d="M33.2716 216.073H27.8517V221.491H33.2716V216.073Z" fill="#482C02"/>
    <path d="M33.3493 210.655H27.7745V216.227H33.3493V210.655Z" fill="#424343"/>
    <path d="M33.2716 210.732H27.8517V216.15H33.2716V210.732Z" fill="#424343"/>
    <path d="M33.3493 205.237H27.7745V210.809H33.3493V205.237Z" fill="#424343"/>
    <path d="M33.2716 205.314H27.8517V210.654H33.2716V205.314Z" fill="#424343"/>
    <path d="M33.3493 199.896H27.7745V205.469H33.3493V199.896Z" fill="#424343"/>
    <path d="M33.2716 199.973H27.8517V205.391H33.2716V199.973Z" fill="#424343"/>
    <path d="M33.3493 194.478H27.7745V200.05H33.3493V194.478Z" fill="#424343"/>
    <path d="M33.2716 194.555H27.8517V199.973H33.2716V194.555Z" fill="#424343"/>
    <path d="M33.3493 189.06H27.7745V194.633H33.3493V189.06Z" fill="#424343"/>
    <path d="M33.2716 189.215H27.8517V194.633H33.2716V189.215Z" fill="#424343"/>
    <path d="M33.3493 183.719H27.7745V189.292H33.3493V183.719Z" fill="#424343"/>
    <path d="M33.2716 183.796H27.8517V189.137H33.2716V183.796Z" fill="#424343"/>
    <path d="M33.3493 178.301H27.7745V183.874H33.3493V178.301Z" fill="#424343"/>
    <path d="M33.2716 178.456H27.8517V183.874H33.2716V178.456Z" fill="#424343"/>
    <path d="M33.3493 172.961H27.7745V178.533H33.3493V172.961Z" fill="#424343"/>
    <path d="M33.2716 173.038H27.8517V178.456H33.2716V173.038Z" fill="#424343"/>
    <path d="M33.3493 167.543H27.7745V173.115H33.3493V167.543Z" fill="#424343"/>
    <path d="M33.2716 167.62H27.8517V172.961H33.2716V167.62Z" fill="#424343"/>
    <path d="M33.3493 162.202H27.7745V167.775H33.3493V162.202Z" fill="#424343"/>
    <path d="M33.2716 162.279H27.8517V167.697H33.2716V162.279Z" fill="#424343"/>
    <path d="M33.3493 156.784H27.7745V162.357H33.3493V156.784Z" fill="#424343"/>
    <path d="M33.2716 156.861H27.8517V162.279H33.2716V156.861Z" fill="#424343"/>
    <path d="M33.3493 151.443H27.7745V157.016H33.3493V151.443Z" fill="#424343"/>
    <path d="M33.2716 151.521H27.8517V156.939H33.2716V151.521Z" fill="#424343"/>
    <path d="M33.3493 146.025H27.7745V151.598H33.3493V146.025Z" fill="#424343"/>
    <path d="M33.2716 146.103H27.8517V151.443H33.2716V146.103Z" fill="#424343"/>
    <path d="M33.3493 140.685H27.7745V146.258H33.3493V140.685Z" fill="#424343"/>
    <path d="M33.2716 140.762H27.8517V146.18H33.2716V140.762Z" fill="#424343"/>
    <path d="M33.3493 135.266H27.7745V140.839H33.3493V135.266Z" fill="#424343"/>
    <path d="M33.2716 135.344H27.8517V140.762H33.2716V135.344Z" fill="#424343"/>
    <path d="M33.3493 129.926H27.7745V135.499H33.3493V129.926Z" fill="#424343"/>
    <path d="M33.2716 130.003H27.8517V135.422H33.2716V130.003Z" fill="#424343"/>
    <path d="M33.3493 124.508H27.7745V130.081H33.3493V124.508Z" fill="#424343"/>
    <path d="M33.2716 124.585H27.8517V129.926H33.2716V124.585Z" fill="#424343"/>
    <path d="M33.3493 119.09H27.7745V124.662H33.3493V119.09Z" fill="#262828"/>
    <path d="M33.2716 119.245H27.8517V124.663H33.2716V119.245Z" fill="#262828"/>
    <path d="M33.3493 113.749H27.7745V119.322H33.3493V113.749Z" fill="white"/>
    <path d="M33.2716 113.827H27.8517V119.245H33.2716V113.827Z" fill="white"/>
    <path d="M33.3493 108.331H27.7745V113.904H33.3493V108.331Z" fill="white"/>
    <path d="M33.2716 108.409H27.8517V113.827H33.2716V108.409Z" fill="white"/>
    <path d="M33.3493 102.991H27.7745V108.563H33.3493V102.991Z" fill="white"/>
    <path d="M33.2716 103.068H27.8517V108.409H33.2716V103.068Z" fill="white"/>
    <path d="M33.3493 97.5726H27.7745V103.145H33.3493V97.5726Z" fill="white"/>
    <path d="M33.2716 97.6498H27.8517V103.068H33.2716V97.6498Z" fill="white"/>
    <path d="M33.3493 92.2319H27.7745V97.8047H33.3493V92.2319Z" fill="white"/>
    <path d="M33.2716 92.3092H27.8517V97.7272H33.2716V92.3092Z" fill="white"/>
    <path d="M33.3493 86.8139H27.7745V92.3867H33.3493V86.8139Z" fill="white"/>
    <path d="M33.2716 86.8913H27.8517V92.3093H33.2716V86.8913Z" fill="white"/>
    <path d="M33.3493 81.4735H27.7745V87.0463H33.3493V81.4735Z" fill="white"/>
    <path d="M33.2716 81.5506H27.8517V86.8912H33.2716V81.5506Z" fill="white"/>
    <path d="M33.3493 76.0551H27.7745V81.6279H33.3493V76.0551Z" fill="white"/>
    <path d="M33.2716 76.1324H27.8517V81.5505H33.2716V76.1324Z" fill="white"/>
    <path d="M33.3493 70.7148H27.7745V76.2877H33.3493V70.7148Z" fill="white"/>
    <path d="M33.2716 70.7922H27.8517V76.2102H33.2716V70.7922Z" fill="white"/>
    <path d="M33.3493 65.2967H27.7745V70.8695H33.3493V65.2967Z" fill="white"/>
    <path d="M33.2716 65.3738H27.8517V70.7918H33.2716V65.3738Z" fill="white"/>
    <path d="M33.3493 59.9561H27.7745V65.5289H33.3493V59.9561Z" fill="white"/>
    <path d="M33.2716 60.0334H27.8517V65.3741H33.2716V60.0334Z" fill="white"/>
    <path d="M33.3493 54.538H27.7745V60.1108H33.3493V54.538Z" fill="#FFE4CE"/>
    <path d="M33.2716 54.6154H27.8517V60.0334H33.2716V54.6154Z" fill="white"/>
    <path d="M37.7788 54.6156H32.3589V60.0336H37.7788V54.6156Z" fill="white"/>
    <path d="M33.3493 38.3612H27.7745V43.934H33.3493V38.3612Z" fill="#FFE4CE"/>
    <path d="M33.2716 38.4386H27.8517V43.8566H33.2716V38.4386Z" fill="#FFE4CE"/>
    <path d="M33.3493 33.0206H27.7745V38.5934H33.3493V33.0206Z" fill="#FFE4CE"/>
    <path d="M33.2716 33.0979H27.8517V38.5159H33.2716V33.0979Z" fill="#FFE4CE"/>
    <path d="M33.3493 27.6025H27.7745V33.1753H33.3493V27.6025Z" fill="#FFE4CE"/>
    <path d="M33.2716 27.6799H27.8517V33.0979H33.2716V27.6799Z" fill="#FFE4CE"/>
    <path d="M33.3493 22.2623H27.7745V27.8352H33.3493V22.2623Z" fill="#FFE4CE"/>
    <path d="M33.2716 22.3396H27.8517V27.6802H33.2716V22.3396Z" fill="#FFE4CE"/>
    <path d="M33.3493 16.8438H27.7745V22.4166H33.3493V16.8438Z" fill="#FFE4CE"/>
    <path d="M33.2716 16.9211H27.8517V22.3392H33.2716V16.9211Z" fill="#FFE4CE"/>
    <path d="M33.3493 11.5035H27.7745V17.0764H33.3493V11.5035Z" fill="#3D041F"/>
    <path d="M33.2716 11.5809H27.8517V16.9989H33.2716V11.5809Z" fill="#3D041F"/>
    <path d="M33.3493 6.08539H27.7745V11.6582H33.3493V6.08539Z" fill="#621931"/>
    <path d="M33.2716 6.16248H27.8517V11.5805H33.2716V6.16248Z" fill="#621931"/>
    <path d="M33.3493 0.744812H27.7745V6.31764H33.3493V0.744812Z" fill="#621931"/>
    <path d="M33.2716 0.822205H27.8517V6.16283H33.2716V0.822205Z" fill="#621931"/>
    <path d="M27.9281 232.172H22.3534V237.745H27.9281V232.172Z" fill="#391709"/>
    <path d="M27.8503 232.249H22.4304V237.667H27.8503V232.249Z" fill="#391709"/>
    <path d="M27.9281 226.753H22.3534V232.326H27.9281V226.753Z" fill="#482C02"/>
    <path d="M27.8503 226.831H22.4304V232.172H27.8503V226.831Z" fill="#482C02"/>
    <path d="M27.9281 221.413H22.3534V226.986H27.9281V221.413Z" fill="#482C02"/>
    <path d="M27.8503 221.491H22.4304V226.909H27.8503V221.491Z" fill="#482C02"/>
    <path d="M27.9281 215.995H22.3534V221.568H27.9281V215.995Z" fill="#482C02"/>
    <path d="M27.8503 216.073H22.4304V221.491H27.8503V216.073Z" fill="#482C02"/>
    <path d="M27.9281 210.655H22.3534V216.227H27.9281V210.655Z" fill="#424343"/>
    <path d="M27.9281 205.237H22.3534V210.809H27.9281V205.237Z" fill="#424343"/>
    <path d="M27.8503 205.314H22.4304V210.654H27.8503V205.314Z" fill="#424343"/>
    <path d="M27.9281 199.896H22.3534V205.469H27.9281V199.896Z" fill="#424343"/>
    <path d="M27.8503 199.973H22.4304V205.391H27.8503V199.973Z" fill="#424343"/>
    <path d="M27.9281 194.478H22.3534V200.05H27.9281V194.478Z" fill="#424343"/>
    <path d="M27.8503 194.555H22.4304V199.973H27.8503V194.555Z" fill="#424343"/>
    <path d="M27.9281 189.06H22.3534V194.633H27.9281V189.06Z" fill="#424343"/>
    <path d="M27.8503 189.215H22.4304V194.633H27.8503V189.215Z" fill="#424343"/>
    <path d="M27.9281 183.719H22.3534V189.292H27.9281V183.719Z" fill="#424343"/>
    <path d="M27.8503 183.796H22.4304V189.137H27.8503V183.796Z" fill="#424343"/>
    <path d="M27.9281 178.301H22.3534V183.874H27.9281V178.301Z" fill="#424343"/>
    <path d="M27.8503 178.456H22.4304V183.874H27.8503V178.456Z" fill="#424343"/>
    <path d="M27.9281 172.961H22.3534V178.533H27.9281V172.961Z" fill="#424343"/>
    <path d="M27.8503 173.038H22.4304V178.456H27.8503V173.038Z" fill="#424343"/>
    <path d="M27.9281 167.543H22.3534V173.115H27.9281V167.543Z" fill="#424343"/>
    <path d="M27.8503 167.62H22.4304V172.961H27.8503V167.62Z" fill="#424343"/>
    <path d="M27.9281 162.202H22.3534V167.775H27.9281V162.202Z" fill="#424343"/>
    <path d="M27.8503 162.279H22.4304V167.697H27.8503V162.279Z" fill="#424343"/>
    <path d="M27.9281 156.784H22.3534V162.357H27.9281V156.784Z" fill="#424343"/>
    <path d="M27.8503 156.861H22.4304V162.279H27.8503V156.861Z" fill="#424343"/>
    <path d="M27.9281 151.443H22.3534V157.016H27.9281V151.443Z" fill="#424343"/>
    <path d="M27.8503 151.521H22.4304V156.939H27.8503V151.521Z" fill="#424343"/>
    <path d="M27.9281 146.025H22.3534V151.598H27.9281V146.025Z" fill="#424343"/>
    <path d="M27.8503 146.103H22.4304V151.443H27.8503V146.103Z" fill="#424343"/>
    <path d="M27.9281 140.685H22.3534V146.258H27.9281V140.685Z" fill="#424343"/>
    <path d="M27.8503 140.762H22.4304V146.18H27.8503V140.762Z" fill="#424343"/>
    <path d="M27.9281 135.266H22.3534V140.839H27.9281V135.266Z" fill="#424343"/>
    <path d="M27.8503 135.344H22.4304V140.762H27.8503V135.344Z" fill="#424343"/>
    <path d="M27.9281 129.926H22.3534V135.499H27.9281V129.926Z" fill="#262828"/>
    <path d="M27.8503 130.003H22.4304V135.422H27.8503V130.003Z" fill="#262828"/>
    <path d="M27.9281 124.508H22.3534V130.081H27.9281V124.508Z" fill="#262828"/>
    <path d="M27.8503 124.585H22.4304V129.926H27.8503V124.585Z" fill="#262828"/>
    <path d="M27.9281 119.09H22.3534V124.662H27.9281V119.09Z" fill="#262828"/>
    <path d="M27.8503 119.245H22.4304V124.663H27.8503V119.245Z" fill="#262828"/>
    <path d="M27.9281 113.749H22.3534V119.322H27.9281V113.749Z" fill="white"/>
    <path d="M27.8503 113.827H22.4304V119.245H27.8503V113.827Z" fill="white"/>
    <path d="M27.9281 108.331H22.3534V113.904H27.9281V108.331Z" fill="white"/>
    <path d="M27.8503 108.409H22.4304V113.827H27.8503V108.409Z" fill="white"/>
    <path d="M27.9281 102.991H22.3534V108.563H27.9281V102.991Z" fill="white"/>
    <path d="M27.8503 103.068H22.4304V108.409H27.8503V103.068Z" fill="white"/>
    <path d="M27.9281 97.5726H22.3534V103.145H27.9281V97.5726Z" fill="white"/>
    <path d="M27.8503 97.6498H22.4304V103.068H27.8503V97.6498Z" fill="white"/>
    <path d="M27.9281 92.2319H22.3534V97.8047H27.9281V92.2319Z" fill="white"/>
    <path d="M27.8503 92.3092H22.4304V97.7272H27.8503V92.3092Z" fill="white"/>
    <path d="M27.9281 86.8139H22.3534V92.3867H27.9281V86.8139Z" fill="white"/>
    <path d="M27.8503 86.8913H22.4304V92.3093H27.8503V86.8913Z" fill="white"/>
    <path d="M27.9281 81.4735H22.3534V87.0463H27.9281V81.4735Z" fill="white"/>
    <path d="M27.8503 81.5506H22.4304V86.8912H27.8503V81.5506Z" fill="white"/>
    <path d="M27.9281 76.0551H22.3534V81.6279H27.9281V76.0551Z" fill="white"/>
    <path d="M27.9281 70.7148H22.3534V76.2877H27.9281V70.7148Z" fill="white"/>
    <path d="M27.8503 70.7922H22.4304V76.2102H27.8503V70.7922Z" fill="white"/>
    <path d="M27.9281 65.2967H22.3534V70.8695H27.9281V65.2967Z" fill="white"/>
    <path d="M27.8503 65.3738H22.4304V70.7918H27.8503V65.3738Z" fill="white"/>
    <path d="M27.9281 59.9561H22.3534V65.5289H27.9281V59.9561Z" fill="white"/>
    <path d="M27.8503 60.0334H22.4304V65.3741H27.8503V60.0334Z" fill="white"/>
    <path d="M27.9281 54.538H22.3534V60.1108H27.9281V54.538Z" fill="white"/>
    <path d="M27.8503 54.6154H22.4304V60.0334H27.8503V54.6154Z" fill="white"/>
    <path d="M27.9281 33.0206H22.3534V38.5934H27.9281V33.0206Z" fill="#F57E77"/>
    <path d="M27.8503 33.0979H22.4304V38.5159H27.8503V33.0979Z" fill="#F57E77"/>
    <path d="M27.9281 27.6025H22.3534V33.1753H27.9281V27.6025Z" fill="#3D041F"/>
    <path d="M27.8503 27.6799H22.4304V33.0979H27.8503V27.6799Z" fill="#3D041F"/>
    <path d="M27.9281 22.2623H22.3534V27.8352H27.9281V22.2623Z" fill="#3D041F"/>
    <path d="M27.8503 22.3396H22.4304V27.6802H27.8503V22.3396Z" fill="#3D041F"/>
    <path d="M27.9281 16.8438H22.3534V22.4166H27.9281V16.8438Z" fill="#621931"/>
    <path d="M27.8503 16.9211H22.4304V22.3392H27.8503V16.9211Z" fill="#621931"/>
    <path d="M27.9281 11.5035H22.3534V17.0764H27.9281V11.5035Z" fill="#621931"/>
    <path d="M27.8503 11.5809H22.4304V16.9989H27.8503V11.5809Z" fill="#621931"/>
    <path d="M27.9281 6.08539H22.3534V11.6582H27.9281V6.08539Z" fill="#621931"/>
    <path d="M27.8503 6.16248H22.4304V11.5805H27.8503V6.16248Z" fill="#621931"/>
    <path d="M22.5855 232.172H17.0107V237.745H22.5855V232.172Z" fill="#391709"/>
    <path d="M22.5078 232.249H17.0879V237.667H22.5078V232.249Z" fill="#391709"/>
    <path d="M22.5855 226.753H17.0107V232.326H22.5855V226.753Z" fill="#482C02"/>
    <path d="M22.5855 221.413H17.0107V226.986H22.5855V221.413Z" fill="#482C02"/>
    <path d="M22.5078 221.491H17.0879V226.909H22.5078V221.491Z" fill="#482C02"/>
    <path d="M22.5855 70.7148H17.0107V76.2877H22.5855V70.7148Z" fill="#C5C5C5"/>
    <path d="M22.5078 70.7922H17.0879V76.2102H22.5078V70.7922Z" fill="#C5C5C5"/>
    <path d="M22.5855 65.2967H17.0107V70.8695H22.5855V65.2967Z" fill="white"/>
    <path d="M22.5078 65.3738H17.0879V70.7918H22.5078V65.3738Z" fill="white"/>
    <path d="M22.5855 59.9561H17.0107V65.5289H22.5855V59.9561Z" fill="white"/>
    <path d="M22.5078 60.0334H17.0879V65.3741H22.5078V60.0334Z" fill="white"/>
    <path d="M22.5855 54.538H17.0107V60.1108H22.5855V54.538Z" fill="white"/>
    <path d="M22.5078 54.6154H17.0879V60.0334H22.5078V54.6154Z" fill="white"/>
    <path d="M22.5855 27.6025H17.0107V33.1753H22.5855V27.6025Z" fill="#F57E77"/>
    <path d="M22.5078 27.6799H17.0879V33.0979H22.5078V27.6799Z" fill="#F57E77"/>
    <path d="M22.5855 22.2623H17.0107V27.8352H22.5855V22.2623Z" fill="#FFE4CE"/>
    <path d="M22.5078 22.3396H17.0879V27.6802H22.5078V22.3396Z" fill="#FFE4CE"/>
    <path d="M22.5855 16.8438H17.0107V22.4166H22.5855V16.8438Z" fill="#3D041F"/>
    <path d="M22.5078 16.9211H17.0879V22.3392H22.5078V16.9211Z" fill="#3D041F"/>
    <path d="M17.1647 232.172H11.59V237.745H17.1647V232.172Z" fill="#391709"/>
    <path d="M17.0097 232.249H11.6672V237.667H17.0097V232.249Z" fill="#391709"/>
    <path d="M17.1647 226.753H11.59V232.326H17.1647V226.753Z" fill="#482C02"/>
    <path d="M17.0097 226.831H11.6672V232.172H17.0097V226.831Z" fill="#482C02"/>
    <path d="M17.1647 221.413H11.59V226.986H17.1647V221.413Z" fill="#482C02"/>
    <path d="M17.1647 140.685H11.59V146.258H17.1647V140.685Z" fill="#FFE4CE"/>
    <path d="M17.0097 140.762H11.6672V146.18H17.0097V140.762Z" fill="#FFE4CE"/>
    <path d="M17.1647 135.266H11.59V140.839H17.1647V135.266Z" fill="#F57E77"/>
    <path d="M17.0097 135.344H11.6672V140.762H17.0097V135.344Z" fill="#F57E77"/>
    <path d="M17.1647 70.7148H11.59V76.2877H17.1647V70.7148Z" fill="white"/>
    <path d="M27.7356 70.7922H17.241V76.2877H27.7356V70.7922Z" fill="#C5C5C5"/>
    <path d="M17.1647 65.2967H11.59V70.8695H17.1647V65.2967Z" fill="white"/>
    <path d="M17.0097 65.3738H11.6672V70.7918H17.0097V65.3738Z" fill="white"/>
    <path d="M17.1647 59.9561H11.59V65.5289H17.1647V59.9561Z" fill="white"/>
    <path d="M17.0097 60.0334H11.6672V65.3741H17.0097V60.0334Z" fill="white"/>
    <path d="M11.8211 232.172H6.24634V237.745H11.8211V232.172Z" fill="#391709"/>
    <path d="M11.7435 232.249H6.32361V237.667H11.7435V232.249Z" fill="#391709"/>
    <path d="M11.8211 226.753H6.24634V232.326H11.8211V226.753Z" fill="#482C02"/>
    <path d="M11.7435 226.831H6.32361V232.172H11.7435V226.831Z" fill="#482C02"/>
    <path d="M11.8211 146.025H6.24634V151.598H11.8211V146.025Z" fill="#FFE4CE"/>
    <path d="M11.7435 146.103H6.32361V151.443H11.7435V146.103Z" fill="#FFE4CE"/>
    <path d="M11.8211 140.685H6.24634V146.258H11.8211V140.685Z" fill="#FFE4CE"/>
    <path d="M11.7435 140.762H6.32361V146.18H11.7435V140.762Z" fill="#FFE4CE"/>
    <path d="M11.8211 135.266H6.24634V140.839H11.8211V135.266Z" fill="#FFE4CE"/>
    <path d="M11.7435 135.344H6.32361V140.762H11.7435V135.344Z" fill="#FFE4CE"/>
    <path d="M11.8211 129.926H6.24634V135.499H11.8211V129.926Z" fill="#F57E77"/>
    <path d="M11.8211 86.8139H6.24634V92.3867H11.8211V86.8139Z" fill="#C5C5C5"/>
    <path d="M11.7435 86.8913H6.32361V92.3093H11.7435V86.8913Z" fill="#C5C5C5"/>
    <path d="M11.8211 81.4735H6.24634V87.0463H11.8211V81.4735Z" fill="#C5C5C5"/>
    <path d="M11.7435 81.5506H6.32361V86.8912H11.7435V81.5506Z" fill="#C5C5C5"/>
    <path d="M11.8211 76.0551H6.24634V81.6279H11.8211V76.0551Z" fill="white"/>
    <path d="M17.2409 76.1324H11.821V81.5505H17.2409V76.1324Z" fill="#C5C5C5"/>
    <path d="M27.7356 76.2877H22.3157V119.322H27.7356V76.2877Z" fill="#C5C5C5"/>
    <path d="M11.8211 70.7148H6.24634V76.2877H11.8211V70.7148Z" fill="white"/>
    <path d="M11.7435 70.7922H6.32361V76.2102H11.7435V70.7922Z" fill="white"/>
    <path d="M11.8211 65.2967H6.24634V70.8695H11.8211V65.2967Z" fill="white"/>
    <path d="M11.7435 65.3738H6.32361V70.7918H11.7435V65.3738Z" fill="white"/>
    <path d="M11.8211 59.9561H6.24634V65.5289H11.8211V59.9561Z" fill="white"/>
    <path d="M11.7435 60.0334H6.32361V65.3741H11.7435V60.0334Z" fill="white"/>
    <path d="M6.40042 146.025H0.825684V151.598H6.40042V146.025Z" fill="#FFE4CE"/>
    <path d="M6.32271 146.103H0.902832V151.443H6.32271V146.103Z" fill="#FFE4CE"/>
    <path d="M6.40042 140.685H0.825684V146.258H6.40042V140.685Z" fill="#FFE4CE"/>
    <path d="M6.32271 140.762H0.902832V146.18H6.32271V140.762Z" fill="#FFE4CE"/>
    <path d="M6.40042 135.266H0.825684V140.839H6.40042V135.266Z" fill="#FFE4CE"/>
    <path d="M6.32271 135.344H0.902832V140.762H6.32271V135.344Z" fill="#FFE4CE"/>
    <path d="M6.40042 129.926H0.825684V135.499H6.40042V129.926Z" fill="#FFE4CE"/>
    <path d="M6.32271 130.003H0.902832V135.422H6.32271V130.003Z" fill="#FFE4CE"/>
    <path d="M6.32271 124.585H0.902832V129.926H6.32271V124.585Z" fill="white"/>
    <path d="M6.40042 86.8139H0.825684V92.3867H6.40042V86.8139Z" fill="white"/>
    <path d="M6.32271 86.8913H0.902832V92.3093H6.32271V86.8913Z" fill="white"/>
    <path d="M6.40042 81.4735H0.825684V87.0463H6.40042V81.4735Z" fill="white"/>
    <path d="M6.32271 81.5506H0.902832V86.8912H6.32271V81.5506Z" fill="white"/>
    <path d="M6.40042 76.0551H0.825684V81.6279H6.40042V76.0551Z" fill="white"/>
    <path d="M6.32271 76.1324H0.902832V81.5505H6.32271V76.1324Z" fill="white"/>
    <path d="M6.40042 70.7148H0.825684V76.2877H6.40042V70.7148Z" fill="white"/>
    <path d="M6.32271 70.7922H0.902832V76.2102H6.32271V70.7922Z" fill="white"/>
    <path d="M44.1141 54.6155H38.6942V65.5287H44.1141V54.6155Z" fill="white"/>
    <path d="M54.8775 54.6155H27.9291V60.0335H54.8775V54.6155Z" fill="white"/>
    <path d="M44.1131 54.6931H38.6932V70.7149H44.1131V54.6931Z" fill="white"/>
    <path d="M49.4559 54.6154H44.036V65.5287H49.4559V54.6154Z" fill="white"/>
    <path d="M38.7697 54.6154H33.3499V65.5287H38.7697V54.6154Z" fill="white"/>
    <path d="M33.1555 54.6156H27.7356V60.0336H33.1555V54.6156Z" fill="#C5C5C5"/>
    <path d="M38.5765 60.1109H33.1566V65.5289H38.5765V60.1109Z" fill="#C5C5C5"/>
    <path d="M49.225 54.7318H54.6449V60.1498H49.225V54.7318Z" fill="#C5C5C5"/>
    <path d="M43.804 60.2271H49.2239V65.6451H43.804V60.2271Z" fill="#C5C5C5"/>
    <path d="M38.3831 65.2967H43.803V119.09H38.3831V65.2967Z" fill="#C5C5C5"/>
    <path d="M11.7435 127.294H6.32361V130.003H11.7435V127.294Z" fill="#C5C5C5"/>
    <path d="M11.8211 124.508H6.24634V130.081H11.8211V124.508Z" fill="#262828"/>
    <path d="M11.7435 124.585H6.32361V130.081H11.7435V124.585Z" fill="#C5C5C5"/>
    <path d="M11.8211 119.09H6.24634V124.662H11.8211V119.09Z" fill="#C5C5C5"/>
    <path d="M11.7435 119.245H6.32361V124.663H11.7435V119.245Z" fill="#C5C5C5"/>
    <path d="M11.8211 113.749H6.24634V119.322H11.8211V113.749Z" fill="#C5C5C5"/>
    <path d="M11.7435 113.827H6.32361V119.245H11.7435V113.827Z" fill="#C5C5C5"/>
    <path d="M11.8211 108.331H6.24634V113.904H11.8211V108.331Z" fill="#C5C5C5"/>
    <path d="M11.7435 108.409H6.32361V113.827H11.7435V108.409Z" fill="#C5C5C5"/>
    <path d="M11.8211 102.991H6.24634V108.563H11.8211V102.991Z" fill="#C5C5C5"/>
    <path d="M11.7435 103.068H6.32361V108.409H11.7435V103.068Z" fill="#C5C5C5"/>
    <path d="M11.8211 97.5726H6.24634V103.145H11.8211V97.5726Z" fill="#C5C5C5"/>
    <path d="M11.7435 97.6498H6.32361V103.068H11.7435V97.6498Z" fill="#C5C5C5"/>
    <path d="M11.8211 92.2319H6.24634V97.8047H11.8211V92.2319Z" fill="#C5C5C5"/>
    <path d="M11.7435 92.3092H6.32361V97.7272H11.7435V92.3092Z" fill="#C5C5C5"/>
    <path d="M6.40042 124.508H0.825684V130.081H6.40042V124.508Z" fill="white"/>
    <path d="M6.40042 119.09H0.825684V124.662H6.40042V119.09Z" fill="white"/>
    <path d="M6.32271 119.245H0.902832V124.663H6.32271V119.245Z" fill="white"/>
    <path d="M6.40042 113.749H0.825684V119.322H6.40042V113.749Z" fill="white"/>
    <path d="M6.32271 113.827H0.902832V119.245H6.32271V113.827Z" fill="white"/>
    <path d="M6.40042 108.331H0.825684V113.904H6.40042V108.331Z" fill="white"/>
    <path d="M6.32271 108.409H0.902832V113.827H6.32271V108.409Z" fill="white"/>
    <path d="M6.40042 102.991H0.825684V108.563H6.40042V102.991Z" fill="white"/>
    <path d="M6.32271 103.068H0.902832V108.409H6.32271V103.068Z" fill="white"/>
    <path d="M6.40042 97.5726H0.825684V103.145H6.40042V97.5726Z" fill="white"/>
    <path d="M6.32271 97.6498H0.902832V103.068H6.32271V97.6498Z" fill="white"/>
    <path d="M6.40042 92.2319H0.825684V97.8047H6.40042V92.2319Z" fill="white"/>
    <path d="M6.32271 92.3092H0.902832V97.7272H6.32271V92.3092Z" fill="white"/>
    <path d="M76.4049 81.6279H70.8302V130.081H76.4049V81.6279Z" fill="#C5C5C5"/>
    <path d="M27.7745 113.904H22.3534V119.322H27.7745V113.904Z" fill="#C5C5C5"/>
</svg>
