<svg width="50" height="52" viewBox="0 0 50 52" fill="none" xmlns="http://www.w3.org/2000/svg">
    <path d="M50 1.30005V49.4H0L50 1.30005Z" fill="#4AA851"/>
    <path d="M50 1.30005V49.4H39.3086V11.5859L50 1.30005Z" fill="#444042"/>
    <path d="M10.165 19.4008H18.3347C20.313 19.3783 22.2857 19.6238 24.2033 20.1312C25.9486 20.6101 27.5944 21.42 29.0581 22.5204C30.533 23.6326 31.673 25.1922 32.478 27.199C33.283 29.2059 33.6855 31.6064 33.6855 34.4003C33.6855 37.187 33.283 39.5868 32.478 41.5999C31.673 43.6129 30.533 45.1731 29.0581 46.2804C27.5944 47.3807 25.9486 48.1907 24.2033 48.6697C22.2856 49.1763 20.313 49.4212 18.3347 49.3982H0V2.3158H30.287V12.9019H10.165V19.4008ZM10.165 39.6184H18.3116C21.464 39.6184 23.0409 38.0186 23.042 34.8193C23.0432 31.6199 21.4664 30.0203 18.3116 30.0203H10.165V39.6184Z" fill="#444042"/>
</svg>
