<svg width="142" height="238" viewBox="0 0 142 238" fill="none" xmlns="http://www.w3.org/2000/svg">
    <path d="M16.8452 82.3573L18.2697 87.6693L12.9536 89.0927L11.5291 83.7806L16.8452 82.3573Z" fill="#FFE4CE"/>
    <path d="M22.161 80.9342L23.5854 86.2462L18.1923 87.6902L16.7679 82.3782L22.161 80.9342Z" fill="#FFE4CE"/>
    <path d="M27.5543 79.49L28.9788 84.802L23.5856 86.246L22.1612 80.934L27.5543 79.49Z" fill="#FFE4CE"/>
    <path d="M36.9554 76.9731L38.3799 82.2852L28.9018 84.8228L27.4774 79.5108L36.9554 76.9731Z" fill="#FFE4CE"/>
    <path d="M38.2635 76.6226L39.688 81.9346L34.3719 83.3579L32.9475 78.0459L38.2635 76.6226Z" fill="#243454"/>
    <path d="M43.5792 75.1992L45.0037 80.5112L39.6105 81.9552L38.1861 76.6432L43.5792 75.1992Z" fill="#243454"/>
    <path d="M18.2695 87.6694L19.7146 93.0583L14.3985 94.4817L12.9534 89.0927L18.2695 87.6694Z" fill="#FFE4CE"/>
    <path d="M23.5852 86.2461L25.0303 91.6351L19.6371 93.0791L18.192 87.6901L23.5852 86.2461Z" fill="#FFE4CE"/>
    <path d="M28.9787 84.8019L30.4238 90.1909L25.0307 91.6349L23.5856 86.2459L28.9787 84.8019Z" fill="#FFE4CE"/>
    <path d="M38.881 82.1509L40.326 87.5399L30.3467 90.2118L28.9016 84.8228L38.881 82.1509Z" fill="#F57E77"/>
    <path d="M39.688 81.9346L41.1331 87.3236L35.817 88.747L34.3719 83.358L39.688 81.9346Z" fill="#131E33"/>
    <path d="M45.0034 80.5113L46.4485 85.9003L41.0553 87.3442L39.6103 81.9552L45.0034 80.5113Z" fill="#F57E77"/>
    <path d="M25.0102 91.5578L26.4553 96.9468L21.0622 98.3908L19.6171 93.0018L25.0102 91.5578Z" fill="#FFE4CE"/>
    <path d="M30.4029 90.1141L31.848 95.5031L26.4549 96.947L25.0098 91.558L30.4029 90.1141Z" fill="#F57E77"/>
    <path d="M34.2945 83.3797L35.7396 88.7687L30.3465 90.2127L28.9014 84.8237L34.2945 83.3797Z" fill="#877A86"/>
    <path d="M32.8495 78.0462L34.2946 83.4352L28.9014 84.8792L27.4563 79.4902L32.8495 78.0462Z" fill="white"/>
    <path d="M97.1765 88.6126L91.5981 88.3767L91.3654 93.8712L96.9438 94.1071L97.1765 88.6126Z" fill="#131E33"/>
    <path d="M97.413 83.0382L91.8346 82.8022L91.5985 88.3764L97.1769 88.6123L97.413 83.0382Z" fill="#131E33"/>
    <path d="M97.646 77.5442L92.0676 77.3082L91.8315 82.8823L97.4099 83.1183L97.646 77.5442Z" fill="#131E33"/>
    <path d="M91.5984 88.3771L86.02 88.1409L85.7875 93.6354L91.3659 93.8716L91.5984 88.3771Z" fill="#243454"/>
    <path d="M91.8341 82.8028L86.2557 82.5669L86.0196 88.141L91.598 88.3769L91.8341 82.8028Z" fill="#243454"/>
    <path d="M92.0671 77.3084L86.4888 77.0721L86.253 82.6463L91.8314 82.8825L92.0671 77.3084Z" fill="#243454"/>
    <path d="M39.2523 116.615H44.9952V122.354H39.2523V116.615Z" fill="#243454"/>
    <path d="M39.3321 116.695H44.8357V122.274H39.3321V116.695Z" fill="#243454"/>
    <path d="M39.2523 111.036H44.9952V116.775H39.2523V111.036Z" fill="#243454"/>
    <path d="M39.3321 111.116H44.8357V116.695H39.3321V111.116Z" fill="#243454"/>
    <path d="M39.2523 105.537H44.9952V111.275H39.2523V105.537Z" fill="#243454"/>
    <path d="M39.3321 105.616H44.8357V111.116H39.3321V105.616Z" fill="#243454"/>
    <path d="M39.2523 99.9574H44.9952V105.696H39.2523V99.9574Z" fill="#243454"/>
    <path d="M39.3321 100.037H44.8357V105.616H39.3321V100.037Z" fill="#243454"/>
    <path d="M39.2523 94.4579H44.9952V100.196H39.2523V94.4579Z" fill="#243454"/>
    <path d="M39.3321 94.5378H44.8357V100.117H39.3321V94.5378Z" fill="#243454"/>
    <path d="M39.2523 88.8787H44.9952V94.6172H39.2523V88.8787Z" fill="#243454"/>
    <path d="M39.3321 88.9586H44.8357V94.5377H39.3321V88.9586Z" fill="#243454"/>
    <path d="M39.2523 83.3799H44.9952V89.1184H39.2523V83.3799Z" fill="#243454"/>
    <path d="M39.3321 83.459H44.8357V88.9584H39.3321V83.459Z" fill="#243454"/>
    <path d="M39.2523 77.8003H44.9952V83.5388H39.2523V77.8003Z" fill="#243454"/>
    <path d="M39.3329 77.1971H44.8365V82.7762H39.3329V77.1971Z" fill="#243454"/>
    <path d="M39.2523 72.3014H44.9952V78.0399H39.2523V72.3014Z" fill="#243454"/>
    <path d="M39.3329 71.6984H44.8365V77.2775H39.3329V71.6984Z" fill="#243454"/>
    <path d="M39.2523 66.7222H44.9952V72.4607H39.2523V66.7222Z" fill="#243454"/>
    <path d="M39.3321 66.8013H44.8357V72.3804H39.3321V66.8013Z" fill="#243454"/>
    <path d="M39.2523 61.2225H44.9952V66.961H39.2523V61.2225Z" fill="#243454"/>
    <path d="M39.3321 61.3025H44.8357V66.8019H39.3321V61.3025Z" fill="#243454"/>
    <path d="M39.2523 55.6433H44.9952V61.3818H39.2523V55.6433Z" fill="#243454"/>
    <path d="M39.3321 55.7234H44.8357V61.3025H39.3321V55.7234Z" fill="#243454"/>
    <path d="M35.3611 61.1947H40.8647V66.7738H35.3611V61.1947Z" fill="#243454"/>
    <path d="M35.3611 64.6959H40.8647V70.275H35.3611V64.6959Z" fill="#243454"/>
    <path d="M35.3611 68.1973H40.8647V73.7764H35.3611V68.1973Z" fill="#243454"/>
    <path d="M39.2523 16.8287H44.9952V22.5672H39.2523V16.8287Z" fill="#3D041F"/>
    <path d="M39.3321 16.9082H44.8357V22.4873H39.3321V16.9082Z" fill="#3D041F"/>
    <path d="M39.2523 11.3295H44.9952V17.068H39.2523V11.3295Z" fill="#242424"/>
    <path d="M39.3321 11.4094H44.8357V16.9885H39.3321V11.4094Z" fill="#3D041F"/>
    <path d="M39.2523 5.75037H44.9952V11.4889H39.2523V5.75037Z" fill="#242424"/>
    <path d="M39.3321 5.82983H44.8357V11.4089H39.3321V5.82983Z" fill="#3D041F"/>
    <path d="M44.7568 116.615H50.4998V122.354H44.7568V116.615Z" fill="#243454"/>
    <path d="M44.7568 111.036H50.4998V116.775H44.7568V111.036Z" fill="#243454"/>
    <path d="M44.8362 111.116H50.4196V116.695H44.8362V111.116Z" fill="#243454"/>
    <path d="M44.7568 105.537H50.4998V111.275H44.7568V105.537Z" fill="#243454"/>
    <path d="M44.8362 105.616H50.4196V111.116H44.8362V105.616Z" fill="#243454"/>
    <path d="M44.7568 99.9574H50.4998V105.696H44.7568V99.9574Z" fill="#243454"/>
    <path d="M44.8362 100.037H50.4196V105.616H44.8362V100.037Z" fill="#243454"/>
    <path d="M44.7568 94.4579H50.4998V100.196H44.7568V94.4579Z" fill="#243454"/>
    <path d="M44.8362 94.5378H50.4196V100.117H44.8362V94.5378Z" fill="#243454"/>
    <path d="M44.7568 88.8787H50.4998V94.6172H44.7568V88.8787Z" fill="#243454"/>
    <path d="M44.8362 88.9586H50.4196V94.5377H44.8362V88.9586Z" fill="#243454"/>
    <path d="M44.7568 83.3799H50.4998V89.1184H44.7568V83.3799Z" fill="#243454"/>
    <path d="M44.8362 83.459H50.4196V88.9584H44.8362V83.459Z" fill="#243454"/>
    <path d="M44.7568 77.8003H50.4998V83.5388H44.7568V77.8003Z" fill="#243454"/>
    <path d="M44.8362 77.8801H50.4196V83.4592H44.8362V77.8801Z" fill="#243454"/>
    <path d="M44.7568 72.3014H50.4998V78.0399H44.7568V72.3014Z" fill="#243454"/>
    <path d="M44.8362 72.3809H50.4196V77.96H44.8362V72.3809Z" fill="#243454"/>
    <path d="M44.7568 66.7222H50.4998V72.4607H44.7568V66.7222Z" fill="#243454"/>
    <path d="M44.7568 61.2225H50.4998V66.961H44.7568V61.2225Z" fill="#243454"/>
    <path d="M44.8362 61.3025H50.4196V66.8019H44.8362V61.3025Z" fill="#374F80"/>
    <path d="M44.7568 55.6433H50.4998V61.3818H44.7568V55.6433Z" fill="#243454"/>
    <path d="M44.8362 55.7234H50.4196V61.3025H44.8362V55.7234Z" fill="#374F80"/>
    <path d="M44.7568 33.4865H50.4998V39.225H44.7568V33.4865Z" fill="#FFE4CE"/>
    <path d="M44.8362 33.5659H50.4196V39.145H44.8362V33.5659Z" fill="#FFE4CE"/>
    <path d="M44.7568 27.9072H50.4998V33.6457H44.7568V27.9072Z" fill="#FFE4CE"/>
    <path d="M44.8362 27.9867H50.4196V33.5658H44.8362V27.9867Z" fill="#FFE4CE"/>
    <path d="M47.8723 22.6814H58.384V29.6838H47.8723V22.6814Z" fill="#FFE4CE"/>
    <path d="M44.7568 22.4083H50.4998V28.1468H44.7568V22.4083Z" fill="#FFE4CE"/>
    <path d="M44.8362 22.4879H50.4196V27.9873H44.8362V22.4879Z" fill="#FFE4CE"/>
    <path d="M44.7568 16.8287H50.4998V22.5672H44.7568V16.8287Z" fill="#FFE4CE"/>
    <path d="M44.8362 16.9082H50.4196V22.4873H44.8362V16.9082Z" fill="#FFE4CE"/>
    <path d="M44.7568 11.3295H50.4998V17.068H44.7568V11.3295Z" fill="#3D041F"/>
    <path d="M44.8362 11.4094H50.4196V16.9885H44.8362V11.4094Z" fill="#3D041F"/>
    <path d="M44.7568 5.75037H50.4998V11.4889H44.7568V5.75037Z" fill="#242424"/>
    <path d="M44.8362 5.82983H50.4196V11.4089H44.8362V5.82983Z" fill="#3D041F"/>
    <path d="M44.7568 0.250977H50.4998V5.98948H44.7568V0.250977Z" fill="#242424"/>
    <path d="M44.8362 0.330322H50.4196V5.82972H44.8362V0.330322Z" fill="#3D041F"/>
    <path d="M50.34 116.615H56.0829V122.354H50.34V116.615Z" fill="#243454"/>
    <path d="M50.4192 116.695H56.0026V122.274H50.4192V116.695Z" fill="#243454"/>
    <path d="M50.34 111.036H56.0829V116.775H50.34V111.036Z" fill="#243454"/>
    <path d="M50.4192 111.116H56.0026V116.695H50.4192V111.116Z" fill="#243454"/>
    <path d="M50.34 105.537H56.0829V111.275H50.34V105.537Z" fill="#243454"/>
    <path d="M50.4192 105.616H56.0026V111.116H50.4192V105.616Z" fill="#243454"/>
    <path d="M50.34 99.9574H56.0829V105.696H50.34V99.9574Z" fill="#243454"/>
    <path d="M50.4192 100.037H56.0026V105.616H50.4192V100.037Z" fill="#243454"/>
    <path d="M50.34 94.4579H56.0829V100.196H50.34V94.4579Z" fill="#243454"/>
    <path d="M50.4192 94.5378H56.0026V100.117H50.4192V94.5378Z" fill="#243454"/>
    <path d="M50.34 88.8787H56.0829V94.6172H50.34V88.8787Z" fill="#243454"/>
    <path d="M50.4192 88.9586H56.0026V94.5377H50.4192V88.9586Z" fill="#243454"/>
    <path d="M50.34 83.3799H56.0829V89.1184H50.34V83.3799Z" fill="#243454"/>
    <path d="M50.4192 83.459H56.0026V88.9584H50.4192V83.459Z" fill="#243454"/>
    <path d="M50.34 77.8003H56.0829V83.5388H50.34V77.8003Z" fill="#243454"/>
    <path d="M50.4192 77.8801H56.0026V83.4592H50.4192V77.8801Z" fill="#243454"/>
    <path d="M50.34 72.3014H56.0829V78.0399H50.34V72.3014Z" fill="#243454"/>
    <path d="M50.34 66.7222H56.0829V72.4607H50.34V66.7222Z" fill="#243454"/>
    <path d="M50.4192 66.8013H56.0026V72.3804H50.4192V66.8013Z" fill="#243454"/>
    <path d="M50.34 61.2225H56.0829V66.961H50.34V61.2225Z" fill="#243454"/>
    <path d="M50.4192 61.3025H56.0026V66.8019H50.4192V61.3025Z" fill="#243454"/>
    <path d="M50.34 55.6433H56.0829V61.3818H50.34V55.6433Z" fill="#F57E77"/>
    <path d="M50.4192 55.7234H56.0026V61.3025H50.4192V55.7234Z" fill="#F57E77"/>
    <path d="M50.34 50.0646H56.0829V55.8031H50.34V50.0646Z" fill="#F57E77"/>
    <path d="M50.4192 50.144H56.0026V55.7231H50.4192V50.144Z" fill="#F57E77"/>
    <path d="M50.34 44.5648H56.0829V50.3033H50.34V44.5648Z" fill="#F57E77"/>
    <path d="M50.34 38.9856H56.0829V44.7241H50.34V38.9856Z" fill="#FFE4CE"/>
    <path d="M47.8725 19.1803H68.8959V29.6839H47.8725V19.1803Z" fill="#FFE4CE"/>
    <path d="M50.34 33.4865H56.0829V39.225H50.34V33.4865Z" fill="#FFE4CE"/>
    <path d="M50.4192 33.5659H56.0026V39.145H50.4192V33.5659Z" fill="#FFE4CE"/>
    <path d="M50.34 27.9072H56.0829V33.6457H50.34V27.9072Z" fill="#FFE4CE"/>
    <path d="M50.4192 27.9867H56.0026V33.5658H50.4192V27.9867Z" fill="#FFE4CE"/>
    <path d="M50.34 16.8287H56.0829V22.5672H50.34V16.8287Z" fill="#FFE4CE"/>
    <path d="M50.4192 16.9082H56.0026V22.4873H50.4192V16.9082Z" fill="#FFE4CE"/>
    <path d="M50.34 11.3295H56.0829V17.068H50.34V11.3295Z" fill="#FFE4CE"/>
    <path d="M50.4192 11.4094H56.0026V16.9885H50.4192V11.4094Z" fill="#FFE4CE"/>
    <path d="M50.34 5.75037H56.0829V11.4889H50.34V5.75037Z" fill="#3D041F"/>
    <path d="M50.4192 5.82983H56.0026V11.4089H50.4192V5.82983Z" fill="#3D041F"/>
    <path d="M50.34 0.250977H56.0829V5.98948H50.34V0.250977Z" fill="#242424"/>
    <path d="M50.4192 0.330322H56.0026V5.82972H50.4192V0.330322Z" fill="#3D041F"/>
    <path d="M55.8427 116.615H61.5856V122.354H55.8427V116.615Z" fill="#243454"/>
    <path d="M59.4278 120.715H65.0112V124.244H59.4278V120.715Z" fill="#262828"/>
    <path d="M64.2488 120.715H74.7605V124.216H64.2488V120.715Z" fill="#262828"/>
    <path d="M55.8427 111.036H61.5856V116.775H55.8427V111.036Z" fill="#243454"/>
    <path d="M55.9238 111.116H61.5072V116.695H55.9238V111.116Z" fill="#243454"/>
    <path d="M55.8427 105.537H61.5856V111.275H55.8427V105.537Z" fill="#243454"/>
    <path d="M55.9238 105.616H61.5072V111.116H55.9238V105.616Z" fill="#243454"/>
    <path d="M55.8427 99.9574H61.5856V105.696H55.8427V99.9574Z" fill="#243454"/>
    <path d="M55.9238 100.037H61.5072V105.616H55.9238V100.037Z" fill="#243454"/>
    <path d="M55.8427 94.4579H61.5856V100.196H55.8427V94.4579Z" fill="#243454"/>
    <path d="M55.9238 94.5378H61.5072V100.117H55.9238V94.5378Z" fill="#243454"/>
    <path d="M55.8427 88.8787H61.5856V94.6172H55.8427V88.8787Z" fill="#243454"/>
    <path d="M55.9238 88.9586H61.5072V94.5377H55.9238V88.9586Z" fill="#243454"/>
    <path d="M55.8427 83.3799H61.5856V89.1184H55.8427V83.3799Z" fill="#243454"/>
    <path d="M55.9238 83.459H61.5072V88.9584H55.9238V83.459Z" fill="#243454"/>
    <path d="M55.8427 77.8003H61.5856V83.5388H55.8427V77.8003Z" fill="#243454"/>
    <path d="M55.9238 77.8801H61.5072V83.4592H55.9238V77.8801Z" fill="#243454"/>
    <path d="M55.8427 72.3014H61.5856V78.0399H55.8427V72.3014Z" fill="#243454"/>
    <path d="M55.9238 72.3809H61.5072V77.96H55.9238V72.3809Z" fill="#243454"/>
    <path d="M55.8427 66.7222H61.5856V72.4607H55.8427V66.7222Z" fill="#243454"/>
    <path d="M55.8427 61.2225H61.5856V66.961H55.8427V61.2225Z" fill="#F57E77"/>
    <path d="M50.4999 61.3025H61.5072V69.1352H50.4999V61.3025Z" fill="#243454"/>
    <path d="M55.8427 55.6433H61.5856V61.3818H55.8427V55.6433Z" fill="#FFE4CE"/>
    <path d="M55.9238 55.7234H61.5072V61.3025H55.9238V55.7234Z" fill="#FFE4CE"/>
    <path d="M55.8427 50.0646H61.5856V55.8031H55.8427V50.0646Z" fill="#FFE4CE"/>
    <path d="M55.9238 50.144H61.5072V55.7231H55.9238V50.144Z" fill="#FFE4CE"/>
    <path d="M55.8427 44.5648H61.5856V50.3033H55.8427V44.5648Z" fill="#FFE4CE"/>
    <path d="M55.9238 44.6448H61.5072V50.1442H55.9238V44.6448Z" fill="#FFE4CE"/>
    <path d="M55.8427 38.9856H61.5856V44.7241H55.8427V38.9856Z" fill="#FFE4CE"/>
    <path d="M55.9238 39.0656H61.5072V44.6447H55.9238V39.0656Z" fill="#FFE4CE"/>
    <path d="M55.8427 33.4865H61.5856V39.225H55.8427V33.4865Z" fill="#FFE4CE"/>
    <path d="M55.9238 33.5659H61.5072V39.145H55.9238V33.5659Z" fill="#FFE4CE"/>
    <path d="M55.8427 27.9072H61.5856V33.6457H55.8427V27.9072Z" fill="#FFE4CE"/>
    <path d="M55.9238 27.9867H61.5072V33.5658H55.9238V27.9867Z" fill="#FFE4CE"/>
    <path d="M55.8427 22.4083H61.5856V28.1468H55.8427V22.4083Z" fill="#FFE4CE"/>
    <path d="M55.9238 22.4879H61.5072V27.9873H55.9238V22.4879Z" fill="#FFE4CE"/>
    <path d="M55.8427 16.8287H61.5856V22.5672H55.8427V16.8287Z" fill="#FFE4CE"/>
    <path d="M55.9238 16.9082H61.5072V22.4873H55.9238V16.9082Z" fill="#FFE4CE"/>
    <path d="M55.8427 11.3295H61.5856V17.068H55.8427V11.3295Z" fill="#FFE4CE"/>
    <path d="M55.9238 11.4094H61.5072V16.9885H55.9238V11.4094Z" fill="#FFE4CE"/>
    <path d="M55.8427 5.75037H61.5856V11.4889H55.8427V5.75037Z" fill="#3D041F"/>
    <path d="M55.9238 5.82983H61.5072V11.4089H55.9238V5.82983Z" fill="#3D041F"/>
    <path d="M55.8427 0.250977H61.5856V5.98948H55.8427V0.250977Z" fill="#242424"/>
    <path d="M55.9238 0.330322H61.5072V5.82972H55.9238V0.330322Z" fill="#3D041F"/>
    <path d="M61.4265 111.036H67.1694V116.775H61.4265V111.036Z" fill="#243454"/>
    <path d="M61.5857 111.116H67.0894V116.695H61.5857V111.116Z" fill="#243454"/>
    <path d="M61.4265 105.537H67.1694V111.275H61.4265V105.537Z" fill="#243454"/>
    <path d="M61.5857 105.616H67.0894V111.116H61.5857V105.616Z" fill="#243454"/>
    <path d="M61.4265 99.9574H67.1694V105.696H61.4265V99.9574Z" fill="#243454"/>
    <path d="M61.5857 100.037H67.0894V105.616H61.5857V100.037Z" fill="#243454"/>
    <path d="M61.4265 94.4579H67.1694V100.196H61.4265V94.4579Z" fill="#243454"/>
    <path d="M61.5857 94.5378H67.0894V100.117H61.5857V94.5378Z" fill="#243454"/>
    <path d="M61.4265 88.8787H67.1694V94.6172H61.4265V88.8787Z" fill="#243454"/>
    <path d="M61.5857 88.9586H67.0894V94.5377H61.5857V88.9586Z" fill="#243454"/>
    <path d="M61.4265 83.3799H67.1694V89.1184H61.4265V83.3799Z" fill="#243454"/>
    <path d="M61.5857 83.459H67.0894V88.9584H61.5857V83.459Z" fill="#243454"/>
    <path d="M61.4265 77.8003H67.1694V83.5388H61.4265V77.8003Z" fill="#243454"/>
    <path d="M61.5857 77.8801H67.0894V83.4592H61.5857V77.8801Z" fill="#243454"/>
    <path d="M61.4265 72.3014H67.1694V78.0399H61.4265V72.3014Z" fill="#243454"/>
    <path d="M61.5857 72.3809H67.0894V77.96H61.5857V72.3809Z" fill="#243454"/>
    <path d="M61.4265 66.7222H67.1694V72.4607H61.4265V66.7222Z" fill="#243454"/>
    <path d="M61.5857 66.8013H67.0894V72.3804H61.5857V66.8013Z" fill="#243454"/>
    <path d="M61.4265 61.2225H67.1694V66.961H61.4265V61.2225Z" fill="#243454"/>
    <path d="M61.5857 61.3025H67.0894V66.8019H61.5857V61.3025Z" fill="#374F80"/>
    <path d="M61.4265 55.6433H67.1694V61.3818H61.4265V55.6433Z" fill="#FFE4CE"/>
    <path d="M61.5857 55.7234H67.0894V61.3025H61.5857V55.7234Z" fill="#FFE4CE"/>
    <path d="M61.4265 50.0646H67.1694V55.8031H61.4265V50.0646Z" fill="#FFE4CE"/>
    <path d="M61.5857 50.144H67.0894V55.7231H61.5857V50.144Z" fill="#FFE4CE"/>
    <path d="M61.4265 44.5648H67.1694V50.3033H61.4265V44.5648Z" fill="#FFE4CE"/>
    <path d="M61.5857 44.6448H67.0894V50.1442H61.5857V44.6448Z" fill="#FFE4CE"/>
    <path d="M61.4265 38.9856H67.1694V44.7241H61.4265V38.9856Z" fill="#FFE4CE"/>
    <path d="M61.5857 39.0656H67.0894V44.6447H61.5857V39.0656Z" fill="#FFE4CE"/>
    <path d="M61.4265 33.4865H67.1694V39.225H61.4265V33.4865Z" fill="#FFE4CE"/>
    <path d="M61.5857 33.5659H67.0894V39.145H61.5857V33.5659Z" fill="#FFE4CE"/>
    <path d="M61.4265 27.9072H67.1694V33.6457H61.4265V27.9072Z" fill="#FFE4CE"/>
    <path d="M61.5857 27.9867H67.0894V33.5658H61.5857V27.9867Z" fill="#FFE4CE"/>
    <path d="M61.4265 16.8287H67.1694V22.5672H61.4265V16.8287Z" fill="#FFE4CE"/>
    <path d="M61.5857 16.9082H67.0894V22.4873H61.5857V16.9082Z" fill="#FFE4CE"/>
    <path d="M61.4265 11.3295H67.1694V17.068H61.4265V11.3295Z" fill="#FFE4CE"/>
    <path d="M61.5857 11.4094H67.0894V16.9885H61.5857V11.4094Z" fill="#FFE4CE"/>
    <path d="M61.4265 5.75037H67.1694V11.4889H61.4265V5.75037Z" fill="#3D041F"/>
    <path d="M61.5857 5.82983H67.0894V11.4089H61.5857V5.82983Z" fill="#3D041F"/>
    <path d="M61.4265 0.250977H67.1694V5.98948H61.4265V0.250977Z" fill="#242424"/>
    <path d="M61.5857 0.330322H67.0894V5.82972H61.5857V0.330322Z" fill="#3D041F"/>
    <path d="M66.9303 116.615H72.6732V122.354H66.9303V116.615Z" fill="#243454"/>
    <path d="M67.0104 116.695H72.5938V122.274H67.0104V116.695Z" fill="#243454"/>
    <path d="M66.9303 111.036H72.6732V116.775H66.9303V111.036Z" fill="#243454"/>
    <path d="M67.0104 111.116H72.5938V116.695H67.0104V111.116Z" fill="#243454"/>
    <path d="M66.9303 105.537H72.6732V111.275H66.9303V105.537Z" fill="#243454"/>
    <path d="M67.0104 105.616H72.5938V111.116H67.0104V105.616Z" fill="#243454"/>
    <path d="M66.9303 99.9574H72.6732V105.696H66.9303V99.9574Z" fill="#243454"/>
    <path d="M67.0104 100.037H72.5938V105.616H67.0104V100.037Z" fill="#243454"/>
    <path d="M66.9303 94.4579H72.6732V100.196H66.9303V94.4579Z" fill="#243454"/>
    <path d="M67.0104 94.5378H72.5938V100.117H67.0104V94.5378Z" fill="#243454"/>
    <path d="M66.9303 88.8787H72.6732V94.6172H66.9303V88.8787Z" fill="#243454"/>
    <path d="M67.0104 88.9586H72.5938V94.5377H67.0104V88.9586Z" fill="#243454"/>
    <path d="M66.9303 83.3799H72.6732V89.1184H66.9303V83.3799Z" fill="#243454"/>
    <path d="M67.0104 83.459H72.5938V88.9584H67.0104V83.459Z" fill="#243454"/>
    <path d="M66.9303 77.8003H72.6732V83.5388H66.9303V77.8003Z" fill="#243454"/>
    <path d="M67.0104 77.8801H72.5938V83.4592H67.0104V77.8801Z" fill="#243454"/>
    <path d="M66.9303 72.3014H72.6732V78.0399H66.9303V72.3014Z" fill="#243454"/>
    <path d="M67.0104 72.3809H72.5938V77.96H67.0104V72.3809Z" fill="#243454"/>
    <path d="M66.9303 66.7222H72.6732V72.4607H66.9303V66.7222Z" fill="#243454"/>
    <path d="M67.0104 66.8013H72.5938V72.3804H67.0104V66.8013Z" fill="#243454"/>
    <path d="M66.9303 61.2225H72.6732V66.961H66.9303V61.2225Z" fill="#243454"/>
    <path d="M67.0104 61.3025H72.5938V66.8019H67.0104V61.3025Z" fill="#243454"/>
    <path d="M66.9303 55.6433H72.6732V61.3818H66.9303V55.6433Z" fill="#243454"/>
    <path d="M67.0104 55.7234H72.5938V61.3025H67.0104V55.7234Z" fill="#FFE4CE"/>
    <path d="M66.9303 33.4865H72.6732V39.225H66.9303V33.4865Z" fill="#FFE4CE"/>
    <path d="M67.0104 33.5659H72.5938V39.145H67.0104V33.5659Z" fill="#F57E77"/>
    <path d="M66.9303 27.9072H72.6732V33.6457H66.9303V27.9072Z" fill="#FFE4CE"/>
    <path d="M67.0104 27.9867H72.5938V33.5658H67.0104V27.9867Z" fill="#FFE4CE"/>
    <path d="M66.9303 22.4083H72.6732V28.1468H66.9303V22.4083Z" fill="#FFE4CE"/>
    <path d="M67.0104 22.4879H72.5938V27.9873H67.0104V22.4879Z" fill="#FFE4CE"/>
    <path d="M66.9303 16.8287H72.6732V22.5672H66.9303V16.8287Z" fill="#FFE4CE"/>
    <path d="M67.0104 16.9082H72.5938V22.4873H67.0104V16.9082Z" fill="#FFE4CE"/>
    <path d="M66.9303 11.3295H72.6732V17.068H66.9303V11.3295Z" fill="#3D041F"/>
    <path d="M67.0104 11.4094H72.5938V16.9885H67.0104V11.4094Z" fill="#3D041F"/>
    <path d="M65.3916 15.6791H75.9033V22.6815H65.3916V15.6791Z" fill="#3D041F"/>
    <path d="M61.8881 8.67664H68.8959V19.1803H61.8881V8.67664Z" fill="#3D041F"/>
    <path d="M66.9303 5.75037H72.6732V11.4889H66.9303V5.75037Z" fill="#242424"/>
    <path d="M67.0104 5.82983H72.5938V11.4089H67.0104V5.82983Z" fill="#3D041F"/>
    <path d="M66.9303 0.250977H72.6732V5.98948H66.9303V0.250977Z" fill="#242424"/>
    <path d="M67.0104 0.330322H72.5938V5.82972H67.0104V0.330322Z" fill="#3D041F"/>
    <path d="M72.5134 116.615H78.2563V122.354H72.5134V116.615Z" fill="#243454"/>
    <path d="M72.5935 116.695H78.1769V122.274H72.5935V116.695Z" fill="#243454"/>
    <path d="M72.5134 111.036H78.2563V116.775H72.5134V111.036Z" fill="#243454"/>
    <path d="M72.5935 111.116H78.1769V116.695H72.5935V111.116Z" fill="#243454"/>
    <path d="M72.5134 105.537H78.2563V111.275H72.5134V105.537Z" fill="#243454"/>
    <path d="M72.5935 105.616H78.1769V111.116H72.5935V105.616Z" fill="#243454"/>
    <path d="M72.5134 99.9574H78.2563V105.696H72.5134V99.9574Z" fill="#243454"/>
    <path d="M72.5935 100.037H78.1769V105.616H72.5935V100.037Z" fill="#131E33"/>
    <path d="M72.5134 94.4579H78.2563V100.196H72.5134V94.4579Z" fill="#243454"/>
    <path d="M72.5134 88.8787H78.2563V94.6172H72.5134V88.8787Z" fill="#243454"/>
    <path d="M72.5935 88.9586H78.1769V94.5377H72.5935V88.9586Z" fill="#131E33"/>
    <path d="M72.5134 83.3799H78.2563V89.1184H72.5134V83.3799Z" fill="#243454"/>
    <path d="M72.5134 77.8003H78.2563V83.5388H72.5134V77.8003Z" fill="#243454"/>
    <path d="M72.5935 77.8801H78.1769V83.4592H72.5935V77.8801Z" fill="#243454"/>
    <path d="M72.5134 72.3014H78.2563V78.0399H72.5134V72.3014Z" fill="#243454"/>
    <path d="M72.5935 72.3809H78.1769V77.96H72.5935V72.3809Z" fill="#243454"/>
    <path d="M72.5134 66.7222H78.2563V72.4607H72.5134V66.7222Z" fill="#243454"/>
    <path d="M72.5935 66.8013H78.1769V72.3804H72.5935V66.8013Z" fill="#243454"/>
    <path d="M72.5134 61.2225H78.2563V66.961H72.5134V61.2225Z" fill="#243454"/>
    <path d="M72.5935 61.3025H78.1769V66.8019H72.5935V61.3025Z" fill="#243454"/>
    <path d="M72.5134 55.6433H78.2563V61.3818H72.5134V55.6433Z" fill="#243454"/>
    <path d="M66.9303 55.7235H72.5938V61.3026H66.9303V55.7235Z" fill="#374F80"/>
    <path d="M72.5134 27.9072H78.2563V33.6457H72.5134V27.9072Z" fill="#3D041F"/>
    <path d="M72.5935 27.9867H78.1769V33.5658H72.5935V27.9867Z" fill="#3D041F"/>
    <path d="M72.5134 22.4083H78.2563V28.1468H72.5134V22.4083Z" fill="#3D041F"/>
    <path d="M72.5935 22.4879H78.1769V27.9873H72.5935V22.4879Z" fill="#3D041F"/>
    <path d="M72.5134 16.8287H78.2563V22.5672H72.5134V16.8287Z" fill="#242424"/>
    <path d="M72.5935 16.9082H78.1769V22.4873H72.5935V16.9082Z" fill="#3D041F"/>
    <path d="M72.5134 11.3295H78.2563V17.068H72.5134V11.3295Z" fill="#242424"/>
    <path d="M72.5935 11.4094H78.1769V16.9885H72.5935V11.4094Z" fill="#3D041F"/>
    <path d="M72.5134 5.75037H78.2563V11.4889H72.5134V5.75037Z" fill="#242424"/>
    <path d="M72.5935 5.82983H78.1769V11.4089H72.5935V5.82983Z" fill="#3D041F"/>
    <path d="M78.0177 72.3014H83.7606V78.0399H78.0177V72.3014Z" fill="#243454"/>
    <path d="M78.0972 72.3809H83.6805V77.96H78.0972V72.3809Z" fill="#243454"/>
    <path d="M78.0177 66.7222H83.7606V72.4607H78.0177V66.7222Z" fill="#243454"/>
    <path d="M78.0972 66.8013H83.6805V72.3804H78.0972V66.8013Z" fill="#243454"/>
    <path d="M78.0177 61.2225H83.7606V66.961H78.0177V61.2225Z" fill="#243454"/>
    <path d="M78.0972 61.3025H83.6805V66.8019H78.0972V61.3025Z" fill="#243454"/>
    <path d="M78.0177 55.6433H83.7606V61.3818H78.0177V55.6433Z" fill="#243454"/>
    <path d="M78.0972 55.7234H83.6805V61.3025H78.0972V55.7234Z" fill="#243454"/>
    <path d="M75.9033 15.6791H82.9111V26.1827H75.9033V15.6791Z" fill="#3D041F"/>
    <path d="M83.6008 72.3014H89.3438V78.0399H83.6008V72.3014Z" fill="#243454"/>
    <path d="M83.6008 66.7222H89.3438V72.4607H83.6008V66.7222Z" fill="#243454"/>
    <path d="M83.76 66.8013H89.2637V72.3804H83.76V66.8013Z" fill="#243454"/>
    <path d="M83.6008 61.2225H89.3438V66.961H83.6008V61.2225Z" fill="#243454"/>
    <path d="M83.76 61.3025H89.2637V66.8019H83.76V61.3025Z" fill="#243454"/>
    <path d="M89.1046 72.3014H94.8475V78.0399H89.1046V72.3014Z" fill="#243454"/>
    <path d="M89.1046 66.7222H94.8475V72.4607H89.1046V66.7222Z" fill="#243454"/>
    <path d="M89.1837 66.8013H94.7671V72.3804H89.1837V66.8013Z" fill="#243454"/>
    <path d="M86.5779 72.3014H98.0215V78.0399H86.5779V72.3014Z" fill="#243454"/>
    <path d="M77.3277 22.6814H82.9111V28.2605H77.3277V22.6814Z" fill="#3D041F"/>
    <path d="M49.1371 22.6814H54.88V28.4199H49.1371V22.6814Z" fill="#66667C"/>
    <path d="M70.3988 26.1827H75.9025V31.7618H70.3988V26.1827Z" fill="#FFE4CE"/>
    <path d="M89.1837 72.3809H94.7671V77.96H89.1837V72.3809Z" fill="#243454"/>
    <path d="M0.248787 231.903H5.9917V237.642H0.248787V231.903Z" fill="#0A0F1A"/>
    <path d="M5.8318 231.903H11.5747V237.642H5.8318V231.903Z" fill="#0A0F1A"/>
    <path d="M5.8318 226.324H11.5747V232.062H5.8318V226.324Z" fill="#111724"/>
    <path d="M11.3363 231.903H17.0792V237.642H11.3363V231.903Z" fill="#0A0F1A"/>
    <path d="M11.3363 226.324H17.0792V232.062H11.3363V226.324Z" fill="#111724"/>
    <path d="M11.3353 220.825H17.0782V226.563H11.3353V220.825Z" fill="#111724"/>
    <path d="M16.9988 231.983H22.5822V237.562H16.9988V231.983Z" fill="#0A0F1A"/>
    <path d="M16.9193 226.324H22.6622V232.062H16.9193V226.324Z" fill="#111724"/>
    <path d="M16.9193 220.825H22.6622V226.563H16.9193V220.825Z" fill="#111724"/>
    <path d="M22.5033 231.903H28.2462V237.642H22.5033V231.903Z" fill="#0A0F1A"/>
    <path d="M22.5033 226.324H28.2462V232.062H22.5033V226.324Z" fill="#111724"/>
    <path d="M22.5024 220.825H28.2454V226.563H22.5024V220.825Z" fill="#111724"/>
    <path d="M22.5024 215.245H28.2454V220.984H22.5024V215.245Z" fill="#111724"/>
    <path d="M22.5024 209.746H28.2454V215.485H22.5024V209.746Z" fill="#243454"/>
    <path d="M22.5024 204.167H28.2454V209.906H22.5024V204.167Z" fill="#243454"/>
    <path d="M22.5024 198.667H28.2454V204.406H22.5024V198.667Z" fill="#243454"/>
    <path d="M22.5033 193.089H28.2462V198.827H22.5033V193.089Z" fill="#243454"/>
    <path d="M22.5033 187.51H28.2462V193.248H22.5033V187.51Z" fill="#243454"/>
    <path d="M23.4379 163.75L28.755 164.965L27.8943 168.725L22.5772 167.509L23.4379 163.75Z" fill="#243454"/>
    <path d="M22.5024 167.42H28.2454V187.749H22.5024V167.42Z" fill="#243454"/>
    <path d="M28.0061 231.903H33.749V237.642H28.0061V231.903Z" fill="#0A0F1A"/>
    <path d="M28.0061 226.324H33.749V232.062H28.0061V226.324Z" fill="#111724"/>
    <path d="M28.0061 220.825H33.749V226.564H28.0061V220.825Z" fill="#111724"/>
    <path d="M28.0061 215.246H33.749V220.984H28.0061V215.246Z" fill="#111724"/>
    <path d="M28.0061 209.746H33.749V215.485H28.0061V209.746Z" fill="#243454"/>
    <path d="M28.0061 204.167H33.749V209.906H28.0061V204.167Z" fill="#243454"/>
    <path d="M28.0061 198.668H33.749V204.406H28.0061V198.668Z" fill="#243454"/>
    <path d="M28.0061 193.089H33.749V198.827H28.0061V193.089Z" fill="#243454"/>
    <path d="M28.0061 187.51H33.749V193.248H28.0061V187.51Z" fill="#243454"/>
    <path d="M28.0067 165.932H33.7496V187.749H28.0067V165.932Z" fill="#243454"/>
    <path d="M33.59 231.903H39.3329V237.642H33.59V231.903Z" fill="#0A0F1A"/>
    <path d="M33.59 226.323H39.3329V232.062H33.59V226.323Z" fill="#111724"/>
    <path d="M33.6686 220.905H39.252V226.484H33.6686V220.905Z" fill="#111724"/>
    <path d="M33.59 215.246H39.3329V220.984H33.59V215.246Z" fill="#111724"/>
    <path d="M33.59 209.746H39.3329V215.485H33.59V209.746Z" fill="#131E33"/>
    <path d="M33.59 204.167H39.3329V209.906H33.59V204.167Z" fill="#131E33"/>
    <path d="M33.59 198.668H39.3329V204.406H33.59V198.668Z" fill="#131E33"/>
    <path d="M33.59 193.089H39.3329V198.827H33.59V193.089Z" fill="#131E33"/>
    <path d="M33.59 187.51H39.3329V193.248H33.59V187.51Z" fill="#131E33"/>
    <path d="M33.6477 166.969H39.321V188.096H33.6477V166.969Z" fill="#131E33"/>
    <path d="M25.657 159L30.8698 161.408L28.4597 166.617L23.247 164.209L25.657 159Z" fill="#243454"/>
    <path d="M25.6954 159.106L30.6909 161.414L28.3813 166.406L23.3857 164.098L25.6954 159.106Z" fill="#243454"/>
    <path d="M27.9656 154.009L33.1783 156.417L30.7683 161.626L25.5555 159.218L27.9656 154.009Z" fill="#243454"/>
    <path d="M28.0051 154.114L33.0006 156.422L30.6575 161.486L25.662 159.178L28.0051 154.114Z" fill="#243454"/>
    <path d="M30.3095 148.945L35.5222 151.353L33.1122 156.562L27.8994 154.153L30.3095 148.945Z" fill="#243454"/>
    <path d="M30.348 149.051L35.3435 151.358L33.0004 156.422L28.0048 154.115L30.348 149.051Z" fill="#243454"/>
    <path d="M32.619 143.953L37.8318 146.361L35.4217 151.57L30.209 149.161L32.619 143.953Z" fill="#243454"/>
    <path d="M32.6583 144.059L37.6538 146.366L35.3107 151.431L30.3152 149.123L32.6583 144.059Z" fill="#243454"/>
    <path d="M34.9621 138.889L40.1748 141.297L37.7647 146.506L32.552 144.098L34.9621 138.889Z" fill="#243454"/>
    <path d="M35.0013 138.994L39.9968 141.302L37.6872 146.294L32.6916 143.986L35.0013 138.994Z" fill="#243454"/>
    <path d="M37.2715 133.897L42.4843 136.305L40.0742 141.514L34.8615 139.106L37.2715 133.897Z" fill="#243454"/>
    <path d="M37.311 134.003L42.3065 136.311L39.9634 141.375L34.9679 139.067L37.311 134.003Z" fill="#243454"/>
    <path d="M39.6154 128.833L44.8281 131.241L42.4181 136.45L37.2053 134.041L39.6154 128.833Z" fill="#243454"/>
    <path d="M39.6536 128.939L44.6492 131.246L42.3061 136.311L37.3105 134.003L39.6536 128.939Z" fill="#243454"/>
    <path d="M41.9241 123.841L47.1368 126.25L44.7268 131.458L39.514 129.05L41.9241 123.841Z" fill="#131E33"/>
    <path d="M41.9634 123.947L46.959 126.255L44.6159 131.319L39.6203 129.011L41.9634 123.947Z" fill="#131E33"/>
    <path d="M30.6519 161.308L35.8646 163.716L33.4546 168.925L28.2418 166.516L30.6519 161.308Z" fill="#243454"/>
    <path d="M30.6907 161.414L35.7587 163.755L33.449 168.747L28.3811 166.406L30.6907 161.414Z" fill="#243454"/>
    <path d="M32.9615 156.316L38.1742 158.724L35.7641 163.933L30.5514 161.525L32.9615 156.316Z" fill="#243454"/>
    <path d="M33.0003 156.422L38.0682 158.763L35.7251 163.827L30.6572 161.486L33.0003 156.422Z" fill="#243454"/>
    <path d="M35.3053 151.252L40.5181 153.661L38.108 158.869L32.8953 156.461L35.3053 151.252Z" fill="#243454"/>
    <path d="M35.3431 151.358L40.411 153.7L38.0679 158.764L33 156.422L35.3431 151.358Z" fill="#243454"/>
    <path d="M37.614 146.26L42.8268 148.669L40.4167 153.877L35.204 151.469L37.614 146.26Z" fill="#243454"/>
    <path d="M37.6536 146.366L42.7216 148.708L40.3784 153.772L35.3105 151.43L37.6536 146.366Z" fill="#243454"/>
    <path d="M39.9577 141.196L45.1704 143.605L42.7604 148.813L37.5476 146.405L39.9577 141.196Z" fill="#243454"/>
    <path d="M39.9966 141.302L45.0646 143.643L42.7549 148.635L37.687 146.294L39.9966 141.302Z" fill="#243454"/>
    <path d="M42.2667 136.205L47.4795 138.613L45.0694 143.822L39.8567 141.414L42.2667 136.205Z" fill="#243454"/>
    <path d="M42.3062 136.311L47.3741 138.652L45.031 143.716L39.9631 141.375L42.3062 136.311Z" fill="#243454"/>
    <path d="M44.6104 131.14L49.8231 133.548L47.4131 138.757L42.2003 136.349L44.6104 131.14Z" fill="#243454"/>
    <path d="M44.649 131.247L49.7169 133.588L47.3738 138.652L42.3059 136.311L44.649 131.247Z" fill="#243454"/>
    <path d="M46.9198 126.149L52.1326 128.557L49.7225 133.766L44.5098 131.358L46.9198 126.149Z" fill="#243454"/>
    <path d="M46.9588 126.255L52.0267 128.596L49.6836 133.66L44.6157 131.319L46.9588 126.255Z" fill="#243454"/>
    <path d="M49.2628 121.085L54.4756 123.493L52.0655 128.702L46.8528 126.294L49.2628 121.085Z" fill="#243454"/>
    <path d="M49.3017 121.191L54.3696 123.532L52.06 128.524L46.9921 126.182L49.3017 121.191Z" fill="#243454"/>
    <path d="M35.7205 163.65L40.9332 166.058L38.5232 171.267L33.3104 168.858L35.7205 163.65Z" fill="#131E33"/>
    <path d="M38.0293 158.657L43.2421 161.066L40.832 166.274L35.6193 163.866L38.0293 158.657Z" fill="#131E33"/>
    <path d="M38.068 158.763L43.136 161.104L40.7929 166.168L35.7249 163.827L38.068 158.763Z" fill="#131E33"/>
    <path d="M40.3731 153.594L45.5858 156.002L43.1758 161.211L37.963 158.802L40.3731 153.594Z" fill="#131E33"/>
    <path d="M40.4108 153.699L45.4788 156.041L43.1356 161.105L38.0677 158.763L40.4108 153.699Z" fill="#131E33"/>
    <path d="M42.6826 148.602L47.8954 151.01L45.4853 156.219L40.2726 153.811L42.6826 148.602Z" fill="#131E33"/>
    <path d="M42.7214 148.707L47.7893 151.048L45.4462 156.113L40.3783 153.771L42.7214 148.707Z" fill="#131E33"/>
    <path d="M45.0255 143.538L50.2383 145.946L47.8282 151.155L42.6155 148.747L45.0255 143.538Z" fill="#131E33"/>
    <path d="M45.0644 143.643L50.1323 145.984L47.8227 150.976L42.7547 148.635L45.0644 143.643Z" fill="#131E33"/>
    <path d="M47.3352 138.546L52.548 140.954L50.1379 146.163L44.9252 143.755L47.3352 138.546Z" fill="#131E33"/>
    <path d="M49.6789 133.482L54.8916 135.89L52.4815 141.099L47.2688 138.691L49.6789 133.482Z" fill="#243454"/>
    <path d="M49.7168 133.587L54.7848 135.929L52.4417 140.993L47.3737 138.651L49.7168 133.587Z" fill="#243454"/>
    <path d="M51.9876 128.49L57.2003 130.899L54.7903 136.107L49.5775 133.699L51.9876 128.49Z" fill="#243454"/>
    <path d="M52.0264 128.596L57.0944 130.937L54.7512 136.001L49.6833 133.66L52.0264 128.596Z" fill="#243454"/>
    <path d="M54.3306 123.426L59.5433 125.834L57.1333 131.043L51.9205 128.635L54.3306 123.426Z" fill="#243454"/>
    <path d="M54.3692 123.532L59.4371 125.873L57.1275 130.865L52.0596 128.523L54.3692 123.532Z" fill="#243454"/>
    <path d="M56.6747 118.362L61.8872 120.77L59.4776 125.979L54.2651 123.571L56.6747 118.362Z" fill="#243454"/>
    <path d="M50.2573 132.418L55.3252 134.759L50.0978 146.057L45.0298 143.716L50.2573 132.418Z" fill="#131E33"/>
    <path d="M72.5739 161.837L77.4426 158.795L80.4872 163.66L75.6185 166.702L72.5739 161.837Z" fill="#243454"/>
    <path d="M72.6837 161.864L77.35 158.948L82.6939 167.486L78.0276 170.402L72.6837 161.864Z" fill="#243454"/>
    <path d="M69.6562 157.175L74.5249 154.133L77.5695 158.997L72.7008 162.04L69.6562 157.175Z" fill="#243454"/>
    <path d="M69.7654 157.2L74.4313 154.284L77.3913 159.014L72.7255 161.929L69.7654 157.2Z" fill="#243454"/>
    <path d="M66.6951 152.445L71.5638 149.402L74.6085 154.267L69.7398 157.309L66.6951 152.445Z" fill="#243454"/>
    <path d="M66.8053 152.47L71.4712 149.555L74.4312 154.284L69.7654 157.2L66.8053 152.47Z" fill="#243454"/>
    <path d="M63.7776 147.782L68.6464 144.739L71.691 149.604L66.8223 152.646L63.7776 147.782Z" fill="#243454"/>
    <path d="M63.8869 147.807L68.5527 144.891L71.5128 149.621L66.8469 152.537L63.8869 147.807Z" fill="#243454"/>
    <path d="M60.8172 143.052L65.6859 140.009L68.7305 144.874L63.8618 147.916L60.8172 143.052Z" fill="#243454"/>
    <path d="M60.9267 143.077L65.5925 140.161L68.5103 144.823L63.8444 147.739L60.9267 143.077Z" fill="#243454"/>
    <path d="M57.8989 138.389L62.7676 135.347L65.8122 140.211L60.9435 143.254L57.8989 138.389Z" fill="#243454"/>
    <path d="M58.009 138.414L62.6748 135.498L65.6349 140.228L60.969 143.143L58.009 138.414Z" fill="#243454"/>
    <path d="M54.9377 133.659L59.8064 130.616L62.851 135.481L57.9823 138.523L54.9377 133.659Z" fill="#243454"/>
    <path d="M55.0479 133.684L59.7137 130.768L62.6738 135.498L58.0079 138.414L55.0479 133.684Z" fill="#243454"/>
    <path d="M52.0201 128.996L56.8888 125.954L59.9334 130.818L55.0647 133.861L52.0201 128.996Z" fill="#131E33"/>
    <path d="M52.1296 129.022L56.7954 126.106L59.7555 130.835L55.0896 133.751L52.1296 129.022Z" fill="#131E33"/>
    <path d="M49.059 124.266L53.9277 121.223L56.9724 126.088L52.1036 129.13L49.059 124.266Z" fill="#131E33"/>
    <path d="M49.1691 124.291L53.835 121.375L56.7527 126.037L52.0869 128.953L49.1691 124.291Z" fill="#131E33"/>
    <path d="M77.2398 158.921L82.1085 155.879L85.1531 160.743L80.2844 163.786L77.2398 158.921Z" fill="#243454"/>
    <path d="M77.3496 158.948L82.0835 155.99L88.3399 165.986L83.606 168.944L77.3496 158.948Z" fill="#243454"/>
    <path d="M74.322 154.259L79.1907 151.217L82.2353 156.081L77.3666 159.124L74.322 154.259Z" fill="#243454"/>
    <path d="M74.4314 154.284L79.1649 151.326L82.125 156.056L77.3915 159.014L74.4314 154.284Z" fill="#243454"/>
    <path d="M71.362 149.529L76.2307 146.486L79.2753 151.351L74.4066 154.393L71.362 149.529Z" fill="#243454"/>
    <path d="M71.4715 149.554L76.205 146.596L79.165 151.326L74.4315 154.284L71.4715 149.554Z" fill="#243454"/>
    <path d="M68.4434 144.866L73.3121 141.824L76.3568 146.688L71.488 149.731L68.4434 144.866Z" fill="#243454"/>
    <path d="M68.5536 144.891L73.2871 141.933L76.2472 146.663L71.5137 149.621L68.5536 144.891Z" fill="#243454"/>
    <path d="M65.4832 140.136L70.3519 137.093L73.3966 141.958L68.5278 145L65.4832 140.136Z" fill="#243454"/>
    <path d="M65.5925 140.161L70.3259 137.203L73.2437 141.865L68.5102 144.823L65.5925 140.161Z" fill="#243454"/>
    <path d="M62.5646 135.473L67.4333 132.431L70.478 137.295L65.6093 140.338L62.5646 135.473Z" fill="#243454"/>
    <path d="M62.6749 135.498L67.4083 132.54L70.3684 137.27L65.6349 140.228L62.6749 135.498Z" fill="#243454"/>
    <path d="M59.6037 130.742L64.4724 127.7L67.517 132.565L62.6483 135.607L59.6037 130.742Z" fill="#243454"/>
    <path d="M59.7138 130.768L64.4473 127.81L67.4073 132.54L62.6738 135.498L59.7138 130.768Z" fill="#243454"/>
    <path d="M56.6861 126.08L61.5548 123.038L64.5994 127.903L59.7307 130.945L56.6861 126.08Z" fill="#243454"/>
    <path d="M56.7952 126.106L61.5287 123.148L64.4887 127.877L59.7553 130.835L56.7952 126.106Z" fill="#243454"/>
    <path d="M53.7247 121.35L58.5934 118.308L61.638 123.172L56.7693 126.215L53.7247 121.35Z" fill="#243454"/>
    <path d="M53.7416 121.342L58.4751 118.384L61.3929 123.046L56.6594 126.003L53.7416 121.342Z" fill="#243454"/>
    <path d="M81.9746 155.964L86.8438 152.921L91.6266 160.563L86.7575 163.606L81.9746 155.964Z" fill="#131E33"/>
    <path d="M79.0556 151.301L83.9243 148.258L86.9689 153.123L82.1002 156.165L79.0556 151.301Z" fill="#131E33"/>
    <path d="M79.165 151.326L83.8984 148.368L86.8585 153.097L82.125 156.055L79.165 151.326Z" fill="#131E33"/>
    <path d="M76.0964 146.57L80.9651 143.528L84.0097 148.392L79.141 151.435L76.0964 146.57Z" fill="#131E33"/>
    <path d="M76.2049 146.596L80.9384 143.638L83.8984 148.368L79.1649 151.326L76.2049 146.596Z" fill="#131E33"/>
    <path d="M73.1769 141.908L78.0457 138.865L81.0903 143.73L76.2216 146.772L73.1769 141.908Z" fill="#131E33"/>
    <path d="M73.287 141.933L78.0205 138.975L80.9806 143.705L76.2471 146.663L73.287 141.933Z" fill="#131E33"/>
    <path d="M70.2166 137.178L75.0853 134.135L78.1299 139L73.2612 142.042L70.2166 137.178Z" fill="#131E33"/>
    <path d="M70.3261 137.203L75.0596 134.245L77.9773 138.907L73.2439 141.865L70.3261 137.203Z" fill="#131E33"/>
    <path d="M67.2983 132.515L72.167 129.472L75.2116 134.337L70.3429 137.379L67.2983 132.515Z" fill="#131E33"/>
    <path d="M67.4075 132.541L72.141 129.583L75.101 134.312L70.3676 137.27L67.4075 132.541Z" fill="#131E33"/>
    <path d="M64.3379 127.784L69.2067 124.742L72.2513 129.606L67.3826 132.649L64.3379 127.784Z" fill="#243454"/>
    <path d="M64.4473 127.81L69.1808 124.852L72.1408 129.581L67.4074 132.539L64.4473 127.81Z" fill="#243454"/>
    <path d="M61.4202 123.122L66.2889 120.08L69.3336 124.944L64.4649 127.987L61.4202 123.122Z" fill="#243454"/>
    <path d="M61.5289 123.147L66.2623 120.189L69.2224 124.919L64.4889 127.877L61.5289 123.147Z" fill="#243454"/>
    <path d="M58.4593 118.392L63.328 115.349L66.3726 120.214L61.5039 123.256L58.4593 118.392Z" fill="#243454"/>
    <path d="M58.4751 118.383L63.2086 115.426L66.1264 120.088L61.3929 123.045L58.4751 118.383Z" fill="#243454"/>
    <path d="M69.7658 129.771L75.3484 129.771L75.3484 135.27L69.7658 135.27L69.7658 129.771Z" fill="#131E33"/>
    <path d="M124.477 207.642L126.139 202.149L131.636 203.809L129.975 209.302L124.477 207.642Z" fill="#0A0F1A"/>
    <path d="M126.093 202.301L127.754 196.808L133.251 198.468L131.59 203.962L126.093 202.301Z" fill="#0A0F1A"/>
    <path d="M120.747 200.687L122.408 195.194L127.906 196.854L126.244 202.347L120.747 200.687Z" fill="#111724"/>
    <path d="M127.685 197.037L129.346 191.544L134.844 193.204L133.182 198.697L127.685 197.037Z" fill="#0A0F1A"/>
    <path d="M122.34 195.423L124.001 189.93L129.499 191.59L127.837 197.083L122.34 195.423Z" fill="#111724"/>
    <path d="M117.072 193.832L118.733 188.339L124.23 189.999L122.569 195.492L117.072 193.832Z" fill="#111724"/>
    <path d="M129.399 191.643L131.014 186.303L136.359 187.917L134.744 193.257L129.399 191.643Z" fill="#0A0F1A"/>
    <path d="M123.955 190.082L125.617 184.589L131.114 186.249L129.453 191.742L123.955 190.082Z" fill="#111724"/>
    <path d="M118.687 188.491L120.349 182.998L125.846 184.658L124.185 190.151L118.687 188.491Z" fill="#111724"/>
    <path d="M130.916 186.356L132.577 180.863L138.074 182.523L136.413 188.016L130.916 186.356Z" fill="#0A0F1A"/>
    <path d="M125.57 184.742L127.231 179.248L132.729 180.909L131.067 186.402L125.57 184.742Z" fill="#111724"/>
    <path d="M120.303 183.151L121.964 177.658L127.461 179.318L125.8 184.811L120.303 183.151Z" fill="#111724"/>
    <path d="M114.958 181.537L116.619 176.044L122.116 177.704L120.455 183.197L114.958 181.537Z" fill="#111724"/>
    <path d="M109.69 179.946L111.351 174.453L116.848 176.113L115.187 181.606L109.69 179.946Z" fill="#243454"/>
    <path d="M104.344 178.332L106.006 172.839L111.503 174.499L109.842 179.992L104.344 178.332Z" fill="#243454"/>
    <path d="M99.0765 176.741L100.738 171.247L106.235 172.908L104.574 178.401L99.0765 176.741Z" fill="#243454"/>
    <path d="M93.7322 175.126L95.3937 169.633L100.891 171.293L99.2296 176.787L93.7322 175.126Z" fill="#243454"/>
    <path d="M88.3871 173.512L90.0486 168.019L95.5459 169.679L93.8845 175.172L88.3871 173.512Z" fill="#243454"/>
    <path d="M83.1191 171.921L84.7805 166.428L90.2779 168.089L88.6164 173.582L83.1191 171.921Z" fill="#243454"/>
    <path d="M78.0882 170.345L79.7496 164.852L85.438 166.57L83.7766 172.063L78.0882 170.345Z" fill="#243454"/>
    <path d="M132.508 181.092L134.169 175.598L139.667 177.259L138.005 182.752L132.508 181.092Z" fill="#0A0F1A"/>
    <path d="M127.163 179.477L128.824 173.984L134.321 175.644L132.66 181.138L127.163 179.477Z" fill="#111724"/>
    <path d="M121.895 177.886L123.556 172.393L129.053 174.053L127.392 179.547L121.895 177.886Z" fill="#111724"/>
    <path d="M116.549 176.273L118.211 170.779L123.708 172.44L122.047 177.933L116.549 176.273Z" fill="#111724"/>
    <path d="M111.282 174.682L112.943 169.188L118.44 170.849L116.779 176.342L111.282 174.682Z" fill="#243454"/>
    <path d="M105.937 173.067L107.599 167.574L113.096 169.235L111.435 174.728L105.937 173.067Z" fill="#243454"/>
    <path d="M100.668 171.477L102.33 165.984L107.827 167.644L106.166 173.137L100.668 171.477Z" fill="#243454"/>
    <path d="M95.3243 169.863L96.9857 164.37L102.483 166.03L100.822 171.523L95.3243 169.863Z" fill="#243454"/>
    <path d="M89.9792 168.248L91.6406 162.755L97.138 164.415L95.4765 169.909L89.9792 168.248Z" fill="#243454"/>
    <path d="M81.3533 165.643L83.0148 160.15L91.8704 162.824L90.209 168.317L81.3533 165.643Z" fill="#243454"/>
    <path d="M134.123 175.751L135.785 170.258L141.282 171.918L139.621 177.411L134.123 175.751Z" fill="#0A0F1A"/>
    <path d="M128.778 174.137L130.439 168.644L135.937 170.304L134.275 175.797L128.778 174.137Z" fill="#111724"/>
    <path d="M123.61 172.493L125.225 167.153L130.569 168.767L128.954 174.107L123.61 172.493Z" fill="#111724"/>
    <path d="M118.165 170.932L119.827 165.439L125.324 167.099L123.662 172.592L118.165 170.932Z" fill="#111724"/>
    <path d="M112.897 169.341L114.558 163.848L120.056 165.508L118.394 171.001L112.897 169.341Z" fill="#131E33"/>
    <path d="M107.553 167.727L109.214 162.234L114.712 163.894L113.05 169.387L107.553 167.727Z" fill="#131E33"/>
    <path d="M102.284 166.136L103.945 160.643L109.443 162.303L107.781 167.796L102.284 166.136Z" fill="#131E33"/>
    <path d="M96.9396 164.522L98.6011 159.029L104.098 160.689L102.437 166.182L96.9396 164.522Z" fill="#131E33"/>
    <path d="M86.3033 161.309L87.9647 155.816L98.7539 159.074L97.0925 164.567L86.3033 161.309Z" fill="#131E33"/>
    <path d="M39.3323 120.715H48.409V124.216H39.3323V120.715Z" fill="#131E33"/>
    <path d="M48.409 120.715H57.6175V124.216H48.409V120.715Z" fill="#131E33"/>
    <path d="M57.6175 120.715H66.8245V124.216H57.6175V120.715Z" fill="#131E33"/>
    <path d="M66.6942 120.715H75.9025V124.216H66.6942V120.715Z" fill="#131E33"/>
    <path d="M39.3328 124.216H48.2719V134.72H39.3328V124.216Z" fill="#243454"/>
    <path d="M48.2719 124.216H57.3408V134.72H48.2719V124.216Z" fill="#243454"/>
    <path d="M57.3408 124.216H66.4083V134.72H57.3408V124.216Z" fill="#243454"/>
    <path d="M66.2799 124.216H75.3486V134.72H66.2799V124.216Z" fill="#243454"/>
    <path d="M68.7551 124.203L75.5281 124.203L75.5281 134.72L68.7551 134.72L68.7551 124.203Z" fill="#131E33"/>
    <path d="M72.5935 72.4608H78.1769V88.9583H72.5935V72.4608Z" fill="#131E33"/>
    <path d="M72.5935 86.2466H78.1769V100.117H72.5935V86.2466Z" fill="#131E33"/>
    <path d="M74.5247 72.4102H83.84V77.9893H74.5247V72.4102Z" fill="#131E33"/>
    <path d="M72.6733 66.9609H78.1769V72.54H72.6733V66.9609Z" fill="#131E33"/>
    <path d="M90.2204 95.4611L94.1685 99.4061L85.372 108.196L81.4239 104.251L90.2204 95.4611Z" fill="#131E33"/>
    <path d="M63.2635 114.62L67.1553 118.509L63.2635 122.398L59.3717 118.509L63.2635 114.62Z" fill="#FFE4CE"/>
    <path d="M67.1542 110.732L71.046 114.62L67.0978 118.566L63.2061 114.677L67.1542 110.732Z" fill="#FFE4CE"/>
    <path d="M71.1026 106.787L74.9944 110.676L71.0462 114.621L67.1544 110.732L71.1026 106.787Z" fill="#FFE4CE"/>
    <path d="M76.1424 101.751L80.0336 105.64L74.9381 110.731L71.0469 106.843L76.1424 101.751Z" fill="white"/>
    <path d="M78.9417 98.9531L82.8335 102.842L78.9417 106.731L75.0499 102.842L78.9417 98.9531Z" fill="#243454"/>
    <path d="M86.5773 91.5635H91.0603V97.0631H86.5773V91.5635Z" fill="#243454"/>
    <path d="M87.0499 90.8529L90.9415 94.7416L82.7783 102.899L78.8866 99.0099L87.0499 90.8529Z" fill="#243454"/>
    <path d="M67.1545 118.509L71.1027 122.454L67.2109 126.343L63.2627 122.398L67.1545 118.509Z" fill="#FFE4CE"/>
    <path d="M71.0462 114.621L74.9944 118.566L71.0462 122.511L67.098 118.566L71.0462 114.621Z" fill="#FFE4CE"/>
    <path d="M74.9946 110.675L78.9427 114.62L74.9946 118.566L71.0464 114.62L74.9946 110.675Z" fill="#FFE4CE"/>
    <path d="M80.0145 105.66L83.962 109.605L78.8867 114.676L74.9391 110.732L80.0145 105.66Z" fill="#877A86"/>
    <path d="M82.8337 102.842L86.7819 106.787L82.8901 110.676L78.9419 106.73L82.8337 102.842Z" fill="#131E33"/>
    <path d="M96.9257 92.7063L96.9257 99.7079L88.6267 99.7079L88.6267 92.7063L96.9257 92.7063Z" fill="#131E33"/>
    <path d="M93.4216 92.7054L93.4216 97.0631L88.6254 97.0631L88.6254 92.7054L93.4216 92.7054Z" fill="#243454"/>
    <path d="M93.4216 89.204L93.4216 92.7053L89.9176 92.7053L89.9176 89.204L93.4216 89.204Z" fill="#243454"/>
    <path d="M93.4216 85.7029L93.4216 89.2042L89.9176 89.2042L89.9176 85.7029L93.4216 85.7029Z" fill="#243454"/>
    <path d="M93.4216 82.2017L93.4216 85.703L89.9176 85.703L89.9176 82.2017L93.4216 82.2017Z" fill="#243454"/>
    <path d="M74.9378 118.509L78.886 122.454L74.9378 126.399L70.9896 122.454L74.9378 118.509Z" fill="#FFE4CE"/>
    <path d="M78.8853 114.564L82.8335 118.509L78.8853 122.454L74.9371 118.509L78.8853 114.564Z" fill="#F57E77"/>
    <path d="M93.4216 75.2003L93.4216 82.2019L89.9181 82.2019L89.9182 75.2003L93.4216 75.2003Z" fill="#243454"/>
    <path d="M50.3395 39.2251H67.1694V44.485H50.3395V39.2251Z" fill="#FFE4CE"/>
    <path d="M50.5001 44.8042H67.4719V50.9976H50.5001V44.8042Z" fill="#F57E77"/>
    <path d="M61.8877 39.2251H67.4711V44.8042H61.8877V39.2251Z" fill="#F57E77"/>
    <path d="M83.7608 72.3806H95.9868V77.9597H83.7608V72.3806Z" fill="#243454"/>
    <path d="M50.3399 55.6431H67.0099V61.3816H50.3399V55.6431Z" fill="white"/>
    <path d="M50.3399 55.5891H56.0812V71.6984H50.3399V55.5891Z" fill="white"/>
    <path d="M50.3399 55.8033H56V66.7762H50.3399V55.8033Z" fill="white"/>
    <path d="M56.0241 55.5891H61.502V66.562H56.0241V55.5891Z" fill="white"/>
    <path d="M55.9238 66.562H61.5072V72.3802H55.9238V66.562Z" fill="#374F80"/>
    <path d="M44.8362 55.8031H50.4196V72.3803H44.8362V55.8031Z" fill="#374F80"/>
    <path d="M50.3783 71.7292H55.9617V77.3083H50.3783V71.7292Z" fill="#374F80"/>
    <path d="M50.34 55.589H55.9617V71.6984H50.34V55.589Z" fill="#E4352F"/>
    <path d="M55.9612 55.6432H61.6508V61.3818H55.9612V55.6432Z" fill="#A3211D"/>
    <path d="M61.6128 55.6429H67.0894V61.3815H61.6128V55.6429Z" fill="#A3211D"/>
</svg>
