<svg width="93" height="244" viewBox="0 0 93 244" fill="none" xmlns="http://www.w3.org/2000/svg">
    <path d="M87.2894 237.876H81.6947V243.442H87.2894V237.876Z" fill="#391709"/>
    <path d="M87.1342 237.953H81.7726V243.364H87.1342V237.953Z" fill="#391709"/>
    <path d="M87.2894 76.6337H81.6947V82.1991H87.2894V76.6337Z" fill="white"/>
    <path d="M87.1342 76.711H81.7726V82.1218H87.1342V76.711Z" fill="white"/>
    <path d="M81.8501 237.876H76.2554V243.442H81.8501V237.876Z" fill="#391709"/>
    <path d="M81.7726 237.953H76.3333V243.364H81.7726V237.953Z" fill="#391709"/>
    <path d="M81.8501 232.465H76.2554V238.031H81.8501V232.465Z" fill="#482C02"/>
    <path d="M81.7726 232.543H76.3333V237.876H81.7726V232.543Z" fill="#482C02"/>
    <path d="M81.8501 76.6337H76.2554V82.1991H81.8501V76.6337Z" fill="white"/>
    <path d="M81.7726 76.711H76.3333V82.1218H81.7726V76.711Z" fill="white"/>
    <path d="M81.8501 71.2228H76.2554V76.7882H81.8501V71.2228Z" fill="white"/>
    <path d="M81.7726 71.2997H76.3333V76.7106H81.7726V71.2997Z" fill="white"/>
    <path d="M81.8501 65.8892H76.2554V71.4546H81.8501V65.8892Z" fill="white"/>
    <path d="M81.7726 65.9665H76.3333V71.3H81.7726V65.9665Z" fill="white"/>
    <path d="M76.4886 237.876H70.8939V243.442H76.4886V237.876Z" fill="#391709"/>
    <path d="M76.4107 237.953H70.9714V243.364H76.4107V237.953Z" fill="#391709"/>
    <path d="M76.4886 232.465H70.8939V238.031H76.4886V232.465Z" fill="#482C02"/>
    <path d="M76.4107 232.543H70.9714V237.876H76.4107V232.543Z" fill="#482C02"/>
    <path d="M76.4886 227.132H70.8939V232.697H76.4886V227.132Z" fill="#391709"/>
    <path d="M76.4107 227.209H70.9714V232.62H76.4107V227.209Z" fill="#482C02"/>
    <path d="M76.4886 76.6337H70.8939V82.1991H76.4886V76.6337Z" fill="white"/>
    <path d="M76.4107 76.711H70.9714V82.1218H76.4107V76.711Z" fill="white"/>
    <path d="M76.4886 71.2228H70.8939V76.7882H76.4886V71.2228Z" fill="white"/>
    <path d="M76.4107 71.2997H70.9714V76.7106H76.4107V71.2997Z" fill="white"/>
    <path d="M76.4886 65.8892H70.8939V71.4546H76.4886V65.8892Z" fill="white"/>
    <path d="M76.4107 65.9665H70.9714V71.3H76.4107V65.9665Z" fill="white"/>
    <path d="M71.0493 237.876H65.4546V243.442H71.0493V237.876Z" fill="#391709"/>
    <path d="M70.9714 237.953H65.5321V243.364H70.9714V237.953Z" fill="#391709"/>
    <path d="M71.0493 232.465H65.4546V238.031H71.0493V232.465Z" fill="#391709"/>
    <path d="M70.9714 232.543H65.5321V237.876H70.9714V232.543Z" fill="#482C02"/>
    <path d="M71.0493 227.132H65.4546V232.697H71.0493V227.132Z" fill="#482C02"/>
    <path d="M70.9714 227.209H65.5321V232.62H70.9714V227.209Z" fill="#482C02"/>
    <path d="M71.0493 76.6337H65.4546V82.1991H71.0493V76.6337Z" fill="#C5C5C5"/>
    <path d="M70.9714 76.711H65.5321V82.1218H70.9714V76.711Z" fill="#C5C5C5"/>
    <path d="M71.0493 71.2228H65.4546V76.7882H71.0493V71.2228Z" fill="white"/>
    <path d="M70.9714 71.2997H65.5321V76.7106H70.9714V71.2997Z" fill="white"/>
    <path d="M71.0493 65.8892H65.4546V71.4546H71.0493V65.8892Z" fill="white"/>
    <path d="M70.9714 65.9665H65.5321V71.3H70.9714V65.9665Z" fill="white"/>
    <path d="M71.0493 60.4783H65.4546V66.0438H71.0493V60.4783Z" fill="white"/>
    <path d="M70.9714 60.5556H65.5321V65.9664H70.9714V60.5556Z" fill="white"/>
    <path d="M71.0493 33.5786H65.4546V39.144H71.0493V33.5786Z" fill="#F57E77"/>
    <path d="M70.9714 33.6558H65.5321V39.0667H70.9714V33.6558Z" fill="#F57E77"/>
    <path d="M71.0493 28.2454H65.4546V33.8108H71.0493V28.2454Z" fill="#FFE4CE"/>
    <path d="M70.9714 28.3226H65.5321V33.6562H70.9714V28.3226Z" fill="#FFE4CE"/>
    <path d="M71.0493 22.8344H65.4546V28.3998H71.0493V22.8344Z" fill="#3D041F"/>
    <path d="M70.9714 22.9116H65.5321V28.3225H70.9714V22.9116Z" fill="#3D041F"/>
    <path d="M65.6098 237.876H60.0151V243.442H65.6098V237.876Z" fill="#391709"/>
    <path d="M65.5321 237.953H60.1705V243.364H65.5321V237.953Z" fill="#391709"/>
    <path d="M65.6098 232.465H60.0151V238.031H65.6098V232.465Z" fill="#482C02"/>
    <path d="M65.5321 232.543H60.1705V237.876H65.5321V232.543Z" fill="#482C02"/>
    <path d="M65.6098 227.132H60.0151V232.697H65.6098V227.132Z" fill="#482C02"/>
    <path d="M65.5321 227.209H60.1705V232.62H65.5321V227.209Z" fill="#482C02"/>
    <path d="M65.6098 221.721H60.0151V227.287H65.6098V221.721Z" fill="#482C02"/>
    <path d="M65.5321 221.798H60.1705V227.209H65.5321V221.798Z" fill="#482C02"/>
    <path d="M65.6098 216.388H60.0151V221.953H65.6098V216.388Z" fill="#391709"/>
    <path d="M65.5321 216.465H60.1705V221.876H65.5321V216.465Z" fill="#424343"/>
    <path d="M65.6098 210.977H60.0151V216.542H65.6098V210.977Z" fill="#424343"/>
    <path d="M65.5321 211.054H60.1705V216.388H65.5321V211.054Z" fill="#424343"/>
    <path d="M65.6098 205.643H60.0151V211.209H65.6098V205.643Z" fill="#424343"/>
    <path d="M65.5321 205.721H60.1705V211.132H65.5321V205.721Z" fill="#424343"/>
    <path d="M65.6098 200.233H60.0151V205.798H65.6098V200.233Z" fill="#424343"/>
    <path d="M65.5321 200.31H60.1705V205.721H65.5321V200.31Z" fill="#424343"/>
    <path d="M65.6098 194.822H60.0151V200.387H65.6098V194.822Z" fill="#424343"/>
    <path d="M65.5321 194.977H60.1705V200.388H65.5321V194.977Z" fill="#424343"/>
    <path d="M65.6098 189.489H60.0151V195.054H65.6098V189.489Z" fill="#424343"/>
    <path d="M65.5321 189.565H60.1705V194.899H65.5321V189.565Z" fill="#424343"/>
    <path d="M65.6098 184.077H60.0151V189.643H65.6098V184.077Z" fill="#424343"/>
    <path d="M65.5321 184.232H60.1705V189.643H65.5321V184.232Z" fill="#424343"/>
    <path d="M65.6098 178.744H60.0151V184.31H65.6098V178.744Z" fill="#424343"/>
    <path d="M65.5321 178.821H60.1705V184.232H65.5321V178.821Z" fill="#424343"/>
    <path d="M65.6098 173.333H60.0151V178.899H65.6098V173.333Z" fill="#424343"/>
    <path d="M65.5321 173.411H60.1705V178.744H65.5321V173.411Z" fill="#424343"/>
    <path d="M65.6098 168H60.0151V173.565H65.6098V168Z" fill="#424343"/>
    <path d="M65.5321 168.077H60.1705V173.488H65.5321V168.077Z" fill="#424343"/>
    <path d="M65.6098 162.589H60.0151V168.154H65.6098V162.589Z" fill="#424343"/>
    <path d="M65.5321 162.666H60.1705V168.077H65.5321V162.666Z" fill="#424343"/>
    <path d="M65.6098 157.255H60.0151V162.821H65.6098V157.255Z" fill="#424343"/>
    <path d="M65.5321 157.333H60.1705V162.743H65.5321V157.333Z" fill="#424343"/>
    <path d="M65.6098 151.844H60.0151V157.41H65.6098V151.844Z" fill="#424343"/>
    <path d="M65.5321 151.922H60.1705V157.255H65.5321V151.922Z" fill="#424343"/>
    <path d="M65.6098 146.511H60.0151V152.077H65.6098V146.511Z" fill="#424343"/>
    <path d="M65.5321 146.588H60.1705V151.999H65.5321V146.588Z" fill="#424343"/>
    <path d="M65.6098 141.1H60.0151V146.665H65.6098V141.1Z" fill="#424343"/>
    <path d="M65.5321 141.177H60.1705V146.588H65.5321V141.177Z" fill="#424343"/>
    <path d="M65.6098 135.767H60.0151V141.332H65.6098V135.767Z" fill="#262828"/>
    <path d="M65.5321 135.844H60.1705V141.255H65.5321V135.844Z" fill="#262828"/>
    <path d="M65.6098 130.356H60.0151V135.921H65.6098V130.356Z" fill="#262828"/>
    <path d="M65.5321 130.433H60.1705V135.766H65.5321V130.433Z" fill="#262828"/>
    <path d="M65.6098 124.945H60.0151V130.51H65.6098V124.945Z" fill="#262828"/>
    <path d="M65.5321 125.1H60.1705V130.51H65.5321V125.1Z" fill="#262828"/>
    <path d="M65.6098 119.611H60.0151V125.177H65.6098V119.611Z" fill="#C5C5C5"/>
    <path d="M65.5321 119.689H60.1705V125.099H65.5321V119.689Z" fill="#C5C5C5"/>
    <path d="M65.6098 114.201H60.0151V119.766H65.6098V114.201Z" fill="#C5C5C5"/>
    <path d="M65.5321 114.278H60.1705V119.689H65.5321V114.278Z" fill="#C5C5C5"/>
    <path d="M65.6098 108.867H60.0151V114.432H65.6098V108.867Z" fill="#C5C5C5"/>
    <path d="M65.5321 108.944H60.1705V114.278H65.5321V108.944Z" fill="#C5C5C5"/>
    <path d="M65.6098 103.456H60.0151V109.021H65.6098V103.456Z" fill="#C5C5C5"/>
    <path d="M65.5321 103.533H60.1705V108.944H65.5321V103.533Z" fill="#C5C5C5"/>
    <path d="M65.6098 98.1222H60.0151V103.688H65.6098V98.1222Z" fill="#C5C5C5"/>
    <path d="M65.5321 98.1995H60.1705V103.61H65.5321V98.1995Z" fill="#C5C5C5"/>
    <path d="M65.6098 92.7112H60.0151V98.2767H65.6098V92.7112Z" fill="#C5C5C5"/>
    <path d="M65.5321 92.7886H60.1705V98.1995H65.5321V92.7886Z" fill="#C5C5C5"/>
    <path d="M65.6098 87.3781H60.0151V92.9435H65.6098V87.3781Z" fill="#C5C5C5"/>
    <path d="M65.5321 87.455H60.1705V92.7886H65.5321V87.455Z" fill="#C5C5C5"/>
    <path d="M65.6098 81.9669H60.0151V87.5323H65.6098V81.9669Z" fill="#C5C5C5"/>
    <path d="M65.5321 82.0441H60.1705V87.455H65.5321V82.0441Z" fill="#C5C5C5"/>
    <path d="M65.6098 76.6337H60.0151V82.1991H65.6098V76.6337Z" fill="#C5C5C5"/>
    <path d="M65.5321 76.711H60.1705V82.1218H65.5321V76.711Z" fill="#C5C5C5"/>
    <path d="M65.6098 71.2228H60.0151V76.7882H65.6098V71.2228Z" fill="white"/>
    <path d="M65.5321 71.2997H60.1705V76.7106H65.5321V71.2997Z" fill="white"/>
    <path d="M65.6098 65.8892H60.0151V71.4546H65.6098V65.8892Z" fill="white"/>
    <path d="M65.5321 65.9665H60.1705V71.3H65.5321V65.9665Z" fill="white"/>
    <path d="M65.6098 60.4783H60.0151V66.0438H65.6098V60.4783Z" fill="white"/>
    <path d="M65.5321 60.5556H60.1705V65.9664H65.5321V60.5556Z" fill="white"/>
    <path d="M65.6098 38.9895H60.0151V44.5549H65.6098V38.9895Z" fill="#F57E77"/>
    <path d="M65.5321 39.0668H60.1705V44.4776H65.5321V39.0668Z" fill="#F57E77"/>
    <path d="M65.6098 33.5786H60.0151V39.144H65.6098V33.5786Z" fill="#3D041F"/>
    <path d="M65.5321 33.6558H60.1705V39.0667H65.5321V33.6558Z" fill="#3D041F"/>
    <path d="M65.6098 28.2454H60.0151V33.8108H65.6098V28.2454Z" fill="#3D041F"/>
    <path d="M65.5321 28.3226H60.1705V33.6562H65.5321V28.3226Z" fill="#3D041F"/>
    <path d="M65.6098 22.8344H60.0151V28.3998H65.6098V22.8344Z" fill="#3D041F"/>
    <path d="M65.5321 22.9116H60.1705V28.3225H65.5321V22.9116Z" fill="#3D041F"/>
    <path d="M65.6098 17.5013H60.0151V23.0668H65.6098V17.5013Z" fill="#621931"/>
    <path d="M65.5321 17.5786H60.1705V22.9894H65.5321V17.5786Z" fill="#621931"/>
    <path d="M65.6098 12.0904H60.0151V17.6558H65.6098V12.0904Z" fill="#621931"/>
    <path d="M65.5321 12.1672H60.1705V17.5781H65.5321V12.1672Z" fill="#621931"/>
    <path d="M60.2484 237.876H54.6537V243.442H60.2484V237.876Z" fill="#391709"/>
    <path d="M60.1704 237.953H54.7311V243.364H60.1704V237.953Z" fill="#391709"/>
    <path d="M60.2484 232.465H54.6537V238.031H60.2484V232.465Z" fill="#482C02"/>
    <path d="M60.1704 232.543H54.7311V237.876H60.1704V232.543Z" fill="#482C02"/>
    <path d="M60.2484 227.132H54.6537V232.697H60.2484V227.132Z" fill="#482C02"/>
    <path d="M60.1704 227.209H54.7311V232.62H60.1704V227.209Z" fill="#482C02"/>
    <path d="M60.2484 221.721H54.6537V227.287H60.2484V221.721Z" fill="#482C02"/>
    <path d="M60.1704 221.798H54.7311V227.209H60.1704V221.798Z" fill="#482C02"/>
    <path d="M60.2484 216.388H54.6537V221.953H60.2484V216.388Z" fill="#424343"/>
    <path d="M60.1704 216.465H54.7311V221.876H60.1704V216.465Z" fill="#424343"/>
    <path d="M60.2484 210.977H54.6537V216.542H60.2484V210.977Z" fill="#424343"/>
    <path d="M60.1704 211.054H54.7311V216.388H60.1704V211.054Z" fill="#424343"/>
    <path d="M60.2484 205.643H54.6537V211.209H60.2484V205.643Z" fill="#424343"/>
    <path d="M60.1704 205.721H54.7311V211.132H60.1704V205.721Z" fill="#424343"/>
    <path d="M60.2484 200.233H54.6537V205.798H60.2484V200.233Z" fill="#424343"/>
    <path d="M60.1704 200.31H54.7311V205.721H60.1704V200.31Z" fill="#424343"/>
    <path d="M60.2484 194.822H54.6537V200.387H60.2484V194.822Z" fill="#424343"/>
    <path d="M60.1704 194.977H54.7311V200.388H60.1704V194.977Z" fill="#424343"/>
    <path d="M60.2484 189.489H54.6537V195.054H60.2484V189.489Z" fill="#424343"/>
    <path d="M60.1704 189.565H54.7311V194.899H60.1704V189.565Z" fill="#424343"/>
    <path d="M60.2484 184.077H54.6537V189.643H60.2484V184.077Z" fill="#424343"/>
    <path d="M60.1704 184.232H54.7311V189.643H60.1704V184.232Z" fill="#424343"/>
    <path d="M60.2484 178.744H54.6537V184.31H60.2484V178.744Z" fill="#424343"/>
    <path d="M60.1704 178.821H54.7311V184.232H60.1704V178.821Z" fill="#424343"/>
    <path d="M60.2484 173.333H54.6537V178.899H60.2484V173.333Z" fill="#424343"/>
    <path d="M60.1704 173.411H54.7311V178.744H60.1704V173.411Z" fill="#424343"/>
    <path d="M60.2484 168H54.6537V173.565H60.2484V168Z" fill="#424343"/>
    <path d="M60.1704 168.077H54.7311V173.488H60.1704V168.077Z" fill="#424343"/>
    <path d="M60.2484 162.589H54.6537V168.154H60.2484V162.589Z" fill="#424343"/>
    <path d="M60.1704 162.666H54.7311V168.077H60.1704V162.666Z" fill="#424343"/>
    <path d="M60.2484 157.255H54.6537V162.821H60.2484V157.255Z" fill="#424343"/>
    <path d="M60.1704 157.333H54.7311V162.743H60.1704V157.333Z" fill="#424343"/>
    <path d="M60.2484 151.844H54.6537V157.41H60.2484V151.844Z" fill="#424343"/>
    <path d="M60.1704 151.922H54.7311V157.255H60.1704V151.922Z" fill="#424343"/>
    <path d="M60.2484 146.511H54.6537V152.077H60.2484V146.511Z" fill="#424343"/>
    <path d="M60.1704 146.588H54.7311V151.999H60.1704V146.588Z" fill="#424343"/>
    <path d="M60.2484 141.1H54.6537V146.665H60.2484V141.1Z" fill="#424343"/>
    <path d="M60.1704 141.177H54.7311V146.588H60.1704V141.177Z" fill="#424343"/>
    <path d="M60.2484 135.767H54.6537V141.332H60.2484V135.767Z" fill="#424343"/>
    <path d="M60.1704 135.844H54.7311V141.255H60.1704V135.844Z" fill="#424343"/>
    <path d="M60.2484 130.356H54.6537V135.921H60.2484V130.356Z" fill="#424343"/>
    <path d="M60.1704 130.433H54.7311V135.766H60.1704V130.433Z" fill="#424343"/>
    <path d="M60.2484 124.945H54.6537V130.51H60.2484V124.945Z" fill="#262828"/>
    <path d="M60.1704 125.1H54.7311V130.51H60.1704V125.1Z" fill="#262828"/>
    <path d="M60.2484 119.611H54.6537V125.177H60.2484V119.611Z" fill="white"/>
    <path d="M60.2484 114.201H54.6537V119.766H60.2484V114.201Z" fill="white"/>
    <path d="M60.1704 114.278H54.7311V119.689H60.1704V114.278Z" fill="white"/>
    <path d="M60.2484 108.867H54.6537V114.432H60.2484V108.867Z" fill="white"/>
    <path d="M60.1704 108.944H54.7311V114.278H60.1704V108.944Z" fill="white"/>
    <path d="M60.2484 103.456H54.6537V109.021H60.2484V103.456Z" fill="white"/>
    <path d="M60.1704 103.533H54.7311V108.944H60.1704V103.533Z" fill="white"/>
    <path d="M60.2484 98.1222H54.6537V103.688H60.2484V98.1222Z" fill="white"/>
    <path d="M60.1704 98.1995H54.7311V103.61H60.1704V98.1995Z" fill="white"/>
    <path d="M60.2484 92.7112H54.6537V98.2767H60.2484V92.7112Z" fill="white"/>
    <path d="M60.1704 92.7886H54.7311V98.1995H60.1704V92.7886Z" fill="white"/>
    <path d="M60.2484 87.3781H54.6537V92.9435H60.2484V87.3781Z" fill="white"/>
    <path d="M60.1704 87.455H54.7311V92.7886H60.1704V87.455Z" fill="white"/>
    <path d="M60.2484 81.9669H54.6537V87.5323H60.2484V81.9669Z" fill="white"/>
    <path d="M60.1704 82.0441H54.7311V87.455H60.1704V82.0441Z" fill="white"/>
    <path d="M60.2484 76.6337H54.6537V82.1991H60.2484V76.6337Z" fill="white"/>
    <path d="M60.1704 76.711H54.7311V82.1218H60.1704V76.711Z" fill="white"/>
    <path d="M60.2484 71.2228H54.6537V76.7882H60.2484V71.2228Z" fill="white"/>
    <path d="M60.1704 71.2997H54.7311V76.7106H60.1704V71.2997Z" fill="white"/>
    <path d="M60.2484 65.8892H54.6537V71.4546H60.2484V65.8892Z" fill="white"/>
    <path d="M60.1704 65.9665H54.7311V71.3H60.1704V65.9665Z" fill="white"/>
    <path d="M60.2484 60.4783H54.6537V66.0438H60.2484V60.4783Z" fill="#F57E77"/>
    <path d="M60.1704 60.5556H54.7311V65.9664H60.1704V60.5556Z" fill="#F57E77"/>
    <path d="M60.2484 44.323H54.6537V49.8884H60.2484V44.323Z" fill="#F57E77"/>
    <path d="M60.1704 44.4003H54.7311V49.8111H60.1704V44.4003Z" fill="#F57E77"/>
    <path d="M60.2484 38.9895H54.6537V44.5549H60.2484V38.9895Z" fill="#FFE4CE"/>
    <path d="M60.1704 39.0668H54.7311V44.4776H60.1704V39.0668Z" fill="#FFE4CE"/>
    <path d="M60.2484 33.5786H54.6537V39.144H60.2484V33.5786Z" fill="#FFE4CE"/>
    <path d="M60.1704 33.6558H54.7311V39.0667H60.1704V33.6558Z" fill="#FFE4CE"/>
    <path d="M60.2484 28.2454H54.6537V33.8108H60.2484V28.2454Z" fill="#FFE4CE"/>
    <path d="M60.1704 28.3226H54.7311V33.6562H60.1704V28.3226Z" fill="#FFE4CE"/>
    <path d="M60.2484 22.8344H54.6537V28.3998H60.2484V22.8344Z" fill="#FFE4CE"/>
    <path d="M60.1704 22.9116H54.7311V28.3225H60.1704V22.9116Z" fill="#FFE4CE"/>
    <path d="M60.2484 17.5013H54.6537V23.0668H60.2484V17.5013Z" fill="#3D041F"/>
    <path d="M60.1704 17.5786H54.7311V22.9894H60.1704V17.5786Z" fill="#3D041F"/>
    <path d="M60.2484 12.0904H54.6537V17.6558H60.2484V12.0904Z" fill="#621931"/>
    <path d="M60.1704 12.1672H54.7311V17.5781H60.1704V12.1672Z" fill="#621931"/>
    <path d="M60.2484 6.75677H54.6537V12.3222H60.2484V6.75677Z" fill="#621931"/>
    <path d="M60.1704 6.83417H54.7311V12.1677H60.1704V6.83417Z" fill="#621931"/>
    <path d="M54.8091 237.876H49.2144V243.442H54.8091V237.876Z" fill="#26031F"/>
    <path d="M54.7314 237.953H49.2921V243.364H54.7314V237.953Z" fill="#26031F"/>
    <path d="M54.8091 232.465H49.2144V238.031H54.8091V232.465Z" fill="#391709"/>
    <path d="M54.7314 232.543H49.2921V237.876H54.7314V232.543Z" fill="#391709"/>
    <path d="M54.8091 227.132H49.2144V232.697H54.8091V227.132Z" fill="#391709"/>
    <path d="M54.7314 227.209H49.2921V232.62H54.7314V227.209Z" fill="#391709"/>
    <path d="M54.8091 221.721H49.2144V227.287H54.8091V221.721Z" fill="#391709"/>
    <path d="M54.7314 221.798H49.2921V227.209H54.7314V221.798Z" fill="#391709"/>
    <path d="M54.8091 216.388H49.2144V221.953H54.8091V216.388Z" fill="#262828"/>
    <path d="M54.7314 216.465H49.2921V221.876H54.7314V216.465Z" fill="#262828"/>
    <path d="M54.8091 210.977H49.2144V216.542H54.8091V210.977Z" fill="#262828"/>
    <path d="M54.7314 211.054H49.2921V216.388H54.7314V211.054Z" fill="#262828"/>
    <path d="M54.8091 205.643H49.2144V211.209H54.8091V205.643Z" fill="#262828"/>
    <path d="M54.7314 205.721H49.2921V211.132H54.7314V205.721Z" fill="#262828"/>
    <path d="M54.8091 200.233H49.2144V205.798H54.8091V200.233Z" fill="#262828"/>
    <path d="M54.7314 200.31H49.2921V205.721H54.7314V200.31Z" fill="#262828"/>
    <path d="M54.8091 194.822H49.2144V200.387H54.8091V194.822Z" fill="#262828"/>
    <path d="M54.7314 194.977H49.2921V200.388H54.7314V194.977Z" fill="#262828"/>
    <path d="M54.8091 189.489H49.2144V195.054H54.8091V189.489Z" fill="#262828"/>
    <path d="M54.7314 189.565H49.2921V194.899H54.7314V189.565Z" fill="#262828"/>
    <path d="M54.8091 184.077H49.2144V189.643H54.8091V184.077Z" fill="#262828"/>
    <path d="M54.7314 184.232H49.2921V189.643H54.7314V184.232Z" fill="#262828"/>
    <path d="M54.8091 178.744H49.2144V184.31H54.8091V178.744Z" fill="#262828"/>
    <path d="M54.7314 178.821H49.2921V184.232H54.7314V178.821Z" fill="#262828"/>
    <path d="M54.8091 173.333H49.2144V178.899H54.8091V173.333Z" fill="#262828"/>
    <path d="M54.7314 173.411H49.2921V178.744H54.7314V173.411Z" fill="#262828"/>
    <path d="M54.8091 168H49.2144V173.565H54.8091V168Z" fill="#262828"/>
    <path d="M54.7314 168.077H49.2921V173.488H54.7314V168.077Z" fill="#262828"/>
    <path d="M54.8091 162.589H49.2144V168.154H54.8091V162.589Z" fill="#262828"/>
    <path d="M54.7314 162.666H49.2921V168.077H54.7314V162.666Z" fill="#262828"/>
    <path d="M54.8091 157.255H49.2144V162.821H54.8091V157.255Z" fill="#262828"/>
    <path d="M54.7314 157.333H49.2921V162.743H54.7314V157.333Z" fill="#262828"/>
    <path d="M54.8091 151.844H49.2144V157.41H54.8091V151.844Z" fill="#262828"/>
    <path d="M54.7314 151.922H49.2921V157.255H54.7314V151.922Z" fill="#262828"/>
    <path d="M54.8091 146.511H49.2144V152.077H54.8091V146.511Z" fill="#262828"/>
    <path d="M54.7314 146.588H49.2921V151.999H54.7314V146.588Z" fill="#262828"/>
    <path d="M54.8091 141.1H49.2144V146.665H54.8091V141.1Z" fill="#424343"/>
    <path d="M54.7314 141.177H49.2921V146.588H54.7314V141.177Z" fill="#424343"/>
    <path d="M54.8091 135.767H49.2144V141.332H54.8091V135.767Z" fill="#424343"/>
    <path d="M54.7314 135.844H49.2921V141.255H54.7314V135.844Z" fill="#424343"/>
    <path d="M54.8091 130.356H49.2144V135.921H54.8091V130.356Z" fill="#424343"/>
    <path d="M54.7314 130.433H49.2921V135.766H54.7314V130.433Z" fill="#424343"/>
    <path d="M54.8091 124.945H49.2144V130.51H54.8091V124.945Z" fill="#391709"/>
    <path d="M54.7314 125.1H49.2921V130.51H54.7314V125.1Z" fill="#262828"/>
    <path d="M54.8091 119.611H49.2144V125.177H54.8091V119.611Z" fill="white"/>
    <path d="M54.7314 119.689H49.2921V125.099H54.7314V119.689Z" fill="white"/>
    <path d="M54.8091 114.201H49.2144V119.766H54.8091V114.201Z" fill="white"/>
    <path d="M54.7314 114.278H49.2921V119.689H54.7314V114.278Z" fill="white"/>
    <path d="M54.8091 108.867H49.2144V114.432H54.8091V108.867Z" fill="white"/>
    <path d="M54.7314 108.944H49.2921V114.278H54.7314V108.944Z" fill="white"/>
    <path d="M54.8091 103.456H49.2144V109.021H54.8091V103.456Z" fill="white"/>
    <path d="M54.7314 103.533H49.2921V108.944H54.7314V103.533Z" fill="white"/>
    <path d="M54.8091 98.1222H49.2144V103.688H54.8091V98.1222Z" fill="white"/>
    <path d="M54.7314 98.1995H49.2921V103.61H54.7314V98.1995Z" fill="white"/>
    <path d="M54.8091 92.7112H49.2144V98.2767H54.8091V92.7112Z" fill="white"/>
    <path d="M54.7314 92.7886H49.2921V98.1995H54.7314V92.7886Z" fill="white"/>
    <path d="M54.8091 87.3781H49.2144V92.9435H54.8091V87.3781Z" fill="white"/>
    <path d="M54.7314 87.455H49.2921V92.7886H54.7314V87.455Z" fill="white"/>
    <path d="M54.8091 81.9669H49.2144V87.5323H54.8091V81.9669Z" fill="white"/>
    <path d="M54.7314 82.0441H49.2921V87.455H54.7314V82.0441Z" fill="white"/>
    <path d="M54.8091 76.6337H49.2144V82.1991H54.8091V76.6337Z" fill="white"/>
    <path d="M54.7314 76.711H49.2921V82.1218H54.7314V76.711Z" fill="white"/>
    <path d="M54.8091 71.2228H49.2144V76.7882H54.8091V71.2228Z" fill="white"/>
    <path d="M54.7314 71.2997H49.2921V76.7106H54.7314V71.2997Z" fill="white"/>
    <path d="M54.8091 65.8892H49.2144V71.4546H54.8091V65.8892Z" fill="white"/>
    <path d="M54.7314 65.9665H49.2921V71.3H54.7314V65.9665Z" fill="white"/>
    <path d="M54.8091 60.4783H49.2144V66.0438H54.8091V60.4783Z" fill="#F57E77"/>
    <path d="M54.7314 60.5556H49.2921V65.9664H54.7314V60.5556Z" fill="#F57E77"/>
    <path d="M54.8091 55.0674H49.2144V60.6329H54.8091V55.0674Z" fill="#F57E77"/>
    <path d="M54.7314 55.1447H49.2921V60.5555H54.7314V55.1447Z" fill="#F57E77"/>
    <path d="M54.8091 49.7339H49.2144V55.2994H54.8091V49.7339Z" fill="#F57E77"/>
    <path d="M54.7314 49.8112H49.2921V55.1448H54.7314V49.8112Z" fill="#F57E77"/>
    <path d="M54.8091 44.323H49.2144V49.8884H54.8091V44.323Z" fill="#FFE4CE"/>
    <path d="M54.7314 44.4003H49.2921V49.8111H54.7314V44.4003Z" fill="#FFE4CE"/>
    <path d="M54.8091 38.9895H49.2144V44.5549H54.8091V38.9895Z" fill="#FFE4CE"/>
    <path d="M54.7314 39.0668H49.2921V44.4776H54.7314V39.0668Z" fill="#FFE4CE"/>
    <path d="M54.8091 33.5786H49.2144V39.144H54.8091V33.5786Z" fill="#FFE4CE"/>
    <path d="M54.7314 33.6558H49.2921V39.0667H54.7314V33.6558Z" fill="#FFE4CE"/>
    <path d="M54.8091 28.2454H49.2144V33.8108H54.8091V28.2454Z" fill="#66667C"/>
    <path d="M54.7314 28.3226H49.2921V33.6562H54.7314V28.3226Z" fill="#66667C"/>
    <path d="M54.8091 22.8344H49.2144V28.3998H54.8091V22.8344Z" fill="#FFE4CE"/>
    <path d="M54.7314 22.9116H49.2921V28.3225H54.7314V22.9116Z" fill="#FFE4CE"/>
    <path d="M54.8091 17.5013H49.2144V23.0668H54.8091V17.5013Z" fill="#FFE4CE"/>
    <path d="M54.7314 17.5786H49.2921V22.9894H54.7314V17.5786Z" fill="#FFE4CE"/>
    <path d="M54.8091 12.0904H49.2144V17.6558H54.8091V12.0904Z" fill="#3D041F"/>
    <path d="M54.7314 12.1672H49.2921V17.5781H54.7314V12.1672Z" fill="#3D041F"/>
    <path d="M54.8091 6.75677H49.2144V12.3222H54.8091V6.75677Z" fill="#621931"/>
    <path d="M54.7314 6.83417H49.2921V12.1677H54.7314V6.83417Z" fill="#621931"/>
    <path d="M49.4475 141.1H43.8528V146.665H49.4475V141.1Z" fill="#262828"/>
    <path d="M49.3696 141.177H43.9303V146.588H49.3696V141.177Z" fill="#424343"/>
    <path d="M49.4475 135.767H43.8528V141.332H49.4475V135.767Z" fill="#262828"/>
    <path d="M49.3696 135.844H43.9303V141.255H49.3696V135.844Z" fill="#424343"/>
    <path d="M49.4475 130.356H43.8528V135.921H49.4475V130.356Z" fill="#262828"/>
    <path d="M49.3696 130.433H43.9303V135.766H49.3696V130.433Z" fill="#424343"/>
    <path d="M49.4475 124.945H43.8528V130.51H49.4475V124.945Z" fill="#391709"/>
    <path d="M49.3696 125.1H43.9303V130.51H49.3696V125.1Z" fill="#262828"/>
    <path d="M49.4475 119.611H43.8528V125.177H49.4475V119.611Z" fill="white"/>
    <path d="M49.3696 119.689H43.9303V125.099H49.3696V119.689Z" fill="white"/>
    <path d="M49.4475 114.201H43.8528V119.766H49.4475V114.201Z" fill="white"/>
    <path d="M49.3696 114.278H43.9303V119.689H49.3696V114.278Z" fill="white"/>
    <path d="M49.4475 108.867H43.8528V114.432H49.4475V108.867Z" fill="white"/>
    <path d="M49.3696 108.944H43.9303V114.278H49.3696V108.944Z" fill="white"/>
    <path d="M49.4475 103.456H43.8528V109.021H49.4475V103.456Z" fill="white"/>
    <path d="M49.3696 103.533H43.9303V108.944H49.3696V103.533Z" fill="white"/>
    <path d="M49.4475 98.1222H43.8528V103.688H49.4475V98.1222Z" fill="white"/>
    <path d="M49.3696 98.1995H43.9303V103.61H49.3696V98.1995Z" fill="white"/>
    <path d="M49.4475 92.7112H43.8528V98.2767H49.4475V92.7112Z" fill="white"/>
    <path d="M49.3696 92.7886H43.9303V98.1995H49.3696V92.7886Z" fill="white"/>
    <path d="M49.4475 87.3781H43.8528V92.9435H49.4475V87.3781Z" fill="white"/>
    <path d="M49.3696 87.455H43.9303V92.7886H49.3696V87.455Z" fill="white"/>
    <path d="M49.4475 81.9669H43.8528V87.5323H49.4475V81.9669Z" fill="white"/>
    <path d="M49.3696 82.0441H43.9303V87.455H49.3696V82.0441Z" fill="white"/>
    <path d="M49.4475 76.6337H43.8528V82.1991H49.4475V76.6337Z" fill="white"/>
    <path d="M49.3696 76.711H43.9303V82.1218H49.3696V76.711Z" fill="white"/>
    <path d="M49.4475 71.2228H43.8528V76.7882H49.4475V71.2228Z" fill="white"/>
    <path d="M49.3696 71.2997H43.9303V76.7106H49.3696V71.2997Z" fill="white"/>
    <path d="M49.4475 65.8892H43.8528V71.4546H49.4475V65.8892Z" fill="#F57E77"/>
    <path d="M49.3696 65.9665H43.9303V71.3H49.3696V65.9665Z" fill="#F57E77"/>
    <path d="M49.4475 60.4783H43.8528V66.0438H49.4475V60.4783Z" fill="#FFE4CE"/>
    <path d="M49.3696 60.5556H43.9303V65.9664H49.3696V60.5556Z" fill="#FFE4CE"/>
    <path d="M49.4475 55.0674H43.8528V60.6329H49.4475V55.0674Z" fill="#FFE4CE"/>
    <path d="M49.3696 55.1447H43.9303V60.5555H49.3696V55.1447Z" fill="#FFE4CE"/>
    <path d="M49.4475 49.7339H43.8528V55.2994H49.4475V49.7339Z" fill="#F57E77"/>
    <path d="M49.3696 49.8112H43.9303V55.1448H49.3696V49.8112Z" fill="#F57E77"/>
    <path d="M49.4475 44.323H43.8528V49.8884H49.4475V44.323Z" fill="#FFE4CE"/>
    <path d="M49.3696 44.4003H43.9303V49.8111H49.3696V44.4003Z" fill="#FFE4CE"/>
    <path d="M49.4475 38.9895H43.8528V44.5549H49.4475V38.9895Z" fill="#FFE4CE"/>
    <path d="M49.3696 39.0668H43.9303V44.4776H49.3696V39.0668Z" fill="#FFE4CE"/>
    <path d="M49.4475 33.5786H43.8528V39.144H49.4475V33.5786Z" fill="#FFE4CE"/>
    <path d="M49.3696 33.6558H43.9303V39.0667H49.3696V33.6558Z" fill="#FFE4CE"/>
    <path d="M49.4475 28.2454H43.8528V33.8108H49.4475V28.2454Z" fill="#FFE4CE"/>
    <path d="M49.3696 28.3226H43.9303V33.6562H49.3696V28.3226Z" fill="#FFE4CE"/>
    <path d="M49.4475 22.8344H43.8528V28.3998H49.4475V22.8344Z" fill="#FFE4CE"/>
    <path d="M49.3696 22.9116H43.9303V28.3225H49.3696V22.9116Z" fill="#FFE4CE"/>
    <path d="M49.4475 17.5013H43.8528V23.0668H49.4475V17.5013Z" fill="#FFE4CE"/>
    <path d="M49.3696 17.5786H43.9303V22.9894H49.3696V17.5786Z" fill="#FFE4CE"/>
    <path d="M49.4475 12.0904H43.8528V17.6558H49.4475V12.0904Z" fill="#3D041F"/>
    <path d="M49.3696 12.1672H43.9303V17.5781H49.3696V12.1672Z" fill="#3D041F"/>
    <path d="M49.4475 6.75677H43.8528V12.3222H49.4475V6.75677Z" fill="#621931"/>
    <path d="M49.3696 6.83417H43.9303V12.1677H49.3696V6.83417Z" fill="#621931"/>
    <path d="M44.0077 237.876H38.413V243.442H44.0077V237.876Z" fill="#26031F"/>
    <path d="M43.8528 237.953H38.4912V243.364H43.8528V237.953Z" fill="#26031F"/>
    <path d="M44.0077 232.465H38.413V238.031H44.0077V232.465Z" fill="#391709"/>
    <path d="M43.8528 232.543H38.4912V237.876H43.8528V232.543Z" fill="#391709"/>
    <path d="M44.0077 227.132H38.413V232.697H44.0077V227.132Z" fill="#391709"/>
    <path d="M43.8528 227.209H38.4912V232.62H43.8528V227.209Z" fill="#391709"/>
    <path d="M44.0077 221.721H38.413V227.287H44.0077V221.721Z" fill="#391709"/>
    <path d="M43.8528 221.798H38.4912V227.209H43.8528V221.798Z" fill="#391709"/>
    <path d="M44.0077 216.388H38.413V221.953H44.0077V216.388Z" fill="#262828"/>
    <path d="M43.8528 216.465H38.4912V221.876H43.8528V216.465Z" fill="#262828"/>
    <path d="M44.0077 210.977H38.413V216.542H44.0077V210.977Z" fill="#262828"/>
    <path d="M43.8528 211.054H38.4912V216.388H43.8528V211.054Z" fill="#262828"/>
    <path d="M44.0077 205.643H38.413V211.209H44.0077V205.643Z" fill="#262828"/>
    <path d="M43.8528 205.721H38.4912V211.132H43.8528V205.721Z" fill="#262828"/>
    <path d="M44.0077 200.233H38.413V205.798H44.0077V200.233Z" fill="#262828"/>
    <path d="M43.8528 200.31H38.4912V205.721H43.8528V200.31Z" fill="#262828"/>
    <path d="M44.0077 194.822H38.413V200.387H44.0077V194.822Z" fill="#262828"/>
    <path d="M43.8528 194.977H38.4912V200.388H43.8528V194.977Z" fill="#262828"/>
    <path d="M44.0077 189.489H38.413V195.054H44.0077V189.489Z" fill="#262828"/>
    <path d="M43.8528 189.565H38.4912V194.899H43.8528V189.565Z" fill="#262828"/>
    <path d="M44.0077 184.077H38.413V189.643H44.0077V184.077Z" fill="#262828"/>
    <path d="M43.8528 184.232H38.4912V189.643H43.8528V184.232Z" fill="#262828"/>
    <path d="M44.0077 178.744H38.413V184.31H44.0077V178.744Z" fill="#262828"/>
    <path d="M43.8528 178.821H38.4912V184.232H43.8528V178.821Z" fill="#262828"/>
    <path d="M44.0077 173.333H38.413V178.899H44.0077V173.333Z" fill="#262828"/>
    <path d="M43.8528 173.411H38.4912V178.744H43.8528V173.411Z" fill="#262828"/>
    <path d="M44.0077 168H38.413V173.565H44.0077V168Z" fill="#262828"/>
    <path d="M43.8528 168.077H38.4912V173.488H43.8528V168.077Z" fill="#262828"/>
    <path d="M44.0077 162.589H38.413V168.154H44.0077V162.589Z" fill="#262828"/>
    <path d="M43.8528 162.666H38.4912V168.077H43.8528V162.666Z" fill="#262828"/>
    <path d="M44.0077 157.255H38.413V162.821H44.0077V157.255Z" fill="#262828"/>
    <path d="M43.8528 157.333H38.4912V162.743H43.8528V157.333Z" fill="#262828"/>
    <path d="M44.0077 151.844H38.413V157.41H44.0077V151.844Z" fill="#262828"/>
    <path d="M43.8528 151.922H38.4912V157.255H43.8528V151.922Z" fill="#262828"/>
    <path d="M44.0077 146.511H38.413V152.077H44.0077V146.511Z" fill="#262828"/>
    <path d="M43.8528 146.588H38.4912V151.999H43.8528V146.588Z" fill="#262828"/>
    <path d="M44.0077 141.1H38.413V146.665H44.0077V141.1Z" fill="#424343"/>
    <path d="M43.8528 141.177H38.4912V146.588H43.8528V141.177Z" fill="#424343"/>
    <path d="M44.0077 135.767H38.413V141.332H44.0077V135.767Z" fill="#424343"/>
    <path d="M43.8528 135.844H38.4912V141.255H43.8528V135.844Z" fill="#424343"/>
    <path d="M44.0077 130.356H38.413V135.921H44.0077V130.356Z" fill="#424343"/>
    <path d="M43.8528 130.433H38.4912V135.766H43.8528V130.433Z" fill="#424343"/>
    <path d="M44.0077 124.945H38.413V130.51H44.0077V124.945Z" fill="#391709"/>
    <path d="M43.8528 125.1H38.4912V130.51H43.8528V125.1Z" fill="#262828"/>
    <path d="M44.0077 119.611H38.413V125.177H44.0077V119.611Z" fill="white"/>
    <path d="M43.8528 119.689H38.4912V125.099H43.8528V119.689Z" fill="white"/>
    <path d="M44.0077 114.201H38.413V119.766H44.0077V114.201Z" fill="white"/>
    <path d="M43.8528 114.278H38.4912V119.689H43.8528V114.278Z" fill="white"/>
    <path d="M44.0077 108.867H38.413V114.432H44.0077V108.867Z" fill="white"/>
    <path d="M43.8528 108.944H38.4912V114.278H43.8528V108.944Z" fill="white"/>
    <path d="M44.0077 103.456H38.413V109.021H44.0077V103.456Z" fill="white"/>
    <path d="M43.8528 103.533H38.4912V108.944H43.8528V103.533Z" fill="white"/>
    <path d="M44.0077 98.1222H38.413V103.688H44.0077V98.1222Z" fill="white"/>
    <path d="M43.8528 98.1995H38.4912V103.61H43.8528V98.1995Z" fill="white"/>
    <path d="M44.0077 92.7112H38.413V98.2767H44.0077V92.7112Z" fill="white"/>
    <path d="M43.8528 92.7886H38.4912V98.1995H43.8528V92.7886Z" fill="white"/>
    <path d="M44.0077 87.3781H38.413V92.9435H44.0077V87.3781Z" fill="white"/>
    <path d="M43.8528 87.455H38.4912V92.7886H43.8528V87.455Z" fill="white"/>
    <path d="M44.0077 81.9669H38.413V87.5323H44.0077V81.9669Z" fill="white"/>
    <path d="M43.8528 82.0441H38.4912V87.455H43.8528V82.0441Z" fill="white"/>
    <path d="M44.0077 76.6337H38.413V82.1991H44.0077V76.6337Z" fill="white"/>
    <path d="M43.8528 76.711H38.4912V82.1218H43.8528V76.711Z" fill="white"/>
    <path d="M44.0077 71.2228H38.413V76.7882H44.0077V71.2228Z" fill="white"/>
    <path d="M43.8528 71.2997H38.4912V76.7106H43.8528V71.2997Z" fill="white"/>
    <path d="M44.0077 65.8892H38.413V71.4546H44.0077V65.8892Z" fill="white"/>
    <path d="M43.8528 65.9665H38.4912V71.3H43.8528V65.9665Z" fill="white"/>
    <path d="M44.0077 60.4783H38.413V66.0438H44.0077V60.4783Z" fill="#FFE4CE"/>
    <path d="M43.8528 60.5556H38.4912V65.9664H43.8528V60.5556Z" fill="#FFE4CE"/>
    <path d="M44.0077 55.0674H38.413V60.6329H44.0077V55.0674Z" fill="#FFE4CE"/>
    <path d="M43.8528 55.1447H38.4912V60.5555H43.8528V55.1447Z" fill="#FFE4CE"/>
    <path d="M44.0077 49.7339H38.413V55.2994H44.0077V49.7339Z" fill="#F57E77"/>
    <path d="M43.8528 49.8112H38.4912V55.1448H43.8528V49.8112Z" fill="#F57E77"/>
    <path d="M44.0077 44.323H38.413V49.8884H44.0077V44.323Z" fill="#FFE4CE"/>
    <path d="M43.8528 44.4003H38.4912V49.8111H43.8528V44.4003Z" fill="#FFE4CE"/>
    <path d="M44.0077 38.9895H38.413V44.5549H44.0077V38.9895Z" fill="#FFE4CE"/>
    <path d="M43.8528 39.0668H38.4912V44.4776H43.8528V39.0668Z" fill="#FFE4CE"/>
    <path d="M44.0077 33.5786H38.413V39.144H44.0077V33.5786Z" fill="#FFE4CE"/>
    <path d="M43.8528 33.6558H38.4912V39.0667H43.8528V33.6558Z" fill="#FFE4CE"/>
    <path d="M44.0077 28.2454H38.413V33.8108H44.0077V28.2454Z" fill="#66667C"/>
    <path d="M43.8528 28.3226H38.4912V33.6562H43.8528V28.3226Z" fill="#66667C"/>
    <path d="M44.0077 22.8344H38.413V28.3998H44.0077V22.8344Z" fill="#FFE4CE"/>
    <path d="M43.8528 22.9116H38.4912V28.3225H43.8528V22.9116Z" fill="#FFE4CE"/>
    <path d="M44.0077 17.5013H38.413V23.0668H44.0077V17.5013Z" fill="#FFE4CE"/>
    <path d="M43.8528 17.5786H38.4912V22.9894H43.8528V17.5786Z" fill="#FFE4CE"/>
    <path d="M44.0077 12.0904H38.413V17.6558H44.0077V12.0904Z" fill="#3D041F"/>
    <path d="M43.8528 12.1672H38.4912V17.5781H43.8528V12.1672Z" fill="#3D041F"/>
    <path d="M44.0077 6.75677H38.413V12.3222H44.0077V6.75677Z" fill="#621931"/>
    <path d="M43.8528 6.83417H38.4912V12.1677H43.8528V6.83417Z" fill="#621931"/>
    <path d="M38.6466 237.876H33.0519V243.442H38.6466V237.876Z" fill="#391709"/>
    <path d="M38.5692 237.953H33.1299V243.364H38.5692V237.953Z" fill="#391709"/>
    <path d="M38.6466 232.465H33.0519V238.031H38.6466V232.465Z" fill="#482C02"/>
    <path d="M38.5692 232.543H33.1299V237.876H38.5692V232.543Z" fill="#482C02"/>
    <path d="M38.6466 227.132H33.0519V232.697H38.6466V227.132Z" fill="#482C02"/>
    <path d="M38.5692 227.209H33.1299V232.62H38.5692V227.209Z" fill="#482C02"/>
    <path d="M38.6466 221.721H33.0519V227.287H38.6466V221.721Z" fill="#482C02"/>
    <path d="M38.5692 221.798H33.1299V227.209H38.5692V221.798Z" fill="#482C02"/>
    <path d="M38.6466 216.388H33.0519V221.953H38.6466V216.388Z" fill="#424343"/>
    <path d="M38.5692 216.465H33.1299V221.876H38.5692V216.465Z" fill="#424343"/>
    <path d="M38.6466 210.977H33.0519V216.542H38.6466V210.977Z" fill="#424343"/>
    <path d="M38.5692 211.054H33.1299V216.388H38.5692V211.054Z" fill="#424343"/>
    <path d="M38.6466 205.643H33.0519V211.209H38.6466V205.643Z" fill="#424343"/>
    <path d="M38.5692 205.721H33.1299V211.132H38.5692V205.721Z" fill="#424343"/>
    <path d="M38.6466 200.233H33.0519V205.798H38.6466V200.233Z" fill="#424343"/>
    <path d="M38.5692 200.31H33.1299V205.721H38.5692V200.31Z" fill="#424343"/>
    <path d="M38.6466 194.822H33.0519V200.387H38.6466V194.822Z" fill="#424343"/>
    <path d="M38.5692 194.977H33.1299V200.388H38.5692V194.977Z" fill="#424343"/>
    <path d="M38.6466 189.489H33.0519V195.054H38.6466V189.489Z" fill="#424343"/>
    <path d="M38.5692 189.565H33.1299V194.899H38.5692V189.565Z" fill="#424343"/>
    <path d="M38.6466 184.077H33.0519V189.643H38.6466V184.077Z" fill="#424343"/>
    <path d="M38.5692 184.232H33.1299V189.643H38.5692V184.232Z" fill="#424343"/>
    <path d="M38.6466 178.744H33.0519V184.31H38.6466V178.744Z" fill="#424343"/>
    <path d="M38.5692 178.821H33.1299V184.232H38.5692V178.821Z" fill="#424343"/>
    <path d="M38.6466 173.333H33.0519V178.899H38.6466V173.333Z" fill="#424343"/>
    <path d="M38.5692 173.411H33.1299V178.744H38.5692V173.411Z" fill="#424343"/>
    <path d="M38.6466 168H33.0519V173.565H38.6466V168Z" fill="#424343"/>
    <path d="M38.5692 168.077H33.1299V173.488H38.5692V168.077Z" fill="#424343"/>
    <path d="M38.6466 162.589H33.0519V168.154H38.6466V162.589Z" fill="#424343"/>
    <path d="M38.5692 162.666H33.1299V168.077H38.5692V162.666Z" fill="#424343"/>
    <path d="M38.6466 157.255H33.0519V162.821H38.6466V157.255Z" fill="#424343"/>
    <path d="M38.5692 157.333H33.1299V162.743H38.5692V157.333Z" fill="#424343"/>
    <path d="M38.6466 151.844H33.0519V157.41H38.6466V151.844Z" fill="#424343"/>
    <path d="M38.5692 151.922H33.1299V157.255H38.5692V151.922Z" fill="#424343"/>
    <path d="M38.6466 146.511H33.0519V152.077H38.6466V146.511Z" fill="#424343"/>
    <path d="M38.5692 146.588H33.1299V151.999H38.5692V146.588Z" fill="#424343"/>
    <path d="M38.6466 141.1H33.0519V146.665H38.6466V141.1Z" fill="#424343"/>
    <path d="M38.5692 141.177H33.1299V146.588H38.5692V141.177Z" fill="#424343"/>
    <path d="M38.6466 135.767H33.0519V141.332H38.6466V135.767Z" fill="#424343"/>
    <path d="M38.5692 135.844H33.1299V141.255H38.5692V135.844Z" fill="#424343"/>
    <path d="M38.6466 130.356H33.0519V135.921H38.6466V130.356Z" fill="#424343"/>
    <path d="M38.5692 130.433H33.1299V135.766H38.5692V130.433Z" fill="#424343"/>
    <path d="M38.6466 124.945H33.0519V130.51H38.6466V124.945Z" fill="#262828"/>
    <path d="M38.5692 125.1H33.1299V130.51H38.5692V125.1Z" fill="#262828"/>
    <path d="M38.6466 119.611H33.0519V125.177H38.6466V119.611Z" fill="white"/>
    <path d="M38.5692 119.689H33.1299V125.099H38.5692V119.689Z" fill="white"/>
    <path d="M38.6466 114.201H33.0519V119.766H38.6466V114.201Z" fill="white"/>
    <path d="M38.5692 114.278H33.1299V119.689H38.5692V114.278Z" fill="white"/>
    <path d="M38.6466 108.867H33.0519V114.432H38.6466V108.867Z" fill="white"/>
    <path d="M38.5692 108.944H33.1299V114.278H38.5692V108.944Z" fill="white"/>
    <path d="M38.6466 103.456H33.0519V109.021H38.6466V103.456Z" fill="white"/>
    <path d="M38.5692 103.533H33.1299V108.944H38.5692V103.533Z" fill="white"/>
    <path d="M38.6466 98.1222H33.0519V103.688H38.6466V98.1222Z" fill="white"/>
    <path d="M38.5692 98.1995H33.1299V103.61H38.5692V98.1995Z" fill="white"/>
    <path d="M38.6466 92.7112H33.0519V98.2767H38.6466V92.7112Z" fill="white"/>
    <path d="M38.5692 92.7886H33.1299V98.1995H38.5692V92.7886Z" fill="white"/>
    <path d="M38.6466 87.3781H33.0519V92.9435H38.6466V87.3781Z" fill="white"/>
    <path d="M38.5692 87.455H33.1299V92.7886H38.5692V87.455Z" fill="white"/>
    <path d="M38.6466 81.9669H33.0519V87.5323H38.6466V81.9669Z" fill="white"/>
    <path d="M38.5692 82.0441H33.1299V87.455H38.5692V82.0441Z" fill="white"/>
    <path d="M38.6466 76.6337H33.0519V82.1991H38.6466V76.6337Z" fill="white"/>
    <path d="M38.5692 76.711H33.1299V82.1218H38.5692V76.711Z" fill="white"/>
    <path d="M38.6466 71.2228H33.0519V76.7882H38.6466V71.2228Z" fill="white"/>
    <path d="M38.5692 71.2997H33.1299V76.7106H38.5692V71.2997Z" fill="white"/>
    <path d="M38.6466 65.8892H33.0519V71.4546H38.6466V65.8892Z" fill="white"/>
    <path d="M38.5692 65.9665H33.1299V71.3H38.5692V65.9665Z" fill="white"/>
    <path d="M38.6466 60.4783H33.0519V66.0438H38.6466V60.4783Z" fill="#FFE4CE"/>
    <path d="M38.5692 60.5556H33.1299V65.9664H38.5692V60.5556Z" fill="#FFE4CE"/>
    <path d="M38.6466 44.323H33.0519V49.8884H38.6466V44.323Z" fill="#FFE4CE"/>
    <path d="M38.5692 44.4003H33.1299V49.8111H38.5692V44.4003Z" fill="#FFE4CE"/>
    <path d="M38.6466 38.9895H33.0519V44.5549H38.6466V38.9895Z" fill="#FFE4CE"/>
    <path d="M38.5692 39.0668H33.1299V44.4776H38.5692V39.0668Z" fill="#FFE4CE"/>
    <path d="M38.6466 33.5786H33.0519V39.144H38.6466V33.5786Z" fill="#FFE4CE"/>
    <path d="M38.5692 33.6558H33.1299V39.0667H38.5692V33.6558Z" fill="#FFE4CE"/>
    <path d="M38.6466 28.2454H33.0519V33.8108H38.6466V28.2454Z" fill="#FFE4CE"/>
    <path d="M38.5692 28.3226H33.1299V33.6562H38.5692V28.3226Z" fill="#FFE4CE"/>
    <path d="M38.6466 22.8344H33.0519V28.3998H38.6466V22.8344Z" fill="#FFE4CE"/>
    <path d="M38.5692 22.9116H33.1299V28.3225H38.5692V22.9116Z" fill="#FFE4CE"/>
    <path d="M38.6466 17.5013H33.0519V23.0668H38.6466V17.5013Z" fill="#3D041F"/>
    <path d="M38.5692 17.5786H33.1299V22.9894H38.5692V17.5786Z" fill="#3D041F"/>
    <path d="M38.6466 12.0904H33.0519V17.6558H38.6466V12.0904Z" fill="#621931"/>
    <path d="M38.5692 12.1672H33.1299V17.5781H38.5692V12.1672Z" fill="#621931"/>
    <path d="M38.6466 6.75677H33.0519V12.3222H38.6466V6.75677Z" fill="#621931"/>
    <path d="M38.5692 6.83417H33.1299V12.1677H38.5692V6.83417Z" fill="#621931"/>
    <path d="M33.2073 237.876H27.6125V243.442H33.2073V237.876Z" fill="#391709"/>
    <path d="M33.1292 237.953H27.6899V243.364H33.1292V237.953Z" fill="#391709"/>
    <path d="M33.2073 232.465H27.6125V238.031H33.2073V232.465Z" fill="#482C02"/>
    <path d="M33.1292 232.543H27.6899V237.876H33.1292V232.543Z" fill="#482C02"/>
    <path d="M33.2073 227.132H27.6125V232.697H33.2073V227.132Z" fill="#482C02"/>
    <path d="M33.1292 227.209H27.6899V232.62H33.1292V227.209Z" fill="#482C02"/>
    <path d="M33.2073 221.721H27.6125V227.287H33.2073V221.721Z" fill="#482C02"/>
    <path d="M33.1292 221.798H27.6899V227.209H33.1292V221.798Z" fill="#482C02"/>
    <path d="M33.2073 216.388H27.6125V221.953H33.2073V216.388Z" fill="#391709"/>
    <path d="M33.1292 216.465H27.6899V221.876H33.1292V216.465Z" fill="#424343"/>
    <path d="M33.2073 210.977H27.6125V216.542H33.2073V210.977Z" fill="#424343"/>
    <path d="M33.1292 211.054H27.6899V216.388H33.1292V211.054Z" fill="#424343"/>
    <path d="M33.2073 205.643H27.6125V211.209H33.2073V205.643Z" fill="#424343"/>
    <path d="M33.1292 205.721H27.6899V211.132H33.1292V205.721Z" fill="#424343"/>
    <path d="M33.2073 200.233H27.6125V205.798H33.2073V200.233Z" fill="#424343"/>
    <path d="M33.1292 200.31H27.6899V205.721H33.1292V200.31Z" fill="#424343"/>
    <path d="M33.2073 194.822H27.6125V200.387H33.2073V194.822Z" fill="#424343"/>
    <path d="M33.1292 194.977H27.6899V200.388H33.1292V194.977Z" fill="#424343"/>
    <path d="M33.2073 189.489H27.6125V195.054H33.2073V189.489Z" fill="#424343"/>
    <path d="M33.1292 189.565H27.6899V194.899H33.1292V189.565Z" fill="#424343"/>
    <path d="M33.2073 184.077H27.6125V189.643H33.2073V184.077Z" fill="#424343"/>
    <path d="M33.1292 184.232H27.6899V189.643H33.1292V184.232Z" fill="#424343"/>
    <path d="M33.2073 178.744H27.6125V184.31H33.2073V178.744Z" fill="#424343"/>
    <path d="M33.1292 178.821H27.6899V184.232H33.1292V178.821Z" fill="#424343"/>
    <path d="M33.2073 173.333H27.6125V178.899H33.2073V173.333Z" fill="#424343"/>
    <path d="M33.1292 173.411H27.6899V178.744H33.1292V173.411Z" fill="#424343"/>
    <path d="M33.2073 168H27.6125V173.565H33.2073V168Z" fill="#424343"/>
    <path d="M33.1292 168.077H27.6899V173.488H33.1292V168.077Z" fill="#424343"/>
    <path d="M33.2073 162.589H27.6125V168.154H33.2073V162.589Z" fill="#424343"/>
    <path d="M33.1292 162.666H27.6899V168.077H33.1292V162.666Z" fill="#424343"/>
    <path d="M33.2073 157.255H27.6125V162.821H33.2073V157.255Z" fill="#424343"/>
    <path d="M33.1292 157.333H27.6899V162.743H33.1292V157.333Z" fill="#424343"/>
    <path d="M33.2073 151.844H27.6125V157.41H33.2073V151.844Z" fill="#424343"/>
    <path d="M33.1292 151.922H27.6899V157.255H33.1292V151.922Z" fill="#424343"/>
    <path d="M33.2073 146.511H27.6125V152.077H33.2073V146.511Z" fill="#424343"/>
    <path d="M33.1292 146.588H27.6899V151.999H33.1292V146.588Z" fill="#424343"/>
    <path d="M33.2073 141.1H27.6125V146.665H33.2073V141.1Z" fill="#424343"/>
    <path d="M33.1292 141.177H27.6899V146.588H33.1292V141.177Z" fill="#424343"/>
    <path d="M33.2073 135.767H27.6125V141.332H33.2073V135.767Z" fill="#262828"/>
    <path d="M33.2073 130.356H27.6125V135.921H33.2073V130.356Z" fill="#262828"/>
    <path d="M33.2073 124.945H27.6125V130.51H33.2073V124.945Z" fill="#262828"/>
    <path d="M33.1292 135.844H27.6899V141.255H33.1292V135.844Z" fill="#262828"/>
    <path d="M33.1292 130.433H27.6899V135.766H33.1292V130.433Z" fill="#262828"/>
    <path d="M33.1292 125.099H27.6899V130.51H33.1292V125.099Z" fill="#262828"/>
    <path d="M33.2073 119.611H27.6125V125.177H33.2073V119.611Z" fill="white"/>
    <path d="M33.1292 119.689H27.6899V125.099H33.1292V119.689Z" fill="white"/>
    <path d="M33.2073 114.201H27.6125V119.766H33.2073V114.201Z" fill="white"/>
    <path d="M33.1292 114.278H27.6899V119.689H33.1292V114.278Z" fill="white"/>
    <path d="M33.2073 108.867H27.6125V114.432H33.2073V108.867Z" fill="white"/>
    <path d="M33.1292 108.944H27.6899V114.278H33.1292V108.944Z" fill="white"/>
    <path d="M33.2073 103.456H27.6125V109.021H33.2073V103.456Z" fill="white"/>
    <path d="M33.1292 103.533H27.6899V108.944H33.1292V103.533Z" fill="white"/>
    <path d="M33.2073 98.1222H27.6125V103.688H33.2073V98.1222Z" fill="white"/>
    <path d="M33.1292 98.1995H27.6899V103.61H33.1292V98.1995Z" fill="white"/>
    <path d="M33.2073 92.7112H27.6125V98.2767H33.2073V92.7112Z" fill="white"/>
    <path d="M33.1292 92.7886H27.6899V98.1995H33.1292V92.7886Z" fill="white"/>
    <path d="M33.2073 87.3781H27.6125V92.9435H33.2073V87.3781Z" fill="white"/>
    <path d="M33.1292 87.455H27.6899V92.7886H33.1292V87.455Z" fill="white"/>
    <path d="M33.2073 81.9669H27.6125V87.5323H33.2073V81.9669Z" fill="#C5C5C5"/>
    <path d="M33.1292 82.0441H27.6899V125.099H33.1292V82.0441Z" fill="#C5C5C5"/>
    <path d="M33.2073 76.6337H27.6125V82.1991H33.2073V76.6337Z" fill="white"/>
    <path d="M33.1292 76.711H27.6899V82.1218H33.1292V76.711Z" fill="white"/>
    <path d="M33.2073 71.2228H27.6125V76.7882H33.2073V71.2228Z" fill="white"/>
    <path d="M33.1292 71.2997H27.6899V76.7106H33.1292V71.2997Z" fill="white"/>
    <path d="M33.2073 65.8892H27.6125V71.4546H33.2073V65.8892Z" fill="white"/>
    <path d="M33.1292 65.9665H27.6899V71.3H33.1292V65.9665Z" fill="white"/>
    <path d="M33.2073 60.4783H27.6125V66.0438H33.2073V60.4783Z" fill="white"/>
    <path d="M33.1292 60.5556H27.6899V65.9664H33.1292V60.5556Z" fill="white"/>
    <path d="M33.2073 38.9895H27.6125V44.5549H33.2073V38.9895Z" fill="#F57E77"/>
    <path d="M33.1292 39.0668H27.6899V44.4776H33.1292V39.0668Z" fill="#F57E77"/>
    <path d="M33.2073 33.5786H27.6125V39.144H33.2073V33.5786Z" fill="#3D041F"/>
    <path d="M33.1292 33.6558H27.6899V39.0667H33.1292V33.6558Z" fill="#3D041F"/>
    <path d="M33.2073 28.2454H27.6125V33.8108H33.2073V28.2454Z" fill="#3D041F"/>
    <path d="M33.1292 28.3226H27.6899V33.6562H33.1292V28.3226Z" fill="#3D041F"/>
    <path d="M33.2073 22.8344H27.6125V28.3998H33.2073V22.8344Z" fill="#621931"/>
    <path d="M33.1292 22.9116H27.6899V28.3225H33.1292V22.9116Z" fill="#621931"/>
    <path d="M33.2073 17.5013H27.6125V23.0668H33.2073V17.5013Z" fill="#621931"/>
    <path d="M33.1292 17.5786H27.6899V22.9894H33.1292V17.5786Z" fill="#621931"/>
    <path d="M33.2073 12.0904H27.6125V17.6558H33.2073V12.0904Z" fill="#621931"/>
    <path d="M33.1292 12.1672H27.6899V17.5781H33.1292V12.1672Z" fill="#621931"/>
    <path d="M27.8457 237.876H22.251V243.442H27.8457V237.876Z" fill="#391709"/>
    <path d="M27.7678 237.953H22.3285V243.364H27.7678V237.953Z" fill="#391709"/>
    <path d="M27.8457 232.465H22.251V238.031H27.8457V232.465Z" fill="#391709"/>
    <path d="M27.7678 232.543H22.3285V237.876H27.7678V232.543Z" fill="#482C02"/>
    <path d="M27.8457 227.132H22.251V232.697H27.8457V227.132Z" fill="#482C02"/>
    <path d="M27.7678 227.209H22.3285V232.62H27.7678V227.209Z" fill="#482C02"/>
    <path d="M27.8457 76.6337H22.251V82.1991H27.8457V76.6337Z" fill="#C5C5C5"/>
    <path d="M27.7678 76.711H22.3285V82.1218H27.7678V76.711Z" fill="#C5C5C5"/>
    <path d="M27.8457 71.2228H22.251V76.7882H27.8457V71.2228Z" fill="white"/>
    <path d="M27.7678 71.2997H22.3285V76.7106H27.7678V71.2997Z" fill="white"/>
    <path d="M27.8457 65.8892H22.251V71.4546H27.8457V65.8892Z" fill="white"/>
    <path d="M27.7678 65.9665H22.3285V71.3H27.7678V65.9665Z" fill="white"/>
    <path d="M27.8457 60.4783H22.251V66.0438H27.8457V60.4783Z" fill="white"/>
    <path d="M27.7678 60.5556H22.3285V65.9664H27.7678V60.5556Z" fill="white"/>
    <path d="M27.8457 33.5786H22.251V39.144H27.8457V33.5786Z" fill="#F57E77"/>
    <path d="M27.7678 33.6558H22.3285V39.0667H27.7678V33.6558Z" fill="#F57E77"/>
    <path d="M27.8457 28.2454H22.251V33.8108H27.8457V28.2454Z" fill="#FFE4CE"/>
    <path d="M27.7678 28.3226H22.3285V33.6562H27.7678V28.3226Z" fill="#FFE4CE"/>
    <path d="M27.8457 22.8344H22.251V28.3998H27.8457V22.8344Z" fill="#3D041F"/>
    <path d="M27.7678 22.9116H22.3285V28.3225H27.7678V22.9116Z" fill="#3D041F"/>
    <path d="M22.4064 237.876H16.8116V243.442H22.4064V237.876Z" fill="#391709"/>
    <path d="M22.2506 237.953H16.889V243.364H22.2506V237.953Z" fill="#391709"/>
    <path d="M22.4064 232.465H16.8116V238.031H22.4064V232.465Z" fill="#482C02"/>
    <path d="M22.2506 232.543H16.889V237.876H22.2506V232.543Z" fill="#482C02"/>
    <path d="M22.4064 227.132H16.8116V232.697H22.4064V227.132Z" fill="#391709"/>
    <path d="M22.2506 227.209H16.889V232.62H22.2506V227.209Z" fill="#482C02"/>
    <path d="M22.4064 76.6337H16.8116V82.1991H22.4064V76.6337Z" fill="white"/>
    <path d="M22.2506 76.711H16.889V82.1218H22.2506V76.711Z" fill="white"/>
    <path d="M22.4064 71.2228H16.8116V76.7882H22.4064V71.2228Z" fill="white"/>
    <path d="M22.2506 71.2997H16.889V76.7106H22.2506V71.2997Z" fill="white"/>
    <path d="M22.4064 65.8892H16.8116V71.4546H22.4064V65.8892Z" fill="white"/>
    <path d="M22.2506 65.9665H16.889V71.3H22.2506V65.9665Z" fill="white"/>
    <path d="M17.0449 237.876H11.4502V243.442H17.0449V237.876Z" fill="#391709"/>
    <path d="M16.967 237.953H11.5277V243.364H16.967V237.953Z" fill="#391709"/>
    <path d="M17.0449 232.465H11.4502V238.031H17.0449V232.465Z" fill="#482C02"/>
    <path d="M16.967 232.543H11.5277V237.876H16.967V232.543Z" fill="#482C02"/>
    <path d="M17.0449 76.6337H11.4502V82.1991H17.0449V76.6337Z" fill="white"/>
    <path d="M16.967 76.711H11.5277V82.1218H16.967V76.711Z" fill="white"/>
    <path d="M11.4499 59.8065H0.650513V82.122H11.4499V59.8065Z" fill="white"/>
    <path d="M92.4157 58.9796H81.6163V82.2249H92.4157V58.9796Z" fill="white"/>
    <path d="M17.0449 71.2228H11.4502V76.7882H17.0449V71.2228Z" fill="white"/>
    <path d="M16.967 71.2997H11.5277V76.7106H16.967V71.2997Z" fill="white"/>
    <path d="M17.0449 65.8892H11.4502V71.4546H17.0449V65.8892Z" fill="white"/>
    <path d="M16.967 65.9665H11.5277V71.3H16.967V65.9665Z" fill="white"/>
    <path d="M11.6055 237.876H6.01074V243.442H11.6055V237.876Z" fill="#391709"/>
    <path d="M11.5277 237.953H6.08838V243.364H11.5277V237.953Z" fill="#391709"/>
    <path d="M16.8904 11.1088L11.5288 11.1088L11.5288 5.69793L16.8904 5.69793L16.8904 11.1088Z" fill="#FFE4CE"/>
    <path d="M17.046 16.5972L11.4513 16.5972L11.4513 11.0318L17.046 11.0318L17.046 16.5972Z" fill="#F57E77"/>
    <path d="M11.6065 5.77533L6.16724 5.77533L6.16724 0.441799L11.6065 0.441798L11.6065 5.77533Z" fill="#FFE4CE"/>
    <path d="M11.6065 11.1088L6.16724 11.1088L6.16724 5.69793L11.6065 5.69793L11.6065 11.1088Z" fill="#FFE4CE"/>
    <path d="M11.6847 16.5972L6.08997 16.5972L6.08997 11.0318L11.6847 11.0318L11.6847 16.5972Z" fill="#FFE4CE"/>
    <path d="M11.6065 16.5197L6.16724 16.5197L6.16724 11.1089L11.6065 11.1089L11.6065 16.5197Z" fill="#FFE4CE"/>
    <path d="M11.6847 21.9302L6.08997 21.9302L6.08997 16.3648L11.6847 16.3648L11.6847 21.9302Z" fill="#F57E77"/>
    <path d="M11.6065 21.8531L6.16724 21.8531L6.16724 16.4423L11.6065 16.4423L11.6065 21.8531Z" fill="#F57E77"/>
    <path d="M11.6847 27.3411L6.08997 27.3411L6.08997 21.7757L11.6847 21.7757L11.6847 27.3411Z" fill="#262828"/>
    <path d="M11.6847 31.8204L6.24524 31.8204L6.24524 21.7757L11.6847 21.7757L11.6847 31.8204Z" fill="#C5C5C5"/>
    <path d="M11.6847 32.7525L6.08997 32.7525L6.08997 27.1871L11.6847 27.1871L11.6847 32.7525Z" fill="#C5C5C5"/>
    <path d="M11.6065 32.5974L6.16724 32.5974L6.16724 27.1865L11.6065 27.1865L11.6065 32.5974Z" fill="#C5C5C5"/>
    <path d="M11.6847 38.0854L6.08997 38.0854L6.08997 32.52L11.6847 32.52L11.6847 38.0854Z" fill="#C5C5C5"/>
    <path d="M11.6065 38.0083L6.16724 38.0083L6.16724 32.5975L11.6065 32.5975L11.6065 38.0083Z" fill="#C5C5C5"/>
    <path d="M11.6847 43.4964L6.08997 43.4964L6.08997 37.931L11.6847 37.931L11.6847 43.4964Z" fill="#C5C5C5"/>
    <path d="M11.6065 43.4193L6.16724 43.4193L6.16724 38.0085L11.6065 38.0085L11.6065 43.4193Z" fill="#C5C5C5"/>
    <path d="M11.6847 48.8297L6.08997 48.8297L6.08997 43.2643L11.6847 43.2643L11.6847 48.8297Z" fill="#C5C5C5"/>
    <path d="M11.6065 48.7527L6.16724 48.7527L6.16724 43.4192L11.6065 43.4192L11.6065 48.7527Z" fill="#C5C5C5"/>
    <path d="M11.6847 54.2407L6.08997 54.2407L6.08997 48.6752L11.6847 48.6752L11.6847 54.2407Z" fill="#C5C5C5"/>
    <path d="M11.6065 54.1636L6.16724 54.1636L6.16724 48.7527L11.6065 48.7527L11.6065 54.1636Z" fill="#C5C5C5"/>
    <path d="M11.6847 59.5745L6.08997 59.5745L6.08997 54.0091L11.6847 54.0091L11.6847 59.5745Z" fill="#C5C5C5"/>
    <path d="M11.6065 59.8065L6.16724 59.8065L6.16724 54.0861L11.6065 54.0861L11.6065 59.8065Z" fill="#C5C5C5"/>
    <path d="M6.16721 5.77533L0.727905 5.77533L0.727905 0.441799L6.16721 0.441798L6.16721 5.77533Z" fill="#FFE4CE"/>
    <path d="M6.24522 11.1859L0.650513 11.1859L0.650512 5.62049L6.24522 5.62049L6.24522 11.1859Z" fill="#FFE4CE"/>
    <path d="M6.24522 16.5972L0.650513 16.5972L0.650512 11.0318L6.24522 11.0318L6.24522 16.5972Z" fill="#FFE4CE"/>
    <path d="M6.16721 16.5197L0.727905 16.5197L0.727905 11.1089L6.16721 11.1089L6.16721 16.5197Z" fill="#FFE4CE"/>
    <path d="M6.24522 21.9302L0.650513 21.9302L0.650512 16.3648L6.24522 16.3648L6.24522 21.9302Z" fill="#FFE4CE"/>
    <path d="M6.16721 21.8531L0.727905 21.8531L0.727905 16.4423L6.16721 16.4423L6.16721 21.8531Z" fill="#FFE4CE"/>
    <path d="M6.24522 27.3411L0.650513 27.3411L0.650512 21.7757L6.24522 21.7757L6.24522 27.3411Z" fill="#391709"/>
    <path d="M6.24524 32.1502L0.650513 32.1502L0.650512 21.7757L6.24524 21.7757L6.24524 32.1502Z" fill="white"/>
    <path d="M6.24522 32.7525L0.650513 32.7525L0.650512 27.1871L6.24522 27.1871L6.24522 32.7525Z" fill="white"/>
    <path d="M6.16721 32.5974L0.727905 32.5974L0.727905 27.1865L6.16721 27.1865L6.16721 32.5974Z" fill="white"/>
    <path d="M6.24522 38.0854L0.650513 38.0854L0.650512 32.52L6.24522 32.52L6.24522 38.0854Z" fill="white"/>
    <path d="M6.16721 38.0083L0.727905 38.0083L0.727905 32.5975L6.16721 32.5975L6.16721 38.0083Z" fill="white"/>
    <path d="M6.24522 43.4964L0.650513 43.4964L0.650512 37.931L6.24522 37.931L6.24522 43.4964Z" fill="white"/>
    <path d="M6.16721 43.4193L0.727905 43.4193L0.727905 38.0085L6.16721 38.0085L6.16721 43.4193Z" fill="white"/>
    <path d="M6.24522 48.8297L0.650513 48.8297L0.650512 43.2643L6.24522 43.2643L6.24522 48.8297Z" fill="white"/>
    <path d="M6.16721 48.7527L0.727905 48.7527L0.727905 43.4192L6.16721 43.4192L6.16721 48.7527Z" fill="white"/>
    <path d="M6.24522 54.2407L0.650513 54.2407L0.650512 48.6752L6.24522 48.6752L6.24522 54.2407Z" fill="white"/>
    <path d="M6.16721 54.1636L0.727905 54.1636L0.727905 48.7527L6.16721 48.7527L6.16721 54.1636Z" fill="white"/>
    <path d="M6.24522 59.5746L0.650513 59.5746L0.650512 54.0092L6.24522 54.0092L6.24522 59.5746Z" fill="white"/>
    <path d="M6.16721 63.564L0.727905 63.564L0.727904 54.0861L6.16721 54.0861L6.16721 63.564Z" fill="white"/>
    <path d="M76.4106 12.1289L81.7722 12.1289L81.7722 6.71807L76.4106 6.71807L76.4106 12.1289Z" fill="#FFE4CE"/>
    <path d="M76.2549 17.6172L81.8496 17.6172L81.8496 12.0518L76.2549 12.0518L76.2549 17.6172Z" fill="#F57E77"/>
    <path d="M81.6944 6.79547L87.1337 6.79547L87.1337 1.46194L81.6944 1.46194L81.6944 6.79547Z" fill="#FFE4CE"/>
    <path d="M81.6944 12.1289L87.1337 12.1289L87.1337 6.71807L81.6944 6.71807L81.6944 12.1289Z" fill="#FFE4CE"/>
    <path d="M81.6165 17.6172L87.2112 17.6172L87.2112 12.0518L81.6165 12.0518L81.6165 17.6172Z" fill="#FFE4CE"/>
    <path d="M81.6944 17.5398L87.1337 17.5398L87.1337 12.129L81.6944 12.129L81.6944 17.5398Z" fill="#FFE4CE"/>
    <path d="M81.6165 22.9503L87.2112 22.9503L87.2112 17.3849L81.6165 17.3849L81.6165 22.9503Z" fill="#F57E77"/>
    <path d="M81.6944 22.8732L87.1337 22.8732L87.1337 17.4623L81.6944 17.4623L81.6944 22.8732Z" fill="#F57E77"/>
    <path d="M81.6165 28.3613L87.2112 28.3613L87.2112 22.7958L81.6165 22.7958L81.6165 28.3613Z" fill="#262828"/>
    <path d="M81.6165 30.7657L87.1337 30.7657L87.1337 22.7958L81.6165 22.7958L81.6165 30.7657Z" fill="#C5C5C5"/>
    <path d="M81.6165 33.7726L87.2112 33.7726L87.2112 28.2072L81.6165 28.2072L81.6165 33.7726Z" fill="#C5C5C5"/>
    <path d="M81.6944 33.6176L87.1337 33.6176L87.1337 28.2068L81.6944 28.2068L81.6944 33.6176Z" fill="#C5C5C5"/>
    <path d="M81.6165 39.1056L87.2112 39.1056L87.2112 33.5402L81.6165 33.5402L81.6165 39.1056Z" fill="#C5C5C5"/>
    <path d="M81.6944 39.0285L87.1337 39.0285L87.1337 33.6177L81.6944 33.6177L81.6944 39.0285Z" fill="#C5C5C5"/>
    <path d="M81.6165 44.5165L87.2112 44.5165L87.2112 38.9511L81.6165 38.9511L81.6165 44.5165Z" fill="#C5C5C5"/>
    <path d="M81.6944 44.4395L87.1337 44.4395L87.1337 39.0286L81.6944 39.0286L81.6944 44.4395Z" fill="#C5C5C5"/>
    <path d="M81.6165 49.8499L87.2112 49.8499L87.2112 44.2845L81.6165 44.2845L81.6165 49.8499Z" fill="#C5C5C5"/>
    <path d="M81.6944 49.7729L87.1337 49.7729L87.1337 44.4393L81.6944 44.4393L81.6944 49.7729Z" fill="#C5C5C5"/>
    <path d="M81.6165 55.2608L87.2112 55.2608L87.2112 49.6954L81.6165 49.6954L81.6165 55.2608Z" fill="#C5C5C5"/>
    <path d="M81.6944 55.1837L87.1337 55.1837L87.1337 49.7729L81.6944 49.7729L81.6944 55.1837Z" fill="#C5C5C5"/>
    <path d="M81.6165 60.5947L87.2112 60.5947L87.2112 55.0292L81.6165 55.0292L81.6165 60.5947Z" fill="#C5C5C5"/>
    <path d="M81.6944 60.517L87.1337 60.517L87.1337 55.1062L81.6944 55.1062L81.6944 60.517Z" fill="#C5C5C5"/>
    <path d="M87.1337 6.79547L92.573 6.79547L92.573 1.46194L87.1337 1.46194L87.1337 6.79547Z" fill="#FFE4CE"/>
    <path d="M87.0558 12.2061L92.6505 12.2061L92.6505 6.64063L87.0558 6.64063L87.0558 12.2061Z" fill="#FFE4CE"/>
    <path d="M87.0558 17.6172L92.6505 17.6172L92.6505 12.0518L87.0558 12.0518L87.0558 17.6172Z" fill="#FFE4CE"/>
    <path d="M87.1337 17.5398L92.573 17.5398L92.573 12.129L87.1337 12.129L87.1337 17.5398Z" fill="#FFE4CE"/>
    <path d="M87.0558 22.9503L92.6505 22.9503L92.6505 17.3849L87.0558 17.3849L87.0558 22.9503Z" fill="#FFE4CE"/>
    <path d="M87.1337 22.8732L92.573 22.8732L92.573 17.4623L87.1337 17.4623L87.1337 22.8732Z" fill="#FFE4CE"/>
    <path d="M87.0558 28.3613L92.6505 28.3613L92.6505 22.7958L87.0558 22.7958L87.0558 28.3613Z" fill="#391709"/>
    <path d="M87.0558 32.1502L92.6505 32.1502L92.6505 22.7958L87.0558 22.7958L87.0558 32.1502Z" fill="white"/>
    <path d="M87.0558 33.7726L92.6505 33.7726L92.6505 28.2072L87.0558 28.2072L87.0558 33.7726Z" fill="white"/>
    <path d="M87.1337 33.6176L92.573 33.6176L92.573 28.2068L87.1337 28.2068L87.1337 33.6176Z" fill="white"/>
    <path d="M87.0558 39.1056L92.6505 39.1056L92.6505 33.5402L87.0558 33.5402L87.0558 39.1056Z" fill="white"/>
    <path d="M87.1337 39.0285L92.573 39.0285L92.573 33.6177L87.1337 33.6177L87.1337 39.0285Z" fill="white"/>
    <path d="M87.0558 44.5165L92.6505 44.5165L92.6505 38.9511L87.0558 38.9511L87.0558 44.5165Z" fill="white"/>
    <path d="M87.1337 44.4395L92.573 44.4395L92.573 39.0286L87.1337 39.0286L87.1337 44.4395Z" fill="white"/>
    <path d="M87.0558 49.8499L92.6505 49.8499L92.6505 44.2845L87.0558 44.2845L87.0558 49.8499Z" fill="white"/>
    <path d="M87.1337 49.7729L92.573 49.7729L92.573 44.4393L87.1337 44.4393L87.1337 49.7729Z" fill="white"/>
    <path d="M87.0558 55.2608L92.6505 55.2608L92.6505 49.6954L87.0558 49.6954L87.0558 55.2608Z" fill="white"/>
    <path d="M87.1337 55.1837L92.573 55.1837L92.573 49.7729L87.1337 49.7729L87.1337 55.1837Z" fill="white"/>
    <path d="M87.0558 60.5946L92.6505 60.5946L92.6505 55.0292L87.0558 55.0292L87.0558 60.5946Z" fill="white"/>
    <path d="M87.1337 60.517L92.573 60.517L92.573 55.1062L87.1337 55.1062L87.1337 60.517Z" fill="white"/>
    <path d="M22.4063 76.8141H16.967V82.2249H22.4063V76.8141Z" fill="#C5C5C5"/>
    <path d="M60.4039 60.4785H32.8965V66.044H60.4039V60.4785Z" fill="white"/>
    <path d="M49.3705 60.5562H43.9312V76.5567H49.3705V60.5562Z" fill="white"/>
    <path d="M54.7315 60.4785H49.2922V71.3773H54.7315V60.4785Z" fill="white"/>
    <path d="M44.0085 60.4785H38.5692V71.3773H44.0085V60.4785Z" fill="white"/>
    <path d="M49.448 71.4547H44.0087V125.177H49.448V71.4547Z" fill="#C5C5C5"/>
    <path d="M38.6466 60.4783H33.2073V65.8892H38.6466V60.4783Z" fill="#C5C5C5"/>
    <path d="M44.0869 66.0438H38.6476V71.4546H44.0869V66.0438Z" fill="#C5C5C5"/>
    <path d="M54.8868 66.044H49.4475V71.4548H54.8868V66.044Z" fill="#C5C5C5"/>
    <path d="M60.2484 60.4785H54.8091V65.8893H60.2484V60.4785Z" fill="#C5C5C5"/>
</svg>
