<svg width="121" height="235" viewBox="0 0 121 235" fill="none" xmlns="http://www.w3.org/2000/svg">
    <path d="M27.6096 224.366L32.7617 221.927L35.1919 227.098L30.0398 229.537L27.6096 224.366Z" fill="#0A0F1A"/>
    <path d="M32.6181 221.995L37.7703 219.556L40.2005 224.726L35.0483 227.165L32.6181 221.995Z" fill="#0A0F1A"/>
    <path d="M30.2552 216.967L35.4073 214.528L37.8375 219.699L32.6854 222.138L30.2552 216.967Z" fill="#111724"/>
    <path d="M37.5565 219.657L42.7086 217.218L45.1388 222.389L39.9867 224.828L37.5565 219.657Z" fill="#0A0F1A"/>
    <path d="M35.1935 214.629L40.3456 212.19L42.7758 217.361L37.6237 219.8L35.1935 214.629Z" fill="#111724"/>
    <path d="M32.8642 209.675L38.0164 207.236L40.4465 212.407L35.2944 214.846L32.8642 209.675Z" fill="#111724"/>
    <path d="M42.6698 217.324L47.6788 214.952L50.0415 219.979L45.0325 222.351L42.6698 217.324Z" fill="#0A0F1A"/>
    <path d="M40.2021 212.258L45.3542 209.819L47.7844 214.99L42.6323 217.429L40.2021 212.258Z" fill="#111724"/>
    <path d="M37.8735 207.304L43.0256 204.865L45.4558 210.035L40.3037 212.474L37.8735 207.304Z" fill="#111724"/>
    <path d="M47.5744 214.914L52.7266 212.475L55.1568 217.646L50.0046 220.085L47.5744 214.914Z" fill="#0A0F1A"/>
    <path d="M45.2114 209.887L50.3635 207.448L52.7937 212.619L47.6416 215.058L45.2114 209.887Z" fill="#111724"/>
    <path d="M42.8822 204.932L48.0343 202.493L50.4645 207.664L45.3124 210.103L42.8822 204.932Z" fill="#111724"/>
    <path d="M40.5191 199.905L45.6713 197.466L48.1014 202.637L42.9493 205.076L40.5191 199.905Z" fill="#111724"/>
    <path d="M38.1904 194.949L43.3425 192.51L45.7727 197.681L40.6206 200.12L38.1904 194.949Z" fill="#243454"/>
    <path d="M35.8279 189.923L40.98 187.484L43.4102 192.655L38.258 195.094L35.8279 189.923Z" fill="#243454"/>
    <path d="M33.4989 184.967L38.651 182.528L41.0812 187.699L35.9291 190.138L33.4989 184.967Z" fill="#243454"/>
    <path d="M31.1371 179.94L36.2892 177.501L38.7194 182.672L33.5673 185.111L31.1371 179.94Z" fill="#243454"/>
    <path d="M28.7743 174.913L33.9264 172.474L36.3566 177.644L31.2045 180.083L28.7743 174.913Z" fill="#243454"/>
    <path d="M23.4359 163.556L28.588 161.117L34.0269 172.689L28.8747 175.128L23.4359 163.556Z" fill="#243454"/>
    <path d="M52.5113 212.577L57.6635 210.138L60.0936 215.309L54.9415 217.748L52.5113 212.577Z" fill="#0A0F1A"/>
    <path d="M50.1483 207.55L55.3004 205.111L57.7306 210.281L52.5785 212.72L50.1483 207.55Z" fill="#111724"/>
    <path d="M47.8198 202.595L52.9719 200.156L55.4021 205.327L50.25 207.766L47.8198 202.595Z" fill="#111724"/>
    <path d="M45.4568 197.568L50.6089 195.129L53.0391 200.299L47.8869 202.738L45.4568 197.568Z" fill="#111724"/>
    <path d="M43.1278 192.612L48.2799 190.173L50.7101 195.344L45.558 197.783L43.1278 192.612Z" fill="#243454"/>
    <path d="M40.7655 187.585L45.9176 185.146L48.3478 190.317L43.1957 192.756L40.7655 187.585Z" fill="#243454"/>
    <path d="M38.4364 182.63L43.5885 180.191L46.0187 185.362L40.8666 187.801L38.4364 182.63Z" fill="#243454"/>
    <path d="M36.0736 177.602L41.2257 175.163L43.6559 180.334L38.5038 182.773L36.0736 177.602Z" fill="#243454"/>
    <path d="M33.711 172.575L38.8632 170.136L41.2933 175.307L36.1412 177.746L33.711 172.575Z" fill="#243454"/>
    <path d="M27.3308 158.998L32.4829 156.559L38.9654 170.352L33.8133 172.791L27.3308 158.998Z" fill="#243454"/>
    <path d="M57.5207 210.206L62.6729 207.767L65.103 212.938L59.9509 215.377L57.5207 210.206Z" fill="#0A0F1A"/>
    <path d="M55.1578 205.178L60.3099 202.739L62.7401 207.91L57.588 210.349L55.1578 205.178Z" fill="#111724"/>
    <path d="M52.9335 200.262L57.9425 197.891L60.3052 202.918L55.2962 205.29L52.9335 200.262Z" fill="#111724"/>
    <path d="M50.4664 195.196L55.6185 192.757L58.0487 197.928L52.8966 200.367L50.4664 195.196Z" fill="#111724"/>
    <path d="M48.1374 190.241L53.2896 187.802L55.7197 192.972L50.5676 195.411L48.1374 190.241Z" fill="#131E33"/>
    <path d="M45.7749 185.214L50.927 182.775L53.3572 187.946L48.2051 190.385L45.7749 185.214Z" fill="#131E33"/>
    <path d="M43.4459 180.258L48.598 177.819L51.0282 182.99L45.8761 185.429L43.4459 180.258Z" fill="#131E33"/>
    <path d="M41.083 175.231L46.2351 172.792L48.6653 177.963L43.5132 180.402L41.083 175.231Z" fill="#131E33"/>
    <path d="M38.7204 170.204L43.8726 167.765L46.3027 172.936L41.1506 175.375L38.7204 170.204Z" fill="#131E33"/>
    <path d="M30.0737 151.671L35.1635 149.261L44.1107 168.299L39.021 170.708L30.0737 151.671Z" fill="#131E33"/>
    <path d="M25.7671 158.6L30.9377 160.999L28.5472 166.188L23.3766 163.789L25.7671 158.6Z" fill="#243454"/>
    <path d="M25.8056 158.705L30.7607 161.004L28.4698 165.977L23.5146 163.678L25.8056 158.705Z" fill="#243454"/>
    <path d="M28.0574 153.626L33.228 156.025L30.8374 161.215L25.6668 158.815L28.0574 153.626Z" fill="#243454"/>
    <path d="M28.0963 153.732L33.0515 156.031L30.7273 161.076L25.7722 158.777L28.0963 153.732Z" fill="#243454"/>
    <path d="M30.3824 148.581L35.553 150.98L33.1624 156.17L27.9918 153.771L30.3824 148.581Z" fill="#243454"/>
    <path d="M30.4203 148.687L35.3755 150.986L33.0513 156.031L28.0961 153.732L30.4203 148.687Z" fill="#243454"/>
    <path d="M32.6731 143.608L37.8438 146.007L35.4532 151.196L30.2826 148.797L32.6731 143.608Z" fill="#243454"/>
    <path d="M32.7121 143.713L37.6672 146.013L35.3431 151.058L30.3879 148.759L32.7121 143.713Z" fill="#243454"/>
    <path d="M34.9972 138.563L40.1678 140.962L37.7773 146.151L32.6067 143.752L34.9972 138.563Z" fill="#243454"/>
    <path d="M35.0359 138.668L39.9911 140.967L37.7001 145.94L32.7449 143.641L35.0359 138.668Z" fill="#243454"/>
    <path d="M37.2881 133.589L42.4587 135.989L40.0682 141.178L34.8975 138.779L37.2881 133.589Z" fill="#243454"/>
    <path d="M37.3271 133.695L42.2822 135.994L39.9581 141.04L35.0029 138.74L37.3271 133.695Z" fill="#243454"/>
    <path d="M39.613 128.544L44.7836 130.943L42.393 136.132L37.2224 133.733L39.613 128.544Z" fill="#243454"/>
    <path d="M39.6512 128.649L44.6063 130.949L42.2821 135.994L37.327 133.695L39.6512 128.649Z" fill="#243454"/>
    <path d="M41.903 123.571L47.0736 125.97L44.683 131.16L39.5124 128.76L41.903 123.571Z" fill="#131E33"/>
    <path d="M41.9419 123.677L46.8971 125.976L44.5729 131.021L39.6177 128.722L41.9419 123.677Z" fill="#131E33"/>
    <path d="M30.7218 160.898L35.8925 163.297L33.5019 168.487L28.3313 166.087L30.7218 160.898Z" fill="#243454"/>
    <path d="M30.7604 161.004L35.7874 163.337L33.4964 168.31L28.4694 165.978L30.7604 161.004Z" fill="#243454"/>
    <path d="M33.0129 155.925L38.1835 158.324L35.7929 163.514L30.6223 161.115L33.0129 155.925Z" fill="#243454"/>
    <path d="M33.0511 156.031L38.0781 158.364L35.7539 163.409L30.727 161.076L33.0511 156.031Z" fill="#243454"/>
    <path d="M35.3376 150.88L40.5082 153.28L38.1176 158.469L32.947 156.07L35.3376 150.88Z" fill="#243454"/>
    <path d="M35.3752 150.986L40.4022 153.319L38.078 158.364L33.0511 156.031L35.3752 150.986Z" fill="#243454"/>
    <path d="M37.6277 145.907L42.7983 148.306L40.4078 153.496L35.2371 151.096L37.6277 145.907Z" fill="#243454"/>
    <path d="M37.6671 146.013L42.6941 148.345L40.3699 153.391L35.3429 151.058L37.6671 146.013Z" fill="#243454"/>
    <path d="M39.9527 140.862L45.1233 143.261L42.7327 148.451L37.5621 146.051L39.9527 140.862Z" fill="#243454"/>
    <path d="M39.991 140.967L45.0179 143.3L42.727 148.273L37.7 145.94L39.991 140.967Z" fill="#243454"/>
    <path d="M42.2426 135.889L47.4132 138.288L45.0226 143.477L39.852 141.078L42.2426 135.889Z" fill="#243454"/>
    <path d="M42.282 135.994L47.309 138.327L44.9848 143.372L39.9578 141.04L42.282 135.994Z" fill="#243454"/>
    <path d="M44.5675 130.843L49.7382 133.242L47.3476 138.431L42.177 136.032L44.5675 130.843Z" fill="#243454"/>
    <path d="M44.606 130.949L49.6329 133.281L47.3088 138.326L42.2818 135.994L44.606 130.949Z" fill="#243454"/>
    <path d="M46.8586 125.87L52.0292 128.27L49.6386 133.459L44.468 131.06L46.8586 125.87Z" fill="#243454"/>
    <path d="M46.8968 125.975L51.9238 128.308L49.5997 133.353L44.5727 131.02L46.8968 125.975Z" fill="#243454"/>
    <path d="M49.1825 120.825L54.3531 123.224L51.9626 128.414L46.7919 126.015L49.1825 120.825Z" fill="#243454"/>
    <path d="M49.2208 120.93L54.2478 123.263L51.9568 128.236L46.9298 125.903L49.2208 120.93Z" fill="#243454"/>
    <path d="M38.0396 158.258L43.2102 160.657L40.8196 165.846L35.649 163.447L38.0396 158.258Z" fill="#131E33"/>
    <path d="M38.0778 158.363L43.1047 160.695L40.7806 165.741L35.7536 163.408L38.0778 158.363Z" fill="#131E33"/>
    <path d="M40.3644 153.213L45.535 155.612L43.1445 160.802L37.9738 158.402L40.3644 153.213Z" fill="#131E33"/>
    <path d="M40.4018 153.318L45.4288 155.65L43.1047 160.696L38.0777 158.363L40.4018 153.318Z" fill="#131E33"/>
    <path d="M42.6553 148.239L47.8259 150.639L45.4353 155.828L40.2647 153.429L42.6553 148.239Z" fill="#131E33"/>
    <path d="M42.6936 148.344L47.7206 150.677L45.3964 155.722L40.3694 153.39L42.6936 148.344Z" fill="#131E33"/>
    <path d="M44.9793 143.194L50.1499 145.594L47.7593 150.783L42.5887 148.384L44.9793 143.194Z" fill="#131E33"/>
    <path d="M45.0177 143.299L50.0447 145.632L47.7537 150.605L42.7267 148.272L45.0177 143.299Z" fill="#131E33"/>
    <path d="M47.2701 138.221L52.4407 140.62L50.0501 145.81L44.8795 143.41L47.2701 138.221Z" fill="#131E33"/>
    <path d="M49.595 133.176L54.7656 135.575L52.375 140.765L47.2044 138.365L49.595 133.176Z" fill="#243454"/>
    <path d="M49.6327 133.281L54.6597 135.614L52.3355 140.659L47.3085 138.326L49.6327 133.281Z" fill="#243454"/>
    <path d="M51.885 128.203L57.0557 130.602L54.6651 135.791L49.4945 133.392L51.885 128.203Z" fill="#243454"/>
    <path d="M51.9235 128.308L56.9504 130.64L54.6263 135.685L49.5993 133.353L51.9235 128.308Z" fill="#243454"/>
    <path d="M54.2091 123.158L59.3798 125.557L56.9892 130.746L51.8186 128.347L54.2091 123.158Z" fill="#243454"/>
    <path d="M54.2477 123.263L59.2747 125.595L56.9837 130.568L51.9567 128.236L54.2477 123.263Z" fill="#243454"/>
    <path d="M56.5338 118.112L61.7046 120.511L59.3135 125.7L54.1427 123.302L56.5338 118.112Z" fill="#243454"/>
    <path d="M50.1688 132.116L55.1958 134.449L50.0106 145.704L44.9836 143.372L50.1688 132.116Z" fill="#131E33"/>
    <path d="M72.5885 159.837L77.6709 157.256L80.2424 162.357L75.1601 164.938L72.5885 159.837Z" fill="#243454"/>
    <path d="M72.6946 159.873L77.5657 157.4L82.0792 166.352L77.2081 168.826L72.6946 159.873Z" fill="#243454"/>
    <path d="M70.1243 154.949L75.2067 152.368L77.7782 157.469L72.6959 160.05L70.1243 154.949Z" fill="#243454"/>
    <path d="M70.2301 154.984L75.1007 152.51L77.6008 157.469L72.7302 159.943L70.2301 154.984Z" fill="#243454"/>
    <path d="M67.6236 149.989L72.7059 147.408L75.2775 152.508L70.1951 155.089L67.6236 149.989Z" fill="#243454"/>
    <path d="M67.7299 150.024L72.6005 147.551L75.1006 152.51L70.23 154.983L67.7299 150.024Z" fill="#243454"/>
    <path d="M65.1592 145.1L70.2416 142.52L72.8131 147.62L67.7308 150.201L65.1592 145.1Z" fill="#243454"/>
    <path d="M65.265 145.135L70.1356 142.662L72.6357 147.621L67.7651 150.094L65.265 145.135Z" fill="#243454"/>
    <path d="M62.6589 140.141L67.7412 137.56L70.3127 142.661L65.2304 145.242L62.6589 140.141Z" fill="#243454"/>
    <path d="M62.7647 140.175L67.6353 137.702L70.0996 142.59L65.2291 145.063L62.7647 140.175Z" fill="#243454"/>
    <path d="M60.194 135.252L65.2764 132.671L67.8479 137.772L62.7656 140.352L60.194 135.252Z" fill="#243454"/>
    <path d="M60.3006 135.287L65.1711 132.813L67.6713 137.772L62.8007 140.246L60.3006 135.287Z" fill="#243454"/>
    <path d="M57.693 130.292L62.7754 127.711L65.3469 132.812L60.2646 135.392L57.693 130.292Z" fill="#243454"/>
    <path d="M57.7995 130.328L62.67 127.854L65.1702 132.813L60.2996 135.286L57.7995 130.328Z" fill="#243454"/>
    <path d="M55.2288 125.403L60.3112 122.823L62.8827 127.923L57.8003 130.504L55.2288 125.403Z" fill="#131E33"/>
    <path d="M55.3346 125.438L60.2052 122.965L62.7053 127.924L57.8347 130.397L55.3346 125.438Z" fill="#131E33"/>
    <path d="M77.4594 157.363L82.5417 154.782L85.1133 159.883L80.0309 162.464L77.4594 157.363Z" fill="#243454"/>
    <path d="M77.5653 157.4L82.507 154.89L90.5551 170.853L85.6134 173.363L77.5653 157.4Z" fill="#243454"/>
    <path d="M74.995 152.475L80.0774 149.894L82.6489 154.995L77.5666 157.575L74.995 152.475Z" fill="#243454"/>
    <path d="M75.1008 152.51L80.042 150.001L82.5421 154.96L77.6009 157.469L75.1008 152.51Z" fill="#243454"/>
    <path d="M72.4949 147.515L77.5773 144.934L80.1488 150.035L75.0665 152.616L72.4949 147.515Z" fill="#243454"/>
    <path d="M72.6006 147.551L77.5417 145.042L80.0419 150.001L75.1007 152.51L72.6006 147.551Z" fill="#243454"/>
    <path d="M70.0298 142.626L75.1122 140.046L77.6837 145.146L72.6014 147.727L70.0298 142.626Z" fill="#243454"/>
    <path d="M70.1365 142.662L75.0776 140.152L77.5777 145.111L72.6366 147.621L70.1365 142.662Z" fill="#243454"/>
    <path d="M67.5297 137.667L72.6121 135.086L75.1836 140.187L70.1012 142.768L67.5297 137.667Z" fill="#243454"/>
    <path d="M67.6354 137.702L72.5765 135.192L75.0409 140.08L70.0998 142.59L67.6354 137.702Z" fill="#243454"/>
    <path d="M65.0646 132.779L70.147 130.198L72.7185 135.298L67.6362 137.879L65.0646 132.779Z" fill="#243454"/>
    <path d="M65.1714 132.813L70.1125 130.304L72.6127 135.263L67.6715 137.772L65.1714 132.813Z" fill="#243454"/>
    <path d="M62.5636 127.818L67.646 125.237L70.2175 130.338L65.1352 132.919L62.5636 127.818Z" fill="#243454"/>
    <path d="M62.6703 127.854L67.6115 125.345L70.1116 130.304L65.1704 132.813L62.6703 127.854Z" fill="#243454"/>
    <path d="M60.0994 122.93L65.1818 120.349L67.7533 125.45L62.6709 128.031L60.0994 122.93Z" fill="#243454"/>
    <path d="M60.2053 122.965L65.1465 120.456L67.6466 125.414L62.7054 127.924L60.2053 122.965Z" fill="#243454"/>
    <path d="M57.5984 117.97L62.6808 115.389L65.2523 120.49L60.17 123.071L57.5984 117.97Z" fill="#243454"/>
    <path d="M57.6156 117.963L62.5568 115.454L65.0212 120.342L60.08 122.851L57.6156 117.963Z" fill="#243454"/>
    <path d="M82.4019 154.854L87.4847 152.273L91.5244 160.286L86.4415 162.867L82.4019 154.854Z" fill="#131E33"/>
    <path d="M79.9364 149.965L85.0188 147.384L87.5903 152.485L82.508 155.065L79.9364 149.965Z" fill="#131E33"/>
    <path d="M80.0421 150L84.9833 147.491L87.4834 152.45L82.5422 154.959L80.0421 150Z" fill="#131E33"/>
    <path d="M77.4371 145.006L82.5194 142.425L85.0909 147.525L80.0086 150.106L77.4371 145.006Z" fill="#131E33"/>
    <path d="M77.5419 145.042L82.483 142.532L84.9831 147.491L80.042 150.001L77.5419 145.042Z" fill="#131E33"/>
    <path d="M74.9712 140.117L80.0536 137.536L82.6251 142.637L77.5428 145.218L74.9712 140.117Z" fill="#131E33"/>
    <path d="M75.0779 140.152L80.019 137.642L82.5192 142.601L77.578 145.111L75.0779 140.152Z" fill="#131E33"/>
    <path d="M72.471 135.158L77.5533 132.577L80.1249 137.678L75.0425 140.258L72.471 135.158Z" fill="#131E33"/>
    <path d="M72.5768 135.192L77.5179 132.683L79.9823 137.571L75.0412 140.08L72.5768 135.192Z" fill="#131E33"/>
    <path d="M70.006 130.269L75.0884 127.688L77.6599 132.788L72.5776 135.369L70.006 130.269Z" fill="#131E33"/>
    <path d="M70.1118 130.304L75.053 127.795L77.5531 132.754L72.6119 135.263L70.1118 130.304Z" fill="#131E33"/>
    <path d="M67.5057 125.309L72.588 122.728L75.1596 127.828L70.0772 130.409L67.5057 125.309Z" fill="#243454"/>
    <path d="M67.6116 125.344L72.5527 122.835L75.0528 127.794L70.1117 130.303L67.6116 125.344Z" fill="#243454"/>
    <path d="M65.0417 120.42L70.124 117.839L72.6956 122.94L67.6132 125.521L65.0417 120.42Z" fill="#243454"/>
    <path d="M65.1466 120.456L70.0878 117.946L72.5879 122.905L67.6467 125.414L65.1466 120.456Z" fill="#243454"/>
    <path d="M62.5407 115.461L67.623 112.88L70.1946 117.981L65.1122 120.562L62.5407 115.461Z" fill="#243454"/>
    <path d="M60.659 113.904L70.3865 113.904L70.3865 119.383L60.659 119.383L60.659 113.904Z" fill="#243454"/>
    <path d="M82.9388 229.698L88.0289 227.132L90.5864 232.24L85.4963 234.807L82.9388 229.698Z" fill="#0A0F1A"/>
    <path d="M87.8881 227.203L92.9783 224.636L95.5357 229.745L90.4456 232.312L87.8881 227.203Z" fill="#0A0F1A"/>
    <path d="M85.401 222.235L90.4911 219.669L93.0486 224.777L87.9584 227.344L85.401 222.235Z" fill="#111724"/>
    <path d="M92.7658 224.743L97.856 222.176L100.413 227.285L95.3233 229.852L92.7658 224.743Z" fill="#0A0F1A"/>
    <path d="M90.2795 219.776L95.3696 217.209L97.9271 222.318L92.837 224.885L90.2795 219.776Z" fill="#111724"/>
    <path d="M87.8284 214.881L92.9186 212.314L95.476 217.423L90.3859 219.989L87.8284 214.881Z" fill="#111724"/>
    <path d="M97.8208 222.282L102.77 219.787L105.256 224.754L100.307 227.249L97.8208 222.282Z" fill="#0A0F1A"/>
    <path d="M95.2285 217.281L100.319 214.714L102.876 219.822L97.7859 222.389L95.2285 217.281Z" fill="#111724"/>
    <path d="M92.7775 212.385L97.8677 209.818L100.425 214.927L95.335 217.494L92.7775 212.385Z" fill="#111724"/>
    <path d="M102.664 219.752L107.754 217.185L110.312 222.294L105.222 224.861L102.664 219.752Z" fill="#0A0F1A"/>
    <path d="M100.177 214.784L105.267 212.218L107.825 217.326L102.735 219.893L100.177 214.784Z" fill="#111724"/>
    <path d="M97.7259 209.89L102.816 207.323L105.374 212.432L100.283 214.998L97.7259 209.89Z" fill="#111724"/>
    <path d="M95.2395 204.923L100.33 202.356L102.887 207.465L97.7969 210.032L95.2395 204.923Z" fill="#111724"/>
    <path d="M92.7885 200.027L97.8787 197.461L100.436 202.569L95.346 205.136L92.7885 200.027Z" fill="#243454"/>
    <path d="M90.302 195.06L95.3921 192.494L97.9496 197.602L92.8594 200.169L90.302 195.06Z" fill="#243454"/>
    <path d="M87.8516 190.164L92.9418 187.598L95.4992 192.706L90.4091 195.273L87.8516 190.164Z" fill="#243454"/>
    <path d="M85.3657 185.198L90.4558 182.631L93.0133 187.74L87.9232 190.307L85.3657 185.198Z" fill="#243454"/>
    <path d="M82.8791 180.231L87.9692 177.664L90.5267 182.773L85.4366 185.339L82.8791 180.231Z" fill="#243454"/>
    <path d="M80.4282 175.335L85.5183 172.769L88.0758 177.877L82.9857 180.444L80.4282 175.335Z" fill="#243454"/>
    <path d="M75.8479 166.066L80.938 163.5L85.8647 173.341L80.7746 175.908L75.8479 166.066Z" fill="#243454"/>
    <path d="M107.542 217.292L112.632 214.725L115.19 219.834L110.099 222.401L107.542 217.292Z" fill="#0A0F1A"/>
    <path d="M105.055 212.325L110.146 209.758L112.703 214.867L107.613 217.434L105.055 212.325Z" fill="#111724"/>
    <path d="M102.604 207.43L107.694 204.863L110.252 209.971L105.162 212.538L102.604 207.43Z" fill="#111724"/>
    <path d="M100.118 202.463L105.208 199.896L107.766 205.004L102.675 207.571L100.118 202.463Z" fill="#111724"/>
    <path d="M97.6669 197.567L102.757 195L105.315 200.109L100.224 202.676L97.6669 197.567Z" fill="#243454"/>
    <path d="M95.1802 192.601L100.27 190.034L102.828 195.143L97.7377 197.71L95.1802 192.601Z" fill="#243454"/>
    <path d="M92.7294 187.705L97.8196 185.138L100.377 190.246L95.2869 192.813L92.7294 187.705Z" fill="#243454"/>
    <path d="M90.2429 182.739L95.333 180.172L97.8905 185.28L92.8003 187.847L90.2429 182.739Z" fill="#243454"/>
    <path d="M87.7563 177.772L92.8464 175.205L95.4039 180.313L90.3138 182.88L87.7563 177.772Z" fill="#243454"/>
    <path d="M83.7437 169.755L88.8339 167.188L92.9537 175.418L87.8635 177.985L83.7437 169.755Z" fill="#243454"/>
    <path d="M112.49 214.797L117.581 212.23L120.138 217.339L115.048 219.906L112.49 214.797Z" fill="#0A0F1A"/>
    <path d="M110.004 209.83L115.094 207.263L117.652 212.372L112.561 214.939L110.004 209.83Z" fill="#111724"/>
    <path d="M107.659 204.97L112.608 202.475L115.094 207.441L110.146 209.937L107.659 204.97Z" fill="#111724"/>
    <path d="M105.066 199.968L110.156 197.401L112.714 202.509L107.624 205.076L105.066 199.968Z" fill="#111724"/>
    <path d="M102.616 195.071L107.706 192.505L110.264 197.613L105.173 200.18L102.616 195.071Z" fill="#131E33"/>
    <path d="M100.129 190.106L105.22 187.539L107.777 192.647L102.687 195.214L100.129 190.106Z" fill="#131E33"/>
    <path d="M97.6785 185.209L102.769 182.642L105.326 187.751L100.236 190.317L97.6785 185.209Z" fill="#131E33"/>
    <path d="M95.192 180.243L100.282 177.676L102.84 182.785L97.7494 185.352L95.192 180.243Z" fill="#131E33"/>
    <path d="M84.8708 159.624L89.9609 157.057L100.354 177.817L95.2639 180.384L84.8708 159.624Z" fill="#131E33"/>
    <path d="M39.3326 123.946H48.9683V134.41H39.3326V123.946Z" fill="#243454"/>
    <path d="M48.9683 123.946H58.7439V134.41H48.9683V123.946Z" fill="#243454"/>
    <path d="M58.7439 123.946H68.518V134.41H58.7439V123.946Z" fill="#243454"/>
    <path d="M68.3796 123.946H78.155V134.41H68.3796V123.946Z" fill="#243454"/>
    <path d="M17.161 82.2217L18.574 87.5139L13.3008 88.932L11.8879 83.6397L17.161 82.2217Z" fill="#FFE4CE"/>
    <path d="M22.4339 80.8038L23.8468 86.0961L18.4972 87.5347L17.0843 82.2424L22.4339 80.8038Z" fill="#FFE4CE"/>
    <path d="M27.7836 79.3652L29.1965 84.6575L23.847 86.0961L22.434 80.8038L27.7836 79.3652Z" fill="#FFE4CE"/>
    <path d="M33.1448 77.9241L34.5577 83.2163L29.1203 84.6786L27.7073 79.3863L33.1448 77.9241Z" fill="white"/>
    <path d="M38.4062 76.508L39.8191 81.8003L34.546 83.2183L33.133 77.9261L38.4062 76.508Z" fill="#243454"/>
    <path d="M43.6791 75.0904L45.092 80.3827L39.7425 81.8213L38.3296 76.529L43.6791 75.0904Z" fill="#243454"/>
    <path d="M18.5739 87.5142L20.0073 92.8832L14.7342 94.3012L13.3008 88.9323L18.5739 87.5142Z" fill="#FFE4CE"/>
    <path d="M23.8467 86.0963L25.2802 91.4652L19.9306 92.9038L18.4972 87.5349L23.8467 86.0963Z" fill="#FFE4CE"/>
    <path d="M29.1965 84.6578L30.6299 90.0267L25.2803 91.4653L23.8469 86.0964L29.1965 84.6578Z" fill="#FFE4CE"/>
    <path d="M39.095 82.0165L40.5284 87.3855L30.6297 90.0475L29.1963 84.6785L39.095 82.0165Z" fill="#F57E77"/>
    <path d="M39.8192 81.8005L41.2526 87.1694L35.9794 88.5875L34.546 83.2185L39.8192 81.8005Z" fill="#131E33"/>
    <path d="M45.0919 80.3828L46.5253 85.7517L41.1757 87.1903L39.7423 81.8214L45.0919 80.3828Z" fill="#F57E77"/>
    <path d="M25.2601 91.3882L26.6935 96.7572L21.3439 98.1958L19.9105 92.8269L25.2601 91.3882Z" fill="#FFE4CE"/>
    <path d="M30.6092 89.9497L32.0426 95.3186L26.693 96.7572L25.2596 91.3883L30.6092 89.9497Z" fill="#F57E77"/>
    <path d="M34.5577 83.2405L35.9911 88.6095L30.6415 90.0481L29.2081 84.6792L34.5577 83.2405Z" fill="#877A86"/>
    <path d="M39.388 116.353H45.0845V122.07H39.388V116.353Z" fill="#243454"/>
    <path d="M39.4669 116.432H44.926V121.991H39.4669V116.432Z" fill="#243454"/>
    <path d="M39.388 110.794H45.0845V116.512H39.388V110.794Z" fill="#243454"/>
    <path d="M39.4669 110.873H44.926V116.432H39.4669V110.873Z" fill="#243454"/>
    <path d="M39.388 105.315H45.0845V111.033H39.388V105.315Z" fill="#243454"/>
    <path d="M39.4669 105.394H44.926V110.873H39.4669V105.394Z" fill="#243454"/>
    <path d="M39.388 99.7567H45.0845V105.474H39.388V99.7567Z" fill="#243454"/>
    <path d="M39.4669 99.8365H44.926V105.395H39.4669V99.8365Z" fill="#243454"/>
    <path d="M39.388 94.2777H45.0845V99.9949H39.388V94.2777Z" fill="#243454"/>
    <path d="M39.4669 94.3575H44.926V99.9159H39.4669V94.3575Z" fill="#243454"/>
    <path d="M39.388 88.7197H45.0845V94.4369H39.388V88.7197Z" fill="#243454"/>
    <path d="M39.4669 88.7986H44.926V94.3569H39.4669V88.7986Z" fill="#243454"/>
    <path d="M39.388 83.2406H45.0845V88.9578H39.388V83.2406Z" fill="#243454"/>
    <path d="M39.4669 83.3196H44.926V88.7985H39.4669V83.3196Z" fill="#243454"/>
    <path d="M39.388 77.6818H45.0845V83.3989H39.388V77.6818Z" fill="#243454"/>
    <path d="M39.4677 77.0815H44.9269V82.6399H39.4677V77.0815Z" fill="#243454"/>
    <path d="M39.388 72.2036H45.0845V77.9208H39.388V72.2036Z" fill="#243454"/>
    <path d="M39.4677 71.6025H44.9269V77.1609H39.4677V71.6025Z" fill="#243454"/>
    <path d="M39.388 66.6449H45.0845V72.3621H39.388V66.6449Z" fill="#243454"/>
    <path d="M39.4669 66.7238H44.926V72.2821H39.4669V66.7238Z" fill="#243454"/>
    <path d="M39.388 61.1658H45.0845V66.8829H39.388V61.1658Z" fill="#243454"/>
    <path d="M39.4669 61.2455H44.926V66.7244H39.4669V61.2455Z" fill="#243454"/>
    <path d="M39.388 55.6078H45.0845V61.3249H39.388V55.6078Z" fill="#243454"/>
    <path d="M39.4669 55.6869H44.926V61.2452H39.4669V55.6869Z" fill="#243454"/>
    <path d="M35.528 61.1384H40.9872V66.6968H35.528V61.1384Z" fill="#243454"/>
    <path d="M35.528 64.6267H40.9872V70.1851H35.528V64.6267Z" fill="#243454"/>
    <path d="M35.528 68.115H40.9872V73.6733H35.528V68.115Z" fill="#243454"/>
    <path d="M39.388 16.9373H45.0845V22.6544H39.388V16.9373Z" fill="#3D041F"/>
    <path d="M39.4669 17.0162H44.926V22.5746H39.4669V17.0162Z" fill="#3D041F"/>
    <path d="M39.388 11.4583H45.0845V17.1754H39.388V11.4583Z" fill="#621931"/>
    <path d="M39.4669 11.538H44.926V17.0963H39.4669V11.538Z" fill="#621931"/>
    <path d="M39.388 5.90015H45.0845V11.6173H39.388V5.90015Z" fill="#621931"/>
    <path d="M39.4669 5.97925H44.926V11.5376H39.4669V5.97925Z" fill="#621931"/>
    <path d="M44.8478 116.353H50.5443V122.07H44.8478V116.353Z" fill="#243454"/>
    <path d="M44.8478 110.794H50.5443V116.512H44.8478V110.794Z" fill="#243454"/>
    <path d="M44.9267 110.873H50.465V116.432H44.9267V110.873Z" fill="#243454"/>
    <path d="M44.8478 105.315H50.5443V111.033H44.8478V105.315Z" fill="#243454"/>
    <path d="M44.9267 105.394H50.465V110.873H44.9267V105.394Z" fill="#243454"/>
    <path d="M44.8478 99.7567H50.5443V105.474H44.8478V99.7567Z" fill="#243454"/>
    <path d="M44.9267 99.8365H50.465V105.395H44.9267V99.8365Z" fill="#243454"/>
    <path d="M44.8478 94.2777H50.5443V99.9949H44.8478V94.2777Z" fill="#243454"/>
    <path d="M44.9267 94.3575H50.465V99.9159H44.9267V94.3575Z" fill="#243454"/>
    <path d="M44.8478 88.7197H50.5443V94.4369H44.8478V88.7197Z" fill="#243454"/>
    <path d="M44.9267 88.7986H50.465V94.3569H44.9267V88.7986Z" fill="#243454"/>
    <path d="M44.8478 83.2406H50.5443V88.9578H44.8478V83.2406Z" fill="#243454"/>
    <path d="M44.9267 83.3196H50.465V88.7985H44.9267V83.3196Z" fill="#243454"/>
    <path d="M44.8478 77.6818H50.5443V83.3989H44.8478V77.6818Z" fill="#243454"/>
    <path d="M44.9267 77.7617H50.465V83.3201H44.9267V77.7617Z" fill="#243454"/>
    <path d="M44.8478 72.2036H50.5443V77.9208H44.8478V72.2036Z" fill="#243454"/>
    <path d="M44.9267 72.2827H50.465V77.8411H44.9267V72.2827Z" fill="#243454"/>
    <path d="M44.8478 66.6449H50.5443V72.3621H44.8478V66.6449Z" fill="#243454"/>
    <path d="M44.9267 66.7238H50.465V72.2821H44.9267V66.7238Z" fill="#374F80"/>
    <path d="M44.8478 61.1658H50.5443V66.8829H44.8478V61.1658Z" fill="#243454"/>
    <path d="M44.9267 61.2455H50.465V66.7244H44.9267V61.2455Z" fill="#374F80"/>
    <path d="M44.8478 55.6078H50.5443V61.3249H44.8478V55.6078Z" fill="#243454"/>
    <path d="M44.9267 55.6869H50.465V61.2452H44.9267V55.6869Z" fill="#374F80"/>
    <path d="M44.8478 33.533H50.5443V39.2501H44.8478V33.533Z" fill="#FFE4CE"/>
    <path d="M44.9267 33.6121H50.465V39.1704H44.9267V33.6121Z" fill="#FFE4CE"/>
    <path d="M44.8478 27.9742H50.5443V33.6914H44.8478V27.9742Z" fill="#FFE4CE"/>
    <path d="M44.9267 28.0541H50.465V33.6124H44.9267V28.0541Z" fill="#FFE4CE"/>
    <path d="M47.938 22.7681H58.3647V29.7444H47.938V22.7681Z" fill="#FFE4CE"/>
    <path d="M44.8478 22.4961H50.5443V28.2133H44.8478V22.4961Z" fill="#FFE4CE"/>
    <path d="M44.9267 22.5751H50.465V28.054H44.9267V22.5751Z" fill="#FFE4CE"/>
    <path d="M44.8478 16.9373H50.5443V22.6544H44.8478V16.9373Z" fill="#FFE4CE"/>
    <path d="M44.9267 17.0162H50.465V22.5746H44.9267V17.0162Z" fill="#FFE4CE"/>
    <path d="M44.8478 11.4583H50.5443V17.1754H44.8478V11.4583Z" fill="#3D041F"/>
    <path d="M44.9267 11.538H50.465V17.0963H44.9267V11.538Z" fill="#3D041F"/>
    <path d="M44.8478 5.90015H50.5443V11.6173H44.8478V5.90015Z" fill="#621931"/>
    <path d="M44.9267 5.97925H50.465V11.5376H44.9267V5.97925Z" fill="#621931"/>
    <path d="M44.8478 0.421265H50.5443V6.13842H44.8478V0.421265Z" fill="#621931"/>
    <path d="M44.9267 0.5H50.465V5.97894H44.9267V0.5Z" fill="#621931"/>
    <path d="M50.3858 116.353H56.0823V122.07H50.3858V116.353Z" fill="#243454"/>
    <path d="M50.4643 116.432H56.0026V121.991H50.4643V116.432Z" fill="#243454"/>
    <path d="M50.3858 110.794H56.0823V116.512H50.3858V110.794Z" fill="#243454"/>
    <path d="M50.4643 110.873H56.0026V116.432H50.4643V110.873Z" fill="#243454"/>
    <path d="M50.3858 105.315H56.0823V111.033H50.3858V105.315Z" fill="#243454"/>
    <path d="M50.4643 105.394H56.0026V110.873H50.4643V105.394Z" fill="#243454"/>
    <path d="M50.3858 99.7567H56.0823V105.474H50.3858V99.7567Z" fill="#243454"/>
    <path d="M50.4643 99.8365H56.0026V105.395H50.4643V99.8365Z" fill="#243454"/>
    <path d="M50.3858 94.2777H56.0823V99.9949H50.3858V94.2777Z" fill="#243454"/>
    <path d="M50.4643 94.3575H56.0026V99.9159H50.4643V94.3575Z" fill="#243454"/>
    <path d="M50.3858 88.7197H56.0823V94.4369H50.3858V88.7197Z" fill="#243454"/>
    <path d="M50.4643 88.7986H56.0026V94.3569H50.4643V88.7986Z" fill="#243454"/>
    <path d="M50.3858 83.2406H56.0823V88.9578H50.3858V83.2406Z" fill="#243454"/>
    <path d="M50.4643 83.3196H56.0026V88.7985H50.4643V83.3196Z" fill="#243454"/>
    <path d="M50.3858 77.6818H56.0823V83.3989H50.3858V77.6818Z" fill="#243454"/>
    <path d="M50.4643 77.7617H56.0026V83.3201H50.4643V77.7617Z" fill="#243454"/>
    <path d="M50.3858 72.2036H56.0823V77.9208H50.3858V72.2036Z" fill="#243454"/>
    <path d="M50.4643 72.2827H56.0026V77.8411H50.4643V72.2827Z" fill="#374F80"/>
    <path d="M50.3858 66.6449H56.0823V72.3621H50.3858V66.6449Z" fill="#243454"/>
    <path d="M50.4643 66.7238H56.0026V72.2821H50.4643V66.7238Z" fill="#243454"/>
    <path d="M50.3858 61.1658H56.0823V66.8829H50.3858V61.1658Z" fill="#243454"/>
    <path d="M50.4643 61.2455H56.0026V66.7244H50.4643V61.2455Z" fill="#243454"/>
    <path d="M50.3858 55.6078H56.0823V61.3249H50.3858V55.6078Z" fill="#F57E77"/>
    <path d="M50.4643 55.6869H56.0026V61.2452H50.4643V55.6869Z" fill="#F57E77"/>
    <path d="M50.3858 50.0498H56.0823V55.767H50.3858V50.0498Z" fill="#F57E77"/>
    <path d="M50.4643 50.1289H56.0026V55.6873H50.4643V50.1289Z" fill="#F57E77"/>
    <path d="M50.3858 44.5701H56.0823V50.2872H50.3858V44.5701Z" fill="#F57E77"/>
    <path d="M50.3858 39.0121H56.0823V44.7292H50.3858V39.0121Z" fill="#FFE4CE"/>
    <path d="M47.9385 19.2806H68.792V29.7452H47.9385V19.2806Z" fill="#FFE4CE"/>
    <path d="M50.3858 33.533H56.0823V39.2501H50.3858V33.533Z" fill="#FFE4CE"/>
    <path d="M50.4643 33.6121H56.0026V39.1704H50.4643V33.6121Z" fill="#FFE4CE"/>
    <path d="M50.3858 27.9742H56.0823V33.6914H50.3858V27.9742Z" fill="#FFE4CE"/>
    <path d="M50.4643 28.0541H56.0026V33.6124H50.4643V28.0541Z" fill="#FFE4CE"/>
    <path d="M50.3858 16.9373H56.0823V22.6544H50.3858V16.9373Z" fill="#FFE4CE"/>
    <path d="M50.4643 17.0162H56.0026V22.5746H50.4643V17.0162Z" fill="#FFE4CE"/>
    <path d="M50.3858 11.4583H56.0823V17.1754H50.3858V11.4583Z" fill="#FFE4CE"/>
    <path d="M50.4643 11.538H56.0026V17.0963H50.4643V11.538Z" fill="#FFE4CE"/>
    <path d="M50.3858 5.90015H56.0823V11.6173H50.3858V5.90015Z" fill="#3D041F"/>
    <path d="M50.4643 5.97925H56.0026V11.5376H50.4643V5.97925Z" fill="#3D041F"/>
    <path d="M50.3858 0.421265H56.0823V6.13842H50.3858V0.421265Z" fill="#621931"/>
    <path d="M50.4643 0.5H56.0026V5.97894H50.4643V0.5Z" fill="#621931"/>
    <path d="M59.4002 122.07H64.9385V123.954H59.4002V122.07Z" fill="#131E33"/>
    <path d="M64.1822 120.438H74.6089V123.926H64.1822V120.438Z" fill="#131E33"/>
    <path d="M55.8439 110.794H61.5404V116.512H55.8439V110.794Z" fill="#243454"/>
    <path d="M55.9244 110.873H61.4626V116.432H55.9244V110.873Z" fill="#243454"/>
    <path d="M55.8439 105.315H61.5404V111.033H55.8439V105.315Z" fill="#243454"/>
    <path d="M55.9244 105.394H61.4626V110.873H55.9244V105.394Z" fill="#243454"/>
    <path d="M55.8439 99.7567H61.5404V105.474H55.8439V99.7567Z" fill="#243454"/>
    <path d="M55.9244 99.8365H61.4626V105.395H55.9244V99.8365Z" fill="#243454"/>
    <path d="M55.8439 94.2777H61.5404V99.9949H55.8439V94.2777Z" fill="#243454"/>
    <path d="M55.9244 94.3575H61.4626V99.9159H55.9244V94.3575Z" fill="#243454"/>
    <path d="M55.8439 88.7197H61.5404V94.4369H55.8439V88.7197Z" fill="#243454"/>
    <path d="M55.9244 88.7986H61.4626V94.3569H55.9244V88.7986Z" fill="#243454"/>
    <path d="M55.8439 83.2406H61.5404V88.9578H55.8439V83.2406Z" fill="#243454"/>
    <path d="M55.9244 83.3196H61.4626V88.7985H55.9244V83.3196Z" fill="#243454"/>
    <path d="M55.8439 77.6818H61.5404V83.3989H55.8439V77.6818Z" fill="#243454"/>
    <path d="M55.9244 77.7617H61.4626V83.3201H55.9244V77.7617Z" fill="#243454"/>
    <path d="M55.8439 72.2036H61.5404V77.9208H55.8439V72.2036Z" fill="#243454"/>
    <path d="M55.9244 72.2827H61.4626V77.8411H55.9244V72.2827Z" fill="#243454"/>
    <path d="M55.8439 66.6449H61.5404V72.3621H55.8439V66.6449Z" fill="#243454"/>
    <path d="M55.8439 61.1658H61.5404V66.8829H55.8439V61.1658Z" fill="#F57E77"/>
    <path d="M50.5443 61.2455H61.4626V69.049H50.5443V61.2455Z" fill="#243454"/>
    <path d="M55.8439 55.6078H61.5404V61.3249H55.8439V55.6078Z" fill="#FFE4CE"/>
    <path d="M55.9244 55.6869H61.4626V61.2452H55.9244V55.6869Z" fill="#FFE4CE"/>
    <path d="M55.8439 50.0498H61.5404V55.767H55.8439V50.0498Z" fill="#FFE4CE"/>
    <path d="M55.9244 50.1289H61.4626V55.6873H55.9244V50.1289Z" fill="#FFE4CE"/>
    <path d="M55.8439 44.5701H61.5404V50.2872H55.8439V44.5701Z" fill="#FFE4CE"/>
    <path d="M55.9244 44.6499H61.4626V50.1288H55.9244V44.6499Z" fill="#FFE4CE"/>
    <path d="M55.8439 39.0121H61.5404V44.7292H55.8439V39.0121Z" fill="#FFE4CE"/>
    <path d="M55.9244 39.0911H61.4626V44.6494H55.9244V39.0911Z" fill="#FFE4CE"/>
    <path d="M55.8439 33.533H61.5404V39.2501H55.8439V33.533Z" fill="#FFE4CE"/>
    <path d="M55.9244 33.6121H61.4626V39.1704H55.9244V33.6121Z" fill="#FFE4CE"/>
    <path d="M55.8439 27.9742H61.5404V33.6914H55.8439V27.9742Z" fill="#FFE4CE"/>
    <path d="M55.9244 28.0541H61.4626V33.6124H55.9244V28.0541Z" fill="#FFE4CE"/>
    <path d="M55.8439 22.4961H61.5404V28.2133H55.8439V22.4961Z" fill="#FFE4CE"/>
    <path d="M55.9244 22.5751H61.4626V28.054H55.9244V22.5751Z" fill="#FFE4CE"/>
    <path d="M55.8439 16.9373H61.5404V22.6544H55.8439V16.9373Z" fill="#FFE4CE"/>
    <path d="M55.9244 17.0162H61.4626V22.5746H55.9244V17.0162Z" fill="#FFE4CE"/>
    <path d="M55.8439 11.4583H61.5404V17.1754H55.8439V11.4583Z" fill="#FFE4CE"/>
    <path d="M55.9244 11.538H61.4626V17.0963H55.9244V11.538Z" fill="#FFE4CE"/>
    <path d="M55.8439 5.90015H61.5404V11.6173H55.8439V5.90015Z" fill="#3D041F"/>
    <path d="M55.9244 5.97925H61.4626V11.5376H55.9244V5.97925Z" fill="#3D041F"/>
    <path d="M55.8439 0.421265H61.5404V6.13842H55.8439V0.421265Z" fill="#621931"/>
    <path d="M55.9244 0.5H61.4626V5.97894H55.9244V0.5Z" fill="#621931"/>
    <path d="M61.383 110.794H67.0795V116.512H61.383V110.794Z" fill="#243454"/>
    <path d="M61.5406 110.873H66.9998V116.432H61.5406V110.873Z" fill="#243454"/>
    <path d="M61.383 105.315H67.0795V111.033H61.383V105.315Z" fill="#243454"/>
    <path d="M61.5406 105.394H66.9998V110.873H61.5406V105.394Z" fill="#243454"/>
    <path d="M61.383 99.7567H67.0795V105.474H61.383V99.7567Z" fill="#243454"/>
    <path d="M61.5406 99.8365H66.9998V105.395H61.5406V99.8365Z" fill="#243454"/>
    <path d="M61.383 94.2777H67.0795V99.9949H61.383V94.2777Z" fill="#243454"/>
    <path d="M61.5406 94.3575H66.9998V99.9159H61.5406V94.3575Z" fill="#243454"/>
    <path d="M61.383 88.7197H67.0795V94.4369H61.383V88.7197Z" fill="#243454"/>
    <path d="M61.5406 88.7986H66.9998V94.3569H61.5406V88.7986Z" fill="#243454"/>
    <path d="M61.383 83.2406H67.0795V88.9578H61.383V83.2406Z" fill="#243454"/>
    <path d="M61.5406 83.3196H66.9998V88.7985H61.5406V83.3196Z" fill="#243454"/>
    <path d="M61.383 77.6818H67.0795V83.3989H61.383V77.6818Z" fill="#243454"/>
    <path d="M61.5406 77.7617H66.9998V83.3201H61.5406V77.7617Z" fill="#243454"/>
    <path d="M61.383 72.2036H67.0795V77.9208H61.383V72.2036Z" fill="#243454"/>
    <path d="M61.5406 72.2827H66.9998V77.8411H61.5406V72.2827Z" fill="#243454"/>
    <path d="M61.383 66.6449H67.0795V72.3621H61.383V66.6449Z" fill="#243454"/>
    <path d="M61.5406 66.7238H66.9998V72.2821H61.5406V66.7238Z" fill="#243454"/>
    <path d="M61.383 61.1658H67.0795V66.8829H61.383V61.1658Z" fill="#243454"/>
    <path d="M61.5406 61.2455H66.9998V66.7244H61.5406V61.2455Z" fill="#374F80"/>
    <path d="M61.383 55.6078H67.0795V61.3249H61.383V55.6078Z" fill="#FFE4CE"/>
    <path d="M61.5406 55.6869H66.9998V61.2452H61.5406V55.6869Z" fill="#FFE4CE"/>
    <path d="M61.383 50.0498H67.0795V55.767H61.383V50.0498Z" fill="#FFE4CE"/>
    <path d="M61.5406 50.1289H66.9998V55.6873H61.5406V50.1289Z" fill="#FFE4CE"/>
    <path d="M61.383 44.5701H67.0795V50.2872H61.383V44.5701Z" fill="#FFE4CE"/>
    <path d="M61.5406 44.6499H66.9998V50.1288H61.5406V44.6499Z" fill="#FFE4CE"/>
    <path d="M61.383 39.0121H67.0795V44.7292H61.383V39.0121Z" fill="#FFE4CE"/>
    <path d="M61.5406 39.0911H66.9998V44.6494H61.5406V39.0911Z" fill="#FFE4CE"/>
    <path d="M61.383 33.533H67.0795V39.2501H61.383V33.533Z" fill="#FFE4CE"/>
    <path d="M61.5406 33.6121H66.9998V39.1704H61.5406V33.6121Z" fill="#FFE4CE"/>
    <path d="M61.383 27.9742H67.0795V33.6914H61.383V27.9742Z" fill="#FFE4CE"/>
    <path d="M61.5406 28.0541H66.9998V33.6124H61.5406V28.0541Z" fill="#FFE4CE"/>
    <path d="M61.383 16.9373H67.0795V22.6544H61.383V16.9373Z" fill="#FFE4CE"/>
    <path d="M61.5406 17.0162H66.9998V22.5746H61.5406V17.0162Z" fill="#FFE4CE"/>
    <path d="M61.383 11.4583H67.0795V17.1754H61.383V11.4583Z" fill="#FFE4CE"/>
    <path d="M61.5406 11.538H66.9998V17.0963H61.5406V11.538Z" fill="#FFE4CE"/>
    <path d="M61.383 5.90015H67.0795V11.6173H61.383V5.90015Z" fill="#3D041F"/>
    <path d="M61.5406 5.97925H66.9998V11.5376H61.5406V5.97925Z" fill="#3D041F"/>
    <path d="M61.383 0.421265H67.0795V6.13842H61.383V0.421265Z" fill="#621931"/>
    <path d="M61.5406 0.5H66.9998V5.97894H61.5406V0.5Z" fill="#621931"/>
    <path d="M66.8419 116.353H72.5385V122.07H66.8419V116.353Z" fill="#243454"/>
    <path d="M66.9215 116.432H72.4597V121.991H66.9215V116.432Z" fill="#243454"/>
    <path d="M66.8419 110.794H72.5385V116.512H66.8419V110.794Z" fill="#243454"/>
    <path d="M66.9215 110.873H72.4597V116.432H66.9215V110.873Z" fill="#243454"/>
    <path d="M66.8419 105.315H72.5385V111.033H66.8419V105.315Z" fill="#243454"/>
    <path d="M66.9215 105.394H72.4597V110.873H66.9215V105.394Z" fill="#243454"/>
    <path d="M66.8419 99.7567H72.5385V105.474H66.8419V99.7567Z" fill="#243454"/>
    <path d="M66.9215 99.8365H72.4597V105.395H66.9215V99.8365Z" fill="#243454"/>
    <path d="M66.8419 94.2777H72.5385V99.9949H66.8419V94.2777Z" fill="#243454"/>
    <path d="M66.9215 94.3575H72.4597V99.9159H66.9215V94.3575Z" fill="#243454"/>
    <path d="M66.8419 88.7197H72.5385V94.4369H66.8419V88.7197Z" fill="#243454"/>
    <path d="M66.9215 88.7986H72.4597V94.3569H66.9215V88.7986Z" fill="#243454"/>
    <path d="M66.8419 83.2406H72.5385V88.9578H66.8419V83.2406Z" fill="#243454"/>
    <path d="M66.9215 83.3196H72.4597V88.7985H66.9215V83.3196Z" fill="#243454"/>
    <path d="M66.8419 77.6818H72.5385V83.3989H66.8419V77.6818Z" fill="#243454"/>
    <path d="M66.9215 77.7617H72.4597V83.3201H66.9215V77.7617Z" fill="#243454"/>
    <path d="M66.8419 72.2036H72.5385V77.9208H66.8419V72.2036Z" fill="#243454"/>
    <path d="M66.9215 72.2827H72.4597V77.8411H66.9215V72.2827Z" fill="#243454"/>
    <path d="M66.8419 66.6449H72.5385V72.3621H66.8419V66.6449Z" fill="#243454"/>
    <path d="M66.9215 66.7238H72.4597V72.2821H66.9215V66.7238Z" fill="#243454"/>
    <path d="M66.8419 61.1658H72.5385V66.8829H66.8419V61.1658Z" fill="#243454"/>
    <path d="M66.9215 61.2455H72.4597V66.7244H66.9215V61.2455Z" fill="#243454"/>
    <path d="M66.8419 55.6078H72.5385V61.3249H66.8419V55.6078Z" fill="#243454"/>
    <path d="M67.0794 55.6869H72.4597V61.2452H67.0794V55.6869Z" fill="#374F80"/>
    <path d="M66.8419 33.533H72.5385V39.2501H66.8419V33.533Z" fill="#FFE4CE"/>
    <path d="M66.9215 33.6121H72.4597V39.1704H66.9215V33.6121Z" fill="#F57E77"/>
    <path d="M66.8419 27.9742H72.5385V33.6914H66.8419V27.9742Z" fill="#FFE4CE"/>
    <path d="M66.9215 28.0541H72.4597V33.6124H66.9215V28.0541Z" fill="#FFE4CE"/>
    <path d="M66.8419 22.4961H72.5385V28.2133H66.8419V22.4961Z" fill="#FFE4CE"/>
    <path d="M66.9215 22.5751H72.4597V28.054H66.9215V22.5751Z" fill="#FFE4CE"/>
    <path d="M66.8419 16.9373H72.5385V22.6544H66.8419V16.9373Z" fill="#FFE4CE"/>
    <path d="M66.9215 17.0162H72.4597V22.5746H66.9215V17.0162Z" fill="#FFE4CE"/>
    <path d="M66.8419 11.4583H72.5385V17.1754H66.8419V11.4583Z" fill="#3D041F"/>
    <path d="M66.9215 11.538H72.4597V17.0963H66.9215V11.538Z" fill="#3D041F"/>
    <path d="M65.3157 15.7922H75.7424V22.7686H65.3157V15.7922Z" fill="#3D041F"/>
    <path d="M61.8408 8.81567H68.792V19.2802H61.8408V8.81567Z" fill="#3D041F"/>
    <path d="M66.8419 5.90015H72.5385V11.6173H66.8419V5.90015Z" fill="#621931"/>
    <path d="M66.9215 5.97925H72.4597V11.5376H66.9215V5.97925Z" fill="#621931"/>
    <path d="M66.8419 0.421265H72.5385V6.13842H66.8419V0.421265Z" fill="#621931"/>
    <path d="M66.9215 0.5H72.4597V5.97894H66.9215V0.5Z" fill="#621931"/>
    <path d="M72.3799 116.353H78.0764V122.07H72.3799V116.353Z" fill="#243454"/>
    <path d="M72.4593 116.432H77.9976V121.991H72.4593V116.432Z" fill="#243454"/>
    <path d="M72.3799 110.794H78.0764V116.512H72.3799V110.794Z" fill="#243454"/>
    <path d="M72.4593 110.873H77.9976V116.432H72.4593V110.873Z" fill="#243454"/>
    <path d="M72.3799 105.315H78.0764V111.033H72.3799V105.315Z" fill="#243454"/>
    <path d="M72.4593 105.394H77.9976V110.873H72.4593V105.394Z" fill="#243454"/>
    <path d="M72.3799 99.7567H78.0764V105.474H72.3799V99.7567Z" fill="#243454"/>
    <path d="M72.4593 99.8365H77.9976V105.395H72.4593V99.8365Z" fill="#243454"/>
    <path d="M72.3799 94.2777H78.0764V99.9949H72.3799V94.2777Z" fill="#243454"/>
    <path d="M72.3799 88.7197H78.0764V94.4369H72.3799V88.7197Z" fill="#243454"/>
    <path d="M72.4593 88.7986H77.9976V94.3569H72.4593V88.7986Z" fill="#131E33"/>
    <path d="M72.3799 83.2406H78.0764V88.9578H72.3799V83.2406Z" fill="#243454"/>
    <path d="M72.3799 77.6818H78.0764V83.3989H72.3799V77.6818Z" fill="#243454"/>
    <path d="M72.4593 77.7617H77.9976V83.3201H72.4593V77.7617Z" fill="#243454"/>
    <path d="M72.3799 72.2036H78.0764V77.9208H72.3799V72.2036Z" fill="#243454"/>
    <path d="M72.4593 72.2827H77.9976V77.8411H72.4593V72.2827Z" fill="#243454"/>
    <path d="M72.3799 66.6449H78.0764V72.3621H72.3799V66.6449Z" fill="#243454"/>
    <path d="M72.4593 66.7238H77.9976V72.2821H72.4593V66.7238Z" fill="#243454"/>
    <path d="M72.3799 61.1658H78.0764V66.8829H72.3799V61.1658Z" fill="#243454"/>
    <path d="M72.4593 61.2455H77.9976V66.7244H72.4593V61.2455Z" fill="#243454"/>
    <path d="M72.3799 55.6078H78.0764V61.3249H72.3799V55.6078Z" fill="#243454"/>
    <path d="M72.4593 55.6869H77.9976V61.2452H72.4593V55.6869Z" fill="#243454"/>
    <path d="M72.3799 27.9742H78.0764V33.6914H72.3799V27.9742Z" fill="#3D041F"/>
    <path d="M72.4593 28.0541H77.9976V33.6124H72.4593V28.0541Z" fill="#3D041F"/>
    <path d="M72.3799 22.4961H78.0764V28.2133H72.3799V22.4961Z" fill="#3D041F"/>
    <path d="M72.4593 22.5751H77.9976V28.054H72.4593V22.5751Z" fill="#3D041F"/>
    <path d="M72.3799 16.9373H78.0764V22.6544H72.3799V16.9373Z" fill="#621931"/>
    <path d="M72.4593 17.0162H77.9976V22.5746H72.4593V17.0162Z" fill="#621931"/>
    <path d="M72.3799 11.4583H78.0764V17.1754H72.3799V11.4583Z" fill="#621931"/>
    <path d="M72.4593 11.538H77.9976V17.0963H72.4593V11.538Z" fill="#621931"/>
    <path d="M72.3799 5.90015H78.0764V11.6173H72.3799V5.90015Z" fill="#621931"/>
    <path d="M72.4593 5.97925H77.9976V11.5376H72.4593V5.97925Z" fill="#621931"/>
    <path d="M77.84 72.2036H83.5365V77.9208H77.84V72.2036Z" fill="#243454"/>
    <path d="M77.9186 72.2827H83.4569V77.8411H77.9186V72.2827Z" fill="#243454"/>
    <path d="M77.84 66.6449H83.5365V72.3621H77.84V66.6449Z" fill="#243454"/>
    <path d="M77.9186 66.7238H83.4569V72.2821H77.9186V66.7238Z" fill="#243454"/>
    <path d="M77.84 61.1658H83.5365V66.8829H77.84V61.1658Z" fill="#243454"/>
    <path d="M77.9186 61.2455H83.4569V66.7244H77.9186V61.2455Z" fill="#243454"/>
    <path d="M77.84 55.6078H83.5365V61.3249H77.84V55.6078Z" fill="#243454"/>
    <path d="M77.9186 55.6869H83.4569V61.2452H77.9186V55.6869Z" fill="#243454"/>
    <path d="M75.7424 15.7922H82.6936V26.2568H75.7424V15.7922Z" fill="#3D041F"/>
    <path d="M83.3777 72.2036H89.0742V77.9208H83.3777V72.2036Z" fill="#243454"/>
    <path d="M83.3777 66.6449H89.0742V72.3621H83.3777V66.6449Z" fill="#243454"/>
    <path d="M83.5356 66.7238H88.9948V72.2821H83.5356V66.7238Z" fill="#243454"/>
    <path d="M83.3777 61.1658H89.0742V66.8829H83.3777V61.1658Z" fill="#243454"/>
    <path d="M83.5356 61.2455H88.9948V66.7244H83.5356V61.2455Z" fill="#243454"/>
    <path d="M88.8371 72.2036H94.5336V77.9208H88.8371V72.2036Z" fill="#243454"/>
    <path d="M88.8371 66.6449H94.5336V72.3621H88.8371V66.6449Z" fill="#243454"/>
    <path d="M88.9158 66.7238H94.4541V72.2821H88.9158V66.7238Z" fill="#243454"/>
    <path d="M91.6057 72.0446H97.3022V77.7617H91.6057V72.0446Z" fill="#243454"/>
    <path d="M77.1553 22.7681H82.6936V28.3264H77.1553V22.7681Z" fill="#3D041F"/>
    <path d="M49.1928 22.7681H54.8893V28.4852H49.1928V22.7681Z" fill="#66667C"/>
    <path d="M70.2826 26.2562H75.7417V31.8146H70.2826V26.2562Z" fill="#FFE4CE"/>
    <path d="M88.9158 72.2827H94.4541V77.8411H88.9158V72.2827Z" fill="#243454"/>
    <path d="M72.0301 120.563L78.1549 120.563L78.1549 134.403L72.0301 134.403L72.0301 120.563Z" fill="#131E33"/>
    <path d="M72.4593 72.3624H77.9976V88.7985H72.4593V72.3624Z" fill="#131E33"/>
    <path d="M72.4593 86.0969H77.9976V99.9158H72.4593V86.0969Z" fill="#131E33"/>
    <path d="M74.3751 72.3118H83.6151V77.8701H74.3751V72.3118Z" fill="#131E33"/>
    <path d="M72.5384 66.8826H77.9976V72.4409H72.5384V66.8826Z" fill="#131E33"/>
    <path d="M92.1862 93.3641L91.1262 98.7388L79.3749 96.4044L80.4348 91.0297L92.1862 93.3641Z" fill="#243454"/>
    <path d="M91.6801 98.8483L90.6047 104.301L76.4362 101.486L77.5115 96.0338L91.6801 98.8483Z" fill="#131E33"/>
    <path d="M58.9359 86.759L57.876 92.1337L52.5207 91.0699L53.5807 85.6952L58.9359 86.759Z" fill="#FFE4CE"/>
    <path d="M64.2913 87.8217L63.2313 93.1964L57.7985 92.1172L58.8584 86.7425L64.2913 87.8217Z" fill="#FFE4CE"/>
    <path d="M69.7239 88.9014L68.6639 94.2761L63.2311 93.1969L64.291 87.8222L69.7239 88.9014Z" fill="#FFE4CE"/>
    <path d="M75.2517 89.999L74.1918 95.3737L68.5866 94.2602L69.6466 88.8855L75.2517 89.999Z" fill="white"/>
    <path d="M80.512 91.0438L79.452 96.4185L74.0968 95.3546L75.1567 89.98L80.512 91.0438Z" fill="#243454"/>
    <path d="M57.8761 92.1331L56.8008 97.5857L51.4455 96.5219L52.5209 91.0693L57.8761 92.1331Z" fill="#FFE4CE"/>
    <path d="M63.2312 93.1968L62.1559 98.6494L56.723 97.5702L57.7983 92.1176L63.2312 93.1968Z" fill="#FFE4CE"/>
    <path d="M68.6646 94.2761L67.5892 99.7286L62.1564 98.6494L63.2317 93.1968L68.6646 94.2761Z" fill="#FFE4CE"/>
    <path d="M75.5714 95.6481L74.4961 101.101L67.5111 99.7132L68.5865 94.2606L75.5714 95.6481Z" fill="#877A86"/>
    <path d="M79.4519 96.4191L78.3766 101.872L73.0213 100.808L74.0967 95.3553L79.4519 96.4191Z" fill="#131E33"/>
    <path d="M62.1713 98.5714L61.0959 104.024L55.6631 102.945L56.7384 97.4921L62.1713 98.5714Z" fill="#FFE4CE"/>
    <path d="M67.6035 99.6505L66.5282 105.103L61.0953 104.024L62.1707 98.5712L67.6035 99.6505Z" fill="#F57E77"/>
    <path d="M50.3863 39.2507H67.0802V44.491H50.3863V39.2507Z" fill="#FFE4CE"/>
    <path d="M50.5436 44.8087H67.3783V50.9791H50.5436V44.8087Z" fill="#F57E77"/>
    <path d="M61.84 39.2507H67.3783V44.8091H61.84V39.2507Z" fill="#F57E77"/>
    <path d="M83.5357 72.2827H95.6628V77.8411H83.5357V72.2827Z" fill="#243454"/>
    <path d="M96.844 88.4542L91.3107 88.2191L90.63 104.359L96.1633 104.594L96.844 88.4542Z" fill="#131E33"/>
    <path d="M97.0785 82.9003L91.5452 82.6653L91.311 88.2187L96.8443 88.4537L97.0785 82.9003Z" fill="#131E33"/>
    <path d="M97.3097 77.4263L91.7764 77.1913L91.5422 82.7447L97.0755 82.9797L97.3097 77.4263Z" fill="#131E33"/>
    <path d="M91.3109 88.2188L85.7776 87.9838L85.5467 93.4578L91.08 93.6929L91.3109 88.2188Z" fill="#243454"/>
    <path d="M91.5447 82.666L86.0114 82.4309L85.7771 87.9843L91.3105 88.2193L91.5447 82.666Z" fill="#243454"/>
    <path d="M91.7757 77.1918L86.2424 76.9568L86.0082 82.5102L91.5415 82.7452L91.7757 77.1918Z" fill="#243454"/>
    <path d="M55.844 116.353H67.3048V122.07H55.844V116.353Z" fill="#243454"/>
    <path d="M39.3326 120.438H48.9684V126.577H39.3326V120.438Z" fill="#131E33"/>
    <path d="M48.9684 120.438H58.7439V126.577H48.9684V120.438Z" fill="#131E33"/>
    <path d="M58.7439 120.438H68.518V126.577H58.7439V120.438Z" fill="#131E33"/>
    <path d="M68.3796 120.438H78.155V126.577H68.3796V120.438Z" fill="#131E33"/>
    <path d="M50.3858 55.5748H67.0795V61.3035H50.3858V55.5748Z" fill="white"/>
    <path d="M50.3858 55.5209H56.0922V71.6025H50.3858V55.5209Z" fill="white"/>
    <path d="M50.3859 55.7345H56.0115V66.6885H50.3859V55.7345Z" fill="white"/>
    <path d="M56.0355 55.5209H61.48V66.4749H56.0355V55.5209Z" fill="white"/>
    <path d="M50.3865 55.5209H56.0355V71.6632H50.3865V55.5209Z" fill="#E4352F"/>
    <path d="M56.0205 55.5751H61.7231V61.3254H56.0205V55.5751Z" fill="#A3211D"/>
    <path d="M61.6852 55.5748H67.1744V61.3251H61.6852V55.5748Z" fill="#A3211D"/>
    <path d="M56.0026 66.4749H61.4628V72.2822H56.0026V66.4749Z" fill="#374F80"/>
</svg>
