<svg width="121" height="235" viewBox="0 0 121 235" fill="none" xmlns="http://www.w3.org/2000/svg">
    <path d="M92.75 224.306L87.5991 221.871L85.1695 227.033L90.3204 229.468L92.75 224.306Z" fill="#391709"/>
    <path d="M87.7426 221.939L82.5917 219.504L80.1621 224.666L85.313 227.101L87.7426 221.939Z" fill="#391709"/>
    <path d="M90.105 216.919L84.9541 214.484L82.5245 219.646L87.6754 222.081L90.105 216.919Z" fill="#482C02"/>
    <path d="M82.8054 219.605L77.6545 217.17L75.2249 222.332L80.3758 224.767L82.8054 219.605Z" fill="#391709"/>
    <path d="M85.1679 214.585L80.017 212.15L77.5874 217.313L82.7383 219.747L85.1679 214.585Z" fill="#482C02"/>
    <path d="M87.4966 209.639L82.3457 207.204L79.9161 212.366L85.067 214.801L87.4966 209.639Z" fill="#482C02"/>
    <path d="M77.6932 217.275L72.6854 214.908L70.3233 219.927L75.3311 222.294L77.6932 217.275Z" fill="#391709"/>
    <path d="M80.1604 212.218L75.0095 209.783L72.5799 214.945L77.7308 217.38L80.1604 212.218Z" fill="#482C02"/>
    <path d="M82.4884 207.272L77.3375 204.837L74.9079 209.999L80.0588 212.434L82.4884 207.272Z" fill="#482C02"/>
    <path d="M72.7898 214.87L67.6389 212.435L65.2093 217.597L70.3602 220.032L72.7898 214.87Z" fill="#391709"/>
    <path d="M75.1521 209.85L70.0012 207.415L67.5716 212.578L72.7225 215.013L75.1521 209.85Z" fill="#482C02"/>
    <path d="M77.4811 204.904L72.3302 202.469L69.9006 207.632L75.0515 210.067L77.4811 204.904Z" fill="#482C02"/>
    <path d="M79.8434 199.885L74.6925 197.45L72.2629 202.612L77.4138 205.047L79.8434 199.885Z" fill="#482C02"/>
    <path d="M82.1718 194.938L77.0209 192.503L74.5913 197.665L79.7422 200.1L82.1718 194.938Z" fill="#424343"/>
    <path d="M84.5336 189.919L79.3827 187.484L76.9531 192.647L82.104 195.082L84.5336 189.919Z" fill="#424343"/>
    <path d="M86.8621 184.972L81.7112 182.537L79.2816 187.699L84.4325 190.134L86.8621 184.972Z" fill="#424343"/>
    <path d="M89.2233 179.953L84.0724 177.518L81.6428 182.68L86.7937 185.115L89.2233 179.953Z" fill="#424343"/>
    <path d="M91.5856 174.934L86.4347 172.499L84.0051 177.661L89.156 180.096L91.5856 174.934Z" fill="#424343"/>
    <path d="M96.9228 163.596L91.7719 161.161L86.3343 172.714L91.4852 175.149L96.9228 163.596Z" fill="#424343"/>
    <path d="M67.8542 212.537L62.7032 210.102L60.2736 215.264L65.4245 217.699L67.8542 212.537Z" fill="#391709"/>
    <path d="M70.2166 207.517L65.0657 205.082L62.6361 210.245L67.787 212.68L70.2166 207.517Z" fill="#482C02"/>
    <path d="M72.5446 202.571L67.3937 200.136L64.9641 205.298L70.115 207.733L72.5446 202.571Z" fill="#482C02"/>
    <path d="M74.907 197.552L69.7561 195.117L67.3265 200.279L72.4774 202.714L74.907 197.552Z" fill="#482C02"/>
    <path d="M77.2354 192.604L72.0845 190.169L69.6549 195.332L74.8058 197.767L77.2354 192.604Z" fill="#424343"/>
    <path d="M79.5973 187.586L74.4464 185.151L72.0168 190.313L77.1677 192.748L79.5973 187.586Z" fill="#424343"/>
    <path d="M81.9258 182.638L76.7749 180.203L74.3453 185.366L79.4962 187.801L81.9258 182.638Z" fill="#424343"/>
    <path d="M84.288 177.619L79.1371 175.184L76.7075 180.347L81.8584 182.781L84.288 177.619Z" fill="#424343"/>
    <path d="M86.6499 172.601L81.499 170.166L79.0694 175.328L84.2203 177.763L86.6499 172.601Z" fill="#424343"/>
    <path d="M93.0288 159.045L87.8779 156.61L81.397 170.381L86.5479 172.816L93.0288 159.045Z" fill="#424343"/>
    <path d="M62.8458 210.169L57.6949 207.734L55.2653 212.896L60.4162 215.331L62.8458 210.169Z" fill="#26031F"/>
    <path d="M65.2083 205.15L60.0574 202.715L57.6278 207.877L62.7787 210.312L65.2083 205.15Z" fill="#391709"/>
    <path d="M67.432 200.242L62.4242 197.875L60.0621 202.894L65.0699 205.261L67.432 200.242Z" fill="#391709"/>
    <path d="M69.8986 195.184L64.7477 192.749L62.3181 197.911L67.469 200.346L69.8986 195.184Z" fill="#391709"/>
    <path d="M72.227 190.237L67.076 187.802L64.6464 192.964L69.7973 195.399L72.227 190.237Z" fill="#262828"/>
    <path d="M74.589 185.218L69.4381 182.783L67.0085 187.945L72.1594 190.38L74.589 185.218Z" fill="#262828"/>
    <path d="M76.9174 180.271L71.7665 177.836L69.3369 182.998L74.4878 185.433L76.9174 180.271Z" fill="#262828"/>
    <path d="M79.2797 175.252L74.1288 172.817L71.6992 177.979L76.8501 180.414L79.2797 175.252Z" fill="#262828"/>
    <path d="M81.6417 170.233L76.4908 167.798L74.0612 172.96L79.2121 175.395L81.6417 170.233Z" fill="#262828"/>
    <path d="M90.2864 151.731L85.1979 149.325L76.2527 168.331L81.3413 170.737L90.2864 151.731Z" fill="#262828"/>
    <path d="M94.5921 158.648L89.4227 161.043L91.8127 166.224L96.9821 163.829L94.5921 158.648Z" fill="#424343"/>
    <path d="M94.5537 158.753L89.5997 161.048L91.8902 166.013L96.8442 163.718L94.5537 158.753Z" fill="#424343"/>
    <path d="M92.3024 153.683L87.1331 156.078L89.5231 161.259L94.6925 158.863L92.3024 153.683Z" fill="#424343"/>
    <path d="M92.2635 153.788L87.3094 156.084L89.6331 161.121L94.5871 158.825L92.2635 153.788Z" fill="#424343"/>
    <path d="M89.9781 148.646L84.8087 151.041L87.1987 156.222L92.3681 153.827L89.9781 148.646Z" fill="#424343"/>
    <path d="M89.94 148.752L84.986 151.047L87.3096 156.084L92.2636 153.788L89.94 148.752Z" fill="#424343"/>
    <path d="M87.6877 143.681L82.5183 146.076L84.9083 151.257L90.0777 148.862L87.6877 143.681Z" fill="#424343"/>
    <path d="M87.6488 143.786L82.6948 146.082L85.0185 151.119L89.9725 148.823L87.6488 143.786Z" fill="#424343"/>
    <path d="M85.3642 138.644L80.1948 141.039L82.5848 146.22L87.7542 143.825L85.3642 138.644Z" fill="#424343"/>
    <path d="M85.3255 138.749L80.3715 141.044L82.6619 146.009L87.6159 143.714L85.3255 138.749Z" fill="#424343"/>
    <path d="M83.0738 133.679L77.9044 136.074L80.2944 141.255L85.4638 138.86L83.0738 133.679Z" fill="#424343"/>
    <path d="M83.0351 133.785L78.0811 136.08L80.4047 141.117L85.3587 138.821L83.0351 133.785Z" fill="#424343"/>
    <path d="M80.7496 128.642L75.5802 131.037L77.9702 136.218L83.1396 133.822L80.7496 128.642Z" fill="#424343"/>
    <path d="M80.7115 128.747L75.7574 131.043L78.0811 136.079L83.0351 133.784L80.7115 128.747Z" fill="#424343"/>
    <path d="M78.46 123.677L73.2906 126.072L75.6807 131.253L80.8501 128.858L78.46 123.677Z" fill="#262828"/>
    <path d="M78.4212 123.783L73.4672 126.078L75.7908 131.115L80.7448 128.82L78.4212 123.783Z" fill="#262828"/>
    <path d="M89.6385 160.942L84.4691 163.338L86.8591 168.519L92.0285 166.123L89.6385 160.942Z" fill="#424343"/>
    <path d="M89.6 161.049L84.5742 163.378L86.8647 168.342L91.8904 166.014L89.6 161.049Z" fill="#424343"/>
    <path d="M87.3481 155.978L82.1787 158.373L84.5687 163.554L89.7381 161.159L87.3481 155.978Z" fill="#424343"/>
    <path d="M87.3099 156.084L82.2841 158.412L84.6077 163.449L89.6335 161.12L87.3099 156.084Z" fill="#424343"/>
    <path d="M85.0239 150.941L79.8545 153.337L82.2445 158.517L87.4139 156.122L85.0239 150.941Z" fill="#424343"/>
    <path d="M84.9862 151.047L79.9604 153.376L82.2841 158.413L87.3099 156.084L84.9862 151.047Z" fill="#424343"/>
    <path d="M82.7345 145.976L77.5651 148.371L79.9551 153.552L85.1245 151.157L82.7345 145.976Z" fill="#424343"/>
    <path d="M82.695 146.082L77.6692 148.41L79.9928 153.447L85.0186 151.119L82.695 146.082Z" fill="#424343"/>
    <path d="M80.41 140.94L75.2406 143.335L77.6306 148.516L82.8 146.12L80.41 140.94Z" fill="#424343"/>
    <path d="M80.3716 141.044L75.3458 143.373L77.6363 148.338L82.6621 146.009L80.3716 141.044Z" fill="#424343"/>
    <path d="M78.1206 135.974L72.9512 138.37L75.3412 143.55L80.5106 141.155L78.1206 135.974Z" fill="#424343"/>
    <path d="M78.0812 136.08L73.0554 138.409L75.379 143.446L80.4048 141.117L78.0812 136.08Z" fill="#424343"/>
    <path d="M75.7961 130.937L70.6267 133.332L73.0167 138.513L78.1861 136.118L75.7961 130.937Z" fill="#424343"/>
    <path d="M75.7577 131.042L70.7319 133.371L73.0556 138.408L78.0814 136.079L75.7577 131.042Z" fill="#424343"/>
    <path d="M73.5057 125.972L68.3363 128.368L70.7263 133.549L75.8957 131.153L73.5057 125.972Z" fill="#424343"/>
    <path d="M73.4674 126.077L68.4417 128.406L70.7653 133.443L75.7911 131.114L73.4674 126.077Z" fill="#424343"/>
    <path d="M71.1822 120.936L66.0128 123.331L68.4028 128.512L73.5722 126.117L71.1822 120.936Z" fill="#424343"/>
    <path d="M71.144 121.04L66.1182 123.369L68.4086 128.334L73.4344 126.005L71.144 121.04Z" fill="#424343"/>
    <path d="M82.3226 158.307L77.1532 160.702L79.5432 165.883L84.7126 163.487L82.3226 158.307Z" fill="#262828"/>
    <path d="M82.2843 158.411L77.2585 160.74L79.5822 165.777L84.608 163.448L82.2843 158.411Z" fill="#262828"/>
    <path d="M79.9983 153.27L74.8289 155.665L77.2189 160.846L82.3883 158.451L79.9983 153.27Z" fill="#262828"/>
    <path d="M79.9609 153.375L74.9351 155.703L77.2587 160.74L82.2845 158.412L79.9609 153.375Z" fill="#262828"/>
    <path d="M77.708 148.305L72.5386 150.7L74.9286 155.881L80.098 153.486L77.708 148.305Z" fill="#262828"/>
    <path d="M77.6696 148.409L72.6438 150.738L74.9674 155.775L79.9932 153.446L77.6696 148.409Z" fill="#262828"/>
    <path d="M75.3845 143.268L70.2151 145.663L72.6051 150.844L77.7745 148.449L75.3845 143.268Z" fill="#262828"/>
    <path d="M75.3461 143.373L70.3203 145.702L72.6107 150.667L77.6365 148.338L75.3461 143.373Z" fill="#262828"/>
    <path d="M73.0942 138.303L67.9248 140.698L70.3148 145.879L75.4842 143.484L73.0942 138.303Z" fill="#262828"/>
    <path d="M70.7699 133.266L65.6005 135.662L67.9905 140.842L73.1599 138.447L70.7699 133.266Z" fill="#424343"/>
    <path d="M70.7323 133.371L65.7065 135.7L68.0302 140.737L73.056 138.408L70.7323 133.371Z" fill="#424343"/>
    <path d="M68.4803 128.301L63.3109 130.696L65.7009 135.877L70.8703 133.482L68.4803 128.301Z" fill="#424343"/>
    <path d="M68.4419 128.406L63.4161 130.735L65.7398 135.771L70.7656 133.443L68.4419 128.406Z" fill="#424343"/>
    <path d="M66.1568 123.264L60.9874 125.66L63.3774 130.84L68.5468 128.445L66.1568 123.264Z" fill="#424343"/>
    <path d="M66.1183 123.369L61.0925 125.698L63.383 130.663L68.4088 128.334L66.1183 123.369Z" fill="#424343"/>
    <path d="M63.8329 118.228L58.6631 120.622L61.054 125.803L66.2239 123.408L63.8329 118.228Z" fill="white"/>
    <path d="M70.1963 132.208L65.1705 134.537L70.3545 145.774L75.3803 143.445L70.1963 132.208Z" fill="#262828"/>
    <path d="M47.7823 159.884L42.7007 157.307L40.1294 162.4L45.2111 164.977L47.7823 159.884Z" fill="#424343"/>
    <path d="M47.6757 159.919L42.8058 157.45L38.2933 166.387L43.1633 168.857L47.6757 159.919Z" fill="#424343"/>
    <path d="M50.246 155.003L45.1643 152.426L42.593 157.519L47.6747 160.096L50.246 155.003Z" fill="#424343"/>
    <path d="M50.1401 155.038L45.2701 152.568L42.7703 157.52L47.6402 159.99L50.1401 155.038Z" fill="#424343"/>
    <path d="M52.7461 150.051L47.6644 147.474L45.0931 152.567L50.1748 155.144L52.7461 150.051Z" fill="#424343"/>
    <path d="M52.6398 150.087L47.7699 147.617L45.27 152.569L50.14 155.038L52.6398 150.087Z" fill="#424343"/>
    <path d="M55.2098 145.171L50.1282 142.594L47.5569 147.687L52.6386 150.264L55.2098 145.171Z" fill="#424343"/>
    <path d="M55.1041 145.206L50.2341 142.736L47.7343 147.688L52.6042 150.157L55.1041 145.206Z" fill="#424343"/>
    <path d="M57.7096 140.22L52.6279 137.643L50.0566 142.736L55.1383 145.313L57.7096 140.22Z" fill="#424343"/>
    <path d="M57.6038 140.254L52.7339 137.784L50.2697 142.665L55.1397 145.135L57.6038 140.254Z" fill="#424343"/>
    <path d="M60.1739 135.339L55.0923 132.762L52.521 137.855L57.6027 140.432L60.1739 135.339Z" fill="#424343"/>
    <path d="M60.0673 135.374L55.1974 132.904L52.6975 137.856L57.5675 140.325L60.0673 135.374Z" fill="#424343"/>
    <path d="M62.6742 130.387L57.5925 127.81L55.0212 132.903L60.1029 135.48L62.6742 130.387Z" fill="#424343"/>
    <path d="M62.5678 130.423L57.6979 127.953L55.198 132.904L60.0679 135.374L62.5678 130.423Z" fill="#424343"/>
    <path d="M65.1379 125.507L60.0563 122.93L57.485 128.023L62.5667 130.599L65.1379 125.507Z" fill="#262828"/>
    <path d="M65.0322 125.541L60.1622 123.072L57.6624 128.023L62.5323 130.493L65.0322 125.541Z" fill="#262828"/>
    <path d="M42.9126 157.414L37.8309 154.837L35.2597 159.93L40.3413 162.507L42.9126 157.414Z" fill="#424343"/>
    <path d="M42.8062 157.45L37.8657 154.945L29.8195 170.882L34.76 173.387L42.8062 157.45Z" fill="#424343"/>
    <path d="M45.3763 152.533L40.2947 149.956L37.7234 155.049L42.8051 157.626L45.3763 152.533Z" fill="#424343"/>
    <path d="M45.2706 152.569L40.3301 150.063L37.8302 155.015L42.7707 157.52L45.2706 152.569Z" fill="#424343"/>
    <path d="M47.8759 147.582L42.7942 145.005L40.2229 150.097L45.3046 152.674L47.8759 147.582Z" fill="#424343"/>
    <path d="M47.7702 147.618L42.8297 145.112L40.3299 150.064L45.2704 152.569L47.7702 147.618Z" fill="#424343"/>
    <path d="M50.3403 142.701L45.2587 140.124L42.6874 145.217L47.7691 147.794L50.3403 142.701Z" fill="#424343"/>
    <path d="M50.2338 142.737L45.2933 140.231L42.7935 145.183L47.734 147.688L50.2338 142.737Z" fill="#424343"/>
    <path d="M52.8398 137.75L47.7582 135.173L45.1869 140.266L50.2686 142.843L52.8398 137.75Z" fill="#424343"/>
    <path d="M52.7342 137.785L47.7937 135.279L45.3296 140.16L50.2701 142.665L52.7342 137.785Z" fill="#424343"/>
    <path d="M55.3044 132.87L50.2228 130.293L47.6515 135.386L52.7332 137.963L55.3044 132.87Z" fill="#424343"/>
    <path d="M55.1977 132.904L50.2572 130.399L47.7573 135.35L52.6978 137.856L55.1977 132.904Z" fill="#424343"/>
    <path d="M57.8048 127.917L52.7231 125.34L50.1519 130.433L55.2335 133.01L57.8048 127.917Z" fill="#424343"/>
    <path d="M57.6983 127.953L52.7578 125.448L50.258 130.399L55.1985 132.905L57.6983 127.953Z" fill="#424343"/>
    <path d="M60.2684 123.038L55.1868 120.461L52.6155 125.554L57.6972 128.131L60.2684 123.038Z" fill="#424343"/>
    <path d="M60.1625 123.072L55.222 120.567L52.7222 125.518L57.6627 128.023L60.1625 123.072Z" fill="#424343"/>
    <path d="M62.7689 118.086L57.6873 115.509L55.116 120.602L60.1976 123.179L62.7689 118.086Z" fill="#424343"/>
    <path d="M62.7517 118.079L57.8112 115.573L55.347 120.454L60.2875 122.959L62.7517 118.079Z" fill="white"/>
    <path d="M37.9708 154.909L32.8892 152.332L28.8505 160.331L33.9321 162.908L37.9708 154.909Z" fill="#262828"/>
    <path d="M40.4362 150.028L35.3545 147.451L32.7832 152.543L37.8649 155.12L40.4362 150.028Z" fill="#262828"/>
    <path d="M40.3304 150.063L35.3899 147.557L32.89 152.509L37.8305 155.014L40.3304 150.063Z" fill="#262828"/>
    <path d="M42.9349 145.077L37.8533 142.5L35.282 147.592L40.3637 150.169L42.9349 145.077Z" fill="#262828"/>
    <path d="M42.8302 145.112L37.8896 142.607L35.3898 147.558L40.3303 150.064L42.8302 145.112Z" fill="#262828"/>
    <path d="M45.4001 140.196L40.3185 137.619L37.7472 142.712L42.8289 145.289L45.4001 140.196Z" fill="#262828"/>
    <path d="M45.2935 140.231L40.353 137.725L37.8532 142.677L42.7937 145.182L45.2935 140.231Z" fill="#262828"/>
    <path d="M47.8998 135.245L42.8181 132.668L40.2468 137.761L45.3285 140.338L47.8998 135.245Z" fill="#262828"/>
    <path d="M47.794 135.279L42.8535 132.774L40.3894 137.655L45.3299 140.16L47.794 135.279Z" fill="#262828"/>
    <path d="M50.3643 130.364L45.2826 127.787L42.7113 132.88L47.793 135.457L50.3643 130.364Z" fill="#262828"/>
    <path d="M50.2584 130.399L45.3179 127.894L42.818 132.845L47.7585 135.35L50.2584 130.399Z" fill="#262828"/>
    <path d="M52.8639 125.412L47.7822 122.835L45.2109 127.928L50.2926 130.505L52.8639 125.412Z" fill="#424343"/>
    <path d="M52.758 125.447L47.8175 122.942L45.3176 127.893L50.2582 130.399L52.758 125.447Z" fill="#424343"/>
    <path d="M55.3274 120.532L50.2457 117.955L47.6744 123.048L52.7561 125.625L55.3274 120.532Z" fill="#424343"/>
    <path d="M55.2225 120.567L50.282 118.061L47.7821 123.013L52.7226 125.518L55.2225 120.567Z" fill="#424343"/>
    <path d="M57.8279 115.581L52.7462 113.004L50.1749 118.096L55.2566 120.673L57.8279 115.581Z" fill="#424343"/>
    <path d="M59.7084 114.026L49.9833 114.026L49.9833 119.496L59.7084 119.496L59.7084 114.026Z" fill="white"/>
    <path d="M37.4339 229.63L32.345 227.067L29.7881 232.167L34.877 234.73L37.4339 229.63Z" fill="#391709"/>
    <path d="M32.4858 227.138L27.3969 224.576L24.84 229.676L29.9289 232.238L32.4858 227.138Z" fill="#391709"/>
    <path d="M34.9724 222.179L29.8834 219.616L27.3265 224.717L32.4155 227.279L34.9724 222.179Z" fill="#482C02"/>
    <path d="M27.6092 224.682L22.5203 222.12L19.9634 227.22L25.0523 229.783L27.6092 224.682Z" fill="#391709"/>
    <path d="M30.095 219.724L25.0061 217.161L22.4492 222.261L27.5382 224.824L30.095 219.724Z" fill="#482C02"/>
    <path d="M32.5455 214.836L27.4565 212.274L24.8997 217.374L29.9886 219.936L32.5455 214.836Z" fill="#482C02"/>
    <path d="M22.5555 222.226L17.6079 219.734L15.1221 224.693L20.0696 227.184L22.5555 222.226Z" fill="#391709"/>
    <path d="M25.1472 217.232L20.0582 214.67L17.5014 219.77L22.5903 222.332L25.1472 217.232Z" fill="#482C02"/>
    <path d="M27.5976 212.345L22.5087 209.782L19.9518 214.882L25.0407 217.445L27.5976 212.345Z" fill="#482C02"/>
    <path d="M17.7132 219.7L12.6243 217.137L10.0674 222.237L15.1563 224.8L17.7132 219.7Z" fill="#391709"/>
    <path d="M20.1998 214.74L15.1108 212.178L12.554 217.278L17.6429 219.84L20.1998 214.74Z" fill="#482C02"/>
    <path d="M22.6503 209.854L17.5614 207.291L15.0045 212.391L20.0935 214.954L22.6503 209.854Z" fill="#482C02"/>
    <path d="M25.1362 204.895L20.0472 202.332L17.4904 207.433L22.5793 209.995L25.1362 204.895Z" fill="#482C02"/>
    <path d="M27.5865 200.007L22.4976 197.445L19.9407 202.545L25.0296 205.108L27.5865 200.007Z" fill="#424343"/>
    <path d="M30.0726 195.048L24.9836 192.486L22.4268 197.586L27.5157 200.149L30.0726 195.048Z" fill="#424343"/>
    <path d="M32.5223 190.161L27.4333 187.598L24.8765 192.698L29.9654 195.261L32.5223 190.161Z" fill="#424343"/>
    <path d="M35.0076 185.202L29.9187 182.64L27.3618 187.74L32.4508 190.303L35.0076 185.202Z" fill="#424343"/>
    <path d="M37.4936 180.243L32.4047 177.681L29.8478 182.781L34.9367 185.344L37.4936 180.243Z" fill="#424343"/>
    <path d="M39.944 175.356L34.8551 172.794L32.2982 177.894L37.3872 180.456L39.944 175.356Z" fill="#424343"/>
    <path d="M44.5233 166.102L39.4343 163.54L34.5087 173.365L39.5977 175.927L44.5233 166.102Z" fill="#424343"/>
    <path d="M12.8366 217.244L7.74768 214.681L5.19081 219.781L10.2797 222.344L12.8366 217.244Z" fill="#391709"/>
    <path d="M15.3226 212.285L10.2336 209.722L7.67677 214.823L12.7657 217.385L15.3226 212.285Z" fill="#482C02"/>
    <path d="M17.773 207.397L12.6841 204.835L10.1272 209.935L15.2162 212.498L17.773 207.397Z" fill="#482C02"/>
    <path d="M20.2589 202.439L15.1699 199.876L12.6131 204.976L17.702 207.539L20.2589 202.439Z" fill="#482C02"/>
    <path d="M22.7093 197.551L17.6204 194.989L15.0635 200.089L20.1524 202.651L22.7093 197.551Z" fill="#424343"/>
    <path d="M25.1954 192.593L20.1064 190.031L17.5496 195.131L22.6385 197.694L25.1954 192.593Z" fill="#424343"/>
    <path d="M27.6456 187.705L22.5566 185.142L19.9998 190.243L25.0887 192.805L27.6456 187.705Z" fill="#424343"/>
    <path d="M30.1317 182.747L25.0427 180.185L22.4859 185.285L27.5748 187.847L30.1317 182.747Z" fill="#424343"/>
    <path d="M32.6176 177.788L27.5287 175.226L24.9718 180.326L30.0608 182.888L32.6176 177.788Z" fill="#424343"/>
    <path d="M36.6292 169.785L31.5403 167.222L27.4214 175.438L32.5104 178.001L36.6292 169.785Z" fill="#424343"/>
    <path d="M7.88935 214.753L2.80042 212.19L0.243541 217.29L5.33247 219.853L7.88935 214.753Z" fill="#26031F"/>
    <path d="M10.3752 209.794L5.28625 207.231L2.72938 212.332L7.81831 214.894L10.3752 209.794Z" fill="#391709"/>
    <path d="M12.7193 204.942L7.77173 202.451L5.28588 207.409L10.2335 209.9L12.7193 204.942Z" fill="#391709"/>
    <path d="M15.3116 199.948L10.2227 197.385L7.66579 202.485L12.7547 205.048L15.3116 199.948Z" fill="#391709"/>
    <path d="M17.7614 195.06L12.6725 192.497L10.1156 197.597L15.2046 200.16L17.7614 195.06Z" fill="#262828"/>
    <path d="M20.2474 190.102L15.1584 187.539L12.6016 192.64L17.6905 195.202L20.2474 190.102Z" fill="#262828"/>
    <path d="M22.6977 185.213L17.6088 182.651L15.0519 187.751L20.1408 190.314L22.6977 185.213Z" fill="#262828"/>
    <path d="M25.1837 180.256L20.0947 177.693L17.5379 182.793L22.6268 185.356L25.1837 180.256Z" fill="#262828"/>
    <path d="M35.5024 159.67L30.4135 157.108L20.0228 177.834L25.1117 180.397L35.5024 159.67Z" fill="#262828"/>
    <path d="M81.0299 124.051H71.3964V134.498H81.0299V124.051Z" fill="#424343"/>
    <path d="M71.3964 124.051H61.6231V134.498H71.3964V124.051Z" fill="#424343"/>
    <path d="M61.6231 124.051H51.8513V134.498H61.6231V124.051Z" fill="#424343"/>
    <path d="M51.9897 124.051H42.2166V134.498H51.9897V124.051Z" fill="#424343"/>
    <path d="M103.196 82.3957L101.783 87.6792L107.055 89.0949L108.468 83.8114L103.196 82.3957Z" fill="#FFE4CE"/>
    <path d="M97.9244 80.9803L96.5118 86.2638L101.86 87.7L103.273 82.4165L97.9244 80.9803Z" fill="#FFE4CE"/>
    <path d="M92.576 79.544L91.1635 84.8276L96.5117 86.2638L97.9243 80.9803L92.576 79.544Z" fill="#FFE4CE"/>
    <path d="M83.2531 77.041L81.8405 82.3246L91.2397 84.8487L92.6523 79.5651L83.2531 77.041Z" fill="#FFE4CE"/>
    <path d="M81.9559 76.6916L80.5433 81.9751L85.8152 83.3908L87.2278 78.1073L81.9559 76.6916Z" fill="white"/>
    <path d="M76.6843 75.2764L75.2717 80.5599L80.62 81.9962L82.0326 76.7126L76.6843 75.2764Z" fill="white"/>
    <path d="M101.784 87.6795L100.35 93.0396L105.622 94.4553L107.055 89.0952L101.784 87.6795Z" fill="#FFE4CE"/>
    <path d="M96.5119 86.264L95.0789 91.6241L100.427 93.0604L101.86 87.7003L96.5119 86.264Z" fill="#FFE4CE"/>
    <path d="M91.1634 84.8278L89.7303 90.1879L95.0786 91.6242L96.5117 86.2641L91.1634 84.8278Z" fill="#FFE4CE"/>
    <path d="M81.3436 82.1904L79.9105 87.5505L89.8069 90.2081L91.24 84.848L81.3436 82.1904Z" fill="#F57E77"/>
    <path d="M80.5434 81.9753L79.1104 87.3354L84.3822 88.7512L85.8153 83.3911L80.5434 81.9753Z" fill="#F57E77"/>
    <path d="M75.2718 80.56L73.8387 85.9201L79.187 87.3563L80.6201 81.9962L75.2718 80.56Z" fill="#F57E77"/>
    <path d="M95.099 91.5472L93.6659 96.9073L99.0142 98.3436L100.447 92.9835L95.099 91.5472Z" fill="#FFE4CE"/>
    <path d="M89.7512 90.111L88.3181 95.4711L93.6664 96.9074L95.0995 91.5473L89.7512 90.111Z" fill="#F57E77"/>
    <path d="M80.467 81.9546L79.0339 87.3147L84.3822 88.7509L85.8153 83.3908L80.467 81.9546Z" fill="#C5C5C5"/>
    <path d="M80.9745 116.47H75.2793V122.178H80.9745V116.47Z" fill="white"/>
    <path d="M80.8956 116.55H75.4377V122.099H80.8956V116.55Z" fill="white"/>
    <path d="M80.9745 110.921H75.2793V116.629H80.9745V110.921Z" fill="white"/>
    <path d="M80.8956 111H75.4377V116.549H80.8956V111Z" fill="white"/>
    <path d="M80.9745 105.451H75.2793V111.159H80.9745V105.451Z" fill="white"/>
    <path d="M80.8956 105.53H75.4377V111H80.8956V105.53Z" fill="white"/>
    <path d="M80.9745 99.9018H75.2793V105.61H80.9745V99.9018Z" fill="white"/>
    <path d="M80.8956 99.9814H75.4377V105.531H80.8956V99.9814Z" fill="white"/>
    <path d="M80.9745 94.4319H75.2793V100.14H80.9745V94.4319Z" fill="white"/>
    <path d="M80.8956 94.5115H75.4377V100.061H80.8956V94.5115Z" fill="white"/>
    <path d="M80.9745 88.8831H75.2793V94.5908H80.9745V88.8831Z" fill="white"/>
    <path d="M80.8956 88.9618H75.4377V94.511H80.8956V88.9618Z" fill="white"/>
    <path d="M80.9745 83.413H75.2793V89.1208H80.9745V83.413Z" fill="white"/>
    <path d="M80.8956 83.4919H75.4377V88.9618H80.8956V83.4919Z" fill="white"/>
    <path d="M80.9745 77.8633H75.2793V83.5711H80.9745V77.8633Z" fill="white"/>
    <path d="M80.8946 77.264H75.4368V82.8132H80.8946V77.264Z" fill="white"/>
    <path d="M80.9745 72.3942H75.2793V78.102H80.9745V72.3942Z" fill="white"/>
    <path d="M80.8946 71.7941H75.4368V77.3433H80.8946V71.7941Z" fill="white"/>
    <path d="M80.9745 66.8445H75.2793V72.5523H80.9745V66.8445Z" fill="white"/>
    <path d="M80.8956 66.9233H75.4377V72.4725H80.8956V66.9233Z" fill="white"/>
    <path d="M80.9745 61.3745H75.2793V67.0823H80.9745V61.3745Z" fill="white"/>
    <path d="M80.8956 61.4542H75.4377V66.9241H80.8956V61.4542Z" fill="white"/>
    <path d="M80.9745 55.8257H75.2793V61.5334H80.9745V55.8257Z" fill="white"/>
    <path d="M80.8956 55.9045H75.4377V61.4537H80.8956V55.9045Z" fill="white"/>
    <path d="M84.8333 61.3471H79.3755V66.8963H84.8333V61.3471Z" fill="white"/>
    <path d="M84.8333 64.8298H79.3755V70.379H84.8333V64.8298Z" fill="white"/>
    <path d="M84.8333 68.3123H79.3755V73.8615H84.8333V68.3123Z" fill="white"/>
    <path d="M80.9745 17.2188H75.2793V22.9266H80.9745V17.2188Z" fill="#3D041F"/>
    <path d="M80.8956 17.2976H75.4377V22.8468H80.8956V17.2976Z" fill="#3D041F"/>
    <path d="M80.9745 11.7488H75.2793V17.4565H80.9745V11.7488Z" fill="#621931"/>
    <path d="M80.8956 11.8284H75.4377V17.3776H80.8956V11.8284Z" fill="#621931"/>
    <path d="M80.9745 6.19989H75.2793V11.9076H80.9745V6.19989Z" fill="#621931"/>
    <path d="M80.8956 6.27887H75.4377V11.8281H80.8956V6.27887Z" fill="#621931"/>
    <path d="M75.516 116.47H69.8208V122.178H75.516V116.47Z" fill="white"/>
    <path d="M75.516 110.921H69.8208V116.629H75.516V110.921Z" fill="white"/>
    <path d="M75.4371 111H69.9001V116.549H75.4371V111Z" fill="white"/>
    <path d="M75.516 105.451H69.8208V111.159H75.516V105.451Z" fill="white"/>
    <path d="M75.4371 105.53H69.9001V111H75.4371V105.53Z" fill="white"/>
    <path d="M75.516 99.9018H69.8208V105.61H75.516V99.9018Z" fill="white"/>
    <path d="M75.4371 99.9814H69.9001V105.531H75.4371V99.9814Z" fill="white"/>
    <path d="M75.516 94.4319H69.8208V100.14H75.516V94.4319Z" fill="white"/>
    <path d="M75.4371 94.5115H69.9001V100.061H75.4371V94.5115Z" fill="white"/>
    <path d="M75.516 88.8831H69.8208V94.5908H75.516V88.8831Z" fill="white"/>
    <path d="M75.4371 88.9618H69.9001V94.511H75.4371V88.9618Z" fill="white"/>
    <path d="M75.516 83.413H69.8208V89.1208H75.516V83.413Z" fill="white"/>
    <path d="M75.4371 83.4919H69.9001V88.9618H75.4371V83.4919Z" fill="white"/>
    <path d="M75.516 77.8633H69.8208V83.5711H75.516V77.8633Z" fill="white"/>
    <path d="M75.4371 77.943H69.9001V83.4922H75.4371V77.943Z" fill="white"/>
    <path d="M75.516 72.3942H69.8208V78.102H75.516V72.3942Z" fill="white"/>
    <path d="M75.4371 72.4731H69.9001V78.0223H75.4371V72.4731Z" fill="white"/>
    <path d="M75.516 66.8445H69.8208V72.5523H75.516V66.8445Z" fill="white"/>
    <path d="M75.4371 66.9233H69.9001V72.4725H75.4371V66.9233Z" fill="white"/>
    <path d="M75.516 61.3745H69.8208V67.0823H75.516V61.3745Z" fill="white"/>
    <path d="M75.4371 61.4542H69.9001V66.9241H75.4371V61.4542Z" fill="white"/>
    <path d="M75.516 55.8257H69.8208V61.5334H75.516V55.8257Z" fill="white"/>
    <path d="M75.4371 55.9045H69.9001V61.4537H75.4371V55.9045Z" fill="white"/>
    <path d="M75.516 33.7872H69.8208V39.495H75.516V33.7872Z" fill="#FFE4CE"/>
    <path d="M75.4371 33.8661H69.9001V39.4153H75.4371V33.8661Z" fill="#FFE4CE"/>
    <path d="M75.516 28.2375H69.8208V33.9453H75.516V28.2375Z" fill="#FFE4CE"/>
    <path d="M75.4371 28.3173H69.9001V33.8665H75.4371V28.3173Z" fill="#FFE4CE"/>
    <path d="M72.4265 23.04H62.0022V30.0049H72.4265V23.04Z" fill="#FFE4CE"/>
    <path d="M75.516 22.7684H69.8208V28.4762H75.516V22.7684Z" fill="#FFE4CE"/>
    <path d="M75.4371 22.8473H69.9001V28.3172H75.4371V22.8473Z" fill="#FFE4CE"/>
    <path d="M75.516 17.2188H69.8208V22.9266H75.516V17.2188Z" fill="#FFE4CE"/>
    <path d="M75.4371 17.2976H69.9001V22.8468H75.4371V17.2976Z" fill="#FFE4CE"/>
    <path d="M75.516 11.7488H69.8208V17.4565H75.516V11.7488Z" fill="#3D041F"/>
    <path d="M75.4371 11.8284H69.9001V17.3776H75.4371V11.8284Z" fill="#3D041F"/>
    <path d="M75.516 6.19989H69.8208V11.9076H75.516V6.19989Z" fill="#621931"/>
    <path d="M75.4371 6.27887H69.9001V11.8281H75.4371V6.27887Z" fill="#621931"/>
    <path d="M75.516 0.72998H69.8208V6.43773H75.516V0.72998Z" fill="#621931"/>
    <path d="M75.4371 0.808716H69.9001V6.27864H75.4371V0.808716Z" fill="#621931"/>
    <path d="M69.9793 116.47H64.2842V122.178H69.9793V116.47Z" fill="white"/>
    <path d="M69.9006 116.55H64.3636V122.099H69.9006V116.55Z" fill="white"/>
    <path d="M69.9793 110.921H64.2842V116.629H69.9793V110.921Z" fill="white"/>
    <path d="M69.9006 111H64.3636V116.549H69.9006V111Z" fill="white"/>
    <path d="M69.9793 105.451H64.2842V111.159H69.9793V105.451Z" fill="white"/>
    <path d="M69.9006 105.53H64.3636V111H69.9006V105.53Z" fill="white"/>
    <path d="M69.9793 99.9018H64.2842V105.61H69.9793V99.9018Z" fill="white"/>
    <path d="M69.9006 99.9814H64.3636V105.531H69.9006V99.9814Z" fill="white"/>
    <path d="M69.9793 94.4319H64.2842V100.14H69.9793V94.4319Z" fill="white"/>
    <path d="M69.9006 94.5115H64.3636V100.061H69.9006V94.5115Z" fill="white"/>
    <path d="M69.9793 88.8831H64.2842V94.5908H69.9793V88.8831Z" fill="white"/>
    <path d="M69.9006 88.9618H64.3636V94.511H69.9006V88.9618Z" fill="white"/>
    <path d="M69.9793 83.413H64.2842V89.1208H69.9793V83.413Z" fill="white"/>
    <path d="M69.9006 83.4919H64.3636V88.9618H69.9006V83.4919Z" fill="white"/>
    <path d="M69.9793 77.8633H64.2842V83.5711H69.9793V77.8633Z" fill="white"/>
    <path d="M69.9006 77.943H64.3636V83.4922H69.9006V77.943Z" fill="white"/>
    <path d="M69.9793 72.3942H64.2842V78.102H69.9793V72.3942Z" fill="white"/>
    <path d="M69.9006 72.4731H64.3636V78.0223H69.9006V72.4731Z" fill="white"/>
    <path d="M69.9793 66.8445H64.2842V72.5523H69.9793V66.8445Z" fill="white"/>
    <path d="M69.9006 66.9233H64.3636V72.4725H69.9006V66.9233Z" fill="white"/>
    <path d="M69.9793 61.3745H64.2842V67.0823H69.9793V61.3745Z" fill="white"/>
    <path d="M69.9006 61.4542H64.3636V66.9241H69.9006V61.4542Z" fill="white"/>
    <path d="M69.9793 55.8257H64.2842V61.5334H69.9793V55.8257Z" fill="#F57E77"/>
    <path d="M69.9006 55.9045H64.3636V61.4537H69.9006V55.9045Z" fill="#F57E77"/>
    <path d="M69.9793 50.2769H64.2842V55.9846H69.9793V50.2769Z" fill="#F57E77"/>
    <path d="M69.9006 50.3558H64.3636V55.905H69.9006V50.3558Z" fill="#F57E77"/>
    <path d="M69.9793 44.8061H64.2842V50.5138H69.9793V44.8061Z" fill="#F57E77"/>
    <path d="M69.9793 39.2573H64.2842V44.965H69.9793V39.2573Z" fill="#FFE4CE"/>
    <path d="M72.4261 19.5582H51.5775V30.0055H72.4261V19.5582Z" fill="#FFE4CE"/>
    <path d="M69.9793 33.7872H64.2842V39.495H69.9793V33.7872Z" fill="#FFE4CE"/>
    <path d="M69.9006 33.8661H64.3636V39.4153H69.9006V33.8661Z" fill="#FFE4CE"/>
    <path d="M69.9793 28.2375H64.2842V33.9453H69.9793V28.2375Z" fill="#FFE4CE"/>
    <path d="M69.9006 28.3173H64.3636V33.8665H69.9006V28.3173Z" fill="#FFE4CE"/>
    <path d="M69.9793 17.2188H64.2842V22.9266H69.9793V17.2188Z" fill="#FFE4CE"/>
    <path d="M69.9006 17.2976H64.3636V22.8468H69.9006V17.2976Z" fill="#FFE4CE"/>
    <path d="M69.9793 11.7488H64.2842V17.4565H69.9793V11.7488Z" fill="#FFE4CE"/>
    <path d="M69.9006 11.8284H64.3636V17.3776H69.9006V11.8284Z" fill="#FFE4CE"/>
    <path d="M69.9793 6.19989H64.2842V11.9076H69.9793V6.19989Z" fill="#3D041F"/>
    <path d="M69.9006 6.27887H64.3636V11.8281H69.9006V6.27887Z" fill="#3D041F"/>
    <path d="M69.9793 0.72998H64.2842V6.43773H69.9793V0.72998Z" fill="#621931"/>
    <path d="M69.9006 0.808716H64.3636V6.27864H69.9006V0.808716Z" fill="#621931"/>
    <path d="M60.967 122.178H55.4301V124.059H60.967V122.178Z" fill="#262828"/>
    <path d="M56.1862 120.549H45.762V124.031H56.1862V120.549Z" fill="#262828"/>
    <path d="M64.5224 110.921H58.8273V116.629H64.5224V110.921Z" fill="white"/>
    <path d="M64.442 111H58.905V116.549H64.442V111Z" fill="white"/>
    <path d="M64.5224 105.451H58.8273V111.159H64.5224V105.451Z" fill="white"/>
    <path d="M64.442 105.53H58.905V111H64.442V105.53Z" fill="white"/>
    <path d="M64.5224 99.9018H58.8273V105.61H64.5224V99.9018Z" fill="white"/>
    <path d="M64.442 99.9814H58.905V105.531H64.442V99.9814Z" fill="white"/>
    <path d="M64.5224 94.4319H58.8273V100.14H64.5224V94.4319Z" fill="white"/>
    <path d="M64.442 94.5115H58.905V100.061H64.442V94.5115Z" fill="white"/>
    <path d="M64.5224 88.8831H58.8273V94.5908H64.5224V88.8831Z" fill="white"/>
    <path d="M64.442 88.9618H58.905V94.511H64.442V88.9618Z" fill="white"/>
    <path d="M64.5224 83.413H58.8273V89.1208H64.5224V83.413Z" fill="white"/>
    <path d="M64.442 83.4919H58.905V88.9618H64.442V83.4919Z" fill="white"/>
    <path d="M64.5224 77.8633H58.8273V83.5711H64.5224V77.8633Z" fill="white"/>
    <path d="M64.442 77.943H58.905V83.4922H64.442V77.943Z" fill="white"/>
    <path d="M64.5224 72.3942H58.8273V78.102H64.5224V72.3942Z" fill="white"/>
    <path d="M64.442 72.4731H58.905V78.0223H64.442V72.4731Z" fill="white"/>
    <path d="M64.5224 66.8445H58.8273V72.5523H64.5224V66.8445Z" fill="white"/>
    <path d="M64.442 66.9233H58.905V72.4725H64.442V66.9233Z" fill="white"/>
    <path d="M64.5224 61.3745H58.8273V67.0823H64.5224V61.3745Z" fill="#F57E77"/>
    <path d="M69.8208 61.4542H58.905V69.2449H69.8208V61.4542Z" fill="white"/>
    <path d="M64.5224 55.8257H58.8273V61.5334H64.5224V55.8257Z" fill="#FFE4CE"/>
    <path d="M64.442 55.9045H58.905V61.4537H64.442V55.9045Z" fill="#FFE4CE"/>
    <path d="M64.5224 50.2769H58.8273V55.9846H64.5224V50.2769Z" fill="#FFE4CE"/>
    <path d="M64.442 50.3558H58.905V55.905H64.442V50.3558Z" fill="#FFE4CE"/>
    <path d="M64.5224 44.8061H58.8273V50.5138H64.5224V44.8061Z" fill="#FFE4CE"/>
    <path d="M64.442 44.8858H58.905V50.3557H64.442V44.8858Z" fill="#FFE4CE"/>
    <path d="M64.5224 39.2573H58.8273V44.965H64.5224V39.2573Z" fill="#FFE4CE"/>
    <path d="M64.442 39.3361H58.905V44.8853H64.442V39.3361Z" fill="#FFE4CE"/>
    <path d="M64.5224 33.7872H58.8273V39.495H64.5224V33.7872Z" fill="#FFE4CE"/>
    <path d="M64.442 33.8661H58.905V39.4153H64.442V33.8661Z" fill="#FFE4CE"/>
    <path d="M64.5224 28.2375H58.8273V33.9453H64.5224V28.2375Z" fill="#FFE4CE"/>
    <path d="M64.442 28.3173H58.905V33.8665H64.442V28.3173Z" fill="#FFE4CE"/>
    <path d="M64.5224 22.7684H58.8273V28.4762H64.5224V22.7684Z" fill="#FFE4CE"/>
    <path d="M64.442 22.8473H58.905V28.3172H64.442V22.8473Z" fill="#FFE4CE"/>
    <path d="M64.5224 17.2188H58.8273V22.9266H64.5224V17.2188Z" fill="#FFE4CE"/>
    <path d="M64.442 17.2976H58.905V22.8468H64.442V17.2976Z" fill="#FFE4CE"/>
    <path d="M64.5224 11.7488H58.8273V17.4565H64.5224V11.7488Z" fill="#FFE4CE"/>
    <path d="M64.442 11.8284H58.905V17.3776H64.442V11.8284Z" fill="#FFE4CE"/>
    <path d="M64.5224 6.19989H58.8273V11.9076H64.5224V6.19989Z" fill="#3D041F"/>
    <path d="M64.442 6.27887H58.905V11.8281H64.442V6.27887Z" fill="#3D041F"/>
    <path d="M64.5224 0.72998H58.8273V6.43773H64.5224V0.72998Z" fill="#621931"/>
    <path d="M64.442 0.808716H58.905V6.27864H64.442V0.808716Z" fill="#621931"/>
    <path d="M58.9848 110.921H53.2897V116.629H58.9848V110.921Z" fill="white"/>
    <path d="M58.8271 111H53.3693V116.549H58.8271V111Z" fill="white"/>
    <path d="M58.9848 105.451H53.2897V111.159H58.9848V105.451Z" fill="white"/>
    <path d="M58.8271 105.53H53.3693V111H58.8271V105.53Z" fill="white"/>
    <path d="M58.9848 99.9018H53.2897V105.61H58.9848V99.9018Z" fill="white"/>
    <path d="M58.8271 99.9814H53.3693V105.531H58.8271V99.9814Z" fill="white"/>
    <path d="M58.9848 94.4319H53.2897V100.14H58.9848V94.4319Z" fill="white"/>
    <path d="M58.8271 94.5115H53.3693V100.061H58.8271V94.5115Z" fill="white"/>
    <path d="M58.9848 88.8831H53.2897V94.5908H58.9848V88.8831Z" fill="white"/>
    <path d="M58.8271 88.9618H53.3693V94.511H58.8271V88.9618Z" fill="white"/>
    <path d="M58.9848 83.413H53.2897V89.1208H58.9848V83.413Z" fill="white"/>
    <path d="M58.8271 83.4919H53.3693V88.9618H58.8271V83.4919Z" fill="white"/>
    <path d="M58.9848 77.8633H53.2897V83.5711H58.9848V77.8633Z" fill="white"/>
    <path d="M58.8271 77.943H53.3693V83.4922H58.8271V77.943Z" fill="white"/>
    <path d="M58.9848 72.3942H53.2897V78.102H58.9848V72.3942Z" fill="white"/>
    <path d="M58.8271 72.4731H53.3693V78.0223H58.8271V72.4731Z" fill="white"/>
    <path d="M58.9848 66.8445H53.2897V72.5523H58.9848V66.8445Z" fill="white"/>
    <path d="M58.8271 66.9233H53.3693V72.4725H58.8271V66.9233Z" fill="white"/>
    <path d="M58.9848 61.3745H53.2897V67.0823H58.9848V61.3745Z" fill="white"/>
    <path d="M58.8271 61.4542H53.3693V66.9241H58.8271V61.4542Z" fill="white"/>
    <path d="M58.9848 55.8257H53.2897V61.5334H58.9848V55.8257Z" fill="#FFE4CE"/>
    <path d="M58.8271 55.9045H53.3693V61.4537H58.8271V55.9045Z" fill="#FFE4CE"/>
    <path d="M58.9848 50.2769H53.2897V55.9846H58.9848V50.2769Z" fill="#FFE4CE"/>
    <path d="M58.8271 50.3558H53.3693V55.905H58.8271V50.3558Z" fill="#FFE4CE"/>
    <path d="M58.9848 44.8061H53.2897V50.5138H58.9848V44.8061Z" fill="#FFE4CE"/>
    <path d="M58.8271 44.8858H53.3693V50.3557H58.8271V44.8858Z" fill="#FFE4CE"/>
    <path d="M58.9848 39.2573H53.2897V44.965H58.9848V39.2573Z" fill="#FFE4CE"/>
    <path d="M58.8271 39.3361H53.3693V44.8853H58.8271V39.3361Z" fill="#FFE4CE"/>
    <path d="M58.9848 33.7872H53.2897V39.495H58.9848V33.7872Z" fill="#FFE4CE"/>
    <path d="M58.8271 33.8661H53.3693V39.4153H58.8271V33.8661Z" fill="#FFE4CE"/>
    <path d="M58.9848 28.2375H53.2897V33.9453H58.9848V28.2375Z" fill="#FFE4CE"/>
    <path d="M58.8271 28.3173H53.3693V33.8665H58.8271V28.3173Z" fill="#FFE4CE"/>
    <path d="M58.9848 17.2188H53.2897V22.9266H58.9848V17.2188Z" fill="#FFE4CE"/>
    <path d="M58.8271 17.2976H53.3693V22.8468H58.8271V17.2976Z" fill="#FFE4CE"/>
    <path d="M58.9848 11.7488H53.2897V17.4565H58.9848V11.7488Z" fill="#FFE4CE"/>
    <path d="M58.8271 11.8284H53.3693V17.3776H58.8271V11.8284Z" fill="#FFE4CE"/>
    <path d="M58.9848 6.19989H53.2897V11.9076H58.9848V6.19989Z" fill="#3D041F"/>
    <path d="M58.8271 6.27887H53.3693V11.8281H58.8271V6.27887Z" fill="#3D041F"/>
    <path d="M58.9848 0.72998H53.2897V6.43773H58.9848V0.72998Z" fill="#621931"/>
    <path d="M58.8271 0.808716H53.3693V6.27864H58.8271V0.808716Z" fill="#621931"/>
    <path d="M53.5269 116.47H47.8318V122.178H53.5269V116.47Z" fill="white"/>
    <path d="M53.4475 116.55H47.9105V122.099H53.4475V116.55Z" fill="white"/>
    <path d="M53.5269 110.921H47.8318V116.629H53.5269V110.921Z" fill="white"/>
    <path d="M53.4475 111H47.9105V116.549H53.4475V111Z" fill="white"/>
    <path d="M53.5269 105.451H47.8318V111.159H53.5269V105.451Z" fill="white"/>
    <path d="M53.4475 105.53H47.9105V111H53.4475V105.53Z" fill="white"/>
    <path d="M53.5269 99.9018H47.8318V105.61H53.5269V99.9018Z" fill="white"/>
    <path d="M53.4475 99.9814H47.9105V105.531H53.4475V99.9814Z" fill="white"/>
    <path d="M53.5269 94.4319H47.8318V100.14H53.5269V94.4319Z" fill="white"/>
    <path d="M53.4475 94.5115H47.9105V100.061H53.4475V94.5115Z" fill="white"/>
    <path d="M53.5269 88.8831H47.8318V94.5908H53.5269V88.8831Z" fill="white"/>
    <path d="M53.4475 88.9618H47.9105V94.511H53.4475V88.9618Z" fill="white"/>
    <path d="M53.5269 83.413H47.8318V89.1208H53.5269V83.413Z" fill="white"/>
    <path d="M53.4475 83.4919H47.9105V88.9618H53.4475V83.4919Z" fill="white"/>
    <path d="M53.5269 77.8633H47.8318V83.5711H53.5269V77.8633Z" fill="white"/>
    <path d="M53.4475 77.943H47.9105V83.4922H53.4475V77.943Z" fill="white"/>
    <path d="M53.5269 72.3942H47.8318V78.102H53.5269V72.3942Z" fill="white"/>
    <path d="M53.4475 72.4731H47.9105V78.0223H53.4475V72.4731Z" fill="white"/>
    <path d="M53.5269 66.8445H47.8318V72.5523H53.5269V66.8445Z" fill="white"/>
    <path d="M53.4475 66.9233H47.9105V72.4725H53.4475V66.9233Z" fill="white"/>
    <path d="M53.5269 61.3745H47.8318V67.0823H53.5269V61.3745Z" fill="white"/>
    <path d="M53.4475 61.4542H47.9105V66.9241H53.4475V61.4542Z" fill="white"/>
    <path d="M53.5269 55.8257H47.8318V61.5334H53.5269V55.8257Z" fill="white"/>
    <path d="M53.2896 55.9045H47.9105V61.4537H53.2896V55.9045Z" fill="white"/>
    <path d="M53.5269 33.7872H47.8318V39.495H53.5269V33.7872Z" fill="#FFE4CE"/>
    <path d="M53.4475 33.8661H47.9105V39.4153H53.4475V33.8661Z" fill="#F57E77"/>
    <path d="M53.5269 28.2375H47.8318V33.9453H53.5269V28.2375Z" fill="#FFE4CE"/>
    <path d="M53.4475 28.3173H47.9105V33.8665H53.4475V28.3173Z" fill="#FFE4CE"/>
    <path d="M53.5269 22.7684H47.8318V28.4762H53.5269V22.7684Z" fill="#FFE4CE"/>
    <path d="M53.4475 22.8473H47.9105V28.3172H53.4475V22.8473Z" fill="#FFE4CE"/>
    <path d="M53.5269 17.2188H47.8318V22.9266H53.5269V17.2188Z" fill="#FFE4CE"/>
    <path d="M53.4475 17.2976H47.9105V22.8468H53.4475V17.2976Z" fill="#FFE4CE"/>
    <path d="M53.5269 11.7488H47.8318V17.4565H53.5269V11.7488Z" fill="#3D041F"/>
    <path d="M53.4475 11.8284H47.9105V17.3776H53.4475V11.8284Z" fill="#3D041F"/>
    <path d="M55.0529 16.0756H44.6287V23.0405H55.0529V16.0756Z" fill="#3D041F"/>
    <path d="M58.527 9.11053H51.5775V19.5579H58.527V9.11053Z" fill="#3D041F"/>
    <path d="M53.5269 6.19989H47.8318V11.9076H53.5269V6.19989Z" fill="#621931"/>
    <path d="M53.4475 6.27887H47.9105V11.8281H53.4475V6.27887Z" fill="#621931"/>
    <path d="M53.5269 0.72998H47.8318V6.43773H53.5269V0.72998Z" fill="#621931"/>
    <path d="M53.4475 0.808716H47.9105V6.27864H53.4475V0.808716Z" fill="#621931"/>
    <path d="M47.9903 116.47H42.2952V122.178H47.9903V116.47Z" fill="white"/>
    <path d="M47.911 116.55H42.374V122.099H47.911V116.55Z" fill="white"/>
    <path d="M47.9903 110.921H42.2952V116.629H47.9903V110.921Z" fill="white"/>
    <path d="M47.911 111H42.374V116.549H47.911V111Z" fill="white"/>
    <path d="M47.9903 105.451H42.2952V111.159H47.9903V105.451Z" fill="white"/>
    <path d="M47.911 105.53H42.374V111H47.911V105.53Z" fill="white"/>
    <path d="M47.9903 99.9018H42.2952V105.61H47.9903V99.9018Z" fill="white"/>
    <path d="M47.911 99.9814H42.374V105.531H47.911V99.9814Z" fill="white"/>
    <path d="M47.9903 94.4319H42.2952V100.14H47.9903V94.4319Z" fill="white"/>
    <path d="M47.9903 88.8831H42.2952V94.5908H47.9903V88.8831Z" fill="white"/>
    <path d="M47.911 88.9618H42.374V94.511H47.911V88.9618Z" fill="#C5C5C5"/>
    <path d="M47.9903 83.413H42.2952V89.1208H47.9903V83.413Z" fill="white"/>
    <path d="M47.9903 77.8633H42.2952V83.5711H47.9903V77.8633Z" fill="white"/>
    <path d="M47.911 77.943H42.374V83.4922H47.911V77.943Z" fill="white"/>
    <path d="M47.9903 72.3942H42.2952V78.102H47.9903V72.3942Z" fill="white"/>
    <path d="M47.911 72.4731H42.374V78.0223H47.911V72.4731Z" fill="white"/>
    <path d="M47.9903 66.8445H42.2952V72.5523H47.9903V66.8445Z" fill="white"/>
    <path d="M47.911 66.9233H42.374V72.4725H47.911V66.9233Z" fill="white"/>
    <path d="M47.9903 61.3745H42.2952V67.0823H47.9903V61.3745Z" fill="white"/>
    <path d="M47.911 61.4542H42.374V66.9241H47.911V61.4542Z" fill="white"/>
    <path d="M47.9903 55.8257H42.2952V61.5334H47.9903V55.8257Z" fill="white"/>
    <path d="M47.911 55.9045H42.374V61.4537H47.911V55.9045Z" fill="white"/>
    <path d="M47.9903 28.2375H42.2952V33.9453H47.9903V28.2375Z" fill="#3D041F"/>
    <path d="M47.911 28.3173H42.374V33.8665H47.911V28.3173Z" fill="#3D041F"/>
    <path d="M47.9903 22.7684H42.2952V28.4762H47.9903V22.7684Z" fill="#3D041F"/>
    <path d="M47.911 22.8473H42.374V28.3172H47.911V22.8473Z" fill="#3D041F"/>
    <path d="M47.9903 17.2188H42.2952V22.9266H47.9903V17.2188Z" fill="#621931"/>
    <path d="M47.911 17.2976H42.374V22.8468H47.911V17.2976Z" fill="#621931"/>
    <path d="M47.9903 11.7488H42.2952V17.4565H47.9903V11.7488Z" fill="#621931"/>
    <path d="M47.911 11.8284H42.374V17.3776H47.911V11.8284Z" fill="#621931"/>
    <path d="M47.9903 6.19989H42.2952V11.9076H47.9903V6.19989Z" fill="#621931"/>
    <path d="M47.911 6.27887H42.374V11.8281H47.911V6.27887Z" fill="#621931"/>
    <path d="M42.5316 72.3942H36.8364V78.102H42.5316V72.3942Z" fill="white"/>
    <path d="M42.453 72.4731H36.916V78.0223H42.453V72.4731Z" fill="white"/>
    <path d="M42.5316 66.8445H36.8364V72.5523H42.5316V66.8445Z" fill="white"/>
    <path d="M42.453 66.9233H36.916V72.4725H42.453V66.9233Z" fill="white"/>
    <path d="M42.5316 61.3745H36.8364V67.0823H42.5316V61.3745Z" fill="white"/>
    <path d="M42.453 61.4542H36.916V66.9241H42.453V61.4542Z" fill="white"/>
    <path d="M42.5316 55.8257H36.8364V61.5334H42.5316V55.8257Z" fill="white"/>
    <path d="M42.453 55.9045H36.916V61.4537H42.453V55.9045Z" fill="white"/>
    <path d="M44.6286 16.0756H37.6791V26.5229H44.6286V16.0756Z" fill="#3D041F"/>
    <path d="M36.9951 72.3942H31.2999V78.102H36.9951V72.3942Z" fill="white"/>
    <path d="M36.9951 66.8445H31.2999V72.5523H36.9951V66.8445Z" fill="white"/>
    <path d="M36.8373 66.9233H31.3794V72.4725H36.8373V66.9233Z" fill="white"/>
    <path d="M36.9951 61.3745H31.2999V67.0823H36.9951V61.3745Z" fill="white"/>
    <path d="M36.8373 61.4542H31.3794V66.9241H36.8373V61.4542Z" fill="white"/>
    <path d="M31.5371 72.3942H25.8419V78.102H31.5371V72.3942Z" fill="white"/>
    <path d="M31.5371 66.8445H25.8419V72.5523H31.5371V66.8445Z" fill="white"/>
    <path d="M31.4585 66.9233H25.9215V72.4725H31.4585V66.9233Z" fill="white"/>
    <path d="M43.216 23.04H37.6791V28.5892H43.216V23.04Z" fill="#3D041F"/>
    <path d="M71.172 23.04H65.4768V28.7477H71.172V23.04Z" fill="#66667C"/>
    <path d="M50.0873 26.5225H44.6294V32.0717H50.0873V26.5225Z" fill="#FFE4CE"/>
    <path d="M31.4585 72.4731H25.9215V78.0223H31.4585V72.4731Z" fill="white"/>
    <path d="M48.34 120.674L42.2167 120.674L42.2167 134.491L48.34 134.491L48.34 120.674Z" fill="#262828"/>
    <path d="M47.911 72.5527H42.374V88.9618H47.911V72.5527Z" fill="#C5C5C5"/>
    <path d="M47.911 86.2646H42.374V100.061H47.911V86.2646Z" fill="#C5C5C5"/>
    <path d="M45.9956 72.5021H36.7578V78.0513H45.9956V72.5021Z" fill="#C5C5C5"/>
    <path d="M47.8319 67.082H42.374V72.6312H47.8319V67.082Z" fill="#C5C5C5"/>
    <path d="M69.9789 39.4955H53.2889V44.7272H69.9789V39.4955Z" fill="#FFE4CE"/>
    <path d="M69.8214 45.0444H52.9907V51.2046H69.8214V45.0444Z" fill="#F57E77"/>
    <path d="M58.5277 39.4955H52.9907V45.0447H58.5277V39.4955Z" fill="#F57E77"/>
    <path d="M23.5321 88.618L29.0641 88.3833L29.7446 104.496L24.2126 104.731L23.5321 88.618Z" fill="#C5C5C5"/>
    <path d="M23.2976 83.0733L28.8296 82.8386L29.0637 88.3829L23.5317 88.6175L23.2976 83.0733Z" fill="#C5C5C5"/>
    <path d="M23.0665 77.6083L28.5985 77.3737L28.8327 82.9179L23.3007 83.1526L23.0665 77.6083Z" fill="#C5C5C5"/>
    <path d="M29.0638 88.3831L34.5958 88.1484L34.8266 93.6134L29.2946 93.8481L29.0638 88.3831Z" fill="white"/>
    <path d="M28.8301 82.8392L34.3621 82.6046L34.5962 88.1488L29.0642 88.3835L28.8301 82.8392Z" fill="white"/>
    <path d="M28.5991 77.3743L34.1311 77.1396L34.3653 82.6838L28.8333 82.9185L28.5991 77.3743Z" fill="white"/>
    <path d="M64.5223 116.47H53.0642V122.178H64.5223V116.47Z" fill="white"/>
    <path d="M81.0298 120.549H71.3963V126.678H81.0298V120.549Z" fill="#262828"/>
    <path d="M71.3963 120.549H61.6231V126.678H71.3963V120.549Z" fill="#262828"/>
    <path d="M61.6231 120.549H51.8513V126.678H61.6231V120.549Z" fill="#262828"/>
    <path d="M51.9896 120.549H42.2166V126.678H51.9896V120.549Z" fill="#262828"/>
    <path d="M69.9794 55.7928H53.2897V61.5121H69.9794V55.7928Z" fill="white"/>
    <path d="M69.9793 55.7389H64.2743V71.794H69.9793V55.7389Z" fill="white"/>
    <path d="M69.9791 55.9522H64.3549V66.8882H69.9791V55.9522Z" fill="white"/>
    <path d="M64.3309 55.7389H58.8877V66.6748H64.3309V55.7389Z" fill="white"/>
    <path d="M36.8372 72.4731H24.7129V78.0223H36.8372V72.4731Z" fill="white"/>
    <path d="M25.9996 72.3942H20.3044V78.102H25.9996V72.3942Z" fill="white"/>
    <path d="M58.7479 55.7774H53.29V61.3266H58.7479V55.7774Z" fill="#C5C5C5"/>
    <path d="M64.2058 61.3266H58.7479V66.8758H64.2058V61.3266Z" fill="#C5C5C5"/>
    <path d="M69.7423 66.8758H64.2844V120.454H69.7423V66.8758Z" fill="#C5C5C5"/>
    <path d="M75.2717 55.9045H69.8138V66.8436H75.2717V55.9045Z" fill="#C5C5C5"/>
    <path d="M28.1888 93.5198L29.2485 98.8856L40.9971 96.5551L39.9374 91.1892L28.1888 93.5198Z" fill="white"/>
    <path d="M28.6947 98.9951L29.7698 104.439L43.935 101.629L42.8599 96.1851L28.6947 98.9951Z" fill="#C5C5C5"/>
    <path d="M61.4311 86.9257L62.4908 92.2915L67.8448 91.2294L66.7851 85.8636L61.4311 86.9257Z" fill="#FFE4CE"/>
    <path d="M56.077 87.9866L57.1367 93.3524L62.5683 92.275L61.5086 86.9091L56.077 87.9866Z" fill="#FFE4CE"/>
    <path d="M50.6457 89.0647L51.7054 94.4305L57.137 93.353L56.0773 87.9872L50.6457 89.0647Z" fill="#FFE4CE"/>
    <path d="M43.7121 90.4394L44.7719 95.8052L51.7828 94.4145L50.7231 89.0487L43.7121 90.4394Z" fill="#FFE4CE"/>
    <path d="M39.8602 91.2035L40.9199 96.5693L46.2739 95.5073L45.2142 90.1414L39.8602 91.2035Z" fill="white"/>
    <path d="M62.4907 92.2909L63.5658 97.7345L68.9198 96.6724L67.8447 91.2288L62.4907 92.2909Z" fill="#FFE4CE"/>
    <path d="M57.1368 93.3529L58.2119 98.7965L63.6435 97.7191L62.5684 92.2755L57.1368 93.3529Z" fill="#FFE4CE"/>
    <path d="M51.7049 94.4302L52.78 99.8738L58.2116 98.7964L57.1365 93.3528L51.7049 94.4302Z" fill="#FFE4CE"/>
    <path d="M44.7996 95.8001L45.8746 101.244L52.8579 99.8584L51.7829 94.4149L44.7996 95.8001Z" fill="#F57E77"/>
    <path d="M40.92 96.5697L41.9951 102.013L47.3491 100.951L46.274 95.5077L40.92 96.5697Z" fill="#C5C5C5"/>
    <path d="M58.1965 98.7186L59.2716 104.162L64.7032 103.085L63.6281 97.6411L58.1965 98.7186Z" fill="#FFE4CE"/>
    <path d="M52.7656 99.7959L53.8407 105.24L59.2723 104.162L58.1972 98.7185L52.7656 99.7959Z" fill="#F57E77"/>
</svg>
