<svg width="121" height="235" viewBox="0 0 121 235" fill="none" xmlns="http://www.w3.org/2000/svg">
    <path d="M28.1491 223.898L33.3 221.463L35.7297 226.625L30.5788 229.06L28.1491 223.898Z" fill="#391709"/>
    <path d="M33.1566 221.531L38.3075 219.096L40.7371 224.258L35.5862 226.693L33.1566 221.531Z" fill="#391709"/>
    <path d="M30.7942 216.511L35.9451 214.076L38.3747 219.239L33.2238 221.674L30.7942 216.511Z" fill="#482C02"/>
    <path d="M38.0937 219.197L43.2446 216.762L45.6742 221.924L40.5233 224.359L38.0937 219.197Z" fill="#391709"/>
    <path d="M35.7313 214.177L40.8822 211.742L43.3118 216.905L38.1609 219.34L35.7313 214.177Z" fill="#482C02"/>
    <path d="M33.4026 209.231L38.5535 206.796L40.9831 211.959L35.8322 214.394L33.4026 209.231Z" fill="#482C02"/>
    <path d="M43.2059 216.867L48.2137 214.5L50.5759 219.519L45.568 221.886L43.2059 216.867Z" fill="#391709"/>
    <path d="M40.7387 211.81L45.8896 209.375L48.3193 214.538L43.1684 216.973L40.7387 211.81Z" fill="#482C02"/>
    <path d="M38.4107 206.864L43.5616 204.429L45.9913 209.591L40.8404 212.026L38.4107 206.864Z" fill="#482C02"/>
    <path d="M48.1094 214.462L53.2603 212.027L55.6899 217.189L50.539 219.624L48.1094 214.462Z" fill="#391709"/>
    <path d="M45.747 209.443L50.8979 207.008L53.3276 212.17L48.1767 214.605L45.747 209.443Z" fill="#482C02"/>
    <path d="M43.4181 204.497L48.569 202.062L50.9986 207.224L45.8477 209.659L43.4181 204.497Z" fill="#482C02"/>
    <path d="M41.0558 199.477L46.2067 197.042L48.6363 202.205L43.4854 204.64L41.0558 199.477Z" fill="#482C02"/>
    <path d="M38.7274 194.53L43.8783 192.095L46.3079 197.257L41.157 199.692L38.7274 194.53Z" fill="#424343"/>
    <path d="M36.3656 189.512L41.5165 187.077L43.9461 192.239L38.7952 194.674L36.3656 189.512Z" fill="#424343"/>
    <path d="M34.0371 184.564L39.188 182.129L41.6176 187.292L36.4667 189.727L34.0371 184.564Z" fill="#424343"/>
    <path d="M31.6759 179.545L36.8268 177.11L39.2564 182.273L34.1055 184.708L31.6759 179.545Z" fill="#424343"/>
    <path d="M29.3136 174.526L34.4645 172.091L36.8941 177.253L31.7432 179.688L29.3136 174.526Z" fill="#424343"/>
    <path d="M23.9764 163.188L29.1273 160.753L34.5649 172.306L29.414 174.741L23.9764 163.188Z" fill="#424343"/>
    <path d="M53.045 212.129L58.1959 209.694L60.6255 214.856L55.4746 217.291L53.045 212.129Z" fill="#391709"/>
    <path d="M50.6826 207.11L55.8335 204.675L58.2631 209.837L53.1122 212.272L50.6826 207.11Z" fill="#482C02"/>
    <path d="M48.3546 202.163L53.5055 199.728L55.9351 204.89L50.7842 207.325L48.3546 202.163Z" fill="#482C02"/>
    <path d="M45.9922 197.144L51.1431 194.709L53.5727 199.871L48.4218 202.306L45.9922 197.144Z" fill="#482C02"/>
    <path d="M43.6638 192.197L48.8147 189.762L51.2443 194.924L46.0934 197.359L43.6638 192.197Z" fill="#424343"/>
    <path d="M41.3019 187.178L46.4528 184.743L48.8824 189.905L43.7315 192.34L41.3019 187.178Z" fill="#424343"/>
    <path d="M38.9734 182.231L44.1243 179.796L46.5539 184.958L41.403 187.393L38.9734 182.231Z" fill="#424343"/>
    <path d="M36.6112 177.211L41.7621 174.776L44.1917 179.939L39.0408 182.374L36.6112 177.211Z" fill="#424343"/>
    <path d="M34.2492 172.193L39.4001 169.758L41.8298 174.92L36.6789 177.355L34.2492 172.193Z" fill="#424343"/>
    <path d="M27.8703 158.637L33.0212 156.202L39.5022 169.973L34.3513 172.408L27.8703 158.637Z" fill="#424343"/>
    <path d="M58.0533 209.761L63.2042 207.326L65.6338 212.489L60.4829 214.924L58.0533 209.761Z" fill="#26031F"/>
    <path d="M55.6909 204.742L60.8418 202.307L63.2714 207.469L58.1205 209.904L55.6909 204.742Z" fill="#391709"/>
    <path d="M53.4672 199.834L58.475 197.467L60.8371 202.486L55.8293 204.853L53.4672 199.834Z" fill="#391709"/>
    <path d="M51.0006 194.776L56.1515 192.341L58.5811 197.503L53.4302 199.938L51.0006 194.776Z" fill="#391709"/>
    <path d="M48.6722 189.829L53.8231 187.394L56.2527 192.556L51.1018 194.991L48.6722 189.829Z" fill="#262828"/>
    <path d="M46.3102 184.81L51.4611 182.375L53.8907 187.538L48.7398 189.973L46.3102 184.81Z" fill="#262828"/>
    <path d="M43.9818 179.863L49.1327 177.428L51.5623 182.59L46.4114 185.025L43.9818 179.863Z" fill="#262828"/>
    <path d="M41.6195 174.844L46.7704 172.409L49.2 177.571L44.0491 180.006L41.6195 174.844Z" fill="#262828"/>
    <path d="M39.2574 169.825L44.4083 167.39L46.8379 172.553L41.687 174.988L39.2574 169.825Z" fill="#262828"/>
    <path d="M30.6127 151.323L35.7013 148.917L44.6465 167.923L39.5579 170.329L30.6127 151.323Z" fill="#262828"/>
    <path d="M26.307 158.24L31.4764 160.635L29.0864 165.816L23.917 163.421L26.307 158.24Z" fill="#424343"/>
    <path d="M26.3454 158.345L31.2994 160.64L29.009 165.605L24.055 163.31L26.3454 158.345Z" fill="#424343"/>
    <path d="M28.5967 153.275L33.7661 155.67L31.3761 160.851L26.2067 158.456L28.5967 153.275Z" fill="#424343"/>
    <path d="M28.6357 153.38L33.5897 155.676L31.2661 160.713L26.3121 158.417L28.6357 153.38Z" fill="#424343"/>
    <path d="M30.9211 148.238L36.0905 150.634L33.7004 155.814L28.531 153.419L30.9211 148.238Z" fill="#424343"/>
    <path d="M30.9592 148.344L35.9132 150.639L33.5896 155.676L28.6356 153.381L30.9592 148.344Z" fill="#424343"/>
    <path d="M33.2115 143.273L38.3809 145.668L35.9908 150.849L30.8215 148.454L33.2115 143.273Z" fill="#424343"/>
    <path d="M33.2503 143.379L38.2043 145.674L35.8807 150.711L30.9267 148.415L33.2503 143.379Z" fill="#424343"/>
    <path d="M35.535 138.236L40.7043 140.632L38.3143 145.812L33.1449 143.417L35.535 138.236Z" fill="#424343"/>
    <path d="M35.5737 138.341L40.5277 140.637L38.2373 145.602L33.2833 143.306L35.5737 138.341Z" fill="#424343"/>
    <path d="M37.8254 133.271L42.9948 135.666L40.6047 140.847L35.4353 138.452L37.8254 133.271Z" fill="#424343"/>
    <path d="M37.8641 133.377L42.8181 135.672L40.4945 140.709L35.5405 138.414L37.8641 133.377Z" fill="#424343"/>
    <path d="M40.1496 128.234L45.319 130.629L42.929 135.81L37.7596 133.415L40.1496 128.234Z" fill="#424343"/>
    <path d="M40.1877 128.339L45.1417 130.635L42.8181 135.672L37.8641 133.376L40.1877 128.339Z" fill="#424343"/>
    <path d="M42.4391 123.269L47.6085 125.665L45.2185 130.845L40.0491 128.45L42.4391 123.269Z" fill="#262828"/>
    <path d="M42.478 123.375L47.432 125.67L45.1084 130.707L40.1544 128.412L42.478 123.375Z" fill="#262828"/>
    <path d="M31.2607 160.535L36.4301 162.93L34.04 168.111L28.8706 165.715L31.2607 160.535Z" fill="#424343"/>
    <path d="M31.2992 160.641L36.325 162.97L34.0345 167.935L29.0087 165.606L31.2992 160.641Z" fill="#424343"/>
    <path d="M33.5511 155.57L38.7205 157.966L36.3304 163.146L31.161 160.751L33.5511 155.57Z" fill="#424343"/>
    <path d="M33.5893 155.676L38.6151 158.005L36.2915 163.041L31.2657 160.713L33.5893 155.676Z" fill="#424343"/>
    <path d="M35.8753 150.534L41.0447 152.929L38.6547 158.11L33.4853 155.714L35.8753 150.534Z" fill="#424343"/>
    <path d="M35.9129 150.639L40.9387 152.968L38.6151 158.005L33.5893 155.676L35.9129 150.639Z" fill="#424343"/>
    <path d="M38.1647 145.568L43.3341 147.964L40.9441 153.145L35.7747 150.749L38.1647 145.568Z" fill="#424343"/>
    <path d="M38.2042 145.674L43.23 148.003L40.9064 153.04L35.8806 150.711L38.2042 145.674Z" fill="#424343"/>
    <path d="M40.4892 140.532L45.6586 142.927L43.2686 148.108L38.0992 145.713L40.4892 140.532Z" fill="#424343"/>
    <path d="M40.5275 140.637L45.5533 142.965L43.2629 147.93L38.2371 145.601L40.5275 140.637Z" fill="#424343"/>
    <path d="M42.7786 135.567L47.948 137.962L45.558 143.143L40.3886 140.747L42.7786 135.567Z" fill="#424343"/>
    <path d="M42.818 135.672L47.8438 138.001L45.5201 143.038L40.4943 140.709L42.818 135.672Z" fill="#424343"/>
    <path d="M45.1031 130.529L50.2725 132.924L47.8824 138.105L42.713 135.71L45.1031 130.529Z" fill="#424343"/>
    <path d="M45.1414 130.635L50.1672 132.963L47.8436 138L42.8178 135.671L45.1414 130.635Z" fill="#424343"/>
    <path d="M47.3935 125.565L52.5629 127.96L50.1728 133.141L45.0034 130.746L47.3935 125.565Z" fill="#424343"/>
    <path d="M47.4317 125.669L52.4575 127.998L50.1339 133.035L45.1081 130.706L47.4317 125.669Z" fill="#424343"/>
    <path d="M49.717 120.528L54.8864 122.923L52.4963 128.104L47.3269 125.709L49.717 120.528Z" fill="#424343"/>
    <path d="M49.7552 120.633L54.781 122.961L52.4906 127.926L47.4648 125.598L49.7552 120.633Z" fill="#424343"/>
    <path d="M38.5766 157.899L43.746 160.294L41.356 165.475L36.1866 163.08L38.5766 157.899Z" fill="#262828"/>
    <path d="M38.6148 158.004L43.6406 160.332L41.317 165.369L36.2912 163.04L38.6148 158.004Z" fill="#262828"/>
    <path d="M40.9009 152.862L46.0703 155.258L43.6803 160.438L38.5109 158.043L40.9009 152.862Z" fill="#262828"/>
    <path d="M40.9383 152.967L45.9641 155.296L43.6405 160.333L38.6147 158.004L40.9383 152.967Z" fill="#262828"/>
    <path d="M43.1912 147.897L48.3606 150.292L45.9706 155.473L40.8012 153.078L43.1912 147.897Z" fill="#262828"/>
    <path d="M43.2296 148.002L48.2554 150.33L45.9317 155.367L40.9059 153.039L43.2296 148.002Z" fill="#262828"/>
    <path d="M45.5147 142.86L50.6841 145.256L48.2941 150.436L43.1247 148.041L45.5147 142.86Z" fill="#262828"/>
    <path d="M45.5531 142.965L50.5789 145.294L48.2884 150.259L43.2626 147.93L45.5531 142.965Z" fill="#262828"/>
    <path d="M47.805 137.895L52.9744 140.29L50.5843 145.471L45.415 143.076L47.805 137.895Z" fill="#262828"/>
    <path d="M50.1293 132.859L55.2987 135.254L52.9087 140.435L47.7393 138.039L50.1293 132.859Z" fill="#424343"/>
    <path d="M50.1668 132.963L55.1926 135.292L52.869 140.329L47.8432 138L50.1668 132.963Z" fill="#424343"/>
    <path d="M52.4189 127.893L57.5883 130.289L55.1982 135.469L50.0288 133.074L52.4189 127.893Z" fill="#424343"/>
    <path d="M52.4572 127.998L57.483 130.327L55.1594 135.364L50.1336 133.035L52.4572 127.998Z" fill="#424343"/>
    <path d="M54.7423 122.857L59.9117 125.252L57.5217 130.433L52.3523 128.037L54.7423 122.857Z" fill="#424343"/>
    <path d="M54.7808 122.961L59.8066 125.29L57.5162 130.255L52.4904 127.926L54.7808 122.961Z" fill="#424343"/>
    <path d="M57.0663 117.82L62.2361 120.215L59.8451 125.395L54.6753 123.001L57.0663 117.82Z" fill="white"/>
    <path d="M50.7028 131.8L55.7286 134.129L50.5447 145.366L45.5189 143.037L50.7028 131.8Z" fill="#262828"/>
    <path d="M73.1168 159.476L78.1985 156.899L80.7698 161.992L75.6881 164.569L73.1168 159.476Z" fill="#424343"/>
    <path d="M73.2235 159.512L78.0934 157.042L82.6058 165.98L77.7359 168.449L73.2235 159.512Z" fill="#424343"/>
    <path d="M70.6532 154.596L75.7349 152.019L78.3061 157.112L73.2245 159.689L70.6532 154.596Z" fill="#424343"/>
    <path d="M70.7591 154.63L75.629 152.161L78.1289 157.112L73.259 159.582L70.7591 154.63Z" fill="#424343"/>
    <path d="M68.1531 149.644L73.2347 147.067L75.806 152.16L70.7244 154.737L68.1531 149.644Z" fill="#424343"/>
    <path d="M68.2593 149.679L73.1293 147.21L75.6291 152.161L70.7592 154.631L68.2593 149.679Z" fill="#424343"/>
    <path d="M65.6893 144.763L70.771 142.186L73.3423 147.279L68.2606 149.856L65.6893 144.763Z" fill="#424343"/>
    <path d="M65.7951 144.798L70.665 142.328L73.1649 147.28L68.295 149.749L65.7951 144.798Z" fill="#424343"/>
    <path d="M63.1896 139.812L68.2712 137.235L70.8425 142.328L65.7609 144.905L63.1896 139.812Z" fill="#424343"/>
    <path d="M63.2954 139.846L68.1653 137.377L70.6294 142.257L65.7595 144.727L63.2954 139.846Z" fill="#424343"/>
    <path d="M60.7252 134.931L65.8069 132.354L68.3782 137.447L63.2965 140.024L60.7252 134.931Z" fill="#424343"/>
    <path d="M60.8319 134.966L65.7018 132.496L68.2016 137.448L63.3317 139.917L60.8319 134.966Z" fill="#424343"/>
    <path d="M58.225 129.979L63.3066 127.402L65.8779 132.495L60.7963 135.072L58.225 129.979Z" fill="#424343"/>
    <path d="M58.3314 130.015L63.2013 127.545L65.7012 132.497L60.8312 134.966L58.3314 130.015Z" fill="#424343"/>
    <path d="M55.7612 125.099L60.8429 122.522L63.4142 127.615L58.3325 130.192L55.7612 125.099Z" fill="#262828"/>
    <path d="M55.867 125.134L60.7369 122.664L63.2368 127.615L58.3669 130.085L55.867 125.134Z" fill="#262828"/>
    <path d="M77.9866 157.006L83.0682 154.429L85.6395 159.522L80.5578 162.099L77.9866 157.006Z" fill="#424343"/>
    <path d="M78.0929 157.042L83.0334 154.537L91.0796 170.474L86.1391 172.979L78.0929 157.042Z" fill="#424343"/>
    <path d="M75.5228 152.126L80.6045 149.549L83.1758 154.642L78.0941 157.219L75.5228 152.126Z" fill="#424343"/>
    <path d="M75.6286 152.161L80.5691 149.656L83.0689 154.607L78.1284 157.112L75.6286 152.161Z" fill="#424343"/>
    <path d="M73.0233 147.174L78.105 144.597L80.6763 149.69L75.5946 152.267L73.0233 147.174Z" fill="#424343"/>
    <path d="M73.129 147.21L78.0695 144.704L80.5693 149.656L75.6288 152.161L73.129 147.21Z" fill="#424343"/>
    <path d="M70.5588 142.294L75.6405 139.717L78.2118 144.809L73.1301 147.386L70.5588 142.294Z" fill="#424343"/>
    <path d="M70.6653 142.329L75.6058 139.823L78.1057 144.775L73.1652 147.28L70.6653 142.329Z" fill="#424343"/>
    <path d="M68.0593 137.342L73.141 134.765L75.7123 139.858L70.6306 142.435L68.0593 137.342Z" fill="#424343"/>
    <path d="M68.165 137.377L73.1055 134.871L75.5696 139.752L70.6291 142.258L68.165 137.377Z" fill="#424343"/>
    <path d="M65.5947 132.462L70.6764 129.885L73.2477 134.978L68.166 137.555L65.5947 132.462Z" fill="#424343"/>
    <path d="M65.7015 132.497L70.642 129.991L73.1418 134.943L68.2013 137.448L65.7015 132.497Z" fill="#424343"/>
    <path d="M63.0944 127.509L68.176 124.932L70.7473 130.025L65.6656 132.602L63.0944 127.509Z" fill="#424343"/>
    <path d="M63.2009 127.545L68.1414 125.04L70.6412 129.991L65.7007 132.497L63.2009 127.545Z" fill="#424343"/>
    <path d="M60.6307 122.63L65.7124 120.053L68.2837 125.146L63.202 127.723L60.6307 122.63Z" fill="#424343"/>
    <path d="M60.7366 122.664L65.6771 120.159L68.177 125.11L63.2365 127.616L60.7366 122.664Z" fill="#424343"/>
    <path d="M58.1302 117.678L63.2119 115.101L65.7832 120.194L60.7015 122.771L58.1302 117.678Z" fill="#424343"/>
    <path d="M58.1475 117.671L63.088 115.165L65.5522 120.046L60.6117 122.551L58.1475 117.671Z" fill="white"/>
    <path d="M82.9283 154.501L88.01 151.924L92.0487 159.923L86.9671 162.5L82.9283 154.501Z" fill="#262828"/>
    <path d="M80.463 149.62L85.5447 147.043L88.116 152.136L83.0343 154.713L80.463 149.62Z" fill="#262828"/>
    <path d="M80.5688 149.655L85.5093 147.15L88.0091 152.101L83.0686 154.606L80.5688 149.655Z" fill="#262828"/>
    <path d="M77.9642 144.669L83.0459 142.092L85.6172 147.185L80.5355 149.762L77.9642 144.669Z" fill="#262828"/>
    <path d="M78.069 144.705L83.0095 142.199L85.5094 147.151L80.5689 149.656L78.069 144.705Z" fill="#262828"/>
    <path d="M75.499 139.788L80.5807 137.211L83.152 142.304L78.0703 144.881L75.499 139.788Z" fill="#262828"/>
    <path d="M75.6056 139.823L80.5461 137.317L83.046 142.269L78.1055 144.774L75.6056 139.823Z" fill="#262828"/>
    <path d="M72.9994 134.837L78.0811 132.26L80.6523 137.353L75.5707 139.93L72.9994 134.837Z" fill="#262828"/>
    <path d="M73.1051 134.872L78.0457 132.366L80.5098 137.247L75.5693 139.752L73.1051 134.872Z" fill="#262828"/>
    <path d="M70.5349 129.956L75.6166 127.379L78.1879 132.472L73.1062 135.049L70.5349 129.956Z" fill="#262828"/>
    <path d="M70.6408 129.991L75.5813 127.486L78.0812 132.437L73.1406 134.943L70.6408 129.991Z" fill="#262828"/>
    <path d="M68.0353 125.004L73.1169 122.427L75.6882 127.52L70.6066 130.097L68.0353 125.004Z" fill="#424343"/>
    <path d="M68.1412 125.04L73.0817 122.534L75.5815 127.486L70.641 129.991L68.1412 125.04Z" fill="#424343"/>
    <path d="M65.5718 120.124L70.6534 117.547L73.2247 122.64L68.1431 125.217L65.5718 120.124Z" fill="#424343"/>
    <path d="M65.6767 120.159L70.6172 117.654L73.117 122.605L68.1765 125.11L65.6767 120.159Z" fill="#424343"/>
    <path d="M63.0713 115.173L68.153 112.596L70.7242 117.689L65.6426 120.266L63.0713 115.173Z" fill="#424343"/>
    <path d="M61.1908 113.618L70.9159 113.618L70.9159 119.088L61.1908 119.088L61.1908 113.618Z" fill="white"/>
    <path d="M83.4653 229.222L88.5542 226.659L91.1111 231.76L86.0221 234.322L83.4653 229.222Z" fill="#391709"/>
    <path d="M88.4134 226.73L93.5023 224.168L96.0592 229.268L90.9703 231.831L88.4134 226.73Z" fill="#391709"/>
    <path d="M85.9268 221.771L91.0157 219.209L93.5726 224.309L88.4837 226.871L85.9268 221.771Z" fill="#482C02"/>
    <path d="M93.29 224.275L98.3789 221.712L100.936 226.812L95.8468 229.375L93.29 224.275Z" fill="#391709"/>
    <path d="M90.8041 219.316L95.8931 216.753L98.4499 221.853L93.361 224.416L90.8041 219.316Z" fill="#482C02"/>
    <path d="M88.3537 214.428L93.4426 211.866L95.9995 216.966L90.9106 219.529L88.3537 214.428Z" fill="#482C02"/>
    <path d="M98.3437 221.818L103.291 219.327L105.777 224.285L100.83 226.777L98.3437 221.818Z" fill="#391709"/>
    <path d="M95.752 216.824L100.841 214.262L103.398 219.362L98.3089 221.924L95.752 216.824Z" fill="#482C02"/>
    <path d="M93.3016 211.937L98.3905 209.374L100.947 214.474L95.8584 217.037L93.3016 211.937Z" fill="#482C02"/>
    <path d="M103.186 219.292L108.275 216.729L110.832 221.829L105.743 224.392L103.186 219.292Z" fill="#391709"/>
    <path d="M100.699 214.332L105.788 211.77L108.345 216.87L103.256 219.433L100.699 214.332Z" fill="#482C02"/>
    <path d="M98.2488 209.446L103.338 206.883L105.895 211.983L100.806 214.546L98.2488 209.446Z" fill="#482C02"/>
    <path d="M95.763 204.487L100.852 201.925L103.409 207.025L98.3199 209.587L95.763 204.487Z" fill="#482C02"/>
    <path d="M93.3127 199.6L98.4016 197.037L100.958 202.137L95.8695 204.7L93.3127 199.6Z" fill="#424343"/>
    <path d="M90.8266 194.641L95.9155 192.078L98.4724 197.178L93.3835 199.741L90.8266 194.641Z" fill="#424343"/>
    <path d="M88.3769 189.753L93.4658 187.19L96.0227 192.29L90.9338 194.853L88.3769 189.753Z" fill="#424343"/>
    <path d="M85.8915 184.795L90.9805 182.232L93.5373 187.332L88.4484 189.895L85.8915 184.795Z" fill="#424343"/>
    <path d="M83.4056 179.836L88.4945 177.273L91.0514 182.373L85.9624 184.936L83.4056 179.836Z" fill="#424343"/>
    <path d="M80.9551 174.948L86.0441 172.386L88.6009 177.486L83.512 180.048L80.9551 174.948Z" fill="#424343"/>
    <path d="M76.3759 165.694L81.4648 163.132L86.3904 172.957L81.3015 175.52L76.3759 165.694Z" fill="#424343"/>
    <path d="M108.063 216.836L113.151 214.273L115.708 219.374L110.619 221.936L108.063 216.836Z" fill="#391709"/>
    <path d="M105.577 211.877L110.666 209.315L113.222 214.415L108.133 216.977L105.577 211.877Z" fill="#482C02"/>
    <path d="M103.126 206.99L108.215 204.427L110.772 209.527L105.683 212.09L103.126 206.99Z" fill="#482C02"/>
    <path d="M100.64 202.031L105.729 199.468L108.286 204.568L103.197 207.131L100.64 202.031Z" fill="#482C02"/>
    <path d="M98.1899 197.143L103.279 194.581L105.836 199.681L100.747 202.244L98.1899 197.143Z" fill="#424343"/>
    <path d="M95.7038 192.186L100.793 189.623L103.35 194.723L98.2607 197.286L95.7038 192.186Z" fill="#424343"/>
    <path d="M93.2536 187.297L98.3425 184.735L100.899 189.835L95.8105 192.397L93.2536 187.297Z" fill="#424343"/>
    <path d="M90.7675 182.339L95.8564 179.777L98.4133 184.877L93.3244 187.44L90.7675 182.339Z" fill="#424343"/>
    <path d="M88.2815 177.381L93.3705 174.818L95.9274 179.918L90.8384 182.481L88.2815 177.381Z" fill="#424343"/>
    <path d="M84.27 169.377L89.3589 166.815L93.4777 175.031L88.3888 177.593L84.27 169.377Z" fill="#424343"/>
    <path d="M113.01 214.345L118.099 211.783L120.656 216.883L115.567 219.445L113.01 214.345Z" fill="#26031F"/>
    <path d="M110.524 209.386L115.613 206.824L118.17 211.924L113.081 214.486L110.524 209.386Z" fill="#391709"/>
    <path d="M108.18 204.534L113.127 202.043L115.613 207.001L110.666 209.493L108.18 204.534Z" fill="#391709"/>
    <path d="M105.588 199.54L110.677 196.977L113.233 202.077L108.144 204.64L105.588 199.54Z" fill="#391709"/>
    <path d="M103.138 194.652L108.227 192.089L110.784 197.189L105.695 199.752L103.138 194.652Z" fill="#262828"/>
    <path d="M100.652 189.694L105.741 187.132L108.298 192.232L103.209 194.794L100.652 189.694Z" fill="#262828"/>
    <path d="M98.2015 184.806L103.29 182.243L105.847 187.343L100.758 189.906L98.2015 184.806Z" fill="#262828"/>
    <path d="M95.7155 179.848L100.804 177.285L103.361 182.386L98.2724 184.948L95.7155 179.848Z" fill="#262828"/>
    <path d="M85.3968 159.263L90.4857 156.7L100.876 177.426L95.7875 179.989L85.3968 159.263Z" fill="#262828"/>
    <path d="M39.8693 123.643H49.5028V134.091H39.8693V123.643Z" fill="#424343"/>
    <path d="M49.5028 123.643H59.2761V134.091H49.5028V123.643Z" fill="#424343"/>
    <path d="M59.2761 123.643H69.0479V134.091H59.2761V123.643Z" fill="#424343"/>
    <path d="M68.9095 123.643H78.6826V134.091H68.9095V123.643Z" fill="#424343"/>
    <path d="M17.7031 81.9879L19.1157 87.2714L13.8438 88.6871L12.4312 83.4036L17.7031 81.9879Z" fill="#FFE4CE"/>
    <path d="M22.9747 80.5725L24.3873 85.856L19.039 87.2923L17.6264 82.0087L22.9747 80.5725Z" fill="#FFE4CE"/>
    <path d="M28.3231 79.1363L29.7357 84.4198L24.3874 85.856L22.9748 80.5725L28.3231 79.1363Z" fill="#FFE4CE"/>
    <path d="M37.6461 76.6333L39.0587 81.9168L29.6595 84.4409L28.2469 79.1574L37.6461 76.6333Z" fill="#FFE4CE"/>
    <path d="M38.9432 76.2838L40.3558 81.5673L35.084 82.983L33.6714 77.6995L38.9432 76.2838Z" fill="white"/>
    <path d="M44.2148 74.8686L45.6274 80.1522L40.2792 81.5884L38.8666 76.3049L44.2148 74.8686Z" fill="white"/>
    <path d="M19.1156 87.2717L20.5487 92.6318L15.2768 94.0476L13.8438 88.6874L19.1156 87.2717Z" fill="#FFE4CE"/>
    <path d="M24.3872 85.8563L25.8203 91.2164L20.472 92.6526L19.039 87.2925L24.3872 85.8563Z" fill="#FFE4CE"/>
    <path d="M29.7358 84.42L31.1688 89.7802L25.8205 91.2164L24.3875 85.8563L29.7358 84.42Z" fill="#FFE4CE"/>
    <path d="M39.5556 81.7826L40.9886 87.1427L31.0923 89.8003L29.6592 84.4402L39.5556 81.7826Z" fill="#F57E77"/>
    <path d="M40.3557 81.5676L41.7888 86.9277L36.5169 88.3434L35.0839 82.9833L40.3557 81.5676Z" fill="#F57E77"/>
    <path d="M45.6274 80.1522L47.0604 85.5123L41.7121 86.9486L40.2791 81.5885L45.6274 80.1522Z" fill="#F57E77"/>
    <path d="M25.8002 91.1395L27.2333 96.4996L21.885 97.9358L20.4519 92.5757L25.8002 91.1395Z" fill="#FFE4CE"/>
    <path d="M31.148 89.7032L32.5811 95.0634L27.2328 96.4996L25.7997 91.1395L31.148 89.7032Z" fill="#F57E77"/>
    <path d="M40.4322 81.5468L41.8652 86.9069L36.5169 88.3432L35.0839 82.983L40.4322 81.5468Z" fill="#C5C5C5"/>
    <path d="M39.9247 116.063H45.6199V121.77H39.9247V116.063Z" fill="white"/>
    <path d="M40.0036 116.142H45.4614V121.691H40.0036V116.142Z" fill="white"/>
    <path d="M39.9247 110.514H45.6199V116.221H39.9247V110.514Z" fill="white"/>
    <path d="M40.0036 110.593H45.4614V116.142H40.0036V110.593Z" fill="white"/>
    <path d="M39.9247 105.044H45.6199V110.751H39.9247V105.044Z" fill="white"/>
    <path d="M40.0036 105.123H45.4614V110.592H40.0036V105.123Z" fill="white"/>
    <path d="M39.9247 99.494H45.6199V105.202H39.9247V99.494Z" fill="white"/>
    <path d="M40.0036 99.5737H45.4614V105.123H40.0036V99.5737Z" fill="white"/>
    <path d="M39.9247 94.0241H45.6199V99.7319H39.9247V94.0241Z" fill="white"/>
    <path d="M40.0036 94.1038H45.4614V99.653H40.0036V94.1038Z" fill="white"/>
    <path d="M39.9247 88.4753H45.6199V94.183H39.9247V88.4753Z" fill="white"/>
    <path d="M40.0036 88.554H45.4614V94.1032H40.0036V88.554Z" fill="white"/>
    <path d="M39.9247 83.0052H45.6199V88.713H39.9247V83.0052Z" fill="white"/>
    <path d="M40.0036 83.0841H45.4614V88.554H40.0036V83.0841Z" fill="white"/>
    <path d="M39.9247 77.4556H45.6199V83.1633H39.9247V77.4556Z" fill="white"/>
    <path d="M40.0045 76.8562H45.4624V82.4054H40.0045V76.8562Z" fill="white"/>
    <path d="M39.9247 71.9865H45.6199V77.6942H39.9247V71.9865Z" fill="white"/>
    <path d="M40.0045 71.3863H45.4624V76.9355H40.0045V71.3863Z" fill="white"/>
    <path d="M39.9247 66.4368H45.6199V72.1445H39.9247V66.4368Z" fill="white"/>
    <path d="M40.0036 66.5156H45.4614V72.0648H40.0036V66.5156Z" fill="white"/>
    <path d="M39.9247 60.9667H45.6199V66.6745H39.9247V60.9667Z" fill="white"/>
    <path d="M40.0036 61.0464H45.4614V66.5164H40.0036V61.0464Z" fill="white"/>
    <path d="M39.9247 55.4179H45.6199V61.1257H39.9247V55.4179Z" fill="white"/>
    <path d="M40.0036 55.4968H45.4614V61.046H40.0036V55.4968Z" fill="white"/>
    <path d="M36.0658 60.9393H41.5237V66.4885H36.0658V60.9393Z" fill="white"/>
    <path d="M36.0658 64.422H41.5237V69.9712H36.0658V64.422Z" fill="white"/>
    <path d="M36.0658 67.9045H41.5237V73.4537H36.0658V67.9045Z" fill="white"/>
    <path d="M39.9247 16.811H45.6199V22.5188H39.9247V16.811Z" fill="#3D041F"/>
    <path d="M40.0036 16.8898H45.4614V22.439H40.0036V16.8898Z" fill="#3D041F"/>
    <path d="M39.9247 11.341H45.6199V17.0488H39.9247V11.341Z" fill="#621931"/>
    <path d="M40.0036 11.4207H45.4614V16.9699H40.0036V11.4207Z" fill="#621931"/>
    <path d="M39.9247 5.79211H45.6199V11.4999H39.9247V5.79211Z" fill="#621931"/>
    <path d="M40.0036 5.87109H45.4614V11.4203H40.0036V5.87109Z" fill="#621931"/>
    <path d="M45.3832 116.063H51.0784V121.77H45.3832V116.063Z" fill="white"/>
    <path d="M45.3832 110.514H51.0784V116.221H45.3832V110.514Z" fill="white"/>
    <path d="M45.4621 110.593H50.999V116.142H45.4621V110.593Z" fill="white"/>
    <path d="M45.3832 105.044H51.0784V110.751H45.3832V105.044Z" fill="white"/>
    <path d="M45.4621 105.123H50.999V110.592H45.4621V105.123Z" fill="white"/>
    <path d="M45.3832 99.494H51.0784V105.202H45.3832V99.494Z" fill="white"/>
    <path d="M45.4621 99.5737H50.999V105.123H45.4621V99.5737Z" fill="white"/>
    <path d="M45.3832 94.0241H51.0784V99.7319H45.3832V94.0241Z" fill="white"/>
    <path d="M45.4621 94.1038H50.999V99.653H45.4621V94.1038Z" fill="white"/>
    <path d="M45.3832 88.4753H51.0784V94.183H45.3832V88.4753Z" fill="white"/>
    <path d="M45.4621 88.554H50.999V94.1032H45.4621V88.554Z" fill="white"/>
    <path d="M45.3832 83.0052H51.0784V88.713H45.3832V83.0052Z" fill="white"/>
    <path d="M45.4621 83.0841H50.999V88.554H45.4621V83.0841Z" fill="white"/>
    <path d="M45.3832 77.4556H51.0784V83.1633H45.3832V77.4556Z" fill="white"/>
    <path d="M45.4621 77.5352H50.999V83.0844H45.4621V77.5352Z" fill="white"/>
    <path d="M45.3832 71.9865H51.0784V77.6942H45.3832V71.9865Z" fill="white"/>
    <path d="M45.4621 72.0653H50.999V77.6145H45.4621V72.0653Z" fill="white"/>
    <path d="M45.3832 66.4368H51.0784V72.1445H45.3832V66.4368Z" fill="white"/>
    <path d="M45.4621 66.5156H50.999V72.0648H45.4621V66.5156Z" fill="white"/>
    <path d="M45.3832 60.9667H51.0784V66.6745H45.3832V60.9667Z" fill="white"/>
    <path d="M45.4621 61.0464H50.999V66.5164H45.4621V61.0464Z" fill="white"/>
    <path d="M45.3832 55.4179H51.0784V61.1257H45.3832V55.4179Z" fill="white"/>
    <path d="M45.4621 55.4968H50.999V61.046H45.4621V55.4968Z" fill="white"/>
    <path d="M45.3832 33.3795H51.0784V39.0872H45.3832V33.3795Z" fill="#FFE4CE"/>
    <path d="M45.4621 33.4583H50.999V39.0075H45.4621V33.4583Z" fill="#FFE4CE"/>
    <path d="M45.3832 27.8298H51.0784V33.5375H45.3832V27.8298Z" fill="#FFE4CE"/>
    <path d="M45.4621 27.9095H50.999V33.4587H45.4621V27.9095Z" fill="#FFE4CE"/>
    <path d="M48.4727 22.6322H58.897V29.5971H48.4727V22.6322Z" fill="#FFE4CE"/>
    <path d="M45.3832 22.3607H51.0784V28.0684H45.3832V22.3607Z" fill="#FFE4CE"/>
    <path d="M45.4621 22.4395H50.999V27.9094H45.4621V22.4395Z" fill="#FFE4CE"/>
    <path d="M45.3832 16.811H51.0784V22.5188H45.3832V16.811Z" fill="#FFE4CE"/>
    <path d="M45.4621 16.8898H50.999V22.439H45.4621V16.8898Z" fill="#FFE4CE"/>
    <path d="M45.3832 11.341H51.0784V17.0488H45.3832V11.341Z" fill="#3D041F"/>
    <path d="M45.4621 11.4207H50.999V16.9699H45.4621V11.4207Z" fill="#3D041F"/>
    <path d="M45.3832 5.79211H51.0784V11.4999H45.3832V5.79211Z" fill="#621931"/>
    <path d="M45.4621 5.87109H50.999V11.4203H45.4621V5.87109Z" fill="#621931"/>
    <path d="M45.3832 0.322205H51.0784V6.02995H45.3832V0.322205Z" fill="#621931"/>
    <path d="M45.4621 0.40094H50.999V5.87086H45.4621V0.40094Z" fill="#621931"/>
    <path d="M50.9198 116.063H56.615V121.77H50.9198V116.063Z" fill="white"/>
    <path d="M50.9986 116.142H56.5355V121.691H50.9986V116.142Z" fill="white"/>
    <path d="M50.9198 110.514H56.615V116.221H50.9198V110.514Z" fill="white"/>
    <path d="M50.9986 110.593H56.5355V116.142H50.9986V110.593Z" fill="white"/>
    <path d="M50.9198 105.044H56.615V110.751H50.9198V105.044Z" fill="white"/>
    <path d="M50.9986 105.123H56.5355V110.592H50.9986V105.123Z" fill="white"/>
    <path d="M50.9198 99.494H56.615V105.202H50.9198V99.494Z" fill="white"/>
    <path d="M50.9986 99.5737H56.5355V105.123H50.9986V99.5737Z" fill="white"/>
    <path d="M50.9198 94.0241H56.615V99.7319H50.9198V94.0241Z" fill="white"/>
    <path d="M50.9986 94.1038H56.5355V99.653H50.9986V94.1038Z" fill="white"/>
    <path d="M50.9198 88.4753H56.615V94.183H50.9198V88.4753Z" fill="white"/>
    <path d="M50.9986 88.554H56.5355V94.1032H50.9986V88.554Z" fill="white"/>
    <path d="M50.9198 83.0052H56.615V88.713H50.9198V83.0052Z" fill="white"/>
    <path d="M50.9986 83.0841H56.5355V88.554H50.9986V83.0841Z" fill="white"/>
    <path d="M50.9198 77.4556H56.615V83.1633H50.9198V77.4556Z" fill="white"/>
    <path d="M50.9986 77.5352H56.5355V83.0844H50.9986V77.5352Z" fill="white"/>
    <path d="M50.9198 71.9865H56.615V77.6942H50.9198V71.9865Z" fill="white"/>
    <path d="M50.9986 72.0653H56.5355V77.6145H50.9986V72.0653Z" fill="white"/>
    <path d="M50.9198 66.4368H56.615V72.1445H50.9198V66.4368Z" fill="white"/>
    <path d="M50.9986 66.5156H56.5355V72.0648H50.9986V66.5156Z" fill="white"/>
    <path d="M50.9198 60.9667H56.615V66.6745H50.9198V60.9667Z" fill="white"/>
    <path d="M50.9986 61.0464H56.5355V66.5164H50.9986V61.0464Z" fill="white"/>
    <path d="M50.9198 55.4179H56.615V61.1257H50.9198V55.4179Z" fill="#F57E77"/>
    <path d="M50.9986 55.4968H56.5355V61.046H50.9986V55.4968Z" fill="#F57E77"/>
    <path d="M50.9198 49.869H56.615V55.5768H50.9198V49.869Z" fill="#F57E77"/>
    <path d="M50.9986 49.948H56.5355V55.4972H50.9986V49.948Z" fill="#F57E77"/>
    <path d="M50.9198 44.3983H56.615V50.1061H50.9198V44.3983Z" fill="#F57E77"/>
    <path d="M50.9198 38.8495H56.615V44.5572H50.9198V38.8495Z" fill="#FFE4CE"/>
    <path d="M48.4731 19.1505H69.3217V29.5978H48.4731V19.1505Z" fill="#FFE4CE"/>
    <path d="M50.9198 33.3795H56.615V39.0872H50.9198V33.3795Z" fill="#FFE4CE"/>
    <path d="M50.9986 33.4583H56.5355V39.0075H50.9986V33.4583Z" fill="#FFE4CE"/>
    <path d="M50.9198 27.8298H56.615V33.5375H50.9198V27.8298Z" fill="#FFE4CE"/>
    <path d="M50.9986 27.9095H56.5355V33.4587H50.9986V27.9095Z" fill="#FFE4CE"/>
    <path d="M50.9198 16.811H56.615V22.5188H50.9198V16.811Z" fill="#FFE4CE"/>
    <path d="M50.9986 16.8898H56.5355V22.439H50.9986V16.8898Z" fill="#FFE4CE"/>
    <path d="M50.9198 11.341H56.615V17.0488H50.9198V11.341Z" fill="#FFE4CE"/>
    <path d="M50.9986 11.4207H56.5355V16.9699H50.9986V11.4207Z" fill="#FFE4CE"/>
    <path d="M50.9198 5.79211H56.615V11.4999H50.9198V5.79211Z" fill="#3D041F"/>
    <path d="M50.9986 5.87109H56.5355V11.4203H50.9986V5.87109Z" fill="#3D041F"/>
    <path d="M50.9198 0.322205H56.615V6.02995H50.9198V0.322205Z" fill="#621931"/>
    <path d="M50.9986 0.40094H56.5355V5.87086H50.9986V0.40094Z" fill="#621931"/>
    <path d="M59.9322 121.77H65.4691V123.651H59.9322V121.77Z" fill="#262828"/>
    <path d="M64.7129 120.141H75.1372V123.624H64.7129V120.141Z" fill="#262828"/>
    <path d="M56.3767 110.514H62.0719V116.221H56.3767V110.514Z" fill="white"/>
    <path d="M56.4572 110.593H61.9941V116.142H56.4572V110.593Z" fill="white"/>
    <path d="M56.3767 105.044H62.0719V110.751H56.3767V105.044Z" fill="white"/>
    <path d="M56.4572 105.123H61.9941V110.592H56.4572V105.123Z" fill="white"/>
    <path d="M56.3767 99.494H62.0719V105.202H56.3767V99.494Z" fill="white"/>
    <path d="M56.4572 99.5737H61.9941V105.123H56.4572V99.5737Z" fill="white"/>
    <path d="M56.3767 94.0241H62.0719V99.7319H56.3767V94.0241Z" fill="white"/>
    <path d="M56.4572 94.1038H61.9941V99.653H56.4572V94.1038Z" fill="white"/>
    <path d="M56.3767 88.4753H62.0719V94.183H56.3767V88.4753Z" fill="white"/>
    <path d="M56.4572 88.554H61.9941V94.1032H56.4572V88.554Z" fill="white"/>
    <path d="M56.3767 83.0052H62.0719V88.713H56.3767V83.0052Z" fill="white"/>
    <path d="M56.4572 83.0841H61.9941V88.554H56.4572V83.0841Z" fill="white"/>
    <path d="M56.3767 77.4556H62.0719V83.1633H56.3767V77.4556Z" fill="white"/>
    <path d="M56.4572 77.5352H61.9941V83.0844H56.4572V77.5352Z" fill="white"/>
    <path d="M56.3767 71.9865H62.0719V77.6942H56.3767V71.9865Z" fill="white"/>
    <path d="M56.4572 72.0653H61.9941V77.6145H56.4572V72.0653Z" fill="white"/>
    <path d="M56.3767 66.4368H62.0719V72.1445H56.3767V66.4368Z" fill="white"/>
    <path d="M56.4572 66.5156H61.9941V72.0648H56.4572V66.5156Z" fill="white"/>
    <path d="M56.3767 60.9667H62.0719V66.6745H56.3767V60.9667Z" fill="#F57E77"/>
    <path d="M51.0783 61.0464H61.9941V68.8372H51.0783V61.0464Z" fill="white"/>
    <path d="M56.3767 55.4179H62.0719V61.1257H56.3767V55.4179Z" fill="#FFE4CE"/>
    <path d="M56.4572 55.4968H61.9941V61.046H56.4572V55.4968Z" fill="#FFE4CE"/>
    <path d="M56.3767 49.869H62.0719V55.5768H56.3767V49.869Z" fill="#FFE4CE"/>
    <path d="M56.4572 49.948H61.9941V55.4972H56.4572V49.948Z" fill="#FFE4CE"/>
    <path d="M56.3767 44.3983H62.0719V50.1061H56.3767V44.3983Z" fill="#FFE4CE"/>
    <path d="M56.4572 44.478H61.9941V49.9479H56.4572V44.478Z" fill="#FFE4CE"/>
    <path d="M56.3767 38.8495H62.0719V44.5572H56.3767V38.8495Z" fill="#FFE4CE"/>
    <path d="M56.4572 38.9283H61.9941V44.4775H56.4572V38.9283Z" fill="#FFE4CE"/>
    <path d="M56.3767 33.3795H62.0719V39.0872H56.3767V33.3795Z" fill="#FFE4CE"/>
    <path d="M56.4572 33.4583H61.9941V39.0075H56.4572V33.4583Z" fill="#FFE4CE"/>
    <path d="M56.3767 27.8298H62.0719V33.5375H56.3767V27.8298Z" fill="#FFE4CE"/>
    <path d="M56.4572 27.9095H61.9941V33.4587H56.4572V27.9095Z" fill="#FFE4CE"/>
    <path d="M56.3767 22.3607H62.0719V28.0684H56.3767V22.3607Z" fill="#FFE4CE"/>
    <path d="M56.4572 22.4395H61.9941V27.9094H56.4572V22.4395Z" fill="#FFE4CE"/>
    <path d="M56.3767 16.811H62.0719V22.5188H56.3767V16.811Z" fill="#FFE4CE"/>
    <path d="M56.4572 16.8898H61.9941V22.439H56.4572V16.8898Z" fill="#FFE4CE"/>
    <path d="M56.3767 11.341H62.0719V17.0488H56.3767V11.341Z" fill="#FFE4CE"/>
    <path d="M56.4572 11.4207H61.9941V16.9699H56.4572V11.4207Z" fill="#FFE4CE"/>
    <path d="M56.3767 5.79211H62.0719V11.4999H56.3767V5.79211Z" fill="#3D041F"/>
    <path d="M56.4572 5.87109H61.9941V11.4203H56.4572V5.87109Z" fill="#3D041F"/>
    <path d="M56.3767 0.322205H62.0719V6.02995H56.3767V0.322205Z" fill="#621931"/>
    <path d="M56.4572 0.40094H61.9941V5.87086H56.4572V0.40094Z" fill="#621931"/>
    <path d="M61.9143 110.514H67.6095V116.221H61.9143V110.514Z" fill="white"/>
    <path d="M62.072 110.593H67.5299V116.142H62.072V110.593Z" fill="white"/>
    <path d="M61.9143 105.044H67.6095V110.751H61.9143V105.044Z" fill="white"/>
    <path d="M62.072 105.123H67.5299V110.592H62.072V105.123Z" fill="white"/>
    <path d="M61.9143 99.494H67.6095V105.202H61.9143V99.494Z" fill="white"/>
    <path d="M62.072 99.5737H67.5299V105.123H62.072V99.5737Z" fill="white"/>
    <path d="M61.9143 94.0241H67.6095V99.7319H61.9143V94.0241Z" fill="white"/>
    <path d="M62.072 94.1038H67.5299V99.653H62.072V94.1038Z" fill="white"/>
    <path d="M61.9143 88.4753H67.6095V94.183H61.9143V88.4753Z" fill="white"/>
    <path d="M62.072 88.554H67.5299V94.1032H62.072V88.554Z" fill="white"/>
    <path d="M61.9143 83.0052H67.6095V88.713H61.9143V83.0052Z" fill="white"/>
    <path d="M62.072 83.0841H67.5299V88.554H62.072V83.0841Z" fill="white"/>
    <path d="M61.9143 77.4556H67.6095V83.1633H61.9143V77.4556Z" fill="white"/>
    <path d="M62.072 77.5352H67.5299V83.0844H62.072V77.5352Z" fill="white"/>
    <path d="M61.9143 71.9865H67.6095V77.6942H61.9143V71.9865Z" fill="white"/>
    <path d="M62.072 72.0653H67.5299V77.6145H62.072V72.0653Z" fill="white"/>
    <path d="M61.9143 66.4368H67.6095V72.1445H61.9143V66.4368Z" fill="white"/>
    <path d="M62.072 66.5156H67.5299V72.0648H62.072V66.5156Z" fill="white"/>
    <path d="M61.9143 60.9667H67.6095V66.6745H61.9143V60.9667Z" fill="white"/>
    <path d="M62.072 61.0464H67.5299V66.5164H62.072V61.0464Z" fill="white"/>
    <path d="M61.9143 55.4179H67.6095V61.1257H61.9143V55.4179Z" fill="#FFE4CE"/>
    <path d="M62.072 55.4968H67.5299V61.046H62.072V55.4968Z" fill="#FFE4CE"/>
    <path d="M61.9143 49.869H67.6095V55.5768H61.9143V49.869Z" fill="#FFE4CE"/>
    <path d="M62.072 49.948H67.5299V55.4972H62.072V49.948Z" fill="#FFE4CE"/>
    <path d="M61.9143 44.3983H67.6095V50.1061H61.9143V44.3983Z" fill="#FFE4CE"/>
    <path d="M62.072 44.478H67.5299V49.9479H62.072V44.478Z" fill="#FFE4CE"/>
    <path d="M61.9143 38.8495H67.6095V44.5572H61.9143V38.8495Z" fill="#FFE4CE"/>
    <path d="M62.072 38.9283H67.5299V44.4775H62.072V38.9283Z" fill="#FFE4CE"/>
    <path d="M61.9143 33.3795H67.6095V39.0872H61.9143V33.3795Z" fill="#FFE4CE"/>
    <path d="M62.072 33.4583H67.5299V39.0075H62.072V33.4583Z" fill="#FFE4CE"/>
    <path d="M61.9143 27.8298H67.6095V33.5375H61.9143V27.8298Z" fill="#FFE4CE"/>
    <path d="M62.072 27.9095H67.5299V33.4587H62.072V27.9095Z" fill="#FFE4CE"/>
    <path d="M61.9143 16.811H67.6095V22.5188H61.9143V16.811Z" fill="#FFE4CE"/>
    <path d="M62.072 16.8898H67.5299V22.439H62.072V16.8898Z" fill="#FFE4CE"/>
    <path d="M61.9143 11.341H67.6095V17.0488H61.9143V11.341Z" fill="#FFE4CE"/>
    <path d="M62.072 11.4207H67.5299V16.9699H62.072V11.4207Z" fill="#FFE4CE"/>
    <path d="M61.9143 5.79211H67.6095V11.4999H61.9143V5.79211Z" fill="#3D041F"/>
    <path d="M62.072 5.87109H67.5299V11.4203H62.072V5.87109Z" fill="#3D041F"/>
    <path d="M61.9143 0.322205H67.6095V6.02995H61.9143V0.322205Z" fill="#621931"/>
    <path d="M62.072 0.40094H67.5299V5.87086H62.072V0.40094Z" fill="#621931"/>
    <path d="M67.3722 116.063H73.0674V121.77H67.3722V116.063Z" fill="white"/>
    <path d="M67.4517 116.142H72.9886V121.691H67.4517V116.142Z" fill="white"/>
    <path d="M67.3722 110.514H73.0674V116.221H67.3722V110.514Z" fill="white"/>
    <path d="M67.4517 110.593H72.9886V116.142H67.4517V110.593Z" fill="white"/>
    <path d="M67.3722 105.044H73.0674V110.751H67.3722V105.044Z" fill="white"/>
    <path d="M67.4517 105.123H72.9886V110.592H67.4517V105.123Z" fill="white"/>
    <path d="M67.3722 99.494H73.0674V105.202H67.3722V99.494Z" fill="white"/>
    <path d="M67.4517 99.5737H72.9886V105.123H67.4517V99.5737Z" fill="white"/>
    <path d="M67.3722 94.0241H73.0674V99.7319H67.3722V94.0241Z" fill="white"/>
    <path d="M67.4517 94.1038H72.9886V99.653H67.4517V94.1038Z" fill="white"/>
    <path d="M67.3722 88.4753H73.0674V94.183H67.3722V88.4753Z" fill="white"/>
    <path d="M67.4517 88.554H72.9886V94.1032H67.4517V88.554Z" fill="white"/>
    <path d="M67.3722 83.0052H73.0674V88.713H67.3722V83.0052Z" fill="white"/>
    <path d="M67.4517 83.0841H72.9886V88.554H67.4517V83.0841Z" fill="white"/>
    <path d="M67.3722 77.4556H73.0674V83.1633H67.3722V77.4556Z" fill="white"/>
    <path d="M67.4517 77.5352H72.9886V83.0844H67.4517V77.5352Z" fill="white"/>
    <path d="M67.3722 71.9865H73.0674V77.6942H67.3722V71.9865Z" fill="white"/>
    <path d="M67.4517 72.0653H72.9886V77.6145H67.4517V72.0653Z" fill="white"/>
    <path d="M67.3722 66.4368H73.0674V72.1445H67.3722V66.4368Z" fill="white"/>
    <path d="M67.4517 66.5156H72.9886V72.0648H67.4517V66.5156Z" fill="white"/>
    <path d="M67.3722 60.9667H73.0674V66.6745H67.3722V60.9667Z" fill="white"/>
    <path d="M67.4517 61.0464H72.9886V66.5164H67.4517V61.0464Z" fill="white"/>
    <path d="M67.3722 55.4179H73.0674V61.1257H67.3722V55.4179Z" fill="white"/>
    <path d="M67.6096 55.4968H72.9886V61.046H67.6096V55.4968Z" fill="white"/>
    <path d="M67.3722 33.3795H73.0674V39.0872H67.3722V33.3795Z" fill="#FFE4CE"/>
    <path d="M67.4517 33.4583H72.9886V39.0075H67.4517V33.4583Z" fill="#F57E77"/>
    <path d="M67.3722 27.8298H73.0674V33.5375H67.3722V27.8298Z" fill="#FFE4CE"/>
    <path d="M67.4517 27.9095H72.9886V33.4587H67.4517V27.9095Z" fill="#FFE4CE"/>
    <path d="M67.3722 22.3607H73.0674V28.0684H67.3722V22.3607Z" fill="#FFE4CE"/>
    <path d="M67.4517 22.4395H72.9886V27.9094H67.4517V22.4395Z" fill="#FFE4CE"/>
    <path d="M67.3722 16.811H73.0674V22.5188H67.3722V16.811Z" fill="#FFE4CE"/>
    <path d="M67.4517 16.8898H72.9886V22.439H67.4517V16.8898Z" fill="#FFE4CE"/>
    <path d="M67.3722 11.341H73.0674V17.0488H67.3722V11.341Z" fill="#3D041F"/>
    <path d="M67.4517 11.4207H72.9886V16.9699H67.4517V11.4207Z" fill="#3D041F"/>
    <path d="M65.8462 15.6678H76.2705V22.6327H65.8462V15.6678Z" fill="#3D041F"/>
    <path d="M62.3721 8.70276H69.3217V19.1501H62.3721V8.70276Z" fill="#3D041F"/>
    <path d="M67.3722 5.79211H73.0674V11.4999H67.3722V5.79211Z" fill="#621931"/>
    <path d="M67.4517 5.87109H72.9886V11.4203H67.4517V5.87109Z" fill="#621931"/>
    <path d="M67.3722 0.322205H73.0674V6.02995H67.3722V0.322205Z" fill="#621931"/>
    <path d="M67.4517 0.40094H72.9886V5.87086H67.4517V0.40094Z" fill="#621931"/>
    <path d="M72.9088 116.063H78.604V121.77H72.9088V116.063Z" fill="white"/>
    <path d="M72.9882 116.142H78.5251V121.691H72.9882V116.142Z" fill="white"/>
    <path d="M72.9088 110.514H78.604V116.221H72.9088V110.514Z" fill="white"/>
    <path d="M72.9882 110.593H78.5251V116.142H72.9882V110.593Z" fill="white"/>
    <path d="M72.9088 105.044H78.604V110.751H72.9088V105.044Z" fill="white"/>
    <path d="M72.9882 105.123H78.5251V110.592H72.9882V105.123Z" fill="white"/>
    <path d="M72.9088 99.494H78.604V105.202H72.9088V99.494Z" fill="white"/>
    <path d="M72.9882 99.5737H78.5251V105.123H72.9882V99.5737Z" fill="white"/>
    <path d="M72.9088 94.0241H78.604V99.7319H72.9088V94.0241Z" fill="white"/>
    <path d="M72.9088 88.4753H78.604V94.183H72.9088V88.4753Z" fill="white"/>
    <path d="M72.9882 88.554H78.5251V94.1032H72.9882V88.554Z" fill="#C5C5C5"/>
    <path d="M72.9088 83.0052H78.604V88.713H72.9088V83.0052Z" fill="white"/>
    <path d="M72.9088 77.4556H78.604V83.1633H72.9088V77.4556Z" fill="white"/>
    <path d="M72.9882 77.5352H78.5251V83.0844H72.9882V77.5352Z" fill="white"/>
    <path d="M72.9088 71.9865H78.604V77.6942H72.9088V71.9865Z" fill="white"/>
    <path d="M72.9882 72.0653H78.5251V77.6145H72.9882V72.0653Z" fill="white"/>
    <path d="M72.9088 66.4368H78.604V72.1445H72.9088V66.4368Z" fill="white"/>
    <path d="M72.9882 66.5156H78.5251V72.0648H72.9882V66.5156Z" fill="white"/>
    <path d="M72.9088 60.9667H78.604V66.6745H72.9088V60.9667Z" fill="white"/>
    <path d="M72.9882 61.0464H78.5251V66.5164H72.9882V61.0464Z" fill="white"/>
    <path d="M72.9088 55.4179H78.604V61.1257H72.9088V55.4179Z" fill="white"/>
    <path d="M72.9882 55.4968H78.5251V61.046H72.9882V55.4968Z" fill="white"/>
    <path d="M72.9088 27.8298H78.604V33.5375H72.9088V27.8298Z" fill="#3D041F"/>
    <path d="M72.9882 27.9095H78.5251V33.4587H72.9882V27.9095Z" fill="#3D041F"/>
    <path d="M72.9088 22.3607H78.604V28.0684H72.9088V22.3607Z" fill="#3D041F"/>
    <path d="M72.9882 22.4395H78.5251V27.9094H72.9882V22.4395Z" fill="#3D041F"/>
    <path d="M72.9088 16.811H78.604V22.5188H72.9088V16.811Z" fill="#621931"/>
    <path d="M72.9882 16.8898H78.5251V22.439H72.9882V16.8898Z" fill="#621931"/>
    <path d="M72.9088 11.341H78.604V17.0488H72.9088V11.341Z" fill="#621931"/>
    <path d="M72.9882 11.4207H78.5251V16.9699H72.9882V11.4207Z" fill="#621931"/>
    <path d="M72.9088 5.79211H78.604V11.4999H72.9088V5.79211Z" fill="#621931"/>
    <path d="M72.9882 5.87109H78.5251V11.4203H72.9882V5.87109Z" fill="#621931"/>
    <path d="M78.3676 71.9865H84.0627V77.6942H78.3676V71.9865Z" fill="white"/>
    <path d="M78.4462 72.0653H83.9832V77.6145H78.4462V72.0653Z" fill="white"/>
    <path d="M78.3676 66.4368H84.0627V72.1445H78.3676V66.4368Z" fill="white"/>
    <path d="M78.4462 66.5156H83.9832V72.0648H78.4462V66.5156Z" fill="white"/>
    <path d="M78.3676 60.9667H84.0627V66.6745H78.3676V60.9667Z" fill="white"/>
    <path d="M78.4462 61.0464H83.9832V66.5164H78.4462V61.0464Z" fill="white"/>
    <path d="M78.3676 55.4179H84.0627V61.1257H78.3676V55.4179Z" fill="white"/>
    <path d="M78.4462 55.4968H83.9832V61.046H78.4462V55.4968Z" fill="white"/>
    <path d="M76.2706 15.6678H83.2201V26.1152H76.2706V15.6678Z" fill="#3D041F"/>
    <path d="M83.9041 71.9865H89.5992V77.6942H83.9041V71.9865Z" fill="white"/>
    <path d="M83.9041 66.4368H89.5992V72.1445H83.9041V66.4368Z" fill="white"/>
    <path d="M84.0619 66.5156H89.5198V72.0648H84.0619V66.5156Z" fill="white"/>
    <path d="M83.9041 60.9667H89.5992V66.6745H83.9041V60.9667Z" fill="white"/>
    <path d="M84.0619 61.0464H89.5198V66.5164H84.0619V61.0464Z" fill="white"/>
    <path d="M89.3621 71.9865H95.0573V77.6942H89.3621V71.9865Z" fill="white"/>
    <path d="M89.3621 66.4368H95.0573V72.1445H89.3621V66.4368Z" fill="white"/>
    <path d="M89.4407 66.5156H94.9777V72.0648H89.4407V66.5156Z" fill="white"/>
    <path d="M77.6831 22.6322H83.2201V28.1814H77.6831V22.6322Z" fill="#3D041F"/>
    <path d="M49.7272 22.6322H55.4224V28.3399H49.7272V22.6322Z" fill="#66667C"/>
    <path d="M70.8119 26.1147H76.2698V31.6639H70.8119V26.1147Z" fill="#FFE4CE"/>
    <path d="M89.4407 72.0653H94.9777V77.6145H89.4407V72.0653Z" fill="white"/>
    <path d="M72.5592 120.266L78.6825 120.266L78.6825 134.084L72.5592 134.084L72.5592 120.266Z" fill="#262828"/>
    <path d="M72.9882 72.145H78.5251V88.554H72.9882V72.145Z" fill="#C5C5C5"/>
    <path d="M72.9882 85.8569H78.5251V99.653H72.9882V85.8569Z" fill="#C5C5C5"/>
    <path d="M74.9035 72.0943H84.1414V77.6435H74.9035V72.0943Z" fill="#C5C5C5"/>
    <path d="M73.0673 66.6742H78.5251V72.2234H73.0673V66.6742Z" fill="#C5C5C5"/>
    <path d="M50.9203 39.0878H67.6102V44.3194H50.9203V39.0878Z" fill="#FFE4CE"/>
    <path d="M51.0777 44.6366H67.9084V50.7968H51.0777V44.6366Z" fill="#F57E77"/>
    <path d="M62.3715 39.0878H67.9084V44.637H62.3715V39.0878Z" fill="#F57E77"/>
    <path d="M97.3671 88.2102L91.8351 87.9755L91.1546 104.089L96.6866 104.323L97.3671 88.2102Z" fill="#C5C5C5"/>
    <path d="M97.6016 82.6655L92.0696 82.4308L91.8354 87.9751L97.3674 88.2098L97.6016 82.6655Z" fill="#C5C5C5"/>
    <path d="M97.8327 77.2006L92.3007 76.9659L92.0665 82.5101L97.5985 82.7448L97.8327 77.2006Z" fill="#C5C5C5"/>
    <path d="M91.8353 87.9753L86.3033 87.7406L86.0725 93.2056L91.6045 93.4403L91.8353 87.9753Z" fill="white"/>
    <path d="M92.0691 82.4315L86.5371 82.1968L86.303 87.741L91.835 87.9757L92.0691 82.4315Z" fill="white"/>
    <path d="M92.3001 76.9665L86.7681 76.7318L86.5339 82.276L92.0659 82.5107L92.3001 76.9665Z" fill="white"/>
    <path d="M56.3769 116.063H67.835V121.77H56.3769V116.063Z" fill="white"/>
    <path d="M39.8694 120.141H49.5029V126.27H39.8694V120.141Z" fill="#262828"/>
    <path d="M49.5029 120.141H59.2761V126.27H49.5029V120.141Z" fill="#262828"/>
    <path d="M59.2761 120.141H69.0479V126.27H59.2761V120.141Z" fill="#262828"/>
    <path d="M68.9095 120.141H78.6826V126.27H68.9095V120.141Z" fill="#262828"/>
    <path d="M50.9198 55.3851H67.6095V61.1043H50.9198V55.3851Z" fill="white"/>
    <path d="M50.9199 55.3311H56.6249V71.3863H50.9199V55.3311Z" fill="white"/>
    <path d="M50.92 55.5444H56.5443V66.4804H50.92V55.5444Z" fill="white"/>
    <path d="M56.5683 55.3311H62.0115V66.2671H56.5683V55.3311Z" fill="white"/>
    <path d="M84.062 72.0653H96.1863V77.6145H84.062V72.0653Z" fill="white"/>
    <path d="M94.8996 71.9865H100.595V77.6942H94.8996V71.9865Z" fill="white"/>
    <path d="M62.1513 55.3696H67.6091V60.9188H62.1513V55.3696Z" fill="#C5C5C5"/>
    <path d="M56.6934 60.9188H62.1512V66.468H56.6934V60.9188Z" fill="#C5C5C5"/>
    <path d="M51.1569 66.468H56.6147V120.046H51.1569V66.468Z" fill="#C5C5C5"/>
    <path d="M45.6275 55.4968H51.0853V66.4358H45.6275V55.4968Z" fill="#C5C5C5"/>
    <path d="M92.7104 93.112L91.6506 98.4778L79.9021 96.1473L80.9618 90.7815L92.7104 93.112Z" fill="white"/>
    <path d="M92.2045 98.5873L91.1294 104.031L76.9642 101.221L78.0392 95.7774L92.2045 98.5873Z" fill="#C5C5C5"/>
    <path d="M59.468 86.5179L58.4083 91.8837L53.0543 90.8217L54.1141 85.4558L59.468 86.5179Z" fill="#FFE4CE"/>
    <path d="M64.8222 87.5788L63.7625 92.9446L58.3309 91.8672L59.3906 86.5014L64.8222 87.5788Z" fill="#FFE4CE"/>
    <path d="M70.2534 88.6569L69.1937 94.0227L63.7621 92.9452L64.8219 87.5794L70.2534 88.6569Z" fill="#FFE4CE"/>
    <path d="M77.187 90.0316L76.1273 95.3975L69.1164 94.0067L70.1761 88.6409L77.187 90.0316Z" fill="#FFE4CE"/>
    <path d="M81.039 90.7957L79.9792 96.1616L74.6253 95.0995L75.685 89.7337L81.039 90.7957Z" fill="white"/>
    <path d="M58.4085 91.8831L57.3334 97.3267L51.9794 96.2647L53.0545 90.8211L58.4085 91.8831Z" fill="#FFE4CE"/>
    <path d="M63.7623 92.9451L62.6873 98.3887L57.2557 97.3113L58.3308 91.8677L63.7623 92.9451Z" fill="#FFE4CE"/>
    <path d="M69.1942 94.0225L68.1191 99.4661L62.6876 98.3886L63.7626 92.945L69.1942 94.0225Z" fill="#FFE4CE"/>
    <path d="M76.0996 95.3923L75.0245 100.836L68.0412 99.4507L69.1163 94.0071L76.0996 95.3923Z" fill="#F57E77"/>
    <path d="M79.9791 96.1619L78.9041 101.606L73.5501 100.543L74.6251 95.0999L79.9791 96.1619Z" fill="#C5C5C5"/>
    <path d="M62.7026 98.3108L61.6276 103.754L56.196 102.677L57.2711 97.2333L62.7026 98.3108Z" fill="#FFE4CE"/>
    <path d="M68.1336 99.3881L67.0585 104.832L61.6269 103.754L62.702 98.3107L68.1336 99.3881Z" fill="#F57E77"/>
</svg>
