<svg width="142" height="238" viewBox="0 0 142 238" fill="none" xmlns="http://www.w3.org/2000/svg">
    <path d="M125.122 82.3646L123.698 87.6766L129.014 89.1L130.438 83.788L125.122 82.3646Z" fill="#FFE4CE"/>
    <path d="M119.806 80.9414L118.382 86.2534L123.775 87.6974L125.199 82.3854L119.806 80.9414Z" fill="#FFE4CE"/>
    <path d="M114.413 79.4972L112.988 84.8092L118.381 86.2532L119.806 80.9412L114.413 79.4972Z" fill="#FFE4CE"/>
    <path d="M105.012 76.9803L103.588 82.2924L113.065 84.83L114.49 79.518L105.012 76.9803Z" fill="#FFE4CE"/>
    <path d="M103.704 76.6299L102.28 81.9419L107.596 83.3652L109.02 78.0532L103.704 76.6299Z" fill="#243454"/>
    <path d="M98.3883 75.2064L96.9639 80.5184L102.357 81.9624L103.781 76.6504L98.3883 75.2064Z" fill="#243454"/>
    <path d="M123.698 87.6766L122.252 93.0656L127.568 94.4889L129.014 89.0999L123.698 87.6766Z" fill="#FFE4CE"/>
    <path d="M118.382 86.2535L116.937 91.6425L122.33 93.0864L123.775 87.6974L118.382 86.2535Z" fill="#FFE4CE"/>
    <path d="M112.989 84.8091L111.544 90.1981L116.937 91.6421L118.382 86.2531L112.989 84.8091Z" fill="#FFE4CE"/>
    <path d="M103.086 82.1581L101.641 87.5471L111.621 90.219L113.066 84.83L103.086 82.1581Z" fill="#F57E77"/>
    <path d="M102.279 81.9417L100.834 87.3307L106.15 88.754L107.595 83.365L102.279 81.9417Z" fill="#131E33"/>
    <path d="M96.9639 80.5185L95.5188 85.9075L100.912 87.3514L102.357 81.9625L96.9639 80.5185Z" fill="#F57E77"/>
    <path d="M116.957 91.5649L115.512 96.9539L120.905 98.3978L122.35 93.0088L116.957 91.5649Z" fill="#FFE4CE"/>
    <path d="M111.564 90.1213L110.119 95.5103L115.512 96.9542L116.958 91.5652L111.564 90.1213Z" fill="#F57E77"/>
    <path d="M107.673 83.387L106.228 88.776L111.621 90.22L113.066 84.831L107.673 83.387Z" fill="#877A86"/>
    <path d="M109.118 78.0534L107.673 83.4424L113.066 84.8864L114.511 79.4974L109.118 78.0534Z" fill="white"/>
    <path d="M44.7912 88.62L50.3695 88.384L50.6023 93.8785L45.0239 94.1145L44.7912 88.62Z" fill="#131E33"/>
    <path d="M44.5548 83.0454L50.1332 82.8094L50.3693 88.3836L44.7909 88.6195L44.5548 83.0454Z" fill="#131E33"/>
    <path d="M44.3218 77.5514L49.9001 77.3154L50.1363 82.8895L44.5579 83.1255L44.3218 77.5514Z" fill="#131E33"/>
    <path d="M50.3693 88.3841L55.9476 88.1479L56.1801 93.6424L50.6018 93.8786L50.3693 88.3841Z" fill="#243454"/>
    <path d="M50.1337 82.8099L55.712 82.574L55.9482 88.1481L50.3698 88.384L50.1337 82.8099Z" fill="#243454"/>
    <path d="M49.9007 77.3157L55.479 77.0795L55.7148 82.6536L50.1365 82.8899L49.9007 77.3157Z" fill="#243454"/>
    <path d="M102.715 116.622H96.972V122.361H102.715V116.622Z" fill="#243454"/>
    <path d="M102.635 116.702H97.1316V122.281H102.635V116.702Z" fill="#243454"/>
    <path d="M102.715 111.043H96.972V116.782H102.715V111.043Z" fill="#243454"/>
    <path d="M102.635 111.123H97.1316V116.702H102.635V111.123Z" fill="#243454"/>
    <path d="M102.715 105.544H96.972V111.282H102.715V105.544Z" fill="#243454"/>
    <path d="M102.635 105.624H97.1316V111.123H102.635V105.624Z" fill="#243454"/>
    <path d="M102.715 99.9647H96.972V105.703H102.715V99.9647Z" fill="#243454"/>
    <path d="M102.635 100.044H97.1316V105.623H102.635V100.044Z" fill="#243454"/>
    <path d="M102.715 94.4652H96.972V100.204H102.715V94.4652Z" fill="#243454"/>
    <path d="M102.635 94.545H97.1316V100.124H102.635V94.545Z" fill="#243454"/>
    <path d="M102.715 88.8859H96.972V94.6244H102.715V88.8859Z" fill="#243454"/>
    <path d="M102.635 88.9657H97.1316V94.5448H102.635V88.9657Z" fill="#243454"/>
    <path d="M102.715 83.387H96.972V89.1255H102.715V83.387Z" fill="#243454"/>
    <path d="M102.635 83.4661H97.1316V88.9655H102.635V83.4661Z" fill="#243454"/>
    <path d="M102.715 77.8075H96.972V83.546H102.715V77.8075Z" fill="#243454"/>
    <path d="M102.634 77.2045H97.1309V82.7836H102.634V77.2045Z" fill="#243454"/>
    <path d="M102.715 72.3087H96.972V78.0472H102.715V72.3087Z" fill="#243454"/>
    <path d="M102.634 71.7057H97.1309V77.2848H102.634V71.7057Z" fill="#243454"/>
    <path d="M102.715 66.7294H96.972V72.4679H102.715V66.7294Z" fill="#243454"/>
    <path d="M102.635 66.8086H97.1316V72.3877H102.635V66.8086Z" fill="#243454"/>
    <path d="M102.715 61.2297H96.972V66.9682H102.715V61.2297Z" fill="#243454"/>
    <path d="M102.635 61.3096H97.1316V66.809H102.635V61.3096Z" fill="#243454"/>
    <path d="M102.715 55.6506H96.972V61.3891H102.715V55.6506Z" fill="#243454"/>
    <path d="M102.635 55.7305H97.1316V61.3096H102.635V55.7305Z" fill="#243454"/>
    <path d="M106.606 61.202H101.103V66.7811H106.606V61.202Z" fill="#243454"/>
    <path d="M106.606 64.7031H101.103V70.2822H106.606V64.7031Z" fill="#243454"/>
    <path d="M106.606 68.2043H101.103V73.7834H106.606V68.2043Z" fill="#243454"/>
    <path d="M102.715 16.8359H96.972V22.5744H102.715V16.8359Z" fill="#3D041F"/>
    <path d="M102.635 16.9155H97.1316V22.4946H102.635V16.9155Z" fill="#3D041F"/>
    <path d="M102.715 11.3368H96.972V17.0753H102.715V11.3368Z" fill="#242424"/>
    <path d="M102.635 11.4166H97.1316V16.9957H102.635V11.4166Z" fill="#3D041F"/>
    <path d="M102.715 5.75769H96.972V11.4962H102.715V5.75769Z" fill="#242424"/>
    <path d="M102.635 5.83704H97.1316V11.4161H102.635V5.83704Z" fill="#3D041F"/>
    <path d="M97.2104 116.622H91.4675V122.361H97.2104V116.622Z" fill="#243454"/>
    <path d="M97.2104 111.043H91.4675V116.782H97.2104V111.043Z" fill="#243454"/>
    <path d="M97.1312 111.123H91.5479V116.702H97.1312V111.123Z" fill="#243454"/>
    <path d="M97.2104 105.544H91.4675V111.282H97.2104V105.544Z" fill="#243454"/>
    <path d="M97.1312 105.624H91.5479V111.123H97.1312V105.624Z" fill="#243454"/>
    <path d="M97.2104 99.9647H91.4675V105.703H97.2104V99.9647Z" fill="#243454"/>
    <path d="M97.1312 100.044H91.5479V105.623H97.1312V100.044Z" fill="#243454"/>
    <path d="M97.2104 94.4652H91.4675V100.204H97.2104V94.4652Z" fill="#243454"/>
    <path d="M97.1312 94.545H91.5479V100.124H97.1312V94.545Z" fill="#243454"/>
    <path d="M97.2104 88.8859H91.4675V94.6244H97.2104V88.8859Z" fill="#243454"/>
    <path d="M97.1312 88.9657H91.5479V94.5448H97.1312V88.9657Z" fill="#243454"/>
    <path d="M97.2104 83.387H91.4675V89.1255H97.2104V83.387Z" fill="#243454"/>
    <path d="M97.1312 83.4661H91.5479V88.9655H97.1312V83.4661Z" fill="#243454"/>
    <path d="M97.2104 77.8075H91.4675V83.546H97.2104V77.8075Z" fill="#243454"/>
    <path d="M97.1312 77.8875H91.5479V83.4665H97.1312V77.8875Z" fill="#243454"/>
    <path d="M97.2104 72.3087H91.4675V78.0472H97.2104V72.3087Z" fill="#243454"/>
    <path d="M97.1312 72.3882H91.5479V77.9673H97.1312V72.3882Z" fill="#243454"/>
    <path d="M97.2104 66.7294H91.4675V72.4679H97.2104V66.7294Z" fill="#243454"/>
    <path d="M97.2104 61.2297H91.4675V66.9682H97.2104V61.2297Z" fill="#243454"/>
    <path d="M97.1312 61.3096H91.5479V66.809H97.1312V61.3096Z" fill="#374F80"/>
    <path d="M97.2104 55.6506H91.4675V61.3891H97.2104V55.6506Z" fill="#243454"/>
    <path d="M97.1312 55.7305H91.5479V61.3096H97.1312V55.7305Z" fill="#374F80"/>
    <path d="M97.2104 33.4937H91.4675V39.2322H97.2104V33.4937Z" fill="#FFE4CE"/>
    <path d="M97.1312 33.5731H91.5479V39.1522H97.1312V33.5731Z" fill="#FFE4CE"/>
    <path d="M97.2104 27.9144H91.4675V33.6529H97.2104V27.9144Z" fill="#FFE4CE"/>
    <path d="M97.1312 27.9939H91.5479V33.573H97.1312V27.9939Z" fill="#FFE4CE"/>
    <path d="M94.095 22.6887H83.5834V29.6911H94.095V22.6887Z" fill="#FFE4CE"/>
    <path d="M97.2104 22.4155H91.4675V28.154H97.2104V22.4155Z" fill="#FFE4CE"/>
    <path d="M97.1312 22.4951H91.5479V27.9945H97.1312V22.4951Z" fill="#FFE4CE"/>
    <path d="M97.2104 16.8359H91.4675V22.5744H97.2104V16.8359Z" fill="#FFE4CE"/>
    <path d="M97.1312 16.9155H91.5479V22.4946H97.1312V16.9155Z" fill="#FFE4CE"/>
    <path d="M97.2104 11.3368H91.4675V17.0753H97.2104V11.3368Z" fill="#3D041F"/>
    <path d="M97.1312 11.4166H91.5479V16.9957H97.1312V11.4166Z" fill="#3D041F"/>
    <path d="M97.2104 5.75769H91.4675V11.4962H97.2104V5.75769Z" fill="#242424"/>
    <path d="M97.1312 5.83704H91.5479V11.4161H97.1312V5.83704Z" fill="#3D041F"/>
    <path d="M97.2104 0.258301H91.4675V5.9968H97.2104V0.258301Z" fill="#242424"/>
    <path d="M97.1312 0.337646H91.5479V5.83704H97.1312V0.337646Z" fill="#3D041F"/>
    <path d="M91.6274 116.622H85.8845V122.361H91.6274V116.622Z" fill="#243454"/>
    <path d="M91.5483 116.702H85.965V122.281H91.5483V116.702Z" fill="#243454"/>
    <path d="M91.6274 111.043H85.8845V116.782H91.6274V111.043Z" fill="#243454"/>
    <path d="M91.5483 111.123H85.965V116.702H91.5483V111.123Z" fill="#243454"/>
    <path d="M91.6274 105.544H85.8845V111.282H91.6274V105.544Z" fill="#243454"/>
    <path d="M91.5483 105.624H85.965V111.123H91.5483V105.624Z" fill="#243454"/>
    <path d="M91.6274 99.9647H85.8845V105.703H91.6274V99.9647Z" fill="#243454"/>
    <path d="M91.5483 100.044H85.965V105.623H91.5483V100.044Z" fill="#243454"/>
    <path d="M91.6274 94.4652H85.8845V100.204H91.6274V94.4652Z" fill="#243454"/>
    <path d="M91.5483 94.545H85.965V100.124H91.5483V94.545Z" fill="#243454"/>
    <path d="M91.6274 88.8859H85.8845V94.6244H91.6274V88.8859Z" fill="#243454"/>
    <path d="M91.5483 88.9657H85.965V94.5448H91.5483V88.9657Z" fill="#243454"/>
    <path d="M91.6274 83.387H85.8845V89.1255H91.6274V83.387Z" fill="#243454"/>
    <path d="M91.5483 83.4661H85.965V88.9655H91.5483V83.4661Z" fill="#243454"/>
    <path d="M91.6274 77.8075H85.8845V83.546H91.6274V77.8075Z" fill="#243454"/>
    <path d="M91.5483 77.8875H85.965V83.4665H91.5483V77.8875Z" fill="#243454"/>
    <path d="M91.6274 72.3087H85.8845V78.0472H91.6274V72.3087Z" fill="#243454"/>
    <path d="M91.6274 66.7294H85.8845V72.4679H91.6274V66.7294Z" fill="#243454"/>
    <path d="M91.5483 66.8086H85.965V72.3877H91.5483V66.8086Z" fill="#243454"/>
    <path d="M91.6274 61.2297H85.8845V66.9682H91.6274V61.2297Z" fill="#243454"/>
    <path d="M91.5483 61.3096H85.965V66.809H91.5483V61.3096Z" fill="#243454"/>
    <path d="M91.6274 55.6506H85.8845V61.3891H91.6274V55.6506Z" fill="#F57E77"/>
    <path d="M91.5483 55.7305H85.965V61.3096H91.5483V55.7305Z" fill="#F57E77"/>
    <path d="M91.6274 50.0719H85.8845V55.8104H91.6274V50.0719Z" fill="#F57E77"/>
    <path d="M91.5483 50.1512H85.965V55.7303H91.5483V50.1512Z" fill="#F57E77"/>
    <path d="M91.6274 44.5721H85.8845V50.3106H91.6274V44.5721Z" fill="#F57E77"/>
    <path d="M91.6274 38.9928H85.8845V44.7313H91.6274V38.9928Z" fill="#FFE4CE"/>
    <path d="M94.0947 19.1875H73.0715V29.6911H94.0947V19.1875Z" fill="#FFE4CE"/>
    <path d="M91.6274 33.4937H85.8845V39.2322H91.6274V33.4937Z" fill="#FFE4CE"/>
    <path d="M91.5483 33.5731H85.965V39.1522H91.5483V33.5731Z" fill="#FFE4CE"/>
    <path d="M91.6274 27.9144H85.8845V33.6529H91.6274V27.9144Z" fill="#FFE4CE"/>
    <path d="M91.5483 27.9939H85.965V33.573H91.5483V27.9939Z" fill="#FFE4CE"/>
    <path d="M91.6274 16.8359H85.8845V22.5744H91.6274V16.8359Z" fill="#FFE4CE"/>
    <path d="M91.5483 16.9155H85.965V22.4946H91.5483V16.9155Z" fill="#FFE4CE"/>
    <path d="M91.6274 11.3368H85.8845V17.0753H91.6274V11.3368Z" fill="#FFE4CE"/>
    <path d="M91.5483 11.4166H85.965V16.9957H91.5483V11.4166Z" fill="#FFE4CE"/>
    <path d="M91.6274 5.75769H85.8845V11.4962H91.6274V5.75769Z" fill="#3D041F"/>
    <path d="M91.5483 5.83704H85.965V11.4161H91.5483V5.83704Z" fill="#3D041F"/>
    <path d="M91.6274 0.258301H85.8845V5.9968H91.6274V0.258301Z" fill="#242424"/>
    <path d="M91.5483 0.337646H85.965V5.83704H91.5483V0.337646Z" fill="#3D041F"/>
    <path d="M86.1248 116.622H80.382V122.361H86.1248V116.622Z" fill="#243454"/>
    <path d="M82.5398 120.722H76.9564V124.251H82.5398V120.722Z" fill="#262828"/>
    <path d="M77.7188 120.722H67.2072V124.224H77.7188V120.722Z" fill="#262828"/>
    <path d="M86.1248 111.043H80.382V116.782H86.1248V111.043Z" fill="#243454"/>
    <path d="M86.0438 111.123H80.4604V116.702H86.0438V111.123Z" fill="#243454"/>
    <path d="M86.1248 105.544H80.382V111.282H86.1248V105.544Z" fill="#243454"/>
    <path d="M86.0438 105.624H80.4604V111.123H86.0438V105.624Z" fill="#243454"/>
    <path d="M86.1248 99.9647H80.382V105.703H86.1248V99.9647Z" fill="#243454"/>
    <path d="M86.0438 100.044H80.4604V105.623H86.0438V100.044Z" fill="#243454"/>
    <path d="M86.1248 94.4652H80.382V100.204H86.1248V94.4652Z" fill="#243454"/>
    <path d="M86.0438 94.545H80.4604V100.124H86.0438V94.545Z" fill="#243454"/>
    <path d="M86.1248 88.8859H80.382V94.6244H86.1248V88.8859Z" fill="#243454"/>
    <path d="M86.0438 88.9657H80.4604V94.5448H86.0438V88.9657Z" fill="#243454"/>
    <path d="M86.1248 83.387H80.382V89.1255H86.1248V83.387Z" fill="#243454"/>
    <path d="M86.0438 83.4661H80.4604V88.9655H86.0438V83.4661Z" fill="#243454"/>
    <path d="M86.1248 77.8075H80.382V83.546H86.1248V77.8075Z" fill="#243454"/>
    <path d="M86.0438 77.8875H80.4604V83.4665H86.0438V77.8875Z" fill="#243454"/>
    <path d="M86.1248 72.3087H80.382V78.0472H86.1248V72.3087Z" fill="#243454"/>
    <path d="M86.0438 72.3882H80.4604V77.9673H86.0438V72.3882Z" fill="#243454"/>
    <path d="M86.1248 66.7294H80.382V72.4679H86.1248V66.7294Z" fill="#243454"/>
    <path d="M86.1248 61.2297H80.382V66.9682H86.1248V61.2297Z" fill="#F57E77"/>
    <path d="M91.4677 61.3096H80.4604V69.1423H91.4677V61.3096Z" fill="#243454"/>
    <path d="M86.1248 55.6506H80.382V61.3891H86.1248V55.6506Z" fill="#FFE4CE"/>
    <path d="M86.0438 55.7305H80.4604V61.3096H86.0438V55.7305Z" fill="#FFE4CE"/>
    <path d="M86.1248 50.0719H80.382V55.8104H86.1248V50.0719Z" fill="#FFE4CE"/>
    <path d="M86.0438 50.1512H80.4604V55.7303H86.0438V50.1512Z" fill="#FFE4CE"/>
    <path d="M86.1248 44.5721H80.382V50.3106H86.1248V44.5721Z" fill="#FFE4CE"/>
    <path d="M86.0438 44.6521H80.4604V50.1515H86.0438V44.6521Z" fill="#FFE4CE"/>
    <path d="M86.1248 38.9928H80.382V44.7313H86.1248V38.9928Z" fill="#FFE4CE"/>
    <path d="M86.0438 39.0728H80.4604V44.6519H86.0438V39.0728Z" fill="#FFE4CE"/>
    <path d="M86.1248 33.4937H80.382V39.2322H86.1248V33.4937Z" fill="#FFE4CE"/>
    <path d="M86.0438 33.5731H80.4604V39.1522H86.0438V33.5731Z" fill="#FFE4CE"/>
    <path d="M86.1248 27.9144H80.382V33.6529H86.1248V27.9144Z" fill="#FFE4CE"/>
    <path d="M86.0438 27.9939H80.4604V33.573H86.0438V27.9939Z" fill="#FFE4CE"/>
    <path d="M86.1248 22.4155H80.382V28.154H86.1248V22.4155Z" fill="#FFE4CE"/>
    <path d="M86.0438 22.4951H80.4604V27.9945H86.0438V22.4951Z" fill="#FFE4CE"/>
    <path d="M86.1248 16.8359H80.382V22.5744H86.1248V16.8359Z" fill="#FFE4CE"/>
    <path d="M86.0438 16.9155H80.4604V22.4946H86.0438V16.9155Z" fill="#FFE4CE"/>
    <path d="M86.1248 11.3368H80.382V17.0753H86.1248V11.3368Z" fill="#FFE4CE"/>
    <path d="M86.0438 11.4166H80.4604V16.9957H86.0438V11.4166Z" fill="#FFE4CE"/>
    <path d="M86.1248 5.75769H80.382V11.4962H86.1248V5.75769Z" fill="#3D041F"/>
    <path d="M86.0438 5.83704H80.4604V11.4161H86.0438V5.83704Z" fill="#3D041F"/>
    <path d="M86.1248 0.258301H80.382V5.9968H86.1248V0.258301Z" fill="#242424"/>
    <path d="M86.0438 0.337646H80.4604V5.83704H86.0438V0.337646Z" fill="#3D041F"/>
    <path d="M80.5401 111.043H74.7972V116.782H80.5401V111.043Z" fill="#243454"/>
    <path d="M80.3816 111.123H74.8781V116.702H80.3816V111.123Z" fill="#243454"/>
    <path d="M80.5401 105.544H74.7972V111.282H80.5401V105.544Z" fill="#243454"/>
    <path d="M80.3816 105.624H74.8781V111.123H80.3816V105.624Z" fill="#243454"/>
    <path d="M80.5401 99.9647H74.7972V105.703H80.5401V99.9647Z" fill="#243454"/>
    <path d="M80.3816 100.044H74.8781V105.623H80.3816V100.044Z" fill="#243454"/>
    <path d="M80.5401 94.4652H74.7972V100.204H80.5401V94.4652Z" fill="#243454"/>
    <path d="M80.3816 94.545H74.8781V100.124H80.3816V94.545Z" fill="#243454"/>
    <path d="M80.5401 88.8859H74.7972V94.6244H80.5401V88.8859Z" fill="#243454"/>
    <path d="M80.3816 88.9657H74.8781V94.5448H80.3816V88.9657Z" fill="#243454"/>
    <path d="M80.5401 83.387H74.7972V89.1255H80.5401V83.387Z" fill="#243454"/>
    <path d="M80.3816 83.4661H74.8781V88.9655H80.3816V83.4661Z" fill="#243454"/>
    <path d="M80.5401 77.8075H74.7972V83.546H80.5401V77.8075Z" fill="#243454"/>
    <path d="M80.3816 77.8875H74.8781V83.4665H80.3816V77.8875Z" fill="#243454"/>
    <path d="M80.5401 72.3087H74.7972V78.0472H80.5401V72.3087Z" fill="#243454"/>
    <path d="M80.3816 72.3882H74.8781V77.9673H80.3816V72.3882Z" fill="#243454"/>
    <path d="M80.5401 66.7294H74.7972V72.4679H80.5401V66.7294Z" fill="#243454"/>
    <path d="M80.3816 66.8086H74.8781V72.3877H80.3816V66.8086Z" fill="#243454"/>
    <path d="M80.5401 61.2297H74.7972V66.9682H80.5401V61.2297Z" fill="#243454"/>
    <path d="M80.3816 61.3096H74.8781V66.809H80.3816V61.3096Z" fill="#374F80"/>
    <path d="M80.5401 55.6506H74.7972V61.3891H80.5401V55.6506Z" fill="#FFE4CE"/>
    <path d="M80.3816 55.7305H74.8781V61.3096H80.3816V55.7305Z" fill="#FFE4CE"/>
    <path d="M80.5401 50.0719H74.7972V55.8104H80.5401V50.0719Z" fill="#FFE4CE"/>
    <path d="M80.3816 50.1512H74.8781V55.7303H80.3816V50.1512Z" fill="#FFE4CE"/>
    <path d="M80.5401 44.5721H74.7972V50.3106H80.5401V44.5721Z" fill="#FFE4CE"/>
    <path d="M80.3816 44.6521H74.8781V50.1515H80.3816V44.6521Z" fill="#FFE4CE"/>
    <path d="M80.5401 38.9928H74.7972V44.7313H80.5401V38.9928Z" fill="#FFE4CE"/>
    <path d="M80.3816 39.0728H74.8781V44.6519H80.3816V39.0728Z" fill="#FFE4CE"/>
    <path d="M80.5401 33.4937H74.7972V39.2322H80.5401V33.4937Z" fill="#FFE4CE"/>
    <path d="M80.3816 33.5731H74.8781V39.1522H80.3816V33.5731Z" fill="#FFE4CE"/>
    <path d="M80.5401 27.9144H74.7972V33.6529H80.5401V27.9144Z" fill="#FFE4CE"/>
    <path d="M80.3816 27.9939H74.8781V33.573H80.3816V27.9939Z" fill="#FFE4CE"/>
    <path d="M80.5401 16.8359H74.7972V22.5744H80.5401V16.8359Z" fill="#FFE4CE"/>
    <path d="M80.3816 16.9155H74.8781V22.4946H80.3816V16.9155Z" fill="#FFE4CE"/>
    <path d="M80.5401 11.3368H74.7972V17.0753H80.5401V11.3368Z" fill="#FFE4CE"/>
    <path d="M80.3816 11.4166H74.8781V16.9957H80.3816V11.4166Z" fill="#FFE4CE"/>
    <path d="M80.5401 5.75769H74.7972V11.4962H80.5401V5.75769Z" fill="#3D041F"/>
    <path d="M80.3816 5.83704H74.8781V11.4161H80.3816V5.83704Z" fill="#3D041F"/>
    <path d="M80.5401 0.258301H74.7972V5.9968H80.5401V0.258301Z" fill="#242424"/>
    <path d="M80.3816 0.337646H74.8781V5.83704H80.3816V0.337646Z" fill="#3D041F"/>
    <path d="M75.0372 116.622H69.2943V122.361H75.0372V116.622Z" fill="#243454"/>
    <path d="M74.9569 116.702H69.3735V122.281H74.9569V116.702Z" fill="#243454"/>
    <path d="M75.0372 111.043H69.2943V116.782H75.0372V111.043Z" fill="#243454"/>
    <path d="M74.9569 111.123H69.3735V116.702H74.9569V111.123Z" fill="#243454"/>
    <path d="M75.0372 105.544H69.2943V111.282H75.0372V105.544Z" fill="#243454"/>
    <path d="M74.9569 105.624H69.3735V111.123H74.9569V105.624Z" fill="#243454"/>
    <path d="M75.0372 99.9647H69.2943V105.703H75.0372V99.9647Z" fill="#243454"/>
    <path d="M74.9569 100.044H69.3735V105.623H74.9569V100.044Z" fill="#243454"/>
    <path d="M75.0372 94.4652H69.2943V100.204H75.0372V94.4652Z" fill="#243454"/>
    <path d="M74.9569 94.545H69.3735V100.124H74.9569V94.545Z" fill="#243454"/>
    <path d="M75.0372 88.8859H69.2943V94.6244H75.0372V88.8859Z" fill="#243454"/>
    <path d="M74.9569 88.9657H69.3735V94.5448H74.9569V88.9657Z" fill="#243454"/>
    <path d="M75.0372 83.387H69.2943V89.1255H75.0372V83.387Z" fill="#243454"/>
    <path d="M74.9569 83.4661H69.3735V88.9655H74.9569V83.4661Z" fill="#243454"/>
    <path d="M75.0372 77.8075H69.2943V83.546H75.0372V77.8075Z" fill="#243454"/>
    <path d="M74.9569 77.8875H69.3735V83.4665H74.9569V77.8875Z" fill="#243454"/>
    <path d="M75.0372 72.3087H69.2943V78.0472H75.0372V72.3087Z" fill="#243454"/>
    <path d="M74.9569 72.3882H69.3735V77.9673H74.9569V72.3882Z" fill="#243454"/>
    <path d="M75.0372 66.7294H69.2943V72.4679H75.0372V66.7294Z" fill="#243454"/>
    <path d="M74.9569 66.8086H69.3735V72.3877H74.9569V66.8086Z" fill="#243454"/>
    <path d="M75.0372 61.2297H69.2943V66.9682H75.0372V61.2297Z" fill="#243454"/>
    <path d="M74.9569 61.3096H69.3735V66.809H74.9569V61.3096Z" fill="#243454"/>
    <path d="M75.0372 55.6506H69.2943V61.3891H75.0372V55.6506Z" fill="#243454"/>
    <path d="M74.9569 55.7305H69.3735V61.3096H74.9569V55.7305Z" fill="#FFE4CE"/>
    <path d="M75.0372 33.4937H69.2943V39.2322H75.0372V33.4937Z" fill="#FFE4CE"/>
    <path d="M74.9569 33.5731H69.3735V39.1522H74.9569V33.5731Z" fill="#F57E77"/>
    <path d="M75.0372 27.9144H69.2943V33.6529H75.0372V27.9144Z" fill="#FFE4CE"/>
    <path d="M74.9569 27.9939H69.3735V33.573H74.9569V27.9939Z" fill="#FFE4CE"/>
    <path d="M75.0372 22.4155H69.2943V28.154H75.0372V22.4155Z" fill="#FFE4CE"/>
    <path d="M74.9569 22.4951H69.3735V27.9945H74.9569V22.4951Z" fill="#FFE4CE"/>
    <path d="M75.0372 16.8359H69.2943V22.5744H75.0372V16.8359Z" fill="#FFE4CE"/>
    <path d="M74.9569 16.9155H69.3735V22.4946H74.9569V16.9155Z" fill="#FFE4CE"/>
    <path d="M75.0372 11.3368H69.2943V17.0753H75.0372V11.3368Z" fill="#3D041F"/>
    <path d="M74.9569 11.4166H69.3735V16.9957H74.9569V11.4166Z" fill="#3D041F"/>
    <path d="M76.5759 15.6863H66.0643V22.6887H76.5759V15.6863Z" fill="#3D041F"/>
    <path d="M80.0793 8.68396H73.0715V19.1876H80.0793V8.68396Z" fill="#3D041F"/>
    <path d="M75.0372 5.75769H69.2943V11.4962H75.0372V5.75769Z" fill="#242424"/>
    <path d="M74.9569 5.83704H69.3735V11.4161H74.9569V5.83704Z" fill="#3D041F"/>
    <path d="M75.0372 0.258301H69.2943V5.9968H75.0372V0.258301Z" fill="#242424"/>
    <path d="M74.9569 0.337646H69.3735V5.83704H74.9569V0.337646Z" fill="#3D041F"/>
    <path d="M69.4543 116.622H63.7114V122.361H69.4543V116.622Z" fill="#243454"/>
    <path d="M69.374 116.702H63.7906V122.281H69.374V116.702Z" fill="#243454"/>
    <path d="M69.4543 111.043H63.7114V116.782H69.4543V111.043Z" fill="#243454"/>
    <path d="M69.374 111.123H63.7906V116.702H69.374V111.123Z" fill="#243454"/>
    <path d="M69.4543 105.544H63.7114V111.282H69.4543V105.544Z" fill="#243454"/>
    <path d="M69.374 105.624H63.7906V111.123H69.374V105.624Z" fill="#243454"/>
    <path d="M69.4543 99.9647H63.7114V105.703H69.4543V99.9647Z" fill="#243454"/>
    <path d="M69.374 100.044H63.7906V105.623H69.374V100.044Z" fill="#131E33"/>
    <path d="M69.4543 94.4652H63.7114V100.204H69.4543V94.4652Z" fill="#243454"/>
    <path d="M69.4543 88.8859H63.7114V94.6244H69.4543V88.8859Z" fill="#243454"/>
    <path d="M69.374 88.9657H63.7906V94.5448H69.374V88.9657Z" fill="#131E33"/>
    <path d="M69.4543 83.387H63.7114V89.1255H69.4543V83.387Z" fill="#243454"/>
    <path d="M69.4543 77.8075H63.7114V83.546H69.4543V77.8075Z" fill="#243454"/>
    <path d="M69.374 77.8875H63.7906V83.4665H69.374V77.8875Z" fill="#243454"/>
    <path d="M69.4543 72.3087H63.7114V78.0472H69.4543V72.3087Z" fill="#243454"/>
    <path d="M69.374 72.3882H63.7906V77.9673H69.374V72.3882Z" fill="#243454"/>
    <path d="M69.4543 66.7294H63.7114V72.4679H69.4543V66.7294Z" fill="#243454"/>
    <path d="M69.374 66.8086H63.7906V72.3877H69.374V66.8086Z" fill="#243454"/>
    <path d="M69.4543 61.2297H63.7114V66.9682H69.4543V61.2297Z" fill="#243454"/>
    <path d="M69.374 61.3096H63.7906V66.809H69.374V61.3096Z" fill="#243454"/>
    <path d="M69.4543 55.6506H63.7114V61.3891H69.4543V55.6506Z" fill="#243454"/>
    <path d="M75.0379 55.7305H69.3745V61.3096H75.0379V55.7305Z" fill="#374F80"/>
    <path d="M69.4543 27.9144H63.7114V33.6529H69.4543V27.9144Z" fill="#3D041F"/>
    <path d="M69.374 27.9939H63.7906V33.573H69.374V27.9939Z" fill="#3D041F"/>
    <path d="M69.4543 22.4155H63.7114V28.154H69.4543V22.4155Z" fill="#3D041F"/>
    <path d="M69.374 22.4951H63.7906V27.9945H69.374V22.4951Z" fill="#3D041F"/>
    <path d="M69.4543 16.8359H63.7114V22.5744H69.4543V16.8359Z" fill="#242424"/>
    <path d="M69.374 16.9155H63.7906V22.4946H69.374V16.9155Z" fill="#3D041F"/>
    <path d="M69.4543 11.3368H63.7114V17.0753H69.4543V11.3368Z" fill="#242424"/>
    <path d="M69.374 11.4166H63.7906V16.9957H69.374V11.4166Z" fill="#3D041F"/>
    <path d="M69.4543 5.75769H63.7114V11.4962H69.4543V5.75769Z" fill="#242424"/>
    <path d="M69.374 5.83704H63.7906V11.4161H69.374V5.83704Z" fill="#3D041F"/>
    <path d="M63.9498 72.3087H58.2069V78.0472H63.9498V72.3087Z" fill="#243454"/>
    <path d="M63.8706 72.3882H58.2872V77.9673H63.8706V72.3882Z" fill="#243454"/>
    <path d="M63.9498 66.7294H58.2069V72.4679H63.9498V66.7294Z" fill="#243454"/>
    <path d="M63.8706 66.8086H58.2872V72.3877H63.8706V66.8086Z" fill="#243454"/>
    <path d="M63.9498 61.2297H58.2069V66.9682H63.9498V61.2297Z" fill="#243454"/>
    <path d="M63.8706 61.3096H58.2872V66.809H63.8706V61.3096Z" fill="#243454"/>
    <path d="M63.9498 55.6506H58.2069V61.3891H63.9498V55.6506Z" fill="#243454"/>
    <path d="M63.8706 55.7305H58.2872V61.3096H63.8706V55.7305Z" fill="#243454"/>
    <path d="M66.0641 15.6863H59.0564V26.1899H66.0641V15.6863Z" fill="#3D041F"/>
    <path d="M58.3666 72.3087H52.6238V78.0472H58.3666V72.3087Z" fill="#243454"/>
    <path d="M58.3666 66.7294H52.6238V72.4679H58.3666V66.7294Z" fill="#243454"/>
    <path d="M58.2078 66.8086H52.7042V72.3877H58.2078V66.8086Z" fill="#243454"/>
    <path d="M58.3666 61.2297H52.6238V66.9682H58.3666V61.2297Z" fill="#243454"/>
    <path d="M58.2078 61.3096H52.7042V66.809H58.2078V61.3096Z" fill="#243454"/>
    <path d="M52.8631 72.3087H47.1202V78.0472H52.8631V72.3087Z" fill="#243454"/>
    <path d="M52.8631 66.7294H47.1202V72.4679H52.8631V66.7294Z" fill="#243454"/>
    <path d="M52.7839 66.8086H47.2006V72.3877H52.7839V66.8086Z" fill="#243454"/>
    <path d="M55.3906 72.3087H43.9471V78.0472H55.3906V72.3087Z" fill="#243454"/>
    <path d="M64.6397 22.6887H59.0564V28.2678H64.6397V22.6887Z" fill="#3D041F"/>
    <path d="M92.8303 22.6887H87.0874V28.4272H92.8303V22.6887Z" fill="#66667C"/>
    <path d="M71.5688 26.1899H66.0652V31.769H71.5688V26.1899Z" fill="#FFE4CE"/>
    <path d="M52.7839 72.3882H47.2006V77.9673H52.7839V72.3882Z" fill="#243454"/>
    <path d="M141.719 231.911H135.976V237.649H141.719V231.911Z" fill="#0A0F1A"/>
    <path d="M136.136 231.91H130.394V237.649H136.136V231.91Z" fill="#0A0F1A"/>
    <path d="M136.136 226.331H130.394V232.069H136.136V226.331Z" fill="#111724"/>
    <path d="M130.632 231.91H124.889V237.649H130.632V231.91Z" fill="#0A0F1A"/>
    <path d="M130.632 226.331H124.889V232.069H130.632V226.331Z" fill="#111724"/>
    <path d="M130.633 220.832H124.89V226.571H130.633V220.832Z" fill="#111724"/>
    <path d="M124.97 231.99H119.386V237.569H124.97V231.99Z" fill="#0A0F1A"/>
    <path d="M125.049 226.331H119.306V232.069H125.049V226.331Z" fill="#111724"/>
    <path d="M125.049 220.832H119.306V226.571H125.049V220.832Z" fill="#111724"/>
    <path d="M119.465 231.91H113.722V237.649H119.465V231.91Z" fill="#0A0F1A"/>
    <path d="M119.465 226.331H113.722V232.069H119.465V226.331Z" fill="#111724"/>
    <path d="M119.466 220.832H113.723V226.571H119.466V220.832Z" fill="#111724"/>
    <path d="M119.466 215.253H113.723V220.991H119.466V215.253Z" fill="#111724"/>
    <path d="M119.466 209.753H113.723V215.492H119.466V209.753Z" fill="#243454"/>
    <path d="M119.466 204.174H113.723V209.913H119.466V204.174Z" fill="#243454"/>
    <path d="M119.466 198.675H113.723V204.413H119.466V198.675Z" fill="#243454"/>
    <path d="M119.465 193.096H113.722V198.835H119.465V193.096Z" fill="#243454"/>
    <path d="M119.465 187.517H113.722V193.255H119.465V187.517Z" fill="#243454"/>
    <path d="M118.531 163.757L113.214 164.973L114.074 168.732L119.391 167.517L118.531 163.757Z" fill="#243454"/>
    <path d="M119.466 167.427H113.723V187.756H119.466V167.427Z" fill="#243454"/>
    <path d="M113.962 231.911H108.22V237.649H113.962V231.911Z" fill="#0A0F1A"/>
    <path d="M113.962 226.331H108.22V232.069H113.962V226.331Z" fill="#111724"/>
    <path d="M113.962 220.832H108.22V226.571H113.962V220.832Z" fill="#111724"/>
    <path d="M113.962 215.253H108.22V220.991H113.962V215.253Z" fill="#111724"/>
    <path d="M113.962 209.754H108.22V215.492H113.962V209.754Z" fill="#243454"/>
    <path d="M113.962 204.174H108.22V209.913H113.962V204.174Z" fill="#243454"/>
    <path d="M113.962 198.675H108.22V204.413H113.962V198.675Z" fill="#243454"/>
    <path d="M113.962 193.096H108.22V198.834H113.962V193.096Z" fill="#243454"/>
    <path d="M113.962 187.517H108.22V193.255H113.962V187.517Z" fill="#243454"/>
    <path d="M113.961 165.939H108.219V187.756H113.961V165.939Z" fill="#243454"/>
    <path d="M108.378 231.911H102.635V237.649H108.378V231.911Z" fill="#0A0F1A"/>
    <path d="M108.378 226.331H102.635V232.069H108.378V226.331Z" fill="#111724"/>
    <path d="M108.3 220.912H102.716V226.491H108.3V220.912Z" fill="#111724"/>
    <path d="M108.378 215.253H102.635V220.991H108.378V215.253Z" fill="#111724"/>
    <path d="M108.378 209.754H102.635V215.492H108.378V209.754Z" fill="#131E33"/>
    <path d="M108.378 204.174H102.635V209.913H108.378V204.174Z" fill="#131E33"/>
    <path d="M108.378 198.675H102.635V204.413H108.378V198.675Z" fill="#131E33"/>
    <path d="M108.378 193.096H102.635V198.834H108.378V193.096Z" fill="#131E33"/>
    <path d="M108.378 187.517H102.635V193.255H108.378V187.517Z" fill="#131E33"/>
    <path d="M108.321 166.976H102.647V188.103H108.321V166.976Z" fill="#131E33"/>
    <path d="M116.31 159.008L111.097 161.416L113.507 166.625L118.72 164.216L116.31 159.008Z" fill="#243454"/>
    <path d="M116.272 159.113L111.276 161.421L113.586 166.413L118.581 164.105L116.272 159.113Z" fill="#243454"/>
    <path d="M114.001 154.016L108.789 156.424L111.199 161.633L116.411 159.225L114.001 154.016Z" fill="#243454"/>
    <path d="M113.962 154.121L108.967 156.429L111.31 161.493L116.305 159.185L113.962 154.121Z" fill="#243454"/>
    <path d="M111.658 148.952L106.445 151.36L108.855 156.569L114.068 154.161L111.658 148.952Z" fill="#243454"/>
    <path d="M111.619 149.058L106.624 151.366L108.967 156.43L113.962 154.122L111.619 149.058Z" fill="#243454"/>
    <path d="M109.348 143.96L104.135 146.368L106.546 151.577L111.758 149.169L109.348 143.96Z" fill="#243454"/>
    <path d="M109.309 144.066L104.313 146.374L106.656 151.438L111.652 149.13L109.309 144.066Z" fill="#243454"/>
    <path d="M107.005 138.896L101.792 141.304L104.203 146.513L109.415 144.105L107.005 138.896Z" fill="#243454"/>
    <path d="M106.966 139.002L101.97 141.309L104.28 146.301L109.275 143.993L106.966 139.002Z" fill="#243454"/>
    <path d="M104.695 133.904L99.4828 136.312L101.893 141.521L107.106 139.113L104.695 133.904Z" fill="#243454"/>
    <path d="M104.657 134.01L99.661 136.318L102.004 141.382L107 139.074L104.657 134.01Z" fill="#243454"/>
    <path d="M102.352 128.84L97.139 131.248L99.5491 136.457L104.762 134.049L102.352 128.84Z" fill="#243454"/>
    <path d="M102.313 128.946L97.3179 131.254L99.661 136.318L104.656 134.01L102.313 128.946Z" fill="#243454"/>
    <path d="M100.043 123.848L94.8303 126.257L97.2404 131.465L102.453 129.057L100.043 123.848Z" fill="#131E33"/>
    <path d="M100.004 123.954L95.0083 126.262L97.3514 131.326L102.347 129.018L100.004 123.954Z" fill="#131E33"/>
    <path d="M111.315 161.315L106.102 163.723L108.512 168.932L113.725 166.524L111.315 161.315Z" fill="#243454"/>
    <path d="M111.277 161.421L106.209 163.763L108.518 168.754L113.586 166.413L111.277 161.421Z" fill="#243454"/>
    <path d="M109.006 156.323L103.793 158.732L106.203 163.94L111.416 161.532L109.006 156.323Z" fill="#243454"/>
    <path d="M108.967 156.429L103.899 158.771L106.242 163.835L111.31 161.493L108.967 156.429Z" fill="#243454"/>
    <path d="M106.662 151.259L101.449 153.668L103.859 158.876L109.072 156.468L106.662 151.259Z" fill="#243454"/>
    <path d="M106.624 151.366L101.556 153.707L103.899 158.771L108.967 156.43L106.624 151.366Z" fill="#243454"/>
    <path d="M104.353 146.268L99.1403 148.676L101.55 153.885L106.763 151.477L104.353 146.268Z" fill="#243454"/>
    <path d="M104.314 146.374L99.2457 148.715L101.589 153.779L106.657 151.438L104.314 146.374Z" fill="#243454"/>
    <path d="M102.009 141.204L96.7968 143.612L99.2068 148.821L104.419 146.412L102.009 141.204Z" fill="#243454"/>
    <path d="M101.971 141.309L96.9028 143.651L99.2125 148.642L104.28 146.301L101.971 141.309Z" fill="#243454"/>
    <path d="M99.7007 136.212L94.488 138.62L96.8981 143.829L102.111 141.421L99.7007 136.212Z" fill="#243454"/>
    <path d="M99.661 136.318L94.5931 138.659L96.9362 143.723L102.004 141.382L99.661 136.318Z" fill="#243454"/>
    <path d="M97.3569 131.147L92.1442 133.556L94.5542 138.764L99.7669 136.356L97.3569 131.147Z" fill="#243454"/>
    <path d="M97.3183 131.254L92.2504 133.595L94.5935 138.659L99.6614 136.318L97.3183 131.254Z" fill="#243454"/>
    <path d="M95.0473 126.156L89.8346 128.565L92.2446 133.773L97.4573 131.365L95.0473 126.156Z" fill="#243454"/>
    <path d="M95.0087 126.262L89.9408 128.603L92.2839 133.667L97.3518 131.326L95.0087 126.262Z" fill="#243454"/>
    <path d="M92.7044 121.092L87.4917 123.5L89.9017 128.709L95.1144 126.301L92.7044 121.092Z" fill="#243454"/>
    <path d="M92.6657 121.198L87.5978 123.539L89.9074 128.531L94.9753 126.19L92.6657 121.198Z" fill="#243454"/>
    <path d="M106.247 163.657L101.034 166.065L103.444 171.274L108.657 168.865L106.247 163.657Z" fill="#131E33"/>
    <path d="M103.938 158.665L98.7253 161.073L101.135 166.282L106.348 163.873L103.938 158.665Z" fill="#131E33"/>
    <path d="M103.899 158.77L98.8312 161.111L101.174 166.175L106.242 163.834L103.899 158.77Z" fill="#131E33"/>
    <path d="M101.594 153.601L96.3817 156.009L98.7918 161.218L104.004 158.81L101.594 153.601Z" fill="#131E33"/>
    <path d="M101.556 153.706L96.4885 156.048L98.8316 161.112L103.9 158.77L101.556 153.706Z" fill="#131E33"/>
    <path d="M99.2847 148.609L94.072 151.017L96.4821 156.226L101.695 153.818L99.2847 148.609Z" fill="#131E33"/>
    <path d="M99.2458 148.714L94.1779 151.056L96.521 156.12L101.589 153.778L99.2458 148.714Z" fill="#131E33"/>
    <path d="M96.9417 143.545L91.729 145.953L94.139 151.162L99.3517 148.754L96.9417 143.545Z" fill="#131E33"/>
    <path d="M96.9032 143.65L91.8353 145.992L94.1449 150.983L99.2128 148.642L96.9032 143.65Z" fill="#131E33"/>
    <path d="M94.6323 138.553L89.4196 140.962L91.8296 146.17L97.0423 143.762L94.6323 138.553Z" fill="#131E33"/>
    <path d="M92.2884 133.489L87.0757 135.897L89.4857 141.106L94.6984 138.698L92.2884 133.489Z" fill="#243454"/>
    <path d="M92.2504 133.595L87.1825 135.936L89.5256 141L94.5935 138.659L92.2504 133.595Z" fill="#243454"/>
    <path d="M89.9798 128.498L84.7671 130.906L87.1771 136.115L92.3898 133.706L89.9798 128.498Z" fill="#243454"/>
    <path d="M89.9408 128.603L84.8729 130.944L87.216 136.008L92.2839 133.667L89.9408 128.603Z" fill="#243454"/>
    <path d="M87.6369 123.433L82.4242 125.842L84.8342 131.05L90.0469 128.642L87.6369 123.433Z" fill="#243454"/>
    <path d="M87.5981 123.539L82.5302 125.88L84.8398 130.872L89.9077 128.53L87.5981 123.539Z" fill="#243454"/>
    <path d="M85.2927 118.369L80.0802 120.778L82.4898 125.987L87.7023 123.578L85.2927 118.369Z" fill="#243454"/>
    <path d="M91.7102 132.425L86.6423 134.766L91.8697 146.064L96.9376 143.723L91.7102 132.425Z" fill="#131E33"/>
    <path d="M69.3937 161.845L64.525 158.802L61.4804 163.667L66.3491 166.709L69.3937 161.845Z" fill="#243454"/>
    <path d="M69.2841 161.871L64.6179 158.955L59.274 167.493L63.9403 170.409L69.2841 161.871Z" fill="#243454"/>
    <path d="M72.3114 157.182L67.4427 154.14L64.3982 159.005L69.2668 162.047L72.3114 157.182Z" fill="#243454"/>
    <path d="M72.2021 157.207L67.5363 154.292L64.5762 159.021L69.242 161.937L72.2021 157.207Z" fill="#243454"/>
    <path d="M75.2724 152.452L70.4037 149.41L67.3591 154.274L72.2278 157.317L75.2724 152.452Z" fill="#243454"/>
    <path d="M75.1624 152.478L70.4966 149.562L67.5366 154.292L72.2024 157.207L75.1624 152.478Z" fill="#243454"/>
    <path d="M78.1902 147.789L73.3215 144.747L70.2769 149.611L75.1456 152.654L78.1902 147.789Z" fill="#243454"/>
    <path d="M78.0809 147.814L73.415 144.899L70.455 149.628L75.1208 152.544L78.0809 147.814Z" fill="#243454"/>
    <path d="M81.1502 143.059L76.2815 140.017L73.2369 144.881L78.1056 147.924L81.1502 143.059Z" fill="#243454"/>
    <path d="M81.0409 143.084L76.3751 140.168L73.4574 144.83L78.1232 147.746L81.0409 143.084Z" fill="#243454"/>
    <path d="M84.0687 138.396L79.2001 135.354L76.1555 140.218L81.0242 143.261L84.0687 138.396Z" fill="#243454"/>
    <path d="M83.9587 138.421L79.2928 135.505L76.3328 140.235L80.9986 143.151L83.9587 138.421Z" fill="#243454"/>
    <path d="M87.0297 133.666L82.161 130.623L79.1164 135.488L83.9851 138.531L87.0297 133.666Z" fill="#243454"/>
    <path d="M86.9197 133.691L82.2539 130.775L79.2939 135.505L83.9597 138.421L86.9197 133.691Z" fill="#243454"/>
    <path d="M89.9474 129.003L85.0787 125.961L82.0341 130.826L86.9028 133.868L89.9474 129.003Z" fill="#131E33"/>
    <path d="M89.8382 129.029L85.1724 126.113L82.2123 130.843L86.8782 133.758L89.8382 129.029Z" fill="#131E33"/>
    <path d="M92.9086 124.273L88.0399 121.231L84.9953 126.095L89.864 129.138L92.9086 124.273Z" fill="#131E33"/>
    <path d="M92.7985 124.299L88.1327 121.383L85.215 126.045L89.8808 128.96L92.7985 124.299Z" fill="#131E33"/>
    <path d="M64.7281 158.929L59.8594 155.886L56.8148 160.751L61.6835 163.793L64.7281 158.929Z" fill="#243454"/>
    <path d="M64.618 158.955L59.8842 155.997L53.6278 165.993L58.3617 168.951L64.618 158.955Z" fill="#243454"/>
    <path d="M67.6455 154.266L62.7769 151.224L59.7323 156.088L64.6009 159.131L67.6455 154.266Z" fill="#243454"/>
    <path d="M67.5364 154.292L62.803 151.334L59.843 156.063L64.5764 159.021L67.5364 154.292Z" fill="#243454"/>
    <path d="M70.6059 149.536L65.7372 146.493L62.6926 151.358L67.5613 154.4L70.6059 149.536Z" fill="#243454"/>
    <path d="M70.4964 149.562L65.7629 146.604L62.8029 151.333L67.5363 154.291L70.4964 149.562Z" fill="#243454"/>
    <path d="M73.5242 144.873L68.6555 141.831L65.6109 146.696L70.4796 149.738L73.5242 144.873Z" fill="#243454"/>
    <path d="M73.4141 144.899L68.6807 141.941L65.7206 146.67L70.4541 149.628L73.4141 144.899Z" fill="#243454"/>
    <path d="M76.4846 140.143L71.616 137.1L68.5714 141.965L73.44 145.008L76.4846 140.143Z" fill="#243454"/>
    <path d="M76.3752 140.168L71.6417 137.21L68.724 141.872L73.4574 144.83L76.3752 140.168Z" fill="#243454"/>
    <path d="M79.4029 135.481L74.5342 132.438L71.4896 137.303L76.3583 140.345L79.4029 135.481Z" fill="#243454"/>
    <path d="M79.2929 135.505L74.5594 132.547L71.5994 137.277L76.3329 140.235L79.2929 135.505Z" fill="#243454"/>
    <path d="M82.364 130.75L77.4954 127.707L74.4508 132.572L79.3194 135.614L82.364 130.75Z" fill="#243454"/>
    <path d="M82.2539 130.775L77.5205 127.818L74.5605 132.547L79.2939 135.505L82.2539 130.775Z" fill="#243454"/>
    <path d="M85.2818 126.088L80.4131 123.045L77.3685 127.91L82.2372 130.952L85.2818 126.088Z" fill="#243454"/>
    <path d="M85.1723 126.113L80.4388 123.155L77.4788 127.885L82.2122 130.843L85.1723 126.113Z" fill="#243454"/>
    <path d="M88.2426 121.357L83.3739 118.315L80.3293 123.18L85.198 126.222L88.2426 121.357Z" fill="#243454"/>
    <path d="M88.226 121.349L83.4926 118.391L80.5748 123.053L85.3082 126.011L88.226 121.349Z" fill="#243454"/>
    <path d="M59.9934 155.971L55.1243 152.928L50.3414 160.57L55.2105 163.613L59.9934 155.971Z" fill="#131E33"/>
    <path d="M62.912 151.308L58.0433 148.265L54.9987 153.13L59.8674 156.172L62.912 151.308Z" fill="#131E33"/>
    <path d="M62.8028 151.333L58.0693 148.375L55.1093 153.105L59.8427 156.063L62.8028 151.333Z" fill="#131E33"/>
    <path d="M65.8712 146.577L61.0026 143.535L57.958 148.399L62.8266 151.442L65.8712 146.577Z" fill="#131E33"/>
    <path d="M65.763 146.603L61.0295 143.646L58.0695 148.375L62.8029 151.333L65.763 146.603Z" fill="#131E33"/>
    <path d="M68.7908 141.915L63.9221 138.873L60.8775 143.737L65.7462 146.78L68.7908 141.915Z" fill="#131E33"/>
    <path d="M68.6806 141.94L63.9471 138.982L60.9871 143.712L65.7206 146.67L68.6806 141.94Z" fill="#131E33"/>
    <path d="M71.7509 137.185L66.8822 134.143L63.8376 139.007L68.7063 142.05L71.7509 137.185Z" fill="#131E33"/>
    <path d="M71.6418 137.21L66.9083 134.252L63.9906 138.914L68.724 141.872L71.6418 137.21Z" fill="#131E33"/>
    <path d="M74.6695 132.522L69.8008 129.48L66.7562 134.344L71.6249 137.387L74.6695 132.522Z" fill="#131E33"/>
    <path d="M74.5601 132.548L69.8267 129.59L66.8666 134.319L71.6001 137.277L74.5601 132.548Z" fill="#131E33"/>
    <path d="M77.6297 127.791L72.761 124.749L69.7164 129.613L74.5851 132.656L77.6297 127.791Z" fill="#243454"/>
    <path d="M77.5203 127.817L72.7869 124.859L69.8268 129.589L74.5603 132.547L77.5203 127.817Z" fill="#243454"/>
    <path d="M80.5473 123.129L75.6786 120.087L72.634 124.952L77.5027 127.994L80.5473 123.129Z" fill="#243454"/>
    <path d="M80.439 123.155L75.7056 120.197L72.7455 124.926L77.479 127.884L80.439 123.155Z" fill="#243454"/>
    <path d="M83.5083 118.399L78.6396 115.356L75.595 120.221L80.4637 123.264L83.5083 118.399Z" fill="#243454"/>
    <path d="M83.4926 118.391L78.7592 115.433L75.8414 120.095L80.5749 123.053L83.4926 118.391Z" fill="#243454"/>
    <path d="M72.2017 129.778L66.6191 129.778L66.6191 135.277L72.2017 135.277L72.2017 129.778Z" fill="#131E33"/>
    <path d="M17.4907 207.649L15.8292 202.156L10.3319 203.816L11.9934 209.309L17.4907 207.649Z" fill="#0A0F1A"/>
    <path d="M15.8753 202.309L14.2139 196.816L8.71657 198.476L10.378 203.969L15.8753 202.309Z" fill="#0A0F1A"/>
    <path d="M21.221 200.695L19.5596 195.201L14.0623 196.862L15.7237 202.355L21.221 200.695Z" fill="#111724"/>
    <path d="M14.2833 197.044L12.6218 191.551L7.12453 193.211L8.78596 198.705L14.2833 197.044Z" fill="#0A0F1A"/>
    <path d="M19.6281 195.43L17.9667 189.937L12.4694 191.597L14.1308 197.09L19.6281 195.43Z" fill="#111724"/>
    <path d="M24.8961 193.84L23.2346 188.346L17.7373 190.007L19.3988 195.5L24.8961 193.84Z" fill="#111724"/>
    <path d="M12.569 191.651L10.9537 186.31L5.60915 187.924L7.22443 193.265L12.569 191.651Z" fill="#0A0F1A"/>
    <path d="M18.0128 190.089L16.3513 184.596L10.854 186.256L12.5155 191.75L18.0128 190.089Z" fill="#111724"/>
    <path d="M23.2809 188.499L21.6195 183.006L16.1222 184.666L17.7837 190.159L23.2809 188.499Z" fill="#111724"/>
    <path d="M11.0524 186.363L9.39099 180.87L3.89369 182.53L5.55513 188.023L11.0524 186.363Z" fill="#0A0F1A"/>
    <path d="M16.3981 184.749L14.7367 179.256L9.2394 180.916L10.9008 186.409L16.3981 184.749Z" fill="#111724"/>
    <path d="M21.6655 183.158L20.004 177.665L14.5068 179.325L16.1682 184.818L21.6655 183.158Z" fill="#111724"/>
    <path d="M27.0102 181.544L25.3488 176.051L19.8515 177.711L21.5129 183.204L27.0102 181.544Z" fill="#111724"/>
    <path d="M32.2783 179.953L30.6168 174.46L25.1195 176.12L26.781 181.613L32.2783 179.953Z" fill="#243454"/>
    <path d="M37.6232 178.339L35.9618 172.846L30.4645 174.506L32.126 179.999L37.6232 178.339Z" fill="#243454"/>
    <path d="M42.8913 176.748L41.2299 171.255L35.7326 172.915L37.394 178.408L42.8913 176.748Z" fill="#243454"/>
    <path d="M48.2354 175.134L46.574 169.641L41.0767 171.301L42.7381 176.794L48.2354 175.134Z" fill="#243454"/>
    <path d="M53.5805 173.52L51.9191 168.027L46.4218 169.687L48.0832 175.18L53.5805 173.52Z" fill="#243454"/>
    <path d="M58.8486 171.929L57.1871 166.436L51.6898 168.096L53.3513 173.589L58.8486 171.929Z" fill="#243454"/>
    <path d="M63.8793 170.353L62.2179 164.859L56.5296 166.577L58.191 172.07L63.8793 170.353Z" fill="#243454"/>
    <path d="M9.46026 181.099L7.79883 175.606L2.30153 177.266L3.96297 182.759L9.46026 181.099Z" fill="#0A0F1A"/>
    <path d="M14.8054 179.485L13.1439 173.992L7.64662 175.652L9.30806 181.145L14.8054 179.485Z" fill="#111724"/>
    <path d="M20.0735 177.894L18.4121 172.401L12.9148 174.061L14.5763 179.554L20.0735 177.894Z" fill="#111724"/>
    <path d="M25.4181 176.28L23.7567 170.787L18.2594 172.447L19.9209 177.94L25.4181 176.28Z" fill="#111724"/>
    <path d="M30.6863 174.689L29.0249 169.196L23.5276 170.856L25.1891 176.349L30.6863 174.689Z" fill="#243454"/>
    <path d="M36.0306 173.075L34.3691 167.582L28.8719 169.242L30.5333 174.735L36.0306 173.075Z" fill="#243454"/>
    <path d="M41.2994 171.484L39.6379 165.991L34.1406 167.651L35.8021 173.144L41.2994 171.484Z" fill="#243454"/>
    <path d="M46.6435 169.87L44.9821 164.377L39.4848 166.037L41.1462 171.53L46.6435 169.87Z" fill="#243454"/>
    <path d="M51.9882 168.256L50.3268 162.763L44.8295 164.423L46.4909 169.916L51.9882 168.256Z" fill="#243454"/>
    <path d="M60.6142 165.65L58.9528 160.157L50.0972 162.832L51.7586 168.325L60.6142 165.65Z" fill="#243454"/>
    <path d="M7.84503 175.758L6.18359 170.265L0.686297 171.925L2.34773 177.419L7.84503 175.758Z" fill="#0A0F1A"/>
    <path d="M13.1899 174.144L11.5284 168.651L6.03115 170.311L7.69258 175.804L13.1899 174.144Z" fill="#111724"/>
    <path d="M18.3583 172.501L16.743 167.16L11.3985 168.774L13.0137 174.115L18.3583 172.501Z" fill="#111724"/>
    <path d="M23.8028 170.939L22.1414 165.446L16.6441 167.106L18.3055 172.6L23.8028 170.939Z" fill="#111724"/>
    <path d="M29.0709 169.348L27.4094 163.855L21.9122 165.515L23.5736 171.008L29.0709 169.348Z" fill="#131E33"/>
    <path d="M34.4151 167.734L32.7537 162.241L27.2564 163.901L28.9178 169.395L34.4151 167.734Z" fill="#131E33"/>
    <path d="M39.6838 166.143L38.0223 160.65L32.525 162.31L34.1865 167.803L39.6838 166.143Z" fill="#131E33"/>
    <path d="M45.0279 164.529L43.3665 159.036L37.8692 160.696L39.5306 166.189L45.0279 164.529Z" fill="#131E33"/>
    <path d="M55.6642 161.316L54.0028 155.823L43.2137 159.082L44.8751 164.575L55.6642 161.316Z" fill="#131E33"/>
    <path d="M102.635 120.722H93.5584V124.223H102.635V120.722Z" fill="#131E33"/>
    <path d="M93.5584 120.722H84.35V124.223H93.5584V120.722Z" fill="#131E33"/>
    <path d="M84.35 120.722H75.1431V124.223H84.35V120.722Z" fill="#131E33"/>
    <path d="M75.2734 120.722H66.0652V124.223H75.2734V120.722Z" fill="#131E33"/>
    <path d="M102.634 124.224H93.6954V134.727H102.634V124.224Z" fill="#243454"/>
    <path d="M93.6954 124.224H84.6266V134.727H93.6954V124.224Z" fill="#243454"/>
    <path d="M84.6266 124.224H75.5592V134.727H84.6266V124.224Z" fill="#243454"/>
    <path d="M75.6875 124.224H66.6189V134.727H75.6875V124.224Z" fill="#243454"/>
    <path d="M73.2124 124.211L66.4395 124.211L66.4395 134.727L73.2124 134.727L73.2124 124.211Z" fill="#131E33"/>
    <path d="M69.374 72.4681H63.7906V88.9656H69.374V72.4681Z" fill="#131E33"/>
    <path d="M69.374 86.2538H63.7906V100.124H69.374V86.2538Z" fill="#131E33"/>
    <path d="M67.4429 72.4174H58.1277V77.9965H67.4429V72.4174Z" fill="#131E33"/>
    <path d="M69.2942 66.9681H63.7906V72.5472H69.2942V66.9681Z" fill="#131E33"/>
    <path d="M51.7475 95.4682L47.7994 99.4132L56.5959 108.203L60.5439 104.258L51.7475 95.4682Z" fill="#131E33"/>
    <path d="M78.704 114.628L74.8123 118.517L78.704 122.405L82.5958 118.517L78.704 114.628Z" fill="#FFE4CE"/>
    <path d="M74.8133 110.739L70.9215 114.628L74.8697 118.573L78.7614 114.684L74.8133 110.739Z" fill="#FFE4CE"/>
    <path d="M70.8649 106.794L66.9731 110.683L70.9213 114.628L74.8131 110.739L70.8649 106.794Z" fill="#FFE4CE"/>
    <path d="M65.8251 101.759L61.934 105.647L67.0294 110.738L70.9205 106.85L65.8251 101.759Z" fill="white"/>
    <path d="M63.0257 98.9604L59.1339 102.849L63.0257 106.738L66.9174 102.849L63.0257 98.9604Z" fill="#243454"/>
    <path d="M55.3903 91.5708H50.9073V97.0704H55.3903V91.5708Z" fill="#243454"/>
    <path d="M54.9177 90.8601L51.0261 94.7488L59.1893 102.906L63.0809 99.0171L54.9177 90.8601Z" fill="#243454"/>
    <path d="M74.8128 118.516L70.8646 122.461L74.7564 126.35L78.7045 122.405L74.8128 118.516Z" fill="#FFE4CE"/>
    <path d="M70.9214 114.628L66.9733 118.573L70.9214 122.518L74.8696 118.573L70.9214 114.628Z" fill="#FFE4CE"/>
    <path d="M66.9729 110.683L63.0248 114.628L66.9729 118.573L70.9211 114.628L66.9729 110.683Z" fill="#FFE4CE"/>
    <path d="M61.9532 105.668L58.0056 109.612L63.0809 114.684L67.0285 110.739L61.9532 105.668Z" fill="#877A86"/>
    <path d="M59.1339 102.849L55.1858 106.794L59.0775 110.683L63.0257 106.738L59.1339 102.849Z" fill="#131E33"/>
    <path d="M45.0422 92.7135L45.0422 99.7151L53.3411 99.7151L53.3411 92.7135L45.0422 92.7135Z" fill="#131E33"/>
    <path d="M48.5461 92.7126L48.5461 97.0703L53.3423 97.0703L53.3423 92.7126L48.5461 92.7126Z" fill="#243454"/>
    <path d="M48.5461 89.2113L48.5461 92.7126L52.0501 92.7126L52.0501 89.2113L48.5461 89.2113Z" fill="#243454"/>
    <path d="M48.5461 85.7102L48.5461 89.2115L52.0501 89.2115L52.0501 85.7102L48.5461 85.7102Z" fill="#243454"/>
    <path d="M48.5461 82.2089L48.5461 85.7102L52.0501 85.7102L52.0501 82.2089L48.5461 82.2089Z" fill="#243454"/>
    <path d="M67.0297 118.516L63.0815 122.461L67.0297 126.407L70.9779 122.461L67.0297 118.516Z" fill="#FFE4CE"/>
    <path d="M63.0821 114.571L59.1339 118.517L63.0821 122.462L67.0302 118.517L63.0821 114.571Z" fill="#F57E77"/>
    <path d="M48.5461 75.2074L48.5461 82.209L52.0496 82.209L52.0496 75.2074L48.5461 75.2074Z" fill="#243454"/>
    <path d="M91.627 39.2324H74.7972V44.4923H91.627V39.2324Z" fill="#FFE4CE"/>
    <path d="M91.4682 44.8115H74.4965V51.0049H91.4682V44.8115Z" fill="#F57E77"/>
    <path d="M80.0798 39.2324H74.4965V44.8115H80.0798V39.2324Z" fill="#F57E77"/>
    <path d="M58.2076 72.3879H45.9817V77.967H58.2076V72.3879Z" fill="#243454"/>
    <path d="M91.6272 55.6503H74.9574V61.3888H91.6272V55.6503Z" fill="white"/>
    <path d="M91.6276 55.5963H85.8864V71.7056H91.6276V55.5963Z" fill="white"/>
    <path d="M91.6274 55.8105H85.9674V66.7834H91.6274V55.8105Z" fill="white"/>
    <path d="M85.943 55.5963H80.4652V66.5692H85.943V55.5963Z" fill="white"/>
    <path d="M86.0438 66.5691H80.4604V72.3873H86.0438V66.5691Z" fill="#374F80"/>
    <path d="M97.1312 55.8103H91.5479V72.3875H97.1312V55.8103Z" fill="#374F80"/>
    <path d="M91.5892 71.7365H86.0059V77.3155H91.5892V71.7365Z" fill="#374F80"/>
    <path d="M91.6275 55.5962H86.0059V71.7056H91.6275V55.5962Z" fill="#E4352F"/>
    <path d="M86.0063 55.6504H80.3168V61.389H86.0063V55.6504Z" fill="#A3211D"/>
    <path d="M80.3547 55.6501H74.8782V61.3887H80.3547V55.6501Z" fill="#A3211D"/>
</svg>
