<svg width="141" height="237" viewBox="0 0 141 237" fill="none" xmlns="http://www.w3.org/2000/svg">
    <path d="M16.7418 82.0942L18.1558 87.3751L12.8787 88.7901L11.4647 83.5092L16.7418 82.0942Z" fill="#FFE4CE"/>
    <path d="M22.0184 80.6793L23.4324 85.9602L18.0788 87.3957L16.6648 82.1148L22.0184 80.6793Z" fill="#FFE4CE"/>
    <path d="M27.3723 79.2435L28.7863 84.5244L23.4327 85.9599L22.0187 80.679L27.3723 79.2435Z" fill="#FFE4CE"/>
    <path d="M36.7045 76.7416L38.1185 82.0225L28.71 84.5453L27.296 79.2644L36.7045 76.7416Z" fill="#FFE4CE"/>
    <path d="M38.0029 76.3931L39.4169 81.674L34.1398 83.089L32.7258 77.8081L38.0029 76.3931Z" fill="white"/>
    <path d="M43.2797 74.9781L44.6937 80.259L39.3401 81.6945L37.9261 76.4136L43.2797 74.9781Z" fill="white"/>
    <path d="M18.1556 87.3751L19.5901 92.7325L14.313 94.1475L12.8785 88.7901L18.1556 87.3751Z" fill="#FFE4CE"/>
    <path d="M23.4325 85.9602L24.8669 91.3176L19.5134 92.7531L18.0789 87.3957L23.4325 85.9602Z" fill="#FFE4CE"/>
    <path d="M28.7862 84.5244L30.2207 89.8818L24.8671 91.3174L23.4326 85.9599L28.7862 84.5244Z" fill="#FFE4CE"/>
    <path d="M38.616 81.8889L40.0505 87.2463L30.1444 89.9026L28.7099 84.5452L38.616 81.8889Z" fill="#F57E77"/>
    <path d="M39.417 81.674L40.8514 87.0314L35.5743 88.4464L34.1398 83.089L39.417 81.674Z" fill="#F57E77"/>
    <path d="M44.6937 80.259L46.1282 85.6164L40.7746 87.0519L39.3401 81.6945L44.6937 80.259Z" fill="#F57E77"/>
    <path d="M24.8469 91.2407L26.2814 96.5981L20.9278 98.0337L19.4933 92.6762L24.8469 91.2407Z" fill="#FFE4CE"/>
    <path d="M30.2 89.8054L31.6345 95.1628L26.2809 96.5983L24.8464 91.2409L30.2 89.8054Z" fill="#F57E77"/>
    <path d="M39.5267 81.6378L40.9653 87.0109L35.5663 88.4586L34.1277 83.0855L39.5267 81.6378Z" fill="#C5C5C5"/>
    <path d="M96.485 88.3127L90.9475 88.0781L90.7165 93.5404L96.254 93.775L96.485 88.3127Z" fill="#C5C5C5"/>
    <path d="M96.7195 82.7709L91.182 82.5363L90.9476 88.0778L96.4851 88.3123L96.7195 82.7709Z" fill="#C5C5C5"/>
    <path d="M96.9508 77.309L91.4133 77.0744L91.1789 82.6158L96.7164 82.8504L96.9508 77.309Z" fill="#C5C5C5"/>
    <path d="M90.9478 88.0782L85.4103 87.8436L85.1792 93.3059L90.7167 93.5405L90.9478 88.0782Z" fill="white"/>
    <path d="M91.1815 82.5367L85.644 82.3021L85.4097 87.8436L90.9471 88.0781L91.1815 82.5367Z" fill="white"/>
    <path d="M91.4128 77.0752L85.8754 76.8398L85.6418 82.3813L91.1793 82.6167L91.4128 77.0752Z" fill="white"/>
    <path d="M38.9855 116.151H44.6863V121.856H38.9855V116.151Z" fill="white"/>
    <path d="M39.0647 116.23H44.528V121.777H39.0647V116.23Z" fill="white"/>
    <path d="M38.9855 110.605H44.6863V116.31H38.9855V110.605Z" fill="white"/>
    <path d="M39.0647 110.684H44.528V116.23H39.0647V110.684Z" fill="white"/>
    <path d="M38.9855 105.138H44.6863V110.843H38.9855V105.138Z" fill="white"/>
    <path d="M39.0647 105.217H44.528V110.684H39.0647V105.217Z" fill="white"/>
    <path d="M38.9855 99.5911H44.6863V105.296H38.9855V99.5911Z" fill="white"/>
    <path d="M39.0647 99.6702H44.528V105.217H39.0647V99.6702Z" fill="white"/>
    <path d="M38.9855 94.1237H44.6863V99.8285H38.9855V94.1237Z" fill="white"/>
    <path d="M39.0647 94.2031H44.528V99.7495H39.0647V94.2031Z" fill="white"/>
    <path d="M38.9855 88.5771H44.6863V94.282H38.9855V88.5771Z" fill="white"/>
    <path d="M39.0647 88.6566H44.528V94.203H39.0647V88.6566Z" fill="white"/>
    <path d="M38.9855 83.1105H44.6863V88.8154H38.9855V83.1105Z" fill="white"/>
    <path d="M39.0647 83.1891H44.528V88.6563H39.0647V83.1891Z" fill="white"/>
    <path d="M38.9855 77.5635H44.6863V83.2684H38.9855V77.5635Z" fill="white"/>
    <path d="M39.0654 76.9641H44.5287V82.5105H39.0654V76.9641Z" fill="white"/>
    <path d="M38.9855 72.097H44.6863V77.8019H38.9855V72.097Z" fill="white"/>
    <path d="M39.0654 71.4974H44.5287V77.0438H39.0654V71.4974Z" fill="white"/>
    <path d="M38.9855 66.5505H44.6863V72.2554H38.9855V66.5505Z" fill="white"/>
    <path d="M39.0647 66.6292H44.528V72.1756H39.0647V66.6292Z" fill="white"/>
    <path d="M38.9855 61.0831H44.6863V66.788H38.9855V61.0831Z" fill="white"/>
    <path d="M39.0647 61.1625H44.528V66.6297H39.0647V61.1625Z" fill="white"/>
    <path d="M38.9855 55.5364H44.6863V61.2413H38.9855V55.5364Z" fill="white"/>
    <path d="M39.0647 55.616H44.528V61.1624H39.0647V55.616Z" fill="white"/>
    <path d="M35.1228 61.0554H40.5861V66.6018H35.1228V61.0554Z" fill="white"/>
    <path d="M35.1228 64.5361H40.5861V70.0825H35.1228V64.5361Z" fill="white"/>
    <path d="M35.1228 68.0168H40.5861V73.5632H35.1228V68.0168Z" fill="white"/>
    <path d="M38.9855 16.9494H44.6863V22.6543H38.9855V16.9494Z" fill="#3D041F"/>
    <path d="M39.0647 17.0284H44.528V22.5749H39.0647V17.0284Z" fill="#3D041F"/>
    <path d="M38.9855 11.4824H44.6863V17.1872H38.9855V11.4824Z" fill="#621931"/>
    <path d="M39.0647 11.5618H44.528V17.1082H39.0647V11.5618Z" fill="#621931"/>
    <path d="M38.9855 5.93591H44.6863V11.6408H38.9855V5.93591Z" fill="#621931"/>
    <path d="M39.0647 6.01495H44.528V11.5614H39.0647V6.01495Z" fill="#621931"/>
    <path d="M44.4496 116.151H50.1504V121.856H44.4496V116.151Z" fill="white"/>
    <path d="M44.4496 110.605H50.1504V116.31H44.4496V110.605Z" fill="white"/>
    <path d="M44.5282 110.684H50.0707V116.23H44.5282V110.684Z" fill="white"/>
    <path d="M44.4496 105.138H50.1504V110.843H44.4496V105.138Z" fill="white"/>
    <path d="M44.5282 105.217H50.0707V110.684H44.5282V105.217Z" fill="white"/>
    <path d="M44.4496 99.5911H50.1504V105.296H44.4496V99.5911Z" fill="white"/>
    <path d="M44.5282 99.6702H50.0707V105.217H44.5282V99.6702Z" fill="white"/>
    <path d="M44.4496 94.1237H50.1504V99.8285H44.4496V94.1237Z" fill="white"/>
    <path d="M44.5282 94.2031H50.0707V99.7495H44.5282V94.2031Z" fill="white"/>
    <path d="M44.4496 88.5771H50.1504V94.282H44.4496V88.5771Z" fill="white"/>
    <path d="M44.5282 88.6566H50.0707V94.203H44.5282V88.6566Z" fill="white"/>
    <path d="M44.4496 83.1105H50.1504V88.8154H44.4496V83.1105Z" fill="white"/>
    <path d="M44.5282 83.1891H50.0707V88.6563H44.5282V83.1891Z" fill="white"/>
    <path d="M44.4496 77.5635H50.1504V83.2684H44.4496V77.5635Z" fill="white"/>
    <path d="M44.5282 77.6431H50.0707V83.1895H44.5282V77.6431Z" fill="white"/>
    <path d="M44.4496 72.097H50.1504V77.8019H44.4496V72.097Z" fill="white"/>
    <path d="M44.5282 72.1761H50.0707V77.7225H44.5282V72.1761Z" fill="white"/>
    <path d="M44.4496 66.5505H50.1504V72.2554H44.4496V66.5505Z" fill="white"/>
    <path d="M44.5282 66.6292H50.0707V72.1756H44.5282V66.6292Z" fill="white"/>
    <path d="M44.4496 61.0831H50.1504V66.788H44.4496V61.0831Z" fill="white"/>
    <path d="M44.5282 61.1625H50.0707V66.6297H44.5282V61.1625Z" fill="white"/>
    <path d="M44.4496 55.5364H50.1504V61.2413H44.4496V55.5364Z" fill="white"/>
    <path d="M44.5282 55.616H50.0707V61.1624H44.5282V55.616Z" fill="white"/>
    <path d="M44.4496 33.5095H50.1504V39.2143H44.4496V33.5095Z" fill="#FFE4CE"/>
    <path d="M44.5282 33.5885H50.0707V39.1349H44.5282V33.5885Z" fill="#FFE4CE"/>
    <path d="M44.4496 27.963H50.1504V33.6679H44.4496V27.963Z" fill="#FFE4CE"/>
    <path d="M44.5282 28.0421H50.0707V33.5885H44.5282V28.0421Z" fill="#FFE4CE"/>
    <path d="M47.5422 22.7679H57.9768V29.7293H47.5422V22.7679Z" fill="#FFE4CE"/>
    <path d="M44.4496 22.4963H50.1504V28.2012H44.4496V22.4963Z" fill="#FFE4CE"/>
    <path d="M44.5282 22.5753H50.0707V28.0425H44.5282V22.5753Z" fill="#FFE4CE"/>
    <path d="M44.4496 16.9494H50.1504V22.6543H44.4496V16.9494Z" fill="#FFE4CE"/>
    <path d="M44.5282 17.0284H50.0707V22.5749H44.5282V17.0284Z" fill="#FFE4CE"/>
    <path d="M44.4496 11.4824H50.1504V17.1872H44.4496V11.4824Z" fill="#3D041F"/>
    <path d="M44.5282 11.5618H50.0707V17.1082H44.5282V11.5618Z" fill="#3D041F"/>
    <path d="M44.4496 5.93591H50.1504V11.6408H44.4496V5.93591Z" fill="#621931"/>
    <path d="M44.5282 6.01495H50.0707V11.5614H44.5282V6.01495Z" fill="#621931"/>
    <path d="M44.4496 0.468872H50.1504V6.17375H44.4496V0.468872Z" fill="#621931"/>
    <path d="M44.5282 0.547974H50.0707V6.01515H44.5282V0.547974Z" fill="#621931"/>
    <path d="M49.9917 116.151H55.6925V121.856H49.9917V116.151Z" fill="white"/>
    <path d="M50.0705 116.23H55.6129V121.777H50.0705V116.23Z" fill="white"/>
    <path d="M49.9917 110.605H55.6925V116.31H49.9917V110.605Z" fill="white"/>
    <path d="M50.0705 110.684H55.6129V116.23H50.0705V110.684Z" fill="white"/>
    <path d="M49.9917 105.138H55.6925V110.843H49.9917V105.138Z" fill="white"/>
    <path d="M50.0705 105.217H55.6129V110.684H50.0705V105.217Z" fill="white"/>
    <path d="M49.9917 99.5911H55.6925V105.296H49.9917V99.5911Z" fill="white"/>
    <path d="M50.0705 99.6702H55.6129V105.217H50.0705V99.6702Z" fill="white"/>
    <path d="M49.9917 94.1237H55.6925V99.8285H49.9917V94.1237Z" fill="white"/>
    <path d="M50.0705 94.2031H55.6129V99.7495H50.0705V94.2031Z" fill="white"/>
    <path d="M49.9917 88.5771H55.6925V94.282H49.9917V88.5771Z" fill="white"/>
    <path d="M50.0705 88.6566H55.6129V94.203H50.0705V88.6566Z" fill="white"/>
    <path d="M49.9917 83.1105H55.6925V88.8154H49.9917V83.1105Z" fill="white"/>
    <path d="M50.0705 83.1891H55.6129V88.6563H50.0705V83.1891Z" fill="white"/>
    <path d="M49.9917 77.5635H55.6925V83.2684H49.9917V77.5635Z" fill="white"/>
    <path d="M50.0705 77.6431H55.6129V83.1895H50.0705V77.6431Z" fill="white"/>
    <path d="M49.9917 72.097H55.6925V77.8019H49.9917V72.097Z" fill="white"/>
    <path d="M50.0705 72.1761H55.6129V77.7225H50.0705V72.1761Z" fill="white"/>
    <path d="M49.9917 66.5505H55.6925V72.2554H49.9917V66.5505Z" fill="white"/>
    <path d="M50.0705 66.6292H55.6129V72.1756H50.0705V66.6292Z" fill="white"/>
    <path d="M49.9917 61.0831H55.6925V66.788H49.9917V61.0831Z" fill="white"/>
    <path d="M50.0705 61.1625H55.6129V66.6297H50.0705V61.1625Z" fill="white"/>
    <path d="M49.9917 55.5364H55.6925V61.2413H49.9917V55.5364Z" fill="#F57E77"/>
    <path d="M50.0705 55.616H55.6129V61.1624H50.0705V55.616Z" fill="#F57E77"/>
    <path d="M49.9917 49.9905H55.6925V55.6954H49.9917V49.9905Z" fill="#F57E77"/>
    <path d="M50.0705 50.0695H55.6129V55.6159H50.0705V50.0695Z" fill="#F57E77"/>
    <path d="M49.9917 44.5231H55.6925V50.228H49.9917V44.5231Z" fill="#F57E77"/>
    <path d="M49.9917 38.9765H55.6925V44.6814H49.9917V38.9765Z" fill="#FFE4CE"/>
    <path d="M47.5428 19.2872H68.412V29.7292H47.5428V19.2872Z" fill="#FFE4CE"/>
    <path d="M49.9917 33.5095H55.6925V39.2143H49.9917V33.5095Z" fill="#FFE4CE"/>
    <path d="M50.0705 33.5885H55.6129V39.1349H50.0705V33.5885Z" fill="#FFE4CE"/>
    <path d="M49.9917 27.963H55.6925V33.6679H49.9917V27.963Z" fill="#FFE4CE"/>
    <path d="M50.0705 28.0421H55.6129V33.5885H50.0705V28.0421Z" fill="#FFE4CE"/>
    <path d="M49.9917 16.9494H55.6925V22.6543H49.9917V16.9494Z" fill="#FFE4CE"/>
    <path d="M50.0705 17.0284H55.6129V22.5749H50.0705V17.0284Z" fill="#FFE4CE"/>
    <path d="M49.9917 11.4824H55.6925V17.1872H49.9917V11.4824Z" fill="#FFE4CE"/>
    <path d="M50.0705 11.5618H55.6129V17.1082H50.0705V11.5618Z" fill="#FFE4CE"/>
    <path d="M49.9917 5.93591H55.6925V11.6408H49.9917V5.93591Z" fill="#3D041F"/>
    <path d="M50.0705 6.01495H55.6129V11.5614H50.0705V6.01495Z" fill="#3D041F"/>
    <path d="M49.9917 0.468872H55.6925V6.17375H49.9917V0.468872Z" fill="#621931"/>
    <path d="M50.0705 0.547974H55.6129V6.01515H50.0705V0.547974Z" fill="#621931"/>
    <path d="M55.4542 116.151H61.155V121.856H55.4542V116.151Z" fill="white"/>
    <path d="M59.0129 120.227H64.5553V123.735H59.0129V120.227Z" fill="#262828"/>
    <path d="M63.7987 120.227H74.2333V123.708H63.7987V120.227Z" fill="#262828"/>
    <path d="M55.4542 110.605H61.155V116.31H55.4542V110.605Z" fill="white"/>
    <path d="M55.5346 110.684H61.077V116.23H55.5346V110.684Z" fill="white"/>
    <path d="M55.4542 105.138H61.155V110.843H55.4542V105.138Z" fill="white"/>
    <path d="M55.5346 105.217H61.077V110.684H55.5346V105.217Z" fill="white"/>
    <path d="M55.4542 99.5911H61.155V105.296H55.4542V99.5911Z" fill="white"/>
    <path d="M55.5346 99.6702H61.077V105.217H55.5346V99.6702Z" fill="white"/>
    <path d="M55.4542 94.1237H61.155V99.8285H55.4542V94.1237Z" fill="white"/>
    <path d="M55.5346 94.2031H61.077V99.7495H55.5346V94.2031Z" fill="white"/>
    <path d="M55.4542 88.5771H61.155V94.282H55.4542V88.5771Z" fill="white"/>
    <path d="M55.5346 88.6566H61.077V94.203H55.5346V88.6566Z" fill="white"/>
    <path d="M55.4542 83.1105H61.155V88.8154H55.4542V83.1105Z" fill="white"/>
    <path d="M55.5346 83.1891H61.077V88.6563H55.5346V83.1891Z" fill="white"/>
    <path d="M55.4542 77.5635H61.155V83.2684H55.4542V77.5635Z" fill="white"/>
    <path d="M55.5346 77.6431H61.077V83.1895H55.5346V77.6431Z" fill="white"/>
    <path d="M55.4542 72.097H61.155V77.8019H55.4542V72.097Z" fill="white"/>
    <path d="M55.5346 72.1761H61.077V77.7225H55.5346V72.1761Z" fill="white"/>
    <path d="M55.4542 66.5505H61.155V72.2554H55.4542V66.5505Z" fill="white"/>
    <path d="M55.5346 66.6292H61.077V72.1756H55.5346V66.6292Z" fill="white"/>
    <path d="M55.4542 61.0831H61.155V66.788H55.4542V61.0831Z" fill="#F57E77"/>
    <path d="M50.1504 61.1625H61.077V68.9493H50.1504V61.1625Z" fill="white"/>
    <path d="M55.4542 55.5364H61.155V61.2413H55.4542V55.5364Z" fill="#FFE4CE"/>
    <path d="M55.5346 55.616H61.077V61.1624H55.5346V55.616Z" fill="#FFE4CE"/>
    <path d="M55.4542 49.9905H61.155V55.6954H55.4542V49.9905Z" fill="#FFE4CE"/>
    <path d="M55.5346 50.0695H61.077V55.6159H55.5346V50.0695Z" fill="#FFE4CE"/>
    <path d="M55.4542 44.5231H61.155V50.228H55.4542V44.5231Z" fill="#FFE4CE"/>
    <path d="M55.5346 44.6024H61.077V50.0696H55.5346V44.6024Z" fill="#FFE4CE"/>
    <path d="M55.4542 38.9765H61.155V44.6814H55.4542V38.9765Z" fill="#FFE4CE"/>
    <path d="M55.5346 39.056H61.077V44.6024H55.5346V39.056Z" fill="#FFE4CE"/>
    <path d="M55.4542 33.5095H61.155V39.2143H55.4542V33.5095Z" fill="#FFE4CE"/>
    <path d="M55.5346 33.5885H61.077V39.1349H55.5346V33.5885Z" fill="#FFE4CE"/>
    <path d="M55.4542 27.963H61.155V33.6679H55.4542V27.963Z" fill="#FFE4CE"/>
    <path d="M55.5346 28.0421H61.077V33.5885H55.5346V28.0421Z" fill="#FFE4CE"/>
    <path d="M55.4542 22.4963H61.155V28.2012H55.4542V22.4963Z" fill="#FFE4CE"/>
    <path d="M55.5346 22.5753H61.077V28.0425H55.5346V22.5753Z" fill="#FFE4CE"/>
    <path d="M55.4542 16.9494H61.155V22.6543H55.4542V16.9494Z" fill="#FFE4CE"/>
    <path d="M55.5346 17.0284H61.077V22.5749H55.5346V17.0284Z" fill="#FFE4CE"/>
    <path d="M55.4542 11.4824H61.155V17.1872H55.4542V11.4824Z" fill="#FFE4CE"/>
    <path d="M55.5346 11.5618H61.077V17.1082H55.5346V11.5618Z" fill="#FFE4CE"/>
    <path d="M55.4542 5.93591H61.155V11.6408H55.4542V5.93591Z" fill="#3D041F"/>
    <path d="M55.5346 6.01495H61.077V11.5614H55.5346V6.01495Z" fill="#3D041F"/>
    <path d="M55.4542 0.468872H61.155V6.17375H55.4542V0.468872Z" fill="#621931"/>
    <path d="M55.5346 0.547974H61.077V6.01515H55.5346V0.547974Z" fill="#621931"/>
    <path d="M60.9979 110.605H66.6987V116.31H60.9979V110.605Z" fill="white"/>
    <path d="M61.155 110.684H66.6183V116.23H61.155V110.684Z" fill="white"/>
    <path d="M60.9979 105.138H66.6987V110.843H60.9979V105.138Z" fill="white"/>
    <path d="M61.155 105.217H66.6183V110.684H61.155V105.217Z" fill="white"/>
    <path d="M60.9979 99.5911H66.6987V105.296H60.9979V99.5911Z" fill="white"/>
    <path d="M61.155 99.6702H66.6183V105.217H61.155V99.6702Z" fill="white"/>
    <path d="M60.9979 94.1237H66.6987V99.8285H60.9979V94.1237Z" fill="white"/>
    <path d="M61.155 94.2031H66.6183V99.7495H61.155V94.2031Z" fill="white"/>
    <path d="M60.9979 88.5771H66.6987V94.282H60.9979V88.5771Z" fill="white"/>
    <path d="M61.155 88.6566H66.6183V94.203H61.155V88.6566Z" fill="white"/>
    <path d="M60.9979 83.1105H66.6987V88.8154H60.9979V83.1105Z" fill="white"/>
    <path d="M61.155 83.1891H66.6183V88.6563H61.155V83.1891Z" fill="white"/>
    <path d="M60.9979 77.5635H66.6987V83.2684H60.9979V77.5635Z" fill="white"/>
    <path d="M61.155 77.6431H66.6183V83.1895H61.155V77.6431Z" fill="white"/>
    <path d="M60.9979 72.097H66.6987V77.8019H60.9979V72.097Z" fill="white"/>
    <path d="M61.155 72.1761H66.6183V77.7225H61.155V72.1761Z" fill="white"/>
    <path d="M60.9979 66.5505H66.6987V72.2554H60.9979V66.5505Z" fill="white"/>
    <path d="M61.155 66.6292H66.6183V72.1756H61.155V66.6292Z" fill="white"/>
    <path d="M60.9979 61.0831H66.6987V66.788H60.9979V61.0831Z" fill="white"/>
    <path d="M61.155 61.1625H66.6183V66.6297H61.155V61.1625Z" fill="white"/>
    <path d="M60.9979 55.5364H66.6987V61.2413H60.9979V55.5364Z" fill="#FFE4CE"/>
    <path d="M61.155 55.616H66.6183V61.1624H61.155V55.616Z" fill="#FFE4CE"/>
    <path d="M60.9979 49.9905H66.6987V55.6954H60.9979V49.9905Z" fill="#FFE4CE"/>
    <path d="M61.155 50.0695H66.6183V55.6159H61.155V50.0695Z" fill="#FFE4CE"/>
    <path d="M60.9979 44.5231H66.6987V50.228H60.9979V44.5231Z" fill="#FFE4CE"/>
    <path d="M61.155 44.6024H66.6183V50.0696H61.155V44.6024Z" fill="#FFE4CE"/>
    <path d="M60.9979 38.9765H66.6987V44.6814H60.9979V38.9765Z" fill="#FFE4CE"/>
    <path d="M61.155 39.056H66.6183V44.6024H61.155V39.056Z" fill="#FFE4CE"/>
    <path d="M60.9979 33.5095H66.6987V39.2143H60.9979V33.5095Z" fill="#FFE4CE"/>
    <path d="M61.155 33.5885H66.6183V39.1349H61.155V33.5885Z" fill="#FFE4CE"/>
    <path d="M60.9979 27.963H66.6987V33.6679H60.9979V27.963Z" fill="#FFE4CE"/>
    <path d="M61.155 28.0421H66.6183V33.5885H61.155V28.0421Z" fill="#FFE4CE"/>
    <path d="M60.9979 16.9494H66.6987V22.6543H60.9979V16.9494Z" fill="#FFE4CE"/>
    <path d="M61.155 17.0284H66.6183V22.5749H61.155V17.0284Z" fill="#FFE4CE"/>
    <path d="M60.9979 11.4824H66.6987V17.1872H60.9979V11.4824Z" fill="#FFE4CE"/>
    <path d="M61.155 11.5618H66.6183V17.1082H61.155V11.5618Z" fill="#FFE4CE"/>
    <path d="M60.9979 5.93591H66.6987V11.6408H60.9979V5.93591Z" fill="#3D041F"/>
    <path d="M61.155 6.01495H66.6183V11.5614H61.155V6.01495Z" fill="#3D041F"/>
    <path d="M60.9979 0.468872H66.6987V6.17375H60.9979V0.468872Z" fill="#621931"/>
    <path d="M61.1551 0.547974H66.6184V6.01515H61.1551V0.547974Z" fill="#621931"/>
    <path d="M66.4605 116.151H72.1613V121.856H66.4605V116.151Z" fill="white"/>
    <path d="M66.5402 116.23H72.0826V121.777H66.5402V116.23Z" fill="white"/>
    <path d="M66.4605 110.605H72.1613V116.31H66.4605V110.605Z" fill="white"/>
    <path d="M66.5402 110.684H72.0826V116.23H66.5402V110.684Z" fill="white"/>
    <path d="M66.4605 105.138H72.1613V110.843H66.4605V105.138Z" fill="white"/>
    <path d="M66.5402 105.217H72.0826V110.684H66.5402V105.217Z" fill="white"/>
    <path d="M66.4605 99.5911H72.1613V105.296H66.4605V99.5911Z" fill="white"/>
    <path d="M66.5402 99.6702H72.0826V105.217H66.5402V99.6702Z" fill="white"/>
    <path d="M66.4605 94.1237H72.1613V99.8285H66.4605V94.1237Z" fill="white"/>
    <path d="M66.5402 94.2031H72.0826V99.7495H66.5402V94.2031Z" fill="white"/>
    <path d="M66.4605 88.5771H72.1613V94.282H66.4605V88.5771Z" fill="white"/>
    <path d="M66.5402 88.6566H72.0826V94.203H66.5402V88.6566Z" fill="white"/>
    <path d="M66.4605 83.1105H72.1613V88.8154H66.4605V83.1105Z" fill="white"/>
    <path d="M66.5402 83.1891H72.0826V88.6563H66.5402V83.1891Z" fill="white"/>
    <path d="M66.4605 77.5635H72.1613V83.2684H66.4605V77.5635Z" fill="white"/>
    <path d="M66.5402 77.6431H72.0826V83.1895H66.5402V77.6431Z" fill="white"/>
    <path d="M66.4605 72.097H72.1613V77.8019H66.4605V72.097Z" fill="white"/>
    <path d="M66.5402 72.1761H72.0826V77.7225H66.5402V72.1761Z" fill="white"/>
    <path d="M66.4605 66.5505H72.1613V72.2554H66.4605V66.5505Z" fill="white"/>
    <path d="M66.5402 66.6292H72.0826V72.1756H66.5402V66.6292Z" fill="white"/>
    <path d="M66.4605 61.0831H72.1613V66.788H66.4605V61.0831Z" fill="white"/>
    <path d="M66.5402 61.1625H72.0826V66.6297H66.5402V61.1625Z" fill="white"/>
    <path d="M66.4605 55.5364H72.1613V61.2413H66.4605V55.5364Z" fill="white"/>
    <path d="M66.5402 55.616H72.0826V61.1624H66.5402V55.616Z" fill="#FFE4CE"/>
    <path d="M66.4605 33.5095H72.1613V39.2143H66.4605V33.5095Z" fill="#FFE4CE"/>
    <path d="M66.5402 33.5885H72.0826V39.1349H66.5402V33.5885Z" fill="#F57E77"/>
    <path d="M66.4605 27.963H72.1613V33.6679H66.4605V27.963Z" fill="#FFE4CE"/>
    <path d="M66.5402 28.0421H72.0826V33.5885H66.5402V28.0421Z" fill="#FFE4CE"/>
    <path d="M66.4605 22.4963H72.1613V28.2012H66.4605V22.4963Z" fill="#FFE4CE"/>
    <path d="M66.5402 22.5753H72.0826V28.0425H66.5402V22.5753Z" fill="#FFE4CE"/>
    <path d="M66.4605 16.9494H72.1613V22.6543H66.4605V16.9494Z" fill="#FFE4CE"/>
    <path d="M66.5402 17.0284H72.0826V22.5749H66.5402V17.0284Z" fill="#FFE4CE"/>
    <path d="M66.4605 11.4824H72.1613V17.1872H66.4605V11.4824Z" fill="#3D041F"/>
    <path d="M66.5402 11.5618H72.0826V17.1082H66.5402V11.5618Z" fill="#3D041F"/>
    <path d="M64.9332 15.8065H75.3678V22.7678H64.9332V15.8065Z" fill="#3D041F"/>
    <path d="M61.4556 8.84509H68.412V19.2872H61.4556V8.84509Z" fill="#3D041F"/>
    <path d="M66.4605 5.93591H72.1613V11.6408H66.4605V5.93591Z" fill="#621931"/>
    <path d="M66.5402 6.01495H72.0826V11.5614H66.5402V6.01495Z" fill="#621931"/>
    <path d="M66.4605 0.468872H72.1613V6.17375H66.4605V0.468872Z" fill="#621931"/>
    <path d="M66.5402 0.547974H72.0826V6.01515H66.5402V0.547974Z" fill="#621931"/>
    <path d="M72.0024 116.151H77.7032V121.856H72.0024V116.151Z" fill="white"/>
    <path d="M72.0819 116.23H77.6244V121.777H72.0819V116.23Z" fill="white"/>
    <path d="M72.0024 110.605H77.7032V116.31H72.0024V110.605Z" fill="white"/>
    <path d="M72.0819 110.684H77.6244V116.23H72.0819V110.684Z" fill="white"/>
    <path d="M72.0024 105.138H77.7032V110.843H72.0024V105.138Z" fill="white"/>
    <path d="M72.0819 105.217H77.6244V110.684H72.0819V105.217Z" fill="white"/>
    <path d="M72.0024 99.5911H77.7032V105.296H72.0024V99.5911Z" fill="white"/>
    <path d="M72.0819 99.6702H77.6244V105.217H72.0819V99.6702Z" fill="#C5C5C5"/>
    <path d="M72.0024 94.1237H77.7032V99.8285H72.0024V94.1237Z" fill="white"/>
    <path d="M72.0024 88.5771H77.7032V94.282H72.0024V88.5771Z" fill="white"/>
    <path d="M72.0819 88.6566H77.6244V94.203H72.0819V88.6566Z" fill="#C5C5C5"/>
    <path d="M72.0024 83.1105H77.7032V88.8154H72.0024V83.1105Z" fill="white"/>
    <path d="M72.0024 77.5635H77.7032V83.2684H72.0024V77.5635Z" fill="white"/>
    <path d="M72.0819 77.6431H77.6244V83.1895H72.0819V77.6431Z" fill="white"/>
    <path d="M72.0024 72.097H77.7032V77.8019H72.0024V72.097Z" fill="white"/>
    <path d="M72.0819 72.1761H77.6244V77.7225H72.0819V72.1761Z" fill="white"/>
    <path d="M72.0024 66.5505H77.7032V72.2554H72.0024V66.5505Z" fill="white"/>
    <path d="M72.0819 66.6292H77.6244V72.1756H72.0819V66.6292Z" fill="white"/>
    <path d="M72.0024 61.0831H77.7032V66.788H72.0024V61.0831Z" fill="white"/>
    <path d="M72.0819 61.1625H77.6244V66.6297H72.0819V61.1625Z" fill="white"/>
    <path d="M72.0024 55.5364H77.7032V61.2413H72.0024V55.5364Z" fill="white"/>
    <path d="M66.46 55.616H77.6244V61.1624H66.46V55.616Z" fill="white"/>
    <path d="M72.0024 27.963H77.7032V33.6679H72.0024V27.963Z" fill="#3D041F"/>
    <path d="M72.0819 28.0421H77.6244V33.5885H72.0819V28.0421Z" fill="#3D041F"/>
    <path d="M72.0024 22.4963H77.7032V28.2012H72.0024V22.4963Z" fill="#3D041F"/>
    <path d="M72.0819 22.5753H77.6244V28.0425H72.0819V22.5753Z" fill="#3D041F"/>
    <path d="M72.0024 16.9494H77.7032V22.6543H72.0024V16.9494Z" fill="#621931"/>
    <path d="M72.0819 17.0284H77.6244V22.5749H72.0819V17.0284Z" fill="#621931"/>
    <path d="M72.0024 11.4824H77.7032V17.1872H72.0024V11.4824Z" fill="#621931"/>
    <path d="M72.0819 11.5618H77.6244V17.1082H72.0819V11.5618Z" fill="#621931"/>
    <path d="M72.0024 5.93591H77.7032V11.6408H72.0024V5.93591Z" fill="#621931"/>
    <path d="M72.0819 6.01495H77.6244V11.5614H72.0819V6.01495Z" fill="#621931"/>
    <path d="M77.4666 72.097H83.1674V77.8019H77.4666V72.097Z" fill="white"/>
    <path d="M77.5454 72.1761H83.0879V77.7225H77.5454V72.1761Z" fill="white"/>
    <path d="M77.4666 66.5505H83.1674V72.2554H77.4666V66.5505Z" fill="white"/>
    <path d="M77.5454 66.6292H83.0879V72.1756H77.5454V66.6292Z" fill="white"/>
    <path d="M77.4666 61.0831H83.1674V66.788H77.4666V61.0831Z" fill="white"/>
    <path d="M77.5454 61.1625H83.0879V66.6297H77.5454V61.1625Z" fill="white"/>
    <path d="M77.4666 55.5364H83.1674V61.2413H77.4666V55.5364Z" fill="white"/>
    <path d="M77.5454 55.616H83.0879V61.1624H77.5454V55.616Z" fill="white"/>
    <path d="M75.3678 15.8065H82.3242V26.2485H75.3678V15.8065Z" fill="#3D041F"/>
    <path d="M83.0088 72.097H88.7096V77.8019H83.0088V72.097Z" fill="white"/>
    <path d="M83.0088 66.5505H88.7096V72.2554H83.0088V66.5505Z" fill="white"/>
    <path d="M83.1666 66.6292H88.6299V72.1756H83.1666V66.6292Z" fill="white"/>
    <path d="M83.0088 61.0831H88.7096V66.788H83.0088V61.0831Z" fill="white"/>
    <path d="M83.1666 61.1625H88.6299V66.6297H83.1666V61.1625Z" fill="white"/>
    <path d="M88.4719 72.097H94.1727V77.8019H88.4719V72.097Z" fill="white"/>
    <path d="M88.4719 66.5505H94.1727V72.2554H88.4719V66.5505Z" fill="white"/>
    <path d="M88.5507 66.6292H94.0931V72.1756H88.5507V66.6292Z" fill="white"/>
    <path d="M88.4719 61.0831H94.1727V66.788H88.4719V61.0831Z" fill="white"/>
    <path d="M88.5507 61.1625H94.0931V66.6297H88.5507V61.1625Z" fill="white"/>
    <path d="M94.0149 72.097H99.7157V77.8019H94.0149V72.097Z" fill="white"/>
    <path d="M76.7818 22.7679H82.3242V28.3144H76.7818V22.7679Z" fill="#3D041F"/>
    <path d="M48.7977 22.7679H54.4985V28.4728H48.7977V22.7679Z" fill="#66667C"/>
    <path d="M69.9034 26.2485H75.3667V31.7949H69.9034V26.2485Z" fill="#FFE4CE"/>
    <path d="M88.5507 72.1761H94.0931V77.7225H88.5507V72.1761Z" fill="white"/>
    <path d="M0.267099 230.764H5.9679V236.469H0.267099V230.764Z" fill="#391709"/>
    <path d="M5.80921 230.764H11.51V236.468H5.80921V230.764Z" fill="#391709"/>
    <path d="M5.80921 225.217H11.51V230.922H5.80921V225.217Z" fill="#482C02"/>
    <path d="M11.2733 230.764H16.9741V236.468H11.2733V230.764Z" fill="#391709"/>
    <path d="M11.2733 225.217H16.9741V230.922H11.2733V225.217Z" fill="#482C02"/>
    <path d="M11.2725 219.75H16.9733V225.455H11.2725V219.75Z" fill="#482C02"/>
    <path d="M16.8943 230.843H22.4368V236.389H16.8943V230.843Z" fill="#391709"/>
    <path d="M16.8154 225.217H22.5162V230.922H16.8154V225.217Z" fill="#482C02"/>
    <path d="M16.8154 219.75H22.5162V225.455H16.8154V219.75Z" fill="#482C02"/>
    <path d="M22.3583 230.764H28.0591V236.469H22.3583V230.764Z" fill="#391709"/>
    <path d="M22.3583 225.217H28.0591V230.922H22.3583V225.217Z" fill="#482C02"/>
    <path d="M22.3576 219.75H28.0583V225.455H22.3576V219.75Z" fill="#482C02"/>
    <path d="M22.3576 214.204H28.0583V219.908H22.3576V214.204Z" fill="#482C02"/>
    <path d="M22.3576 208.737H28.0583V214.441H22.3576V208.737Z" fill="#424343"/>
    <path d="M22.3576 203.19H28.0583V208.895H22.3576V203.19Z" fill="#424343"/>
    <path d="M22.3576 197.723H28.0583V203.428H22.3576V197.723Z" fill="#424343"/>
    <path d="M22.3583 192.177H28.0591V197.882H22.3583V192.177Z" fill="#424343"/>
    <path d="M22.3583 186.63H28.0591V192.335H22.3583V186.63Z" fill="#424343"/>
    <path d="M23.2861 163.01L28.5642 164.218L27.7098 167.955L22.4317 166.747L23.2861 163.01Z" fill="#424343"/>
    <path d="M22.3576 166.658H28.0583V186.868H22.3576V166.658Z" fill="#424343"/>
    <path d="M27.8208 230.764H33.5216V236.469H27.8208V230.764Z" fill="#391709"/>
    <path d="M27.8208 225.217H33.5216V230.922H27.8208V225.217Z" fill="#482C02"/>
    <path d="M27.8208 219.75H33.5216V225.455H27.8208V219.75Z" fill="#482C02"/>
    <path d="M27.8208 214.204H33.5216V219.908H27.8208V214.204Z" fill="#482C02"/>
    <path d="M27.8208 208.737H33.5216V214.441H27.8208V208.737Z" fill="#424343"/>
    <path d="M27.8208 203.19H33.5216V208.895H27.8208V203.19Z" fill="#424343"/>
    <path d="M27.8208 197.723H33.5216V203.428H27.8208V197.723Z" fill="#424343"/>
    <path d="M27.8208 192.176H33.5216V197.881H27.8208V192.176Z" fill="#424343"/>
    <path d="M27.8208 186.63H33.5216V192.335H27.8208V186.63Z" fill="#424343"/>
    <path d="M27.8217 165.179H33.5225V186.868H27.8217V165.179Z" fill="#424343"/>
    <path d="M33.3638 230.764H39.0646V236.469H33.3638V230.764Z" fill="#26031F"/>
    <path d="M33.3638 225.217H39.0646V230.922H33.3638V225.217Z" fill="#391709"/>
    <path d="M33.4416 219.83H38.984V225.376H33.4416V219.83Z" fill="#391709"/>
    <path d="M33.3638 214.204H39.0646V219.908H33.3638V214.204Z" fill="#391709"/>
    <path d="M33.3638 208.737H39.0646V214.441H33.3638V208.737Z" fill="#262828"/>
    <path d="M33.3638 203.19H39.0646V208.895H33.3638V203.19Z" fill="#262828"/>
    <path d="M33.3638 197.723H39.0646V203.428H33.3638V197.723Z" fill="#262828"/>
    <path d="M33.3638 192.177H39.0646V197.881H33.3638V192.177Z" fill="#262828"/>
    <path d="M33.3638 186.63H39.0646V192.335H33.3638V186.63Z" fill="#262828"/>
    <path d="M33.4211 166.21H39.0529V187.213H33.4211V166.21Z" fill="#262828"/>
    <path d="M25.4898 158.288L30.6643 160.682L28.2719 165.86L23.0974 163.466L25.4898 158.288Z" fill="#424343"/>
    <path d="M25.5279 158.393L30.4868 160.688L28.1941 165.65L23.2352 163.356L25.5279 158.393Z" fill="#424343"/>
    <path d="M27.7815 153.326L32.9561 155.72L30.5637 160.898L25.3892 158.504L27.7815 153.326Z" fill="#424343"/>
    <path d="M27.8206 153.431L32.7795 155.725L30.4536 160.759L25.4947 158.465L27.8206 153.431Z" fill="#424343"/>
    <path d="M30.1082 148.291L35.2827 150.685L32.8903 155.864L27.7158 153.47L30.1082 148.291Z" fill="#424343"/>
    <path d="M30.1463 148.397L35.1052 150.691L32.7793 155.725L27.8204 153.431L30.1463 148.397Z" fill="#424343"/>
    <path d="M32.4008 143.329L37.5753 145.723L35.1829 150.901L30.0084 148.507L32.4008 143.329Z" fill="#424343"/>
    <path d="M32.4399 143.434L37.3988 145.728L35.0729 150.763L30.114 148.468L32.4399 143.434Z" fill="#424343"/>
    <path d="M34.7266 138.295L39.9011 140.689L37.5087 145.867L32.3342 143.473L34.7266 138.295Z" fill="#424343"/>
    <path d="M34.7657 138.399L39.7246 140.694L37.4319 145.656L32.473 143.362L34.7657 138.399Z" fill="#424343"/>
    <path d="M37.0192 133.332L42.1937 135.726L39.8013 140.904L34.6268 138.51L37.0192 133.332Z" fill="#424343"/>
    <path d="M37.0583 133.437L42.0172 135.731L39.6913 140.766L34.7324 138.471L37.0583 133.437Z" fill="#424343"/>
    <path d="M39.346 128.297L44.5205 130.691L42.1281 135.87L36.9536 133.476L39.346 128.297Z" fill="#424343"/>
    <path d="M39.384 128.403L44.3429 130.697L42.017 135.731L37.0581 133.437L39.384 128.403Z" fill="#424343"/>
    <path d="M41.6376 123.335L46.8121 125.729L44.4197 130.907L39.2452 128.513L41.6376 123.335Z" fill="#262828"/>
    <path d="M41.6766 123.44L46.6355 125.735L44.3096 130.769L39.3507 128.475L41.6766 123.44Z" fill="#262828"/>
    <path d="M30.4483 160.582L35.6228 162.976L33.2304 168.154L28.0559 165.76L30.4483 160.582Z" fill="#424343"/>
    <path d="M30.4866 160.688L35.5173 163.015L33.2246 167.978L28.1939 165.65L30.4866 160.688Z" fill="#424343"/>
    <path d="M32.7409 155.62L37.9154 158.014L35.523 163.192L30.3485 160.798L32.7409 155.62Z" fill="#424343"/>
    <path d="M32.7793 155.725L37.8101 158.053L35.4841 163.087L30.4534 160.759L32.7793 155.725Z" fill="#424343"/>
    <path d="M35.0673 150.585L40.2418 152.979L37.8494 158.158L32.6749 155.764L35.0673 150.585Z" fill="#424343"/>
    <path d="M35.1051 150.691L40.1359 153.018L37.8099 158.053L32.7792 155.725L35.1051 150.691Z" fill="#424343"/>
    <path d="M37.3592 145.623L42.5337 148.017L40.1413 153.195L34.9668 150.801L37.3592 145.623Z" fill="#424343"/>
    <path d="M37.3985 145.728L42.4293 148.056L40.1034 153.09L35.0726 150.763L37.3985 145.728Z" fill="#424343"/>
    <path d="M39.6858 140.589L44.8604 142.983L42.468 148.161L37.2935 145.767L39.6858 140.589Z" fill="#424343"/>
    <path d="M39.7242 140.694L44.755 143.021L42.4623 147.984L37.4315 145.656L39.7242 140.694Z" fill="#424343"/>
    <path d="M41.9776 135.626L47.1521 138.02L44.7597 143.198L39.5852 140.804L41.9776 135.626Z" fill="#424343"/>
    <path d="M42.0168 135.731L47.0476 138.059L44.7217 143.093L39.6909 140.766L42.0168 135.731Z" fill="#424343"/>
    <path d="M44.3042 130.591L49.4788 132.985L47.0864 138.164L41.9119 135.77L44.3042 130.591Z" fill="#424343"/>
    <path d="M44.3428 130.697L49.3735 133.025L47.0476 138.059L42.0168 135.731L44.3428 130.697Z" fill="#424343"/>
    <path d="M46.5968 125.629L51.7714 128.023L49.379 133.202L44.2045 130.808L46.5968 125.629Z" fill="#424343"/>
    <path d="M46.6352 125.734L51.666 128.062L49.3401 133.096L44.3093 130.769L46.6352 125.734Z" fill="#424343"/>
    <path d="M48.9227 120.595L54.0972 122.989L51.7048 128.167L46.5303 125.773L48.9227 120.595Z" fill="#424343"/>
    <path d="M48.961 120.7L53.9918 123.028L51.6991 127.99L46.6683 125.663L48.961 120.7Z" fill="#424343"/>
    <path d="M35.4794 162.91L40.6539 165.304L38.2615 170.482L33.087 168.088L35.4794 162.91Z" fill="#262828"/>
    <path d="M37.7713 157.947L42.9458 160.341L40.5534 165.52L35.3789 163.126L37.7713 157.947Z" fill="#262828"/>
    <path d="M37.8098 158.052L42.8406 160.38L40.5146 165.414L35.4839 163.086L37.8098 158.052Z" fill="#262828"/>
    <path d="M40.0979 152.913L45.2725 155.307L42.8801 160.486L37.7056 158.091L40.0979 152.913Z" fill="#262828"/>
    <path d="M40.1355 153.018L45.1663 155.346L42.8403 160.38L37.8096 158.052L40.1355 153.018Z" fill="#262828"/>
    <path d="M42.3904 147.951L47.5649 150.345L45.1726 155.523L39.998 153.129L42.3904 147.951Z" fill="#262828"/>
    <path d="M42.4289 148.055L47.4597 150.383L45.1338 155.417L40.103 153.09L42.4289 148.055Z" fill="#262828"/>
    <path d="M44.7164 142.917L49.8909 145.311L47.4985 150.489L42.324 148.095L44.7164 142.917Z" fill="#262828"/>
    <path d="M44.7547 143.021L49.7855 145.348L47.4928 150.311L42.462 147.983L44.7547 143.021Z" fill="#262828"/>
    <path d="M47.009 137.954L52.1835 140.348L49.7911 145.526L44.6166 143.132L47.009 137.954Z" fill="#262828"/>
    <path d="M49.3356 132.919L54.5101 135.313L52.1177 140.492L46.9432 138.097L49.3356 132.919Z" fill="#424343"/>
    <path d="M49.3733 133.024L54.4041 135.352L52.0781 140.386L47.0473 138.058L49.3733 133.024Z" fill="#424343"/>
    <path d="M51.6274 127.957L56.8019 130.351L54.4095 135.529L49.235 133.135L51.6274 127.957Z" fill="#424343"/>
    <path d="M51.6659 128.062L56.6967 130.389L54.3707 135.424L49.3399 133.096L51.6659 128.062Z" fill="#424343"/>
    <path d="M53.9532 122.922L59.1277 125.317L56.7353 130.495L51.5608 128.101L53.9532 122.922Z" fill="#424343"/>
    <path d="M53.9914 123.027L59.0222 125.355L56.7295 130.317L51.6987 127.99L53.9914 123.027Z" fill="#424343"/>
    <path d="M56.2798 117.888L61.4543 120.282L59.062 125.46L53.8874 123.066L56.2798 117.888Z" fill="white"/>
    <path d="M49.9097 131.862L54.9404 134.189L49.7513 145.421L44.7206 143.093L49.9097 131.862Z" fill="#262828"/>
    <path d="M72.0622 161.109L76.8956 158.084L79.9184 162.921L75.0849 165.946L72.0622 161.109Z" fill="#424343"/>
    <path d="M72.1717 161.134L76.8037 158.236L82.1084 166.724L77.4764 169.623L72.1717 161.134Z" fill="#424343"/>
    <path d="M69.166 156.474L73.9994 153.449L77.0221 158.286L72.1887 161.311L69.166 156.474Z" fill="#424343"/>
    <path d="M69.2746 156.498L73.9066 153.6L76.8454 158.302L72.2134 161.201L69.2746 156.498Z" fill="#424343"/>
    <path d="M66.2266 151.771L71.0601 148.746L74.0828 153.583L69.2494 156.608L66.2266 151.771Z" fill="#424343"/>
    <path d="M66.336 151.797L70.968 148.898L73.9068 153.6L69.2748 156.499L66.336 151.797Z" fill="#424343"/>
    <path d="M63.3304 147.135L68.1638 144.111L71.1866 148.947L66.3531 151.972L63.3304 147.135Z" fill="#424343"/>
    <path d="M63.439 147.161L68.071 144.262L71.0098 148.964L66.3778 151.863L63.439 147.161Z" fill="#424343"/>
    <path d="M60.392 142.433L65.2255 139.408L68.2482 144.245L63.4148 147.27L60.392 142.433Z" fill="#424343"/>
    <path d="M60.5005 142.458L65.1326 139.559L68.0294 144.195L63.3973 147.093L60.5005 142.458Z" fill="#424343"/>
    <path d="M57.4949 137.798L62.3284 134.773L65.3511 139.61L60.5177 142.635L57.4949 137.798Z" fill="#424343"/>
    <path d="M57.6043 137.823L62.2363 134.924L65.1751 139.626L60.5431 142.525L57.6043 137.823Z" fill="#424343"/>
    <path d="M54.5555 133.095L59.3889 130.07L62.4117 134.907L57.5782 137.932L54.5555 133.095Z" fill="#424343"/>
    <path d="M54.6648 133.12L59.2969 130.221L62.2357 134.924L57.6036 137.823L54.6648 133.12Z" fill="#424343"/>
    <path d="M51.6592 128.46L56.4927 125.435L59.5154 130.272L54.682 133.297L51.6592 128.46Z" fill="#262828"/>
    <path d="M51.7677 128.485L56.3998 125.586L59.3386 130.289L54.7065 133.188L51.7677 128.485Z" fill="#262828"/>
    <path d="M48.7199 123.757L53.5533 120.732L56.5761 125.569L51.7427 128.594L48.7199 123.757Z" fill="#262828"/>
    <path d="M48.8293 123.783L53.4613 120.884L56.3581 125.519L51.7261 128.418L48.8293 123.783Z" fill="#262828"/>
    <path d="M76.694 158.21L81.5275 155.185L84.5502 160.022L79.7168 163.047L76.694 158.21Z" fill="#424343"/>
    <path d="M76.8034 158.236L81.5026 155.295L87.7131 165.233L83.0139 168.174L76.8034 158.236Z" fill="#424343"/>
    <path d="M73.7978 153.575L78.6312 150.55L81.654 155.387L76.8205 158.412L73.7978 153.575Z" fill="#424343"/>
    <path d="M73.9062 153.6L78.6053 150.659L81.5441 155.361L76.845 158.302L73.9062 153.6Z" fill="#424343"/>
    <path d="M70.8592 148.872L75.6926 145.847L78.7154 150.684L73.8819 153.709L70.8592 148.872Z" fill="#424343"/>
    <path d="M70.9678 148.898L75.667 145.957L78.6058 150.659L73.9066 153.6L70.9678 148.898Z" fill="#424343"/>
    <path d="M67.9621 144.237L72.7955 141.212L75.8183 146.049L70.9848 149.074L67.9621 144.237Z" fill="#424343"/>
    <path d="M68.0716 144.262L72.7708 141.321L75.7095 146.024L71.0104 148.965L68.0716 144.262Z" fill="#424343"/>
    <path d="M65.0235 139.534L69.8569 136.509L72.8797 141.346L68.0462 144.371L65.0235 139.534Z" fill="#424343"/>
    <path d="M65.132 139.559L69.8312 136.619L72.728 141.254L68.0288 144.195L65.132 139.559Z" fill="#424343"/>
    <path d="M62.1265 134.899L66.96 131.874L69.9827 136.711L65.1493 139.736L62.1265 134.899Z" fill="#424343"/>
    <path d="M62.2359 134.924L66.9351 131.983L69.8738 136.686L65.1747 139.626L62.2359 134.924Z" fill="#424343"/>
    <path d="M59.1871 130.196L64.0205 127.171L67.0433 132.008L62.2098 135.033L59.1871 130.196Z" fill="#424343"/>
    <path d="M59.2967 130.222L63.9958 127.281L66.9346 131.983L62.2355 134.924L59.2967 130.222Z" fill="#424343"/>
    <path d="M56.291 125.561L61.1244 122.536L64.1471 127.373L59.3137 130.398L56.291 125.561Z" fill="#424343"/>
    <path d="M56.3995 125.587L61.0986 122.646L64.0374 127.348L59.3382 130.289L56.3995 125.587Z" fill="#424343"/>
    <path d="M53.3515 120.859L58.1849 117.834L61.2077 122.671L56.3743 125.695L53.3515 120.859Z" fill="#424343"/>
    <path d="M53.3681 120.85L58.0673 117.909L60.9641 122.545L56.2649 125.485L53.3681 120.85Z" fill="white"/>
    <path d="M81.3945 155.269L86.2279 152.244L90.9757 159.842L86.1423 162.866L81.3945 155.269Z" fill="#262828"/>
    <path d="M78.4966 150.634L83.3301 147.609L86.3528 152.446L81.5194 155.471L78.4966 150.634Z" fill="#262828"/>
    <path d="M78.6051 150.659L83.3043 147.718L86.2431 152.42L81.5439 155.361L78.6051 150.659Z" fill="#262828"/>
    <path d="M75.5587 145.931L80.3921 142.906L83.4148 147.743L78.5814 150.768L75.5587 145.931Z" fill="#262828"/>
    <path d="M75.6665 145.957L80.3657 143.016L83.3045 147.719L78.6053 150.659L75.6665 145.957Z" fill="#262828"/>
    <path d="M72.6608 141.296L77.4943 138.271L80.517 143.108L75.6836 146.133L72.6608 141.296Z" fill="#262828"/>
    <path d="M72.7703 141.321L77.4695 138.38L80.4083 143.083L75.7091 146.024L72.7703 141.321Z" fill="#262828"/>
    <path d="M69.7224 136.594L74.5558 133.569L77.5785 138.406L72.7451 141.431L69.7224 136.594Z" fill="#262828"/>
    <path d="M69.8309 136.618L74.53 133.677L77.4268 138.313L72.7277 141.254L69.8309 136.618Z" fill="#262828"/>
    <path d="M66.8253 131.958L71.6587 128.933L74.6814 133.77L69.848 136.795L66.8253 131.958Z" fill="#262828"/>
    <path d="M66.9339 131.984L71.6331 129.043L74.5718 133.745L69.8727 136.686L66.9339 131.984Z" fill="#262828"/>
    <path d="M63.8869 127.255L68.7203 124.23L71.7431 129.067L66.9096 132.092L63.8869 127.255Z" fill="#424343"/>
    <path d="M63.9954 127.281L68.6946 124.34L71.6334 129.042L66.9342 131.983L63.9954 127.281Z" fill="#424343"/>
    <path d="M60.9905 122.62L65.824 119.595L68.8467 124.432L64.0133 127.457L60.9905 122.62Z" fill="#424343"/>
    <path d="M61.0982 122.645L65.7974 119.705L68.7361 124.407L64.037 127.348L61.0982 122.645Z" fill="#424343"/>
    <path d="M58.0513 117.917L62.8848 114.893L65.9075 119.729L61.0741 122.754L58.0513 117.917Z" fill="#424343"/>
    <path d="M58.0669 117.909L62.7661 114.969L65.6629 119.604L60.9637 122.545L58.0669 117.909Z" fill="white"/>
    <path d="M69.2745 129.23L74.8169 129.23L74.8169 134.697L69.2745 134.697L69.2745 129.23Z" fill="#262828"/>
    <path d="M123.585 206.644L125.235 201.184L130.692 202.834L129.043 208.295L123.585 206.644Z" fill="#391709"/>
    <path d="M125.189 201.335L126.838 195.874L132.295 197.525L130.646 202.986L125.189 201.335Z" fill="#391709"/>
    <path d="M119.883 199.731L121.532 194.27L126.989 195.92L125.34 201.381L119.883 199.731Z" fill="#482C02"/>
    <path d="M126.77 196.102L128.419 190.641L133.876 192.291L132.227 197.752L126.77 196.102Z" fill="#391709"/>
    <path d="M121.464 194.497L123.113 189.036L128.57 190.687L126.921 196.148L121.464 194.497Z" fill="#482C02"/>
    <path d="M116.234 192.916L117.883 187.455L123.34 189.105L121.691 194.566L116.234 192.916Z" fill="#482C02"/>
    <path d="M128.471 190.74L130.074 185.431L135.38 187.035L133.776 192.344L128.471 190.74Z" fill="#391709"/>
    <path d="M123.067 189.188L124.717 183.727L130.174 185.377L128.524 190.838L123.067 189.188Z" fill="#482C02"/>
    <path d="M117.838 187.606L119.487 182.145L124.944 183.796L123.295 189.257L117.838 187.606Z" fill="#482C02"/>
    <path d="M129.977 185.483L131.626 180.022L137.083 181.673L135.434 187.134L129.977 185.483Z" fill="#391709"/>
    <path d="M124.67 183.878L126.319 178.418L131.776 180.068L130.127 185.529L124.67 183.878Z" fill="#482C02"/>
    <path d="M119.441 182.297L121.091 176.836L126.548 178.486L124.898 183.947L119.441 182.297Z" fill="#482C02"/>
    <path d="M114.136 180.692L115.785 175.231L121.242 176.882L119.593 182.343L114.136 180.692Z" fill="#482C02"/>
    <path d="M108.906 179.111L110.555 173.65L116.012 175.3L114.363 180.761L108.906 179.111Z" fill="#424343"/>
    <path d="M103.6 177.506L105.25 172.045L110.707 173.696L109.057 179.157L103.6 177.506Z" fill="#424343"/>
    <path d="M98.3709 175.924L100.02 170.463L105.477 172.114L103.828 177.575L98.3709 175.924Z" fill="#424343"/>
    <path d="M93.0661 174.32L94.7153 168.859L100.172 170.509L98.5231 175.97L93.0661 174.32Z" fill="#424343"/>
    <path d="M87.76 172.715L89.4093 167.254L94.8663 168.904L93.2171 174.365L87.76 172.715Z" fill="#424343"/>
    <path d="M82.5305 171.133L84.1798 165.673L89.6368 167.323L87.9876 172.784L82.5305 171.133Z" fill="#424343"/>
    <path d="M77.5365 169.566L79.1858 164.105L84.8325 165.813L83.1832 171.274L77.5365 169.566Z" fill="#424343"/>
    <path d="M131.557 180.25L133.206 174.789L138.663 176.439L137.014 181.9L131.557 180.25Z" fill="#391709"/>
    <path d="M126.251 178.645L127.901 173.184L133.358 174.835L131.708 180.295L126.251 178.645Z" fill="#482C02"/>
    <path d="M121.022 177.064L122.671 171.603L128.128 173.253L126.479 178.714L121.022 177.064Z" fill="#482C02"/>
    <path d="M115.716 175.459L117.365 169.998L122.822 171.648L121.173 177.109L115.716 175.459Z" fill="#482C02"/>
    <path d="M110.486 173.877L112.136 168.416L117.593 170.067L115.943 175.528L110.486 173.877Z" fill="#424343"/>
    <path d="M105.182 172.273L106.831 166.812L112.288 168.462L110.639 173.923L105.182 172.273Z" fill="#424343"/>
    <path d="M99.9512 170.691L101.6 165.23L107.057 166.881L105.408 172.342L99.9512 170.691Z" fill="#424343"/>
    <path d="M94.6461 169.087L96.2954 163.626L101.752 165.276L100.103 170.737L94.6461 169.087Z" fill="#424343"/>
    <path d="M89.3404 167.482L90.9896 162.021L96.4466 163.671L94.7974 169.132L89.3404 167.482Z" fill="#424343"/>
    <path d="M80.7779 164.892L82.4271 159.431L91.2178 162.089L89.5685 167.55L80.7779 164.892Z" fill="#424343"/>
    <path d="M133.161 174.941L134.81 169.48L140.267 171.13L138.618 176.591L133.161 174.941Z" fill="#26031F"/>
    <path d="M127.855 173.336L129.504 167.875L134.961 169.525L133.312 174.986L127.855 173.336Z" fill="#391709"/>
    <path d="M122.724 171.702L124.328 166.393L129.633 167.997L128.03 173.307L122.724 171.702Z" fill="#391709"/>
    <path d="M117.32 170.15L118.969 164.689L124.426 166.339L122.777 171.8L117.32 170.15Z" fill="#391709"/>
    <path d="M112.09 168.568L113.739 163.107L119.196 164.757L117.547 170.218L112.09 168.568Z" fill="#262828"/>
    <path d="M106.785 166.964L108.434 161.503L113.891 163.153L112.242 168.614L106.785 166.964Z" fill="#262828"/>
    <path d="M101.555 165.382L103.204 159.921L108.661 161.571L107.012 167.032L101.555 165.382Z" fill="#262828"/>
    <path d="M96.2499 163.777L97.8992 158.316L103.356 159.967L101.707 165.427L96.2499 163.777Z" fill="#262828"/>
    <path d="M85.6914 160.583L87.3407 155.122L98.0508 158.362L96.4015 163.822L85.6914 160.583Z" fill="#262828"/>
    <path d="M39.0648 120.227H48.075V123.708H39.0648V120.227Z" fill="#262828"/>
    <path d="M48.075 120.227H57.2159V123.708H48.075V120.227Z" fill="#262828"/>
    <path d="M57.2159 120.227H66.3554V123.708H57.2159V120.227Z" fill="#262828"/>
    <path d="M66.226 120.227H75.3668V123.708H66.226V120.227Z" fill="#262828"/>
    <path d="M39.0653 123.708H47.9389V134.15H39.0653V123.708Z" fill="#424343"/>
    <path d="M47.9389 123.708H56.9412V134.15H47.9389V123.708Z" fill="#424343"/>
    <path d="M56.9412 123.708H65.9422V134.15H56.9412V123.708Z" fill="#424343"/>
    <path d="M65.8148 123.708H74.817V134.15H65.8148V123.708Z" fill="#424343"/>
    <path d="M68.2718 123.695L74.9951 123.695L74.9951 134.15L68.2718 134.15L68.2718 123.695Z" fill="#262828"/>
    <path d="M72.0819 72.2556H77.6244V88.6563H72.0819V72.2556Z" fill="#C5C5C5"/>
    <path d="M72.0819 85.9604H77.6244V99.7496H72.0819V85.9604Z" fill="#C5C5C5"/>
    <path d="M73.9992 72.2051H83.2462V77.7515H73.9992V72.2051Z" fill="#C5C5C5"/>
    <path d="M89.5798 95.1209L93.4989 99.0428L84.7669 107.781L80.8478 103.859L89.5798 95.1209Z" fill="#C5C5C5"/>
    <path d="M62.8208 114.168L66.684 118.034L62.8209 121.9L58.9577 118.034L62.8208 114.168Z" fill="#FFE4CE"/>
    <path d="M66.6832 110.302L70.5463 114.168L66.6272 118.09L62.7641 114.224L66.6832 110.302Z" fill="#FFE4CE"/>
    <path d="M70.6025 106.38L74.4656 110.246L70.5465 114.168L66.6834 110.302L70.6025 106.38Z" fill="#FFE4CE"/>
    <path d="M75.6048 101.374L79.4679 105.24L74.4092 110.302L70.5461 106.436L75.6048 101.374Z" fill="#FFE4CE"/>
    <path d="M78.3842 98.5927L82.2473 102.459L78.3842 106.324L74.5211 102.459L78.3842 98.5927Z" fill="#FFE4CE"/>
    <path d="M85.9637 91.2462H90.4137V96.7134H85.9637V91.2462Z" fill="white"/>
    <path d="M86.4328 90.5398L90.2959 94.4056L78.2332 106.477L74.3701 102.611L86.4328 90.5398Z" fill="white"/>
    <path d="M66.6834 118.034L70.6025 121.956L66.7394 125.822L62.8203 121.9L66.6834 118.034Z" fill="#FFE4CE"/>
    <path d="M70.5465 114.168L74.4656 118.09L70.5465 122.012L66.6274 118.09L70.5465 114.168Z" fill="#FFE4CE"/>
    <path d="M74.4658 110.246L78.3849 114.168L74.4658 118.09L70.5467 114.168L74.4658 110.246Z" fill="#FFE4CE"/>
    <path d="M79.4482 105.26L83.3673 109.182L78.3286 114.224L74.4095 110.302L79.4482 105.26Z" fill="#F57E77"/>
    <path d="M82.2474 102.458L86.1665 106.38L82.3034 110.246L78.3843 106.324L82.2474 102.458Z" fill="#C5C5C5"/>
    <path d="M96.2358 92.3815L96.2358 99.3429L87.9968 99.3429L87.9968 92.3815L96.2358 92.3815Z" fill="#C5C5C5"/>
    <path d="M92.7578 92.3815L92.7578 96.7135L87.9969 96.7135L87.9969 92.3815L92.7578 92.3815Z" fill="white"/>
    <path d="M92.7578 88.9008L92.7578 92.3815L89.2796 92.3815L89.2796 88.9008L92.7578 88.9008Z" fill="white"/>
    <path d="M92.7578 85.4202L92.7578 88.9009L89.2796 88.9009L89.2796 85.4202L92.7578 85.4202Z" fill="white"/>
    <path d="M92.7578 81.9394L92.7578 85.4201L89.2796 85.4201L89.2796 81.9394L92.7578 81.9394Z" fill="white"/>
    <path d="M74.4095 118.034L78.3286 121.956L74.4095 125.878L70.4904 121.956L74.4095 118.034Z" fill="#FFE4CE"/>
    <path d="M78.3282 114.112L82.2473 118.034L78.3282 121.956L74.4091 118.034L78.3282 114.112Z" fill="#F57E77"/>
    <path d="M92.7578 74.978L92.7578 81.9394L89.2796 81.9394L89.2796 74.978L92.7578 74.978Z" fill="white"/>
    <path d="M49.9923 39.2144H66.6987V44.4435H49.9923V39.2144Z" fill="#FFE4CE"/>
    <path d="M50.1499 44.7609H66.9973V50.918H50.1499V44.7609Z" fill="#F57E77"/>
    <path d="M61.4549 39.2144H66.9973V44.7608H61.4549V39.2144Z" fill="#F57E77"/>
    <path d="M83.1675 72.176H95.3038V77.7224H83.1675V72.176Z" fill="white"/>
    <path d="M49.9916 55.5366H66.5393V61.2416H49.9916V55.5366Z" fill="white"/>
    <path d="M49.9916 55.4826H55.6908V71.4975H49.9916V55.4826Z" fill="white"/>
    <path d="M49.9918 55.6956H55.6104V66.6042H49.9918V55.6956Z" fill="white"/>
    <path d="M55.6343 55.4826H61.0719V66.3912H55.6343V55.4826Z" fill="white"/>
    <path d="M61.155 55.3905H66.6183V60.9369H61.155V55.3905Z" fill="#C5C5C5"/>
    <path d="M50.1891 65.951H55.6523V120.227H50.1891V65.951Z" fill="#C5C5C5"/>
    <path d="M44.8668 60.4299H50.3301V65.9763H44.8668V60.4299Z" fill="#C5C5C5"/>
    <path d="M44.8668 55.4826H50.3301V61.029H44.8668V55.4826Z" fill="#C5C5C5"/>
    <path d="M55.6908 60.4047H61.1541V65.9511H55.6908V60.4047Z" fill="#C5C5C5"/>
</svg>
