<svg width="141" height="237" viewBox="0 0 141 237" fill="none" xmlns="http://www.w3.org/2000/svg">
    <path d="M123.662 82.3701L122.248 87.651L127.525 89.066L128.939 83.7851L123.662 82.3701Z" fill="#FFE4CE"/>
    <path d="M118.385 80.9553L116.971 86.2361L122.325 87.6717L123.739 82.3908L118.385 80.9553Z" fill="#FFE4CE"/>
    <path d="M113.031 79.5195L111.617 84.8004L116.971 86.2359L118.385 80.955L113.031 79.5195Z" fill="#FFE4CE"/>
    <path d="M103.699 77.0175L102.285 82.2984L111.694 84.8212L113.108 79.5403L103.699 77.0175Z" fill="#FFE4CE"/>
    <path d="M102.401 76.669L100.987 81.9499L106.264 83.3649L107.678 78.084L102.401 76.669Z" fill="white"/>
    <path d="M97.124 75.254L95.71 80.5349L101.064 81.9704L102.478 76.6895L97.124 75.254Z" fill="white"/>
    <path d="M122.248 87.651L120.814 93.0084L126.091 94.4234L127.525 89.066L122.248 87.651Z" fill="#FFE4CE"/>
    <path d="M116.971 86.2361L115.537 91.5936L120.89 93.0291L122.325 87.6717L116.971 86.2361Z" fill="#FFE4CE"/>
    <path d="M111.617 84.8004L110.183 90.1578L115.537 91.5933L116.971 86.2359L111.617 84.8004Z" fill="#FFE4CE"/>
    <path d="M101.788 82.1649L100.353 87.5223L110.259 90.1785L111.694 84.8211L101.788 82.1649Z" fill="#F57E77"/>
    <path d="M100.987 81.9499L99.5522 87.3073L104.829 88.7223L106.264 83.3649L100.987 81.9499Z" fill="#F57E77"/>
    <path d="M95.71 80.5349L94.2755 85.8923L99.6291 87.3278L101.064 81.9704L95.71 80.5349Z" fill="#F57E77"/>
    <path d="M115.557 91.5167L114.122 96.8741L119.476 98.3096L120.91 92.9522L115.557 91.5167Z" fill="#FFE4CE"/>
    <path d="M110.204 90.0813L108.769 95.4387L114.123 96.8742L115.557 91.5168L110.204 90.0813Z" fill="#F57E77"/>
    <path d="M100.877 81.9137L99.4384 87.2868L104.837 88.7345L106.276 83.3614L100.877 81.9137Z" fill="#C5C5C5"/>
    <path d="M43.9187 88.5886L49.4562 88.3541L49.6872 93.8164L44.1497 94.0509L43.9187 88.5886Z" fill="#C5C5C5"/>
    <path d="M43.6842 83.0468L49.2217 82.8123L49.4561 88.3537L43.9186 88.5883L43.6842 83.0468Z" fill="#C5C5C5"/>
    <path d="M43.4529 77.5849L48.9904 77.3503L49.2247 82.8918L43.6873 83.1263L43.4529 77.5849Z" fill="#C5C5C5"/>
    <path d="M49.4559 88.3541L54.9934 88.1196L55.2244 93.5819L49.687 93.8164L49.4559 88.3541Z" fill="white"/>
    <path d="M49.2222 82.8126L54.7596 82.5781L54.994 88.1195L49.4565 88.3541L49.2222 82.8126Z" fill="white"/>
    <path d="M48.9909 77.3512L54.5283 77.1158L54.7619 82.6573L49.2244 82.8927L48.9909 77.3512Z" fill="white"/>
    <path d="M101.418 116.427H95.7174V122.132H101.418V116.427Z" fill="white"/>
    <path d="M101.339 116.506H95.8757V122.053H101.339V116.506Z" fill="white"/>
    <path d="M101.418 110.881H95.7174V116.585H101.418V110.881Z" fill="white"/>
    <path d="M101.339 110.96H95.8757V116.506H101.339V110.96Z" fill="white"/>
    <path d="M101.418 105.414H95.7174V111.118H101.418V105.414Z" fill="white"/>
    <path d="M101.339 105.493H95.8757V110.96H101.339V105.493Z" fill="white"/>
    <path d="M101.418 99.8671H95.7174V105.572H101.418V99.8671Z" fill="white"/>
    <path d="M101.339 99.9461H95.8757V105.493H101.339V99.9461Z" fill="white"/>
    <path d="M101.418 94.3995H95.7174V100.104H101.418V94.3995Z" fill="white"/>
    <path d="M101.339 94.479H95.8757V100.025H101.339V94.479Z" fill="white"/>
    <path d="M101.418 88.8531H95.7174V94.558H101.418V88.8531Z" fill="white"/>
    <path d="M101.339 88.9326H95.8757V94.479H101.339V88.9326Z" fill="white"/>
    <path d="M101.418 83.3865H95.7174V89.0914H101.418V83.3865Z" fill="white"/>
    <path d="M101.339 83.4651H95.8757V88.9323H101.339V83.4651Z" fill="white"/>
    <path d="M101.418 77.8395H95.7174V83.5444H101.418V77.8395Z" fill="white"/>
    <path d="M101.338 77.2401H95.875V82.7865H101.338V77.2401Z" fill="white"/>
    <path d="M101.418 72.373H95.7174V78.0779H101.418V72.373Z" fill="white"/>
    <path d="M101.338 71.7734H95.875V77.3198H101.338V71.7734Z" fill="white"/>
    <path d="M101.418 66.8264H95.7174V72.5313H101.418V66.8264Z" fill="white"/>
    <path d="M101.339 66.9052H95.8757V72.4516H101.339V66.9052Z" fill="white"/>
    <path d="M101.418 61.3591H95.7174V67.0639H101.418V61.3591Z" fill="white"/>
    <path d="M101.339 61.4384H95.8757V66.9056H101.339V61.4384Z" fill="white"/>
    <path d="M101.418 55.8124H95.7174V61.5173H101.418V55.8124Z" fill="white"/>
    <path d="M101.339 55.8919H95.8757V61.4383H101.339V55.8919Z" fill="white"/>
    <path d="M105.281 61.3314H99.8176V66.8778H105.281V61.3314Z" fill="white"/>
    <path d="M105.281 64.812H99.8176V70.3584H105.281V64.812Z" fill="white"/>
    <path d="M105.281 68.2927H99.8176V73.8391H105.281V68.2927Z" fill="white"/>
    <path d="M101.418 17.2253H95.7174V22.9302H101.418V17.2253Z" fill="#3D041F"/>
    <path d="M101.339 17.3044H95.8757V22.8508H101.339V17.3044Z" fill="#3D041F"/>
    <path d="M101.418 11.7583H95.7174V17.4632H101.418V11.7583Z" fill="#621931"/>
    <path d="M101.339 11.8378H95.8757V17.3842H101.339V11.8378Z" fill="#621931"/>
    <path d="M101.418 6.21185H95.7174V11.9167H101.418V6.21185Z" fill="#621931"/>
    <path d="M101.339 6.29089H95.8757V11.8373H101.339V6.29089Z" fill="#621931"/>
    <path d="M95.9541 116.427H90.2533V122.132H95.9541V116.427Z" fill="white"/>
    <path d="M95.9541 110.881H90.2533V116.585H95.9541V110.881Z" fill="white"/>
    <path d="M95.8754 110.96H90.333V116.506H95.8754V110.96Z" fill="white"/>
    <path d="M95.9541 105.414H90.2533V111.118H95.9541V105.414Z" fill="white"/>
    <path d="M95.8754 105.493H90.333V110.96H95.8754V105.493Z" fill="white"/>
    <path d="M95.9541 99.8671H90.2533V105.572H95.9541V99.8671Z" fill="white"/>
    <path d="M95.8754 99.9461H90.333V105.493H95.8754V99.9461Z" fill="white"/>
    <path d="M95.9541 94.3995H90.2533V100.104H95.9541V94.3995Z" fill="white"/>
    <path d="M95.8754 94.479H90.333V100.025H95.8754V94.479Z" fill="white"/>
    <path d="M95.9541 88.8531H90.2533V94.558H95.9541V88.8531Z" fill="white"/>
    <path d="M95.8754 88.9326H90.333V94.479H95.8754V88.9326Z" fill="white"/>
    <path d="M95.9541 83.3865H90.2533V89.0914H95.9541V83.3865Z" fill="white"/>
    <path d="M95.8754 83.4651H90.333V88.9323H95.8754V83.4651Z" fill="white"/>
    <path d="M95.9541 77.8395H90.2533V83.5444H95.9541V77.8395Z" fill="white"/>
    <path d="M95.8754 77.919H90.333V83.4654H95.8754V77.919Z" fill="white"/>
    <path d="M95.9541 72.373H90.2533V78.0779H95.9541V72.373Z" fill="white"/>
    <path d="M95.8754 72.452H90.333V77.9984H95.8754V72.452Z" fill="white"/>
    <path d="M95.9541 66.8264H90.2533V72.5313H95.9541V66.8264Z" fill="white"/>
    <path d="M95.8754 66.9052H90.333V72.4516H95.8754V66.9052Z" fill="white"/>
    <path d="M95.9541 61.3591H90.2533V67.0639H95.9541V61.3591Z" fill="white"/>
    <path d="M95.8754 61.4384H90.333V66.9056H95.8754V61.4384Z" fill="white"/>
    <path d="M95.9541 55.8124H90.2533V61.5173H95.9541V55.8124Z" fill="white"/>
    <path d="M95.8754 55.8919H90.333V61.4383H95.8754V55.8919Z" fill="white"/>
    <path d="M95.9541 33.7854H90.2533V39.4903H95.9541V33.7854Z" fill="#FFE4CE"/>
    <path d="M95.8754 33.8644H90.333V39.4108H95.8754V33.8644Z" fill="#FFE4CE"/>
    <path d="M95.9541 28.239H90.2533V33.9438H95.9541V28.239Z" fill="#FFE4CE"/>
    <path d="M95.8754 28.318H90.333V33.8644H95.8754V28.318Z" fill="#FFE4CE"/>
    <path d="M92.8615 23.0438H82.4269V30.0052H92.8615V23.0438Z" fill="#FFE4CE"/>
    <path d="M95.9541 22.7722H90.2533V28.4771H95.9541V22.7722Z" fill="#FFE4CE"/>
    <path d="M95.8754 22.8513H90.333V28.3184H95.8754V22.8513Z" fill="#FFE4CE"/>
    <path d="M95.9541 17.2253H90.2533V22.9302H95.9541V17.2253Z" fill="#FFE4CE"/>
    <path d="M95.8754 17.3044H90.333V22.8508H95.8754V17.3044Z" fill="#FFE4CE"/>
    <path d="M95.9541 11.7583H90.2533V17.4632H95.9541V11.7583Z" fill="#3D041F"/>
    <path d="M95.8754 11.8378H90.333V17.3842H95.8754V11.8378Z" fill="#3D041F"/>
    <path d="M95.9541 6.21185H90.2533V11.9167H95.9541V6.21185Z" fill="#621931"/>
    <path d="M95.8754 6.29089H90.333V11.8373H95.8754V6.29089Z" fill="#621931"/>
    <path d="M95.9541 0.744812H90.2533V6.44969H95.9541V0.744812Z" fill="#621931"/>
    <path d="M95.8754 0.823914H90.333V6.29109H95.8754V0.823914Z" fill="#621931"/>
    <path d="M90.412 116.427H84.7112V122.132H90.412V116.427Z" fill="white"/>
    <path d="M90.3332 116.506H84.7908V122.053H90.3332V116.506Z" fill="white"/>
    <path d="M90.412 110.881H84.7112V116.585H90.412V110.881Z" fill="white"/>
    <path d="M90.3332 110.96H84.7908V116.506H90.3332V110.96Z" fill="white"/>
    <path d="M90.412 105.414H84.7112V111.118H90.412V105.414Z" fill="white"/>
    <path d="M90.3332 105.493H84.7908V110.96H90.3332V105.493Z" fill="white"/>
    <path d="M90.412 99.8671H84.7112V105.572H90.412V99.8671Z" fill="white"/>
    <path d="M90.3332 99.9461H84.7908V105.493H90.3332V99.9461Z" fill="white"/>
    <path d="M90.412 94.3995H84.7112V100.104H90.412V94.3995Z" fill="white"/>
    <path d="M90.3332 94.479H84.7908V100.025H90.3332V94.479Z" fill="white"/>
    <path d="M90.412 88.8531H84.7112V94.558H90.412V88.8531Z" fill="white"/>
    <path d="M90.3332 88.9326H84.7908V94.479H90.3332V88.9326Z" fill="white"/>
    <path d="M90.412 83.3865H84.7112V89.0914H90.412V83.3865Z" fill="white"/>
    <path d="M90.3332 83.4651H84.7908V88.9323H90.3332V83.4651Z" fill="white"/>
    <path d="M90.412 77.8395H84.7112V83.5444H90.412V77.8395Z" fill="white"/>
    <path d="M90.3332 77.919H84.7908V83.4654H90.3332V77.919Z" fill="white"/>
    <path d="M90.412 72.373H84.7112V78.0779H90.412V72.373Z" fill="white"/>
    <path d="M90.3332 72.452H84.7908V77.9984H90.3332V72.452Z" fill="white"/>
    <path d="M90.412 66.8264H84.7112V72.5313H90.412V66.8264Z" fill="white"/>
    <path d="M90.3332 66.9052H84.7908V72.4516H90.3332V66.9052Z" fill="white"/>
    <path d="M90.412 61.3591H84.7112V67.0639H90.412V61.3591Z" fill="white"/>
    <path d="M90.3332 61.4384H84.7908V66.9056H90.3332V61.4384Z" fill="white"/>
    <path d="M90.412 55.8124H84.7112V61.5173H90.412V55.8124Z" fill="#F57E77"/>
    <path d="M90.3332 55.8919H84.7908V61.4383H90.3332V55.8919Z" fill="#F57E77"/>
    <path d="M90.412 50.2665H84.7112V55.9714H90.412V50.2665Z" fill="#F57E77"/>
    <path d="M90.3332 50.3454H84.7908V55.8918H90.3332V50.3454Z" fill="#F57E77"/>
    <path d="M90.412 44.799H84.7112V50.5039H90.412V44.799Z" fill="#F57E77"/>
    <path d="M90.412 39.2524H84.7112V44.9573H90.412V39.2524Z" fill="#FFE4CE"/>
    <path d="M92.8609 19.5631H71.9917V30.0052H92.8609V19.5631Z" fill="#FFE4CE"/>
    <path d="M90.412 33.7854H84.7112V39.4903H90.412V33.7854Z" fill="#FFE4CE"/>
    <path d="M90.3332 33.8644H84.7908V39.4108H90.3332V33.8644Z" fill="#FFE4CE"/>
    <path d="M90.412 28.239H84.7112V33.9438H90.412V28.239Z" fill="#FFE4CE"/>
    <path d="M90.3332 28.318H84.7908V33.8644H90.3332V28.318Z" fill="#FFE4CE"/>
    <path d="M90.412 17.2253H84.7112V22.9302H90.412V17.2253Z" fill="#FFE4CE"/>
    <path d="M90.3332 17.3044H84.7908V22.8508H90.3332V17.3044Z" fill="#FFE4CE"/>
    <path d="M90.412 11.7583H84.7112V17.4632H90.412V11.7583Z" fill="#FFE4CE"/>
    <path d="M90.3332 11.8378H84.7908V17.3842H90.3332V11.8378Z" fill="#FFE4CE"/>
    <path d="M90.412 6.21185H84.7112V11.9167H90.412V6.21185Z" fill="#3D041F"/>
    <path d="M90.3332 6.29089H84.7908V11.8373H90.3332V6.29089Z" fill="#3D041F"/>
    <path d="M90.412 0.744812H84.7112V6.44969H90.412V0.744812Z" fill="#621931"/>
    <path d="M90.3332 0.823914H84.7908V6.29109H90.3332V0.823914Z" fill="#621931"/>
    <path d="M84.9495 116.427H79.2487V122.132H84.9495V116.427Z" fill="white"/>
    <path d="M81.3908 120.503H75.8484V124.011H81.3908V120.503Z" fill="#262828"/>
    <path d="M76.605 120.503H66.1704V123.984H76.605V120.503Z" fill="#262828"/>
    <path d="M84.9495 110.881H79.2487V116.585H84.9495V110.881Z" fill="white"/>
    <path d="M84.8691 110.96H79.3267V116.506H84.8691V110.96Z" fill="white"/>
    <path d="M84.9495 105.414H79.2487V111.118H84.9495V105.414Z" fill="white"/>
    <path d="M84.8691 105.493H79.3267V110.96H84.8691V105.493Z" fill="white"/>
    <path d="M84.9495 99.8671H79.2487V105.572H84.9495V99.8671Z" fill="white"/>
    <path d="M84.8691 99.9461H79.3267V105.493H84.8691V99.9461Z" fill="white"/>
    <path d="M84.9495 94.3995H79.2487V100.104H84.9495V94.3995Z" fill="white"/>
    <path d="M84.8691 94.479H79.3267V100.025H84.8691V94.479Z" fill="white"/>
    <path d="M84.9495 88.8531H79.2487V94.558H84.9495V88.8531Z" fill="white"/>
    <path d="M84.8691 88.9326H79.3267V94.479H84.8691V88.9326Z" fill="white"/>
    <path d="M84.9495 83.3865H79.2487V89.0914H84.9495V83.3865Z" fill="white"/>
    <path d="M84.8691 83.4651H79.3267V88.9323H84.8691V83.4651Z" fill="white"/>
    <path d="M84.9495 77.8395H79.2487V83.5444H84.9495V77.8395Z" fill="white"/>
    <path d="M84.8691 77.919H79.3267V83.4654H84.8691V77.919Z" fill="white"/>
    <path d="M84.9495 72.373H79.2487V78.0779H84.9495V72.373Z" fill="white"/>
    <path d="M84.8691 72.452H79.3267V77.9984H84.8691V72.452Z" fill="white"/>
    <path d="M84.9495 66.8264H79.2487V72.5313H84.9495V66.8264Z" fill="white"/>
    <path d="M84.8691 66.9052H79.3267V72.4516H84.8691V66.9052Z" fill="white"/>
    <path d="M84.9495 61.3591H79.2487V67.0639H84.9495V61.3591Z" fill="#F57E77"/>
    <path d="M90.2533 61.4384H79.3267V69.2252H90.2533V61.4384Z" fill="white"/>
    <path d="M84.9495 55.8124H79.2487V61.5173H84.9495V55.8124Z" fill="#FFE4CE"/>
    <path d="M84.8691 55.8919H79.3267V61.4383H84.8691V55.8919Z" fill="#FFE4CE"/>
    <path d="M84.9495 50.2665H79.2487V55.9714H84.9495V50.2665Z" fill="#FFE4CE"/>
    <path d="M84.8691 50.3454H79.3267V55.8918H84.8691V50.3454Z" fill="#FFE4CE"/>
    <path d="M84.9495 44.799H79.2487V50.5039H84.9495V44.799Z" fill="#FFE4CE"/>
    <path d="M84.8691 44.8784H79.3267V50.3455H84.8691V44.8784Z" fill="#FFE4CE"/>
    <path d="M84.9495 39.2524H79.2487V44.9573H84.9495V39.2524Z" fill="#FFE4CE"/>
    <path d="M84.8691 39.332H79.3267V44.8784H84.8691V39.332Z" fill="#FFE4CE"/>
    <path d="M84.9495 33.7854H79.2487V39.4903H84.9495V33.7854Z" fill="#FFE4CE"/>
    <path d="M84.8691 33.8644H79.3267V39.4108H84.8691V33.8644Z" fill="#FFE4CE"/>
    <path d="M84.9495 28.239H79.2487V33.9438H84.9495V28.239Z" fill="#FFE4CE"/>
    <path d="M84.8691 28.318H79.3267V33.8644H84.8691V28.318Z" fill="#FFE4CE"/>
    <path d="M84.9495 22.7722H79.2487V28.4771H84.9495V22.7722Z" fill="#FFE4CE"/>
    <path d="M84.8691 22.8513H79.3267V28.3184H84.8691V22.8513Z" fill="#FFE4CE"/>
    <path d="M84.9495 17.2253H79.2487V22.9302H84.9495V17.2253Z" fill="#FFE4CE"/>
    <path d="M84.8691 17.3044H79.3267V22.8508H84.8691V17.3044Z" fill="#FFE4CE"/>
    <path d="M84.9495 11.7583H79.2487V17.4632H84.9495V11.7583Z" fill="#FFE4CE"/>
    <path d="M84.8691 11.8378H79.3267V17.3842H84.8691V11.8378Z" fill="#FFE4CE"/>
    <path d="M84.9495 6.21185H79.2487V11.9167H84.9495V6.21185Z" fill="#3D041F"/>
    <path d="M84.8691 6.29089H79.3267V11.8373H84.8691V6.29089Z" fill="#3D041F"/>
    <path d="M84.9495 0.744812H79.2487V6.44969H84.9495V0.744812Z" fill="#621931"/>
    <path d="M84.8691 0.823914H79.3267V6.29109H84.8691V0.823914Z" fill="#621931"/>
    <path d="M79.4058 110.881H73.705V116.585H79.4058V110.881Z" fill="white"/>
    <path d="M79.2487 110.96H73.7854V116.506H79.2487V110.96Z" fill="white"/>
    <path d="M79.4058 105.414H73.705V111.118H79.4058V105.414Z" fill="white"/>
    <path d="M79.2487 105.493H73.7854V110.96H79.2487V105.493Z" fill="white"/>
    <path d="M79.4058 99.8671H73.705V105.572H79.4058V99.8671Z" fill="white"/>
    <path d="M79.2487 99.9461H73.7854V105.493H79.2487V99.9461Z" fill="white"/>
    <path d="M79.4058 94.3995H73.705V100.104H79.4058V94.3995Z" fill="white"/>
    <path d="M79.2487 94.479H73.7854V100.025H79.2487V94.479Z" fill="white"/>
    <path d="M79.4058 88.8531H73.705V94.558H79.4058V88.8531Z" fill="white"/>
    <path d="M79.2487 88.9326H73.7854V94.479H79.2487V88.9326Z" fill="white"/>
    <path d="M79.4058 83.3865H73.705V89.0914H79.4058V83.3865Z" fill="white"/>
    <path d="M79.2487 83.4651H73.7854V88.9323H79.2487V83.4651Z" fill="white"/>
    <path d="M79.4058 77.8395H73.705V83.5444H79.4058V77.8395Z" fill="white"/>
    <path d="M79.2487 77.919H73.7854V83.4654H79.2487V77.919Z" fill="white"/>
    <path d="M79.4058 72.373H73.705V78.0779H79.4058V72.373Z" fill="white"/>
    <path d="M79.2487 72.452H73.7854V77.9984H79.2487V72.452Z" fill="white"/>
    <path d="M79.4058 66.8264H73.705V72.5313H79.4058V66.8264Z" fill="white"/>
    <path d="M79.2487 66.9052H73.7854V72.4516H79.2487V66.9052Z" fill="white"/>
    <path d="M79.4058 61.3591H73.705V67.0639H79.4058V61.3591Z" fill="white"/>
    <path d="M79.2487 61.4384H73.7854V66.9056H79.2487V61.4384Z" fill="white"/>
    <path d="M79.4058 55.8124H73.705V61.5173H79.4058V55.8124Z" fill="#FFE4CE"/>
    <path d="M79.2487 55.8919H73.7854V61.4383H79.2487V55.8919Z" fill="#FFE4CE"/>
    <path d="M79.4058 50.2665H73.705V55.9714H79.4058V50.2665Z" fill="#FFE4CE"/>
    <path d="M79.2487 50.3454H73.7854V55.8918H79.2487V50.3454Z" fill="#FFE4CE"/>
    <path d="M79.4058 44.799H73.705V50.5039H79.4058V44.799Z" fill="#FFE4CE"/>
    <path d="M79.2487 44.8784H73.7854V50.3455H79.2487V44.8784Z" fill="#FFE4CE"/>
    <path d="M79.4058 39.2524H73.705V44.9573H79.4058V39.2524Z" fill="#FFE4CE"/>
    <path d="M79.2487 39.332H73.7854V44.8784H79.2487V39.332Z" fill="#FFE4CE"/>
    <path d="M79.4058 33.7854H73.705V39.4903H79.4058V33.7854Z" fill="#FFE4CE"/>
    <path d="M79.2487 33.8644H73.7854V39.4108H79.2487V33.8644Z" fill="#FFE4CE"/>
    <path d="M79.4058 28.239H73.705V33.9438H79.4058V28.239Z" fill="#FFE4CE"/>
    <path d="M79.2487 28.318H73.7854V33.8644H79.2487V28.318Z" fill="#FFE4CE"/>
    <path d="M79.4058 17.2253H73.705V22.9302H79.4058V17.2253Z" fill="#FFE4CE"/>
    <path d="M79.2487 17.3044H73.7854V22.8508H79.2487V17.3044Z" fill="#FFE4CE"/>
    <path d="M79.4058 11.7583H73.705V17.4632H79.4058V11.7583Z" fill="#FFE4CE"/>
    <path d="M79.2487 11.8378H73.7854V17.3842H79.2487V11.8378Z" fill="#FFE4CE"/>
    <path d="M79.4058 6.21185H73.705V11.9167H79.4058V6.21185Z" fill="#3D041F"/>
    <path d="M79.2487 6.29089H73.7854V11.8373H79.2487V6.29089Z" fill="#3D041F"/>
    <path d="M79.4058 0.744812H73.705V6.44969H79.4058V0.744812Z" fill="#621931"/>
    <path d="M79.2487 0.823914H73.7854V6.29109H79.2487V0.823914Z" fill="#621931"/>
    <path d="M73.9432 116.427H68.2424V122.132H73.9432V116.427Z" fill="white"/>
    <path d="M73.8635 116.506H68.321V122.053H73.8635V116.506Z" fill="white"/>
    <path d="M73.9432 110.881H68.2424V116.585H73.9432V110.881Z" fill="white"/>
    <path d="M73.8635 110.96H68.321V116.506H73.8635V110.96Z" fill="white"/>
    <path d="M73.9432 105.414H68.2424V111.118H73.9432V105.414Z" fill="white"/>
    <path d="M73.8635 105.493H68.321V110.96H73.8635V105.493Z" fill="white"/>
    <path d="M73.9432 99.8671H68.2424V105.572H73.9432V99.8671Z" fill="white"/>
    <path d="M73.8635 99.9461H68.321V105.493H73.8635V99.9461Z" fill="white"/>
    <path d="M73.9432 94.3995H68.2424V100.104H73.9432V94.3995Z" fill="white"/>
    <path d="M73.8635 94.479H68.321V100.025H73.8635V94.479Z" fill="white"/>
    <path d="M73.9432 88.8531H68.2424V94.558H73.9432V88.8531Z" fill="white"/>
    <path d="M73.8635 88.9326H68.321V94.479H73.8635V88.9326Z" fill="white"/>
    <path d="M73.9432 83.3865H68.2424V89.0914H73.9432V83.3865Z" fill="white"/>
    <path d="M73.8635 83.4651H68.321V88.9323H73.8635V83.4651Z" fill="white"/>
    <path d="M73.9432 77.8395H68.2424V83.5444H73.9432V77.8395Z" fill="white"/>
    <path d="M73.8635 77.919H68.321V83.4654H73.8635V77.919Z" fill="white"/>
    <path d="M73.9432 72.373H68.2424V78.0779H73.9432V72.373Z" fill="white"/>
    <path d="M73.8635 72.452H68.321V77.9984H73.8635V72.452Z" fill="white"/>
    <path d="M73.9432 66.8264H68.2424V72.5313H73.9432V66.8264Z" fill="white"/>
    <path d="M73.8635 66.9052H68.321V72.4516H73.8635V66.9052Z" fill="white"/>
    <path d="M73.9432 61.3591H68.2424V67.0639H73.9432V61.3591Z" fill="white"/>
    <path d="M73.8635 61.4384H68.321V66.9056H73.8635V61.4384Z" fill="white"/>
    <path d="M73.9432 55.8124H68.2424V61.5173H73.9432V55.8124Z" fill="white"/>
    <path d="M73.8635 55.8919H68.321V61.4383H73.8635V55.8919Z" fill="#FFE4CE"/>
    <path d="M73.9432 33.7854H68.2424V39.4903H73.9432V33.7854Z" fill="#FFE4CE"/>
    <path d="M73.8635 33.8644H68.321V39.4108H73.8635V33.8644Z" fill="#F57E77"/>
    <path d="M73.9432 28.239H68.2424V33.9438H73.9432V28.239Z" fill="#FFE4CE"/>
    <path d="M73.8635 28.318H68.321V33.8644H73.8635V28.318Z" fill="#FFE4CE"/>
    <path d="M73.9432 22.7722H68.2424V28.4771H73.9432V22.7722Z" fill="#FFE4CE"/>
    <path d="M73.8635 22.8513H68.321V28.3184H73.8635V22.8513Z" fill="#FFE4CE"/>
    <path d="M73.9432 17.2253H68.2424V22.9302H73.9432V17.2253Z" fill="#FFE4CE"/>
    <path d="M73.8635 17.3044H68.321V22.8508H73.8635V17.3044Z" fill="#FFE4CE"/>
    <path d="M73.9432 11.7583H68.2424V17.4632H73.9432V11.7583Z" fill="#3D041F"/>
    <path d="M73.8635 11.8378H68.321V17.3842H73.8635V11.8378Z" fill="#3D041F"/>
    <path d="M75.4705 16.0824H65.0359V23.0438H75.4705V16.0824Z" fill="#3D041F"/>
    <path d="M78.9481 9.12103H71.9917V19.5631H78.9481V9.12103Z" fill="#3D041F"/>
    <path d="M73.9432 6.21185H68.2424V11.9167H73.9432V6.21185Z" fill="#621931"/>
    <path d="M73.8635 6.29089H68.321V11.8373H73.8635V6.29089Z" fill="#621931"/>
    <path d="M73.9432 0.744812H68.2424V6.44969H73.9432V0.744812Z" fill="#621931"/>
    <path d="M73.8635 0.823914H68.321V6.29109H73.8635V0.823914Z" fill="#621931"/>
    <path d="M68.4012 116.427H62.7004V122.132H68.4012V116.427Z" fill="white"/>
    <path d="M68.3217 116.506H62.7793V122.053H68.3217V116.506Z" fill="white"/>
    <path d="M68.4012 110.881H62.7004V116.585H68.4012V110.881Z" fill="white"/>
    <path d="M68.3217 110.96H62.7793V116.506H68.3217V110.96Z" fill="white"/>
    <path d="M68.4012 105.414H62.7004V111.118H68.4012V105.414Z" fill="white"/>
    <path d="M68.3217 105.493H62.7793V110.96H68.3217V105.493Z" fill="white"/>
    <path d="M68.4012 99.8671H62.7004V105.572H68.4012V99.8671Z" fill="white"/>
    <path d="M68.3217 99.9461H62.7793V105.493H68.3217V99.9461Z" fill="#C5C5C5"/>
    <path d="M68.4012 94.3995H62.7004V100.104H68.4012V94.3995Z" fill="white"/>
    <path d="M68.4012 88.8531H62.7004V94.558H68.4012V88.8531Z" fill="white"/>
    <path d="M68.3217 88.9326H62.7793V94.479H68.3217V88.9326Z" fill="#C5C5C5"/>
    <path d="M68.4012 83.3865H62.7004V89.0914H68.4012V83.3865Z" fill="white"/>
    <path d="M68.4012 77.8395H62.7004V83.5444H68.4012V77.8395Z" fill="white"/>
    <path d="M68.3217 77.919H62.7793V83.4654H68.3217V77.919Z" fill="white"/>
    <path d="M68.4012 72.373H62.7004V78.0779H68.4012V72.373Z" fill="white"/>
    <path d="M68.3217 72.452H62.7793V77.9984H68.3217V72.452Z" fill="white"/>
    <path d="M68.4012 66.8264H62.7004V72.5313H68.4012V66.8264Z" fill="white"/>
    <path d="M68.3217 66.9052H62.7793V72.4516H68.3217V66.9052Z" fill="white"/>
    <path d="M68.4012 61.3591H62.7004V67.0639H68.4012V61.3591Z" fill="white"/>
    <path d="M68.3217 61.4384H62.7793V66.9056H68.3217V61.4384Z" fill="white"/>
    <path d="M68.4012 55.8124H62.7004V61.5173H68.4012V55.8124Z" fill="white"/>
    <path d="M73.9437 55.8919H62.7793V61.4383H73.9437V55.8919Z" fill="white"/>
    <path d="M68.4012 28.239H62.7004V33.9438H68.4012V28.239Z" fill="#3D041F"/>
    <path d="M68.3217 28.318H62.7793V33.8644H68.3217V28.318Z" fill="#3D041F"/>
    <path d="M68.4012 22.7722H62.7004V28.4771H68.4012V22.7722Z" fill="#3D041F"/>
    <path d="M68.3217 22.8513H62.7793V28.3184H68.3217V22.8513Z" fill="#3D041F"/>
    <path d="M68.4012 17.2253H62.7004V22.9302H68.4012V17.2253Z" fill="#621931"/>
    <path d="M68.3217 17.3044H62.7793V22.8508H68.3217V17.3044Z" fill="#621931"/>
    <path d="M68.4012 11.7583H62.7004V17.4632H68.4012V11.7583Z" fill="#621931"/>
    <path d="M68.3217 11.8378H62.7793V17.3842H68.3217V11.8378Z" fill="#621931"/>
    <path d="M68.4012 6.21185H62.7004V11.9167H68.4012V6.21185Z" fill="#621931"/>
    <path d="M68.3217 6.29089H62.7793V11.8373H68.3217V6.29089Z" fill="#621931"/>
    <path d="M62.9371 72.373H57.2363V78.0779H62.9371V72.373Z" fill="white"/>
    <path d="M62.8582 72.452H57.3158V77.9984H62.8582V72.452Z" fill="white"/>
    <path d="M62.9371 66.8264H57.2363V72.5313H62.9371V66.8264Z" fill="white"/>
    <path d="M62.8582 66.9052H57.3158V72.4516H62.8582V66.9052Z" fill="white"/>
    <path d="M62.9371 61.3591H57.2363V67.0639H62.9371V61.3591Z" fill="white"/>
    <path d="M62.8582 61.4384H57.3158V66.9056H62.8582V61.4384Z" fill="white"/>
    <path d="M62.9371 55.8124H57.2363V61.5173H62.9371V55.8124Z" fill="white"/>
    <path d="M62.8582 55.8919H57.3158V61.4383H62.8582V55.8919Z" fill="white"/>
    <path d="M65.0359 16.0824H58.0795V26.5245H65.0359V16.0824Z" fill="#3D041F"/>
    <path d="M57.3949 72.373H51.6941V78.0779H57.3949V72.373Z" fill="white"/>
    <path d="M57.3949 66.8264H51.6941V72.5313H57.3949V66.8264Z" fill="white"/>
    <path d="M57.2371 66.9052H51.7738V72.4516H57.2371V66.9052Z" fill="white"/>
    <path d="M57.3949 61.3591H51.6941V67.0639H57.3949V61.3591Z" fill="white"/>
    <path d="M57.2371 61.4384H51.7738V66.9056H57.2371V61.4384Z" fill="white"/>
    <path d="M51.9318 72.373H46.231V78.0779H51.9318V72.373Z" fill="white"/>
    <path d="M51.9318 66.8264H46.231V72.5313H51.9318V66.8264Z" fill="white"/>
    <path d="M51.853 66.9052H46.3105V72.4516H51.853V66.9052Z" fill="white"/>
    <path d="M51.9318 61.3591H46.231V67.0639H51.9318V61.3591Z" fill="white"/>
    <path d="M51.853 61.4384H46.3105V66.9056H51.853V61.4384Z" fill="white"/>
    <path d="M46.3888 72.373H40.688V78.0779H46.3888V72.373Z" fill="white"/>
    <path d="M63.6219 23.0438H58.0795V28.5902H63.6219V23.0438Z" fill="#3D041F"/>
    <path d="M91.606 23.0438H85.9052V28.7487H91.606V23.0438Z" fill="#66667C"/>
    <path d="M70.5003 26.5244H65.037V32.0708H70.5003V26.5244Z" fill="#FFE4CE"/>
    <path d="M51.853 72.452H46.3105V77.9984H51.853V72.452Z" fill="white"/>
    <path d="M140.137 231.04H134.436V236.745H140.137V231.04Z" fill="#391709"/>
    <path d="M134.594 231.04H128.894V236.744H134.594V231.04Z" fill="#391709"/>
    <path d="M134.594 225.493H128.894V231.198H134.594V225.493Z" fill="#482C02"/>
    <path d="M129.13 231.04H123.43V236.744H129.13V231.04Z" fill="#391709"/>
    <path d="M129.13 225.493H123.43V231.198H129.13V225.493Z" fill="#482C02"/>
    <path d="M129.131 220.026H123.43V225.731H129.131V220.026Z" fill="#482C02"/>
    <path d="M123.509 231.119H117.967V236.665H123.509V231.119Z" fill="#391709"/>
    <path d="M123.588 225.493H117.887V231.198H123.588V225.493Z" fill="#482C02"/>
    <path d="M123.588 220.026H117.887V225.731H123.588V220.026Z" fill="#482C02"/>
    <path d="M118.045 231.04H112.345V236.745H118.045V231.04Z" fill="#391709"/>
    <path d="M118.045 225.493H112.345V231.198H118.045V225.493Z" fill="#482C02"/>
    <path d="M118.046 220.026H112.345V225.731H118.046V220.026Z" fill="#482C02"/>
    <path d="M118.046 214.48H112.345V220.184H118.046V214.48Z" fill="#482C02"/>
    <path d="M118.046 209.012H112.345V214.717H118.046V209.012Z" fill="#424343"/>
    <path d="M118.046 203.466H112.345V209.171H118.046V203.466Z" fill="#424343"/>
    <path d="M118.046 197.999H112.345V203.704H118.046V197.999Z" fill="#424343"/>
    <path d="M118.045 192.453H112.345V198.158H118.045V192.453Z" fill="#424343"/>
    <path d="M118.045 186.906H112.345V192.611H118.045V186.906Z" fill="#424343"/>
    <path d="M117.118 163.286L111.839 164.494L112.694 168.231L117.972 167.023L117.118 163.286Z" fill="#424343"/>
    <path d="M118.046 166.934H112.345V187.144H118.046V166.934Z" fill="#424343"/>
    <path d="M112.583 231.04H106.882V236.745H112.583V231.04Z" fill="#391709"/>
    <path d="M112.583 225.493H106.882V231.198H112.583V225.493Z" fill="#482C02"/>
    <path d="M112.583 220.026H106.882V225.731H112.583V220.026Z" fill="#482C02"/>
    <path d="M112.583 214.48H106.882V220.184H112.583V214.48Z" fill="#482C02"/>
    <path d="M112.583 209.012H106.882V214.717H112.583V209.012Z" fill="#424343"/>
    <path d="M112.583 203.466H106.882V209.171H112.583V203.466Z" fill="#424343"/>
    <path d="M112.583 197.999H106.882V203.704H112.583V197.999Z" fill="#424343"/>
    <path d="M112.583 192.452H106.882V198.157H112.583V192.452Z" fill="#424343"/>
    <path d="M112.583 186.906H106.882V192.611H112.583V186.906Z" fill="#424343"/>
    <path d="M112.582 165.455H106.881V187.144H112.582V165.455Z" fill="#424343"/>
    <path d="M107.04 231.04H101.339V236.745H107.04V231.04Z" fill="#26031F"/>
    <path d="M107.04 225.493H101.339V231.198H107.04V225.493Z" fill="#391709"/>
    <path d="M106.962 220.106H101.42V225.652H106.962V220.106Z" fill="#391709"/>
    <path d="M107.04 214.48H101.339V220.184H107.04V214.48Z" fill="#391709"/>
    <path d="M107.04 209.013H101.339V214.717H107.04V209.013Z" fill="#262828"/>
    <path d="M107.04 203.466H101.339V209.171H107.04V203.466Z" fill="#262828"/>
    <path d="M107.04 197.999H101.339V203.704H107.04V197.999Z" fill="#262828"/>
    <path d="M107.04 192.452H101.339V198.157H107.04V192.452Z" fill="#262828"/>
    <path d="M107.04 186.906H101.339V192.611H107.04V186.906Z" fill="#262828"/>
    <path d="M106.983 166.485H101.351V187.489H106.983V166.485Z" fill="#262828"/>
    <path d="M114.914 158.564L109.739 160.958L112.132 166.136L117.306 163.742L114.914 158.564Z" fill="#424343"/>
    <path d="M114.876 158.669L109.917 160.964L112.21 165.926L117.168 163.632L114.876 158.669Z" fill="#424343"/>
    <path d="M112.622 153.602L107.448 155.996L109.84 161.174L115.015 158.78L112.622 153.602Z" fill="#424343"/>
    <path d="M112.583 153.707L107.624 156.001L109.95 161.035L114.909 158.741L112.583 153.707Z" fill="#424343"/>
    <path d="M110.295 148.567L105.121 150.961L107.513 156.14L112.688 153.745L110.295 148.567Z" fill="#424343"/>
    <path d="M110.257 148.673L105.298 150.967L107.624 156.001L112.583 153.707L110.257 148.673Z" fill="#424343"/>
    <path d="M108.003 143.605L102.828 145.999L105.221 151.177L110.395 148.783L108.003 143.605Z" fill="#424343"/>
    <path d="M107.964 143.71L103.005 146.004L105.331 151.039L110.29 148.744L107.964 143.71Z" fill="#424343"/>
    <path d="M105.677 138.571L100.503 140.965L102.895 146.143L108.069 143.749L105.677 138.571Z" fill="#424343"/>
    <path d="M105.638 138.675L100.679 140.97L102.972 145.932L107.931 143.638L105.638 138.675Z" fill="#424343"/>
    <path d="M103.384 133.608L98.21 136.002L100.602 141.18L105.777 138.786L103.384 133.608Z" fill="#424343"/>
    <path d="M103.345 133.713L98.3865 136.007L100.712 141.042L105.671 138.747L103.345 133.713Z" fill="#424343"/>
    <path d="M101.058 128.573L95.8832 130.967L98.2756 136.146L103.45 133.751L101.058 128.573Z" fill="#424343"/>
    <path d="M101.02 128.678L96.0608 130.973L98.3867 136.007L103.346 133.713L101.02 128.678Z" fill="#424343"/>
    <path d="M98.7661 123.611L93.5916 126.005L95.9839 131.183L101.158 128.789L98.7661 123.611Z" fill="#262828"/>
    <path d="M98.7271 123.716L93.7682 126.011L96.0941 131.045L101.053 128.751L98.7271 123.716Z" fill="#262828"/>
    <path d="M109.955 160.858L104.781 163.252L107.173 168.43L112.348 166.036L109.955 160.858Z" fill="#424343"/>
    <path d="M109.917 160.964L104.886 163.291L107.179 168.254L112.21 165.926L109.917 160.964Z" fill="#424343"/>
    <path d="M107.663 155.896L102.488 158.29L104.881 163.468L110.055 161.074L107.663 155.896Z" fill="#424343"/>
    <path d="M107.624 156.001L102.594 158.328L104.92 163.363L109.95 161.035L107.624 156.001Z" fill="#424343"/>
    <path d="M105.336 150.861L100.162 153.255L102.554 158.434L107.729 156.039L105.336 150.861Z" fill="#424343"/>
    <path d="M105.299 150.967L100.268 153.294L102.594 158.329L107.625 156.001L105.299 150.967Z" fill="#424343"/>
    <path d="M103.045 145.899L97.87 148.293L100.262 153.471L105.437 151.077L103.045 145.899Z" fill="#424343"/>
    <path d="M103.005 146.004L97.9744 148.332L100.3 153.366L105.331 151.038L103.005 146.004Z" fill="#424343"/>
    <path d="M100.718 140.865L95.5433 143.259L97.9357 148.437L103.11 146.043L100.718 140.865Z" fill="#424343"/>
    <path d="M100.679 140.97L95.6487 143.297L97.9414 148.26L102.972 145.932L100.679 140.97Z" fill="#424343"/>
    <path d="M98.4261 135.902L93.2516 138.296L95.644 143.474L100.818 141.08L98.4261 135.902Z" fill="#424343"/>
    <path d="M98.3869 136.007L93.3561 138.335L95.682 143.369L100.713 141.042L98.3869 136.007Z" fill="#424343"/>
    <path d="M96.0994 130.867L90.9249 133.261L93.3173 138.44L98.4918 136.045L96.0994 130.867Z" fill="#424343"/>
    <path d="M96.0609 130.973L91.0302 133.3L93.3561 138.335L98.3869 136.007L96.0609 130.973Z" fill="#424343"/>
    <path d="M93.8068 125.905L88.6323 128.299L91.0247 133.478L96.1992 131.084L93.8068 125.905Z" fill="#424343"/>
    <path d="M93.7684 126.01L88.7377 128.338L91.0636 133.372L96.0944 131.045L93.7684 126.01Z" fill="#424343"/>
    <path d="M91.481 120.871L86.3065 123.265L88.6989 128.443L93.8734 126.049L91.481 120.871Z" fill="#424343"/>
    <path d="M91.4426 120.976L86.4119 123.304L88.7046 128.266L93.7353 125.939L91.4426 120.976Z" fill="#424343"/>
    <path d="M104.924 163.186L99.7498 165.58L102.142 170.758L107.317 168.364L104.924 163.186Z" fill="#262828"/>
    <path d="M102.632 158.223L97.4579 160.617L99.8503 165.796L105.025 163.402L102.632 158.223Z" fill="#262828"/>
    <path d="M102.594 158.328L97.5631 160.656L99.889 165.69L104.92 163.362L102.594 158.328Z" fill="#262828"/>
    <path d="M100.306 153.189L95.1312 155.583L97.5236 160.762L102.698 158.367L100.306 153.189Z" fill="#262828"/>
    <path d="M100.268 153.294L95.2374 155.622L97.5634 160.656L102.594 158.328L100.268 153.294Z" fill="#262828"/>
    <path d="M98.0133 148.227L92.8387 150.621L95.2311 155.799L100.406 153.405L98.0133 148.227Z" fill="#262828"/>
    <path d="M97.9747 148.331L92.944 150.659L95.2699 155.693L100.301 153.366L97.9747 148.331Z" fill="#262828"/>
    <path d="M95.6873 143.192L90.5128 145.587L92.9052 150.765L98.0797 148.371L95.6873 143.192Z" fill="#262828"/>
    <path d="M95.6489 143.297L90.6182 145.624L92.9109 150.587L97.9416 148.259L95.6489 143.297Z" fill="#262828"/>
    <path d="M93.3947 138.23L88.2202 140.624L90.6126 145.802L95.7871 143.408L93.3947 138.23Z" fill="#262828"/>
    <path d="M91.0681 133.195L85.8936 135.589L88.2859 140.768L93.4605 138.373L91.0681 133.195Z" fill="#424343"/>
    <path d="M91.0304 133.3L85.9996 135.628L88.3256 140.662L93.3563 138.334L91.0304 133.3Z" fill="#424343"/>
    <path d="M88.7763 128.233L83.6018 130.627L85.9942 135.805L91.1687 133.411L88.7763 128.233Z" fill="#424343"/>
    <path d="M88.7378 128.338L83.707 130.665L86.033 135.7L91.0637 133.372L88.7378 128.338Z" fill="#424343"/>
    <path d="M86.4505 123.198L81.276 125.592L83.6684 130.771L88.8429 128.377L86.4505 123.198Z" fill="#424343"/>
    <path d="M86.4122 123.303L81.3815 125.631L83.6742 130.593L88.7049 128.266L86.4122 123.303Z" fill="#424343"/>
    <path d="M84.1239 118.164L78.9493 120.558L81.3417 125.736L86.5162 123.342L84.1239 118.164Z" fill="white"/>
    <path d="M90.494 132.137L85.4633 134.465L90.6524 145.697L95.6831 143.369L90.494 132.137Z" fill="#262828"/>
    <path d="M68.3415 161.385L63.5081 158.36L60.4853 163.197L65.3187 166.222L68.3415 161.385Z" fill="#424343"/>
    <path d="M68.232 161.41L63.6 158.512L58.2952 167L62.9273 169.899L68.232 161.41Z" fill="#424343"/>
    <path d="M71.2377 156.75L66.4043 153.725L63.3816 158.562L68.215 161.586L71.2377 156.75Z" fill="#424343"/>
    <path d="M71.1291 156.774L66.4971 153.876L63.5583 158.578L68.1903 161.477L71.1291 156.774Z" fill="#424343"/>
    <path d="M74.1771 152.047L69.3436 149.022L66.3209 153.859L71.1543 156.884L74.1771 152.047Z" fill="#424343"/>
    <path d="M74.0677 152.073L69.4357 149.174L66.4969 153.876L71.1289 156.775L74.0677 152.073Z" fill="#424343"/>
    <path d="M77.0733 147.411L72.2399 144.386L69.2171 149.223L74.0506 152.248L77.0733 147.411Z" fill="#424343"/>
    <path d="M76.9647 147.437L72.3326 144.538L69.3939 149.24L74.0259 152.139L76.9647 147.437Z" fill="#424343"/>
    <path d="M80.0117 142.709L75.1782 139.684L72.1555 144.521L76.9889 147.546L80.0117 142.709Z" fill="#424343"/>
    <path d="M79.9032 142.734L75.2711 139.835L72.3743 144.47L77.0064 147.369L79.9032 142.734Z" fill="#424343"/>
    <path d="M82.9088 138.074L78.0753 135.049L75.0526 139.886L79.886 142.911L82.9088 138.074Z" fill="#424343"/>
    <path d="M82.7994 138.098L78.1674 135.2L75.2286 139.902L79.8606 142.801L82.7994 138.098Z" fill="#424343"/>
    <path d="M85.8482 133.371L81.0148 130.346L77.992 135.183L82.8255 138.208L85.8482 133.371Z" fill="#424343"/>
    <path d="M85.7389 133.396L81.1068 130.497L78.168 135.2L82.8001 138.099L85.7389 133.396Z" fill="#424343"/>
    <path d="M88.7444 128.736L83.911 125.711L80.8883 130.548L85.7217 133.573L88.7444 128.736Z" fill="#262828"/>
    <path d="M88.6359 128.761L84.0039 125.862L81.0651 130.565L85.6972 133.464L88.6359 128.761Z" fill="#262828"/>
    <path d="M91.6838 124.033L86.8503 121.008L83.8276 125.845L88.661 128.87L91.6838 124.033Z" fill="#262828"/>
    <path d="M91.5744 124.058L86.9424 121.16L84.0456 125.795L88.6776 128.694L91.5744 124.058Z" fill="#262828"/>
    <path d="M63.7097 158.486L58.8762 155.461L55.8535 160.298L60.6869 163.323L63.7097 158.486Z" fill="#424343"/>
    <path d="M63.6003 158.512L58.9011 155.571L52.6906 165.509L57.3898 168.45L63.6003 158.512Z" fill="#424343"/>
    <path d="M66.6059 153.851L61.7725 150.826L58.7497 155.663L63.5832 158.688L66.6059 153.851Z" fill="#424343"/>
    <path d="M66.4975 153.876L61.7983 150.935L58.8596 155.637L63.5587 158.578L66.4975 153.876Z" fill="#424343"/>
    <path d="M69.5445 149.148L64.7111 146.123L61.6883 150.96L66.5218 153.985L69.5445 149.148Z" fill="#424343"/>
    <path d="M69.4359 149.174L64.7367 146.233L61.7979 150.935L66.4971 153.876L69.4359 149.174Z" fill="#424343"/>
    <path d="M72.4416 144.513L67.6082 141.488L64.5854 146.325L69.4188 149.35L72.4416 144.513Z" fill="#424343"/>
    <path d="M72.3321 144.538L67.6329 141.597L64.6942 146.3L69.3933 149.241L72.3321 144.538Z" fill="#424343"/>
    <path d="M75.3802 139.81L70.5468 136.785L67.524 141.622L72.3574 144.647L75.3802 139.81Z" fill="#424343"/>
    <path d="M75.2717 139.835L70.5725 136.894L67.6757 141.53L72.3749 144.471L75.2717 139.835Z" fill="#424343"/>
    <path d="M78.2772 135.175L73.4437 132.15L70.421 136.987L75.2544 140.012L78.2772 135.175Z" fill="#424343"/>
    <path d="M78.1678 135.2L73.4686 132.259L70.5298 136.961L75.229 139.902L78.1678 135.2Z" fill="#424343"/>
    <path d="M81.2166 130.472L76.3832 127.447L73.3604 132.284L78.1939 135.309L81.2166 130.472Z" fill="#424343"/>
    <path d="M81.107 130.498L76.4078 127.557L73.4691 132.259L78.1682 135.2L81.107 130.498Z" fill="#424343"/>
    <path d="M84.1127 125.837L79.2793 122.812L76.2565 127.649L81.09 130.674L84.1127 125.837Z" fill="#424343"/>
    <path d="M84.0042 125.862L79.3051 122.922L76.3663 127.624L81.0654 130.565L84.0042 125.862Z" fill="#424343"/>
    <path d="M87.0522 121.135L82.2188 118.11L79.196 122.947L84.0294 125.971L87.0522 121.135Z" fill="#424343"/>
    <path d="M87.0356 121.126L82.3364 118.185L79.4396 122.821L84.1388 125.761L87.0356 121.126Z" fill="white"/>
    <path d="M59.0092 155.545L54.1758 152.52L49.428 160.117L54.2614 163.142L59.0092 155.545Z" fill="#262828"/>
    <path d="M61.907 150.91L57.0736 147.885L54.0509 152.722L58.8843 155.746L61.907 150.91Z" fill="#262828"/>
    <path d="M61.7985 150.935L57.0994 147.994L54.1606 152.696L58.8598 155.637L61.7985 150.935Z" fill="#262828"/>
    <path d="M64.845 146.207L60.0116 143.182L56.9889 148.019L61.8223 151.044L64.845 146.207Z" fill="#262828"/>
    <path d="M64.7371 146.233L60.038 143.292L57.0992 147.995L61.7984 150.935L64.7371 146.233Z" fill="#262828"/>
    <path d="M67.7429 141.572L62.9094 138.547L59.8867 143.384L64.7201 146.409L67.7429 141.572Z" fill="#262828"/>
    <path d="M67.6334 141.597L62.9342 138.656L59.9954 143.359L64.6946 146.299L67.6334 141.597Z" fill="#262828"/>
    <path d="M70.6813 136.87L65.8479 133.845L62.8252 138.682L67.6586 141.706L70.6813 136.87Z" fill="#262828"/>
    <path d="M70.5728 136.894L65.8737 133.953L62.9769 138.589L67.676 141.53L70.5728 136.894Z" fill="#262828"/>
    <path d="M73.5784 132.234L68.745 129.209L65.7222 134.046L70.5557 137.071L73.5784 132.234Z" fill="#262828"/>
    <path d="M73.4698 132.26L68.7706 129.319L65.8318 134.021L70.531 136.962L73.4698 132.26Z" fill="#262828"/>
    <path d="M76.5168 127.531L71.6833 124.506L68.6606 129.343L73.494 132.368L76.5168 127.531Z" fill="#424343"/>
    <path d="M76.4083 127.556L71.7091 124.616L68.7703 129.318L73.4695 132.259L76.4083 127.556Z" fill="#424343"/>
    <path d="M79.4131 122.896L74.5797 119.871L71.557 124.708L76.3904 127.733L79.4131 122.896Z" fill="#424343"/>
    <path d="M79.3055 122.921L74.6063 119.98L71.6675 124.683L76.3667 127.624L79.3055 122.921Z" fill="#424343"/>
    <path d="M82.3524 118.193L77.5189 115.169L74.4962 120.005L79.3296 123.03L82.3524 118.193Z" fill="#424343"/>
    <path d="M82.3367 118.185L77.6376 115.245L74.7408 119.88L79.44 122.821L82.3367 118.185Z" fill="white"/>
    <path d="M71.1292 129.506L65.5868 129.506L65.5868 134.973L71.1292 134.973L71.1292 129.506Z" fill="#262828"/>
    <path d="M16.8182 206.92L15.1689 201.459L9.71192 203.11L11.3612 208.571L16.8182 206.92Z" fill="#391709"/>
    <path d="M15.2146 201.611L13.5653 196.15L8.10828 197.801L9.75754 203.262L15.2146 201.611Z" fill="#391709"/>
    <path d="M20.5211 200.007L18.8718 194.546L13.4148 196.196L15.0641 201.657L20.5211 200.007Z" fill="#482C02"/>
    <path d="M13.6341 196.378L11.9849 190.917L6.52784 192.567L8.1771 198.028L13.6341 196.378Z" fill="#391709"/>
    <path d="M18.94 194.773L17.2908 189.312L11.8337 190.963L13.483 196.423L18.94 194.773Z" fill="#482C02"/>
    <path d="M24.1695 193.192L22.5203 187.731L17.0633 189.381L18.7125 194.842L24.1695 193.192Z" fill="#482C02"/>
    <path d="M11.9327 191.016L10.3292 185.707L5.02379 187.311L6.62724 192.62L11.9327 191.016Z" fill="#391709"/>
    <path d="M17.3363 189.464L15.687 184.003L10.23 185.653L11.8792 191.114L17.3363 189.464Z" fill="#482C02"/>
    <path d="M22.5658 187.882L20.9165 182.421L15.4595 184.072L17.1088 189.533L22.5658 187.882Z" fill="#482C02"/>
    <path d="M10.4271 185.759L8.77783 180.298L3.3208 181.949L4.97007 187.41L10.4271 185.759Z" fill="#391709"/>
    <path d="M15.7337 184.154L14.0845 178.693L8.62745 180.344L10.2767 185.805L15.7337 184.154Z" fill="#482C02"/>
    <path d="M20.9624 182.573L19.3131 177.112L13.8561 178.762L15.5054 184.223L20.9624 182.573Z" fill="#482C02"/>
    <path d="M26.2682 180.968L24.6189 175.507L19.1619 177.158L20.8112 182.619L26.2682 180.968Z" fill="#482C02"/>
    <path d="M31.4975 179.387L29.8483 173.926L24.3913 175.576L26.0405 181.037L31.4975 179.387Z" fill="#424343"/>
    <path d="M36.8034 177.782L35.1542 172.321L29.6972 173.972L31.3464 179.433L36.8034 177.782Z" fill="#424343"/>
    <path d="M42.0328 176.2L40.3835 170.739L34.9265 172.39L36.5758 177.851L42.0328 176.2Z" fill="#424343"/>
    <path d="M47.3376 174.596L45.6884 169.135L40.2313 170.785L41.8806 176.246L47.3376 174.596Z" fill="#424343"/>
    <path d="M52.6436 172.991L50.9944 167.53L45.5374 169.18L47.1866 174.641L52.6436 172.991Z" fill="#424343"/>
    <path d="M57.8731 171.409L56.2239 165.948L50.7668 167.599L52.4161 173.06L57.8731 171.409Z" fill="#424343"/>
    <path d="M62.8672 169.842L61.2179 164.381L55.5712 166.089L57.2205 171.55L62.8672 169.842Z" fill="#424343"/>
    <path d="M8.84665 180.526L7.19739 175.065L1.74036 176.715L3.38962 182.176L8.84665 180.526Z" fill="#391709"/>
    <path d="M14.1524 178.921L12.5032 173.46L7.04615 175.11L8.69541 180.571L14.1524 178.921Z" fill="#482C02"/>
    <path d="M19.3819 177.34L17.7327 171.879L12.2757 173.529L13.9249 178.99L19.3819 177.34Z" fill="#482C02"/>
    <path d="M24.6877 175.735L23.0385 170.274L17.5814 171.924L19.2307 177.385L24.6877 175.735Z" fill="#482C02"/>
    <path d="M29.9172 174.153L28.2679 168.692L22.8109 170.343L24.4602 175.804L29.9172 174.153Z" fill="#424343"/>
    <path d="M35.2221 172.549L33.5729 167.088L28.1159 168.738L29.7651 174.199L35.2221 172.549Z" fill="#424343"/>
    <path d="M40.4525 170.967L38.8032 165.506L33.3462 167.157L34.9955 172.618L40.4525 170.967Z" fill="#424343"/>
    <path d="M45.7575 169.363L44.1083 163.902L38.6512 165.552L40.3005 171.013L45.7575 169.363Z" fill="#424343"/>
    <path d="M51.0633 167.758L49.4141 162.297L43.957 163.947L45.6063 169.408L51.0633 167.758Z" fill="#424343"/>
    <path d="M59.6258 165.168L57.9766 159.707L49.1859 162.365L50.8351 167.826L59.6258 165.168Z" fill="#424343"/>
    <path d="M7.24301 175.216L5.59375 169.756L0.136723 171.406L1.78599 176.867L7.24301 175.216Z" fill="#26031F"/>
    <path d="M12.5489 173.612L10.8997 168.151L5.44263 169.801L7.09189 175.262L12.5489 173.612Z" fill="#391709"/>
    <path d="M17.6794 171.978L16.0759 166.669L10.7705 168.273L12.3739 173.583L17.6794 171.978Z" fill="#391709"/>
    <path d="M23.0841 170.426L21.4348 164.965L15.9778 166.615L17.6271 172.076L23.0841 170.426Z" fill="#391709"/>
    <path d="M28.3136 168.844L26.6643 163.383L21.2073 165.033L22.8566 170.494L28.3136 168.844Z" fill="#262828"/>
    <path d="M33.6186 167.24L31.9694 161.779L26.5124 163.429L28.1616 168.89L33.6186 167.24Z" fill="#262828"/>
    <path d="M38.849 165.658L37.1997 160.197L31.7427 161.847L33.3919 167.308L38.849 165.658Z" fill="#262828"/>
    <path d="M44.1538 164.053L42.5045 158.592L37.0475 160.242L38.6968 165.703L44.1538 164.053Z" fill="#262828"/>
    <path d="M54.7123 160.859L53.063 155.398L42.3529 158.637L44.0021 164.098L54.7123 160.859Z" fill="#262828"/>
    <path d="M101.339 120.503H92.3287V123.984H101.339V120.503Z" fill="#262828"/>
    <path d="M92.3287 120.503H83.1878V123.984H92.3287V120.503Z" fill="#262828"/>
    <path d="M83.1878 120.503H74.0482V123.984H83.1878V120.503Z" fill="#262828"/>
    <path d="M74.1776 120.503H65.0369V123.984H74.1776V120.503Z" fill="#262828"/>
    <path d="M101.338 123.984H92.4648V134.426H101.338V123.984Z" fill="#424343"/>
    <path d="M92.4648 123.984H83.4624V134.426H92.4648V123.984Z" fill="#424343"/>
    <path d="M83.4624 123.984H74.4615V134.426H83.4624V123.984Z" fill="#424343"/>
    <path d="M74.5889 123.984H65.5867V134.426H74.5889V123.984Z" fill="#424343"/>
    <path d="M72.1319 123.971L65.4086 123.971L65.4086 134.426L72.1319 134.426L72.1319 123.971Z" fill="#262828"/>
    <path d="M68.3217 72.5315H62.7793V88.9323H68.3217V72.5315Z" fill="#C5C5C5"/>
    <path d="M68.3217 86.2364H62.7793V100.026H68.3217V86.2364Z" fill="#C5C5C5"/>
    <path d="M66.4044 72.4811H57.1575V78.0275H66.4044V72.4811Z" fill="#C5C5C5"/>
    <path d="M50.8239 95.3969L46.9048 99.3188L55.6368 108.057L59.5559 104.135L50.8239 95.3969Z" fill="#C5C5C5"/>
    <path d="M77.5828 114.444L73.7197 118.31L77.5828 122.176L81.4459 118.31L77.5828 114.444Z" fill="#FFE4CE"/>
    <path d="M73.7205 110.578L69.8574 114.444L73.7765 118.366L77.6396 114.5L73.7205 110.578Z" fill="#FFE4CE"/>
    <path d="M69.8012 106.656L65.9381 110.522L69.8572 114.444L73.7203 110.578L69.8012 106.656Z" fill="#FFE4CE"/>
    <path d="M64.7989 101.65L60.9358 105.516L65.9945 110.578L69.8576 106.712L64.7989 101.65Z" fill="#FFE4CE"/>
    <path d="M62.0195 98.8686L58.1564 102.734L62.0195 106.6L65.8826 102.734L62.0195 98.8686Z" fill="#FFE4CE"/>
    <path d="M54.44 91.5222H49.99V96.9893H54.44V91.5222Z" fill="white"/>
    <path d="M53.9709 90.8157L50.1078 94.6816L62.1705 106.753L66.0336 102.887L53.9709 90.8157Z" fill="white"/>
    <path d="M73.7202 118.31L69.8011 122.232L73.6643 126.098L77.5834 122.176L73.7202 118.31Z" fill="#FFE4CE"/>
    <path d="M69.8572 114.444L65.9381 118.366L69.8572 122.288L73.7763 118.366L69.8572 114.444Z" fill="#FFE4CE"/>
    <path d="M65.9379 110.522L62.0188 114.444L65.9379 118.366L69.857 114.444L65.9379 110.522Z" fill="#FFE4CE"/>
    <path d="M60.9555 105.536L57.0364 109.458L62.0751 114.5L65.9942 110.578L60.9555 105.536Z" fill="#F57E77"/>
    <path d="M58.1563 102.734L54.2372 106.656L58.1003 110.522L62.0194 106.6L58.1563 102.734Z" fill="#C5C5C5"/>
    <path d="M44.1678 92.6575L44.1678 99.6188L52.4069 99.6188L52.4069 92.6575L44.1678 92.6575Z" fill="#C5C5C5"/>
    <path d="M47.6459 92.6574L47.6459 96.9894L52.4068 96.9894L52.4068 92.6574L47.6459 92.6574Z" fill="white"/>
    <path d="M47.6459 89.1767L47.6459 92.6574L51.1241 92.6574L51.1241 89.1767L47.6459 89.1767Z" fill="white"/>
    <path d="M47.6459 85.6961L47.6459 89.1768L51.1241 89.1768L51.1241 85.6961L47.6459 85.6961Z" fill="white"/>
    <path d="M47.6459 82.2154L47.6459 85.696L51.1241 85.696L51.1241 82.2154L47.6459 82.2154Z" fill="white"/>
    <path d="M65.9942 118.31L62.0751 122.232L65.9942 126.154L69.9133 122.232L65.9942 118.31Z" fill="#FFE4CE"/>
    <path d="M62.0755 114.388L58.1564 118.31L62.0755 122.232L65.9946 118.31L62.0755 114.388Z" fill="#F57E77"/>
    <path d="M47.6459 75.254L47.6459 82.2153L51.1241 82.2153L51.1241 75.254L47.6459 75.254Z" fill="white"/>
    <path d="M90.4114 39.4904H73.705V44.7194H90.4114V39.4904Z" fill="#FFE4CE"/>
    <path d="M90.2537 45.0369H73.4064V51.194H90.2537V45.0369Z" fill="#F57E77"/>
    <path d="M78.9488 39.4904H73.4064V45.0368H78.9488V39.4904Z" fill="#F57E77"/>
    <path d="M57.2362 72.4519H45.0999V77.9983H57.2362V72.4519Z" fill="white"/>
    <path d="M90.4121 55.8126H73.8644V61.5175H90.4121V55.8126Z" fill="white"/>
    <path d="M90.4121 55.7585H84.7129V71.7735H90.4121V55.7585Z" fill="white"/>
    <path d="M90.4119 55.9716H84.7933V66.8801H90.4119V55.9716Z" fill="white"/>
    <path d="M84.7694 55.7585H79.3318V66.6671H84.7694V55.7585Z" fill="white"/>
    <path d="M79.2487 55.6664H73.7854V61.2129H79.2487V55.6664Z" fill="#C5C5C5"/>
    <path d="M90.2146 66.227H84.7513V120.503H90.2146V66.227Z" fill="#C5C5C5"/>
    <path d="M95.5369 60.7058H90.0736V66.2522H95.5369V60.7058Z" fill="#C5C5C5"/>
    <path d="M95.5369 55.7585H90.0736V61.305H95.5369V55.7585Z" fill="#C5C5C5"/>
    <path d="M84.7129 60.6806H79.2496V66.227H84.7129V60.6806Z" fill="#C5C5C5"/>
</svg>
