<svg width="141" height="237" viewBox="0 0 141 237" fill="none" xmlns="http://www.w3.org/2000/svg">
    <path d="M124.388 81.9546L122.974 87.2354L128.251 88.6505L129.665 83.3696L124.388 81.9546Z" fill="#FFE4CE"/>
    <path d="M119.111 80.5398L117.697 85.8207L123.051 87.2562L124.465 81.9753L119.111 80.5398Z" fill="#FFE4CE"/>
    <path d="M113.758 79.1043L112.344 84.3852L117.697 85.8207L119.111 80.5398L113.758 79.1043Z" fill="#FFE4CE"/>
    <path d="M104.425 76.6026L103.011 81.8835L112.42 84.4063L113.834 79.1254L104.425 76.6026Z" fill="#FFE4CE"/>
    <path d="M103.127 76.2533L101.713 81.5341L106.99 82.9492L108.404 77.6683L103.127 76.2533Z" fill="#FFE4CE"/>
    <path d="M97.8503 74.8384L96.4363 80.1193L101.79 81.5548L103.204 76.2739L97.8503 74.8384Z" fill="#FFE4CE"/>
    <path d="M122.974 87.2357L121.54 92.5932L126.817 94.0082L128.251 88.6508L122.974 87.2357Z" fill="#FFE4CE"/>
    <path d="M117.697 85.8209L116.263 91.1784L121.616 92.6139L123.051 87.2565L117.697 85.8209Z" fill="#FFE4CE"/>
    <path d="M112.344 84.3855L110.909 89.7429L116.263 91.1784L117.697 85.821L112.344 84.3855Z" fill="#FFE4CE"/>
    <path d="M102.514 81.7494L101.079 87.1068L110.986 89.763L112.42 84.4056L102.514 81.7494Z" fill="#F57E77"/>
    <path d="M101.713 81.5344L100.278 86.8919L105.556 88.3069L106.99 82.9495L101.713 81.5344Z" fill="#F57E77"/>
    <path d="M96.4362 80.1198L95.0017 85.4772L100.355 86.9127L101.79 81.5553L96.4362 80.1198Z" fill="#F57E77"/>
    <path d="M116.283 91.1015L114.849 96.4589L120.202 97.8944L121.637 92.537L116.283 91.1015Z" fill="#FFE4CE"/>
    <path d="M110.93 89.666L109.495 95.0234L114.849 96.459L116.283 91.1015L110.93 89.666Z" fill="#F57E77"/>
    <path d="M44.6451 88.1738L50.1826 87.9392L50.4137 93.4015L44.8762 93.6361L44.6451 88.1738Z" fill="#F57E77"/>
    <path d="M44.4104 82.6319L49.9479 82.3973L50.1823 87.9388L44.6448 88.1733L44.4104 82.6319Z" fill="#F57E77"/>
    <path d="M44.1791 77.1696L49.7166 76.9351L49.9509 82.4765L44.4135 82.7111L44.1791 77.1696Z" fill="#F57E77"/>
    <path d="M50.1822 87.939L55.7197 87.7044L55.9508 93.1667L50.4133 93.4013L50.1822 87.939Z" fill="#FFE4CE"/>
    <path d="M49.9482 82.3979L55.4857 82.1633L55.7201 87.7048L50.1826 87.9393L49.9482 82.3979Z" fill="#FFE4CE"/>
    <path d="M49.7171 76.9343L55.2546 76.7011L55.4904 82.2425L49.9528 82.4757L49.7171 76.9343Z" fill="#FFE4CE"/>
    <path d="M102.145 116.012H96.4437V121.717H102.145V116.012Z" fill="#54A84E"/>
    <path d="M102.065 116.092H96.6022V121.638H102.065V116.092Z" fill="#54A84E"/>
    <path d="M102.145 110.466H96.4437V116.171H102.145V110.466Z" fill="#54A84E"/>
    <path d="M102.065 110.545H96.6022V116.091H102.065V110.545Z" fill="#54A84E"/>
    <path d="M102.145 104.999H96.4437V110.704H102.145V104.999Z" fill="#54A84E"/>
    <path d="M102.065 105.078H96.6022V110.545H102.065V105.078Z" fill="#54A84E"/>
    <path d="M102.145 99.4519H96.4437V105.157H102.145V99.4519Z" fill="#54A84E"/>
    <path d="M102.065 99.5316H96.6022V105.078H102.065V99.5316Z" fill="#54A84E"/>
    <path d="M102.145 93.9847H96.4437V99.6896H102.145V93.9847Z" fill="#54A84E"/>
    <path d="M102.065 94.0644H96.6022V99.6108H102.065V94.0644Z" fill="#54A84E"/>
    <path d="M102.145 88.4387H96.4437V94.1435H102.145V88.4387Z" fill="#54A84E"/>
    <path d="M102.065 88.5174H96.6022V94.0638H102.065V88.5174Z" fill="#54A84E"/>
    <path d="M102.145 82.9713H96.4437V88.6762H102.145V82.9713Z" fill="#54A84E"/>
    <path d="M102.065 83.0502H96.6022V88.5174H102.065V83.0502Z" fill="#54A84E"/>
    <path d="M102.145 77.4245H96.4437V83.1294H102.145V77.4245Z" fill="#54A84E"/>
    <path d="M102.064 76.8254H96.6012V82.3719H102.064V76.8254Z" fill="#54A84E"/>
    <path d="M102.145 71.9581H96.4437V77.663H102.145V71.9581Z" fill="#54A84E"/>
    <path d="M102.064 71.3582H96.6012V76.9046H102.064V71.3582Z" fill="#54A84E"/>
    <path d="M102.145 66.4112H96.4437V72.1161H102.145V66.4112Z" fill="#54A84E"/>
    <path d="M102.065 66.49H96.6022V72.0364H102.065V66.49Z" fill="#54A84E"/>
    <path d="M102.145 60.9439H96.4437V66.6488H102.145V60.9439Z" fill="#54A84E"/>
    <path d="M102.065 61.0236H96.6022V66.4908H102.065V61.0236Z" fill="#54A84E"/>
    <path d="M102.145 55.3979H96.4437V61.1027H102.145V55.3979Z" fill="#54A84E"/>
    <path d="M102.065 55.4767H96.6022V61.0231H102.065V55.4767Z" fill="#54A84E"/>
    <path d="M106.007 60.9166H100.544V66.463H106.007V60.9166Z" fill="#54A84E"/>
    <path d="M106.007 64.3974H100.544V69.9438H106.007V64.3974Z" fill="#54A84E"/>
    <path d="M106.007 67.8782H100.544V73.4246H106.007V67.8782Z" fill="#54A84E"/>
    <path d="M102.145 16.8104H96.4437V22.5153H102.145V16.8104Z" fill="#3D041F"/>
    <path d="M102.065 16.8891H96.6022V22.4355H102.065V16.8891Z" fill="#3D041F"/>
    <path d="M102.145 11.343H96.4437V17.0479H102.145V11.343Z" fill="#621931"/>
    <path d="M102.065 11.4227H96.6022V16.9691H102.065V11.4227Z" fill="#621931"/>
    <path d="M102.145 5.79697H96.4437V11.5019H102.145V5.79697Z" fill="#621931"/>
    <path d="M102.065 5.87582H96.6022V11.4222H102.065V5.87582Z" fill="#621931"/>
    <path d="M96.6805 116.012H90.9797V121.717H96.6805V116.012Z" fill="#54A84E"/>
    <path d="M96.6805 110.466H90.9797V116.171H96.6805V110.466Z" fill="#54A84E"/>
    <path d="M96.6016 110.545H91.0592V116.091H96.6016V110.545Z" fill="#54A84E"/>
    <path d="M96.6805 104.999H90.9797V110.704H96.6805V104.999Z" fill="#54A84E"/>
    <path d="M96.6016 105.078H91.0592V110.545H96.6016V105.078Z" fill="#54A84E"/>
    <path d="M96.6805 99.4519H90.9797V105.157H96.6805V99.4519Z" fill="#54A84E"/>
    <path d="M96.6016 99.5316H91.0592V105.078H96.6016V99.5316Z" fill="#54A84E"/>
    <path d="M96.6805 93.9847H90.9797V99.6896H96.6805V93.9847Z" fill="#54A84E"/>
    <path d="M96.6016 94.0644H91.0592V99.6108H96.6016V94.0644Z" fill="#54A84E"/>
    <path d="M96.6805 88.4387H90.9797V94.1435H96.6805V88.4387Z" fill="#54A84E"/>
    <path d="M96.6016 88.5174H91.0592V94.0638H96.6016V88.5174Z" fill="#54A84E"/>
    <path d="M96.6805 82.9713H90.9797V88.6762H96.6805V82.9713Z" fill="#54A84E"/>
    <path d="M96.6016 83.0502H91.0592V88.5174H96.6016V83.0502Z" fill="#54A84E"/>
    <path d="M96.6805 77.4245H90.9797V83.1294H96.6805V77.4245Z" fill="#54A84E"/>
    <path d="M96.6016 77.5042H91.0592V83.0506H96.6016V77.5042Z" fill="#54A84E"/>
    <path d="M96.6805 71.9581H90.9797V77.663H96.6805V71.9581Z" fill="#54A84E"/>
    <path d="M96.6016 72.037H91.0592V77.5834H96.6016V72.037Z" fill="#54A84E"/>
    <path d="M96.6805 66.4112H90.9797V72.1161H96.6805V66.4112Z" fill="#54A84E"/>
    <path d="M96.6016 66.49H91.0592V72.0364H96.6016V66.49Z" fill="#54A84E"/>
    <path d="M96.6805 60.9439H90.9797V66.6488H96.6805V60.9439Z" fill="#54A84E"/>
    <path d="M96.6016 61.0236H91.0592V66.4908H96.6016V61.0236Z" fill="#54A84E"/>
    <path d="M96.6805 55.3979H90.9797V61.1027H96.6805V55.3979Z" fill="#F57E77"/>
    <path d="M96.6016 55.4767H91.0592V61.0231H96.6016V55.4767Z" fill="#54A84E"/>
    <path d="M96.6805 33.3705H90.9797V39.0753H96.6805V33.3705Z" fill="#FFE4CE"/>
    <path d="M96.6016 33.4493H91.0592V38.9957H96.6016V33.4493Z" fill="#FFE4CE"/>
    <path d="M96.6805 27.8236H90.9797V33.5285H96.6805V27.8236Z" fill="#FFE4CE"/>
    <path d="M96.6016 27.9032H91.0592V33.4496H96.6016V27.9032Z" fill="#FFE4CE"/>
    <path d="M93.5879 22.6286H83.1533V29.59H93.5879V22.6286Z" fill="#FFE4CE"/>
    <path d="M96.6805 22.3572H90.9797V28.0621H96.6805V22.3572Z" fill="#FFE4CE"/>
    <path d="M96.6016 22.436H91.0592V27.9032H96.6016V22.436Z" fill="#FFE4CE"/>
    <path d="M96.6805 16.8104H90.9797V22.5153H96.6805V16.8104Z" fill="#FFE4CE"/>
    <path d="M96.6016 16.8891H91.0592V22.4355H96.6016V16.8891Z" fill="#FFE4CE"/>
    <path d="M96.6805 11.343H90.9797V17.0479H96.6805V11.343Z" fill="#3D041F"/>
    <path d="M96.6016 11.4227H91.0592V16.9691H96.6016V11.4227Z" fill="#3D041F"/>
    <path d="M96.6805 5.79697H90.9797V11.5019H96.6805V5.79697Z" fill="#621931"/>
    <path d="M96.6016 5.87582H91.0592V11.4222H96.6016V5.87582Z" fill="#621931"/>
    <path d="M96.6805 0.329773H90.9797V6.03466H96.6805V0.329773Z" fill="#621931"/>
    <path d="M96.6016 0.408539H91.0592V5.87572H96.6016V0.408539Z" fill="#621931"/>
    <path d="M91.1383 116.012H85.4375V121.717H91.1383V116.012Z" fill="#54A84E"/>
    <path d="M91.0595 116.092H85.5171V121.638H91.0595V116.092Z" fill="#54A84E"/>
    <path d="M91.1383 110.466H85.4375V116.171H91.1383V110.466Z" fill="#54A84E"/>
    <path d="M91.0595 110.545H85.5171V116.091H91.0595V110.545Z" fill="#54A84E"/>
    <path d="M91.1383 104.999H85.4375V110.704H91.1383V104.999Z" fill="#54A84E"/>
    <path d="M91.0595 105.078H85.5171V110.545H91.0595V105.078Z" fill="#54A84E"/>
    <path d="M91.1383 99.4519H85.4375V105.157H91.1383V99.4519Z" fill="#54A84E"/>
    <path d="M91.0595 99.5316H85.5171V105.078H91.0595V99.5316Z" fill="#54A84E"/>
    <path d="M91.1383 93.9847H85.4375V99.6896H91.1383V93.9847Z" fill="#54A84E"/>
    <path d="M91.0595 94.0644H85.5171V99.6108H91.0595V94.0644Z" fill="#54A84E"/>
    <path d="M91.1383 88.4387H85.4375V94.1435H91.1383V88.4387Z" fill="#54A84E"/>
    <path d="M91.0595 88.5174H85.5171V94.0638H91.0595V88.5174Z" fill="#54A84E"/>
    <path d="M91.1383 82.9713H85.4375V88.6762H91.1383V82.9713Z" fill="#54A84E"/>
    <path d="M91.0595 83.0502H85.5171V88.5174H91.0595V83.0502Z" fill="#54A84E"/>
    <path d="M91.1383 77.4245H85.4375V83.1294H91.1383V77.4245Z" fill="#54A84E"/>
    <path d="M91.0595 77.5042H85.5171V83.0506H91.0595V77.5042Z" fill="#54A84E"/>
    <path d="M91.1383 71.9581H85.4375V77.663H91.1383V71.9581Z" fill="#54A84E"/>
    <path d="M91.0595 72.037H85.5171V77.5834H91.0595V72.037Z" fill="#54A84E"/>
    <path d="M91.1383 66.4112H85.4375V72.1161H91.1383V66.4112Z" fill="#54A84E"/>
    <path d="M91.0595 66.49H85.5171V72.0364H91.0595V66.49Z" fill="#54A84E"/>
    <path d="M91.1383 60.9439H85.4375V66.6488H91.1383V60.9439Z" fill="#54A84E"/>
    <path d="M91.0595 61.0236H85.5171V66.4908H91.0595V61.0236Z" fill="#54A84E"/>
    <path d="M91.1383 55.3979H85.4375V61.1027H91.1383V55.3979Z" fill="#F57E77"/>
    <path d="M91.0595 55.4767H85.5171V61.0231H91.0595V55.4767Z" fill="#F57E77"/>
    <path d="M91.1383 49.8518H85.4375V55.5567H91.1383V49.8518Z" fill="#F57E77"/>
    <path d="M91.0595 49.9307H85.5171V55.4771H91.0595V49.9307Z" fill="#F57E77"/>
    <path d="M91.1383 44.3838H85.4375V50.0887H91.1383V44.3838Z" fill="#F57E77"/>
    <path d="M91.1383 38.8378H85.4375V44.5427H91.1383V38.8378Z" fill="#FFE4CE"/>
    <path d="M93.5873 19.1486H72.7181V29.5907H93.5873V19.1486Z" fill="#FFE4CE"/>
    <path d="M91.1383 33.3705H85.4375V39.0753H91.1383V33.3705Z" fill="#FFE4CE"/>
    <path d="M91.0595 33.4493H85.5171V38.9957H91.0595V33.4493Z" fill="#FFE4CE"/>
    <path d="M91.1383 27.8236H85.4375V33.5285H91.1383V27.8236Z" fill="#FFE4CE"/>
    <path d="M91.0595 27.9032H85.5171V33.4496H91.0595V27.9032Z" fill="#FFE4CE"/>
    <path d="M91.1383 16.8104H85.4375V22.5153H91.1383V16.8104Z" fill="#FFE4CE"/>
    <path d="M91.0595 16.8891H85.5171V22.4355H91.0595V16.8891Z" fill="#FFE4CE"/>
    <path d="M91.1383 11.343H85.4375V17.0479H91.1383V11.343Z" fill="#FFE4CE"/>
    <path d="M91.0595 11.4227H85.5171V16.9691H91.0595V11.4227Z" fill="#FFE4CE"/>
    <path d="M91.1383 5.79697H85.4375V11.5019H91.1383V5.79697Z" fill="#3D041F"/>
    <path d="M91.0595 5.87582H85.5171V11.4222H91.0595V5.87582Z" fill="#3D041F"/>
    <path d="M91.1383 0.329773H85.4375V6.03466H91.1383V0.329773Z" fill="#621931"/>
    <path d="M91.0595 0.408539H85.5171V5.87572H91.0595V0.408539Z" fill="#621931"/>
    <path d="M85.676 116.012H79.9752V121.717H85.676V116.012Z" fill="#54A84E"/>
    <path d="M82.1171 120.089H76.5747V123.597H82.1171V120.089Z" fill="#105E7C"/>
    <path d="M77.3314 120.089H66.8969V123.569H77.3314V120.089Z" fill="#105E7C"/>
    <path d="M85.676 110.466H79.9752V116.171H85.676V110.466Z" fill="#54A84E"/>
    <path d="M85.5953 110.545H80.0529V116.091H85.5953V110.545Z" fill="#54A84E"/>
    <path d="M85.676 104.999H79.9752V110.704H85.676V104.999Z" fill="#54A84E"/>
    <path d="M85.5953 105.078H80.0529V110.545H85.5953V105.078Z" fill="#54A84E"/>
    <path d="M85.676 99.4519H79.9752V105.157H85.676V99.4519Z" fill="#54A84E"/>
    <path d="M85.5953 99.5316H80.0529V105.078H85.5953V99.5316Z" fill="#54A84E"/>
    <path d="M85.676 93.9847H79.9752V99.6896H85.676V93.9847Z" fill="#54A84E"/>
    <path d="M85.5953 94.0644H80.0529V99.6108H85.5953V94.0644Z" fill="#54A84E"/>
    <path d="M85.676 88.4387H79.9752V94.1435H85.676V88.4387Z" fill="#54A84E"/>
    <path d="M85.5953 88.5174H80.0529V94.0638H85.5953V88.5174Z" fill="#54A84E"/>
    <path d="M85.676 82.9713H79.9752V88.6762H85.676V82.9713Z" fill="#54A84E"/>
    <path d="M85.5953 83.0502H80.0529V88.5174H85.5953V83.0502Z" fill="#54A84E"/>
    <path d="M85.676 77.4245H79.9752V83.1294H85.676V77.4245Z" fill="#54A84E"/>
    <path d="M85.5953 77.5042H80.0529V83.0506H85.5953V77.5042Z" fill="#54A84E"/>
    <path d="M85.676 71.9581H79.9752V77.663H85.676V71.9581Z" fill="#54A84E"/>
    <path d="M85.5953 72.037H80.0529V77.5834H85.5953V72.037Z" fill="#54A84E"/>
    <path d="M85.676 66.4112H79.9752V72.1161H85.676V66.4112Z" fill="#54A84E"/>
    <path d="M85.5953 66.49H80.0529V72.0364H85.5953V66.49Z" fill="#54A84E"/>
    <path d="M85.676 60.9439H79.9752V66.6488H85.676V60.9439Z" fill="#F57E77"/>
    <path d="M90.9795 61.0236H80.0529V68.8104H90.9795V61.0236Z" fill="#54A84E"/>
    <path d="M85.676 55.3979H79.9752V61.1027H85.676V55.3979Z" fill="#FFE4CE"/>
    <path d="M85.5953 55.4767H80.0529V61.0231H85.5953V55.4767Z" fill="#FFE4CE"/>
    <path d="M85.676 49.8518H79.9752V55.5567H85.676V49.8518Z" fill="#FFE4CE"/>
    <path d="M85.5953 49.9307H80.0529V55.4771H85.5953V49.9307Z" fill="#FFE4CE"/>
    <path d="M85.676 44.3838H79.9752V50.0887H85.676V44.3838Z" fill="#FFE4CE"/>
    <path d="M85.5953 44.4635H80.0529V49.9307H85.5953V44.4635Z" fill="#FFE4CE"/>
    <path d="M85.676 38.8378H79.9752V44.5427H85.676V38.8378Z" fill="#FFE4CE"/>
    <path d="M85.5953 38.9165H80.0529V44.4629H85.5953V38.9165Z" fill="#FFE4CE"/>
    <path d="M85.676 33.3705H79.9752V39.0753H85.676V33.3705Z" fill="#FFE4CE"/>
    <path d="M85.5953 33.4493H80.0529V38.9957H85.5953V33.4493Z" fill="#FFE4CE"/>
    <path d="M85.676 27.8236H79.9752V33.5285H85.676V27.8236Z" fill="#FFE4CE"/>
    <path d="M85.5953 27.9032H80.0529V33.4496H85.5953V27.9032Z" fill="#FFE4CE"/>
    <path d="M85.676 22.3572H79.9752V28.0621H85.676V22.3572Z" fill="#FFE4CE"/>
    <path d="M85.5953 22.436H80.0529V27.9032H85.5953V22.436Z" fill="#FFE4CE"/>
    <path d="M85.676 16.8104H79.9752V22.5153H85.676V16.8104Z" fill="#FFE4CE"/>
    <path d="M85.5953 16.8891H80.0529V22.4355H85.5953V16.8891Z" fill="#FFE4CE"/>
    <path d="M85.676 11.343H79.9752V17.0479H85.676V11.343Z" fill="#FFE4CE"/>
    <path d="M85.5953 11.4227H80.0529V16.9691H85.5953V11.4227Z" fill="#FFE4CE"/>
    <path d="M85.676 5.79697H79.9752V11.5019H85.676V5.79697Z" fill="#3D041F"/>
    <path d="M85.5953 5.87582H80.0529V11.4222H85.5953V5.87582Z" fill="#3D041F"/>
    <path d="M85.676 0.329773H79.9752V6.03466H85.676V0.329773Z" fill="#621931"/>
    <path d="M85.5953 0.408539H80.0529V5.87572H85.5953V0.408539Z" fill="#621931"/>
    <path d="M80.1329 110.466H74.4321V116.171H80.1329V110.466Z" fill="#54A84E"/>
    <path d="M79.9751 110.545H74.5118V116.091H79.9751V110.545Z" fill="#54A84E"/>
    <path d="M80.1329 104.999H74.4321V110.704H80.1329V104.999Z" fill="#54A84E"/>
    <path d="M79.9751 105.078H74.5118V110.545H79.9751V105.078Z" fill="#54A84E"/>
    <path d="M80.1329 99.4519H74.4321V105.157H80.1329V99.4519Z" fill="#54A84E"/>
    <path d="M79.9751 99.5316H74.5118V105.078H79.9751V99.5316Z" fill="#54A84E"/>
    <path d="M80.1329 93.9847H74.4321V99.6896H80.1329V93.9847Z" fill="#54A84E"/>
    <path d="M79.9751 94.0644H74.5118V99.6108H79.9751V94.0644Z" fill="#54A84E"/>
    <path d="M80.1329 88.4387H74.4321V94.1435H80.1329V88.4387Z" fill="#54A84E"/>
    <path d="M79.9751 88.5174H74.5118V94.0638H79.9751V88.5174Z" fill="#54A84E"/>
    <path d="M80.1329 82.9713H74.4321V88.6762H80.1329V82.9713Z" fill="#54A84E"/>
    <path d="M79.9751 83.0502H74.5118V88.5174H79.9751V83.0502Z" fill="#54A84E"/>
    <path d="M80.1329 77.4245H74.4321V83.1294H80.1329V77.4245Z" fill="#54A84E"/>
    <path d="M79.9751 77.5042H74.5118V83.0506H79.9751V77.5042Z" fill="#54A84E"/>
    <path d="M80.1329 71.9581H74.4321V77.663H80.1329V71.9581Z" fill="#54A84E"/>
    <path d="M79.9751 72.037H74.5118V77.5834H79.9751V72.037Z" fill="#54A84E"/>
    <path d="M80.1329 66.4112H74.4321V72.1161H80.1329V66.4112Z" fill="#54A84E"/>
    <path d="M79.9751 66.49H74.5118V72.0364H79.9751V66.49Z" fill="#54A84E"/>
    <path d="M80.1329 60.9439H74.4321V66.6488H80.1329V60.9439Z" fill="#54A84E"/>
    <path d="M79.9751 61.0236H74.5118V66.4908H79.9751V61.0236Z" fill="#54A84E"/>
    <path d="M80.1329 55.3979H74.4321V61.1027H80.1329V55.3979Z" fill="#FFE4CE"/>
    <path d="M79.9751 55.4767H74.5118V61.0231H79.9751V55.4767Z" fill="#FFE4CE"/>
    <path d="M80.1329 49.8518H74.4321V55.5567H80.1329V49.8518Z" fill="#FFE4CE"/>
    <path d="M79.9751 49.9307H74.5118V55.4771H79.9751V49.9307Z" fill="#FFE4CE"/>
    <path d="M80.1329 44.3838H74.4321V50.0887H80.1329V44.3838Z" fill="#FFE4CE"/>
    <path d="M79.9751 44.4635H74.5118V49.9307H79.9751V44.4635Z" fill="#FFE4CE"/>
    <path d="M80.1329 38.8378H74.4321V44.5427H80.1329V38.8378Z" fill="#FFE4CE"/>
    <path d="M79.9751 38.9165H74.5118V44.4629H79.9751V38.9165Z" fill="#FFE4CE"/>
    <path d="M80.1329 33.3705H74.4321V39.0753H80.1329V33.3705Z" fill="#FFE4CE"/>
    <path d="M79.9751 33.4493H74.5118V38.9957H79.9751V33.4493Z" fill="#FFE4CE"/>
    <path d="M80.1329 27.8236H74.4321V33.5285H80.1329V27.8236Z" fill="#FFE4CE"/>
    <path d="M79.9751 27.9032H74.5118V33.4496H79.9751V27.9032Z" fill="#FFE4CE"/>
    <path d="M80.1329 16.8104H74.4321V22.5153H80.1329V16.8104Z" fill="#FFE4CE"/>
    <path d="M79.9751 16.8891H74.5118V22.4355H79.9751V16.8891Z" fill="#FFE4CE"/>
    <path d="M80.1329 11.343H74.4321V17.0479H80.1329V11.343Z" fill="#FFE4CE"/>
    <path d="M79.9751 11.4227H74.5118V16.9691H79.9751V11.4227Z" fill="#FFE4CE"/>
    <path d="M80.1329 5.79697H74.4321V11.5019H80.1329V5.79697Z" fill="#3D041F"/>
    <path d="M79.9751 5.87582H74.5118V11.4222H79.9751V5.87582Z" fill="#3D041F"/>
    <path d="M80.1329 0.329773H74.4321V6.03466H80.1329V0.329773Z" fill="#621931"/>
    <path d="M79.9751 0.408539H74.5118V5.87572H79.9751V0.408539Z" fill="#621931"/>
    <path d="M74.6695 116.012H68.9688V121.717H74.6695V116.012Z" fill="#54A84E"/>
    <path d="M74.5902 116.092H69.0477V121.638H74.5902V116.092Z" fill="#54A84E"/>
    <path d="M74.6695 110.466H68.9688V116.171H74.6695V110.466Z" fill="#54A84E"/>
    <path d="M74.5902 110.545H69.0477V116.091H74.5902V110.545Z" fill="#54A84E"/>
    <path d="M74.6695 104.999H68.9688V110.704H74.6695V104.999Z" fill="#54A84E"/>
    <path d="M74.5902 105.078H69.0477V110.545H74.5902V105.078Z" fill="#54A84E"/>
    <path d="M74.6695 99.4519H68.9688V105.157H74.6695V99.4519Z" fill="#54A84E"/>
    <path d="M74.5902 99.5316H69.0477V105.078H74.5902V99.5316Z" fill="#54A84E"/>
    <path d="M74.6695 93.9847H68.9688V99.6896H74.6695V93.9847Z" fill="#54A84E"/>
    <path d="M74.5902 94.0644H69.0477V99.6108H74.5902V94.0644Z" fill="#54A84E"/>
    <path d="M74.6695 88.4387H68.9688V94.1435H74.6695V88.4387Z" fill="#54A84E"/>
    <path d="M74.5902 88.5174H69.0477V94.0638H74.5902V88.5174Z" fill="#54A84E"/>
    <path d="M74.6695 82.9713H68.9688V88.6762H74.6695V82.9713Z" fill="#54A84E"/>
    <path d="M74.5902 83.0502H69.0477V88.5174H74.5902V83.0502Z" fill="#54A84E"/>
    <path d="M74.6695 77.4245H68.9688V83.1294H74.6695V77.4245Z" fill="#54A84E"/>
    <path d="M74.5902 77.5042H69.0477V83.0506H74.5902V77.5042Z" fill="#54A84E"/>
    <path d="M74.6695 71.9581H68.9688V77.663H74.6695V71.9581Z" fill="#54A84E"/>
    <path d="M74.5902 72.037H69.0477V77.5834H74.5902V72.037Z" fill="#54A84E"/>
    <path d="M74.6695 66.4112H68.9688V72.1161H74.6695V66.4112Z" fill="#54A84E"/>
    <path d="M74.5902 66.49H69.0477V72.0364H74.5902V66.49Z" fill="#54A84E"/>
    <path d="M74.6695 60.9439H68.9688V66.6488H74.6695V60.9439Z" fill="#54A84E"/>
    <path d="M74.5902 61.0236H69.0477V66.4908H74.5902V61.0236Z" fill="#54A84E"/>
    <path d="M74.6695 55.3979H68.9688V61.1027H74.6695V55.3979Z" fill="#FFE4CE"/>
    <path d="M74.5902 55.4767H69.0477V61.0231H74.5902V55.4767Z" fill="#FFE4CE"/>
    <path d="M74.6695 33.3705H68.9688V39.0753H74.6695V33.3705Z" fill="#FFE4CE"/>
    <path d="M74.5902 33.4493H69.0477V38.9957H74.5902V33.4493Z" fill="#F57E77"/>
    <path d="M74.6695 27.8236H68.9688V33.5285H74.6695V27.8236Z" fill="#FFE4CE"/>
    <path d="M74.5902 27.9032H69.0477V33.4496H74.5902V27.9032Z" fill="#FFE4CE"/>
    <path d="M74.6695 22.3572H68.9688V28.0621H74.6695V22.3572Z" fill="#FFE4CE"/>
    <path d="M74.5902 22.436H69.0477V27.9032H74.5902V22.436Z" fill="#FFE4CE"/>
    <path d="M74.6695 16.8104H68.9688V22.5153H74.6695V16.8104Z" fill="#FFE4CE"/>
    <path d="M74.5902 16.8891H69.0477V22.4355H74.5902V16.8891Z" fill="#FFE4CE"/>
    <path d="M74.6695 11.343H68.9688V17.0479H74.6695V11.343Z" fill="#3D041F"/>
    <path d="M74.5902 11.4227H69.0477V16.9691H74.5902V11.4227Z" fill="#3D041F"/>
    <path d="M76.1972 15.6678H65.7626V22.6291H76.1972V15.6678Z" fill="#3D041F"/>
    <path d="M79.6745 8.70615H72.7181V19.1482H79.6745V8.70615Z" fill="#3D041F"/>
    <path d="M74.6695 5.79697H68.9688V11.5019H74.6695V5.79697Z" fill="#621931"/>
    <path d="M74.5902 5.87582H69.0477V11.4222H74.5902V5.87582Z" fill="#621931"/>
    <path d="M74.6695 0.329773H68.9688V6.03466H74.6695V0.329773Z" fill="#621931"/>
    <path d="M74.5902 0.408539H69.0477V5.87572H74.5902V0.408539Z" fill="#621931"/>
    <path d="M69.1276 116.012H63.4268V121.717H69.1276V116.012Z" fill="#54A84E"/>
    <path d="M69.0481 116.092H63.5056V121.638H69.0481V116.092Z" fill="#54A84E"/>
    <path d="M69.1276 110.466H63.4268V116.171H69.1276V110.466Z" fill="#54A84E"/>
    <path d="M69.0481 110.545H63.5056V116.091H69.0481V110.545Z" fill="#54A84E"/>
    <path d="M69.1276 104.999H63.4268V110.704H69.1276V104.999Z" fill="#54A84E"/>
    <path d="M69.0481 105.078H63.5056V110.545H69.0481V105.078Z" fill="#54A84E"/>
    <path d="M69.1276 99.4519H63.4268V105.157H69.1276V99.4519Z" fill="#54A84E"/>
    <path d="M69.0481 99.5316H63.5056V105.078H69.0481V99.5316Z" fill="#376732"/>
    <path d="M69.1276 93.9847H63.4268V99.6896H69.1276V93.9847Z" fill="#54A84E"/>
    <path d="M69.1276 88.4387H63.4268V94.1435H69.1276V88.4387Z" fill="#54A84E"/>
    <path d="M69.0481 88.5174H63.5056V94.0638H69.0481V88.5174Z" fill="#376732"/>
    <path d="M69.1276 82.9713H63.4268V88.6762H69.1276V82.9713Z" fill="#54A84E"/>
    <path d="M69.1276 77.4245H63.4268V83.1294H69.1276V77.4245Z" fill="#54A84E"/>
    <path d="M69.0481 77.5042H63.5056V83.0506H69.0481V77.5042Z" fill="#54A84E"/>
    <path d="M69.1276 71.9581H63.4268V77.663H69.1276V71.9581Z" fill="#54A84E"/>
    <path d="M69.0481 72.037H63.5056V77.5834H69.0481V72.037Z" fill="#54A84E"/>
    <path d="M69.1276 66.4112H63.4268V72.1161H69.1276V66.4112Z" fill="#54A84E"/>
    <path d="M69.0481 66.49H63.5056V72.0364H69.0481V66.49Z" fill="#54A84E"/>
    <path d="M69.1276 60.9439H63.4268V66.6488H69.1276V60.9439Z" fill="#54A84E"/>
    <path d="M69.0481 61.0236H63.5056V66.4908H69.0481V61.0236Z" fill="#54A84E"/>
    <path d="M69.1276 55.3979H63.4268V61.1027H69.1276V55.3979Z" fill="#54A84E"/>
    <path d="M69.0481 55.4767H63.5056V61.0231H69.0481V55.4767Z" fill="#54A84E"/>
    <path d="M69.1276 27.8236H63.4268V33.5285H69.1276V27.8236Z" fill="#3D041F"/>
    <path d="M69.0481 27.9032H63.5056V33.4496H69.0481V27.9032Z" fill="#3D041F"/>
    <path d="M69.1276 22.3572H63.4268V28.0621H69.1276V22.3572Z" fill="#3D041F"/>
    <path d="M69.0481 22.436H63.5056V27.9032H69.0481V22.436Z" fill="#3D041F"/>
    <path d="M69.1276 16.8104H63.4268V22.5153H69.1276V16.8104Z" fill="#621931"/>
    <path d="M69.0481 16.8891H63.5056V22.4355H69.0481V16.8891Z" fill="#621931"/>
    <path d="M69.1276 11.343H63.4268V17.0479H69.1276V11.343Z" fill="#621931"/>
    <path d="M69.0481 11.4227H63.5056V16.9691H69.0481V11.4227Z" fill="#621931"/>
    <path d="M69.1276 5.79697H63.4268V11.5019H69.1276V5.79697Z" fill="#621931"/>
    <path d="M69.0481 5.87582H63.5056V11.4222H69.0481V5.87582Z" fill="#621931"/>
    <path d="M63.6634 71.9581H57.9626V77.663H63.6634V71.9581Z" fill="#54A84E"/>
    <path d="M63.5847 72.037H58.0422V77.5834H63.5847V72.037Z" fill="#54A84E"/>
    <path d="M63.6634 66.4112H57.9626V72.1161H63.6634V66.4112Z" fill="#54A84E"/>
    <path d="M63.5847 66.49H58.0422V72.0364H63.5847V66.49Z" fill="#54A84E"/>
    <path d="M63.6634 60.9439H57.9626V66.6488H63.6634V60.9439Z" fill="#54A84E"/>
    <path d="M63.5847 61.0236H58.0422V66.4908H63.5847V61.0236Z" fill="#54A84E"/>
    <path d="M63.6634 55.3979H57.9626V61.1027H63.6634V55.3979Z" fill="#54A84E"/>
    <path d="M63.5847 55.4767H58.0422V61.0231H63.5847V55.4767Z" fill="#54A84E"/>
    <path d="M65.7623 15.6678H58.8059V26.1098H65.7623V15.6678Z" fill="#3D041F"/>
    <path d="M58.1213 71.9581H52.4205V77.663H58.1213V71.9581Z" fill="#54A84E"/>
    <path d="M58.1213 66.4112H52.4205V72.1161H58.1213V66.4112Z" fill="#54A84E"/>
    <path d="M57.9635 66.49H52.5002V72.0364H57.9635V66.49Z" fill="#54A84E"/>
    <path d="M58.1213 60.9439H52.4205V66.6488H58.1213V60.9439Z" fill="#54A84E"/>
    <path d="M57.9635 61.0236H52.5002V66.4908H57.9635V61.0236Z" fill="#54A84E"/>
    <path d="M52.6579 71.9581H46.9572V77.663H52.6579V71.9581Z" fill="#54A84E"/>
    <path d="M52.6579 66.4112H46.9572V72.1161H52.6579V66.4112Z" fill="#54A84E"/>
    <path d="M52.5793 66.49H47.0369V72.0364H52.5793V66.49Z" fill="#54A84E"/>
    <path d="M52.6579 60.9439H46.9572V66.6488H52.6579V60.9439Z" fill="#54A84E"/>
    <path d="M52.5793 61.0236H47.0369V66.4908H52.5793V61.0236Z" fill="#54A84E"/>
    <path d="M47.1151 71.9581H41.4143V77.663H47.1151V71.9581Z" fill="#54A84E"/>
    <path d="M64.3484 22.6286H58.8059V28.175H64.3484V22.6286Z" fill="#3D041F"/>
    <path d="M92.3323 22.6286H86.6315V28.3335H92.3323V22.6286Z" fill="#66667C"/>
    <path d="M71.2266 26.1093H65.7633V31.6557H71.2266V26.1093Z" fill="#FFE4CE"/>
    <path d="M52.5793 72.037H47.0369V77.5834H52.5793V72.037Z" fill="#54A84E"/>
    <path d="M140.863 230.625H135.162V236.33H140.863V230.625Z" fill="#382A4C"/>
    <path d="M135.321 230.625H129.62V236.33H135.321V230.625Z" fill="#382A4C"/>
    <path d="M135.321 225.078H129.62V230.783H135.321V225.078Z" fill="white"/>
    <path d="M135.321 219.612H129.62V225.316H135.321V219.612Z" fill="white"/>
    <path d="M129.857 230.625H124.156V236.33H129.857V230.625Z" fill="#382A4C"/>
    <path d="M129.857 225.078H124.156V230.783H129.857V225.078Z" fill="white"/>
    <path d="M129.857 219.612H124.157V225.316H129.857V219.612Z" fill="#E7E0D4"/>
    <path d="M124.236 230.704H118.693V236.25H124.236V230.704Z" fill="#382A4C"/>
    <path d="M124.315 225.078H118.614V230.783H124.315V225.078Z" fill="#E7E0D4"/>
    <path d="M124.315 219.612H118.614V225.316H124.315V219.612Z" fill="#F39200"/>
    <path d="M124.315 208.598H118.614V214.303H124.315V208.598Z" fill="#F39200"/>
    <path d="M118.772 230.625H113.071V236.33H118.772V230.625Z" fill="#382A4C"/>
    <path d="M118.772 225.078H113.071V230.783H118.772V225.078Z" fill="#F39200"/>
    <path d="M118.773 219.612H113.072V225.316H118.773V219.612Z" fill="#F39200"/>
    <path d="M118.773 214.065H113.072V219.77H118.773V214.065Z" fill="#F39200"/>
    <path d="M118.773 208.598H113.072V214.302H118.773V208.598Z" fill="#E17346"/>
    <path d="M118.773 203.051H113.072V208.756H118.773V203.051Z" fill="#1D71B8"/>
    <path d="M118.773 197.584H113.072V203.289H118.773V197.584Z" fill="#1D71B8"/>
    <path d="M118.772 192.038H113.071V197.743H118.772V192.038Z" fill="#1D71B8"/>
    <path d="M118.772 186.491H113.071V192.196H118.772V186.491Z" fill="#1D71B8"/>
    <path d="M117.844 162.87L112.566 164.079L113.42 167.816L118.698 166.608L117.844 162.87Z" fill="#1D71B8"/>
    <path d="M118.773 166.519H113.072V186.729H118.773V166.519Z" fill="#1D71B8"/>
    <path d="M113.309 230.625H107.608V236.33H113.309V230.625Z" fill="#382A4C"/>
    <path d="M113.309 225.078H107.608V230.783H113.309V225.078Z" fill="#F39200"/>
    <path d="M113.309 219.612H107.608V225.316H113.309V219.612Z" fill="#F39200"/>
    <path d="M113.309 214.065H107.608V219.77H113.309V214.065Z" fill="#F39200"/>
    <path d="M113.309 208.598H107.608V214.302H113.309V208.598Z" fill="#1D71B8"/>
    <path d="M113.309 203.051H107.608V208.756H113.309V203.051Z" fill="#1D71B8"/>
    <path d="M113.309 197.584H107.608V203.289H113.309V197.584Z" fill="#1D71B8"/>
    <path d="M113.309 192.037H107.608V197.742H113.309V192.037Z" fill="#1D71B8"/>
    <path d="M113.309 186.491H107.608V192.196H113.309V186.491Z" fill="#1D71B8"/>
    <path d="M113.308 165.04H107.607V186.729H113.308V165.04Z" fill="#1D71B8"/>
    <path d="M107.766 230.625H102.065V236.33H107.766V230.625Z" fill="#26031F"/>
    <path d="M107.766 225.078H102.065V230.783H107.766V225.078Z" fill="#E17346"/>
    <path d="M107.688 219.691H102.146V225.238H107.688V219.691Z" fill="#E17346"/>
    <path d="M107.766 214.065H102.065V219.77H107.766V214.065Z" fill="#E17346"/>
    <path d="M107.766 208.598H102.065V214.302H107.766V208.598Z" fill="#105E7C"/>
    <path d="M107.766 203.051H102.065V208.756H107.766V203.051Z" fill="#105E7C"/>
    <path d="M107.766 197.584H102.065V203.289H107.766V197.584Z" fill="#105E7C"/>
    <path d="M107.766 192.037H102.065V197.742H107.766V192.037Z" fill="#105E7C"/>
    <path d="M107.766 186.491H102.065V192.196H107.766V186.491Z" fill="#105E7C"/>
    <path d="M107.709 166.071H102.077V187.075H107.709V166.071Z" fill="#105E7C"/>
    <path d="M115.64 158.149L110.466 160.543L112.858 165.721L118.033 163.327L115.64 158.149Z" fill="#1D71B8"/>
    <path d="M115.602 158.254L110.643 160.548L112.936 165.511L117.895 163.216L115.602 158.254Z" fill="#1D71B8"/>
    <path d="M113.348 153.186L108.174 155.58L110.566 160.759L115.741 158.365L113.348 153.186Z" fill="#1D71B8"/>
    <path d="M113.309 153.292L108.35 155.586L110.676 160.621L115.635 158.326L113.309 153.292Z" fill="#1D71B8"/>
    <path d="M111.022 148.152L105.847 150.546L108.24 155.725L113.414 153.33L111.022 148.152Z" fill="#1D71B8"/>
    <path d="M110.984 148.258L106.025 150.552L108.351 155.586L113.309 153.292L110.984 148.258Z" fill="#1D71B8"/>
    <path d="M108.729 143.189L103.555 145.584L105.947 150.762L111.122 148.368L108.729 143.189Z" fill="#1D71B8"/>
    <path d="M108.69 143.295L103.731 145.589L106.057 150.624L111.016 148.329L108.69 143.295Z" fill="#1D71B8"/>
    <path d="M106.403 138.155L101.229 140.549L103.621 145.728L108.796 143.334L106.403 138.155Z" fill="#1D71B8"/>
    <path d="M106.365 138.26L101.406 140.555L103.698 145.517L108.657 143.223L106.365 138.26Z" fill="#1D71B8"/>
    <path d="M104.111 133.193L98.9362 135.587L101.329 140.765L106.503 138.371L104.111 133.193Z" fill="#1D71B8"/>
    <path d="M104.072 133.298L99.1129 135.592L101.439 140.627L106.398 138.333L104.072 133.298Z" fill="#1D71B8"/>
    <path d="M101.784 128.158L96.6097 130.552L99.0021 135.73L104.177 133.336L101.784 128.158Z" fill="#1D71B8"/>
    <path d="M101.746 128.263L96.787 130.558L99.1129 135.592L104.072 133.298L101.746 128.263Z" fill="#1D71B8"/>
    <path d="M99.4924 123.196L94.3179 125.59L96.7103 130.768L101.885 128.374L99.4924 123.196Z" fill="#105E7C"/>
    <path d="M99.4535 123.301L94.4946 125.596L96.8206 130.63L101.779 128.336L99.4535 123.301Z" fill="#105E7C"/>
    <path d="M110.682 160.443L105.507 162.837L107.9 168.015L113.074 165.621L110.682 160.443Z" fill="#1D71B8"/>
    <path d="M110.643 160.549L105.613 162.876L107.905 167.839L112.936 165.511L110.643 160.549Z" fill="#1D71B8"/>
    <path d="M108.389 155.481L103.215 157.875L105.607 163.053L110.782 160.659L108.389 155.481Z" fill="#1D71B8"/>
    <path d="M108.351 155.586L103.32 157.914L105.646 162.948L110.677 160.62L108.351 155.586Z" fill="#1D71B8"/>
    <path d="M106.063 150.446L100.888 152.841L103.281 158.019L108.455 155.625L106.063 150.446Z" fill="#1D71B8"/>
    <path d="M106.025 150.552L100.994 152.88L103.32 157.914L108.351 155.586L106.025 150.552Z" fill="#1D71B8"/>
    <path d="M103.771 145.484L98.5964 147.878L100.989 153.056L106.163 150.662L103.771 145.484Z" fill="#1D71B8"/>
    <path d="M103.731 145.589L98.7007 147.917L101.027 152.951L106.057 150.624L103.731 145.589Z" fill="#1D71B8"/>
    <path d="M101.444 140.45L96.2697 142.844L98.662 148.022L103.837 145.628L101.444 140.45Z" fill="#1D71B8"/>
    <path d="M101.406 140.554L96.3751 142.882L98.6678 147.844L103.699 145.517L101.406 140.554Z" fill="#1D71B8"/>
    <path d="M99.1525 135.487L93.978 137.881L96.3704 143.059L101.545 140.665L99.1525 135.487Z" fill="#1D71B8"/>
    <path d="M99.1132 135.592L94.0824 137.92L96.4083 142.954L101.439 140.627L99.1132 135.592Z" fill="#1D71B8"/>
    <path d="M96.8259 130.452L91.6514 132.846L94.0438 138.024L99.2183 135.63L96.8259 130.452Z" fill="#1D71B8"/>
    <path d="M96.7874 130.557L91.7566 132.885L94.0825 137.919L99.1133 135.592L96.7874 130.557Z" fill="#1D71B8"/>
    <path d="M94.5332 125.49L89.3586 127.884L91.751 133.062L96.9255 130.668L94.5332 125.49Z" fill="#1D71B8"/>
    <path d="M94.4948 125.595L89.464 127.922L91.7899 132.957L96.8207 130.629L94.4948 125.595Z" fill="#1D71B8"/>
    <path d="M92.2074 120.456L87.0328 122.85L89.4252 128.028L94.5997 125.634L92.2074 120.456Z" fill="#1D71B8"/>
    <path d="M92.169 120.561L87.1382 122.888L89.4309 127.851L94.4617 125.523L92.169 120.561Z" fill="#1D71B8"/>
    <path d="M105.651 162.771L100.476 165.165L102.868 170.343L108.043 167.949L105.651 162.771Z" fill="#105E7C"/>
    <path d="M103.359 157.808L98.1842 160.202L100.577 165.38L105.751 162.986L103.359 157.808Z" fill="#105E7C"/>
    <path d="M103.32 157.913L98.2897 160.24L100.616 165.275L105.646 162.947L103.32 157.913Z" fill="#105E7C"/>
    <path d="M101.032 152.774L95.8575 155.168L98.2499 160.346L103.424 157.952L101.032 152.774Z" fill="#105E7C"/>
    <path d="M100.995 152.879L95.9639 155.206L98.2898 160.241L103.321 157.913L100.995 152.879Z" fill="#105E7C"/>
    <path d="M98.7396 147.811L93.5651 150.205L95.9574 155.383L101.132 152.989L98.7396 147.811Z" fill="#105E7C"/>
    <path d="M98.7011 147.916L93.6703 150.243L95.9962 155.278L101.027 152.95L98.7011 147.916Z" fill="#105E7C"/>
    <path d="M96.4138 142.777L91.2393 145.171L93.6316 150.349L98.8062 147.955L96.4138 142.777Z" fill="#105E7C"/>
    <path d="M96.3753 142.882L91.3445 145.209L93.6372 150.172L98.668 147.844L96.3753 142.882Z" fill="#105E7C"/>
    <path d="M94.1212 137.814L88.9467 140.208L91.339 145.387L96.5136 142.993L94.1212 137.814Z" fill="#105E7C"/>
    <path d="M91.7945 132.78L86.62 135.174L89.0124 140.353L94.1869 137.958L91.7945 132.78Z" fill="#1D71B8"/>
    <path d="M91.757 132.885L86.7262 135.213L89.0521 140.247L94.0829 137.919L91.757 132.885Z" fill="#1D71B8"/>
    <path d="M89.5028 127.817L84.3282 130.212L86.7206 135.39L91.8951 132.996L89.5028 127.817Z" fill="#1D71B8"/>
    <path d="M89.4644 127.922L84.4336 130.25L86.7595 135.284L91.7903 132.957L89.4644 127.922Z" fill="#1D71B8"/>
    <path d="M87.177 122.783L82.0024 125.177L84.3948 130.356L89.5693 127.962L87.177 122.783Z" fill="#1D71B8"/>
    <path d="M87.1384 122.888L82.1077 125.216L84.4004 130.178L89.4311 127.85L87.1384 122.888Z" fill="#1D71B8"/>
    <path d="M84.8498 117.747L79.6758 120.143L82.0672 125.321L87.2412 122.926L84.8498 117.747Z" fill="#54A84E"/>
    <path d="M91.2204 131.722L86.1896 134.05L91.3787 145.282L96.4094 142.954L91.2204 131.722Z" fill="#105E7C"/>
    <path d="M69.0679 160.97L64.2345 157.945L61.2118 162.782L66.0452 165.807L69.0679 160.97Z" fill="#1D71B8"/>
    <path d="M68.9585 160.996L64.3264 158.097L59.0217 166.586L63.6537 169.484L68.9585 160.996Z" fill="#1D71B8"/>
    <path d="M71.9643 156.335L67.1309 153.31L64.1081 158.147L68.9415 161.172L71.9643 156.335Z" fill="#1D71B8"/>
    <path d="M71.8554 156.36L67.2234 153.461L64.2846 158.164L68.9166 161.063L71.8554 156.36Z" fill="#1D71B8"/>
    <path d="M74.9034 151.632L70.0699 148.607L67.0472 153.444L71.8806 156.469L74.9034 151.632Z" fill="#1D71B8"/>
    <path d="M74.794 151.658L70.162 148.759L67.2232 153.462L71.8552 156.36L74.794 151.658Z" fill="#1D71B8"/>
    <path d="M77.7996 146.997L72.9662 143.972L69.9434 148.809L74.7769 151.834L77.7996 146.997Z" fill="#1D71B8"/>
    <path d="M77.6911 147.022L73.0591 144.123L70.1203 148.826L74.7523 151.725L77.6911 147.022Z" fill="#1D71B8"/>
    <path d="M80.7382 142.295L75.9048 139.27L72.882 144.107L77.7155 147.132L80.7382 142.295Z" fill="#1D71B8"/>
    <path d="M80.6297 142.319L75.9977 139.42L73.1009 144.056L77.7329 146.954L80.6297 142.319Z" fill="#1D71B8"/>
    <path d="M83.6353 137.659L78.8019 134.634L75.7791 139.471L80.6126 142.496L83.6353 137.659Z" fill="#1D71B8"/>
    <path d="M83.5258 137.684L78.8938 134.785L75.955 139.488L80.5871 142.387L83.5258 137.684Z" fill="#1D71B8"/>
    <path d="M86.5746 132.956L81.7412 129.931L78.7185 134.768L83.5519 137.793L86.5746 132.956Z" fill="#1D71B8"/>
    <path d="M86.4654 132.982L81.8334 130.083L78.8946 134.786L83.5266 137.684L86.4654 132.982Z" fill="#1D71B8"/>
    <path d="M89.471 128.321L84.6376 125.296L81.6148 130.133L86.4483 133.158L89.471 128.321Z" fill="#105E7C"/>
    <path d="M89.3623 128.346L84.7302 125.447L81.7914 130.15L86.4235 133.049L89.3623 128.346Z" fill="#105E7C"/>
    <path d="M92.4102 123.619L87.5768 120.594L84.554 125.431L89.3875 128.456L92.4102 123.619Z" fill="#105E7C"/>
    <path d="M92.3009 123.644L87.6688 120.745L84.772 125.38L89.4041 128.279L92.3009 123.644Z" fill="#105E7C"/>
    <path d="M64.4362 158.071L59.6028 155.046L56.58 159.883L61.4135 162.908L64.4362 158.071Z" fill="#1D71B8"/>
    <path d="M64.3269 158.097L59.6277 155.157L53.4172 165.094L58.1163 168.035L64.3269 158.097Z" fill="#1D71B8"/>
    <path d="M67.3325 153.436L62.499 150.411L59.4763 155.248L64.3097 158.273L67.3325 153.436Z" fill="#1D71B8"/>
    <path d="M67.2238 153.462L62.5247 150.521L59.5859 155.223L64.285 158.164L67.2238 153.462Z" fill="#1D71B8"/>
    <path d="M70.2709 148.733L65.4375 145.708L62.4148 150.545L67.2482 153.57L70.2709 148.733Z" fill="#1D71B8"/>
    <path d="M70.1624 148.759L65.4633 145.818L62.5245 150.521L67.2236 153.462L70.1624 148.759Z" fill="#1D71B8"/>
    <path d="M73.168 144.098L68.3346 141.073L65.3118 145.91L70.1453 148.935L73.168 144.098Z" fill="#1D71B8"/>
    <path d="M73.0587 144.124L68.3595 141.183L65.4207 145.885L70.1199 148.826L73.0587 144.124Z" fill="#1D71B8"/>
    <path d="M76.1065 139.396L71.2731 136.371L68.2503 141.208L73.0838 144.233L76.1065 139.396Z" fill="#1D71B8"/>
    <path d="M75.998 139.421L71.2988 136.48L68.402 141.115L73.1012 144.056L75.998 139.421Z" fill="#1D71B8"/>
    <path d="M79.0036 134.761L74.1702 131.736L71.1474 136.573L75.9809 139.598L79.0036 134.761Z" fill="#1D71B8"/>
    <path d="M78.8942 134.785L74.1951 131.845L71.2563 136.547L75.9555 139.488L78.8942 134.785Z" fill="#1D71B8"/>
    <path d="M81.9431 130.057L77.1096 127.032L74.0869 131.869L78.9203 134.894L81.9431 130.057Z" fill="#1D71B8"/>
    <path d="M81.8336 130.083L77.1344 127.142L74.1956 131.845L78.8948 134.786L81.8336 130.083Z" fill="#1D71B8"/>
    <path d="M84.8392 125.423L80.0057 122.398L76.983 127.235L81.8164 130.26L84.8392 125.423Z" fill="#1D71B8"/>
    <path d="M84.7305 125.448L80.0314 122.507L77.0926 127.209L81.7918 130.15L84.7305 125.448Z" fill="#1D71B8"/>
    <path d="M87.7786 120.72L82.9452 117.695L79.9224 122.532L84.7559 125.557L87.7786 120.72Z" fill="#1D71B8"/>
    <path d="M87.762 120.711L83.0629 117.77L80.1661 122.406L84.8652 125.347L87.762 120.711Z" fill="#54A84E"/>
    <path d="M59.7355 155.13L54.9021 152.105L50.1543 159.703L54.9877 162.728L59.7355 155.13Z" fill="#105E7C"/>
    <path d="M62.6336 150.495L57.8002 147.47L54.7774 152.307L59.6109 155.332L62.6336 150.495Z" fill="#105E7C"/>
    <path d="M62.525 150.52L57.8258 147.579L54.887 152.282L59.5862 155.223L62.525 150.52Z" fill="#105E7C"/>
    <path d="M65.5713 145.792L60.7379 142.767L57.7152 147.604L62.5486 150.629L65.5713 145.792Z" fill="#105E7C"/>
    <path d="M65.4637 145.819L60.7645 142.878L57.8257 147.58L62.5249 150.521L65.4637 145.819Z" fill="#105E7C"/>
    <path d="M68.4692 141.157L63.6357 138.132L60.613 142.969L65.4464 145.994L68.4692 141.157Z" fill="#105E7C"/>
    <path d="M68.3598 141.182L63.6606 138.241L60.7219 142.944L65.421 145.885L68.3598 141.182Z" fill="#105E7C"/>
    <path d="M71.4077 136.455L66.5742 133.43L63.5515 138.267L68.3849 141.292L71.4077 136.455Z" fill="#105E7C"/>
    <path d="M71.2991 136.48L66.6 133.539L63.7032 138.174L68.4024 141.115L71.2991 136.48Z" fill="#105E7C"/>
    <path d="M74.3049 131.819L69.4714 128.794L66.4487 133.631L71.2821 136.656L74.3049 131.819Z" fill="#105E7C"/>
    <path d="M74.1962 131.845L69.4971 128.904L66.5583 133.607L71.2575 136.547L74.1962 131.845Z" fill="#105E7C"/>
    <path d="M77.2435 127.116L72.41 124.091L69.3873 128.928L74.2207 131.953L77.2435 127.116Z" fill="#1D71B8"/>
    <path d="M77.1347 127.142L72.4355 124.201L69.4968 128.904L74.1959 131.844L77.1347 127.142Z" fill="#1D71B8"/>
    <path d="M80.1396 122.481L75.3062 119.456L72.2834 124.293L77.1168 127.318L80.1396 122.481Z" fill="#1D71B8"/>
    <path d="M80.0318 122.507L75.3326 119.566L72.3939 124.268L77.093 127.209L80.0318 122.507Z" fill="#1D71B8"/>
    <path d="M83.0789 117.779L78.2455 114.754L75.2227 119.591L80.0562 122.616L83.0789 117.779Z" fill="#1D71B8"/>
    <path d="M83.0632 117.771L78.364 114.83L75.4672 119.465L80.1664 122.406L83.0632 117.771Z" fill="#54A84E"/>
    <path d="M71.8556 129.091L66.3131 129.091L66.3131 134.558L71.8556 134.558L71.8556 129.091Z" fill="#105E7C"/>
    <path d="M17.5446 206.506L15.8954 201.045L10.4384 202.695L12.0876 208.156L17.5446 206.506Z" fill="#382A4C"/>
    <path d="M15.9409 201.196L14.2916 195.735L8.8346 197.386L10.4839 202.847L15.9409 201.196Z" fill="#382A4C"/>
    <path d="M21.2474 199.592L19.5981 194.131L14.1411 195.781L15.7904 201.242L21.2474 199.592Z" fill="white"/>
    <path d="M26.476 198.01L24.8268 192.549L19.3698 194.2L21.019 199.661L26.476 198.01Z" fill="white"/>
    <path d="M14.3606 195.963L12.7113 190.502L7.25428 192.153L8.90354 197.614L14.3606 195.963Z" fill="#382A4C"/>
    <path d="M19.6664 194.358L18.0171 188.897L12.5601 190.548L14.2093 196.009L19.6664 194.358Z" fill="white"/>
    <path d="M24.8958 192.777L23.2466 187.316L17.7896 188.966L19.4388 194.427L24.8958 192.777Z" fill="#E7E0D4"/>
    <path d="M12.6589 190.601L11.0554 185.291L5.74999 186.896L7.35344 192.205L12.6589 190.601Z" fill="#382A4C"/>
    <path d="M18.0628 189.049L16.4136 183.588L10.9565 185.238L12.6058 190.699L18.0628 189.049Z" fill="#E7E0D4"/>
    <path d="M23.2923 187.467L21.6431 182.006L16.1861 183.657L17.8353 189.118L23.2923 187.467Z" fill="#F39200"/>
    <path d="M33.8276 184.281L32.1783 178.82L26.7213 180.471L28.3706 185.931L33.8276 184.281Z" fill="#F39200"/>
    <path d="M11.1534 185.344L9.50415 179.883L4.04713 181.533L5.69639 186.994L11.1534 185.344Z" fill="#382A4C"/>
    <path d="M16.4599 183.739L14.8107 178.278L9.35364 179.929L11.0029 185.39L16.4599 183.739Z" fill="#F39200"/>
    <path d="M21.6888 182.159L20.0396 176.698L14.5825 178.348L16.2318 183.809L21.6888 182.159Z" fill="#F39200"/>
    <path d="M26.9945 180.554L25.3452 175.093L19.8882 176.743L21.5375 182.204L26.9945 180.554Z" fill="#F39200"/>
    <path d="M32.224 178.972L30.5747 173.511L25.1177 175.162L26.767 180.623L32.224 178.972Z" fill="#E17346"/>
    <path d="M37.5298 177.368L35.8805 171.907L30.4235 173.557L32.0728 179.018L37.5298 177.368Z" fill="#1D71B8"/>
    <path d="M42.7591 175.785L41.1099 170.324L35.6528 171.975L37.3021 177.436L42.7591 175.785Z" fill="#1D71B8"/>
    <path d="M48.0641 174.181L46.4148 168.72L40.9578 170.37L42.607 175.831L48.0641 174.181Z" fill="#1D71B8"/>
    <path d="M53.3698 172.576L51.7206 167.115L46.2636 168.765L47.9128 174.226L53.3698 172.576Z" fill="#1D71B8"/>
    <path d="M58.5995 170.994L56.9502 165.533L51.4932 167.184L53.1424 172.645L58.5995 170.994Z" fill="#1D71B8"/>
    <path d="M63.5935 169.428L61.9442 163.967L56.2975 165.675L57.9468 171.136L63.5935 169.428Z" fill="#1D71B8"/>
    <path d="M9.57297 180.111L7.92371 174.65L2.46668 176.3L4.11594 181.761L9.57297 180.111Z" fill="#382A4C"/>
    <path d="M14.8788 178.506L13.2295 173.045L7.77247 174.696L9.42173 180.156L14.8788 178.506Z" fill="#F39200"/>
    <path d="M20.1084 176.925L18.4591 171.464L13.0021 173.114L14.6514 178.575L20.1084 176.925Z" fill="#F39200"/>
    <path d="M25.414 175.32L23.7648 169.859L18.3078 171.509L19.957 176.97L25.414 175.32Z" fill="#F39200"/>
    <path d="M30.6435 173.738L28.9943 168.277L23.5373 169.928L25.1865 175.389L30.6435 173.738Z" fill="#1D71B8"/>
    <path d="M35.9486 172.134L34.2993 166.673L28.8423 168.324L30.4916 173.785L35.9486 172.134Z" fill="#1D71B8"/>
    <path d="M41.1788 170.552L39.5295 165.091L34.0725 166.741L35.7218 172.202L41.1788 170.552Z" fill="#1D71B8"/>
    <path d="M46.4839 168.948L44.8346 163.487L39.3776 165.138L41.0268 170.599L46.4839 168.948Z" fill="#1D71B8"/>
    <path d="M51.7895 167.343L50.1403 161.882L44.6832 163.533L46.3325 168.994L51.7895 167.343Z" fill="#1D71B8"/>
    <path d="M60.3523 164.753L58.703 159.292L49.9123 161.951L51.5616 167.412L60.3523 164.753Z" fill="#1D71B8"/>
    <path d="M7.96945 174.802L6.32019 169.341L0.863165 170.991L2.51243 176.452L7.96945 174.802Z" fill="#26031F"/>
    <path d="M13.2754 173.197L11.6261 167.736L6.16907 169.387L7.81834 174.848L13.2754 173.197Z" fill="#E17346"/>
    <path d="M18.4058 171.563L16.8024 166.254L11.4969 167.858L13.1004 173.167L18.4058 171.563Z" fill="#E17346"/>
    <path d="M23.8105 170.011L22.1613 164.55L16.7043 166.201L18.3535 171.661L23.8105 170.011Z" fill="#E17346"/>
    <path d="M29.04 168.429L27.3907 162.968L21.9337 164.618L23.583 170.079L29.04 168.429Z" fill="#105E7C"/>
    <path d="M34.3449 166.825L32.6957 161.364L27.2387 163.014L28.8879 168.475L34.3449 166.825Z" fill="#105E7C"/>
    <path d="M39.5752 165.242L37.9259 159.781L32.4689 161.432L34.1181 166.893L39.5752 165.242Z" fill="#105E7C"/>
    <path d="M44.88 163.638L43.2307 158.178L37.7737 159.828L39.4229 165.289L44.88 163.638Z" fill="#105E7C"/>
    <path d="M55.4386 160.444L53.7893 154.983L43.0792 158.222L44.7285 163.683L55.4386 160.444Z" fill="#105E7C"/>
    <path d="M102.065 120.089H93.0551V123.569H102.065V120.089Z" fill="#105E7C"/>
    <path d="M93.0551 120.089H83.9142V123.569H93.0551V120.089Z" fill="#105E7C"/>
    <path d="M83.9142 120.089H74.7747V123.569H83.9142V120.089Z" fill="#105E7C"/>
    <path d="M74.9041 120.089H65.7633V123.569H74.9041V120.089Z" fill="#105E7C"/>
    <path d="M102.065 123.569H93.1912V134.012H102.065V123.569Z" fill="#1D71B8"/>
    <path d="M93.1912 123.569H84.1889V134.012H93.1912V123.569Z" fill="#1D71B8"/>
    <path d="M84.1889 123.569H75.1879V134.012H84.1889V123.569Z" fill="#1D71B8"/>
    <path d="M75.3153 123.569H66.3131V134.012H75.3153V123.569Z" fill="#1D71B8"/>
    <path d="M72.8582 123.556L66.1349 123.556L66.1349 134.011L72.8582 134.011L72.8582 123.556Z" fill="#105E7C"/>
    <path d="M69.0481 72.1166H63.5056V88.5174H69.0481V72.1166Z" fill="#376732"/>
    <path d="M69.0481 85.8216H63.5056V99.6108H69.0481V85.8216Z" fill="#376732"/>
    <path d="M67.1308 72.0659H57.8838V77.6123H67.1308V72.0659Z" fill="#376732"/>
    <path d="M68.9689 66.6485H63.5056V72.1949H68.9689V66.6485Z" fill="#376732"/>
    <path d="M51.5507 94.9825L47.6316 98.9044L56.3636 107.643L60.2827 103.721L51.5507 94.9825Z" fill="#F57E77"/>
    <path d="M78.3096 114.03L74.4465 117.896L78.3096 121.762L82.1728 117.896L78.3096 114.03Z" fill="#FFE4CE"/>
    <path d="M74.4473 110.163L70.5842 114.029L74.5033 117.951L78.3664 114.085L74.4473 110.163Z" fill="#FFE4CE"/>
    <path d="M70.528 106.242L66.6649 110.108L70.584 114.03L74.4471 110.164L70.528 106.242Z" fill="#FFE4CE"/>
    <path d="M65.5256 101.235L61.6625 105.101L66.7212 110.163L70.5843 106.297L65.5256 101.235Z" fill="#FFE4CE"/>
    <path d="M62.7464 98.4537L58.8833 102.32L62.7464 106.185L66.6095 102.32L62.7464 98.4537Z" fill="#FFE4CE"/>
    <path d="M55.1668 91.1071H50.7168V96.5743H55.1668V91.1071Z" fill="#FFE4CE"/>
    <path d="M54.6977 90.401L50.8346 94.2668L58.938 102.376L62.8011 98.5102L54.6977 90.401Z" fill="#FFE4CE"/>
    <path d="M74.4469 117.895L70.5278 121.817L74.3909 125.683L78.31 121.761L74.4469 117.895Z" fill="#FFE4CE"/>
    <path d="M70.584 114.029L66.6649 117.951L70.584 121.873L74.5031 117.951L70.584 114.029Z" fill="#FFE4CE"/>
    <path d="M66.6647 110.107L62.7456 114.029L66.6647 117.951L70.5838 114.029L66.6647 110.107Z" fill="#FFE4CE"/>
    <path d="M61.6822 105.121L57.7631 109.043L62.8018 114.085L66.7209 110.163L61.6822 105.121Z" fill="#F57E77"/>
    <path d="M58.883 102.32L54.9639 106.242L58.827 110.108L62.7461 106.186L58.883 102.32Z" fill="#F57E77"/>
    <path d="M44.8944 92.2425L44.8944 99.2039L53.1335 99.2039L53.1335 92.2425L44.8944 92.2425Z" fill="#F57E77"/>
    <path d="M48.3728 92.2432L48.3728 96.5753L53.1337 96.5753L53.1337 92.2432L48.3728 92.2432Z" fill="#FFE4CE"/>
    <path d="M48.3728 88.7633L48.3728 92.2431L51.8501 92.2431L51.8501 88.7633L48.3728 88.7633Z" fill="#FFE4CE"/>
    <path d="M48.3728 85.2825L48.3728 88.7623L51.8501 88.7623L51.8501 85.2825L48.3728 85.2825Z" fill="#FFE4CE"/>
    <path d="M48.3728 81.8017L48.3728 85.2815L51.8501 85.2815L51.8501 81.8017L48.3728 81.8017Z" fill="#FFE4CE"/>
    <path d="M66.7209 117.895L62.8018 121.817L66.7209 125.739L70.64 121.817L66.7209 117.895Z" fill="#FFE4CE"/>
    <path d="M62.8024 113.974L58.8833 117.896L62.8024 121.818L66.7215 117.896L62.8024 113.974Z" fill="#F57E77"/>
    <path d="M48.3728 74.8392L48.3728 81.8006L51.851 81.8006L51.851 74.8392L48.3728 74.8392Z" fill="#FFE4CE"/>
    <path d="M91.1379 39.0759H74.4314V44.305H91.1379V39.0759Z" fill="#FFE4CE"/>
    <path d="M90.9802 44.622H74.1328V50.7791H90.9802V44.622Z" fill="#F57E77"/>
    <path d="M79.6753 39.0759H74.1328V44.6223H79.6753V39.0759Z" fill="#F57E77"/>
    <path d="M57.9633 72.037H45.827V77.5834H57.9633V72.037Z" fill="#54A84E"/>
</svg>
