<svg width="121" height="235" viewBox="0 0 121 235" fill="none" xmlns="http://www.w3.org/2000/svg">
    <path d="M92.6977 223.632L87.5468 221.197L85.1171 226.359L90.268 228.794L92.6977 223.632Z" fill="#382A4C"/>
    <path d="M87.6902 221.264L82.5393 218.829L80.1097 223.992L85.2606 226.427L87.6902 221.264Z" fill="#382A4C"/>
    <path d="M90.0526 216.245L84.9017 213.81L82.4721 218.972L87.623 221.407L90.0526 216.245Z" fill="white"/>
    <path d="M92.3806 211.299L87.2297 208.864L84.8001 214.026L89.951 216.461L92.3806 211.299Z" fill="white"/>
    <path d="M82.7531 218.93L77.6022 216.495L75.1726 221.658L80.3235 224.093L82.7531 218.93Z" fill="#382A4C"/>
    <path d="M85.1155 213.911L79.9646 211.476L77.535 216.638L82.6859 219.073L85.1155 213.911Z" fill="white"/>
    <path d="M87.4442 208.965L82.2933 206.53L79.8637 211.692L85.0146 214.127L87.4442 208.965Z" fill="#E7E0D4"/>
    <path d="M77.6409 216.601L72.6331 214.234L70.2709 219.252L75.2788 221.62L77.6409 216.601Z" fill="#382A4C"/>
    <path d="M80.1081 211.544L74.9572 209.109L72.5275 214.271L77.6784 216.706L80.1081 211.544Z" fill="#E7E0D4"/>
    <path d="M82.4361 206.597L77.2852 204.162L74.8555 209.325L80.0064 211.76L82.4361 206.597Z" fill="#F39200"/>
    <path d="M87.1265 196.632L81.9756 194.197L79.546 199.359L84.6969 201.794L87.1265 196.632Z" fill="#F39200"/>
    <path d="M72.7374 214.196L67.5865 211.761L65.1569 216.923L70.3078 219.358L72.7374 214.196Z" fill="#382A4C"/>
    <path d="M75.0998 209.176L69.9489 206.741L67.5192 211.904L72.6701 214.339L75.0998 209.176Z" fill="#F39200"/>
    <path d="M77.4287 204.23L72.2778 201.795L69.8482 206.958L74.9991 209.393L77.4287 204.23Z" fill="#F39200"/>
    <path d="M79.791 199.211L74.6401 196.776L72.2105 201.938L77.3614 204.373L79.791 199.211Z" fill="#F39200"/>
    <path d="M82.1194 194.264L76.9685 191.829L74.5389 196.991L79.6898 199.426L82.1194 194.264Z" fill="#E17346"/>
    <path d="M84.4812 189.245L79.3303 186.81L76.9007 191.972L82.0516 194.407L84.4812 189.245Z" fill="#1D71B8"/>
    <path d="M86.8097 184.298L81.6588 181.863L79.2292 187.025L84.3801 189.46L86.8097 184.298Z" fill="#1D71B8"/>
    <path d="M89.1709 179.279L84.02 176.844L81.5904 182.006L86.7413 184.441L89.1709 179.279Z" fill="#1D71B8"/>
    <path d="M91.5332 174.26L86.3823 171.825L83.9527 176.987L89.1036 179.422L91.5332 174.26Z" fill="#1D71B8"/>
    <path d="M96.8704 162.922L91.7195 160.487L86.2819 172.04L91.4328 174.475L96.8704 162.922Z" fill="#1D71B8"/>
    <path d="M67.8018 211.863L62.6509 209.428L60.2213 214.59L65.3722 217.025L67.8018 211.863Z" fill="#382A4C"/>
    <path d="M70.1642 206.843L65.0133 204.408L62.5837 209.57L67.7346 212.005L70.1642 206.843Z" fill="#F39200"/>
    <path d="M72.4922 201.897L67.3413 199.462L64.9117 204.624L70.0626 207.059L72.4922 201.897Z" fill="#F39200"/>
    <path d="M74.8546 196.877L69.7037 194.442L67.2741 199.605L72.425 202.04L74.8546 196.877Z" fill="#F39200"/>
    <path d="M77.183 191.93L72.0321 189.495L69.6025 194.657L74.7534 197.092L77.183 191.93Z" fill="#1D71B8"/>
    <path d="M79.5449 186.912L74.394 184.477L71.9644 189.639L77.1153 192.074L79.5449 186.912Z" fill="#1D71B8"/>
    <path d="M81.8734 181.964L76.7225 179.529L74.2929 184.692L79.4438 187.127L81.8734 181.964Z" fill="#1D71B8"/>
    <path d="M84.2356 176.945L79.0847 174.51L76.6551 179.672L81.806 182.107L84.2356 176.945Z" fill="#1D71B8"/>
    <path d="M86.5976 171.926L81.4467 169.491L79.017 174.654L84.1679 177.089L86.5976 171.926Z" fill="#1D71B8"/>
    <path d="M92.9765 158.371L87.8256 155.936L81.3446 169.706L86.4955 172.141L92.9765 158.371Z" fill="#1D71B8"/>
    <path d="M62.7935 209.495L57.6426 207.06L55.213 212.222L60.3639 214.657L62.7935 209.495Z" fill="#26031F"/>
    <path d="M65.1559 204.476L60.005 202.041L57.5754 207.203L62.7263 209.638L65.1559 204.476Z" fill="#E17346"/>
    <path d="M67.3796 199.568L62.3718 197.201L60.0097 202.219L65.0175 204.587L67.3796 199.568Z" fill="#E17346"/>
    <path d="M69.8462 194.51L64.6953 192.075L62.2657 197.237L67.4166 199.672L69.8462 194.51Z" fill="#E17346"/>
    <path d="M72.1746 189.563L67.0237 187.128L64.5941 192.29L69.745 194.725L72.1746 189.563Z" fill="#105E7C"/>
    <path d="M74.5366 184.544L69.3857 182.109L66.9561 187.271L72.107 189.706L74.5366 184.544Z" fill="#105E7C"/>
    <path d="M76.865 179.597L71.7141 177.162L69.2845 182.324L74.4354 184.759L76.865 179.597Z" fill="#105E7C"/>
    <path d="M79.2273 174.577L74.0764 172.142L71.6468 177.305L76.7977 179.74L79.2273 174.577Z" fill="#105E7C"/>
    <path d="M81.5894 169.559L76.4385 167.124L74.0089 172.286L79.1598 174.721L81.5894 169.559Z" fill="#105E7C"/>
    <path d="M90.2341 151.056L85.1455 148.651L76.2004 167.657L81.2889 170.062L90.2341 151.056Z" fill="#105E7C"/>
    <path d="M94.5398 157.974L89.3704 160.369L91.7604 165.55L96.9298 163.155L94.5398 157.974Z" fill="#1D71B8"/>
    <path d="M94.5014 158.078L89.5474 160.374L91.8378 165.339L96.7918 163.043L94.5014 158.078Z" fill="#1D71B8"/>
    <path d="M92.2501 153.009L87.0807 155.404L89.4707 160.585L94.6401 158.189L92.2501 153.009Z" fill="#1D71B8"/>
    <path d="M92.2111 153.114L87.2571 155.41L89.5807 160.446L94.5347 158.151L92.2111 153.114Z" fill="#1D71B8"/>
    <path d="M89.9257 147.972L84.7563 150.367L87.1464 155.548L92.3158 153.153L89.9257 147.972Z" fill="#1D71B8"/>
    <path d="M89.8876 148.077L84.9336 150.373L87.2572 155.41L92.2112 153.114L89.8876 148.077Z" fill="#1D71B8"/>
    <path d="M87.6353 143.007L82.4659 145.402L84.856 150.583L90.0254 148.187L87.6353 143.007Z" fill="#1D71B8"/>
    <path d="M87.5965 143.112L82.6425 145.408L84.9661 150.445L89.9201 148.149L87.5965 143.112Z" fill="#1D71B8"/>
    <path d="M85.3118 137.97L80.1425 140.365L82.5325 145.546L87.7019 143.151L85.3118 137.97Z" fill="#1D71B8"/>
    <path d="M85.2731 138.075L80.3191 140.37L82.6095 145.335L87.5635 143.04L85.2731 138.075Z" fill="#1D71B8"/>
    <path d="M83.0214 133.005L77.8521 135.4L80.2421 140.581L85.4115 138.186L83.0214 133.005Z" fill="#1D71B8"/>
    <path d="M82.9827 133.11L78.0287 135.406L80.3523 140.443L85.3063 138.147L82.9827 133.11Z" fill="#1D71B8"/>
    <path d="M80.6972 127.967L75.5278 130.363L77.9178 135.543L83.0872 133.148L80.6972 127.967Z" fill="#1D71B8"/>
    <path d="M80.6591 128.073L75.7051 130.368L78.0287 135.405L82.9827 133.11L80.6591 128.073Z" fill="#1D71B8"/>
    <path d="M78.4077 123.003L73.2383 125.398L75.6283 130.579L80.7977 128.184L78.4077 123.003Z" fill="#105E7C"/>
    <path d="M78.3688 123.109L73.4148 125.404L75.7384 130.441L80.6924 128.145L78.3688 123.109Z" fill="#105E7C"/>
    <path d="M89.5861 160.268L84.4167 162.664L86.8068 167.844L91.9762 165.449L89.5861 160.268Z" fill="#1D71B8"/>
    <path d="M89.5476 160.375L84.5219 162.703L86.8123 167.668L91.8381 165.34L89.5476 160.375Z" fill="#1D71B8"/>
    <path d="M87.2957 155.304L82.1263 157.699L84.5164 162.88L89.6858 160.485L87.2957 155.304Z" fill="#1D71B8"/>
    <path d="M87.2575 155.409L82.2317 157.738L84.5553 162.775L89.5811 160.446L87.2575 155.409Z" fill="#1D71B8"/>
    <path d="M84.9715 150.267L79.8021 152.663L82.1921 157.843L87.3615 155.448L84.9715 150.267Z" fill="#1D71B8"/>
    <path d="M84.9339 150.373L79.9081 152.702L82.2317 157.738L87.2575 155.41L84.9339 150.373Z" fill="#1D71B8"/>
    <path d="M82.6821 145.302L77.5127 147.697L79.9027 152.878L85.0721 150.483L82.6821 145.302Z" fill="#1D71B8"/>
    <path d="M82.6426 145.408L77.6168 147.736L79.9404 152.773L84.9662 150.444L82.6426 145.408Z" fill="#1D71B8"/>
    <path d="M80.3576 140.265L75.1882 142.661L77.5782 147.842L82.7476 145.446L80.3576 140.265Z" fill="#1D71B8"/>
    <path d="M80.3193 140.37L75.2935 142.699L77.5839 147.664L82.6097 145.335L80.3193 140.37Z" fill="#1D71B8"/>
    <path d="M78.0682 135.3L72.8988 137.695L75.2888 142.876L80.4582 140.481L78.0682 135.3Z" fill="#1D71B8"/>
    <path d="M78.0288 135.406L73.0031 137.734L75.3267 142.771L80.3525 140.443L78.0288 135.406Z" fill="#1D71B8"/>
    <path d="M75.7437 130.263L70.5743 132.658L72.9644 137.839L78.1338 135.444L75.7437 130.263Z" fill="#1D71B8"/>
    <path d="M75.7054 130.368L70.6796 132.697L73.0032 137.734L78.029 135.405L75.7054 130.368Z" fill="#1D71B8"/>
    <path d="M73.4533 125.298L68.2839 127.694L70.674 132.874L75.8434 130.479L73.4533 125.298Z" fill="#1D71B8"/>
    <path d="M73.4151 125.403L68.3893 127.732L70.7129 132.769L75.7387 130.44L73.4151 125.403Z" fill="#1D71B8"/>
    <path d="M71.1298 120.262L65.9604 122.657L68.3505 127.838L73.5199 125.442L71.1298 120.262Z" fill="#1D71B8"/>
    <path d="M71.0916 120.366L66.0658 122.695L68.3562 127.66L73.382 125.331L71.0916 120.366Z" fill="#1D71B8"/>
    <path d="M82.2702 157.632L77.1008 160.028L79.4908 165.209L84.6602 162.813L82.2702 157.632Z" fill="#105E7C"/>
    <path d="M82.232 157.737L77.2062 160.066L79.5298 165.103L84.5556 162.774L82.232 157.737Z" fill="#105E7C"/>
    <path d="M79.9459 152.596L74.7765 154.991L77.1665 160.172L82.3359 157.777L79.9459 152.596Z" fill="#105E7C"/>
    <path d="M79.9085 152.701L74.8827 155.029L77.2063 160.066L82.2321 157.738L79.9085 152.701Z" fill="#105E7C"/>
    <path d="M77.6556 147.631L72.4862 150.026L74.8762 155.207L80.0456 152.811L77.6556 147.631Z" fill="#105E7C"/>
    <path d="M77.6172 147.735L72.5914 150.064L74.9151 155.101L79.9409 152.772L77.6172 147.735Z" fill="#105E7C"/>
    <path d="M75.3321 142.594L70.1627 144.989L72.5527 150.17L77.7221 147.775L75.3321 142.594Z" fill="#105E7C"/>
    <path d="M75.2937 142.699L70.2679 145.028L72.5584 149.992L77.5842 147.664L75.2937 142.699Z" fill="#105E7C"/>
    <path d="M73.0418 137.629L67.8724 140.024L70.2625 145.205L75.4318 142.81L73.0418 137.629Z" fill="#105E7C"/>
    <path d="M70.7175 132.592L65.5481 134.987L67.9381 140.168L73.1075 137.773L70.7175 132.592Z" fill="#1D71B8"/>
    <path d="M70.68 132.697L65.6542 135.026L67.9778 140.063L73.0036 137.734L70.68 132.697Z" fill="#1D71B8"/>
    <path d="M68.4279 127.627L63.2585 130.022L65.6486 135.203L70.818 132.808L68.4279 127.627Z" fill="#1D71B8"/>
    <path d="M68.3896 127.732L63.3638 130.06L65.6874 135.097L70.7132 132.769L68.3896 127.732Z" fill="#1D71B8"/>
    <path d="M66.1045 122.59L60.9351 124.986L63.3251 130.166L68.4945 127.771L66.1045 122.59Z" fill="#1D71B8"/>
    <path d="M66.066 122.695L61.0402 125.024L63.3306 129.989L68.3564 127.66L66.066 122.695Z" fill="#1D71B8"/>
    <path d="M63.7805 117.554L58.6107 119.948L61.0017 125.129L66.1715 122.734L63.7805 117.554Z" fill="#54A84E"/>
    <path d="M70.144 131.534L65.1182 133.863L70.3021 145.1L75.3279 142.771L70.144 131.534Z" fill="#105E7C"/>
    <path d="M47.73 159.21L42.6483 156.633L40.077 161.725L45.1587 164.302L47.73 159.21Z" fill="#1D71B8"/>
    <path d="M47.6233 159.245L42.7534 156.776L38.241 165.713L43.1109 168.183L47.6233 159.245Z" fill="#1D71B8"/>
    <path d="M50.1936 154.329L45.1119 151.752L42.5407 156.845L47.6223 159.422L50.1936 154.329Z" fill="#1D71B8"/>
    <path d="M50.0877 154.364L45.2178 151.894L42.7179 156.846L47.5878 159.315L50.0877 154.364Z" fill="#1D71B8"/>
    <path d="M52.6937 149.377L47.6121 146.8L45.0408 151.893L50.1224 154.47L52.6937 149.377Z" fill="#1D71B8"/>
    <path d="M52.5875 149.413L47.7175 146.943L45.2177 151.895L50.0876 154.364L52.5875 149.413Z" fill="#1D71B8"/>
    <path d="M55.1575 144.497L50.0758 141.92L47.5045 147.013L52.5862 149.59L55.1575 144.497Z" fill="#1D71B8"/>
    <path d="M55.0517 144.532L50.1818 142.062L47.6819 147.014L52.5518 149.483L55.0517 144.532Z" fill="#1D71B8"/>
    <path d="M57.6572 139.546L52.5756 136.969L50.0043 142.062L55.0859 144.639L57.6572 139.546Z" fill="#1D71B8"/>
    <path d="M57.5514 139.58L52.6815 137.11L50.2174 141.991L55.0873 144.46L57.5514 139.58Z" fill="#1D71B8"/>
    <path d="M60.1216 134.665L55.0399 132.088L52.4686 137.181L57.5503 139.758L60.1216 134.665Z" fill="#1D71B8"/>
    <path d="M60.0149 134.7L55.145 132.23L52.6452 137.181L57.5151 139.651L60.0149 134.7Z" fill="#1D71B8"/>
    <path d="M62.6218 129.713L57.5402 127.136L54.9689 132.229L60.0505 134.806L62.6218 129.713Z" fill="#1D71B8"/>
    <path d="M62.5154 129.748L57.6455 127.279L55.1457 132.23L60.0156 134.7L62.5154 129.748Z" fill="#1D71B8"/>
    <path d="M65.0856 124.832L60.0039 122.255L57.4326 127.348L62.5143 129.925L65.0856 124.832Z" fill="#105E7C"/>
    <path d="M64.9798 124.867L60.1099 122.398L57.61 127.349L62.4799 129.819L64.9798 124.867Z" fill="#105E7C"/>
    <path d="M42.8602 156.74L37.7786 154.163L35.2073 159.256L40.289 161.833L42.8602 156.74Z" fill="#1D71B8"/>
    <path d="M42.7539 156.776L37.8134 154.27L29.7672 170.207L34.7077 172.713L42.7539 156.776Z" fill="#1D71B8"/>
    <path d="M45.324 151.859L40.2423 149.282L37.671 154.375L42.7527 156.952L45.324 151.859Z" fill="#1D71B8"/>
    <path d="M45.2182 151.895L40.2777 149.389L37.7779 154.341L42.7184 156.846L45.2182 151.895Z" fill="#1D71B8"/>
    <path d="M47.8235 146.907L42.7418 144.33L40.1705 149.423L45.2522 152L47.8235 146.907Z" fill="#1D71B8"/>
    <path d="M47.7178 146.944L42.7773 144.438L40.2775 149.39L45.218 151.895L47.7178 146.944Z" fill="#1D71B8"/>
    <path d="M50.288 142.027L45.2063 139.45L42.635 144.543L47.7167 147.12L50.288 142.027Z" fill="#1D71B8"/>
    <path d="M50.1815 142.062L45.241 139.557L42.7411 144.508L47.6816 147.014L50.1815 142.062Z" fill="#1D71B8"/>
    <path d="M52.7875 137.076L47.7058 134.499L45.1345 139.592L50.2162 142.169L52.7875 137.076Z" fill="#1D71B8"/>
    <path d="M52.6818 137.11L47.7413 134.605L45.2772 139.486L50.2177 141.991L52.6818 137.11Z" fill="#1D71B8"/>
    <path d="M55.2521 132.196L50.1704 129.619L47.5991 134.712L52.6808 137.289L55.2521 132.196Z" fill="#1D71B8"/>
    <path d="M55.1453 132.23L50.2048 129.725L47.705 134.676L52.6455 137.182L55.1453 132.23Z" fill="#1D71B8"/>
    <path d="M57.7524 127.243L52.6708 124.666L50.0995 129.759L55.1812 132.336L57.7524 127.243Z" fill="#1D71B8"/>
    <path d="M57.6459 127.279L52.7054 124.774L50.2056 129.725L55.1461 132.23L57.6459 127.279Z" fill="#1D71B8"/>
    <path d="M60.2161 122.363L55.1344 119.787L52.5631 124.879L57.6448 127.456L60.2161 122.363Z" fill="#1D71B8"/>
    <path d="M60.1102 122.398L55.1697 119.893L52.6698 124.844L57.6103 127.349L60.1102 122.398Z" fill="#1D71B8"/>
    <path d="M62.7166 117.411L57.6349 114.834L55.0636 119.927L60.1453 122.504L62.7166 117.411Z" fill="#1D71B8"/>
    <path d="M62.6993 117.404L57.7588 114.899L55.2946 119.78L60.2352 122.285L62.6993 117.404Z" fill="#54A84E"/>
    <path d="M37.9185 154.235L32.8368 151.658L28.7981 159.657L33.8798 162.234L37.9185 154.235Z" fill="#105E7C"/>
    <path d="M40.3838 149.353L35.3021 146.776L32.7308 151.869L37.8125 154.446L40.3838 149.353Z" fill="#105E7C"/>
    <path d="M40.278 149.389L35.3375 146.883L32.8377 151.835L37.7782 154.34L40.278 149.389Z" fill="#105E7C"/>
    <path d="M42.8826 144.402L37.8009 141.825L35.2296 146.918L40.3113 149.495L42.8826 144.402Z" fill="#105E7C"/>
    <path d="M42.7778 144.438L37.8373 141.933L35.3374 146.884L40.2779 149.39L42.7778 144.438Z" fill="#105E7C"/>
    <path d="M45.3478 139.522L40.2661 136.945L37.6948 142.038L42.7765 144.615L45.3478 139.522Z" fill="#105E7C"/>
    <path d="M45.2412 139.556L40.3007 137.051L37.8008 142.002L42.7413 144.508L45.2412 139.556Z" fill="#105E7C"/>
    <path d="M47.8474 134.571L42.7657 131.994L40.1945 137.087L45.2761 139.664L47.8474 134.571Z" fill="#105E7C"/>
    <path d="M47.7417 134.605L42.8011 132.1L40.337 136.981L45.2775 139.486L47.7417 134.605Z" fill="#105E7C"/>
    <path d="M50.3119 129.69L45.2302 127.113L42.6589 132.206L47.7406 134.783L50.3119 129.69Z" fill="#105E7C"/>
    <path d="M50.206 129.725L45.2655 127.22L42.7656 132.171L47.7062 134.676L50.206 129.725Z" fill="#105E7C"/>
    <path d="M52.8115 124.738L47.7299 122.161L45.1586 127.254L50.2402 129.831L52.8115 124.738Z" fill="#1D71B8"/>
    <path d="M52.7056 124.773L47.7651 122.268L45.2653 127.219L50.2058 129.725L52.7056 124.773Z" fill="#1D71B8"/>
    <path d="M55.275 119.858L50.1934 117.281L47.6221 122.373L52.7037 124.95L55.275 119.858Z" fill="#1D71B8"/>
    <path d="M55.1701 119.893L50.2296 117.387L47.7298 122.339L52.6703 124.844L55.1701 119.893Z" fill="#1D71B8"/>
    <path d="M57.7755 114.906L52.6938 112.329L50.1226 117.422L55.2042 119.999L57.7755 114.906Z" fill="#1D71B8"/>
    <path d="M59.656 113.352L49.9309 113.352L49.9309 118.822L59.656 118.822L59.656 113.352Z" fill="#54A84E"/>
    <path d="M37.3815 228.955L32.2926 226.393L29.7357 231.493L34.8247 234.056L37.3815 228.955Z" fill="#382A4C"/>
    <path d="M32.4334 226.464L27.3445 223.902L24.7876 229.002L29.8765 231.564L32.4334 226.464Z" fill="#382A4C"/>
    <path d="M34.92 221.505L29.8311 218.942L27.2742 224.042L32.3631 226.605L34.92 221.505Z" fill="white"/>
    <path d="M37.3697 216.618L32.2808 214.055L29.7239 219.155L34.8128 221.718L37.3697 216.618Z" fill="white"/>
    <path d="M27.5568 224.008L22.4679 221.446L19.911 226.546L25 229.108L27.5568 224.008Z" fill="#382A4C"/>
    <path d="M30.0427 219.049L24.9537 216.487L22.3969 221.587L27.4858 224.15L30.0427 219.049Z" fill="white"/>
    <path d="M32.4931 214.162L27.4042 211.599L24.8473 216.7L29.9362 219.262L32.4931 214.162Z" fill="#E7E0D4"/>
    <path d="M22.5031 221.552L17.5555 219.06L15.0697 224.019L20.0173 226.51L22.5031 221.552Z" fill="#382A4C"/>
    <path d="M25.0948 216.558L20.0059 213.995L17.449 219.096L22.5379 221.658L25.0948 216.558Z" fill="#E7E0D4"/>
    <path d="M27.5452 211.67L22.4563 209.108L19.8994 214.208L24.9884 216.771L27.5452 211.67Z" fill="#F39200"/>
    <path d="M32.4816 201.824L27.3927 199.262L24.8358 204.362L29.9248 206.924L32.4816 201.824Z" fill="#F39200"/>
    <path d="M17.6608 219.025L12.5719 216.463L10.015 221.563L15.104 224.126L17.6608 219.025Z" fill="#382A4C"/>
    <path d="M20.1474 214.066L15.0585 211.503L12.5016 216.604L17.5905 219.166L20.1474 214.066Z" fill="#F39200"/>
    <path d="M22.598 209.179L17.509 206.617L14.9522 211.717L20.0411 214.28L22.598 209.179Z" fill="#F39200"/>
    <path d="M25.0838 204.221L19.9949 201.658L17.438 206.758L22.5269 209.321L25.0838 204.221Z" fill="#F39200"/>
    <path d="M27.5341 199.333L22.4452 196.771L19.8883 201.871L24.9773 204.433L27.5341 199.333Z" fill="#E17346"/>
    <path d="M30.0202 194.374L24.9313 191.812L22.3744 196.912L27.4633 199.475L30.0202 194.374Z" fill="#1D71B8"/>
    <path d="M32.4699 189.486L27.381 186.924L24.8241 192.024L29.913 194.587L32.4699 189.486Z" fill="#1D71B8"/>
    <path d="M34.9553 184.528L29.8663 181.966L27.3095 187.066L32.3984 189.628L34.9553 184.528Z" fill="#1D71B8"/>
    <path d="M37.4412 179.569L32.3523 177.007L29.7954 182.107L34.8844 184.67L37.4412 179.569Z" fill="#1D71B8"/>
    <path d="M39.8917 174.682L34.8027 172.119L32.2459 177.22L37.3348 179.782L39.8917 174.682Z" fill="#1D71B8"/>
    <path d="M44.4709 165.428L39.382 162.866L34.4564 172.691L39.5453 175.253L44.4709 165.428Z" fill="#1D71B8"/>
    <path d="M12.7842 216.57L7.69531 214.007L5.13844 219.107L10.2274 221.67L12.7842 216.57Z" fill="#382A4C"/>
    <path d="M15.2702 211.611L10.1813 209.048L7.6244 214.148L12.7133 216.711L15.2702 211.611Z" fill="#F39200"/>
    <path d="M17.7206 206.723L12.6317 204.161L10.0749 209.261L15.1638 211.823L17.7206 206.723Z" fill="#F39200"/>
    <path d="M20.2065 201.764L15.1176 199.202L12.5607 204.302L17.6496 206.865L20.2065 201.764Z" fill="#F39200"/>
    <path d="M22.6569 196.877L17.568 194.314L15.0111 199.415L20.1001 201.977L22.6569 196.877Z" fill="#1D71B8"/>
    <path d="M25.143 191.919L20.0541 189.357L17.4972 194.457L22.5861 197.019L25.143 191.919Z" fill="#1D71B8"/>
    <path d="M27.5932 187.031L22.5043 184.468L19.9474 189.568L25.0363 192.131L27.5932 187.031Z" fill="#1D71B8"/>
    <path d="M30.0793 182.073L24.9904 179.51L22.4335 184.611L27.5224 187.173L30.0793 182.073Z" fill="#1D71B8"/>
    <path d="M32.5653 177.114L27.4763 174.552L24.9194 179.652L30.0084 182.214L32.5653 177.114Z" fill="#1D71B8"/>
    <path d="M36.5769 169.111L31.4879 166.548L27.3691 174.764L32.458 177.327L36.5769 169.111Z" fill="#1D71B8"/>
    <path d="M7.83698 214.079L2.74805 211.516L0.191173 216.616L5.28011 219.179L7.83698 214.079Z" fill="#26031F"/>
    <path d="M10.3228 209.12L5.23389 206.557L2.67701 211.657L7.76595 214.22L10.3228 209.12Z" fill="#E17346"/>
    <path d="M12.6669 204.268L7.71936 201.776L5.23351 206.735L10.1811 209.226L12.6669 204.268Z" fill="#E17346"/>
    <path d="M15.2592 199.273L10.1703 196.711L7.61343 201.811L12.7024 204.374L15.2592 199.273Z" fill="#E17346"/>
    <path d="M17.7091 194.385L12.6201 191.823L10.0633 196.923L15.1522 199.486L17.7091 194.385Z" fill="#105E7C"/>
    <path d="M20.195 189.428L15.1061 186.865L12.5492 191.965L17.6381 194.528L20.195 189.428Z" fill="#105E7C"/>
    <path d="M22.6453 184.539L17.5564 181.977L14.9995 187.077L20.0885 189.639L22.6453 184.539Z" fill="#105E7C"/>
    <path d="M25.1313 179.582L20.0424 177.019L17.4855 182.119L22.5744 184.682L25.1313 179.582Z" fill="#105E7C"/>
    <path d="M35.45 158.996L30.3611 156.434L19.9704 177.16L25.0593 179.722L35.45 158.996Z" fill="#105E7C"/>
    <path d="M80.9775 123.377H71.344V133.824H80.9775V123.377Z" fill="#1D71B8"/>
    <path d="M71.344 123.377H61.5707V133.824H71.344V123.377Z" fill="#1D71B8"/>
    <path d="M61.5707 123.377H51.7989V133.824H61.5707V123.377Z" fill="#1D71B8"/>
    <path d="M51.9373 123.377H42.1642V133.824H51.9373V123.377Z" fill="#1D71B8"/>
    <path d="M103.144 81.7216L101.731 87.0051L107.003 88.4208L108.416 83.1373L103.144 81.7216Z" fill="#FFE4CE"/>
    <path d="M97.8721 80.3061L96.4595 85.5896L101.808 87.0259L103.22 81.7423L97.8721 80.3061Z" fill="#FFE4CE"/>
    <path d="M92.5237 78.8699L91.1111 84.1534L96.4594 85.5896L97.872 80.3061L92.5237 78.8699Z" fill="#FFE4CE"/>
    <path d="M83.2007 76.3669L81.7881 81.6505L91.1873 84.1745L92.5999 78.891L83.2007 76.3669Z" fill="#FFE4CE"/>
    <path d="M81.9036 76.0174L80.491 81.3009L85.7628 82.7167L87.1754 77.4331L81.9036 76.0174Z" fill="#FFE4CE"/>
    <path d="M76.632 74.6022L75.2194 79.8857L80.5677 81.322L81.9802 76.0384L76.632 74.6022Z" fill="#FFE4CE"/>
    <path d="M101.731 87.0054L100.298 92.3655L105.57 93.7812L107.003 88.4211L101.731 87.0054Z" fill="#FFE4CE"/>
    <path d="M96.4596 85.5899L95.0265 90.95L100.375 92.3862L101.808 87.0261L96.4596 85.5899Z" fill="#FFE4CE"/>
    <path d="M91.111 84.1537L89.678 89.5138L95.0263 90.95L96.4593 85.5899L91.111 84.1537Z" fill="#FFE4CE"/>
    <path d="M81.2912 81.5163L79.8582 86.8764L89.7545 89.534L91.1876 84.1738L81.2912 81.5163Z" fill="#F57E77"/>
    <path d="M80.4911 81.3012L79.058 86.6613L84.3299 88.0771L85.7629 82.717L80.4911 81.3012Z" fill="#F57E77"/>
    <path d="M75.2194 79.8859L73.7864 85.246L79.1347 86.6822L80.5677 81.3221L75.2194 79.8859Z" fill="#F57E77"/>
    <path d="M95.0466 90.8731L93.6135 96.2332L98.9618 97.6695L100.395 92.3093L95.0466 90.8731Z" fill="#FFE4CE"/>
    <path d="M89.6988 89.4369L88.2657 94.797L93.614 96.2332L95.0471 90.8731L89.6988 89.4369Z" fill="#F57E77"/>
    <path d="M80.9221 115.796H75.2269V121.504H80.9221V115.796Z" fill="#54A84E"/>
    <path d="M80.8432 115.876H75.3854V121.425H80.8432V115.876Z" fill="#54A84E"/>
    <path d="M80.9221 110.247H75.2269V115.955H80.9221V110.247Z" fill="#54A84E"/>
    <path d="M80.8432 110.326H75.3854V115.875H80.8432V110.326Z" fill="#54A84E"/>
    <path d="M80.9221 104.777H75.2269V110.485H80.9221V104.777Z" fill="#54A84E"/>
    <path d="M80.8432 104.856H75.3854V110.326H80.8432V104.856Z" fill="#54A84E"/>
    <path d="M80.9221 99.2277H75.2269V104.935H80.9221V99.2277Z" fill="#54A84E"/>
    <path d="M80.8432 99.3074H75.3854V104.857H80.8432V99.3074Z" fill="#54A84E"/>
    <path d="M80.9221 93.7578H75.2269V99.4655H80.9221V93.7578Z" fill="#54A84E"/>
    <path d="M80.8432 93.8374H75.3854V99.3866H80.8432V93.8374Z" fill="#54A84E"/>
    <path d="M80.9221 88.2089H75.2269V93.9167H80.9221V88.2089Z" fill="#54A84E"/>
    <path d="M80.8432 88.2877H75.3854V93.8369H80.8432V88.2877Z" fill="#54A84E"/>
    <path d="M80.9221 82.7389H75.2269V88.4466H80.9221V82.7389Z" fill="#54A84E"/>
    <path d="M80.8432 82.8177H75.3854V88.2877H80.8432V82.8177Z" fill="#54A84E"/>
    <path d="M80.9221 77.1892H75.2269V82.897H80.9221V77.1892Z" fill="#54A84E"/>
    <path d="M80.8423 76.5899H75.3844V82.1391H80.8423V76.5899Z" fill="#54A84E"/>
    <path d="M80.9221 71.7201H75.2269V77.4278H80.9221V71.7201Z" fill="#54A84E"/>
    <path d="M80.8423 71.1199H75.3844V76.6691H80.8423V71.1199Z" fill="#54A84E"/>
    <path d="M80.9221 66.1704H75.2269V71.8782H80.9221V66.1704Z" fill="#54A84E"/>
    <path d="M80.8432 66.2492H75.3854V71.7984H80.8432V66.2492Z" fill="#54A84E"/>
    <path d="M80.9221 60.7004H75.2269V66.4081H80.9221V60.7004Z" fill="#54A84E"/>
    <path d="M80.8432 60.7801H75.3854V66.25H80.8432V60.7801Z" fill="#54A84E"/>
    <path d="M80.9221 55.1516H75.2269V60.8593H80.9221V55.1516Z" fill="#54A84E"/>
    <path d="M80.8432 55.2305H75.3854V60.7797H80.8432V55.2305Z" fill="#54A84E"/>
    <path d="M84.7811 60.673H79.3232V66.2222H84.7811V60.673Z" fill="#54A84E"/>
    <path d="M84.7811 64.1556H79.3232V69.7048H84.7811V64.1556Z" fill="#54A84E"/>
    <path d="M84.7811 67.6381H79.3232V73.1873H84.7811V67.6381Z" fill="#54A84E"/>
    <path d="M80.9221 16.5447H75.2269V22.2524H80.9221V16.5447Z" fill="#3D041F"/>
    <path d="M80.8432 16.6235H75.3854V22.1727H80.8432V16.6235Z" fill="#3D041F"/>
    <path d="M80.9221 11.0746H75.2269V16.7824H80.9221V11.0746Z" fill="#621931"/>
    <path d="M80.8432 11.1543H75.3854V16.7035H80.8432V11.1543Z" fill="#621931"/>
    <path d="M80.9221 5.5258H75.2269V11.2335H80.9221V5.5258Z" fill="#621931"/>
    <path d="M80.8432 5.60471H75.3854V11.1539H80.8432V5.60471Z" fill="#621931"/>
    <path d="M75.4635 115.796H69.7683V121.504H75.4635V115.796Z" fill="#54A84E"/>
    <path d="M75.4635 110.247H69.7683V115.955H75.4635V110.247Z" fill="#54A84E"/>
    <path d="M75.3847 110.326H69.8478V115.875H75.3847V110.326Z" fill="#54A84E"/>
    <path d="M75.4635 104.777H69.7683V110.485H75.4635V104.777Z" fill="#54A84E"/>
    <path d="M75.3847 104.856H69.8478V110.326H75.3847V104.856Z" fill="#54A84E"/>
    <path d="M75.4635 99.2277H69.7683V104.935H75.4635V99.2277Z" fill="#54A84E"/>
    <path d="M75.3847 99.3074H69.8478V104.857H75.3847V99.3074Z" fill="#54A84E"/>
    <path d="M75.4635 93.7578H69.7683V99.4655H75.4635V93.7578Z" fill="#54A84E"/>
    <path d="M75.3847 93.8374H69.8478V99.3866H75.3847V93.8374Z" fill="#54A84E"/>
    <path d="M75.4635 88.2089H69.7683V93.9167H75.4635V88.2089Z" fill="#54A84E"/>
    <path d="M75.3847 88.2877H69.8478V93.8369H75.3847V88.2877Z" fill="#54A84E"/>
    <path d="M75.4635 82.7389H69.7683V88.4466H75.4635V82.7389Z" fill="#54A84E"/>
    <path d="M75.3847 82.8177H69.8478V88.2877H75.3847V82.8177Z" fill="#54A84E"/>
    <path d="M75.4635 77.1892H69.7683V82.897H75.4635V77.1892Z" fill="#54A84E"/>
    <path d="M75.3847 77.2689H69.8478V82.8181H75.3847V77.2689Z" fill="#54A84E"/>
    <path d="M75.4635 71.7201H69.7683V77.4278H75.4635V71.7201Z" fill="#54A84E"/>
    <path d="M75.3847 71.799H69.8478V77.3482H75.3847V71.799Z" fill="#54A84E"/>
    <path d="M75.4635 66.1704H69.7683V71.8782H75.4635V66.1704Z" fill="#54A84E"/>
    <path d="M75.3847 66.2492H69.8478V71.7984H75.3847V66.2492Z" fill="#54A84E"/>
    <path d="M75.4635 60.7004H69.7683V66.4081H75.4635V60.7004Z" fill="#54A84E"/>
    <path d="M75.3847 60.7801H69.8478V66.25H75.3847V60.7801Z" fill="#54A84E"/>
    <path d="M75.4635 55.1516H69.7683V60.8593H75.4635V55.1516Z" fill="#F57E77"/>
    <path d="M75.3847 55.2305H69.8478V60.7797H75.3847V55.2305Z" fill="#54A84E"/>
    <path d="M75.4635 33.1131H69.7683V38.8208H75.4635V33.1131Z" fill="#FFE4CE"/>
    <path d="M75.3847 33.192H69.8478V38.7412H75.3847V33.192Z" fill="#FFE4CE"/>
    <path d="M75.4635 27.5635H69.7683V33.2712H75.4635V27.5635Z" fill="#FFE4CE"/>
    <path d="M75.3847 27.6432H69.8478V33.1924H75.3847V27.6432Z" fill="#FFE4CE"/>
    <path d="M72.3741 22.3658H61.9498V29.3307H72.3741V22.3658Z" fill="#FFE4CE"/>
    <path d="M75.4635 22.0943H69.7683V27.8021H75.4635V22.0943Z" fill="#FFE4CE"/>
    <path d="M75.3847 22.1732H69.8478V27.6431H75.3847V22.1732Z" fill="#FFE4CE"/>
    <path d="M75.4635 16.5447H69.7683V22.2524H75.4635V16.5447Z" fill="#FFE4CE"/>
    <path d="M75.3847 16.6235H69.8478V22.1727H75.3847V16.6235Z" fill="#FFE4CE"/>
    <path d="M75.4635 11.0746H69.7683V16.7824H75.4635V11.0746Z" fill="#3D041F"/>
    <path d="M75.3847 11.1543H69.8478V16.7035H75.3847V11.1543Z" fill="#3D041F"/>
    <path d="M75.4635 5.5258H69.7683V11.2335H75.4635V5.5258Z" fill="#621931"/>
    <path d="M75.3847 5.60471H69.8478V11.1539H75.3847V5.60471Z" fill="#621931"/>
    <path d="M75.4635 0.0558624H69.7683V5.76361H75.4635V0.0558624Z" fill="#621931"/>
    <path d="M75.3847 0.134613H69.8478V5.60454H75.3847V0.134613Z" fill="#621931"/>
    <path d="M69.927 115.796H64.2318V121.504H69.927V115.796Z" fill="#54A84E"/>
    <path d="M69.8482 115.876H64.3113V121.425H69.8482V115.876Z" fill="#54A84E"/>
    <path d="M69.927 110.247H64.2318V115.955H69.927V110.247Z" fill="#54A84E"/>
    <path d="M69.8482 110.326H64.3113V115.875H69.8482V110.326Z" fill="#54A84E"/>
    <path d="M69.927 104.777H64.2318V110.485H69.927V104.777Z" fill="#54A84E"/>
    <path d="M69.8482 104.856H64.3113V110.326H69.8482V104.856Z" fill="#54A84E"/>
    <path d="M69.927 99.2277H64.2318V104.935H69.927V99.2277Z" fill="#54A84E"/>
    <path d="M69.8482 99.3074H64.3113V104.857H69.8482V99.3074Z" fill="#54A84E"/>
    <path d="M69.927 93.7578H64.2318V99.4655H69.927V93.7578Z" fill="#54A84E"/>
    <path d="M69.8482 93.8374H64.3113V99.3866H69.8482V93.8374Z" fill="#54A84E"/>
    <path d="M69.927 88.2089H64.2318V93.9167H69.927V88.2089Z" fill="#54A84E"/>
    <path d="M69.8482 88.2877H64.3113V93.8369H69.8482V88.2877Z" fill="#54A84E"/>
    <path d="M69.927 82.7389H64.2318V88.4466H69.927V82.7389Z" fill="#54A84E"/>
    <path d="M69.8482 82.8177H64.3113V88.2877H69.8482V82.8177Z" fill="#54A84E"/>
    <path d="M69.927 77.1892H64.2318V82.897H69.927V77.1892Z" fill="#54A84E"/>
    <path d="M69.8482 77.2689H64.3113V82.8181H69.8482V77.2689Z" fill="#54A84E"/>
    <path d="M69.927 71.7201H64.2318V77.4278H69.927V71.7201Z" fill="#54A84E"/>
    <path d="M69.8482 71.799H64.3113V77.3482H69.8482V71.799Z" fill="#54A84E"/>
    <path d="M69.927 66.1704H64.2318V71.8782H69.927V66.1704Z" fill="#54A84E"/>
    <path d="M69.8482 66.2492H64.3113V71.7984H69.8482V66.2492Z" fill="#54A84E"/>
    <path d="M69.927 60.7004H64.2318V66.4081H69.927V60.7004Z" fill="#54A84E"/>
    <path d="M69.8482 60.7801H64.3113V66.25H69.8482V60.7801Z" fill="#54A84E"/>
    <path d="M69.927 55.1516H64.2318V60.8593H69.927V55.1516Z" fill="#F57E77"/>
    <path d="M69.8482 55.2305H64.3113V60.7797H69.8482V55.2305Z" fill="#F57E77"/>
    <path d="M69.927 49.6027H64.2318V55.3105H69.927V49.6027Z" fill="#F57E77"/>
    <path d="M69.8482 49.6816H64.3113V55.2308H69.8482V49.6816Z" fill="#F57E77"/>
    <path d="M69.927 44.132H64.2318V49.8397H69.927V44.132Z" fill="#F57E77"/>
    <path d="M69.927 38.5832H64.2318V44.2909H69.927V38.5832Z" fill="#FFE4CE"/>
    <path d="M72.3737 18.8841H51.5251V29.3314H72.3737V18.8841Z" fill="#FFE4CE"/>
    <path d="M69.927 33.1131H64.2318V38.8208H69.927V33.1131Z" fill="#FFE4CE"/>
    <path d="M69.8482 33.192H64.3113V38.7412H69.8482V33.192Z" fill="#FFE4CE"/>
    <path d="M69.927 27.5635H64.2318V33.2712H69.927V27.5635Z" fill="#FFE4CE"/>
    <path d="M69.8482 27.6432H64.3113V33.1924H69.8482V27.6432Z" fill="#FFE4CE"/>
    <path d="M69.927 16.5447H64.2318V22.2524H69.927V16.5447Z" fill="#FFE4CE"/>
    <path d="M69.8482 16.6235H64.3113V22.1727H69.8482V16.6235Z" fill="#FFE4CE"/>
    <path d="M69.927 11.0746H64.2318V16.7824H69.927V11.0746Z" fill="#FFE4CE"/>
    <path d="M69.8482 11.1543H64.3113V16.7035H69.8482V11.1543Z" fill="#FFE4CE"/>
    <path d="M69.927 5.5258H64.2318V11.2335H69.927V5.5258Z" fill="#3D041F"/>
    <path d="M69.8482 5.60471H64.3113V11.1539H69.8482V5.60471Z" fill="#3D041F"/>
    <path d="M69.927 0.0558624H64.2318V5.76361H69.927V0.0558624Z" fill="#621931"/>
    <path d="M69.8482 0.134613H64.3113V5.60454H69.8482V0.134613Z" fill="#621931"/>
    <path d="M60.9146 121.504H55.3777V123.385H60.9146V121.504Z" fill="#105E7C"/>
    <path d="M56.1339 119.875H45.7096V123.357H56.1339V119.875Z" fill="#105E7C"/>
    <path d="M64.4701 110.247H58.7749V115.955H64.4701V110.247Z" fill="#54A84E"/>
    <path d="M64.3896 110.326H58.8527V115.875H64.3896V110.326Z" fill="#54A84E"/>
    <path d="M64.4701 104.777H58.7749V110.485H64.4701V104.777Z" fill="#54A84E"/>
    <path d="M64.3896 104.856H58.8527V110.326H64.3896V104.856Z" fill="#54A84E"/>
    <path d="M64.4701 99.2277H58.7749V104.935H64.4701V99.2277Z" fill="#54A84E"/>
    <path d="M64.3896 99.3074H58.8527V104.857H64.3896V99.3074Z" fill="#54A84E"/>
    <path d="M64.4701 93.7578H58.7749V99.4655H64.4701V93.7578Z" fill="#54A84E"/>
    <path d="M64.3896 93.8374H58.8527V99.3866H64.3896V93.8374Z" fill="#54A84E"/>
    <path d="M64.4701 88.2089H58.7749V93.9167H64.4701V88.2089Z" fill="#54A84E"/>
    <path d="M64.3896 88.2877H58.8527V93.8369H64.3896V88.2877Z" fill="#54A84E"/>
    <path d="M64.4701 82.7389H58.7749V88.4466H64.4701V82.7389Z" fill="#54A84E"/>
    <path d="M64.3896 82.8177H58.8527V88.2877H64.3896V82.8177Z" fill="#54A84E"/>
    <path d="M64.4701 77.1892H58.7749V82.897H64.4701V77.1892Z" fill="#54A84E"/>
    <path d="M64.3896 77.2689H58.8527V82.8181H64.3896V77.2689Z" fill="#54A84E"/>
    <path d="M64.4701 71.7201H58.7749V77.4278H64.4701V71.7201Z" fill="#54A84E"/>
    <path d="M64.3896 71.799H58.8527V77.3482H64.3896V71.799Z" fill="#54A84E"/>
    <path d="M64.4701 66.1704H58.7749V71.8782H64.4701V66.1704Z" fill="#54A84E"/>
    <path d="M64.3896 66.2492H58.8527V71.7984H64.3896V66.2492Z" fill="#54A84E"/>
    <path d="M64.4701 60.7004H58.7749V66.4081H64.4701V60.7004Z" fill="#F57E77"/>
    <path d="M69.7685 60.7801H58.8527V68.5708H69.7685V60.7801Z" fill="#54A84E"/>
    <path d="M64.4701 55.1516H58.7749V60.8593H64.4701V55.1516Z" fill="#FFE4CE"/>
    <path d="M64.3896 55.2305H58.8527V60.7797H64.3896V55.2305Z" fill="#FFE4CE"/>
    <path d="M64.4701 49.6027H58.7749V55.3105H64.4701V49.6027Z" fill="#FFE4CE"/>
    <path d="M64.3896 49.6816H58.8527V55.2308H64.3896V49.6816Z" fill="#FFE4CE"/>
    <path d="M64.4701 44.132H58.7749V49.8397H64.4701V44.132Z" fill="#FFE4CE"/>
    <path d="M64.3896 44.2117H58.8527V49.6816H64.3896V44.2117Z" fill="#FFE4CE"/>
    <path d="M64.4701 38.5832H58.7749V44.2909H64.4701V38.5832Z" fill="#FFE4CE"/>
    <path d="M64.3896 38.6619H58.8527V44.2111H64.3896V38.6619Z" fill="#FFE4CE"/>
    <path d="M64.4701 33.1131H58.7749V38.8208H64.4701V33.1131Z" fill="#FFE4CE"/>
    <path d="M64.3896 33.192H58.8527V38.7412H64.3896V33.192Z" fill="#FFE4CE"/>
    <path d="M64.4701 27.5635H58.7749V33.2712H64.4701V27.5635Z" fill="#FFE4CE"/>
    <path d="M64.3896 27.6432H58.8527V33.1924H64.3896V27.6432Z" fill="#FFE4CE"/>
    <path d="M64.4701 22.0943H58.7749V27.8021H64.4701V22.0943Z" fill="#FFE4CE"/>
    <path d="M64.3896 22.1732H58.8527V27.6431H64.3896V22.1732Z" fill="#FFE4CE"/>
    <path d="M64.4701 16.5447H58.7749V22.2524H64.4701V16.5447Z" fill="#FFE4CE"/>
    <path d="M64.3896 16.6235H58.8527V22.1727H64.3896V16.6235Z" fill="#FFE4CE"/>
    <path d="M64.4701 11.0746H58.7749V16.7824H64.4701V11.0746Z" fill="#FFE4CE"/>
    <path d="M64.3896 11.1543H58.8527V16.7035H64.3896V11.1543Z" fill="#FFE4CE"/>
    <path d="M64.4701 5.5258H58.7749V11.2335H64.4701V5.5258Z" fill="#3D041F"/>
    <path d="M64.3896 5.60471H58.8527V11.1539H64.3896V5.60471Z" fill="#3D041F"/>
    <path d="M64.4701 0.0558624H58.7749V5.76361H64.4701V0.0558624Z" fill="#621931"/>
    <path d="M64.3896 0.134613H58.8527V5.60454H64.3896V0.134613Z" fill="#621931"/>
    <path d="M58.9326 110.247H53.2374V115.955H58.9326V110.247Z" fill="#54A84E"/>
    <path d="M58.7748 110.326H53.3169V115.875H58.7748V110.326Z" fill="#54A84E"/>
    <path d="M58.9326 104.777H53.2374V110.485H58.9326V104.777Z" fill="#54A84E"/>
    <path d="M58.7748 104.856H53.3169V110.326H58.7748V104.856Z" fill="#54A84E"/>
    <path d="M58.9326 99.2277H53.2374V104.935H58.9326V99.2277Z" fill="#54A84E"/>
    <path d="M58.7748 99.3074H53.3169V104.857H58.7748V99.3074Z" fill="#54A84E"/>
    <path d="M58.9326 93.7578H53.2374V99.4655H58.9326V93.7578Z" fill="#54A84E"/>
    <path d="M58.7748 93.8374H53.3169V99.3866H58.7748V93.8374Z" fill="#54A84E"/>
    <path d="M58.9326 88.2089H53.2374V93.9167H58.9326V88.2089Z" fill="#54A84E"/>
    <path d="M58.7748 88.2877H53.3169V93.8369H58.7748V88.2877Z" fill="#54A84E"/>
    <path d="M58.9326 82.7389H53.2374V88.4466H58.9326V82.7389Z" fill="#54A84E"/>
    <path d="M58.7748 82.8177H53.3169V88.2877H58.7748V82.8177Z" fill="#54A84E"/>
    <path d="M58.9326 77.1892H53.2374V82.897H58.9326V77.1892Z" fill="#54A84E"/>
    <path d="M58.7748 77.2689H53.3169V82.8181H58.7748V77.2689Z" fill="#54A84E"/>
    <path d="M58.9326 71.7201H53.2374V77.4278H58.9326V71.7201Z" fill="#54A84E"/>
    <path d="M58.7748 71.799H53.3169V77.3482H58.7748V71.799Z" fill="#54A84E"/>
    <path d="M58.9326 66.1704H53.2374V71.8782H58.9326V66.1704Z" fill="#54A84E"/>
    <path d="M58.7748 66.2492H53.3169V71.7984H58.7748V66.2492Z" fill="#54A84E"/>
    <path d="M58.9326 60.7004H53.2374V66.4081H58.9326V60.7004Z" fill="#54A84E"/>
    <path d="M58.7748 60.7801H53.3169V66.25H58.7748V60.7801Z" fill="#54A84E"/>
    <path d="M58.9326 55.1516H53.2374V60.8593H58.9326V55.1516Z" fill="#FFE4CE"/>
    <path d="M58.7748 55.2305H53.3169V60.7797H58.7748V55.2305Z" fill="#FFE4CE"/>
    <path d="M58.9326 49.6027H53.2374V55.3105H58.9326V49.6027Z" fill="#FFE4CE"/>
    <path d="M58.7748 49.6816H53.3169V55.2308H58.7748V49.6816Z" fill="#FFE4CE"/>
    <path d="M58.9326 44.132H53.2374V49.8397H58.9326V44.132Z" fill="#FFE4CE"/>
    <path d="M58.7748 44.2117H53.3169V49.6816H58.7748V44.2117Z" fill="#FFE4CE"/>
    <path d="M58.9326 38.5832H53.2374V44.2909H58.9326V38.5832Z" fill="#FFE4CE"/>
    <path d="M58.7748 38.6619H53.3169V44.2111H58.7748V38.6619Z" fill="#FFE4CE"/>
    <path d="M58.9326 33.1131H53.2374V38.8208H58.9326V33.1131Z" fill="#FFE4CE"/>
    <path d="M58.7748 33.192H53.3169V38.7412H58.7748V33.192Z" fill="#FFE4CE"/>
    <path d="M58.9326 27.5635H53.2374V33.2712H58.9326V27.5635Z" fill="#FFE4CE"/>
    <path d="M58.7748 27.6432H53.3169V33.1924H58.7748V27.6432Z" fill="#FFE4CE"/>
    <path d="M58.9326 16.5447H53.2374V22.2524H58.9326V16.5447Z" fill="#FFE4CE"/>
    <path d="M58.7748 16.6235H53.3169V22.1727H58.7748V16.6235Z" fill="#FFE4CE"/>
    <path d="M58.9326 11.0746H53.2374V16.7824H58.9326V11.0746Z" fill="#FFE4CE"/>
    <path d="M58.7748 11.1543H53.3169V16.7035H58.7748V11.1543Z" fill="#FFE4CE"/>
    <path d="M58.9326 5.5258H53.2374V11.2335H58.9326V5.5258Z" fill="#3D041F"/>
    <path d="M58.7748 5.60471H53.3169V11.1539H58.7748V5.60471Z" fill="#3D041F"/>
    <path d="M58.9326 0.0558624H53.2374V5.76361H58.9326V0.0558624Z" fill="#621931"/>
    <path d="M58.7748 0.134613H53.3169V5.60454H58.7748V0.134613Z" fill="#621931"/>
    <path d="M53.4746 115.796H47.7794V121.504H53.4746V115.796Z" fill="#54A84E"/>
    <path d="M53.3952 115.876H47.8583V121.425H53.3952V115.876Z" fill="#54A84E"/>
    <path d="M53.4746 110.247H47.7794V115.955H53.4746V110.247Z" fill="#54A84E"/>
    <path d="M53.3952 110.326H47.8583V115.875H53.3952V110.326Z" fill="#54A84E"/>
    <path d="M53.4746 104.777H47.7794V110.485H53.4746V104.777Z" fill="#54A84E"/>
    <path d="M53.3952 104.856H47.8583V110.326H53.3952V104.856Z" fill="#54A84E"/>
    <path d="M53.4746 99.2277H47.7794V104.935H53.4746V99.2277Z" fill="#54A84E"/>
    <path d="M53.3952 99.3074H47.8583V104.857H53.3952V99.3074Z" fill="#54A84E"/>
    <path d="M53.4746 93.7578H47.7794V99.4655H53.4746V93.7578Z" fill="#54A84E"/>
    <path d="M53.3952 93.8374H47.8583V99.3866H53.3952V93.8374Z" fill="#54A84E"/>
    <path d="M53.4746 88.2089H47.7794V93.9167H53.4746V88.2089Z" fill="#54A84E"/>
    <path d="M53.3952 88.2877H47.8583V93.8369H53.3952V88.2877Z" fill="#54A84E"/>
    <path d="M53.4746 82.7389H47.7794V88.4466H53.4746V82.7389Z" fill="#54A84E"/>
    <path d="M53.3952 82.8177H47.8583V88.2877H53.3952V82.8177Z" fill="#54A84E"/>
    <path d="M53.4746 77.1892H47.7794V82.897H53.4746V77.1892Z" fill="#54A84E"/>
    <path d="M53.3952 77.2689H47.8583V82.8181H53.3952V77.2689Z" fill="#54A84E"/>
    <path d="M53.4746 71.7201H47.7794V77.4278H53.4746V71.7201Z" fill="#54A84E"/>
    <path d="M53.3952 71.799H47.8583V77.3482H53.3952V71.799Z" fill="#54A84E"/>
    <path d="M53.4746 66.1704H47.7794V71.8782H53.4746V66.1704Z" fill="#54A84E"/>
    <path d="M53.3952 66.2492H47.8583V71.7984H53.3952V66.2492Z" fill="#54A84E"/>
    <path d="M53.4746 60.7004H47.7794V66.4081H53.4746V60.7004Z" fill="#54A84E"/>
    <path d="M53.3952 60.7801H47.8583V66.25H53.3952V60.7801Z" fill="#54A84E"/>
    <path d="M53.4746 55.1516H47.7794V60.8593H53.4746V55.1516Z" fill="#FFE4CE"/>
    <path d="M53.3952 55.2305H47.8583V60.7797H53.3952V55.2305Z" fill="#FFE4CE"/>
    <path d="M53.4746 33.1131H47.7794V38.8208H53.4746V33.1131Z" fill="#FFE4CE"/>
    <path d="M53.3952 33.192H47.8583V38.7412H53.3952V33.192Z" fill="#F57E77"/>
    <path d="M53.4746 27.5635H47.7794V33.2712H53.4746V27.5635Z" fill="#FFE4CE"/>
    <path d="M53.3952 27.6432H47.8583V33.1924H53.3952V27.6432Z" fill="#FFE4CE"/>
    <path d="M53.4746 22.0943H47.7794V27.8021H53.4746V22.0943Z" fill="#FFE4CE"/>
    <path d="M53.3952 22.1732H47.8583V27.6431H53.3952V22.1732Z" fill="#FFE4CE"/>
    <path d="M53.4746 16.5447H47.7794V22.2524H53.4746V16.5447Z" fill="#FFE4CE"/>
    <path d="M53.3952 16.6235H47.8583V22.1727H53.3952V16.6235Z" fill="#FFE4CE"/>
    <path d="M53.4746 11.0746H47.7794V16.7824H53.4746V11.0746Z" fill="#3D041F"/>
    <path d="M53.3952 11.1543H47.8583V16.7035H53.3952V11.1543Z" fill="#3D041F"/>
    <path d="M55.0006 15.4015H44.5763V22.3664H55.0006V15.4015Z" fill="#3D041F"/>
    <path d="M58.4747 8.43643H51.5251V18.8837H58.4747V8.43643Z" fill="#3D041F"/>
    <path d="M53.4746 5.5258H47.7794V11.2335H53.4746V5.5258Z" fill="#621931"/>
    <path d="M53.3952 5.60471H47.8583V11.1539H53.3952V5.60471Z" fill="#621931"/>
    <path d="M53.4746 0.0558624H47.7794V5.76361H53.4746V0.0558624Z" fill="#621931"/>
    <path d="M53.3952 0.134613H47.8583V5.60454H53.3952V0.134613Z" fill="#621931"/>
    <path d="M47.938 115.796H42.2428V121.504H47.938V115.796Z" fill="#54A84E"/>
    <path d="M47.8586 115.876H42.3217V121.425H47.8586V115.876Z" fill="#54A84E"/>
    <path d="M47.938 110.247H42.2428V115.955H47.938V110.247Z" fill="#54A84E"/>
    <path d="M47.8586 110.326H42.3217V115.875H47.8586V110.326Z" fill="#54A84E"/>
    <path d="M47.938 104.777H42.2428V110.485H47.938V104.777Z" fill="#54A84E"/>
    <path d="M47.8586 104.856H42.3217V110.326H47.8586V104.856Z" fill="#54A84E"/>
    <path d="M47.938 99.2277H42.2428V104.935H47.938V99.2277Z" fill="#54A84E"/>
    <path d="M47.8586 99.3074H42.3217V104.857H47.8586V99.3074Z" fill="#54A84E"/>
    <path d="M47.938 93.7578H42.2428V99.4655H47.938V93.7578Z" fill="#54A84E"/>
    <path d="M47.938 88.2089H42.2428V93.9167H47.938V88.2089Z" fill="#54A84E"/>
    <path d="M47.8586 88.2877H42.3217V93.8369H47.8586V88.2877Z" fill="#376732"/>
    <path d="M47.938 82.7389H42.2428V88.4466H47.938V82.7389Z" fill="#54A84E"/>
    <path d="M47.938 77.1892H42.2428V82.897H47.938V77.1892Z" fill="#54A84E"/>
    <path d="M47.8586 77.2689H42.3217V82.8181H47.8586V77.2689Z" fill="#54A84E"/>
    <path d="M47.938 71.7201H42.2428V77.4278H47.938V71.7201Z" fill="#54A84E"/>
    <path d="M47.8586 71.799H42.3217V77.3482H47.8586V71.799Z" fill="#54A84E"/>
    <path d="M47.938 66.1704H42.2428V71.8782H47.938V66.1704Z" fill="#54A84E"/>
    <path d="M47.8586 66.2492H42.3217V71.7984H47.8586V66.2492Z" fill="#54A84E"/>
    <path d="M47.938 60.7004H42.2428V66.4081H47.938V60.7004Z" fill="#54A84E"/>
    <path d="M47.8586 60.7801H42.3217V66.25H47.8586V60.7801Z" fill="#54A84E"/>
    <path d="M47.938 55.1516H42.2428V60.8593H47.938V55.1516Z" fill="#54A84E"/>
    <path d="M47.8586 55.2305H42.3217V60.7797H47.8586V55.2305Z" fill="#54A84E"/>
    <path d="M47.938 27.5635H42.2428V33.2712H47.938V27.5635Z" fill="#3D041F"/>
    <path d="M47.8586 27.6432H42.3217V33.1924H47.8586V27.6432Z" fill="#3D041F"/>
    <path d="M47.938 22.0943H42.2428V27.8021H47.938V22.0943Z" fill="#3D041F"/>
    <path d="M47.8586 22.1732H42.3217V27.6431H47.8586V22.1732Z" fill="#3D041F"/>
    <path d="M47.938 16.5447H42.2428V22.2524H47.938V16.5447Z" fill="#621931"/>
    <path d="M47.8586 16.6235H42.3217V22.1727H47.8586V16.6235Z" fill="#621931"/>
    <path d="M47.938 11.0746H42.2428V16.7824H47.938V11.0746Z" fill="#621931"/>
    <path d="M47.8586 11.1543H42.3217V16.7035H47.8586V11.1543Z" fill="#621931"/>
    <path d="M47.938 5.5258H42.2428V11.2335H47.938V5.5258Z" fill="#621931"/>
    <path d="M47.8586 5.60471H42.3217V11.1539H47.8586V5.60471Z" fill="#621931"/>
    <path d="M42.4793 71.7201H36.7842V77.4278H42.4793V71.7201Z" fill="#54A84E"/>
    <path d="M42.4006 71.799H36.8636V77.3482H42.4006V71.799Z" fill="#54A84E"/>
    <path d="M42.4793 66.1704H36.7842V71.8782H42.4793V66.1704Z" fill="#54A84E"/>
    <path d="M42.4006 66.2492H36.8636V71.7984H42.4006V66.2492Z" fill="#54A84E"/>
    <path d="M42.4793 60.7004H36.7842V66.4081H42.4793V60.7004Z" fill="#54A84E"/>
    <path d="M42.4006 60.7801H36.8636V66.25H42.4006V60.7801Z" fill="#54A84E"/>
    <path d="M42.4793 55.1516H36.7842V60.8593H42.4793V55.1516Z" fill="#54A84E"/>
    <path d="M42.4006 55.2305H36.8636V60.7797H42.4006V55.2305Z" fill="#54A84E"/>
    <path d="M44.5762 15.4015H37.6267V25.8488H44.5762V15.4015Z" fill="#3D041F"/>
    <path d="M36.9427 71.7201H31.2476V77.4278H36.9427V71.7201Z" fill="#54A84E"/>
    <path d="M36.9427 66.1704H31.2476V71.8782H36.9427V66.1704Z" fill="#54A84E"/>
    <path d="M36.7849 66.2492H31.327V71.7984H36.7849V66.2492Z" fill="#54A84E"/>
    <path d="M36.9427 60.7004H31.2476V66.4081H36.9427V60.7004Z" fill="#54A84E"/>
    <path d="M36.7849 60.7801H31.327V66.25H36.7849V60.7801Z" fill="#54A84E"/>
    <path d="M31.4847 71.7201H25.7896V77.4278H31.4847V71.7201Z" fill="#54A84E"/>
    <path d="M31.4847 66.1704H25.7896V71.8782H31.4847V66.1704Z" fill="#54A84E"/>
    <path d="M31.4061 66.2492H25.8691V71.7984H31.4061V66.2492Z" fill="#54A84E"/>
    <path d="M43.1637 22.3658H37.6267V27.915H43.1637V22.3658Z" fill="#3D041F"/>
    <path d="M71.1196 22.3658H65.4244V28.0736H71.1196V22.3658Z" fill="#66667C"/>
    <path d="M50.035 25.8483H44.5771V31.3975H50.035V25.8483Z" fill="#FFE4CE"/>
    <path d="M31.4061 71.799H25.8691V77.3482H31.4061V71.799Z" fill="#54A84E"/>
    <path d="M48.2876 119.999L42.1643 119.999L42.1643 133.817L48.2876 133.817L48.2876 119.999Z" fill="#105E7C"/>
    <path d="M47.8586 71.8787H42.3217V88.2877H47.8586V71.8787Z" fill="#376732"/>
    <path d="M47.8586 85.5905H42.3217V99.3866H47.8586V85.5905Z" fill="#376732"/>
    <path d="M45.9433 71.8279H36.7054V77.3771H45.9433V71.8279Z" fill="#376732"/>
    <path d="M47.7795 66.4078H42.3217V71.957H47.7795V66.4078Z" fill="#376732"/>
    <path d="M69.9265 38.8214H53.2366V44.0531H69.9265V38.8214Z" fill="#FFE4CE"/>
    <path d="M69.7692 44.3703H52.9385V50.5305H69.7692V44.3703Z" fill="#F57E77"/>
    <path d="M58.4754 38.8214H52.9385V44.3706H58.4754V38.8214Z" fill="#F57E77"/>
    <path d="M64.4699 115.796H53.0118V121.504H64.4699V115.796Z" fill="#54A84E"/>
    <path d="M80.9774 119.875H71.3439V126.003H80.9774V119.875Z" fill="#105E7C"/>
    <path d="M71.3439 119.875H61.5707V126.003H71.3439V119.875Z" fill="#105E7C"/>
    <path d="M61.5707 119.875H51.7989V126.003H61.5707V119.875Z" fill="#105E7C"/>
    <path d="M51.9373 119.875H42.1642V126.003H51.9373V119.875Z" fill="#105E7C"/>
    <path d="M28.1364 92.8457L29.1962 98.2115L40.9447 95.8809L39.885 90.5151L28.1364 92.8457Z" fill="#FFE4CE"/>
    <path d="M28.6423 98.321L29.7174 103.765L43.8826 100.955L42.8076 95.511L28.6423 98.321Z" fill="#F57E77"/>
    <path d="M61.3788 86.2516L62.4385 91.6174L67.7925 90.5553L66.7327 85.1895L61.3788 86.2516Z" fill="#FFE4CE"/>
    <path d="M56.0246 87.3125L57.0844 92.6783L62.5159 91.6008L61.4562 86.235L56.0246 87.3125Z" fill="#FFE4CE"/>
    <path d="M50.5934 88.3905L51.6531 93.7563L57.0847 92.6789L56.0249 87.313L50.5934 88.3905Z" fill="#FFE4CE"/>
    <path d="M43.6598 89.7652L44.7195 95.1311L51.7304 93.7403L50.6707 88.3745L43.6598 89.7652Z" fill="#FFE4CE"/>
    <path d="M39.8078 90.5293L40.8676 95.8952L46.2215 94.8331L45.1618 89.4673L39.8078 90.5293Z" fill="#FFE4CE"/>
    <path d="M62.4383 91.6167L63.5134 97.0603L68.8674 95.9983L67.7923 90.5547L62.4383 91.6167Z" fill="#FFE4CE"/>
    <path d="M57.0845 92.6788L58.1595 98.1224L63.5911 97.0449L62.5161 91.6013L57.0845 92.6788Z" fill="#FFE4CE"/>
    <path d="M51.6526 93.7561L52.7277 99.1997L58.1592 98.1223L57.0842 92.6787L51.6526 93.7561Z" fill="#FFE4CE"/>
    <path d="M44.7472 95.126L45.8223 100.57L52.8056 99.1843L51.7305 93.7407L44.7472 95.126Z" fill="#F57E77"/>
    <path d="M40.8677 95.8956L41.9427 101.339L47.2967 100.277L46.2217 94.8335L40.8677 95.8956Z" fill="#F57E77"/>
    <path d="M58.1442 98.0444L59.2192 103.488L64.6508 102.411L63.5757 96.967L58.1442 98.0444Z" fill="#FFE4CE"/>
    <path d="M52.7133 99.1218L53.7883 104.565L59.2199 103.488L58.1448 98.0443L52.7133 99.1218Z" fill="#F57E77"/>
    <path d="M23.4797 87.9438L29.0117 87.7092L29.6922 103.822L24.1602 104.057L23.4797 87.9438Z" fill="#F57E77"/>
    <path d="M23.2452 82.3992L28.7772 82.1645L29.0114 87.7088L23.4794 87.9434L23.2452 82.3992Z" fill="#F57E77"/>
    <path d="M23.0141 76.9342L28.5461 76.6995L28.7803 82.2438L23.2483 82.4784L23.0141 76.9342Z" fill="#F57E77"/>
    <path d="M29.0115 87.709L34.5435 87.4743L34.7743 92.9393L29.2423 93.174L29.0115 87.709Z" fill="#FFE4CE"/>
    <path d="M28.7777 82.1651L34.3097 81.9304L34.5438 87.4747L29.0118 87.7093L28.7777 82.1651Z" fill="#FFE4CE"/>
    <path d="M28.5467 76.7001L34.0787 76.4655L34.3129 82.0097L28.7809 82.2444L28.5467 76.7001Z" fill="#FFE4CE"/>
    <path d="M36.785 71.799H24.6606V77.3482H36.785V71.799Z" fill="#54A84E"/>
    <path d="M25.9474 71.7201H20.2522V77.4278H25.9474V71.7201Z" fill="#54A84E"/>
</svg>
