<svg width="31" height="36" viewBox="0 0 31 36" fill="none" xmlns="http://www.w3.org/2000/svg">
    <rect x="1.60406" y="3.50366" width="27.843" height="18.88" fill="#FFE1DF"/>
    <path d="M16.147 27.3117H16.6742C16.6924 27.4874 16.6779 27.6635 16.682 27.8393C16.6817 27.8445 16.6803 27.8496 16.6778 27.8542C16.6752 27.8588 16.6717 27.8627 16.6674 27.8657C16.5478 27.8989 16.4254 27.8742 16.3046 27.8818C16.2601 27.8846 16.2139 27.8733 16.1613 27.9033C16.1518 28.056 16.1523 28.2091 16.1629 28.3617C16.335 28.3929 16.5004 28.3549 16.6619 28.3858C16.6716 28.3903 16.6798 28.3975 16.6853 28.4067C16.7096 28.5811 16.7096 28.758 16.6853 28.9325C16.6816 28.9365 16.678 28.9404 16.6742 28.9443H16.1386C16.1204 28.9603 16.1301 28.9813 16.1301 28.9998C16.1295 29.838 16.1295 30.6763 16.1301 31.5146V34.3862C16.0981 34.4177 16.0568 34.4132 16.0177 34.4133C15.5558 34.4142 15.0938 34.4142 14.6317 34.4133C14.5925 34.4133 14.5519 34.4162 14.5163 34.3886C14.4974 34.3553 14.5067 34.3178 14.5066 34.2819C14.5061 32.5416 14.5058 30.8013 14.5057 29.061C14.5057 29.0277 14.5142 28.993 14.4972 28.9609C14.3691 28.9412 14.2401 28.9579 14.1116 28.9519C14.0587 28.9495 14.0053 28.9597 13.9529 28.9454C13.9457 28.9386 13.94 28.9303 13.9361 28.9212C13.9322 28.9121 13.9303 28.9023 13.9303 28.8924C13.9285 28.7328 13.9153 28.573 13.9376 28.4139C13.9418 28.404 13.9488 28.3956 13.9576 28.3895C14.0341 28.3607 14.1141 28.3783 14.1924 28.3739C14.2791 28.369 14.3669 28.3831 14.4645 28.3615C14.4769 28.207 14.4721 28.0539 14.4678 27.9072C14.4198 27.8731 14.3761 27.884 14.3347 27.8817C14.2113 27.8741 14.0867 27.8978 13.9642 27.8663C13.9605 27.8629 13.9568 27.8592 13.9531 27.8556V27.3199C13.9636 27.3059 13.9786 27.3114 13.9919 27.3114C14.142 27.311 14.2922 27.3114 14.4425 27.3114H14.4895C14.4939 27.3061 14.4971 27.304 14.4971 27.3018C14.4971 26.2223 14.4971 25.1428 14.4971 24.0633C14.465 24.0463 14.4304 24.0548 14.3971 24.0548C13.381 24.0543 12.3649 24.054 11.3489 24.054C11.3149 24.054 11.2809 24.0601 11.248 24.0482C11.2315 23.8678 11.2457 23.6872 11.2404 23.5108C11.2713 23.4744 11.3095 23.4752 11.3458 23.4752C12.0332 23.4752 12.7206 23.4715 13.408 23.4766C13.4617 23.4723 13.5156 23.4744 13.5695 23.4744H18.2025C18.2365 23.4744 18.2705 23.4735 18.3045 23.4767C18.6361 23.4722 18.9678 23.4751 19.2994 23.4753C19.3334 23.4753 19.3679 23.4753 19.3958 23.5003C19.414 23.6805 19.3984 23.8608 19.4048 24.0544H16.1538C16.1302 24.087 16.1386 24.1163 16.1386 24.1437C16.1381 25.1719 16.1381 26.2001 16.1386 27.2283C16.1385 27.2563 16.1311 27.2853 16.147 27.3117Z" fill="#3C3C3C"/>
    <path d="M16.6911 2.2787H28.6464C28.6524 2.28837 28.6554 2.29963 28.6549 2.31101C28.6549 2.48107 28.6549 2.65062 28.6549 2.81371C28.626 2.84662 28.5942 2.84772 28.5631 2.84934C28.5263 2.85155 28.4894 2.85061 28.4526 2.85061C19.6919 2.85061 10.9313 2.85036 2.17054 2.84985C2.10702 2.84985 2.03917 2.86728 1.98126 2.82289V2.2872C1.99164 2.27317 2.00677 2.27938 2.02004 2.2787C2.03704 2.27785 2.05405 2.2787 2.07105 2.2787H13.9532C13.9702 2.24945 13.9617 2.21756 13.9617 2.18704C13.9623 1.71087 13.9625 1.2347 13.9623 0.75853C13.9623 0.727834 13.9585 0.696628 13.9708 0.655048C14.1437 0.654283 14.318 0.654623 14.4884 0.655048C14.5328 0.702495 14.5242 0.755554 14.5242 0.805297C14.5251 1.23895 14.5242 1.6726 14.525 2.10626C14.525 2.14818 14.5186 2.19129 14.5499 2.25081C15.0535 2.25251 15.5669 2.25141 16.0713 2.25158C16.1111 2.20175 16.1021 2.15804 16.1021 2.11655C16.1029 1.68009 16.1021 1.24363 16.1031 0.807082C16.1031 0.757254 16.0946 0.704451 16.1371 0.654963C16.3134 0.658024 16.4942 0.648671 16.6747 0.660405C16.6897 0.689996 16.6822 0.721712 16.6822 0.752323C16.6828 1.23065 16.6831 1.709 16.6831 2.18738C16.6826 2.21765 16.6746 2.24953 16.6911 2.2787Z" fill="#3C3C3C"/>
    <path d="M1.98077 2.82308H28.6372C28.6422 2.8184 28.6457 2.81661 28.6457 2.81457C28.6462 2.80891 28.6462 2.80323 28.6457 2.79757V2.29589C28.6468 2.29467 28.6481 2.29369 28.6496 2.29301C28.651 2.29234 28.6526 2.29199 28.6542 2.29199C28.6558 2.29199 28.6574 2.29234 28.6589 2.29301C28.6604 2.29369 28.6617 2.29467 28.6627 2.29589V2.82308C28.6752 3.00266 28.6833 3.18216 28.6567 3.3614C28.6505 3.37095 28.6416 3.37843 28.6312 3.38292C28.5703 3.40247 28.5075 3.39465 28.4455 3.39465C23.0266 3.39499 17.6077 3.39499 12.1888 3.39465C8.84742 3.39465 5.50598 3.39445 2.16452 3.39405C2.10313 3.39405 2.03919 3.40672 1.98145 3.37229C1.93545 3.18964 1.93749 3.0064 1.98077 2.82308Z" fill="#E4352F"/>
    <path d="M1.98089 23.5024V22.9752C1.99789 22.9373 2.03301 22.9352 2.06694 22.9327C2.10945 22.9292 2.15197 22.9309 2.19448 22.9309C4.95734 22.9309 7.7202 22.9307 10.4831 22.9305C10.536 22.9305 10.5907 22.9401 10.6531 22.9092C10.6652 22.7617 10.6653 22.6136 10.6535 22.4661C10.5978 22.4321 10.5456 22.4423 10.4956 22.4422C9.13822 22.4417 7.78086 22.4416 6.42355 22.4418C4.99816 22.4418 3.5728 22.4418 2.14746 22.4418C2.09168 22.4418 2.03352 22.4525 1.98182 22.4193C1.97303 22.412 1.9669 22.4021 1.96439 22.391C1.949 22.2238 1.94467 22.0564 1.96652 21.8893C1.96762 21.8808 1.97502 21.8749 1.97953 21.868C2.02731 21.8335 2.08284 21.8433 2.13573 21.8433C3.15252 21.8426 4.16925 21.8425 5.18593 21.8428C6.9617 21.8428 8.73744 21.8428 10.5132 21.8428C10.5608 21.8428 10.6098 21.8513 10.655 21.8283C10.6856 21.8028 10.6811 21.7677 10.6813 21.7339C10.6813 21.6377 10.6807 21.5414 10.6818 21.4448C10.6818 21.4084 10.6789 21.3705 10.7173 21.3289C10.8856 21.3126 11.055 21.3129 11.2232 21.3298C11.2627 21.3775 11.2596 21.4211 11.2596 21.4631C11.2602 22.1056 11.2602 22.7482 11.2596 23.3909C11.2596 23.4302 11.2625 23.4708 11.235 23.5046C11.205 23.5172 11.1734 23.511 11.1426 23.511C8.11942 23.5113 5.0962 23.5113 2.07298 23.511C2.04211 23.5102 2.01031 23.5179 1.98089 23.5024Z" fill="#3C3C3C"/>
    <path d="M0.892356 21.8867H0.365168C0.362829 21.8816 0.362587 21.8758 0.364494 21.8705C0.366402 21.8652 0.370306 21.8609 0.375372 21.8584C0.486677 21.8259 0.600617 21.8489 0.713112 21.8423C0.757753 21.8396 0.803584 21.8472 0.844229 21.8283C0.872969 21.7803 0.864296 21.7311 0.864296 21.6838C0.864806 20.6947 0.864948 19.7055 0.864721 18.7162C0.864721 13.8414 0.864948 8.96669 0.865401 4.09196C0.865401 4.03108 0.850011 3.96629 0.892356 3.9111C0.902559 3.90617 0.888274 3.90838 0.899158 3.90626C1.07951 3.87157 1.25977 3.86612 1.43961 3.91C1.4607 3.93602 1.46206 3.96739 1.46333 3.9986C1.46495 4.03822 1.46418 4.07793 1.46418 4.11764C1.46418 9.96625 1.46418 15.8149 1.46418 21.6635C1.46418 21.7255 1.47124 21.7883 1.45441 21.8495C1.45051 21.86 1.44409 21.8694 1.4357 21.8768C1.39446 21.9009 1.34854 21.8964 1.30407 21.8951C1.16666 21.891 1.02908 21.9073 0.892356 21.8867Z" fill="#E4352F"/>
    <path d="M29.7518 3.38428V3.91147C29.7659 3.93783 29.763 3.96648 29.763 3.99471C29.7616 9.8995 29.7614 15.8043 29.7622 21.7091C29.7622 21.7571 29.767 21.8057 29.7514 21.8525C29.7468 21.863 29.7397 21.8721 29.7308 21.8792C29.6016 21.9146 29.4696 21.8905 29.3391 21.8956C29.2873 21.8977 29.2319 21.9069 29.1861 21.8691C29.1661 21.8426 29.165 21.8112 29.1638 21.78C29.1624 21.7432 29.1631 21.7063 29.1631 21.6694C29.1631 15.8185 29.1631 9.9676 29.1631 4.11673C29.1631 4.05466 29.156 3.99191 29.173 3.93069C29.177 3.9204 29.1834 3.91123 29.1917 3.90399C29.2559 3.8727 29.3247 3.88851 29.3917 3.88571C29.4922 3.88145 29.5935 3.892 29.6911 3.87831C29.7196 3.80943 29.7043 3.7466 29.7086 3.68554C29.7153 3.58767 29.6932 3.4881 29.7248 3.39151L29.7362 3.38037L29.7518 3.38428Z" fill="#E4352F"/>
    <path d="M0.892399 3.91144V21.8606C0.887637 21.8657 0.885937 21.8691 0.883896 21.8696C0.878235 21.87 0.87255 21.87 0.86689 21.8696H0.365212C0.364268 21.871 0.363 21.8721 0.361518 21.8729C0.360036 21.8737 0.358385 21.8741 0.356709 21.8741C0.355032 21.8741 0.353381 21.8737 0.351899 21.8729C0.350417 21.8721 0.349149 21.871 0.348206 21.8696V3.9213C0.353222 3.91561 0.354838 3.91204 0.356709 3.9117C0.362369 3.91127 0.368054 3.91127 0.373715 3.9117L0.892399 3.91144Z" fill="#3C3C3C"/>
    <path d="M29.7347 21.8698V3.93901C29.7387 3.9283 29.7542 3.92558 29.7517 3.91138H30.2789C30.2944 3.94088 30.2867 3.97268 30.2867 4.00321C30.2871 9.92641 30.2871 15.8496 30.2867 21.7727C30.2867 21.8033 30.2921 21.8347 30.2768 21.8783C30.0988 21.8735 29.9169 21.8879 29.7347 21.8698Z" fill="#3C3C3C"/>
    <path d="M11.2321 23.5024V21.3511C11.2271 21.3466 11.225 21.3432 11.2229 21.3432C11.0532 21.3432 10.8835 21.3432 10.7137 21.3432C10.6995 21.3534 10.7052 21.3687 10.7052 21.3817C10.7052 21.5232 10.7052 21.6646 10.7052 21.806V21.8634L10.6882 21.8704C10.6848 21.8659 10.6792 21.8619 10.6782 21.8568C10.6436 21.6804 10.6634 21.5046 10.6681 21.3233C10.8472 21.2715 11.0198 21.3205 11.1915 21.2871C11.2278 21.1195 11.1795 20.9469 11.2198 20.7931C11.2573 20.7579 11.2918 20.7569 11.3257 20.7553C11.3625 20.7536 11.3993 20.7544 11.4362 20.7544C14.0232 20.7544 16.6102 20.7544 19.1972 20.7544C19.2397 20.7544 19.2822 20.7515 19.3248 20.757C19.3539 20.7606 19.39 20.757 19.3974 20.7995C19.3731 20.824 19.3413 20.8241 19.3102 20.8255C19.2706 20.8273 19.2309 20.8264 19.1912 20.8264C16.6119 20.8264 14.0329 20.8264 11.4541 20.8264C11.401 20.8264 11.3465 20.8188 11.2857 20.8453C11.2727 20.9881 11.2718 21.1317 11.2831 21.2746C11.3397 21.3081 11.3918 21.2979 11.4417 21.2979C13.7061 21.2984 15.9705 21.2986 18.235 21.2985C18.6205 21.2985 19.0058 21.2951 19.3914 21.3007C19.5424 21.2968 19.6935 21.2979 19.8445 21.3007C19.8803 21.3013 19.9267 21.2905 19.9411 21.344C19.9144 21.3701 19.88 21.3695 19.8468 21.3695C19.696 21.37 19.5452 21.3727 19.3946 21.3683C19.0318 21.3717 18.669 21.3717 18.3062 21.3683C18.2666 21.3718 18.2268 21.3706 18.1871 21.3706C16.6566 21.3706 15.126 21.3706 13.5955 21.3706C13.5481 21.3706 13.4991 21.3621 13.4538 21.3862C13.4283 21.4253 13.4362 21.4689 13.4362 21.5105C13.4357 22.1255 13.4355 22.7406 13.4355 23.3557C13.4355 23.4058 13.4448 23.4586 13.4084 23.5025H11.2571C11.2527 23.5078 11.2494 23.5099 11.2494 23.512C11.2494 23.6903 11.2494 23.8685 11.2494 24.0467C11.2484 24.0481 11.2471 24.0492 11.2457 24.05C11.2442 24.0508 11.2425 24.0512 11.2408 24.0512C11.2392 24.0512 11.2375 24.0508 11.236 24.05C11.2346 24.0492 11.2333 24.0481 11.2323 24.0467V23.5195C11.2261 23.5158 11.2238 23.512 11.2261 23.5082C11.2284 23.5045 11.23 23.5024 11.2321 23.5024Z" fill="#BB2B26"/>
    <path d="M1.98089 22.4141C4.87991 22.4141 7.77896 22.4141 10.678 22.4141C10.6802 22.4141 10.6824 22.4172 10.6865 22.4203V22.9514C10.6839 22.9541 10.6822 22.9568 10.6797 22.9578C10.6769 22.9584 10.674 22.9584 10.6712 22.9578H2.00853C1.99781 22.9618 1.99509 22.9774 1.98089 22.9748H1.4537C1.45234 22.9697 1.45107 22.9646 1.44971 22.9595C1.45345 22.9559 1.4571 22.9521 1.46076 22.9483C1.53125 22.9191 1.60531 22.9358 1.67784 22.9322C1.76415 22.9281 1.85139 22.939 1.93344 22.9242C1.96405 22.8761 1.95215 22.8299 1.95487 22.7859C1.96252 22.6657 1.93863 22.5442 1.97009 22.4249C1.97366 22.4215 1.97723 22.4178 1.98089 22.4141Z" fill="#E4352F"/>
    <path d="M16.6741 0.663313H16.1384C16.1214 0.676408 16.1299 0.69486 16.1299 0.710505C16.1294 1.20334 16.1294 1.6962 16.1299 2.1891V2.26919C16.1249 2.27472 16.1232 2.27829 16.1214 2.27863C16.1157 2.27906 16.11 2.27906 16.1044 2.27863C15.5718 2.27863 15.0393 2.27863 14.5067 2.27863C14.5046 2.27863 14.5026 2.27523 14.4982 2.27106V0.669775C14.4237 0.661272 14.0539 0.661273 13.971 0.669265V2.27183L13.954 2.27889C13.954 1.73838 13.954 1.19781 13.954 0.657191C13.954 0.65498 13.9568 0.65277 13.9599 0.647753H14.4881C14.4912 0.645234 14.4941 0.642383 14.4966 0.63925C14.4977 0.636753 14.4981 0.634047 14.498 0.631342C14.498 0.458731 14.498 0.286091 14.498 0.113423C14.498 0.111127 14.5006 0.108916 14.502 0.106706C14.5033 0.104495 14.5065 0.102539 14.5087 0.102539C15.0493 0.102539 15.5899 0.102539 16.1304 0.102539C16.1315 0.107981 16.1325 0.113338 16.1336 0.11878C16.1295 0.122521 16.1251 0.126262 16.1216 0.130089C16.0791 0.151772 16.0332 0.14616 15.9883 0.14616C15.5528 0.146755 15.1172 0.14616 14.6816 0.14684C14.6401 0.14684 14.5966 0.139017 14.5474 0.169798C14.5368 0.308992 14.5411 0.454139 14.5453 0.592653C14.593 0.628111 14.6367 0.619268 14.6781 0.619353C15.1165 0.620033 15.5549 0.62026 15.9932 0.620033C16.0358 0.620033 16.0783 0.615951 16.1196 0.629131C16.1295 0.633504 16.1387 0.63929 16.1469 0.646307H16.6741C16.6784 0.650049 16.6799 0.653875 16.6784 0.657616C16.677 0.661358 16.6755 0.663313 16.6741 0.663313Z" fill="#E4352F"/>
    <path d="M10.6879 31.1209V30.5837C10.6943 30.5795 10.6964 30.5769 10.6989 30.5769C10.8766 30.5769 11.0543 30.5769 11.2321 30.5769C11.2357 30.5807 11.2392 30.5846 11.2429 30.5885C11.274 30.6998 11.2514 30.8135 11.2583 30.926C11.2614 30.9761 11.2498 31.028 11.2723 31.0762C11.3113 31.1031 11.3549 31.0939 11.3964 31.0945C11.4927 31.096 11.589 31.0937 11.6855 31.0958C11.7196 31.0964 11.7543 31.0952 11.7801 31.124C11.7897 31.3037 11.7838 31.4834 11.7832 31.6718C11.6028 31.6761 11.4288 31.6718 11.2416 31.6746C11.239 31.8532 11.2416 32.0295 11.2397 32.2182C11.0533 32.2148 10.8713 32.2244 10.6892 32.2117C10.6579 32.1799 10.6621 32.1388 10.6615 32.0998C10.6601 32.0008 10.6615 31.9018 10.6608 31.8029C10.6608 31.7721 10.6634 31.7404 10.6451 31.7111C10.6111 31.6863 10.5703 31.6926 10.5314 31.6928C10.2685 31.6939 10.0056 31.6874 9.7426 31.6888C9.70102 31.6888 9.65757 31.6962 9.6086 31.6602C9.61106 31.4911 9.60222 31.3145 9.61412 31.1375C9.65239 31.1219 9.69235 31.1305 9.73147 31.1304C10.0199 31.1294 10.3083 31.1304 10.5967 31.1294C10.6269 31.1294 10.6587 31.1379 10.6879 31.1209Z" fill="#3C3C3C"/>
    <path d="M14.4973 28.9614L14.5143 28.9685V34.3779C14.519 34.3823 14.5209 34.3855 14.5228 34.3858C14.5285 34.3862 14.5342 34.3862 14.5398 34.3858H16.6741C16.6752 34.3912 16.6762 34.3966 16.6773 34.402C16.6733 34.4058 16.6688 34.4096 16.6653 34.4134C16.5914 34.4427 16.5141 34.425 16.4385 34.4296C16.3517 34.4348 16.2636 34.4188 16.1708 34.4433C16.133 34.6032 16.1815 34.77 16.1426 34.9195C16.1015 34.9581 16.0608 34.9561 16.0216 34.9562C15.5515 34.957 15.0815 34.957 14.6115 34.9562C14.5721 34.9562 14.5318 34.9575 14.4879 34.9237C14.4426 34.7739 14.4944 34.6066 14.4555 34.4381C14.3115 34.4256 14.1668 34.4248 14.0227 34.4356C13.9904 34.4791 13.9972 34.52 13.9972 34.5587C13.9964 34.8192 13.9972 35.0797 13.9965 35.3402C13.9965 35.3823 14.0011 35.4253 13.9806 35.4653L13.9691 35.4772L13.9531 35.4747V34.3949C13.9635 34.3807 13.9786 34.3864 13.9919 34.3864C14.1421 34.3859 14.2922 34.3864 14.4426 34.3864H14.4895C14.4939 34.381 14.4971 34.3789 14.4971 34.3767C14.4973 32.5717 14.4973 30.7666 14.4973 28.9614Z" fill="#E4352F"/>
    <path d="M29.7347 21.8698H30.2703C30.2844 21.8593 30.2782 21.8442 30.2789 21.8309C30.2797 21.8139 30.2789 21.7969 30.2789 21.7799V3.91138L30.2946 3.91784V21.8795C30.2916 21.8825 30.2899 21.8852 30.2875 21.8863C30.2847 21.887 30.2819 21.8872 30.279 21.8868H29.7603C29.746 21.897 29.7518 21.9123 29.7518 21.9254C29.7514 22.0755 29.7518 22.2258 29.7518 22.376V22.423C29.7466 22.4275 29.7447 22.43 29.7422 22.4309C29.7394 22.4313 29.7365 22.4313 29.7337 22.4309H29.216C29.2135 22.4329 29.2113 22.4352 29.2094 22.4377C29.2082 22.44 29.2075 22.4427 29.2076 22.4453C29.2076 22.6182 29.2076 22.7911 29.2076 22.964C29.2076 22.9663 29.2049 22.9685 29.2036 22.9708C29.2015 22.9725 29.1993 22.9739 29.1968 22.975C29.194 22.9754 29.1912 22.9754 29.1883 22.975H28.6782C28.6755 22.9752 28.6729 22.9758 28.6703 22.9765C28.6681 22.9782 28.6661 22.9803 28.6645 22.9826C28.6635 22.9854 28.6632 22.9883 28.6634 22.9911C28.6634 23.164 28.6634 23.3369 28.6634 23.5098C28.6634 23.5119 28.6603 23.5141 28.6565 23.5189H19.4212C19.4165 23.5236 19.4139 23.5253 19.4127 23.5274C19.4118 23.5302 19.4115 23.5331 19.4119 23.5359V24.0461C19.4123 24.0489 19.4123 24.0518 19.4119 24.0546C19.411 24.057 19.4084 24.0589 19.4041 24.0638H16.1553C16.1507 24.0687 16.148 24.0704 16.1468 24.0729C16.1464 24.0757 16.1464 24.0786 16.1468 24.0814V27.3125L16.1311 27.3061V24.0538C16.1329 24.0515 16.135 24.0495 16.1373 24.0478C16.1398 24.0468 16.1426 24.0464 16.1453 24.0466H19.382C19.3846 24.0461 19.387 24.0452 19.3893 24.0439C19.3912 24.0418 19.3939 24.0401 19.3947 24.0376C19.3953 24.0348 19.3953 24.0319 19.3947 24.0291V23.5023C19.399 23.4986 19.4032 23.4948 19.4073 23.4909C19.4642 23.4654 19.5247 23.4752 19.5836 23.4752C22.537 23.4747 25.4902 23.4744 28.4433 23.4744C28.4962 23.4744 28.551 23.4844 28.6091 23.4532C28.6286 23.3478 28.6138 23.2374 28.6186 23.1279C28.6211 23.0719 28.6088 23.014 28.6391 22.9615C28.6783 22.9239 28.7282 22.9335 28.7752 22.9318C28.8982 22.9274 29.0218 22.9397 29.14 22.9244C29.1695 22.8899 29.163 22.855 29.1633 22.8223C29.1645 22.7155 29.1626 22.6086 29.1644 22.5017C29.165 22.4708 29.1663 22.4395 29.1869 22.4134C29.2284 22.3802 29.278 22.3892 29.3252 22.3879C29.4459 22.3844 29.5671 22.3937 29.6815 22.3824C29.7137 22.3474 29.707 22.3121 29.7075 22.2791C29.7086 22.1775 29.7075 22.0759 29.7082 21.9743C29.7091 21.9373 29.7079 21.8999 29.7347 21.8698Z" fill="#FEFEFE"/>
    <path d="M19.395 32.2096V31.6654L19.406 31.6549C19.486 31.6263 19.5689 31.6445 19.6504 31.6402C19.7318 31.6359 19.8141 31.6474 19.9019 31.6299C19.9294 31.4705 19.9019 31.3117 19.9184 31.1549C19.9204 31.1449 19.9243 31.1354 19.9299 31.127C19.9313 31.1249 19.933 31.123 19.9351 31.1216C19.9371 31.1202 19.9394 31.1191 19.9419 31.1186C19.9443 31.1181 19.9468 31.118 19.9493 31.1185C19.9518 31.1189 19.9541 31.1198 19.9562 31.1212H21.0276C21.0288 31.1265 21.0299 31.1318 21.0311 31.1371C21.0272 31.1408 21.0233 31.1446 21.0194 31.1484C20.9799 31.1692 20.9367 31.1645 20.8946 31.1645C20.6343 31.1651 20.374 31.1645 20.1137 31.1651C20.0748 31.1651 20.0342 31.1582 19.9886 31.188C19.9796 31.3296 19.9793 31.4716 19.9878 31.6132C20.0303 31.6464 20.0713 31.6387 20.11 31.6387C20.3735 31.6394 20.6363 31.6387 20.8994 31.6393C20.9388 31.6393 20.9788 31.6358 21.0174 31.6484C21.0272 31.6527 21.0364 31.6584 21.0446 31.6654H21.5718L21.5751 31.6815C21.5711 31.6853 21.5671 31.689 21.5632 31.6928C21.4902 31.7218 21.4138 31.7068 21.3391 31.7081C21.2356 31.7101 21.1321 31.7111 21.0287 31.7074C20.8627 31.714 20.6963 31.7012 20.536 31.7143C20.5044 31.7487 20.5105 31.7839 20.5105 31.817C20.5093 31.919 20.511 32.0203 20.5096 32.1219C20.5091 32.1529 20.5087 32.1844 20.4895 32.2114C20.4448 32.2454 20.3924 32.234 20.3425 32.2356C20.228 32.2392 20.1129 32.2296 20.0024 32.242C19.9725 32.3059 19.9864 32.3631 19.9827 32.4187C19.9753 32.5277 19.999 32.6383 19.9663 32.7461C19.9626 32.7499 19.9588 32.7537 19.9549 32.7574L19.9392 32.7538V32.2266C19.9325 32.2186 19.9268 32.2099 19.9222 32.2006C19.9029 32.08 19.9179 31.9586 19.9129 31.8376C19.9113 31.7988 19.92 31.7582 19.8901 31.7142C19.7503 31.7019 19.605 31.7096 19.4667 31.7103C19.4283 31.7564 19.4406 31.8003 19.4378 31.8414C19.4297 31.9617 19.4548 32.0836 19.4213 32.2029L19.4099 32.2137L19.395 32.2096Z" fill="#BB2B26"/>
    <path d="M9.61652 31.138V31.6567C9.62681 31.671 9.64203 31.6652 9.65513 31.6652C9.96957 31.6655 10.284 31.6655 10.5983 31.6652H10.6794C10.6839 31.67 10.6871 31.6718 10.6879 31.6741C10.6883 31.6798 10.6883 31.6855 10.6879 31.6911V32.2098L10.6757 32.221C10.4972 32.2431 10.3195 32.2522 10.1418 32.2158C10.1077 32.171 10.1199 32.1186 10.1177 32.0688C10.1126 31.9543 10.1276 31.8392 10.1054 31.7154C9.95333 31.704 9.80623 31.7075 9.65258 31.7137C9.63489 31.8392 9.6468 31.9546 9.64254 32.0693C9.64084 32.1164 9.65105 32.1659 9.62018 32.2085C9.56321 32.2044 9.57673 32.1574 9.5752 32.1262C9.57035 32.025 9.57401 31.9237 9.57307 31.8223C9.57307 31.789 9.57631 31.7543 9.55607 31.723C9.49655 31.6983 9.43388 31.7131 9.37291 31.7089C9.2753 31.7023 9.17607 31.7243 9.07973 31.6927C9.0759 31.6889 9.07216 31.6851 9.06842 31.6813C9.0697 31.676 9.07089 31.6708 9.07216 31.6656C9.24426 31.6656 9.41633 31.6656 9.58838 31.6656C9.59059 31.6656 9.59289 31.663 9.5951 31.6615C9.59731 31.6601 9.59918 31.657 9.59918 31.6548C9.59918 31.4827 9.59918 31.3107 9.59918 31.1386C9.60006 31.1371 9.6013 31.1359 9.60279 31.135C9.60427 31.1341 9.60596 31.1336 9.60769 31.1336C9.60942 31.1335 9.61113 31.1339 9.61268 31.1346C9.61422 31.1354 9.61555 31.1366 9.61652 31.138Z" fill="#BB2B26"/>
    <path d="M29.2068 2.84002V3.36666C29.2261 3.53264 29.2153 3.69887 29.2114 3.86511C29.2096 3.88213 29.202 3.89803 29.19 3.91016C29.1779 3.92229 29.162 3.92992 29.145 3.93179C28.9827 3.93595 28.8203 3.94784 28.6583 3.92473C28.6482 3.92006 28.6398 3.91234 28.6342 3.90265C28.607 3.73659 28.6189 3.56976 28.6267 3.4031C28.6274 3.389 28.6374 3.37762 28.6462 3.36666C28.6792 3.33787 28.7198 3.34118 28.759 3.34076C28.858 3.33991 28.9569 3.34076 29.0558 3.34016C29.0865 3.34016 29.1183 3.34347 29.1476 3.32394C29.1722 3.28342 29.1606 3.23713 29.1636 3.19279C29.1713 3.07786 29.1466 2.96132 29.1799 2.84758C29.1811 2.84523 29.1827 2.84315 29.1848 2.84148C29.1868 2.83981 29.1892 2.83857 29.1917 2.83786C29.1942 2.83715 29.1969 2.83698 29.1995 2.83735C29.2021 2.83772 29.2046 2.83863 29.2068 2.84002Z" fill="#E4352F"/>
    <path d="M1.97971 21.8697V22.4133C1.96756 22.4254 1.95161 22.4331 1.93452 22.4349C1.76829 22.439 1.60206 22.4496 1.43608 22.4303H0.909438C0.908164 22.4251 0.906975 22.4199 0.905701 22.4147L0.916998 22.4035C1.03065 22.3695 1.14719 22.3943 1.2622 22.3872C1.30663 22.3844 1.35233 22.3926 1.40109 22.3702C1.41875 22.2498 1.4055 22.1285 1.41 22.0079C1.41179 21.9606 1.40151 21.9109 1.43608 21.8696C1.44712 21.8607 1.45868 21.8507 1.47286 21.8501C1.63791 21.8434 1.80312 21.8288 1.96765 21.8586L1.97971 21.8697Z" fill="#E4352F"/>
    <path d="M13.4089 28.3997V27.863C13.4154 27.8588 13.4174 27.8562 13.4199 27.8562C13.5974 27.8562 13.775 27.8562 13.9526 27.8562C13.9575 27.863 13.9651 27.8689 13.9662 27.8772C13.9882 28.0437 13.9882 28.2123 13.9662 28.3789C13.9651 28.3873 13.9577 28.393 13.9526 28.3998C13.9415 28.4088 13.93 28.4187 13.9158 28.4193C13.7507 28.426 13.5855 28.4406 13.421 28.4108L13.4089 28.3997Z" fill="#3C3C3C"/>
    <path d="M16.691 27.856H17.2177C17.236 28.0321 17.2216 28.2087 17.2252 28.3851C17.2247 28.3905 17.2229 28.3957 17.2199 28.4002C17.2169 28.4048 17.2129 28.4086 17.2082 28.4113C17.0298 28.4282 16.8515 28.4493 16.6743 28.3996C16.6694 28.3928 16.6617 28.3869 16.6606 28.3786C16.6387 28.2121 16.6387 28.0435 16.6606 27.877C16.6617 27.8685 16.6691 27.8628 16.6743 27.856C16.6797 27.8475 16.6853 27.8475 16.691 27.856Z" fill="#3C3C3C"/>
    <path d="M12.8646 28.9439V28.4072C12.8711 28.403 12.8731 28.4004 12.8756 28.4004C13.0531 28.4004 13.2307 28.4004 13.4083 28.4004C13.4117 28.4048 13.4173 28.4089 13.418 28.4138C13.4435 28.5903 13.452 28.7667 13.4134 28.9427C13.4043 28.9537 13.3915 28.9607 13.3774 28.9626C13.2104 28.9711 13.0433 28.9841 12.8769 28.9553L12.8646 28.9439Z" fill="#3C3C3C"/>
    <path d="M17.2351 28.4002H17.7617C17.78 28.5755 17.7655 28.7513 17.7695 28.9268C17.7693 28.9322 17.7678 28.9374 17.7652 28.9421C17.7626 28.9468 17.7589 28.9508 17.7544 28.9537C17.5793 28.9813 17.4039 28.9752 17.2284 28.9572C17.2184 28.9524 17.2103 28.9445 17.2052 28.9346C17.1787 28.772 17.193 28.6084 17.1967 28.4452C17.1984 28.4282 17.206 28.4123 17.2181 28.4002C17.2238 28.3917 17.2294 28.3917 17.2351 28.4002Z" fill="#3C3C3C"/>
    <path d="M12.3205 29.4878V28.9511C12.327 28.947 12.329 28.9443 12.3315 28.9443C12.509 28.9443 12.6865 28.9443 12.8641 28.9443C12.8675 28.9488 12.8732 28.9528 12.8739 28.9578C12.8994 29.1343 12.9079 29.3107 12.8693 29.4867C12.8602 29.4976 12.8474 29.5047 12.8333 29.5066C12.6663 29.5151 12.4992 29.5281 12.3327 29.4993L12.3205 29.4878Z" fill="#3C3C3C"/>
    <path d="M17.2178 29.4878H16.6811C16.6769 29.4814 16.6743 29.4793 16.6743 29.4768C16.6743 29.2993 16.6743 29.1218 16.6743 28.9442C16.6811 28.9392 16.6871 28.9316 16.6953 28.9305C16.8618 28.9086 17.0305 28.9086 17.197 28.9305C17.2055 28.9316 17.2112 28.939 17.2179 28.9442C17.2269 28.9552 17.2368 28.9668 17.2374 28.981C17.2441 29.146 17.2587 29.3112 17.2289 29.4757L17.2178 29.4878Z" fill="#3C3C3C"/>
    <path d="M17.7794 28.9444H18.3061C18.3243 29.1197 18.3098 29.2955 18.3139 29.471C18.3137 29.4764 18.3122 29.4816 18.3096 29.4863C18.3069 29.491 18.3032 29.495 18.2988 29.4979C18.1236 29.5255 17.9483 29.5194 17.7727 29.5014C17.7628 29.4966 17.7546 29.4886 17.7495 29.4788C17.723 29.3162 17.7374 29.1526 17.741 28.9894C17.7428 28.9724 17.7503 28.9564 17.7625 28.9444C17.7681 28.9359 17.7738 28.9359 17.7794 28.9444Z" fill="#3C3C3C"/>
    <path d="M11.7764 30.032V29.4953C11.7829 29.4912 11.7849 29.4885 11.7874 29.4885C11.9649 29.4885 12.1425 29.4885 12.3201 29.4885C12.3235 29.4929 12.3291 29.497 12.3298 29.5019C12.3553 29.6785 12.3638 29.8549 12.3252 30.0309C12.3162 30.0418 12.3033 30.0489 12.2892 30.0508C12.1222 30.0593 11.9551 30.0723 11.7887 30.0435L11.7764 30.032Z" fill="#3C3C3C"/>
    <path d="M17.7618 30.0322H17.2252C17.221 30.0258 17.2184 30.0237 17.2184 30.0213C17.2184 29.8438 17.2184 29.6662 17.2184 29.4886C17.2252 29.4837 17.2311 29.476 17.2394 29.4749C17.4059 29.453 17.5745 29.453 17.741 29.4749C17.7495 29.476 17.7552 29.4834 17.762 29.4886C17.7709 29.4997 17.7809 29.5112 17.7815 29.5254C17.7882 29.6904 17.8028 29.8556 17.773 30.0202L17.7618 30.0322Z" fill="#3C3C3C"/>
    <path d="M18.3236 29.4883H18.8503C18.8685 29.6636 18.854 29.8395 18.8581 30.0149C18.8579 30.0203 18.8564 30.0255 18.8538 30.0302C18.8511 30.0349 18.8474 30.0389 18.843 30.0419C18.6678 30.0695 18.4925 30.0634 18.3169 30.0454C18.307 30.0405 18.2988 30.0326 18.2937 30.0228C18.2672 29.8601 18.2816 29.6966 18.2852 29.5333C18.287 29.5163 18.2945 29.5004 18.3066 29.4883C18.3123 29.4798 18.3179 29.4798 18.3236 29.4883Z" fill="#3C3C3C"/>
    <path d="M11.232 30.5764V30.0398C11.2385 30.0356 11.2405 30.033 11.243 30.033C11.4205 30.033 11.598 30.033 11.7756 30.033C11.779 30.0375 11.7848 30.0415 11.7855 30.0464C11.8096 30.2239 11.8218 30.4013 11.7785 30.5779C11.7559 30.5982 11.7275 30.6018 11.6994 30.6024C11.5698 30.6049 11.4401 30.6046 11.3105 30.6024C11.2819 30.6019 11.2542 30.5968 11.232 30.5764Z" fill="#3C3C3C"/>
    <path d="M18.3061 30.5762H17.7694C17.7653 30.5697 17.7626 30.5677 17.7626 30.5652C17.7626 30.3877 17.7626 30.2101 17.7626 30.0326C17.7694 30.0276 17.7754 30.02 17.7836 30.0189C17.9501 29.997 18.1188 29.997 18.2853 30.0189C18.2938 30.02 18.2995 30.0274 18.3063 30.0326C18.3152 30.0436 18.3251 30.0551 18.3257 30.0693C18.3324 30.2344 18.347 30.3996 18.3172 30.5641L18.3061 30.5762Z" fill="#3C3C3C"/>
    <path d="M18.8679 30.0327H19.3946C19.4129 30.2081 19.3983 30.3839 19.4024 30.5594C19.4022 30.5647 19.4007 30.57 19.3981 30.5747C19.3954 30.5793 19.3917 30.5833 19.3873 30.5863C19.2121 30.6139 19.0368 30.6078 18.8612 30.5898C18.8513 30.585 18.8431 30.577 18.838 30.5672C18.8115 30.4045 18.8259 30.241 18.8296 30.0778C18.8313 30.0607 18.8388 30.0448 18.851 30.0327C18.8566 30.0242 18.8623 30.0242 18.8679 30.0327Z" fill="#3C3C3C"/>
    <path d="M18.8503 31.1206H18.3136C18.3095 31.1142 18.3068 31.1121 18.3068 31.1097C18.3068 30.9321 18.3068 30.7546 18.3068 30.577C18.3136 30.5721 18.3196 30.5644 18.3278 30.5633C18.4943 30.5414 18.663 30.5414 18.8295 30.5633C18.838 30.5644 18.8437 30.5718 18.8505 30.577C18.8594 30.588 18.8693 30.5996 18.8699 30.6138C18.8766 30.7788 18.8912 30.944 18.8614 31.1086L18.8503 31.1206Z" fill="#3C3C3C"/>
    <path d="M19.412 30.5767H19.9387C19.9523 30.7576 19.9523 30.9394 19.9387 31.1203C19.9266 31.1324 19.9108 31.14 19.8938 31.1418C19.7316 31.146 19.5692 31.1579 19.4072 31.1348C19.397 31.1301 19.3886 31.1224 19.3831 31.1127C19.3559 30.9466 19.3678 30.7798 19.3756 30.6131C19.3763 30.599 19.3862 30.5876 19.395 30.5767C19.4007 30.5682 19.4063 30.5682 19.412 30.5767Z" fill="#3C3C3C"/>
    <path d="M19.3946 31.6646H18.8579C18.8538 31.6581 18.8511 31.6561 18.8511 31.6536C18.8511 31.4761 18.8511 31.2985 18.8511 31.1209C18.8579 31.116 18.8639 31.1084 18.8721 31.1073C19.0386 31.0853 19.2073 31.0853 19.3738 31.1073C19.3823 31.1084 19.388 31.1158 19.3948 31.1209C19.3997 31.1277 19.4073 31.1337 19.4084 31.1419C19.4304 31.3084 19.4304 31.4771 19.4084 31.6436C19.4072 31.6518 19.3995 31.6578 19.3946 31.6646Z" fill="#3C3C3C"/>
    <path d="M1.98028 2.82324V3.36687C1.97637 3.37044 1.97238 3.37409 1.96856 3.37775C1.796 3.40183 1.62093 3.40183 1.44837 3.37775C1.44438 3.37418 1.44055 3.37044 1.43665 3.36679V2.83021C1.4431 2.82605 1.44514 2.82341 1.4476 2.82341C1.62513 2.8233 1.80269 2.82324 1.98028 2.82324Z" fill="#3C3C3C"/>
    <path d="M1.43603 3.91089H0.892395V3.37423C0.898851 3.37007 0.900889 3.36743 0.903353 3.36743C1.08088 3.36743 1.25844 3.36743 1.43603 3.36743C1.44495 3.37847 1.45488 3.39003 1.45548 3.40421C1.46219 3.56926 1.4768 3.73447 1.44698 3.899L1.43603 3.91089Z" fill="#3C3C3C"/>
    <path d="M1.43665 22.4309C1.44743 22.4337 1.45075 22.4237 1.45737 22.4188C1.46197 22.4165 1.4669 22.4149 1.47198 22.4141C1.64147 22.4141 1.8109 22.4141 1.98028 22.4141V22.9507C1.97382 22.9548 1.97178 22.9575 1.9694 22.9575C1.79748 22.9575 1.62556 22.9575 1.45363 22.9575C1.45269 22.9589 1.45142 22.96 1.44994 22.9608C1.44846 22.9616 1.44681 22.962 1.44514 22.962C1.44347 22.962 1.44182 22.9616 1.44034 22.9608C1.43886 22.96 1.43759 22.9589 1.43665 22.9575V22.4309Z" fill="#3C3C3C"/>
    <path d="M29.1905 3.91082V3.39471C29.1946 3.38409 29.21 3.38137 29.2075 3.36719H29.7341C29.7385 3.37092 29.7399 3.37475 29.7385 3.37848C29.737 3.38222 29.7356 3.38418 29.7341 3.38418C29.7341 3.5561 29.7341 3.72802 29.7341 3.89995C29.7341 3.90216 29.7314 3.90436 29.7273 3.91082H29.1905Z" fill="#3C3C3C"/>
    <path d="M29.1898 2.84023C29.1898 3.01215 29.1898 3.18408 29.1898 3.356C29.1898 3.35821 29.1871 3.36042 29.183 3.36687H28.6462V2.85076C28.6503 2.84015 28.6657 2.83743 28.6632 2.82324H29.1898C29.1941 2.82698 29.1956 2.8308 29.1941 2.83454C29.1927 2.83828 29.1913 2.84023 29.1898 2.84023Z" fill="#3C3C3C"/>
    <path d="M1.43603 21.8699V22.4065C1.42957 22.4106 1.42753 22.4133 1.42515 22.4133C1.25323 22.4133 1.08131 22.4133 0.909384 22.4133C0.908441 22.4147 0.907174 22.4159 0.905694 22.4166C0.904213 22.4174 0.902564 22.4178 0.900889 22.4178C0.899215 22.4178 0.897565 22.4174 0.896085 22.4166C0.894605 22.4159 0.893338 22.4147 0.892395 22.4133V21.8867C0.903183 21.8895 0.906495 21.8796 0.913121 21.8746C0.917723 21.8723 0.922649 21.8707 0.927731 21.8699C1.09722 21.8699 1.26665 21.8699 1.43603 21.8699Z" fill="#3C3C3C"/>
    <path d="M11.2322 23.5022V23.5192H1.98793L1.98096 23.5022H11.2322Z" fill="#FEFEFE"/>
    <path d="M10.6879 32.2094C10.866 32.2094 11.044 32.2094 11.222 32.2094C11.2242 32.2094 11.2264 32.2064 11.2305 32.2029V31.6751C11.233 31.6719 11.2359 31.6691 11.239 31.6666C11.2415 31.6655 11.2442 31.6651 11.2469 31.6652H11.7641C11.7664 31.6652 11.7687 31.663 11.7711 31.6617C11.7734 31.6605 11.7757 31.6575 11.7757 31.6553C11.7757 31.4773 11.7757 31.2993 11.7757 31.1212C11.7796 31.1177 11.7833 31.1141 11.787 31.1106C11.8668 31.0818 11.9494 31.1003 12.0307 31.0955C12.112 31.0908 12.1941 31.104 12.2822 31.0846C12.3145 30.9201 12.2737 30.7522 12.3056 30.5889C12.31 30.5793 12.3172 30.5713 12.3262 30.5659C12.4397 30.5357 12.5558 30.5574 12.6702 30.5512C12.7202 30.5484 12.7713 30.557 12.827 30.5379C12.8578 30.3748 12.8185 30.2077 12.8497 30.0447C12.8541 30.0351 12.8612 30.027 12.8702 30.0215C12.9838 29.9911 13.0997 30.013 13.2144 30.0068C13.2644 30.004 13.3154 30.0125 13.3711 29.9934C13.4021 29.8304 13.3626 29.6632 13.3939 29.5003C13.3984 29.4907 13.4055 29.4826 13.4145 29.4771C13.5311 29.4465 13.65 29.4692 13.7676 29.4624C13.8148 29.4597 13.8632 29.4686 13.9077 29.4511C13.9353 29.41 13.9238 29.3666 13.9264 29.3253C13.9341 29.2022 13.9103 29.0777 13.9417 28.9554C13.9453 28.9516 13.9488 28.9478 13.9525 28.9441H14.4897L14.4967 28.9611H13.978C13.9637 28.9713 13.9695 28.9866 13.9695 28.9997C13.9695 29.1498 13.9695 29.2999 13.9695 29.4504V29.497C13.9645 29.5015 13.9625 29.5048 13.9603 29.5049C13.949 29.5054 13.9377 29.5049 13.9263 29.5049H13.4344C13.4206 29.5157 13.4259 29.5309 13.4259 29.5442C13.4259 29.6942 13.4259 29.8443 13.4259 29.9948V30.0417C13.4203 30.046 13.4184 30.0484 13.416 30.0492C13.4131 30.0497 13.4103 30.0497 13.4075 30.0492H12.8902C12.8878 30.0512 12.8856 30.0535 12.8837 30.056C12.8824 30.0584 12.8818 30.061 12.8818 30.0637C12.8818 30.2365 12.8818 30.4094 12.8818 30.5824C12.8818 30.5847 12.8793 30.587 12.8781 30.5893C12.8761 30.5911 12.8739 30.5925 12.8714 30.5937C12.8686 30.5941 12.8657 30.5941 12.8629 30.5937H12.346C12.3434 30.5958 12.3411 30.5982 12.3391 30.6009C12.3379 30.6034 12.3375 30.6061 12.3376 30.6088C12.3376 30.7816 12.3376 30.9543 12.3376 31.1271C12.3376 31.1293 12.3348 31.1316 12.3315 31.1367H11.8034C11.7984 31.1415 11.7958 31.1432 11.7949 31.1452C11.7939 31.1479 11.7935 31.1508 11.7938 31.1537C11.7938 31.3265 11.7938 31.4992 11.7938 31.6719C11.7938 31.6742 11.7908 31.6763 11.787 31.6813H11.2591C11.2542 31.6861 11.2515 31.6878 11.2506 31.6903C11.2498 31.6931 11.2496 31.696 11.25 31.6988V32.2086C11.2504 32.2114 11.2504 32.2143 11.25 32.2171C11.2491 32.2195 11.2466 32.2213 11.2423 32.2263H10.7151C10.7097 32.2314 10.7066 32.2331 10.7059 32.2353C10.7055 32.2409 10.7055 32.2466 10.7059 32.2523V32.7621C10.6983 32.7739 10.6865 32.7706 10.6757 32.7706C10.1461 32.7706 9.61642 32.7706 9.08673 32.7706C9.07823 32.7706 9.07041 32.7698 9.06267 32.7693L9.05536 32.7536C9.06379 32.7465 9.07318 32.7407 9.08325 32.7362C9.12466 32.7228 9.16751 32.7269 9.20986 32.7269C9.64635 32.7265 10.0828 32.7263 10.5193 32.7265C10.5612 32.7265 10.6044 32.7314 10.6503 32.7088C10.6719 32.5958 10.656 32.4798 10.6612 32.3649C10.6636 32.3121 10.6501 32.2563 10.6879 32.2094Z" fill="#FEFEFE"/>
    <path d="M16.6741 34.4032V34.3862L16.6898 34.3927V35.4844C16.6868 35.4874 16.6852 35.4901 16.6828 35.4911C16.68 35.4918 16.6771 35.492 16.6743 35.4916H13.9666C13.964 35.4912 13.9615 35.4904 13.9591 35.4892L13.9531 35.4747H13.9701C14.014 35.4383 14.0669 35.4477 14.117 35.4477C14.91 35.4472 15.7031 35.4469 16.4963 35.447C16.5408 35.447 16.587 35.4547 16.6289 35.431C16.6532 35.3944 16.6459 35.3538 16.6464 35.3149C16.6471 35.0543 16.6464 34.7938 16.6471 34.5332C16.6471 34.4883 16.6412 34.4415 16.6741 34.4032Z" fill="#FEFEFE"/>
    <path d="M11.232 24.0464H14.4902L14.4972 24.0634H11.239L11.232 24.0464Z" fill="#444042"/>
    <path d="M21.5717 31.6825V31.6655L21.5875 31.672V32.765C21.5665 32.7778 21.5437 32.7691 21.522 32.7705C21.4965 32.7722 21.471 32.7709 21.4455 32.7709H19.9461L19.9391 32.7539H19.9562C19.9972 32.7192 20.0471 32.7271 20.0946 32.727C20.5311 32.7264 20.9676 32.7262 21.404 32.7264C21.4461 32.7264 21.4891 32.7321 21.5274 32.7128C21.5503 32.6771 21.5444 32.6394 21.5444 32.6032C21.545 32.3396 21.5444 32.076 21.5451 31.8124C21.5449 31.7676 21.5388 31.7209 21.5717 31.6825Z" fill="#FEFEFE"/>
    <path d="M16.6741 0.663246V0.64624L16.6911 0.653213V2.27882L16.6741 2.27185V0.663246Z" fill="#444042"/>
    <path d="M9.07235 32.7528H9.05536V31.6725L9.07235 31.6655V31.6825C9.1014 31.7151 9.09936 31.7555 9.09944 31.7948C9.10007 32.0768 9.10007 32.3587 9.09944 32.6405C9.09936 32.6798 9.10131 32.7202 9.07235 32.7528Z" fill="#E4352F"/>
    <path d="M9.61654 31.1381H9.59955C9.6015 31.1332 9.60354 31.1285 9.60651 31.1211H10.6868C10.6849 31.1259 10.6828 31.1307 10.6798 31.1381H9.61654Z" fill="#E4352F"/>
    <path d="M18.8678 30.0322H18.8508V29.4885L18.8678 29.4955V30.0322Z" fill="#FEFEFE"/>
    <path d="M19.9391 31.1205V30.5769L19.9561 30.5839V31.1205H19.9391Z" fill="#FEFEFE"/>
    <path d="M16.6911 27.8554H16.6741V27.3118L16.6911 27.3187V27.8554Z" fill="#FEFEFE"/>
    <path d="M21.0444 31.6647H21.0274C21.0121 31.6479 21.0034 31.6261 21.0029 31.6034C20.9986 31.4687 20.9986 31.3341 21.0029 31.1994C21.0034 31.1767 21.0121 31.1549 21.0274 31.1381V31.1211L21.0444 31.128V31.6647Z" fill="#FEFEFE"/>
    <path d="M16.1467 0.645683H16.1297C16.1144 0.628861 16.1057 0.607085 16.1052 0.584354C16.1008 0.449749 16.1008 0.315087 16.1052 0.180368C16.1057 0.157637 16.1144 0.135861 16.1297 0.119039V0.102051L16.1467 0.109016V0.645683Z" fill="#444042"/>
    <path d="M18.3237 29.488H18.3067V28.9443L18.3237 28.9513V29.488Z" fill="#FEFEFE"/>
    <path d="M19.412 30.5763H19.395V30.0327L19.412 30.0397V30.5763Z" fill="#FEFEFE"/>
    <path d="M17.7795 28.9438H17.7625V28.4001L17.7795 28.4071V28.9438Z" fill="#FEFEFE"/>
    <path d="M19.9387 32.2096V32.2266H19.402L19.395 32.2096H19.412C19.4288 32.1943 19.4506 32.1856 19.4733 32.1851C19.608 32.1808 19.7427 32.1808 19.8773 32.1851C19.9001 32.1856 19.9218 32.1943 19.9387 32.2096Z" fill="#FEFEFE"/>
    <path d="M17.2352 28.3996H17.2182V27.856L17.2352 27.8629V28.3996Z" fill="#FEFEFE"/>
    <path d="M28.6626 2.2953H28.6462V2.27884C28.6484 2.27838 28.6508 2.2785 28.653 2.27917C28.6552 2.27983 28.6572 2.28103 28.6588 2.28266C28.6604 2.28429 28.6616 2.2863 28.6623 2.2885C28.663 2.2907 28.6631 2.29304 28.6626 2.2953Z" fill="#FEFEFE"/>
    <path d="M29.1905 2.83949V2.82302C29.1927 2.82257 29.1951 2.82269 29.1973 2.82335C29.1995 2.82402 29.2015 2.82522 29.2031 2.82685C29.2048 2.82848 29.206 2.83049 29.2066 2.83269C29.2073 2.83489 29.2074 2.83723 29.207 2.83949H29.1905Z" fill="#FEFEFE"/>
    <path d="M1.43655 22.9583H1.45301V22.9747C1.45075 22.9752 1.44842 22.9751 1.44621 22.9744C1.44401 22.9737 1.44201 22.9725 1.44038 22.9709C1.43875 22.9693 1.43755 22.9673 1.43688 22.965C1.43621 22.9628 1.4361 22.9605 1.43655 22.9583Z" fill="#FEFEFE"/>
    <path d="M0.348232 21.8699H0.364694V21.8863C0.362435 21.8868 0.360101 21.8867 0.357897 21.886C0.355693 21.8853 0.353688 21.8841 0.35206 21.8825C0.350431 21.8809 0.34923 21.8789 0.348562 21.8767C0.347895 21.8745 0.347781 21.8721 0.348232 21.8699Z" fill="#FEFEFE"/>
    <path d="M0.892361 22.4141H0.908822V22.4305C0.906564 22.431 0.904229 22.4309 0.902025 22.4302C0.899821 22.4295 0.897816 22.4283 0.896188 22.4267C0.89456 22.4251 0.893358 22.4231 0.892691 22.4209C0.892023 22.4187 0.89191 22.4163 0.892361 22.4141Z" fill="#FEFEFE"/>
    <path d="M29.7347 3.38368V3.36721C29.7369 3.36676 29.7393 3.36688 29.7415 3.36754C29.7437 3.36821 29.7457 3.36941 29.7473 3.37104C29.7489 3.37267 29.7501 3.37467 29.7508 3.37688C29.7515 3.37908 29.7516 3.38142 29.7511 3.38368H29.7347Z" fill="#FEFEFE"/>
    <path d="M13.4089 23.5023C13.4089 22.7858 13.4089 22.0692 13.4089 21.3526C13.4089 21.3504 13.4121 21.3482 13.4164 21.3425H18.3067C18.3358 21.3752 18.3339 21.4157 18.3339 21.4551C18.3345 22.1 18.3345 22.7448 18.3339 23.3897C18.3339 23.4291 18.3358 23.4696 18.3067 23.5023H13.4089Z" fill="#E4352F"/>
    <path d="M15.5856 26.7676V33.8336C15.5808 33.8381 15.579 33.8408 15.5771 33.8421C15.5743 33.8426 15.5714 33.8426 15.5686 33.8421H15.0584C15.0434 33.8156 15.0505 33.7866 15.0505 33.7589C15.0502 31.4539 15.0502 29.149 15.0505 26.8441C15.0505 26.8186 15.0473 26.7931 15.0546 26.7681C15.061 26.7627 15.0661 26.7543 15.0749 26.7532C15.2375 26.7321 15.4021 26.7323 15.5646 26.7538C15.5727 26.7549 15.5787 26.7627 15.5856 26.7676Z" fill="#FFBFBB"/>
    <path d="M18.3067 23.5023V21.3425H19.3951C19.4242 21.3752 19.4223 21.4157 19.4223 21.4551C19.4229 22.1 19.4229 22.7448 19.4223 23.3897C19.4223 23.4291 19.4242 23.4696 19.3951 23.5023H18.3067Z" fill="#BB2B26"/>
    <path d="M15.5855 26.7674H15.0584C15.0461 26.7494 15.0499 26.729 15.0499 26.7096C15.0499 26.2053 15.0499 25.7011 15.0499 25.1967C15.0499 25.1771 15.0476 25.157 15.0557 25.1381C15.0595 25.1339 15.0629 25.1269 15.0675 25.1263C15.2405 25.1008 15.4134 25.0857 15.5852 25.1348L15.5855 26.7674Z" fill="#FFC1BD"/>
    <path d="M15.5856 25.135C15.4131 25.135 15.2406 25.135 15.0681 25.135C15.066 25.135 15.0639 25.1381 15.0584 25.1426V33.842L15.0414 33.8351V24.0481H15.5787C15.5819 24.0517 15.5854 24.0537 15.5854 24.0557C15.5856 24.4155 15.5856 24.7752 15.5856 25.135Z" fill="#FFCECB"/>
    <path d="M13.9531 28.3996V27.856H14.4876C14.4996 27.8633 14.4967 27.8752 14.4967 27.8859C14.4967 28.0472 14.4967 28.2084 14.4967 28.3696C14.4967 28.3781 14.4957 28.3859 14.4952 28.3928C14.4919 28.3959 14.49 28.399 14.4878 28.3993C14.4821 28.3997 14.4764 28.3997 14.4708 28.3993L13.9531 28.3996Z" fill="#FFCECB"/>
    <path d="M16.6734 27.856V28.3996H16.1389C16.1269 28.3923 16.1298 28.3804 16.1298 28.3696C16.1298 28.2084 16.1298 28.0472 16.1298 27.886C16.1298 27.8775 16.1309 27.8697 16.1313 27.8628C16.1346 27.8597 16.1365 27.8566 16.1388 27.8562C16.1444 27.8559 16.1501 27.8559 16.1557 27.8562L16.6734 27.856Z" fill="#FFCECB"/>
    <path d="M13.4089 28.9438V28.4001H13.9526V28.9438C13.9415 28.9527 13.93 28.9626 13.9158 28.9632C13.7507 28.9699 13.5855 28.9846 13.421 28.9547L13.4089 28.9438Z" fill="#FFCECB"/>
    <path d="M16.9458 29.0561C17.158 29.0561 17.3301 28.884 17.3301 28.6717C17.3301 28.4594 17.158 28.2874 16.9458 28.2874C16.7335 28.2874 16.5614 28.4594 16.5614 28.6717C16.5614 28.884 16.7335 29.0561 16.9458 29.0561Z" fill="#FFCECB"/>
    <path d="M28.6463 3.3672V3.91139C28.622 3.9369 28.5897 3.9341 28.5589 3.93495C28.5164 3.93614 28.4739 3.93546 28.4313 3.93546C19.841 3.93546 11.2506 3.93546 2.66021 3.93546C2.47884 3.93546 2.29747 3.94064 2.11602 3.93869C2.07656 3.93869 2.0366 3.94124 1.99816 3.9278C1.9877 3.92334 1.97854 3.91629 1.97155 3.90731C1.93516 3.77977 1.9605 3.65009 1.95497 3.52144C1.95276 3.46923 1.94306 3.41345 1.98048 3.36694L28.6463 3.3672Z" fill="#3C3C3C"/>
    <path d="M1.98084 3.91125V21.8696H1.43665V3.91125C1.44345 3.90631 1.4494 3.89866 1.45765 3.89756C1.62433 3.87562 1.79316 3.87562 1.95984 3.89756C1.96808 3.89866 1.97404 3.90631 1.98084 3.91125Z" fill="#3C3C3C"/>
    <path d="M28.6463 21.8698V21.3257C28.6236 21.3008 28.6208 21.2698 28.6194 21.2383C28.618 21.2069 28.6186 21.176 28.6186 21.1448C28.6186 15.4663 28.6188 9.78782 28.6192 4.10933C28.6192 4.04836 28.6038 3.98357 28.6463 3.92838V3.91138H29.1905V21.8698C29.1866 21.8734 29.1826 21.8771 29.1787 21.8807C29.006 21.9048 28.8307 21.9048 28.658 21.8807C28.654 21.8772 28.6502 21.8735 28.6463 21.8698Z" fill="#3C3C3C"/>
    <path d="M29.7342 21.8698V22.4065C29.7278 22.4106 29.7257 22.4133 29.7233 22.4133C29.5457 22.4133 29.3682 22.4133 29.1906 22.4133C29.1869 22.4092 29.1833 22.4048 29.1795 22.4011C29.1609 22.2235 29.1415 22.0459 29.1906 21.8696L29.7342 21.8698Z" fill="#3C3C3C"/>
    <path d="M19.9392 21.3425V21.8612C19.9496 21.8754 19.9647 21.8691 19.9779 21.8697C19.9949 21.8706 20.0119 21.8697 20.0289 21.8697H28.6463C28.6585 21.8818 28.6661 21.8978 28.6679 21.9149C28.6711 22.0783 28.6857 22.242 28.6594 22.405C28.6541 22.415 28.6457 22.423 28.6355 22.428C28.5778 22.449 28.5177 22.4411 28.4586 22.4411C25.6866 22.4416 22.9146 22.4418 20.1426 22.4418C20.0896 22.4418 20.0352 22.4341 19.9734 22.4619C19.9615 22.6105 19.9649 22.7609 19.9719 22.9058C20.0314 22.9398 20.0833 22.9301 20.1334 22.9301C22.3639 22.9306 24.5946 22.9308 26.8253 22.9306C27.3808 22.9306 27.9364 22.9306 28.4919 22.9306C28.5396 22.9306 28.5886 22.9241 28.6341 22.9462L28.6463 22.9581V23.4938C28.6359 23.508 28.6208 23.5016 28.6076 23.5023C28.5906 23.5032 28.5736 23.5023 28.5566 23.5023H19.395V21.3425H19.9392Z" fill="#3C3C3C"/>
    <path d="M19.395 20.7986V21.3258C16.6828 21.3258 13.9706 21.3258 11.2583 21.3258C11.2562 21.3258 11.2542 21.3224 11.2506 21.3192V20.8056C11.2542 20.8025 11.2562 20.7991 11.2583 20.7991C13.9706 20.7988 16.6828 20.7986 19.395 20.7986Z" fill="#3C3C3C"/>
    <path d="M16.13 0.119141V0.646328C15.5945 0.646328 15.059 0.646328 14.5235 0.646328C14.5215 0.646328 14.5194 0.642842 14.5159 0.639696V0.126028C14.5194 0.122882 14.5215 0.119396 14.5235 0.119396C15.059 0.119226 15.5945 0.119141 16.13 0.119141Z" fill="#3C3C3C"/>
    <path d="M11.232 30.5769H11.7756C11.7793 30.581 11.7829 30.5854 11.7867 30.5891C11.8054 30.7667 11.8247 30.9443 11.7756 31.1205H11.239C11.2348 31.1141 11.2322 31.112 11.2322 31.1096C11.2321 30.932 11.232 30.7545 11.232 30.5769Z" fill="#FFC1BD"/>
    <path d="M16.6742 34.4033C16.6742 34.7571 16.6742 35.1109 16.6742 35.4648C16.6742 35.467 16.671 35.4691 16.6666 35.4747H13.9702V34.4052H14.4908C14.4929 34.4068 14.4948 34.4088 14.4964 34.4111C14.4973 34.4136 14.4976 34.4164 14.4974 34.4191C14.4974 34.5861 14.4974 34.7531 14.4974 34.92C14.4974 34.9222 14.5003 34.9244 14.5032 34.9285H16.1238C16.1352 34.9195 16.1296 34.9044 16.1296 34.8912C16.1296 34.7467 16.1296 34.6021 16.1296 34.4582V34.4118C16.1347 34.4073 16.1369 34.404 16.1389 34.404C16.3175 34.4035 16.4959 34.4033 16.6742 34.4033Z" fill="#3C3C3C"/>
    <path d="M29.19 22.4138V22.9505C29.1836 22.9547 29.1815 22.9573 29.1791 22.9573C29.0015 22.9573 28.824 22.9573 28.6464 22.9573C28.6415 22.9505 28.6338 22.9445 28.6327 22.9363C28.6108 22.7698 28.6108 22.6011 28.6327 22.4346C28.6338 22.4261 28.6412 22.4205 28.6464 22.4137C28.6532 22.4087 28.6591 22.4011 28.6674 22.4C28.8339 22.3781 29.0025 22.3781 29.169 22.4C29.1773 22.4013 29.1832 22.4089 29.19 22.4138Z" fill="#3C3C3C"/>
    <path d="M21.5719 31.6824C21.5719 32.036 21.5719 32.3897 21.5719 32.7433C21.5719 32.7455 21.569 32.7476 21.5647 32.7538H19.9563V32.2165C19.9628 32.2125 19.9648 32.2097 19.9672 32.2097C20.1393 32.2097 20.3114 32.2097 20.4835 32.2097C20.5217 32.1772 20.5685 32.1847 20.6126 32.1834C20.7356 32.1795 20.8591 32.1911 20.979 32.176C21.0118 32.1267 20.9995 32.0777 21.0006 32.0314C21.0027 31.9442 21.0006 31.857 21.0018 31.7698C21.0023 31.7386 21.0053 31.7078 21.0273 31.6829L21.5719 31.6824Z" fill="#3C3C3C"/>
    <path d="M21.0265 31.1382V31.6648H19.9576V31.1451C19.9611 31.1419 19.9632 31.1384 19.9653 31.1384C20.319 31.1383 20.6727 31.1382 21.0265 31.1382Z" fill="#3C3C3C"/>
    <path d="M19.395 31.6647V31.1211H19.9387V31.6578C19.9322 31.6619 19.9302 31.6646 19.9277 31.6646C19.7502 31.6647 19.5726 31.6647 19.395 31.6647Z" fill="#FFC1BD"/>
    <path d="M21.0271 31.6824C21.0271 31.8543 21.0271 32.0262 21.0271 32.1981C21.0271 32.2004 21.0244 32.2026 21.0203 32.209H20.4835C20.4835 32.0371 20.4835 31.8652 20.4835 31.6932C20.4835 31.691 20.4862 31.6888 20.4903 31.6824H21.0271Z" fill="#E4352F"/>
    <path d="M19.9386 32.209H19.412V31.6915C19.4193 31.6795 19.4312 31.6825 19.442 31.6825C19.5975 31.6825 19.753 31.6825 19.9086 31.6825C19.9171 31.6825 19.925 31.6835 19.9318 31.6839C19.9349 31.6872 19.938 31.6891 19.9384 31.6914C19.9388 31.697 19.9388 31.7027 19.9384 31.7084L19.9386 32.209Z" fill="#3C3C3C"/>
    <path d="M9.07239 32.7538V31.6824C9.24506 31.6824 9.41772 31.6824 9.59039 31.6824C9.59243 31.6824 9.59447 31.6858 9.5989 31.69V32.2022L9.6159 32.2093C9.63272 32.194 9.65453 32.1852 9.67729 32.1847C9.81204 32.1805 9.94684 32.1805 10.0817 32.1847C10.1047 32.1852 10.1268 32.194 10.1438 32.2096H10.688C10.688 32.3877 10.688 32.5658 10.688 32.744C10.688 32.7461 10.6847 32.7482 10.6803 32.7538H9.07239Z" fill="#3C3C3C"/>
    <path d="M10.1432 32.209H9.61652V31.6915C9.62382 31.6795 9.63571 31.6825 9.6465 31.6825C9.802 31.6825 9.95756 31.6825 10.1132 31.6825C10.1217 31.6825 10.1295 31.6835 10.1364 31.6839C10.1394 31.6872 10.1426 31.6891 10.1429 31.6914C10.1433 31.697 10.1433 31.7027 10.1429 31.7084L10.1432 32.209Z" fill="#E4352F"/>
    <path d="M12.8646 29.488V28.9443H13.4083C13.4132 28.9511 13.4208 28.9571 13.4219 28.9653C13.4438 29.1318 13.4438 29.3005 13.4219 29.467C13.4208 29.4755 13.4134 29.4812 13.4083 29.488C13.3972 29.4969 13.3857 29.5068 13.3715 29.5074C13.2064 29.5141 13.0412 29.5287 12.8767 29.4989L12.8646 29.488Z" fill="#FFC1BD"/>
    <path d="M17.4899 29.6003C17.7022 29.6003 17.8743 29.4282 17.8743 29.2159C17.8743 29.0036 17.7022 28.8315 17.4899 28.8315C17.2776 28.8315 17.1055 29.0036 17.1055 29.2159C17.1055 29.4282 17.2776 29.6003 17.4899 29.6003Z" fill="#FFC1BD"/>
    <path d="M12.3205 30.0322V29.4885H12.8641C12.8691 29.4953 12.8767 29.5013 12.8778 29.5095C12.8997 29.676 12.8997 29.8447 12.8778 30.0112C12.8767 30.0197 12.8693 30.0254 12.8641 30.0322C12.8531 30.0411 12.8415 30.051 12.8273 30.0516C12.6623 30.0583 12.4971 30.0729 12.3326 30.0431L12.3205 30.0322Z" fill="#FFC1BD"/>
    <path d="M18.0342 30.1445C18.2465 30.1445 18.4186 29.9724 18.4186 29.7601C18.4186 29.5478 18.2465 29.3757 18.0342 29.3757C17.8219 29.3757 17.6498 29.5478 17.6498 29.7601C17.6498 29.9724 17.8219 30.1445 18.0342 30.1445Z" fill="#FFC1BD"/>
    <path d="M11.7764 30.5763V30.0327H12.3201C12.325 30.0395 12.3326 30.0455 12.3337 30.0537C12.3557 30.2202 12.3557 30.3889 12.3337 30.5554C12.3326 30.5639 12.3252 30.5696 12.3201 30.5763C12.3133 30.5813 12.3073 30.5889 12.2991 30.59C12.1326 30.6119 11.9639 30.6119 11.7974 30.59C11.7892 30.5889 11.7832 30.5813 11.7764 30.5763Z" fill="#FFC1BD"/>
    <path d="M18.5783 30.6887C18.7906 30.6887 18.9627 30.5166 18.9627 30.3043C18.9627 30.092 18.7906 29.9199 18.5783 29.9199C18.3661 29.9199 18.194 30.092 18.194 30.3043C18.194 30.5166 18.3661 30.6887 18.5783 30.6887Z" fill="#FFC1BD"/>
    <path d="M19.1224 31.2331C19.3347 31.2331 19.5068 31.061 19.5068 30.8487C19.5068 30.6364 19.3347 30.4644 19.1224 30.4644C18.9101 30.4644 18.738 30.6364 18.738 30.8487C18.738 31.061 18.9101 31.2331 19.1224 31.2331Z" fill="#FFC1BD"/>
    <path d="M1.70834 4.02312C1.92062 4.02312 2.0927 3.85104 2.0927 3.63876C2.0927 3.42648 1.92062 3.25439 1.70834 3.25439C1.49606 3.25439 1.32397 3.42648 1.32397 3.63876C1.32397 3.85104 1.49606 4.02312 1.70834 4.02312Z" fill="#E4352F"/>
    <path d="M13.4089 29.488V28.9443H13.9526V29.481C13.9461 29.4852 13.9441 29.4878 13.9416 29.4878C13.7641 29.4879 13.5865 29.488 13.4089 29.488Z" fill="#3C3C3C"/>
    <path d="M12.8646 30.0322V29.4885H13.4083V30.0252C13.4018 30.0294 13.3998 30.032 13.3973 30.032C13.2198 30.0321 13.0422 30.0322 12.8646 30.0322Z" fill="#3C3C3C"/>
    <path d="M12.3205 30.5763V30.0327H12.8641V30.5694C12.8577 30.5735 12.8556 30.5762 12.8532 30.5762C12.6756 30.5763 12.4981 30.5763 12.3205 30.5763Z" fill="#3C3C3C"/>
    <path d="M11.7764 30.5769H12.3201V31.1136C12.3136 31.1177 12.3116 31.1204 12.3091 31.1204C12.1316 31.1204 11.954 31.1204 11.7764 31.1204V30.5769Z" fill="#3C3C3C"/>
    <path d="M28.918 22.5258C29.1303 22.5258 29.3024 22.3537 29.3024 22.1414C29.3024 21.9292 29.1303 21.7571 28.918 21.7571C28.7057 21.7571 28.5336 21.9292 28.5336 22.1414C28.5336 22.3537 28.7057 22.5258 28.918 22.5258Z" fill="#E4352F"/>
    <path d="M28.6464 22.4141V22.9583H19.9409V22.4209C19.9444 22.4177 19.9465 22.4143 19.9485 22.4143C22.8479 22.4141 25.7472 22.4141 28.6464 22.4141Z" fill="#E4352F"/>
</svg>
