<svg width="375" height="158" viewBox="0 0 375 158" fill="none" xmlns="http://www.w3.org/2000/svg">
    <rect y="71.6514" width="375" height="86" fill="#444042"/>
    <g clip-path="url(#clip0_206_72)">
        <path d="M375 0.651367H0.0881653V71.6514H375V0.651367Z" fill="#1B1A1A"/>
        <path d="M375 7.53357H0.0881653V11.1053H375V7.53357Z" fill="#444042"/>
        <path d="M0 65.8145V71.6513H187.368V65.8145H183.664V61.9814H187.368V58.0612H183.664V54.3151H187.368V50.3949H183.664V54.228H179.961V50.3949H172.555V54.228H168.851V50.3949H165.148V58.0612H161.445V54.228H150.335V58.0612H142.929V50.3949H139.225V54.228H135.522V58.0612H131.819V54.228H123.795V58.0612H119.474V54.228H115.154V50.3949H110.834V58.0612H102.281V54.228H89.4075V58.0612H85.087V50.3949H80.7665V54.228H76.446V50.3949H67.8933V54.228H63.5728V50.3949H59.2523V54.228H55.549V58.0612H51.8458V54.228H48.1425V50.3949H44.4392V58.0612H37.0327V54.228H25.9229V58.0612H22.2196V50.3949H18.5163V54.228H14.8131V50.3949H7.40654V54.228H3.70327V50.3949H0V54.3151H3.70327V58.0612H0V61.9814H3.70327V65.8145H0ZM179.961 58.1483V61.8943H176.258V58.1483H179.961ZM172.555 54.4023H176.258V58.1483H172.555V54.4023ZM172.555 61.9814V65.8145H168.851V61.9814H172.555ZM165.148 58.1483H168.851V61.8943H165.148V58.1483ZM161.445 61.9814V65.8145H157.742V61.9814H161.445ZM150.335 58.1483H157.742V61.8943H150.335V58.1483ZM146.632 61.9814H150.335V65.8145H146.632V61.9814ZM135.522 58.1483H142.929V61.8943H139.225V65.8145H135.522V58.1483ZM123.795 58.1483H131.819V61.8943H123.795V58.1483ZM110.922 58.1483H119.563V65.8145H115.242V61.8943H110.922V58.1483ZM106.601 61.9814V65.8145H102.281V61.9814H106.601ZM93.728 58.1483H102.369V61.8943H93.728V58.1483ZM89.4075 61.9814H93.728V65.8145H89.4075V61.9814ZM80.7665 58.1483H85.087V61.8943H80.7665V58.1483ZM80.7665 61.9814V65.8145H76.446V61.9814H80.7665ZM72.2137 54.4023H76.5342V58.1483H72.2137V54.4023ZM67.8933 58.1483H72.2137V61.8943H67.8933V58.1483ZM63.5728 65.8145H59.2523V61.9814H63.5728V65.8145ZM59.2523 54.4023H63.5728V58.1483H59.2523V54.4023ZM55.549 58.1483H59.2523V61.8943H55.549V58.1483ZM44.4392 58.1483H51.8458V65.8145H48.1425V61.8943H44.4392V58.1483ZM40.736 61.9814V65.8145H37.0327V61.9814H40.736ZM29.6261 58.1483H37.0327V61.8943H29.6261V58.1483ZM25.9229 61.9814H29.6261V65.8145H25.9229V61.9814ZM18.5163 58.1483H22.2196V61.8943H18.5163V58.1483ZM18.5163 61.9814V65.8145H14.8131V61.9814H18.5163ZM11.1098 54.4023H14.8131V58.1483H11.1098V54.4023ZM7.40654 58.1483H11.1098V61.8943H7.40654V58.1483Z" fill="#444042"/>
        <path d="M187.544 65.8145V71.6513H374.912V65.8145H371.209V61.9814H374.912V58.0612H371.209V54.3151H374.912V50.3949H371.209V54.228H367.505V50.3949H360.099V54.228H356.396V50.3949H352.692V58.0612H348.989V54.228H337.879V58.0612H330.473V50.3949H326.769V54.228H323.066V58.0612H319.363V54.228H311.339V58.0612H307.019V54.228H302.698V50.3949H298.378V58.0612H289.737V54.228H276.863V58.0612H272.543V50.3949H268.222V54.228H263.902V50.3949H255.261V54.228H250.941V50.3949H246.885V54.228H243.181V58.0612H239.478V54.228H235.775V50.3949H232.072V58.0612H224.665V54.228H213.555V58.0612H209.852V50.3949H206.149V54.228H202.445V50.3949H195.039V54.228H191.336V50.3949H187.632V54.3151H191.336V58.0612H187.632V61.9814H191.336V65.8145H187.544ZM367.593 58.1483V61.8943H363.89V58.1483H367.593ZM360.187 54.4023H363.89V58.1483H360.187V54.4023ZM360.187 61.9814V65.8145H356.484V61.9814H360.187ZM352.78 58.1483H356.484V61.8943H352.78V58.1483ZM349.077 61.9814V65.8145H345.374V61.9814H349.077ZM337.879 58.1483H345.286V61.8943H337.879V58.1483ZM334.176 61.9814H337.879V65.8145H334.176V61.9814ZM323.066 58.1483H330.473V61.8943H326.769V65.8145H323.066V58.1483ZM311.427 58.1483H319.451V61.8943H311.427V58.1483ZM298.466 58.1483H307.107V65.8145H302.786V61.8943H298.466V58.1483ZM294.145 61.9814V65.8145H289.825V61.9814H294.145ZM281.272 58.1483H289.913V61.8943H281.272V58.1483ZM276.952 61.9814H281.272V65.8145H276.952V61.9814ZM268.399 58.1483H272.719V61.8943H268.399V58.1483ZM268.399 61.9814V65.8145H264.078V61.9814H268.399ZM259.758 54.4023H264.078V58.1483H259.758V54.4023ZM255.437 58.1483H259.758V61.8943H255.437V58.1483ZM251.205 65.8145H246.885V61.9814H251.205V65.8145ZM246.885 54.4023H251.205V58.1483H246.885V54.4023ZM243.181 58.1483H246.885V61.8943H243.181V58.1483ZM232.072 58.1483H239.478V65.8145H235.775V61.8943H232.072V58.1483ZM228.368 61.9814V65.8145H224.665V61.9814H228.368ZM217.258 58.1483H224.665V61.8943H217.258V58.1483ZM213.555 61.9814H217.258V65.8145H213.555V61.9814ZM206.149 58.1483H209.852V61.8943H206.149V58.1483ZM206.149 61.9814V65.8145H202.445V61.9814H206.149ZM198.654 54.4023H202.357V58.1483H198.654V54.4023ZM194.951 58.1483H198.654V61.8943H194.951V58.1483Z" fill="#444042"/>
        <path d="M236.921 33.1459H138.079V39.1569H236.921V33.1459Z" fill="#444042"/>
        <path d="M47.7898 33.1459H0.0881653V39.1569H47.7898V33.1459Z" fill="#444042"/>
        <path d="M374.912 33.1459H327.21V39.1569H374.912V33.1459Z" fill="#444042"/>
    </g>
    <defs>
        <clipPath id="clip0_206_72">
            <rect width="375" height="71" fill="white" transform="translate(0 0.651367)"/>
        </clipPath>
    </defs>
</svg>
