<svg width="220" height="125" viewBox="0 0 220 125" fill="none" xmlns="http://www.w3.org/2000/svg">
    <g clip-path="url(#clip0_74_80577)">
        <rect width="212" height="85" transform="matrix(1 -8.685e-08 -8.79972e-08 -1 4 114)" fill="white"/>
        <rect width="189.656" height="15" transform="matrix(1 -8.60162e-08 -8.88472e-08 -1 15.9711 123)" fill="white"/>
        <rect width="7.79396" height="14.1406" transform="matrix(1 -8.74228e-08 -8.74228e-08 -1 10.8615 121.146)" fill="white"/>
        <rect width="7.79396" height="14.1406" transform="matrix(1 -8.74228e-08 -8.74228e-08 -1 8.62646 116.747)" fill="white"/>
        <rect width="7.79396" height="14.1406" transform="matrix(1 -8.74228e-08 -8.74228e-08 -1 6.66589 41.0098)" fill="white"/>
        <rect width="7.79396" height="18.8014" transform="matrix(1 -8.74228e-08 -8.74228e-08 -1 32.7805 23.9868)" fill="white"/>
        <rect width="7.79396" height="18.8014" transform="matrix(1 -8.74228e-08 -8.74228e-08 -1 38.0045 28.3076)" fill="white"/>
        <rect width="7.79396" height="18.8014" transform="matrix(1 -8.74228e-08 -8.74228e-08 -1 42.5138 36.2695)" fill="white"/>
        <rect width="7.98553" height="14" transform="matrix(1 -8.56052e-08 -8.92722e-08 -1 202.633 117)" fill="white"/>
        <rect width="7.98553" height="14" transform="matrix(1 -8.56052e-08 -8.92722e-08 -1 201.635 38)" fill="white"/>
        <rect width="191.653" height="14" transform="matrix(1 -8.685e-08 -8.79972e-08 -1 12.9765 35)" fill="white"/>
        <g opacity="0.3">
            <path d="M35.1331 21.6836L30.8199 21.6836L30.8199 4.32092L35.1331 4.32092L35.1331 21.6836Z" fill="black"/>
            <path d="M39.4463 4.32129L35.1331 4.32129L35.1331 0.000259399L39.4463 0.000259022L39.4463 4.32129Z" fill="black"/>
            <path d="M43.8379 8.7207L39.5247 8.7207L39.5247 4.39967L43.8379 4.39967L43.8379 8.7207Z" fill="black"/>
            <path d="M48.1511 13.0415L43.8379 13.0415L43.8379 8.72047L48.1511 8.72047L48.1511 13.0415Z" fill="black"/>
            <path d="M52.4643 17.3628L48.1511 17.3628L48.1511 13.0418L52.4643 13.0418L52.4643 17.3628Z" fill="black"/>
            <path d="M56.8561 21.6836L52.5428 21.6836L52.5428 17.3626L56.8561 17.3626L56.8561 21.6836Z" fill="black"/>
            <path d="M206.626 23L52.9041 23L52.9041 18L206.626 18L206.626 23Z" fill="black"/>
            <path d="M35.1331 21.6836L15.3707 21.6836L15.3707 17.3626L35.1331 17.3626L35.1331 21.6836Z" fill="black"/>
            <path d="M206.626 125L14.9728 125L14.9728 120L206.626 120L206.626 125Z" fill="black"/>
            <path d="M221 111.877L216.687 111.877L216.687 30.6421L221 30.6421L221 111.877Z" fill="black"/>
            <path d="M212.295 120.598L207.982 120.598L207.982 116.277L212.295 116.277L212.295 120.598Z" fill="black"/>
            <path d="M216.608 116.198L212.295 116.198L212.295 111.877L216.608 111.877L216.608 116.198Z" fill="black"/>
            <path d="M212.295 26.3208L207.982 26.3208L207.982 21.9998L212.295 21.9998L212.295 26.3208Z" fill="black"/>
            <path d="M216.608 30.6421L212.295 30.6421L212.295 26.3211L216.608 26.3211L216.608 30.6421Z" fill="black"/>
            <path d="M6.66587 111.64L2.35266 111.64L2.35265 30.4043L6.66587 30.4043L6.66587 111.64Z" fill="black"/>
            <path d="M15.3707 120.36L11.0575 120.36L11.0575 116.039L15.3707 116.039L15.3707 120.36Z" fill="black"/>
            <path d="M10.9791 115.961L6.66589 115.961L6.66589 111.64L10.9791 111.64L10.9791 115.961Z" fill="black"/>
            <path d="M15.3707 26.0835L11.0575 26.0835L11.0575 21.7625L15.3707 21.7625L15.3707 26.0835Z" fill="black"/>
            <path d="M10.9791 30.4043L6.66589 30.4043L6.66589 26.0833L10.9791 26.0833L10.9791 30.4043Z" fill="black"/>
        </g>
        <path d="M32.7804 22.4692L28.4672 22.4692L28.4672 5.10656L32.7804 5.10656L32.7804 22.4692Z" fill="#231F20"/>
        <path d="M37.0937 5.10644L32.7805 5.10645L32.7805 0.785416L37.0937 0.785415L37.0937 5.10644Z" fill="#231F20"/>
        <path d="M41.4855 9.50635L37.1722 9.50635L37.1722 5.18532L41.4855 5.18532L41.4855 9.50635Z" fill="#231F20"/>
        <path d="M45.7986 13.8271L41.4854 13.8271L41.4854 9.50612L45.7986 9.50612L45.7986 13.8271Z" fill="#231F20"/>
        <path d="M50.1118 18.1484L45.7986 18.1484L45.7986 13.8274L50.1118 13.8274L50.1118 18.1484Z" fill="#231F20"/>
        <path d="M54.5035 22.4692L50.1903 22.4692L50.1903 18.1482L54.5035 18.1482L54.5035 22.4692Z" fill="#231F20"/>
        <path d="M204.629 23L49.9095 23L49.9095 19L204.629 19L204.629 23Z" fill="#231F20"/>
        <path d="M32.7804 22.4692L13.018 22.4692L13.018 18.1482L32.7804 18.1482L32.7804 22.4692Z" fill="#231F20"/>
        <path d="M204.629 125L12.9765 125L12.9765 121L204.629 121L204.629 125Z" fill="#231F20"/>
        <path d="M218.647 112.663L214.334 112.663L214.334 31.4277L218.647 31.4277L218.647 112.663Z" fill="#231F20"/>
        <path d="M209.942 121.384L205.629 121.384L205.629 117.063L209.942 117.063L209.942 121.384Z" fill="#231F20"/>
        <path d="M214.256 116.984L209.942 116.984L209.942 112.663L214.256 112.663L214.256 116.984Z" fill="#231F20"/>
        <path d="M209.942 27.1064L205.629 27.1064L205.629 22.7854L209.942 22.7854L209.942 27.1064Z" fill="#231F20"/>
        <path d="M214.256 31.4277L209.942 31.4277L209.942 27.1067L214.256 27.1067L214.256 31.4277Z" fill="#231F20"/>
        <path d="M4.31321 112.425L0 112.425L-7.10182e-06 31.1899L4.31321 31.1899L4.31321 112.425Z" fill="#231F20"/>
        <path d="M13.018 121.146L8.70483 121.146L8.70483 116.825L13.018 116.825L13.018 121.146Z" fill="#231F20"/>
        <path d="M8.62645 116.747L4.31323 116.747L4.31323 112.426L8.62645 112.426L8.62645 116.747Z" fill="#231F20"/>
        <path d="M13.018 26.8691L8.70483 26.8691L8.70483 22.5481L13.018 22.5481L13.018 26.8691Z" fill="#231F20"/>
        <path d="M8.62645 31.1899L4.31323 31.1899L4.31323 26.8689L8.62645 26.8689L8.62645 31.1899Z" fill="#231F20"/>
        <path d="M16.2222 53.7778H14V42.6667H16.2222V40.4444H25.1111V42.6667H27.3333V44.8889H22.8889V42.6667H18.4444V53.7778H22.8889V51.5556H27.3333V53.7778H25.1111V56H16.2222V53.7778ZM29.5469 47.1111V44.8889H42.8802V47.1111H38.4358V56H33.9913V47.1111H29.5469ZM56.2049 44.8889V47.1111H58.4271V53.7778H56.2049V56H49.5382V60.4444H45.0938V47.1111H47.316V44.8889H56.2049ZM53.9826 47.1111H49.5382V53.7778H53.9826V47.1111ZM65.0851 53.7778H69.5295V47.1111H65.0851V53.7778ZM62.8628 53.7778H60.6406V47.1111H62.8628V44.8889H73.974V56H62.8628V53.7778ZM76.1875 47.1111V44.8889H89.5208V47.1111H85.0764V56H80.6319V47.1111H76.1875ZM102.845 44.8889V47.1111H105.068V51.5556H96.1788V53.7778H105.068V56H93.9566V53.7778H91.7344V47.1111H93.9566V44.8889H102.845ZM100.623 47.1111H96.1788V49.3333H100.623V47.1111ZM120.615 44.8889V47.1111H111.726V56H107.281V44.8889H120.615ZM127.273 53.7778V56H122.828V44.8889H127.273V49.3333H129.495V47.1111H131.717V44.8889H136.161V56H131.717V51.5556H129.495V53.7778H127.273ZM140.597 49.3333H138.375V47.1111H140.597V44.8889H151.708V56H147.264V51.5556H142.819V56H138.375V51.5556H140.597V49.3333ZM147.264 49.3333V47.1111H142.819V49.3333H147.264Z" fill="#444042"/>
        <path d="M16.5556 80.4444H15V75.7778H16.5556V80.4444ZM21.2222 75.7778H16.5556V74.2222H21.2222V75.7778ZM22.7778 80.4444H21.2222V75.7778H22.7778V80.4444ZM21.2222 82H16.5556V80.4444H21.2222V82ZM25.8934 75.7778V82H24.3379V74.2222H32.1157V82H30.5601V75.7778H25.8934ZM39.898 75.7778H35.2313V74.2222H39.898V75.7778ZM35.2313 82V85.1111H33.6758V75.7778H35.2313V80.4444H39.898V82H35.2313ZM41.4536 80.4444H39.898V75.7778H41.4536V80.4444ZM49.2359 75.7778H44.5692V74.2222H49.2359V75.7778ZM44.5692 78.8889V80.4444H43.0137V75.7778H44.5692V77.3333H49.2359V75.7778H50.7914V78.8889H44.5692ZM50.7914 82H44.5692V80.4444H50.7914V82ZM53.9071 82V83.5556H52.3516V80.4444H53.9071V75.7778H55.4627V80.4444H58.5738V75.7778H60.1293V80.4444H61.6849V83.5556H60.1293V82H53.9071ZM58.5738 75.7778H55.4627V74.2222H58.5738V75.7778ZM69.4566 75.7778H64.7899V74.2222H69.4566V75.7778ZM64.7899 78.8889V80.4444H63.2344V75.7778H64.7899V77.3333H69.4566V75.7778H71.0122V78.8889H64.7899ZM71.0122 82H64.7899V80.4444H71.0122V82ZM74.1278 82H72.5723V80.4444H74.1278V82ZM75.6834 75.7778V80.4444H74.1278V74.2222H80.35V82H78.7945V75.7778H75.6834ZM88.1324 75.7778H83.4657V74.2222H88.1324V75.7778ZM83.4657 78.8889V80.4444H81.9102V75.7778H83.4657V77.3333H88.1324V75.7778H89.6879V78.8889H83.4657ZM89.6879 82H83.4657V80.4444H89.6879V82ZM92.8036 78.8889V82H91.248V74.2222H92.8036V77.3333H97.4703V74.2222H99.0258V82H97.4703V78.8889H92.8036ZM102.141 80.4444V82H100.586V74.2222H102.141V78.8889H103.697V80.4444H102.141ZM106.808 75.7778V74.2222H108.364V82H106.808V77.3333H105.253V75.7778H106.808ZM105.253 78.8889H103.697V77.3333H105.253V78.8889ZM116.146 75.7778H111.479V74.2222H116.146V75.7778ZM111.479 78.8889V80.4444H109.924V75.7778H111.479V77.3333H116.146V75.7778H117.702V78.8889H111.479ZM117.702 82H111.479V80.4444H117.702V82ZM125.479 80.4444H123.924V75.7778H125.479V80.4444ZM131.702 75.7778H125.479V74.2222H131.702V75.7778ZM131.702 82H125.479V80.4444H131.702V82ZM137.928 75.7778V82H136.373V75.7778H133.262V74.2222H141.039V75.7778H137.928ZM148.822 75.7778H144.155V74.2222H148.822V75.7778ZM144.155 82V85.1111H142.6V75.7778H144.155V80.4444H148.822V82H144.155ZM150.377 80.4444H148.822V75.7778H150.377V80.4444ZM153.493 80.4444H151.938V75.7778H153.493V80.4444ZM158.16 77.3333H156.604V75.7778H158.16V74.2222H159.715V82H158.16V80.4444H156.604V78.8889H158.16V77.3333ZM156.604 82H153.493V80.4444H156.604V82ZM156.604 75.7778H153.493V74.2222H156.604V75.7778ZM165.942 75.7778V82H164.387V75.7778H161.275V74.2222H169.053V75.7778H165.942ZM176.836 75.7778H172.169V74.2222H176.836V75.7778ZM172.169 78.8889V80.4444H170.613V75.7778H172.169V77.3333H176.836V75.7778H178.391V78.8889H172.169ZM178.391 82H172.169V80.4444H178.391V82ZM181.507 75.7778V82H179.951V74.2222H187.729V75.7778H181.507ZM190.845 80.4444V82H189.289V74.2222H190.845V78.8889H192.4V80.4444H190.845ZM195.511 75.7778V74.2222H197.067V82H195.511V77.3333H193.956V75.7778H195.511ZM193.956 78.8889H192.4V77.3333H193.956V78.8889ZM200.183 80.4444V82H198.627V74.2222H200.183V78.8889H201.738V80.4444H200.183ZM204.849 75.7778V74.2222H206.405V82H204.849V77.3333H203.294V75.7778H204.849ZM203.294 78.8889H201.738V77.3333H203.294V78.8889ZM21.2222 92.7778H16.5556V91.2222H21.2222V92.7778ZM16.5556 99V102.111H15V92.7778H16.5556V97.4444H21.2222V99H16.5556ZM22.7778 97.4444H21.2222V92.7778H22.7778V97.4444ZM25.8934 97.4444H24.3379V92.7778H25.8934V97.4444ZM30.5601 94.3333H29.0046V92.7778H30.5601V91.2222H32.1157V99H30.5601V97.4444H29.0046V95.8889H30.5601V94.3333ZM29.0046 99H25.8934V97.4444H29.0046V99ZM29.0046 92.7778H25.8934V91.2222H29.0046V92.7778ZM35.2313 94.3333H33.6758V92.7778H35.2313V94.3333ZM39.898 92.7778H35.2313V91.2222H39.898V92.7778ZM39.898 99H35.2313V97.4444H39.898V99ZM35.2313 97.4444H33.6758V95.8889H35.2313V97.4444ZM39.898 95.8889H38.3424V94.3333H39.898V95.8889ZM41.4536 94.3333H39.898V92.7778H41.4536V94.3333ZM41.4536 97.4444H39.898V95.8889H41.4536V97.4444ZM50.7914 97.4444H49.2359V95.8889H50.7914V97.4444ZM49.2359 91.2222V92.7778H44.5692V94.3333H49.2359V95.8889H44.5692V97.4444H49.2359V99H43.0137V91.2222H49.2359ZM50.7914 94.3333H49.2359V92.7778H50.7914V94.3333ZM53.9071 97.4444V99H52.3516V91.2222H53.9071V95.8889H55.4627V97.4444H53.9071ZM58.5738 92.7778V91.2222H60.1293V99H58.5738V94.3333H57.0182V92.7778H58.5738ZM57.0182 95.8889H55.4627V94.3333H57.0182V95.8889ZM66.3561 92.7778V99H64.8006V92.7778H61.6895V91.2222H69.4672V92.7778H66.3561ZM72.5829 97.4444V99H71.0273V91.2222H72.5829V95.8889H74.1385V97.4444H72.5829ZM77.2496 92.7778V91.2222H78.8051V99H77.2496V94.3333H75.694V92.7778H77.2496ZM75.694 95.8889H74.1385V94.3333H75.694V95.8889ZM81.9208 94.3333H80.3652V92.7778H81.9208V94.3333ZM80.3652 95.8889H81.9208V99H80.3652V95.8889ZM86.5875 92.7778H81.9208V91.2222H88.143V99H86.5875V95.8889H81.9208V94.3333H86.5875V92.7778ZM95.9208 92.7778V99H94.3652V91.2222H102.143V92.7778H95.9208ZM109.925 92.7778H105.259V91.2222H109.925V92.7778ZM105.259 99V102.111H103.703V92.7778H105.259V97.4444H109.925V99H105.259ZM111.481 97.4444H109.925V92.7778H111.481V97.4444ZM120.819 95.8889H119.263V91.2222H120.819V95.8889ZM119.263 95.8889V99H117.708V97.4444H114.597V95.8889H119.263ZM114.597 95.8889H113.041V91.2222H114.597V95.8889ZM117.708 100.556H113.041V99H117.708V100.556ZM123.934 92.7778V99H122.379V91.2222H130.157V99H128.601V92.7778H123.934ZM133.272 92.7778V99H131.717V91.2222H139.495V99H137.939V92.7778H133.272ZM145.721 97.4444H144.166V95.8889H145.721V97.4444ZM148.832 99H147.277V91.2222H148.832V99ZM142.61 94.3333H144.166V95.8889H142.61V97.4444H144.166V99H141.055V91.2222H142.61V94.3333Z" fill="#1B1A1A"/>
    </g>
    <defs>
        <clipPath id="clip0_74_80577">
            <rect width="220" height="125" fill="white"/>
        </clipPath>
    </defs>
</svg>
