<svg width="39" height="39" viewBox="0 0 39 39" fill="none" xmlns="http://www.w3.org/2000/svg">
    <path d="M3.46939 31.5592H2.30596V32.875H3.46939V31.5592Z" fill="#424343"/>
    <path d="M3.46939 30.2434H2.30596V31.5592H3.46939V30.2434Z" fill="#424343"/>
    <path d="M3.46939 28.9276H2.30596V30.2434H3.46939V28.9276Z" fill="#424343"/>
    <path d="M3.46939 27.6118H2.30596V28.9276H3.46939V27.6118Z" fill="#424343"/>
    <path d="M3.46939 26.2961H2.30596V27.6118H3.46939V26.2961Z" fill="#424343"/>
    <path d="M3.46939 24.9803H2.30596V26.2961H3.46939V24.9803Z" fill="#424343"/>
    <path d="M3.46939 23.6645H2.30596V24.9803H3.46939V23.6645Z" fill="#424343"/>
    <path d="M3.46939 22.3487H2.30596V23.6645H3.46939V22.3487Z" fill="#424343"/>
    <path d="M3.46939 21.0329H2.30596V22.3487H3.46939V21.0329Z" fill="#424343"/>
    <path d="M3.46939 19.7171H2.30596V21.0329H3.46939V19.7171Z" fill="#424343"/>
    <path d="M3.46939 18.4013H2.30596V19.7171H3.46939V18.4013Z" fill="#424343"/>
    <path d="M3.46939 17.0855H2.30596V18.4013H3.46939V17.0855Z" fill="#424343"/>
    <path d="M3.46939 15.7697H2.30596V17.0855H3.46939V15.7697Z" fill="#424343"/>
    <path d="M3.46939 14.4539H2.30596V15.7697H3.46939V14.4539Z" fill="#424343"/>
    <path d="M3.46939 13.1382H2.30596V14.4539H3.46939V13.1382Z" fill="#424343"/>
    <path d="M3.46939 11.8224H2.30596V13.1382H3.46939V11.8224Z" fill="#424343"/>
    <path d="M3.46939 10.5066H2.30596V11.8224H3.46939V10.5066Z" fill="#424343"/>
    <path d="M3.46939 9.19079H2.30596V10.5066H3.46939V9.19079Z" fill="#424343"/>
    <path d="M3.46939 7.875H2.30596V9.19079H3.46939V7.875Z" fill="#424343"/>
    <path d="M4.63282 31.5592H3.46939V32.875H4.63282V31.5592Z" fill="#424343"/>
    <path d="M4.63282 30.2434H3.46939V31.5592H4.63282V30.2434Z" fill="white"/>
    <path d="M4.63282 28.9276H3.46939V30.2434H4.63282V28.9276Z" fill="white"/>
    <path d="M4.63282 27.6118H3.46939V28.9276H4.63282V27.6118Z" fill="white"/>
    <path d="M4.63282 26.2961H3.46939V27.6118H4.63282V26.2961Z" fill="white"/>
    <path d="M4.63282 24.9803H3.46939V26.2961H4.63282V24.9803Z" fill="white"/>
    <path d="M4.63282 23.6645H3.46939V24.9803H4.63282V23.6645Z" fill="white"/>
    <path d="M4.63282 22.3487H3.46939V23.6645H4.63282V22.3487Z" fill="white"/>
    <path d="M4.63282 21.0329H3.46939V22.3487H4.63282V21.0329Z" fill="white"/>
    <path d="M4.63282 19.7171H3.46939V21.0329H4.63282V19.7171Z" fill="white"/>
    <path d="M4.63282 18.4013H3.46939V19.7171H4.63282V18.4013Z" fill="white"/>
    <path d="M4.63282 17.0855H3.46939V18.4013H4.63282V17.0855Z" fill="white"/>
    <path d="M4.63282 15.7697H3.46939V17.0855H4.63282V15.7697Z" fill="white"/>
    <path d="M4.63282 14.4539H3.46939V15.7697H4.63282V14.4539Z" fill="white"/>
    <path d="M4.63282 13.1382H3.46939V14.4539H4.63282V13.1382Z" fill="white"/>
    <path d="M4.63282 11.8224H3.46939V13.1382H4.63282V11.8224Z" fill="white"/>
    <path d="M4.63282 10.5066H3.46939V11.8224H4.63282V10.5066Z" fill="white"/>
    <path d="M4.63282 9.19079H3.46939V10.5066H4.63282V9.19079Z" fill="white"/>
    <path d="M4.63282 7.875H3.46939V9.19079H4.63282V7.875Z" fill="#424343"/>
    <path d="M5.79625 31.5592H4.63282V32.875H5.79625V31.5592Z" fill="#424343"/>
    <path d="M5.79625 30.2434H4.63282V31.5592H5.79625V30.2434Z" fill="white"/>
    <path d="M5.79625 28.9276H4.63282V30.2434H5.79625V28.9276Z" fill="#7FCAFF"/>
    <path d="M5.79625 27.6118H4.63282V28.9276H5.79625V27.6118Z" fill="white"/>
    <path d="M5.79625 26.2961H4.63282V27.6118H5.79625V26.2961Z" fill="#7FCAFF"/>
    <path d="M5.79625 24.9803H4.63282V26.2961H5.79625V24.9803Z" fill="white"/>
    <path d="M5.79625 23.6645H4.63282V24.9803H5.79625V23.6645Z" fill="#7FCAFF"/>
    <path d="M5.79625 22.3487H4.63282V23.6645H5.79625V22.3487Z" fill="white"/>
    <path d="M5.79625 21.0329H4.63282V22.3487H5.79625V21.0329Z" fill="white"/>
    <path d="M5.79625 19.7171H4.63282V21.0329H5.79625V19.7171Z" fill="#7FCAFF"/>
    <path d="M5.79625 18.4013H4.63282V19.7171H5.79625V18.4013Z" fill="white"/>
    <path d="M5.79625 17.0855H4.63282V18.4013H5.79625V17.0855Z" fill="#7FCAFF"/>
    <path d="M5.79625 15.7697H4.63282V17.0855H5.79625V15.7697Z" fill="white"/>
    <path d="M5.79625 14.4539H4.63282V15.7697H5.79625V14.4539Z" fill="white"/>
    <path d="M5.79625 13.1382H4.63282V14.4539H5.79625V13.1382Z" fill="#7FCAFF"/>
    <path d="M5.79625 11.8224H4.63282V13.1382H5.79625V11.8224Z" fill="white"/>
    <path d="M5.79625 10.5066H4.63282V11.8224H5.79625V10.5066Z" fill="white"/>
    <path d="M5.79625 9.19079H4.63282V10.5066H5.79625V9.19079Z" fill="white"/>
    <path d="M5.79625 7.875H4.63282V9.19079H5.79625V7.875Z" fill="#424343"/>
    <path d="M6.95968 31.5592H5.79625V32.875H6.95968V31.5592Z" fill="#424343"/>
    <path d="M6.95968 30.2434H5.79625V31.5592H6.95968V30.2434Z" fill="white"/>
    <path d="M6.95968 28.9276H5.79625V30.2434H6.95968V28.9276Z" fill="#C9C9C9"/>
    <path d="M6.95968 27.6118H5.79625V28.9276H6.95968V27.6118Z" fill="#C9C9C9"/>
    <path d="M6.95968 26.2961H5.79625V27.6118H6.95968V26.2961Z" fill="#C9C9C9"/>
    <path d="M6.95968 24.9803H5.79625V26.2961H6.95968V24.9803Z" fill="#C9C9C9"/>
    <path d="M6.95968 23.6645H5.79625V24.9803H6.95968V23.6645Z" fill="#C9C9C9"/>
    <path d="M6.95968 22.3487H5.79625V23.6645H6.95968V22.3487Z" fill="#C9C9C9"/>
    <path d="M6.95968 21.0329H5.79625V22.3487H6.95968V21.0329Z" fill="#C9C9C9"/>
    <path d="M6.95968 19.7171H5.79625V21.0329H6.95968V19.7171Z" fill="#C9C9C9"/>
    <path d="M6.95968 18.4013H5.79625V19.7171H6.95968V18.4013Z" fill="#C9C9C9"/>
    <path d="M6.95968 17.0855H5.79625V18.4013H6.95968V17.0855Z" fill="#C9C9C9"/>
    <path d="M6.95968 15.7697H5.79625V17.0855H6.95968V15.7697Z" fill="#C9C9C9"/>
    <path d="M6.95968 14.4539H5.79625V15.7697H6.95968V14.4539Z" fill="#C9C9C9"/>
    <path d="M6.95968 13.1382H5.79625V14.4539H6.95968V13.1382Z" fill="#C9C9C9"/>
    <path d="M6.95968 11.8224H5.79625V13.1382H6.95968V11.8224Z" fill="#C9C9C9"/>
    <path d="M6.95968 10.5066H5.79625V11.8224H6.95968V10.5066Z" fill="#C9C9C9"/>
    <path d="M6.95968 9.19079H5.79625V10.5066H6.95968V9.19079Z" fill="white"/>
    <path d="M6.95968 7.875H5.79625V9.19079H6.95968V7.875Z" fill="#424343"/>
    <path d="M8.12311 31.5592H6.95968V32.875H8.12311V31.5592Z" fill="#424343"/>
    <path d="M8.12311 30.2434H6.95968V31.5592H8.12311V30.2434Z" fill="white"/>
    <path d="M8.12311 28.9276H6.95968V30.2434H8.12311V28.9276Z" fill="#C9C9C9"/>
    <path d="M8.12311 27.6118H6.95968V28.9276H8.12311V27.6118Z" fill="#AB1F00"/>
    <path d="M8.12311 26.2961H6.95968V27.6118H8.12311V26.2961Z" fill="white"/>
    <path d="M8.12311 24.9803H6.95968V26.2961H8.12311V24.9803Z" fill="white"/>
    <path d="M8.12311 23.6645H6.95968V24.9803H8.12311V23.6645Z" fill="white"/>
    <path d="M8.12311 22.3487H6.95968V23.6645H8.12311V22.3487Z" fill="white"/>
    <path d="M8.12311 21.0329H6.95968V22.3487H8.12311V21.0329Z" fill="white"/>
    <path d="M8.12311 19.7171H6.95968V21.0329H8.12311V19.7171Z" fill="white"/>
    <path d="M8.12311 18.4013H6.95968V19.7171H8.12311V18.4013Z" fill="white"/>
    <path d="M8.12311 17.0855H6.95968V18.4013H8.12311V17.0855Z" fill="white"/>
    <path d="M8.12311 15.7697H6.95968V17.0855H8.12311V15.7697Z" fill="white"/>
    <path d="M8.12311 14.4539H6.95968V15.7697H8.12311V14.4539Z" fill="white"/>
    <path d="M8.12311 13.1382H6.95968V14.4539H8.12311V13.1382Z" fill="white"/>
    <path d="M8.12311 11.8224H6.95968V13.1382H8.12311V11.8224Z" fill="white"/>
    <path d="M8.12311 10.5066H6.95968V11.8224H8.12311V10.5066Z" fill="white"/>
    <path d="M8.12311 9.19079H6.95968V10.5066H8.12311V9.19079Z" fill="white"/>
    <path d="M8.12311 7.875H6.95968V9.19079H8.12311V7.875Z" fill="#424343"/>
    <path d="M9.28654 31.5592H8.12311V32.875H9.28654V31.5592Z" fill="#424343"/>
    <path d="M9.28654 30.2434H8.12311V31.5592H9.28654V30.2434Z" fill="white"/>
    <path d="M9.28654 28.9276H8.12311V30.2434H9.28654V28.9276Z" fill="#C9C9C9"/>
    <path d="M9.28654 27.6118H8.12311V28.9276H9.28654V27.6118Z" fill="#FF2E00"/>
    <path d="M9.28654 26.2961H8.12311V27.6118H9.28654V26.2961Z" fill="#AB1F00"/>
    <path d="M9.28654 24.9803H8.12311V26.2961H9.28654V24.9803Z" fill="white"/>
    <path d="M9.28654 23.6645H8.12311V24.9803H9.28654V23.6645Z" fill="white"/>
    <path d="M9.28654 22.3487H8.12311V23.6645H9.28654V22.3487Z" fill="white"/>
    <path d="M9.28654 21.0329H8.12311V22.3487H9.28654V21.0329Z" fill="white"/>
    <path d="M9.28654 19.7171H8.12311V21.0329H9.28654V19.7171Z" fill="white"/>
    <path d="M9.28654 18.4013H8.12311V19.7171H9.28654V18.4013Z" fill="white"/>
    <path d="M9.28654 17.0855H8.12311V18.4013H9.28654V17.0855Z" fill="white"/>
    <path d="M9.28654 15.7697H8.12311V17.0855H9.28654V15.7697Z" fill="white"/>
    <path d="M9.28654 14.4539H8.12311V15.7697H9.28654V14.4539Z" fill="white"/>
    <path d="M9.28654 13.1382H8.12311V14.4539H9.28654V13.1382Z" fill="white"/>
    <path d="M9.28654 11.8224H8.12311V13.1382H9.28654V11.8224Z" fill="white"/>
    <path d="M9.28654 10.5066H8.12311V11.8224H9.28654V10.5066Z" fill="white"/>
    <path d="M9.28654 9.19079H8.12311V10.5066H9.28654V9.19079Z" fill="white"/>
    <path d="M9.28654 7.875H8.12311V9.19079H9.28654V7.875Z" fill="#424343"/>
    <path d="M10.45 31.5592H9.28654V32.875H10.45V31.5592Z" fill="#424343"/>
    <path d="M10.45 30.2434H9.28654V31.5592H10.45V30.2434Z" fill="white"/>
    <path d="M10.45 28.9276H9.28654V30.2434H10.45V28.9276Z" fill="#C9C9C9"/>
    <path d="M10.45 27.6118H9.28654V28.9276H10.45V27.6118Z" fill="white"/>
    <path d="M10.45 26.2961H9.28654V27.6118H10.45V26.2961Z" fill="white"/>
    <path d="M10.45 24.9803H9.28654V26.2961H10.45V24.9803Z" fill="white"/>
    <path d="M10.45 23.6645H9.28654V24.9803H10.45V23.6645Z" fill="white"/>
    <path d="M10.45 22.3487H9.28654V23.6645H10.45V22.3487Z" fill="white"/>
    <path d="M10.45 21.0329H9.28654V22.3487H10.45V21.0329Z" fill="white"/>
    <path d="M10.45 19.7171H9.28654V21.0329H10.45V19.7171Z" fill="#87ABFF"/>
    <path d="M10.45 18.4013H9.28654V19.7171H10.45V18.4013Z" fill="#BFD2FF"/>
    <path d="M10.45 17.0855H9.28654V18.4013H10.45V17.0855Z" fill="#BFD2FF"/>
    <path d="M10.45 15.7697H9.28654V17.0855H10.45V15.7697Z" fill="#BFD2FF"/>
    <path d="M10.45 14.4539H9.28654V15.7697H10.45V14.4539Z" fill="#BFD2FF"/>
    <path d="M10.45 13.1382H9.28654V14.4539H10.45V13.1382Z" fill="white"/>
    <path d="M10.45 11.8224H9.28654V13.1382H10.45V11.8224Z" fill="white"/>
    <path d="M10.45 10.5066H9.28654V11.8224H10.45V10.5066Z" fill="white"/>
    <path d="M10.45 9.19079H9.28654V10.5066H10.45V9.19079Z" fill="white"/>
    <path d="M10.45 7.875H9.28654V9.19079H10.45V7.875Z" fill="#424343"/>
    <path d="M11.6134 31.5592H10.45V32.875H11.6134V31.5592Z" fill="#424343"/>
    <path d="M11.6134 30.2434H10.45V31.5592H11.6134V30.2434Z" fill="white"/>
    <path d="M11.6134 28.9276H10.45V30.2434H11.6134V28.9276Z" fill="#C9C9C9"/>
    <path d="M11.6134 27.6118H10.45V28.9276H11.6134V27.6118Z" fill="#FF2E00"/>
    <path d="M11.6134 26.2961H10.45V27.6118H11.6134V26.2961Z" fill="#AB1F00"/>
    <path d="M11.6134 24.9803H10.45V26.2961H11.6134V24.9803Z" fill="white"/>
    <path d="M11.6134 23.6645H10.45V24.9803H11.6134V23.6645Z" fill="white"/>
    <path d="M11.6134 22.3487H10.45V23.6645H11.6134V22.3487Z" fill="white"/>
    <path d="M11.6134 21.0329H10.45V22.3487H11.6134V21.0329Z" fill="white"/>
    <path d="M11.6134 19.7171H10.45V21.0329H11.6134V19.7171Z" fill="white"/>
    <path d="M11.6134 18.4013H10.45V19.7171H11.6134V18.4013Z" fill="white"/>
    <path d="M11.6134 17.0855H10.45V18.4013H11.6134V17.0855Z" fill="white"/>
    <path d="M11.6134 15.7697H10.45V17.0855H11.6134V15.7697Z" fill="white"/>
    <path d="M11.6134 14.4539H10.45V15.7697H11.6134V14.4539Z" fill="white"/>
    <path d="M11.6134 13.1382H10.45V14.4539H11.6134V13.1382Z" fill="white"/>
    <path d="M11.6134 11.8224H10.45V13.1382H11.6134V11.8224Z" fill="white"/>
    <path d="M11.6134 10.5066H10.45V11.8224H11.6134V10.5066Z" fill="white"/>
    <path d="M11.6134 9.19079H10.45V10.5066H11.6134V9.19079Z" fill="white"/>
    <path d="M11.6134 7.875H10.45V9.19079H11.6134V7.875Z" fill="#424343"/>
    <path d="M12.7768 31.5592H11.6134V32.875H12.7768V31.5592Z" fill="#424343"/>
    <path d="M12.7768 30.2434H11.6134V31.5592H12.7768V30.2434Z" fill="white"/>
    <path d="M12.7768 28.9276H11.6134V30.2434H12.7768V28.9276Z" fill="#C9C9C9"/>
    <path d="M12.7768 27.6118H11.6134V28.9276H12.7768V27.6118Z" fill="white"/>
    <path d="M12.7768 26.2961H11.6134V27.6118H12.7768V26.2961Z" fill="white"/>
    <path d="M12.7768 24.9803H11.6134V26.2961H12.7768V24.9803Z" fill="white"/>
    <path d="M12.7768 23.6645H11.6134V24.9803H12.7768V23.6645Z" fill="white"/>
    <path d="M12.7768 22.3487H11.6134V23.6645H12.7768V22.3487Z" fill="white"/>
    <path d="M12.7768 21.0329H11.6134V22.3487H12.7768V21.0329Z" fill="white"/>
    <path d="M12.7768 19.7171H11.6134V21.0329H12.7768V19.7171Z" fill="#87ABFF"/>
    <path d="M12.7768 18.4013H11.6134V19.7171H12.7768V18.4013Z" fill="#BFD2FF"/>
    <path d="M12.7768 17.0855H11.6134V18.4013H12.7768V17.0855Z" fill="#BFD2FF"/>
    <path d="M12.7768 15.7697H11.6134V17.0855H12.7768V15.7697Z" fill="#BFD2FF"/>
    <path d="M12.7768 14.4539H11.6134V15.7697H12.7768V14.4539Z" fill="white"/>
    <path d="M12.7768 13.1382H11.6134V14.4539H12.7768V13.1382Z" fill="white"/>
    <path d="M12.7768 11.8224H11.6134V13.1382H12.7768V11.8224Z" fill="white"/>
    <path d="M12.7768 10.5066H11.6134V11.8224H12.7768V10.5066Z" fill="white"/>
    <path d="M12.7768 9.19079H11.6134V10.5066H12.7768V9.19079Z" fill="white"/>
    <path d="M12.7768 7.875H11.6134V9.19079H12.7768V7.875Z" fill="#424343"/>
    <path d="M13.9403 31.5592H12.7768V32.875H13.9403V31.5592Z" fill="#424343"/>
    <path d="M13.9403 30.2434H12.7768V31.5592H13.9403V30.2434Z" fill="white"/>
    <path d="M13.9403 28.9276H12.7768V30.2434H13.9403V28.9276Z" fill="#C9C9C9"/>
    <path d="M13.9403 27.6118H12.7768V28.9276H13.9403V27.6118Z" fill="#FF2E00"/>
    <path d="M13.9403 26.2961H12.7768V27.6118H13.9403V26.2961Z" fill="#AB1F00"/>
    <path d="M13.9403 24.9803H12.7768V26.2961H13.9403V24.9803Z" fill="white"/>
    <path d="M13.9403 23.6645H12.7768V24.9803H13.9403V23.6645Z" fill="white"/>
    <path d="M13.9403 22.3487H12.7768V23.6645H13.9403V22.3487Z" fill="white"/>
    <path d="M13.9403 21.0329H12.7768V22.3487H13.9403V21.0329Z" fill="white"/>
    <path d="M13.9403 19.7171H12.7768V21.0329H13.9403V19.7171Z" fill="white"/>
    <path d="M13.9403 18.4013H12.7768V19.7171H13.9403V18.4013Z" fill="white"/>
    <path d="M13.9403 17.0855H12.7768V18.4013H13.9403V17.0855Z" fill="white"/>
    <path d="M13.9403 15.7697H12.7768V17.0855H13.9403V15.7697Z" fill="white"/>
    <path d="M13.9403 14.4539H12.7768V15.7697H13.9403V14.4539Z" fill="white"/>
    <path d="M13.9403 13.1382H12.7768V14.4539H13.9403V13.1382Z" fill="white"/>
    <path d="M13.9403 11.8224H12.7768V13.1382H13.9403V11.8224Z" fill="white"/>
    <path d="M13.9403 10.5066H12.7768V11.8224H13.9403V10.5066Z" fill="white"/>
    <path d="M13.9403 9.19079H12.7768V10.5066H13.9403V9.19079Z" fill="white"/>
    <path d="M13.9403 7.875H12.7768V9.19079H13.9403V7.875Z" fill="#424343"/>
    <path d="M15.1037 31.5592H13.9403V32.875H15.1037V31.5592Z" fill="#424343"/>
    <path d="M15.1037 30.2434H13.9403V31.5592H15.1037V30.2434Z" fill="white"/>
    <path d="M15.1037 28.9276H13.9403V30.2434H15.1037V28.9276Z" fill="#C9C9C9"/>
    <path d="M15.1037 27.6118H13.9403V28.9276H15.1037V27.6118Z" fill="white"/>
    <path d="M15.1037 26.2961H13.9403V27.6118H15.1037V26.2961Z" fill="white"/>
    <path d="M15.1037 24.9803H13.9403V26.2961H15.1037V24.9803Z" fill="white"/>
    <path d="M15.1037 23.6645H13.9403V24.9803H15.1037V23.6645Z" fill="white"/>
    <path d="M15.1037 22.3487H13.9403V23.6645H15.1037V22.3487Z" fill="white"/>
    <path d="M15.1037 21.0329H13.9403V22.3487H15.1037V21.0329Z" fill="white"/>
    <path d="M15.1037 19.7171H13.9403V21.0329H15.1037V19.7171Z" fill="#87ABFF"/>
    <path d="M15.1037 18.4013H13.9403V19.7171H15.1037V18.4013Z" fill="#BFD2FF"/>
    <path d="M15.1037 17.0855H13.9403V18.4013H15.1037V17.0855Z" fill="#BFD2FF"/>
    <path d="M15.1037 15.7697H13.9403V17.0855H15.1037V15.7697Z" fill="white"/>
    <path d="M15.1037 14.4539H13.9403V15.7697H15.1037V14.4539Z" fill="white"/>
    <path d="M15.1037 13.1382H13.9403V14.4539H15.1037V13.1382Z" fill="white"/>
    <path d="M15.1037 11.8224H13.9403V13.1382H15.1037V11.8224Z" fill="white"/>
    <path d="M15.1037 10.5066H13.9403V11.8224H15.1037V10.5066Z" fill="white"/>
    <path d="M15.1037 9.19079H13.9403V10.5066H15.1037V9.19079Z" fill="white"/>
    <path d="M15.1037 7.875H13.9403V9.19079H15.1037V7.875Z" fill="#424343"/>
    <path d="M16.2671 31.5592H15.1037V32.875H16.2671V31.5592Z" fill="#424343"/>
    <path d="M16.2671 30.2434H15.1037V31.5592H16.2671V30.2434Z" fill="white"/>
    <path d="M16.2671 28.9276H15.1037V30.2434H16.2671V28.9276Z" fill="#C9C9C9"/>
    <path d="M16.2671 27.6118H15.1037V28.9276H16.2671V27.6118Z" fill="#FF2E00"/>
    <path d="M16.2671 26.2961H15.1037V27.6118H16.2671V26.2961Z" fill="#FF2E00"/>
    <path d="M16.2671 24.9803H15.1037V26.2961H16.2671V24.9803Z" fill="#FF2E00"/>
    <path d="M16.2671 23.6645H15.1037V24.9803H16.2671V23.6645Z" fill="#AB1F00"/>
    <path d="M16.2671 22.3487H15.1037V23.6645H16.2671V22.3487Z" fill="white"/>
    <path d="M16.2671 21.0329H15.1037V22.3487H16.2671V21.0329Z" fill="white"/>
    <path d="M16.2671 19.7171H15.1037V21.0329H16.2671V19.7171Z" fill="white"/>
    <path d="M16.2671 18.4013H15.1037V19.7171H16.2671V18.4013Z" fill="white"/>
    <path d="M16.2671 17.0855H15.1037V18.4013H16.2671V17.0855Z" fill="white"/>
    <path d="M16.2671 15.7697H15.1037V17.0855H16.2671V15.7697Z" fill="white"/>
    <path d="M16.2671 14.4539H15.1037V15.7697H16.2671V14.4539Z" fill="white"/>
    <path d="M16.2671 13.1382H15.1037V14.4539H16.2671V13.1382Z" fill="white"/>
    <path d="M16.2671 11.8224H15.1037V13.1382H16.2671V11.8224Z" fill="white"/>
    <path d="M16.2671 10.5066H15.1037V11.8224H16.2671V10.5066Z" fill="white"/>
    <path d="M16.2671 9.19079H15.1037V10.5066H16.2671V9.19079Z" fill="white"/>
    <path d="M16.2671 7.875H15.1037V9.19079H16.2671V7.875Z" fill="#424343"/>
    <path d="M17.4306 31.5592H16.2671V32.875H17.4306V31.5592Z" fill="#424343"/>
    <path d="M17.4306 30.2434H16.2671V31.5592H17.4306V30.2434Z" fill="white"/>
    <path d="M17.4306 28.9276H16.2671V30.2434H17.4306V28.9276Z" fill="#C9C9C9"/>
    <path d="M17.4306 27.6118H16.2671V28.9276H17.4306V27.6118Z" fill="white"/>
    <path d="M17.4306 26.2961H16.2671V27.6118H17.4306V26.2961Z" fill="white"/>
    <path d="M17.4306 24.9803H16.2671V26.2961H17.4306V24.9803Z" fill="white"/>
    <path d="M17.4306 23.6645H16.2671V24.9803H17.4306V23.6645Z" fill="white"/>
    <path d="M17.4306 22.3487H16.2671V23.6645H17.4306V22.3487Z" fill="white"/>
    <path d="M17.4306 21.0329H16.2671V22.3487H17.4306V21.0329Z" fill="white"/>
    <path d="M17.4306 19.7171H16.2671V21.0329H17.4306V19.7171Z" fill="white"/>
    <path d="M17.4306 18.4013H16.2671V19.7171H17.4306V18.4013Z" fill="white"/>
    <path d="M17.4306 17.0855H16.2671V18.4013H17.4306V17.0855Z" fill="white"/>
    <path d="M17.4306 15.7697H16.2671V17.0855H17.4306V15.7697Z" fill="white"/>
    <path d="M17.4306 14.4539H16.2671V15.7697H17.4306V14.4539Z" fill="white"/>
    <path d="M17.4306 13.1382H16.2671V14.4539H17.4306V13.1382Z" fill="white"/>
    <path d="M17.4306 11.8224H16.2671V13.1382H17.4306V11.8224Z" fill="white"/>
    <path d="M17.4306 10.5066H16.2671V11.8224H17.4306V10.5066Z" fill="white"/>
    <path d="M17.4306 9.19079H16.2671V10.5066H17.4306V9.19079Z" fill="white"/>
    <path d="M17.4306 7.875H16.2671V9.19079H17.4306V7.875Z" fill="#424343"/>
    <path d="M18.594 31.5592H17.4306V32.875H18.594V31.5592Z" fill="#424343"/>
    <path d="M18.594 30.2434H17.4306V31.5592H18.594V30.2434Z" fill="white"/>
    <path d="M18.594 28.9276H17.4306V30.2434H18.594V28.9276Z" fill="#C9C9C9"/>
    <path d="M18.594 27.6118H17.4306V28.9276H18.594V27.6118Z" fill="#FF2E00"/>
    <path d="M18.594 26.2961H17.4306V27.6118H18.594V26.2961Z" fill="#FF2E00"/>
    <path d="M18.594 24.9803H17.4306V26.2961H18.594V24.9803Z" fill="#FF2E00"/>
    <path d="M18.594 23.6645H17.4306V24.9803H18.594V23.6645Z" fill="#FF2E00"/>
    <path d="M18.594 22.3487H17.4306V23.6645H18.594V22.3487Z" fill="#AB1F00"/>
    <path d="M18.594 21.0329H17.4306V22.3487H18.594V21.0329Z" fill="white"/>
    <path d="M18.594 19.7171H17.4306V21.0329H18.594V19.7171Z" fill="white"/>
    <path d="M18.594 18.4013H17.4306V19.7171H18.594V18.4013Z" fill="white"/>
    <path d="M18.594 17.0855H17.4306V18.4013H18.594V17.0855Z" fill="white"/>
    <path d="M18.594 15.7697H17.4306V17.0855H18.594V15.7697Z" fill="white"/>
    <path d="M18.594 14.4539H17.4306V15.7697H18.594V14.4539Z" fill="white"/>
    <path d="M18.594 13.1382H17.4306V14.4539H18.594V13.1382Z" fill="white"/>
    <path d="M18.594 11.8224H17.4306V13.1382H18.594V11.8224Z" fill="white"/>
    <path d="M18.594 10.5066H17.4306V11.8224H18.594V10.5066Z" fill="white"/>
    <path d="M18.594 9.19079H17.4306V10.5066H18.594V9.19079Z" fill="white"/>
    <path d="M18.594 7.875H17.4306V9.19079H18.594V7.875Z" fill="#424343"/>
    <path d="M19.7574 31.5592H18.594V32.875H19.7574V31.5592Z" fill="#424343"/>
    <path d="M19.7574 30.2434H18.594V31.5592H19.7574V30.2434Z" fill="white"/>
    <path d="M19.7574 28.9276H18.594V30.2434H19.7574V28.9276Z" fill="#C9C9C9"/>
    <path d="M19.7574 27.6118H18.594V28.9276H19.7574V27.6118Z" fill="white"/>
    <path d="M19.7574 26.2961H18.594V27.6118H19.7574V26.2961Z" fill="white"/>
    <path d="M19.7574 24.9803H18.594V26.2961H19.7574V24.9803Z" fill="white"/>
    <path d="M19.7574 23.6645H18.594V24.9803H19.7574V23.6645Z" fill="white"/>
    <path d="M19.7574 22.3487H18.594V23.6645H19.7574V22.3487Z" fill="white"/>
    <path d="M19.7574 21.0329H18.594V22.3487H19.7574V21.0329Z" fill="white"/>
    <path d="M19.7574 19.7171H18.594V21.0329H19.7574V19.7171Z" fill="white"/>
    <path d="M19.7574 18.4013H18.594V19.7171H19.7574V18.4013Z" fill="white"/>
    <path d="M19.7574 17.0855H18.594V18.4013H19.7574V17.0855Z" fill="white"/>
    <path d="M19.7574 15.7697H18.594V17.0855H19.7574V15.7697Z" fill="white"/>
    <path d="M19.7574 14.4539H18.594V15.7697H19.7574V14.4539Z" fill="white"/>
    <path d="M19.7574 13.1382H18.594V14.4539H19.7574V13.1382Z" fill="white"/>
    <path d="M19.7574 11.8224H18.594V13.1382H19.7574V11.8224Z" fill="white"/>
    <path d="M19.7574 10.5066H18.594V11.8224H19.7574V10.5066Z" fill="white"/>
    <path d="M19.7574 9.19079H18.594V10.5066H19.7574V9.19079Z" fill="white"/>
    <path d="M19.7574 7.875H18.594V9.19079H19.7574V7.875Z" fill="#424343"/>
    <path d="M20.9208 31.5592H19.7574V32.875H20.9208V31.5592Z" fill="#424343"/>
    <path d="M20.9208 30.2434H19.7574V31.5592H20.9208V30.2434Z" fill="white"/>
    <path d="M20.9208 28.9276H19.7574V30.2434H20.9208V28.9276Z" fill="#C9C9C9"/>
    <path d="M20.9208 27.6118H19.7574V28.9276H20.9208V27.6118Z" fill="#FF2E00"/>
    <path d="M20.9208 26.2961H19.7574V27.6118H20.9208V26.2961Z" fill="#FF2E00"/>
    <path d="M20.9208 24.9803H19.7574V26.2961H20.9208V24.9803Z" fill="#FF2E00"/>
    <path d="M20.9208 23.6645H19.7574V24.9803H20.9208V23.6645Z" fill="#FF2E00"/>
    <path d="M20.9208 22.3487H19.7574V23.6645H20.9208V22.3487Z" fill="#AB1F00"/>
    <path d="M20.9208 21.0329H19.7574V22.3487H20.9208V21.0329Z" fill="white"/>
    <path d="M20.9208 19.7171H19.7574V21.0329H20.9208V19.7171Z" fill="white"/>
    <path d="M20.9208 18.4013H19.7574V19.7171H20.9208V18.4013Z" fill="white"/>
    <path d="M20.9208 17.0855H19.7574V18.4013H20.9208V17.0855Z" fill="white"/>
    <path d="M20.9208 15.7697H19.7574V17.0855H20.9208V15.7697Z" fill="white"/>
    <path d="M20.9208 14.4539H19.7574V15.7697H20.9208V14.4539Z" fill="white"/>
    <path d="M20.9208 13.1382H19.7574V14.4539H20.9208V13.1382Z" fill="white"/>
    <path d="M20.9208 11.8224H19.7574V13.1382H20.9208V11.8224Z" fill="white"/>
    <path d="M20.9208 10.5066H19.7574V11.8224H20.9208V10.5066Z" fill="white"/>
    <path d="M20.9208 9.19079H19.7574V10.5066H20.9208V9.19079Z" fill="white"/>
    <path d="M20.9208 7.875H19.7574V9.19079H20.9208V7.875Z" fill="#424343"/>
    <path d="M22.0843 31.5592H20.9208V32.875H22.0843V31.5592Z" fill="#424343"/>
    <path d="M22.0843 30.2434H20.9208V31.5592H22.0843V30.2434Z" fill="white"/>
    <path d="M22.0843 28.9276H20.9208V30.2434H22.0843V28.9276Z" fill="#C9C9C9"/>
    <path d="M22.0843 27.6118H20.9208V28.9276H22.0843V27.6118Z" fill="white"/>
    <path d="M22.0843 26.2961H20.9208V27.6118H22.0843V26.2961Z" fill="white"/>
    <path d="M22.0843 24.9803H20.9208V26.2961H22.0843V24.9803Z" fill="white"/>
    <path d="M22.0843 23.6645H20.9208V24.9803H22.0843V23.6645Z" fill="white"/>
    <path d="M22.0843 22.3487H20.9208V23.6645H22.0843V22.3487Z" fill="white"/>
    <path d="M22.0843 21.0329H20.9208V22.3487H22.0843V21.0329Z" fill="white"/>
    <path d="M22.0843 19.7171H20.9208V21.0329H22.0843V19.7171Z" fill="white"/>
    <path d="M22.0843 18.4013H20.9208V19.7171H22.0843V18.4013Z" fill="white"/>
    <path d="M22.0843 17.0855H20.9208V18.4013H22.0843V17.0855Z" fill="white"/>
    <path d="M22.0843 15.7697H20.9208V17.0855H22.0843V15.7697Z" fill="white"/>
    <path d="M22.0843 14.4539H20.9208V15.7697H22.0843V14.4539Z" fill="white"/>
    <path d="M22.0843 13.1382H20.9208V14.4539H22.0843V13.1382Z" fill="white"/>
    <path d="M22.0843 11.8224H20.9208V13.1382H22.0843V11.8224Z" fill="white"/>
    <path d="M22.0843 10.5066H20.9208V11.8224H22.0843V10.5066Z" fill="white"/>
    <path d="M22.0843 9.19079H20.9208V10.5066H22.0843V9.19079Z" fill="white"/>
    <path d="M22.0843 7.875H20.9208V9.19079H22.0843V7.875Z" fill="#424343"/>
    <path d="M23.2477 31.5592H22.0843V32.875H23.2477V31.5592Z" fill="#424343"/>
    <path d="M23.2477 30.2434H22.0843V31.5592H23.2477V30.2434Z" fill="white"/>
    <path d="M23.2477 28.9276H22.0843V30.2434H23.2477V28.9276Z" fill="#C9C9C9"/>
    <path d="M23.2477 27.6118H22.0843V28.9276H23.2477V27.6118Z" fill="#FF2E00"/>
    <path d="M23.2477 26.2961H22.0843V27.6118H23.2477V26.2961Z" fill="#FF2E00"/>
    <path d="M23.2477 24.9803H22.0843V26.2961H23.2477V24.9803Z" fill="#FF2E00"/>
    <path d="M23.2477 23.6645H22.0843V24.9803H23.2477V23.6645Z" fill="#FF2E00"/>
    <path d="M23.2477 22.3487H22.0843V23.6645H23.2477V22.3487Z" fill="#FF2E00"/>
    <path d="M23.2477 21.0329H22.0843V22.3487H23.2477V21.0329Z" fill="#FF2E00"/>
    <path d="M23.2477 19.7171H22.0843V21.0329H23.2477V19.7171Z" fill="#AB1F00"/>
    <path d="M23.2477 18.4013H22.0843V19.7171H23.2477V18.4013Z" fill="white"/>
    <path d="M23.2477 17.0855H22.0843V18.4013H23.2477V17.0855Z" fill="white"/>
    <path d="M23.2477 15.7697H22.0843V17.0855H23.2477V15.7697Z" fill="white"/>
    <path d="M23.2477 14.4539H22.0843V15.7697H23.2477V14.4539Z" fill="white"/>
    <path d="M23.2477 13.1382H22.0843V14.4539H23.2477V13.1382Z" fill="white"/>
    <path d="M23.2477 11.8224H22.0843V13.1382H23.2477V11.8224Z" fill="white"/>
    <path d="M23.2477 10.5066H22.0843V11.8224H23.2477V10.5066Z" fill="white"/>
    <path d="M23.2477 9.19079H22.0843V10.5066H23.2477V9.19079Z" fill="white"/>
    <path d="M23.2477 7.875H22.0843V9.19079H23.2477V7.875Z" fill="#424343"/>
    <path d="M24.4111 31.5592H23.2477V32.875H24.4111V31.5592Z" fill="#424343"/>
    <path d="M24.4111 30.2434H23.2477V31.5592H24.4111V30.2434Z" fill="white"/>
    <path d="M24.4111 28.9276H23.2477V30.2434H24.4111V28.9276Z" fill="#C9C9C9"/>
    <path d="M24.4111 27.6118H23.2477V28.9276H24.4111V27.6118Z" fill="white"/>
    <path d="M24.4111 26.2961H23.2477V27.6118H24.4111V26.2961Z" fill="white"/>
    <path d="M24.4111 24.9803H23.2477V26.2961H24.4111V24.9803Z" fill="white"/>
    <path d="M24.4111 23.6645H23.2477V24.9803H24.4111V23.6645Z" fill="white"/>
    <path d="M24.4111 22.3487H23.2477V23.6645H24.4111V22.3487Z" fill="white"/>
    <path d="M24.4111 21.0329H23.2477V22.3487H24.4111V21.0329Z" fill="white"/>
    <path d="M24.4111 19.7171H23.2477V21.0329H24.4111V19.7171Z" fill="white"/>
    <path d="M24.4111 18.4013H23.2477V19.7171H24.4111V18.4013Z" fill="white"/>
    <path d="M24.4111 17.0855H23.2477V18.4013H24.4111V17.0855Z" fill="white"/>
    <path d="M24.4111 15.7697H23.2477V17.0855H24.4111V15.7697Z" fill="white"/>
    <path d="M24.4111 14.4539H23.2477V15.7697H24.4111V14.4539Z" fill="white"/>
    <path d="M24.4111 13.1382H23.2477V14.4539H24.4111V13.1382Z" fill="white"/>
    <path d="M24.4111 11.8224H23.2477V13.1382H24.4111V11.8224Z" fill="white"/>
    <path d="M24.4111 10.5066H23.2477V11.8224H24.4111V10.5066Z" fill="white"/>
    <path d="M24.4111 9.19079H23.2477V10.5066H24.4111V9.19079Z" fill="white"/>
    <path d="M24.4111 7.875H23.2477V9.19079H24.4111V7.875Z" fill="#424343"/>
    <path d="M25.5746 31.5592H24.4111V32.875H25.5746V31.5592Z" fill="#424343"/>
    <path d="M25.5746 30.2434H24.4111V31.5592H25.5746V30.2434Z" fill="white"/>
    <path d="M25.5746 28.9276H24.4111V30.2434H25.5746V28.9276Z" fill="#C9C9C9"/>
    <path d="M25.5746 27.6118H24.4111V28.9276H25.5746V27.6118Z" fill="#FF2E00"/>
    <path d="M25.5746 26.2961H24.4111V27.6118H25.5746V26.2961Z" fill="#FF2E00"/>
    <path d="M25.5746 24.9803H24.4111V26.2961H25.5746V24.9803Z" fill="#FF2E00"/>
    <path d="M25.5746 23.6645H24.4111V24.9803H25.5746V23.6645Z" fill="#FF2E00"/>
    <path d="M25.5746 22.3487H24.4111V23.6645H25.5746V22.3487Z" fill="#FF2E00"/>
    <path d="M25.5746 21.0329H24.4111V22.3487H25.5746V21.0329Z" fill="#FF2E00"/>
    <path d="M25.5746 19.7171H24.4111V21.0329H25.5746V19.7171Z" fill="#FF2E00"/>
    <path d="M25.5746 18.4013H24.4111V19.7171H25.5746V18.4013Z" fill="#AB1F00"/>
    <path d="M25.5746 17.0855H24.4111V18.4013H25.5746V17.0855Z" fill="white"/>
    <path d="M25.5746 15.7697H24.4111V17.0855H25.5746V15.7697Z" fill="white"/>
    <path d="M25.5746 14.4539H24.4111V15.7697H25.5746V14.4539Z" fill="white"/>
    <path d="M25.5746 13.1382H24.4111V14.4539H25.5746V13.1382Z" fill="white"/>
    <path d="M25.5746 11.8224H24.4111V13.1382H25.5746V11.8224Z" fill="white"/>
    <path d="M25.5746 10.5066H24.4111V11.8224H25.5746V10.5066Z" fill="white"/>
    <path d="M25.5746 9.19079H24.4111V10.5066H25.5746V9.19079Z" fill="white"/>
    <path d="M25.5746 7.875H24.4111V9.19079H25.5746V7.875Z" fill="#424343"/>
    <path d="M26.738 31.5592H25.5746V32.875H26.738V31.5592Z" fill="#424343"/>
    <path d="M26.738 30.2434H25.5746V31.5592H26.738V30.2434Z" fill="white"/>
    <path d="M26.738 28.9276H25.5746V30.2434H26.738V28.9276Z" fill="#C9C9C9"/>
    <path d="M26.738 27.6118H25.5746V28.9276H26.738V27.6118Z" fill="white"/>
    <path d="M26.738 26.2961H25.5746V27.6118H26.738V26.2961Z" fill="white"/>
    <path d="M26.738 24.9803H25.5746V26.2961H26.738V24.9803Z" fill="white"/>
    <path d="M26.738 23.6645H25.5746V24.9803H26.738V23.6645Z" fill="white"/>
    <path d="M26.738 22.3487H25.5746V23.6645H26.738V22.3487Z" fill="white"/>
    <path d="M26.738 21.0329H25.5746V22.3487H26.738V21.0329Z" fill="white"/>
    <path d="M26.738 19.7171H25.5746V21.0329H26.738V19.7171Z" fill="white"/>
    <path d="M26.738 18.4013H25.5746V19.7171H26.738V18.4013Z" fill="white"/>
    <path d="M26.738 17.0855H25.5746V18.4013H26.738V17.0855Z" fill="white"/>
    <path d="M26.738 15.7697H25.5746V17.0855H26.738V15.7697Z" fill="white"/>
    <path d="M26.738 14.4539H25.5746V15.7697H26.738V14.4539Z" fill="white"/>
    <path d="M26.738 13.1382H25.5746V14.4539H26.738V13.1382Z" fill="white"/>
    <path d="M26.738 11.8224H25.5746V13.1382H26.738V11.8224Z" fill="white"/>
    <path d="M26.738 10.5066H25.5746V11.8224H26.738V10.5066Z" fill="white"/>
    <path d="M26.738 9.19079H25.5746V10.5066H26.738V9.19079Z" fill="white"/>
    <path d="M26.738 7.875H25.5746V9.19079H26.738V7.875Z" fill="#424343"/>
    <path d="M27.9014 31.5592H26.738V32.875H27.9014V31.5592Z" fill="#424343"/>
    <path d="M27.9014 30.2434H26.738V31.5592H27.9014V30.2434Z" fill="white"/>
    <path d="M27.9014 28.9276H26.738V30.2434H27.9014V28.9276Z" fill="#C9C9C9"/>
    <path d="M27.9014 27.6118H26.738V28.9276H27.9014V27.6118Z" fill="#FF2E00"/>
    <path d="M27.9014 26.2961H26.738V27.6118H27.9014V26.2961Z" fill="#FF2E00"/>
    <path d="M27.9014 24.9803H26.738V26.2961H27.9014V24.9803Z" fill="#FF2E00"/>
    <path d="M27.9014 23.6645H26.738V24.9803H27.9014V23.6645Z" fill="#FF2E00"/>
    <path d="M27.9014 22.3487H26.738V23.6645H27.9014V22.3487Z" fill="#FF2E00"/>
    <path d="M27.9014 21.0329H26.738V22.3487H27.9014V21.0329Z" fill="#FF2E00"/>
    <path d="M27.9014 19.7171H26.738V21.0329H27.9014V19.7171Z" fill="#FF2E00"/>
    <path d="M27.9014 18.4013H26.738V19.7171H27.9014V18.4013Z" fill="#FF2E00"/>
    <path d="M27.9014 17.0855H26.738V18.4013H27.9014V17.0855Z" fill="#FF2E00"/>
    <path d="M27.9014 15.7697H26.738V17.0855H27.9014V15.7697Z" fill="#AB1F00"/>
    <path d="M27.9014 14.4539H26.738V15.7697H27.9014V14.4539Z" fill="white"/>
    <path d="M27.9014 13.1382H26.738V14.4539H27.9014V13.1382Z" fill="white"/>
    <path d="M27.9014 11.8224H26.738V13.1382H27.9014V11.8224Z" fill="white"/>
    <path d="M27.9014 10.5066H26.738V11.8224H27.9014V10.5066Z" fill="white"/>
    <path d="M27.9014 9.19079H26.738V10.5066H27.9014V9.19079Z" fill="white"/>
    <path d="M27.9014 7.875H26.738V9.19079H27.9014V7.875Z" fill="#424343"/>
    <path d="M29.0649 31.5592H27.9014V32.875H29.0649V31.5592Z" fill="#424343"/>
    <path d="M29.0649 30.2434H27.9014V31.5592H29.0649V30.2434Z" fill="white"/>
    <path d="M29.0649 28.9276H27.9014V30.2434H29.0649V28.9276Z" fill="#C9C9C9"/>
    <path d="M29.0649 27.6118H27.9014V28.9276H29.0649V27.6118Z" fill="white"/>
    <path d="M29.0649 26.2961H27.9014V27.6118H29.0649V26.2961Z" fill="white"/>
    <path d="M29.0649 24.9803H27.9014V26.2961H29.0649V24.9803Z" fill="white"/>
    <path d="M29.0649 23.6645H27.9014V24.9803H29.0649V23.6645Z" fill="white"/>
    <path d="M29.0649 22.3487H27.9014V23.6645H29.0649V22.3487Z" fill="white"/>
    <path d="M29.0649 21.0329H27.9014V22.3487H29.0649V21.0329Z" fill="white"/>
    <path d="M29.0649 19.7171H27.9014V21.0329H29.0649V19.7171Z" fill="white"/>
    <path d="M29.0649 18.4013H27.9014V19.7171H29.0649V18.4013Z" fill="white"/>
    <path d="M29.0649 17.0855H27.9014V18.4013H29.0649V17.0855Z" fill="white"/>
    <path d="M29.0649 15.7697H27.9014V17.0855H29.0649V15.7697Z" fill="white"/>
    <path d="M29.0649 14.4539H27.9014V15.7697H29.0649V14.4539Z" fill="white"/>
    <path d="M29.0649 13.1382H27.9014V14.4539H29.0649V13.1382Z" fill="white"/>
    <path d="M29.0649 11.8224H27.9014V13.1382H29.0649V11.8224Z" fill="white"/>
    <path d="M29.0649 10.5066H27.9014V11.8224H29.0649V10.5066Z" fill="white"/>
    <path d="M29.0649 9.19079H27.9014V10.5066H29.0649V9.19079Z" fill="white"/>
    <path d="M29.0649 7.875H27.9014V9.19079H29.0649V7.875Z" fill="#424343"/>
    <path d="M30.2283 31.5592H29.0649V32.875H30.2283V31.5592Z" fill="#424343"/>
    <path d="M30.2283 30.2434H29.0649V31.5592H30.2283V30.2434Z" fill="white"/>
    <path d="M30.2283 28.9276H29.0649V30.2434H30.2283V28.9276Z" fill="#C9C9C9"/>
    <path d="M30.2283 27.6118H29.0649V28.9276H30.2283V27.6118Z" fill="#FF2E00"/>
    <path d="M30.2283 26.2961H29.0649V27.6118H30.2283V26.2961Z" fill="#FF2E00"/>
    <path d="M30.2283 24.9803H29.0649V26.2961H30.2283V24.9803Z" fill="#FF2E00"/>
    <path d="M30.2283 23.6645H29.0649V24.9803H30.2283V23.6645Z" fill="#FF2E00"/>
    <path d="M30.2283 22.3487H29.0649V23.6645H30.2283V22.3487Z" fill="#FF2E00"/>
    <path d="M30.2283 21.0329H29.0649V22.3487H30.2283V21.0329Z" fill="#FF2E00"/>
    <path d="M30.2283 19.7171H29.0649V21.0329H30.2283V19.7171Z" fill="#FF2E00"/>
    <path d="M30.2283 18.4013H29.0649V19.7171H30.2283V18.4013Z" fill="#FF2E00"/>
    <path d="M30.2283 17.0855H29.0649V18.4013H30.2283V17.0855Z" fill="#FF2E00"/>
    <path d="M30.2283 15.7697H29.0649V17.0855H30.2283V15.7697Z" fill="#FF2E00"/>
    <path d="M30.2283 14.4539H29.0649V15.7697H30.2283V14.4539Z" fill="#FF2E00"/>
    <path d="M30.2283 13.1382H29.0649V14.4539H30.2283V13.1382Z" fill="#AB1F00"/>
    <path d="M30.2283 11.8224H29.0649V13.1382H30.2283V11.8224Z" fill="white"/>
    <path d="M30.2283 10.5066H29.0649V11.8224H30.2283V10.5066Z" fill="white"/>
    <path d="M30.2283 9.19079H29.0649V10.5066H30.2283V9.19079Z" fill="white"/>
    <path d="M30.2283 7.875H29.0649V9.19079H30.2283V7.875Z" fill="#424343"/>
    <path d="M31.3917 31.5592H30.2283V32.875H31.3917V31.5592Z" fill="#424343"/>
    <path d="M31.3917 30.2434H30.2283V31.5592H31.3917V30.2434Z" fill="white"/>
    <path d="M31.3917 28.9276H30.2283V30.2434H31.3917V28.9276Z" fill="#C9C9C9"/>
    <path d="M31.3917 27.6118H30.2283V28.9276H31.3917V27.6118Z" fill="white"/>
    <path d="M31.3917 26.2961H30.2283V27.6118H31.3917V26.2961Z" fill="white"/>
    <path d="M31.3917 24.9803H30.2283V26.2961H31.3917V24.9803Z" fill="white"/>
    <path d="M31.3917 23.6645H30.2283V24.9803H31.3917V23.6645Z" fill="white"/>
    <path d="M31.3917 22.3487H30.2283V23.6645H31.3917V22.3487Z" fill="white"/>
    <path d="M31.3917 21.0329H30.2283V22.3487H31.3917V21.0329Z" fill="white"/>
    <path d="M31.3917 19.7171H30.2283V21.0329H31.3917V19.7171Z" fill="white"/>
    <path d="M31.3917 18.4013H30.2283V19.7171H31.3917V18.4013Z" fill="white"/>
    <path d="M31.3917 17.0855H30.2283V18.4013H31.3917V17.0855Z" fill="white"/>
    <path d="M31.3917 15.7697H30.2283V17.0855H31.3917V15.7697Z" fill="white"/>
    <path d="M31.3917 14.4539H30.2283V15.7697H31.3917V14.4539Z" fill="white"/>
    <path d="M31.3917 13.1382H30.2283V14.4539H31.3917V13.1382Z" fill="white"/>
    <path d="M31.3917 11.8224H30.2283V13.1382H31.3917V11.8224Z" fill="white"/>
    <path d="M31.3917 10.5066H30.2283V11.8224H31.3917V10.5066Z" fill="white"/>
    <path d="M31.3917 9.19079H30.2283V10.5066H31.3917V9.19079Z" fill="white"/>
    <path d="M31.3917 7.875H30.2283V9.19079H31.3917V7.875Z" fill="#424343"/>
    <path d="M32.5551 31.5592H31.3917V32.875H32.5551V31.5592Z" fill="#424343"/>
    <path d="M32.5551 30.2434H31.3917V31.5592H32.5551V30.2434Z" fill="white"/>
    <path d="M32.5551 28.9276H31.3917V30.2434H32.5551V28.9276Z" fill="#C9C9C9"/>
    <path d="M32.5551 27.6118H31.3917V28.9276H32.5551V27.6118Z" fill="#FF2E00"/>
    <path d="M32.5551 26.2961H31.3917V27.6118H32.5551V26.2961Z" fill="#FF2E00"/>
    <path d="M32.5551 24.9803H31.3917V26.2961H32.5551V24.9803Z" fill="#FF2E00"/>
    <path d="M32.5551 23.6645H31.3917V24.9803H32.5551V23.6645Z" fill="#FF2E00"/>
    <path d="M32.5551 22.3487H31.3917V23.6645H32.5551V22.3487Z" fill="#FF2E00"/>
    <path d="M32.5551 21.0329H31.3917V22.3487H32.5551V21.0329Z" fill="#FF2E00"/>
    <path d="M32.5551 19.7171H31.3917V21.0329H32.5551V19.7171Z" fill="#FF2E00"/>
    <path d="M32.5551 18.4013H31.3917V19.7171H32.5551V18.4013Z" fill="#FF2E00"/>
    <path d="M32.5551 17.0855H31.3917V18.4013H32.5551V17.0855Z" fill="#FF2E00"/>
    <path d="M32.5551 15.7697H31.3917V17.0855H32.5551V15.7697Z" fill="#FF2E00"/>
    <path d="M32.5551 14.4539H31.3917V15.7697H32.5551V14.4539Z" fill="#FF2E00"/>
    <path d="M32.5551 13.1382H31.3917V14.4539H32.5551V13.1382Z" fill="#FF2E00"/>
    <path d="M32.5551 11.8224H31.3917V13.1382H32.5551V11.8224Z" fill="#FF2E00"/>
    <path d="M32.5551 10.5066H31.3917V11.8224H32.5551V10.5066Z" fill="#AB1F00"/>
    <path d="M32.5551 9.19079H31.3917V10.5066H32.5551V9.19079Z" fill="white"/>
    <path d="M32.5551 7.875H31.3917V9.19079H32.5551V7.875Z" fill="#424343"/>
    <path d="M33.7186 31.5592H32.5551V32.875H33.7186V31.5592Z" fill="#424343"/>
    <path d="M33.7186 30.2434H32.5551V31.5592H33.7186V30.2434Z" fill="white"/>
    <path d="M33.7186 28.9276H32.5551V30.2434H33.7186V28.9276Z" fill="white"/>
    <path d="M33.7186 27.6118H32.5551V28.9276H33.7186V27.6118Z" fill="white"/>
    <path d="M33.7186 26.2961H32.5551V27.6118H33.7186V26.2961Z" fill="white"/>
    <path d="M33.7186 24.9803H32.5551V26.2961H33.7186V24.9803Z" fill="white"/>
    <path d="M33.7186 23.6645H32.5551V24.9803H33.7186V23.6645Z" fill="white"/>
    <path d="M33.7186 22.3487H32.5551V23.6645H33.7186V22.3487Z" fill="white"/>
    <path d="M33.7186 21.0329H32.5551V22.3487H33.7186V21.0329Z" fill="white"/>
    <path d="M33.7186 19.7171H32.5551V21.0329H33.7186V19.7171Z" fill="white"/>
    <path d="M33.7186 18.4013H32.5551V19.7171H33.7186V18.4013Z" fill="white"/>
    <path d="M33.7186 17.0855H32.5551V18.4013H33.7186V17.0855Z" fill="white"/>
    <path d="M33.7186 15.7697H32.5551V17.0855H33.7186V15.7697Z" fill="white"/>
    <path d="M33.7186 14.4539H32.5551V15.7697H33.7186V14.4539Z" fill="white"/>
    <path d="M33.7186 13.1382H32.5551V14.4539H33.7186V13.1382Z" fill="white"/>
    <path d="M33.7186 11.8224H32.5551V13.1382H33.7186V11.8224Z" fill="white"/>
    <path d="M33.7186 10.5066H32.5551V11.8224H33.7186V10.5066Z" fill="white"/>
    <path d="M33.7186 9.19079H32.5551V10.5066H33.7186V9.19079Z" fill="white"/>
    <path d="M33.7186 7.875H32.5551V9.19079H33.7186V7.875Z" fill="#424343"/>
    <path d="M34.882 31.5592H33.7186V32.875H34.882V31.5592Z" fill="#424343"/>
    <path d="M34.882 30.2434H33.7186V31.5592H34.882V30.2434Z" fill="white"/>
    <path d="M34.882 28.9276H33.7186V30.2434H34.882V28.9276Z" fill="white"/>
    <path d="M34.882 27.6118H33.7186V28.9276H34.882V27.6118Z" fill="white"/>
    <path d="M34.882 26.2961H33.7186V27.6118H34.882V26.2961Z" fill="white"/>
    <path d="M34.882 24.9803H33.7186V26.2961H34.882V24.9803Z" fill="white"/>
    <path d="M34.882 23.6645H33.7186V24.9803H34.882V23.6645Z" fill="white"/>
    <path d="M34.882 22.3487H33.7186V23.6645H34.882V22.3487Z" fill="white"/>
    <path d="M34.882 21.0329H33.7186V22.3487H34.882V21.0329Z" fill="white"/>
    <path d="M34.882 19.7171H33.7186V21.0329H34.882V19.7171Z" fill="white"/>
    <path d="M34.882 18.4013H33.7186V19.7171H34.882V18.4013Z" fill="white"/>
    <path d="M34.882 17.0855H33.7186V18.4013H34.882V17.0855Z" fill="white"/>
    <path d="M34.882 15.7697H33.7186V17.0855H34.882V15.7697Z" fill="white"/>
    <path d="M34.882 14.4539H33.7186V15.7697H34.882V14.4539Z" fill="white"/>
    <path d="M34.882 13.1382H33.7186V14.4539H34.882V13.1382Z" fill="white"/>
    <path d="M34.882 11.8224H33.7186V13.1382H34.882V11.8224Z" fill="white"/>
    <path d="M34.882 10.5066H33.7186V11.8224H34.882V10.5066Z" fill="white"/>
    <path d="M34.882 9.19079H33.7186V10.5066H34.882V9.19079Z" fill="white"/>
    <path d="M34.882 7.875H33.7186V9.19079H34.882V7.875Z" fill="#424343"/>
    <path d="M36.0454 31.5592H34.882V32.875H36.0454V31.5592Z" fill="#424343"/>
    <path d="M36.0454 30.2434H34.882V31.5592H36.0454V30.2434Z" fill="#424343"/>
    <path d="M36.0454 28.9276H34.882V30.2434H36.0454V28.9276Z" fill="#424343"/>
    <path d="M36.0454 27.6118H34.882V28.9276H36.0454V27.6118Z" fill="#424343"/>
    <path d="M36.0454 26.2961H34.882V27.6118H36.0454V26.2961Z" fill="#424343"/>
    <path d="M36.0454 24.9803H34.882V26.2961H36.0454V24.9803Z" fill="#424343"/>
    <path d="M36.0454 23.6645H34.882V24.9803H36.0454V23.6645Z" fill="#424343"/>
    <path d="M36.0454 22.3487H34.882V23.6645H36.0454V22.3487Z" fill="#424343"/>
    <path d="M36.0454 21.0329H34.882V22.3487H36.0454V21.0329Z" fill="#424343"/>
    <path d="M36.0454 19.7171H34.882V21.0329H36.0454V19.7171Z" fill="#424343"/>
    <path d="M36.0454 18.4013H34.882V19.7171H36.0454V18.4013Z" fill="#424343"/>
    <path d="M36.0454 17.0855H34.882V18.4013H36.0454V17.0855Z" fill="#424343"/>
    <path d="M36.0454 15.7697H34.882V17.0855H36.0454V15.7697Z" fill="#424343"/>
    <path d="M36.0454 14.4539H34.882V15.7697H36.0454V14.4539Z" fill="#424343"/>
    <path d="M36.0454 13.1382H34.882V14.4539H36.0454V13.1382Z" fill="#424343"/>
    <path d="M36.0454 11.8224H34.882V13.1382H36.0454V11.8224Z" fill="#424343"/>
    <path d="M36.0454 10.5066H34.882V11.8224H36.0454V10.5066Z" fill="#424343"/>
    <path d="M36.0454 9.19079H34.882V10.5066H36.0454V9.19079Z" fill="#424343"/>
    <path d="M36.0454 7.875H34.882V9.19079H36.0454V7.875Z" fill="#424343"/>
</svg>
