<svg width="221" height="125" viewBox="0 0 221 125" fill="none" xmlns="http://www.w3.org/2000/svg">
    <rect width="209.62" height="85" transform="matrix(1 -8.685e-08 -8.79972e-08 -1 4.49274 114)" fill="white"/>
    <rect width="189.656" height="15" transform="matrix(1 -8.60162e-08 -8.88472e-08 -1 16.4711 123)" fill="white"/>
    <rect width="7.79396" height="14.1406" transform="matrix(1 -8.74228e-08 -8.74228e-08 -1 11.3615 121.146)" fill="white"/>
    <rect width="7.79396" height="14.1406" transform="matrix(1 -8.74228e-08 -8.74228e-08 -1 9.12646 116.747)" fill="white"/>
    <rect width="7.79396" height="14.1406" transform="matrix(1 -8.74228e-08 -8.74228e-08 -1 7.16589 41.0098)" fill="white"/>
    <rect width="7.79396" height="18.8014" transform="matrix(1 -8.74228e-08 -8.74228e-08 -1 33.2805 23.9868)" fill="white"/>
    <rect width="7.79396" height="18.8014" transform="matrix(1 -8.74228e-08 -8.74228e-08 -1 38.5045 28.3076)" fill="white"/>
    <rect width="7.79396" height="18.8014" transform="matrix(1 -8.74228e-08 -8.74228e-08 -1 43.0138 36.2695)" fill="white"/>
    <rect width="7.98553" height="14" transform="matrix(1 -8.56052e-08 -8.92722e-08 -1 203.133 117)" fill="white"/>
    <rect width="7.98553" height="14" transform="matrix(1 -8.56052e-08 -8.92722e-08 -1 202.135 38)" fill="white"/>
    <rect width="191.653" height="14" transform="matrix(1 -8.685e-08 -8.79972e-08 -1 13.4765 35)" fill="white"/>
    <g opacity="0.3">
        <path d="M35.6331 21.6836L31.3199 21.6836L31.3199 4.32092L35.6331 4.32092L35.6331 21.6836Z" fill="black"/>
        <path d="M39.9463 4.32129L35.6331 4.32129L35.6331 0.000259399L39.9463 0.000259022L39.9463 4.32129Z" fill="black"/>
        <path d="M44.3379 8.7207L40.0247 8.7207L40.0247 4.39967L44.3379 4.39967L44.3379 8.7207Z" fill="black"/>
        <path d="M48.6511 13.0415L44.3379 13.0415L44.3379 8.72047L48.6511 8.72047L48.6511 13.0415Z" fill="black"/>
        <path d="M52.9643 17.3628L48.6511 17.3628L48.6511 13.0418L52.9643 13.0418L52.9643 17.3628Z" fill="black"/>
        <path d="M57.3561 21.6836L53.0428 21.6836L53.0428 17.3626L57.3561 17.3626L57.3561 21.6836Z" fill="black"/>
        <path d="M207.126 23L53.4041 23L53.4041 18L207.126 18L207.126 23Z" fill="black"/>
        <path d="M35.6331 21.6836L15.8707 21.6836L15.8707 17.3626L35.6331 17.3626L35.6331 21.6836Z" fill="black"/>
        <path d="M207.126 125L15.4728 125L15.4728 120L207.126 120L207.126 125Z" fill="black"/>
        <path d="M220.5 111.877L216.187 111.877L216.187 30.6421L220.5 30.6421L220.5 111.877Z" fill="black"/>
        <path d="M211.795 120.598L207.482 120.598L207.482 116.277L211.795 116.277L211.795 120.598Z" fill="black"/>
        <path d="M216.108 116.198L211.795 116.198L211.795 111.877L216.108 111.877L216.108 116.198Z" fill="black"/>
        <path d="M211.795 26.3208L207.482 26.3208L207.482 21.9998L211.795 21.9998L211.795 26.3208Z" fill="black"/>
        <path d="M216.108 30.6421L211.795 30.6421L211.795 26.3211L216.108 26.3211L216.108 30.6421Z" fill="black"/>
        <path d="M7.16587 111.64L2.85266 111.64L2.85265 30.4043L7.16587 30.4043L7.16587 111.64Z" fill="black"/>
        <path d="M15.8707 120.36L11.5575 120.36L11.5575 116.039L15.8707 116.039L15.8707 120.36Z" fill="black"/>
        <path d="M11.4791 115.961L7.16589 115.961L7.16589 111.64L11.4791 111.64L11.4791 115.961Z" fill="black"/>
        <path d="M15.8707 26.0835L11.5575 26.0835L11.5575 21.7625L15.8707 21.7625L15.8707 26.0835Z" fill="black"/>
        <path d="M11.4791 30.4043L7.16589 30.4043L7.16589 26.0833L11.4791 26.0833L11.4791 30.4043Z" fill="black"/>
    </g>
    <path d="M33.2804 22.4692L28.9672 22.4692L28.9672 5.10656L33.2804 5.10656L33.2804 22.4692Z" fill="#231F20"/>
    <path d="M37.5937 5.10644L33.2805 5.10645L33.2805 0.785416L37.5937 0.785415L37.5937 5.10644Z" fill="#231F20"/>
    <path d="M41.9855 9.50635L37.6722 9.50635L37.6722 5.18532L41.9855 5.18532L41.9855 9.50635Z" fill="#231F20"/>
    <path d="M46.2986 13.8271L41.9854 13.8271L41.9854 9.50612L46.2986 9.50612L46.2986 13.8271Z" fill="#231F20"/>
    <path d="M50.6118 18.1484L46.2986 18.1484L46.2986 13.8274L50.6118 13.8274L50.6118 18.1484Z" fill="#231F20"/>
    <path d="M55.0035 22.4692L50.6903 22.4692L50.6903 18.1482L55.0035 18.1482L55.0035 22.4692Z" fill="#231F20"/>
    <path d="M205.129 23L50.4095 23L50.4095 19L205.129 19L205.129 23Z" fill="#231F20"/>
    <path d="M33.2804 22.4692L13.518 22.4692L13.518 18.1482L33.2804 18.1482L33.2804 22.4692Z" fill="#231F20"/>
    <path d="M205.129 125L13.4765 125L13.4765 121L205.129 121L205.129 125Z" fill="#231F20"/>
    <path d="M218.147 112.663L213.834 112.663L213.834 31.4277L218.147 31.4277L218.147 112.663Z" fill="#231F20"/>
    <path d="M209.442 121.384L205.129 121.384L205.129 117.063L209.442 117.063L209.442 121.384Z" fill="#231F20"/>
    <path d="M213.756 116.984L209.442 116.984L209.442 112.663L213.756 112.663L213.756 116.984Z" fill="#231F20"/>
    <path d="M209.442 27.1064L205.129 27.1064L205.129 22.7854L209.442 22.7854L209.442 27.1064Z" fill="#231F20"/>
    <path d="M213.756 31.4277L209.442 31.4277L209.442 27.1067L213.756 27.1067L213.756 31.4277Z" fill="#231F20"/>
    <path d="M4.81321 112.425L0.5 112.425L0.499993 31.1899L4.81321 31.1899L4.81321 112.425Z" fill="#231F20"/>
    <path d="M13.518 121.146L9.20483 121.146L9.20483 116.825L13.518 116.825L13.518 121.146Z" fill="#231F20"/>
    <path d="M9.12645 116.747L4.81323 116.747L4.81323 112.426L9.12645 112.426L9.12645 116.747Z" fill="#231F20"/>
    <path d="M13.518 26.8691L9.20483 26.8691L9.20483 22.5481L13.518 22.5481L13.518 26.8691Z" fill="#231F20"/>
    <path d="M9.12645 31.1899L4.81323 31.1899L4.81323 26.8689L9.12645 26.8689L9.12645 31.1899Z" fill="#231F20"/>
    <path d="M19.5 54V38.4444H23.9444V42.8889H26.1667V40.6667H28.3889V38.4444H32.8333V40.6667H30.6111V42.8889H28.3889V45.1111H26.1667V47.3333H28.3889V49.5556H30.6111V51.7778H32.8333V54H28.3889V51.7778H26.1667V49.5556H23.9444V54H19.5ZM37.2691 51.7778H35.0469V45.1111H37.2691V42.8889H46.158V45.1111H48.3802V51.7778H46.158V54H37.2691V51.7778ZM43.9358 45.1111H39.4913V51.7778H43.9358V45.1111ZM59.4826 51.7778H57.2604V47.3333H59.4826V51.7778ZM61.7049 45.1111V42.8889H66.1493V54H61.7049V47.3333H59.4826V45.1111H61.7049ZM55.0382 47.3333V54H50.5938V42.8889H55.0382V45.1111H57.2604V47.3333H55.0382ZM72.8116 51.7778H77.2561V45.1111H72.8116V51.7778ZM70.5894 51.7778H68.3672V45.1111H70.5894V42.8889H81.7005V54H70.5894V51.7778ZM92.803 54V49.5556H88.3585V54H83.9141V42.8889H88.3585V47.3333H92.803V42.8889H97.2474V54H92.803ZM110.572 56.2222V54H103.905V56.2222H99.4609V51.7778H101.683V45.1111H103.905V42.8889H110.572V45.1111H112.794V51.7778H115.016V56.2222H110.572ZM106.128 51.7778H108.35V45.1111H106.128V51.7778ZM121.679 51.7778H126.123V45.1111H121.679V51.7778ZM119.457 51.7778H117.234V45.1111H119.457V42.8889H130.568V54H119.457V51.7778Z" fill="#444042"/>
    <path d="M22.0556 76.8889V80H20.5V72.2222H22.0556V75.3333H26.7222V72.2222H28.2778V80H26.7222V76.8889H22.0556ZM31.3934 78.4444H29.8379V73.7778H31.3934V78.4444ZM36.0601 75.3333H34.5046V73.7778H36.0601V72.2222H37.6157V80H36.0601V78.4444H34.5046V76.8889H36.0601V75.3333ZM34.5046 80H31.3934V78.4444H34.5046V80ZM34.5046 73.7778H31.3934V72.2222H34.5046V73.7778ZM46.9536 78.4444H45.398V76.8889H46.9536V78.4444ZM45.398 72.2222V73.7778H40.7313V75.3333H45.398V76.8889H40.7313V78.4444H45.398V80H39.1758V72.2222H45.398ZM46.9536 75.3333H45.398V73.7778H46.9536V75.3333ZM53.1803 78.4444H51.6248V76.8889H53.1803V78.4444ZM56.2914 80H54.7359V72.2222H56.2914V80ZM50.0692 75.3333H51.6248V76.8889H50.0692V78.4444H51.6248V80H48.5137V72.2222H50.0692V75.3333ZM59.4071 76.8889V80H57.8516V72.2222H59.4071V75.3333H62.5182V76.8889H59.4071ZM65.6293 80H64.0738V78.4444H65.6293V80ZM64.0738 78.4444H62.5182V76.8889H64.0738V78.4444ZM65.6293 73.7778H64.0738V72.2222H65.6293V73.7778ZM64.0738 75.3333H62.5182V73.7778H64.0738V75.3333ZM28.2778 93.8889H26.7222V89.2222H28.2778V93.8889ZM26.7222 93.8889V97H25.1667V95.4444H22.0556V93.8889H26.7222ZM22.0556 93.8889H20.5V89.2222H22.0556V93.8889ZM25.1667 98.5556H20.5V97H25.1667V98.5556ZM31.3934 90.7778V97H29.8379V89.2222H37.6157V97H36.0601V90.7778H31.3934ZM45.398 90.7778H40.7313V89.2222H45.398V90.7778ZM40.7313 97V100.111H39.1758V90.7778H40.7313V95.4444H45.398V97H40.7313ZM46.9536 95.4444H45.398V90.7778H46.9536V95.4444ZM50.0692 95.4444H48.5137V90.7778H50.0692V95.4444ZM54.7359 92.3333H53.1803V90.7778H54.7359V89.2222H56.2914V97H54.7359V95.4444H53.1803V93.8889H54.7359V92.3333ZM53.1803 97H50.0692V95.4444H53.1803V97ZM53.1803 90.7778H50.0692V89.2222H53.1803V90.7778ZM65.6293 95.4444H64.0738V93.8889H65.6293V95.4444ZM64.0738 89.2222V90.7778H59.4071V92.3333H64.0738V93.8889H59.4071V95.4444H64.0738V97H57.8516V89.2222H64.0738ZM65.6293 92.3333H64.0738V90.7778H65.6293V92.3333ZM68.745 97H67.1895V95.4444H68.745V97ZM70.3006 90.7778V95.4444H68.745V89.2222H74.9672V97H73.4117V90.7778H70.3006ZM82.7496 90.7778H78.0829V89.2222H82.7496V90.7778ZM78.0829 93.8889V95.4444H76.5273V90.7778H78.0829V92.3333H82.7496V90.7778H84.3051V93.8889H78.0829ZM84.3051 97H78.0829V95.4444H84.3051V97ZM87.4208 93.8889V97H85.8652V89.2222H87.4208V92.3333H92.0875V89.2222H93.643V97H92.0875V93.8889H87.4208ZM96.7587 95.4444V97H95.2031V89.2222H96.7587V93.8889H98.3142V95.4444H96.7587ZM101.425 90.7778V89.2222H102.981V97H101.425V92.3333H99.8698V90.7778H101.425ZM99.8698 93.8889H98.3142V92.3333H99.8698V93.8889ZM110.763 90.7778H106.097V89.2222H110.763V90.7778ZM106.097 93.8889V95.4444H104.541V90.7778H106.097V92.3333H110.763V90.7778H112.319V93.8889H106.097ZM112.319 97H106.097V95.4444H112.319V97ZM120.097 93.8889V97H118.541V89.2222H120.097V92.3333H123.208V93.8889H120.097ZM126.319 97H124.763V95.4444H126.319V97ZM124.763 95.4444H123.208V93.8889H124.763V95.4444ZM126.319 90.7778H124.763V89.2222H126.319V90.7778ZM124.763 92.3333H123.208V90.7778H124.763V92.3333ZM129.434 95.4444H127.879V90.7778H129.434V95.4444ZM134.101 90.7778H129.434V89.2222H134.101V90.7778ZM135.657 95.4444H134.101V90.7778H135.657V95.4444ZM134.101 97H129.434V95.4444H134.101V97ZM141.883 95.4444H140.328V92.3333H141.883V95.4444ZM143.439 90.7778V89.2222H144.995V97H143.439V92.3333H141.883V90.7778H143.439ZM138.772 92.3333V97H137.217V89.2222H138.772V90.7778H140.328V92.3333H138.772ZM148.11 95.4444H146.555V90.7778H148.11V95.4444ZM152.777 92.3333H151.221V90.7778H152.777V89.2222H154.332V97H152.777V95.4444H151.221V93.8889H152.777V92.3333ZM151.221 97H148.11V95.4444H151.221V97ZM151.221 90.7778H148.11V89.2222H151.221V90.7778ZM157.448 93.8889V97H155.893V89.2222H157.448V92.3333H162.115V89.2222H163.67V97H162.115V93.8889H157.448ZM166.786 97V98.5556H165.23V95.4444H166.786V90.7778H168.342V95.4444H171.453V90.7778H173.008V95.4444H174.564V98.5556H173.008V97H166.786ZM171.453 90.7778H168.342V89.2222H171.453V90.7778ZM177.669 95.4444H176.113V90.7778H177.669V95.4444ZM182.336 90.7778H177.669V89.2222H182.336V90.7778ZM183.891 95.4444H182.336V90.7778H183.891V95.4444ZM182.336 97H177.669V95.4444H182.336V97ZM187.007 95.4444V97H185.451V89.2222H187.007V93.8889H188.562V95.4444H187.007ZM191.673 86.1111H190.118V84.5556H191.673V86.1111ZM190.118 87.6667H188.562V86.1111H190.118V87.6667ZM188.562 86.1111H187.007V84.5556H188.562V86.1111ZM191.673 90.7778V89.2222H193.229V97H191.673V92.3333H190.118V90.7778H191.673ZM190.118 93.8889H188.562V92.3333H190.118V93.8889Z" fill="#1B1A1A"/>
</svg>
