<svg width="217" height="126" viewBox="0 0 217 126" fill="none" xmlns="http://www.w3.org/2000/svg">
    <rect width="205.129" height="84.8212" transform="matrix(1 -8.71815e-08 -8.76647e-08 -1 4.4043 113.679)" fill="white"/>
    <rect width="186.477" height="14.088" transform="matrix(1 -8.71815e-08 -8.76647e-08 -1 15.4711 122.466)" fill="white"/>
    <rect width="7.80055" height="14.088" transform="matrix(1 -8.71815e-08 -8.76647e-08 -1 10.958 121.096)" fill="white"/>
    <rect width="7.80055" height="14.088" transform="matrix(1 -8.71815e-08 -8.76647e-08 -1 8.72119 116.713)" fill="white"/>
    <rect width="7.80055" height="14.088" transform="matrix(1 -8.71815e-08 -8.76647e-08 -1 6.75891 41.2578)" fill="white"/>
    <rect width="7.80055" height="18.7314" transform="matrix(1 -8.71815e-08 -8.76647e-08 -1 32.8955 24.2981)" fill="white"/>
    <rect width="7.80055" height="18.7314" transform="matrix(1 -8.71815e-08 -8.76647e-08 -1 38.124 28.603)" fill="white"/>
    <rect width="7.80055" height="18.7314" transform="matrix(1 -8.71815e-08 -8.76647e-08 -1 42.6371 36.5354)" fill="white"/>
    <rect width="7.80055" height="14.088" transform="matrix(1 -8.71815e-08 -8.76647e-08 -1 199.158 116.791)" fill="white"/>
    <rect width="7.80055" height="14.088" transform="matrix(1 -8.71815e-08 -8.76647e-08 -1 197.416 38.3228)" fill="white"/>
    <rect width="187.587" height="14.088" transform="matrix(1 -8.71815e-08 -8.76647e-08 -1 13.1165 35.5837)" fill="white"/>
    <g opacity="0.3">
        <path d="M35.2502 22.0039L30.9333 22.0039L30.9333 4.70586L35.2502 4.70586L35.2502 22.0039Z" fill="black"/>
        <path d="M39.5671 4.70581L35.2502 4.70581L35.2502 0.400864L39.5671 0.400864L39.5671 4.70581Z" fill="black"/>
        <path d="M43.9624 9.08911L39.6455 9.08911L39.6455 4.78416L43.9624 4.78416L43.9624 9.08911Z" fill="black"/>
        <path d="M48.2793 13.394L43.9624 13.394L43.9624 9.0891L48.2793 9.0891L48.2793 13.394Z" fill="black"/>
        <path d="M52.5962 17.699L48.2793 17.699L48.2793 13.394L52.5962 13.394L52.5962 17.699Z" fill="black"/>
        <path d="M56.9915 22.0039L52.6747 22.0039L52.6747 17.699L56.9915 17.699L56.9915 22.0039Z" fill="black"/>
        <path d="M203.058 22.0039L52.6747 22.0039L52.6747 17.699L203.058 17.6989L203.058 22.0039Z" fill="black"/>
        <path d="M35.2501 22.0039L15.4711 22.0039L15.4711 17.699L35.2501 17.699L35.2501 22.0039Z" fill="black"/>
        <path d="M203.058 124.618L15.4711 124.618L15.4711 120.313L203.058 120.313L203.058 124.618Z" fill="black"/>
        <path d="M216.087 111.625L211.771 111.625L211.771 30.692L216.087 30.692L216.087 111.625Z" fill="black"/>
        <path d="M207.375 120.313L203.058 120.313L203.058 116.008L207.375 116.008L207.375 120.313Z" fill="black"/>
        <path d="M211.692 115.93L207.375 115.93L207.375 111.625L211.692 111.625L211.692 115.93Z" fill="black"/>
        <path d="M207.375 26.387L203.058 26.387L203.058 22.082L207.375 22.082L207.375 26.387Z" fill="black"/>
        <path d="M211.692 30.6919L207.375 30.6919L207.375 26.3869L211.692 26.3869L211.692 30.6919Z" fill="black"/>
        <path d="M6.75888 111.625L2.44202 111.625L2.44201 30.692L6.75887 30.692L6.75888 111.625Z" fill="black"/>
        <path d="M15.471 120.313L11.1542 120.313L11.1542 116.008L15.471 116.008L15.471 120.313Z" fill="black"/>
        <path d="M11.0758 115.93L6.75891 115.93L6.75891 111.625L11.0758 111.625L11.0758 115.93Z" fill="black"/>
        <path d="M15.471 26.387L11.1542 26.387L11.1542 22.082L15.471 22.082L15.471 26.387Z" fill="black"/>
        <path d="M11.0758 30.6919L6.75891 30.6919L6.75891 26.3869L11.0758 26.3869L11.0758 30.6919Z" fill="black"/>
    </g>
    <path d="M32.8956 22.7866L28.5787 22.7866L28.5787 5.48857L32.8956 5.48857L32.8956 22.7866Z" fill="#231F20"/>
    <path d="M37.2124 5.48877L32.8956 5.48877L32.8956 1.18382L37.2124 1.18382L37.2124 5.48877Z" fill="#231F20"/>
    <path d="M41.6079 9.87183L37.2911 9.87183L37.2911 5.56688L41.6079 5.56688L41.6079 9.87183Z" fill="#231F20"/>
    <path d="M45.9246 14.1768L41.6077 14.1768L41.6077 9.87181L45.9246 9.87181L45.9246 14.1768Z" fill="#231F20"/>
    <path d="M50.2415 18.4817L45.9246 18.4817L45.9246 14.1767L50.2415 14.1767L50.2415 18.4817Z" fill="#231F20"/>
    <path d="M54.6369 22.7866L50.3201 22.7866L50.3201 18.4817L54.6369 18.4817L54.6369 22.7866Z" fill="#231F20"/>
    <path d="M200.704 22.7866L50.3201 22.7866L50.3201 18.4817L200.704 18.4817L200.704 22.7866Z" fill="#231F20"/>
    <path d="M32.8955 22.7866L13.1165 22.7866L13.1165 18.4817L32.8955 18.4817L32.8955 22.7866Z" fill="#231F20"/>
    <path d="M200.704 125.401L13.1165 125.401L13.1165 121.096L200.704 121.096L200.704 125.401Z" fill="#231F20"/>
    <path d="M213.733 112.408L209.416 112.408L209.416 31.4747L213.733 31.4747L213.733 112.408Z" fill="#231F20"/>
    <path d="M205.021 121.096L200.704 121.096L200.704 116.791L205.021 116.791L205.021 121.096Z" fill="#231F20"/>
    <path d="M209.337 116.713L205.021 116.713L205.021 112.408L209.337 112.408L209.337 116.713Z" fill="#231F20"/>
    <path d="M205.021 27.1697L200.704 27.1697L200.704 22.8647L205.021 22.8647L205.021 27.1697Z" fill="#231F20"/>
    <path d="M209.337 31.4746L205.021 31.4746L205.021 27.1697L209.337 27.1697L209.337 31.4746Z" fill="#231F20"/>
    <path d="M4.40426 112.408L0.0874023 112.408L0.0873952 31.4747L4.40426 31.4747L4.40426 112.408Z" fill="#231F20"/>
    <path d="M13.1164 121.096L8.79956 121.096L8.79956 116.791L13.1164 116.791L13.1164 121.096Z" fill="#231F20"/>
    <path d="M8.72116 116.713L4.4043 116.713L4.4043 112.408L8.72116 112.408L8.72116 116.713Z" fill="#231F20"/>
    <path d="M13.1164 27.1697L8.79956 27.1697L8.79956 22.8647L13.1164 22.8647L13.1164 27.1697Z" fill="#231F20"/>
    <path d="M8.72116 31.4746L4.4043 31.4746L4.4043 27.1697L8.72116 27.1697L8.72116 31.4746Z" fill="#231F20"/>
    <path d="M21.4092 54.2864V38.7308H25.8536V52.0642H30.2981V38.7308H34.7425V56.5086H30.2981V54.2864H21.4092ZM41.4005 52.0642V54.2864H36.9561V43.1753H41.4005V47.6197H43.6227V45.3975H45.8449V43.1753H50.2894V54.2864H45.8449V49.8419H43.6227V52.0642H41.4005ZM56.9474 47.6197V49.8419H59.1696V47.6197H56.9474ZM59.1696 45.3975V43.1753H63.614V45.3975H70.2807V52.0642H63.614V54.2864H59.1696V52.0642H52.5029V45.3975H59.1696ZM65.8363 47.6197H63.614V49.8419H65.8363V47.6197ZM83.614 43.1753V45.3975H85.8363V52.0642H83.614V54.2864H76.9474V58.7308H72.5029V45.3975H74.7252V43.1753H83.614ZM81.3918 45.3975H76.9474V52.0642H81.3918V45.3975ZM92.4942 52.0642H96.9387V45.3975H92.4942V52.0642ZM90.272 52.0642H88.0498V45.3975H90.272V43.1753H101.383V54.2864H90.272V52.0642Z" fill="#444042"/>
    <path d="M23.3126 78.7403H21.7571V74.0737H23.3126V78.7403ZM29.5349 74.0737H23.3126V72.5181H29.5349V74.0737ZM29.5349 80.2959H23.3126V78.7403H29.5349V80.2959ZM32.6505 78.7403V80.2959H31.095V72.5181H32.6505V77.1848H34.2061V78.7403H32.6505ZM37.3172 74.0737V72.5181H38.8727V80.2959H37.3172V75.6292H35.7616V74.0737H37.3172ZM35.7616 77.1848H34.2061V75.6292H35.7616V77.1848ZM41.9884 80.2959H40.4329V78.7403H41.9884V80.2959ZM43.544 74.0737V78.7403H41.9884V72.5181H48.2106V80.2959H46.6551V74.0737H43.544ZM57.5485 78.7403H55.993V77.1848H57.5485V78.7403ZM51.3263 75.6292H55.993V77.1848H51.3263V78.7403H55.993V80.2959H49.7708V72.5181H51.3263V75.6292ZM60.6642 77.1848V80.2959H59.1086V72.5181H60.6642V75.6292H65.3309V72.5181H66.8864V80.2959H65.3309V77.1848H60.6642ZM70.0021 78.7403H68.4465V74.0737H70.0021V78.7403ZM74.6688 75.6292H73.1132V74.0737H74.6688V72.5181H76.2243V80.2959H74.6688V78.7403H73.1132V77.1848H74.6688V75.6292ZM73.1132 80.2959H70.0021V78.7403H73.1132V80.2959ZM73.1132 74.0737H70.0021V72.5181H73.1132V74.0737ZM79.34 75.6292H77.7844V74.0737H79.34V75.6292ZM77.7844 77.1848H79.34V80.2959H77.7844V77.1848ZM84.0066 74.0737H79.34V72.5181H85.5622V80.2959H84.0066V77.1848H79.34V75.6292H84.0066V74.0737ZM26.4237 95.7403H24.8682V92.6292H26.4237V95.7403ZM27.9793 91.0737V89.5181H29.5349V97.2959H27.9793V92.6292H26.4237V91.0737H27.9793ZM23.3126 92.6292V97.2959H21.7571V89.5181H23.3126V91.0737H24.8682V92.6292H23.3126ZM32.6505 95.7403H31.095V91.0737H32.6505V95.7403ZM37.3172 92.6292H35.7616V91.0737H37.3172V89.5181H38.8727V97.2959H37.3172V95.7403H35.7616V94.1848H37.3172V92.6292ZM35.7616 97.2959H32.6505V95.7403H35.7616V97.2959ZM35.7616 91.0737H32.6505V89.5181H35.7616V91.0737ZM45.0995 91.0737V97.2959H43.544V91.0737H40.4329V89.5181H48.2106V91.0737H45.0995ZM55.993 91.0737H51.3263V89.5181H55.993V91.0737ZM51.3263 94.1848V95.7403H49.7708V91.0737H51.3263V92.6292H55.993V91.0737H57.5485V94.1848H51.3263ZM57.5485 97.2959H51.3263V95.7403H57.5485V97.2959ZM63.7753 95.7403H62.2198V92.6292H63.7753V95.7403ZM65.3309 91.0737V89.5181H66.8864V97.2959H65.3309V92.6292H63.7753V91.0737H65.3309ZM60.6642 92.6292V97.2959H59.1086V89.5181H60.6642V91.0737H62.2198V92.6292H60.6642ZM70.0021 95.7403H68.4465V91.0737H70.0021V95.7403ZM74.6688 92.6292H73.1132V91.0737H74.6688V89.5181H76.2243V97.2959H74.6688V95.7403H73.1132V94.1848H74.6688V92.6292ZM73.1132 97.2959H70.0021V95.7403H73.1132V97.2959ZM73.1132 91.0737H70.0021V89.5181H73.1132V91.0737ZM82.4511 91.0737V97.2959H80.8955V91.0737H77.7844V89.5181H85.5622V91.0737H82.4511ZM88.6779 95.7403V97.2959H87.1223V89.5181H88.6779V94.1848H90.2334V95.7403H88.6779ZM93.3445 91.0737V89.5181H94.9001V97.2959H93.3445V92.6292H91.789V91.0737H93.3445ZM91.789 94.1848H90.2334V92.6292H91.789V94.1848ZM96.4602 89.5181H98.0158V92.6292H96.4602V89.5181ZM102.682 92.6292V89.5181H104.238V97.2959H102.682V94.1848H98.0158V92.6292H102.682ZM112.02 91.0737H107.354V89.5181H112.02V91.0737ZM107.354 94.1848V95.7403H105.798V91.0737H107.354V92.6292H112.02V91.0737H113.576V94.1848H107.354ZM113.576 97.2959H107.354V95.7403H113.576V97.2959ZM116.692 95.7403H115.136V91.0737H116.692V95.7403ZM122.914 91.0737H116.692V89.5181H122.914V91.0737ZM122.914 97.2959H116.692V95.7403H122.914V97.2959ZM126.029 94.1848V97.2959H124.474V89.5181H126.029V92.6292H129.141V94.1848H126.029ZM132.252 97.2959H130.696V95.7403H132.252V97.2959ZM130.696 95.7403H129.141V94.1848H130.696V95.7403ZM132.252 91.0737H130.696V89.5181H132.252V91.0737ZM130.696 92.6292H129.141V91.0737H130.696V92.6292ZM135.367 95.7403H133.812V91.0737H135.367V95.7403ZM140.034 92.6292H138.478V91.0737H140.034V89.5181H141.59V97.2959H140.034V95.7403H138.478V94.1848H140.034V92.6292ZM138.478 97.2959H135.367V95.7403H138.478V97.2959ZM138.478 91.0737H135.367V89.5181H138.478V91.0737ZM144.705 92.6292H143.15V91.0737H144.705V92.6292ZM143.15 94.1848H144.705V97.2959H143.15V94.1848ZM149.372 91.0737H144.705V89.5181H150.927V97.2959H149.372V94.1848H144.705V92.6292H149.372V91.0737ZM164.927 95.7403H163.372V92.6292H164.927V95.7403ZM163.372 87.9626H158.705V86.407H163.372V87.9626ZM158.705 92.6292H160.261V94.1848H158.705V95.7403H157.15V87.9626H158.705V92.6292ZM163.372 97.2959H158.705V95.7403H163.372V97.2959ZM163.372 92.6292H160.261V91.0737H163.372V92.6292ZM168.043 95.7403H166.488V91.0737H168.043V95.7403ZM172.71 92.6292H171.154V91.0737H172.71V89.5181H174.265V97.2959H172.71V95.7403H171.154V94.1848H172.71V92.6292ZM171.154 97.2959H168.043V95.7403H171.154V97.2959ZM171.154 91.0737H168.043V89.5181H171.154V91.0737ZM177.381 92.6292H175.825V91.0737H177.381V92.6292ZM182.048 91.0737H177.381V89.5181H182.048V91.0737ZM182.048 97.2959H177.381V95.7403H182.048V97.2959ZM177.381 95.7403H175.825V94.1848H177.381V95.7403ZM182.048 94.1848H180.492V92.6292H182.048V94.1848ZM183.603 92.6292H182.048V91.0737H183.603V92.6292ZM183.603 95.7403H182.048V94.1848H183.603V95.7403ZM186.719 95.7403H185.163V91.0737H186.719V95.7403ZM191.386 92.6292H189.83V91.0737H191.386V89.5181H192.941V97.2959H191.386V95.7403H189.83V94.1848H191.386V92.6292ZM189.83 97.2959H186.719V95.7403H189.83V97.2959ZM189.83 91.0737H186.719V89.5181H189.83V91.0737Z" fill="#1B1A1A"/>
</svg>
