<svg width="24" height="73" viewBox="0 0 24 73" fill="none" xmlns="http://www.w3.org/2000/svg">
    <path d="M23.9908 70.5179H22.3518V72.157H23.9908V70.5179Z" fill="#382A4C"/>
    <path d="M23.9453 70.5406H22.3746V72.1341H23.9453V70.5406Z" fill="#382A4C"/>
    <path d="M23.9908 45.1816H22.3518V46.8206H23.9908V45.1816Z" fill="#FFE4CE"/>
    <path d="M23.9453 45.2043H22.3746V46.7751H23.9453V45.2043Z" fill="#FFE4CE"/>
    <path d="M23.9908 43.611H22.3518V45.25H23.9908V43.611Z" fill="#FFE4CE"/>
    <path d="M23.9453 43.6337H22.3746V45.2271H23.9453V43.6337Z" fill="#FFE4CE"/>
    <path d="M23.9908 42.0173H22.3518V43.6563H23.9908V42.0173Z" fill="#FFE4CE"/>
    <path d="M23.9453 42.0402H22.3746V43.6336H23.9453V42.0402Z" fill="#FFE4CE"/>
    <path d="M23.9908 40.4468H22.3518V42.0858H23.9908V40.4468Z" fill="#FFE4CE"/>
    <path d="M23.9453 40.4695H22.3746V42.063H23.9453V40.4695Z" fill="#FFE4CE"/>
    <path d="M23.9908 38.8533H22.3518V40.4923H23.9908V38.8533Z" fill="#FFE4CE"/>
    <path d="M23.9453 38.8759H22.3746V40.4466H23.9453V38.8759Z" fill="#FFE4CE"/>
    <path d="M23.9908 37.2596H22.3518V38.8987H23.9908V37.2596Z" fill="#FFE4CE"/>
    <path d="M23.9453 37.3053H22.3746V38.8988H23.9453V37.3053Z" fill="#FFE4CE"/>
    <path d="M23.9908 35.6891H22.3518V37.3281H23.9908V35.6891Z" fill="#FFE4CE"/>
    <path d="M23.9453 35.7118H22.3746V37.3053H23.9453V35.7118Z" fill="#FFE4CE"/>
    <path d="M23.9908 34.0956H22.3518V35.7346H23.9908V34.0956Z" fill="#FFE4CE"/>
    <path d="M23.9453 34.1183H22.3746V35.7118H23.9453V34.1183Z" fill="#FFE4CE"/>
    <path d="M23.9908 32.5248H22.3518V34.1638H23.9908V32.5248Z" fill="#FFE4CE"/>
    <path d="M23.9453 32.5476H22.3746V34.1183H23.9453V32.5476Z" fill="#FFE4CE"/>
    <path d="M23.9908 30.9313H22.3518V32.5703H23.9908V30.9313Z" fill="#FFE4CE"/>
    <path d="M23.9453 30.9541H22.3746V32.5476H23.9453V30.9541Z" fill="#FFE4CE"/>
    <path d="M23.9908 29.3606H22.3518V30.9996H23.9908V29.3606Z" fill="#FFE4CE"/>
    <path d="M23.9453 29.3834H22.3746V30.9769H23.9453V29.3834Z" fill="#FFE4CE"/>
    <path d="M23.9908 27.7671H22.3518V29.4061H23.9908V27.7671Z" fill="#54A84E"/>
    <path d="M23.9453 27.7899H22.3746V29.3834H23.9453V27.7899Z" fill="#54A84E"/>
    <path d="M23.9908 26.1965H22.3518V27.8355H23.9908V26.1965Z" fill="#54A84E"/>
    <path d="M23.9453 26.2191H22.3746V27.7898H23.9453V26.2191Z" fill="#54A84E"/>
    <path d="M23.9908 24.6029H22.3518V26.2419H23.9908V24.6029Z" fill="#54A84E"/>
    <path d="M23.9453 24.6256H22.3746V26.2191H23.9453V24.6256Z" fill="#54A84E"/>
    <path d="M23.9908 23.0322H22.3518V24.6712H23.9908V23.0322Z" fill="#54A84E"/>
    <path d="M23.9453 23.0551H22.3746V24.6485H23.9453V23.0551Z" fill="#54A84E"/>
    <path d="M22.3973 70.5179H20.7583V72.157H22.3973V70.5179Z" fill="#382A4C"/>
    <path d="M22.3745 70.5406H20.7811V72.1341H22.3745V70.5406Z" fill="#382A4C"/>
    <path d="M22.3973 68.9243H20.7583V70.5633H22.3973V68.9243Z" fill="white"/>
    <path d="M22.3745 68.9473H20.7811V70.518H22.3745V68.9473Z" fill="white"/>
    <path d="M22.3973 67.3538H20.7583V68.9928H22.3973V67.3538Z" fill="white"/>
    <path d="M22.3745 67.3766H20.7811V68.9701H22.3745V67.3766Z" fill="white"/>
    <path d="M22.3973 45.1816H20.7583V46.8206H22.3973V45.1816Z" fill="#FFE4CE"/>
    <path d="M22.3745 45.2043H20.7811V46.7751H22.3745V45.2043Z" fill="#FFE4CE"/>
    <path d="M22.3973 43.611H20.7583V45.25H22.3973V43.611Z" fill="#FFE4CE"/>
    <path d="M22.3745 43.6337H20.7811V45.2271H22.3745V43.6337Z" fill="#FFE4CE"/>
    <path d="M22.3973 42.0173H20.7583V43.6563H22.3973V42.0173Z" fill="#FFE4CE"/>
    <path d="M22.3745 42.0402H20.7811V43.6336H22.3745V42.0402Z" fill="#FFE4CE"/>
    <path d="M22.3973 40.4468H20.7583V42.0858H22.3973V40.4468Z" fill="#F57E77"/>
    <path d="M22.3745 40.4695H20.7811V42.063H22.3745V40.4695Z" fill="#F57E77"/>
    <path d="M22.3973 38.8533H20.7583V40.4923H22.3973V38.8533Z" fill="#F57E77"/>
    <path d="M22.3745 38.8759H20.7811V40.4466H22.3745V38.8759Z" fill="#F57E77"/>
    <path d="M22.3973 37.2596H20.7583V38.8987H22.3973V37.2596Z" fill="#F57E77"/>
    <path d="M22.3745 37.3053H20.7811V38.8988H22.3745V37.3053Z" fill="#F57E77"/>
    <path d="M22.3973 35.6891H20.7583V37.3281H22.3973V35.6891Z" fill="#F57E77"/>
    <path d="M22.3745 35.7118H20.7811V37.3053H22.3745V35.7118Z" fill="#F57E77"/>
    <path d="M22.3973 34.0956H20.7583V35.7346H22.3973V34.0956Z" fill="#F57E77"/>
    <path d="M22.3745 34.1183H20.7811V35.7118H22.3745V34.1183Z" fill="#F57E77"/>
    <path d="M22.3973 32.5248H20.7583V34.1638H22.3973V32.5248Z" fill="#F57E77"/>
    <path d="M22.3745 32.5476H20.7811V34.1183H22.3745V32.5476Z" fill="#F57E77"/>
    <path d="M22.3973 30.9313H20.7583V32.5703H22.3973V30.9313Z" fill="#F57E77"/>
    <path d="M22.3745 30.9541H20.7811V32.5476H22.3745V30.9541Z" fill="#F57E77"/>
    <path d="M22.3973 29.3606H20.7583V30.9996H22.3973V29.3606Z" fill="#F57E77"/>
    <path d="M22.3745 29.3834H20.7811V30.9769H22.3745V29.3834Z" fill="#F57E77"/>
    <path d="M22.3973 27.7671H20.7583V29.4061H22.3973V27.7671Z" fill="#54A84E"/>
    <path d="M22.3745 27.7899H20.7811V29.3834H22.3745V27.7899Z" fill="#54A84E"/>
    <path d="M22.3973 26.1965H20.7583V27.8355H22.3973V26.1965Z" fill="#54A84E"/>
    <path d="M22.3745 26.2191H20.7811V27.7898H22.3745V26.2191Z" fill="#54A84E"/>
    <path d="M22.3973 24.6029H20.7583V26.2419H22.3973V24.6029Z" fill="#54A84E"/>
    <path d="M22.3745 24.6256H20.7811V26.2191H22.3745V24.6256Z" fill="#54A84E"/>
    <path d="M22.3973 23.0322H20.7583V24.6712H22.3973V23.0322Z" fill="#54A84E"/>
    <path d="M22.3745 23.0551H20.7811V24.6485H22.3745V23.0551Z" fill="#54A84E"/>
    <path d="M22.3973 21.4388H20.7583V23.0779H22.3973V21.4388Z" fill="#54A84E"/>
    <path d="M22.3745 21.4614H20.7811V23.0549H22.3745V21.4614Z" fill="#54A84E"/>
    <path d="M22.3973 19.868H20.7583V21.507H22.3973V19.868Z" fill="#54A84E"/>
    <path d="M22.3745 19.8909H20.7811V21.4616H22.3745V19.8909Z" fill="#54A84E"/>
    <path d="M20.8266 70.5179H19.1876V72.157H20.8266V70.5179Z" fill="#382A4C"/>
    <path d="M20.8038 70.5406H19.2103V72.1341H20.8038V70.5406Z" fill="#382A4C"/>
    <path d="M20.8266 68.9243H19.1876V70.5633H20.8266V68.9243Z" fill="white"/>
    <path d="M20.8038 68.9473H19.2103V70.518H20.8038V68.9473Z" fill="white"/>
    <path d="M20.8266 67.3538H19.1876V68.9928H20.8266V67.3538Z" fill="#E7E0D4"/>
    <path d="M20.8038 67.3766H19.2103V68.9701H20.8038V67.3766Z" fill="#E7E0D4"/>
    <path d="M20.8266 43.611H19.1876V45.25H20.8266V43.611Z" fill="#FFE4CE"/>
    <path d="M20.8038 43.6337H19.2103V45.2271H20.8038V43.6337Z" fill="#FFE4CE"/>
    <path d="M20.8266 42.0173H19.1876V43.6563H20.8266V42.0173Z" fill="#F57E77"/>
    <path d="M20.8038 42.0402H19.2103V43.6336H20.8038V42.0402Z" fill="#F57E77"/>
    <path d="M20.8266 27.7671H19.1876V29.4061H20.8266V27.7671Z" fill="#376732"/>
    <path d="M20.8038 27.7899H19.2103V29.3834H20.8038V27.7899Z" fill="#376732"/>
    <path d="M20.8266 26.1965H19.1876V27.8355H20.8266V26.1965Z" fill="#376732"/>
    <path d="M20.8038 26.2191H19.2103V27.7898H20.8038V26.2191Z" fill="#376732"/>
    <path d="M20.8266 24.6029H19.1876V26.2419H20.8266V24.6029Z" fill="#376732"/>
    <path d="M20.8038 24.6256H19.2103V26.2191H20.8038V24.6256Z" fill="#376732"/>
    <path d="M20.8266 23.0322H19.1876V24.6712H20.8266V23.0322Z" fill="#54A84E"/>
    <path d="M20.8038 23.0551H19.2103V24.6485H20.8038V23.0551Z" fill="#54A84E"/>
    <path d="M20.8266 21.4388H19.1876V23.0779H20.8266V21.4388Z" fill="#54A84E"/>
    <path d="M20.8038 21.4614H19.2103V23.0549H20.8038V21.4614Z" fill="#54A84E"/>
    <path d="M20.8266 19.868H19.1876V21.507H20.8266V19.868Z" fill="#54A84E"/>
    <path d="M20.8038 19.8909H19.2103V21.4616H20.8038V19.8909Z" fill="#54A84E"/>
    <path d="M19.2331 70.5179H17.5941V72.157H19.2331V70.5179Z" fill="#382A4C"/>
    <path d="M19.2103 70.5406H17.6168V72.1341H19.2103V70.5406Z" fill="#382A4C"/>
    <path d="M19.2331 68.9243H17.5941V70.5633H19.2331V68.9243Z" fill="#E7E0D4"/>
    <path d="M19.2103 68.9473H17.6168V70.518H19.2103V68.9473Z" fill="#E7E0D4"/>
    <path d="M19.2331 67.3538H17.5941V68.9928H19.2331V67.3538Z" fill="#F39200"/>
    <path d="M19.2103 67.3766H17.6168V68.9701H19.2103V67.3766Z" fill="#F39200"/>
    <path d="M19.2331 64.1896H17.5941V65.8286H19.2331V64.1896Z" fill="#F39200"/>
    <path d="M19.2103 64.2123H17.6168V65.8058H19.2103V64.2123Z" fill="#F39200"/>
    <path d="M19.2331 23.0322H17.5941V24.6712H19.2331V23.0322Z" fill="#376732"/>
    <path d="M19.2103 23.0551H17.6168V24.6485H19.2103V23.0551Z" fill="#376732"/>
    <path d="M19.2331 21.4388H17.5941V23.0779H19.2331V21.4388Z" fill="#54A84E"/>
    <path d="M19.2103 21.4614H17.6168V23.0549H19.2103V21.4614Z" fill="#54A84E"/>
    <path d="M19.2331 19.868H17.5941V21.507H19.2331V19.868Z" fill="#54A84E"/>
    <path d="M19.2103 19.8909H17.6168V21.4616H19.2103V19.8909Z" fill="#54A84E"/>
    <path d="M19.2331 18.2745H17.5941V19.9135H19.2331V18.2745Z" fill="#54A84E"/>
    <path d="M19.2103 18.2974H17.6168V19.8908H19.2103V18.2974Z" fill="#54A84E"/>
    <path d="M19.2331 10.3527H17.5941V11.9917H19.2331V10.3527Z" fill="#F57E77"/>
    <path d="M19.2103 10.3754H17.6168V11.9688H19.2103V10.3754Z" fill="#F57E77"/>
    <path d="M19.2331 8.78198H17.5941V10.421H19.2331V8.78198Z" fill="#FFE4CE"/>
    <path d="M19.2103 8.80481H17.6168V10.3755H19.2103V8.80481Z" fill="#FFE4CE"/>
    <path d="M19.2331 7.18848H17.5941V8.82748H19.2331V7.18848Z" fill="#3D041F"/>
    <path d="M19.2103 7.21118H17.6168V8.80466H19.2103V7.21118Z" fill="#3D041F"/>
    <path d="M17.6396 70.5179H16.0006V72.157H17.6396V70.5179Z" fill="#382A4C"/>
    <path d="M17.6168 70.5406H16.0461V72.1341H17.6168V70.5406Z" fill="#382A4C"/>
    <path d="M17.6396 68.9243H16.0006V70.5633H17.6396V68.9243Z" fill="#F39200"/>
    <path d="M17.6168 68.9473H16.0461V70.518H17.6168V68.9473Z" fill="#F39200"/>
    <path d="M17.6396 67.3538H16.0006V68.9928H17.6396V67.3538Z" fill="#F39200"/>
    <path d="M17.6168 67.3766H16.0461V68.9701H17.6168V67.3766Z" fill="#F39200"/>
    <path d="M17.6396 65.7603H16.0006V67.3993H17.6396V65.7603Z" fill="#F39200"/>
    <path d="M17.6168 65.7831H16.0461V67.3766H17.6168V65.7831Z" fill="#F39200"/>
    <path d="M17.6396 64.1896H16.0006V65.8286H17.6396V64.1896Z" fill="#E17346"/>
    <path d="M17.6168 64.2123H16.0461V65.8058H17.6168V64.2123Z" fill="#E17346"/>
    <path d="M17.6396 62.5961H16.0006V64.2351H17.6396V62.5961Z" fill="#1D71B8"/>
    <path d="M17.6168 62.6188H16.0461V64.1895H17.6168V62.6188Z" fill="#1D71B8"/>
    <path d="M17.6396 61.0253H16.0006V62.6643H17.6396V61.0253Z" fill="#1D71B8"/>
    <path d="M17.6168 61.0481H16.0461V62.6416H17.6168V61.0481Z" fill="#1D71B8"/>
    <path d="M17.6396 59.4319H16.0006V61.0709H17.6396V59.4319Z" fill="#1D71B8"/>
    <path d="M17.6168 59.4546H16.0461V61.0481H17.6168V59.4546Z" fill="#1D71B8"/>
    <path d="M17.6396 57.8384H16.0006V59.4774H17.6396V57.8384Z" fill="#1D71B8"/>
    <path d="M17.6168 57.884H16.0461V59.4775H17.6168V57.884Z" fill="#1D71B8"/>
    <path d="M17.6396 56.2677H16.0006V57.9067H17.6396V56.2677Z" fill="#1D71B8"/>
    <path d="M17.6168 56.2904H16.0461V57.8611H17.6168V56.2904Z" fill="#1D71B8"/>
    <path d="M17.6396 54.6741H16.0006V56.3131H17.6396V54.6741Z" fill="#1D71B8"/>
    <path d="M17.6168 54.7197H16.0461V56.3132H17.6168V54.7197Z" fill="#1D71B8"/>
    <path d="M17.6396 53.1035H16.0006V54.7425H17.6396V53.1035Z" fill="#1D71B8"/>
    <path d="M17.6168 53.1261H16.0461V54.7196H17.6168V53.1261Z" fill="#1D71B8"/>
    <path d="M17.6396 51.51H16.0006V53.149H17.6396V51.51Z" fill="#1D71B8"/>
    <path d="M17.6168 51.5328H16.0461V53.1036H17.6168V51.5328Z" fill="#1D71B8"/>
    <path d="M17.6396 49.9393H16.0006V51.5783H17.6396V49.9393Z" fill="#1D71B8"/>
    <path d="M17.6168 49.962H16.0461V51.5555H17.6168V49.962Z" fill="#1D71B8"/>
    <path d="M17.6396 48.3458H16.0006V49.9848H17.6396V48.3458Z" fill="#1D71B8"/>
    <path d="M17.6168 48.3685H16.0461V49.962H17.6168V48.3685Z" fill="#1D71B8"/>
    <path d="M17.6396 46.775H16.0006V48.414H17.6396V46.775Z" fill="#1D71B8"/>
    <path d="M17.6168 46.7979H16.0461V48.3913H17.6168V46.7979Z" fill="#1D71B8"/>
    <path d="M17.6396 45.1816H16.0006V46.8206H17.6396V45.1816Z" fill="#1D71B8"/>
    <path d="M17.6168 45.2043H16.0461V46.7751H17.6168V45.2043Z" fill="#1D71B8"/>
    <path d="M17.6396 43.611H16.0006V45.25H17.6396V43.611Z" fill="#1D71B8"/>
    <path d="M17.6168 43.6337H16.0461V45.2271H17.6168V43.6337Z" fill="#1D71B8"/>
    <path d="M17.6396 42.0173H16.0006V43.6563H17.6396V42.0173Z" fill="#1D71B8"/>
    <path d="M17.6168 42.0402H16.0461V43.6336H17.6168V42.0402Z" fill="#1D71B8"/>
    <path d="M17.6396 40.4468H16.0006V42.0858H17.6396V40.4468Z" fill="#105E7C"/>
    <path d="M17.6168 40.4695H16.0461V42.063H17.6168V40.4695Z" fill="#105E7C"/>
    <path d="M17.6396 38.8533H16.0006V40.4923H17.6396V38.8533Z" fill="#105E7C"/>
    <path d="M17.6168 38.8759H16.0461V40.4466H17.6168V38.8759Z" fill="#105E7C"/>
    <path d="M17.6396 37.2596H16.0006V38.8987H17.6396V37.2596Z" fill="#105E7C"/>
    <path d="M17.6168 37.3053H16.0461V38.8988H17.6168V37.3053Z" fill="#105E7C"/>
    <path d="M17.6396 35.6891H16.0006V37.3281H17.6396V35.6891Z" fill="#376732"/>
    <path d="M17.6168 35.7118H16.0461V37.3053H17.6168V35.7118Z" fill="#376732"/>
    <path d="M17.6396 34.0956H16.0006V35.7346H17.6396V34.0956Z" fill="#376732"/>
    <path d="M17.6168 34.1183H16.0461V35.7118H17.6168V34.1183Z" fill="#376732"/>
    <path d="M17.6396 32.5248H16.0006V34.1638H17.6396V32.5248Z" fill="#376732"/>
    <path d="M17.6168 32.5476H16.0461V34.1183H17.6168V32.5476Z" fill="#376732"/>
    <path d="M17.6396 30.9313H16.0006V32.5703H17.6396V30.9313Z" fill="#376732"/>
    <path d="M17.6168 30.9541H16.0461V32.5476H17.6168V30.9541Z" fill="#376732"/>
    <path d="M17.6396 29.3606H16.0006V30.9996H17.6396V29.3606Z" fill="#376732"/>
    <path d="M17.6168 29.3834H16.0461V30.9769H17.6168V29.3834Z" fill="#376732"/>
    <path d="M17.6396 27.7671H16.0006V29.4061H17.6396V27.7671Z" fill="#376732"/>
    <path d="M17.6168 27.7899H16.0461V29.3834H17.6168V27.7899Z" fill="#376732"/>
    <path d="M17.6396 26.1965H16.0006V27.8355H17.6396V26.1965Z" fill="#376732"/>
    <path d="M17.6168 26.2191H16.0461V27.7898H17.6168V26.2191Z" fill="#376732"/>
    <path d="M17.6396 24.6029H16.0006V26.2419H17.6396V24.6029Z" fill="#376732"/>
    <path d="M17.6168 24.6256H16.0461V26.2191H17.6168V24.6256Z" fill="#376732"/>
    <path d="M17.6396 23.0322H16.0006V24.6712H17.6396V23.0322Z" fill="#376732"/>
    <path d="M17.6168 23.0551H16.0461V24.6485H17.6168V23.0551Z" fill="#376732"/>
    <path d="M17.6396 21.4388H16.0006V23.0779H17.6396V21.4388Z" fill="#54A84E"/>
    <path d="M17.6168 21.4614H16.0461V23.0549H17.6168V21.4614Z" fill="#54A84E"/>
    <path d="M17.6396 19.868H16.0006V21.507H17.6396V19.868Z" fill="#54A84E"/>
    <path d="M17.6168 19.8909H16.0461V21.4616H17.6168V19.8909Z" fill="#54A84E"/>
    <path d="M17.6396 18.2745H16.0006V19.9135H17.6396V18.2745Z" fill="#54A84E"/>
    <path d="M17.6168 18.2974H16.0461V19.8908H17.6168V18.2974Z" fill="#54A84E"/>
    <path d="M17.6396 11.9462H16.0006V13.5852H17.6396V11.9462Z" fill="#F57E77"/>
    <path d="M17.6168 11.9689H16.0461V13.5624H17.6168V11.9689Z" fill="#F57E77"/>
    <path d="M17.6396 10.3527H16.0006V11.9917H17.6396V10.3527Z" fill="#3D041F"/>
    <path d="M17.6168 10.3754H16.0461V11.9688H17.6168V10.3754Z" fill="#3D041F"/>
    <path d="M17.6396 8.78198H16.0006V10.421H17.6396V8.78198Z" fill="#3D041F"/>
    <path d="M17.6168 8.80481H16.0461V10.3755H17.6168V8.80481Z" fill="#3D041F"/>
    <path d="M17.6396 7.18848H16.0006V8.82748H17.6396V7.18848Z" fill="#3D041F"/>
    <path d="M17.6168 7.21118H16.0461V8.80466H17.6168V7.21118Z" fill="#3D041F"/>
    <path d="M17.6396 5.6178H16.0006V7.25681H17.6396V5.6178Z" fill="#621931"/>
    <path d="M17.6168 5.64062H16.0461V7.23411H17.6168V5.64062Z" fill="#621931"/>
    <path d="M17.6396 4.02429H16.0006V5.6633H17.6396V4.02429Z" fill="#621931"/>
    <path d="M17.6168 4.047H16.0461V5.64048H17.6168V4.047Z" fill="#621931"/>
    <path d="M16.0689 70.5179H14.4299V72.157H16.0689V70.5179Z" fill="#382A4C"/>
    <path d="M16.0461 70.5406H14.4526V72.1341H16.0461V70.5406Z" fill="#382A4C"/>
    <path d="M16.0689 68.9243H14.4299V70.5633H16.0689V68.9243Z" fill="#F39200"/>
    <path d="M16.0461 68.9473H14.4526V70.518H16.0461V68.9473Z" fill="#F39200"/>
    <path d="M16.0689 67.3538H14.4299V68.9928H16.0689V67.3538Z" fill="#F39200"/>
    <path d="M16.0461 67.3766H14.4526V68.9701H16.0461V67.3766Z" fill="#F39200"/>
    <path d="M16.0689 65.7603H14.4299V67.3993H16.0689V65.7603Z" fill="#F39200"/>
    <path d="M16.0461 65.7831H14.4526V67.3766H16.0461V65.7831Z" fill="#F39200"/>
    <path d="M16.0689 64.1896H14.4299V65.8286H16.0689V64.1896Z" fill="#1D71B8"/>
    <path d="M16.0461 64.2123H14.4526V65.8058H16.0461V64.2123Z" fill="#1D71B8"/>
    <path d="M16.0689 62.5961H14.4299V64.2351H16.0689V62.5961Z" fill="#1D71B8"/>
    <path d="M16.0461 62.6188H14.4526V64.1895H16.0461V62.6188Z" fill="#1D71B8"/>
    <path d="M16.0689 61.0253H14.4299V62.6643H16.0689V61.0253Z" fill="#1D71B8"/>
    <path d="M16.0461 61.0481H14.4526V62.6416H16.0461V61.0481Z" fill="#1D71B8"/>
    <path d="M16.0689 59.4319H14.4299V61.0709H16.0689V59.4319Z" fill="#1D71B8"/>
    <path d="M16.0461 59.4546H14.4526V61.0481H16.0461V59.4546Z" fill="#1D71B8"/>
    <path d="M16.0689 57.8384H14.4299V59.4774H16.0689V57.8384Z" fill="#1D71B8"/>
    <path d="M16.0461 57.884H14.4526V59.4775H16.0461V57.884Z" fill="#1D71B8"/>
    <path d="M16.0689 56.2677H14.4299V57.9067H16.0689V56.2677Z" fill="#1D71B8"/>
    <path d="M16.0461 56.2904H14.4526V57.8611H16.0461V56.2904Z" fill="#1D71B8"/>
    <path d="M16.0689 54.6741H14.4299V56.3131H16.0689V54.6741Z" fill="#1D71B8"/>
    <path d="M16.0461 54.7197H14.4526V56.3132H16.0461V54.7197Z" fill="#1D71B8"/>
    <path d="M16.0689 53.1035H14.4299V54.7425H16.0689V53.1035Z" fill="#1D71B8"/>
    <path d="M16.0461 53.1261H14.4526V54.7196H16.0461V53.1261Z" fill="#1D71B8"/>
    <path d="M16.0689 51.51H14.4299V53.149H16.0689V51.51Z" fill="#1D71B8"/>
    <path d="M16.0461 51.5328H14.4526V53.1036H16.0461V51.5328Z" fill="#1D71B8"/>
    <path d="M16.0689 49.9393H14.4299V51.5783H16.0689V49.9393Z" fill="#1D71B8"/>
    <path d="M16.0461 49.962H14.4526V51.5555H16.0461V49.962Z" fill="#1D71B8"/>
    <path d="M16.0689 48.3458H14.4299V49.9848H16.0689V48.3458Z" fill="#1D71B8"/>
    <path d="M16.0461 48.3685H14.4526V49.962H16.0461V48.3685Z" fill="#1D71B8"/>
    <path d="M16.0689 46.775H14.4299V48.414H16.0689V46.775Z" fill="#1D71B8"/>
    <path d="M16.0461 46.7979H14.4526V48.3913H16.0461V46.7979Z" fill="#1D71B8"/>
    <path d="M16.0689 45.1816H14.4299V46.8206H16.0689V45.1816Z" fill="#1D71B8"/>
    <path d="M16.0461 45.2043H14.4526V46.7751H16.0461V45.2043Z" fill="#1D71B8"/>
    <path d="M16.0689 43.611H14.4299V45.25H16.0689V43.611Z" fill="#1D71B8"/>
    <path d="M16.0461 43.6337H14.4526V45.2271H16.0461V43.6337Z" fill="#1D71B8"/>
    <path d="M16.0689 42.0173H14.4299V43.6563H16.0689V42.0173Z" fill="#1D71B8"/>
    <path d="M16.0461 42.0402H14.4526V43.6336H16.0461V42.0402Z" fill="#1D71B8"/>
    <path d="M16.0689 40.4468H14.4299V42.0858H16.0689V40.4468Z" fill="#1D71B8"/>
    <path d="M16.0461 40.4695H14.4526V42.063H16.0461V40.4695Z" fill="#1D71B8"/>
    <path d="M16.0689 38.8533H14.4299V40.4923H16.0689V38.8533Z" fill="#1D71B8"/>
    <path d="M16.0461 38.8759H14.4526V40.4466H16.0461V38.8759Z" fill="#1D71B8"/>
    <path d="M16.0689 37.2596H14.4299V38.8987H16.0689V37.2596Z" fill="#105E7C"/>
    <path d="M16.0461 37.3053H14.4526V38.8988H16.0461V37.3053Z" fill="#105E7C"/>
    <path d="M16.0689 35.6891H14.4299V37.3281H16.0689V35.6891Z" fill="#376732"/>
    <path d="M16.0461 35.7118H14.4526V37.3053H16.0461V35.7118Z" fill="#376732"/>
    <path d="M16.0689 34.0956H14.4299V35.7346H16.0689V34.0956Z" fill="#54A84E"/>
    <path d="M16.0461 34.1183H14.4526V35.7118H16.0461V34.1183Z" fill="#54A84E"/>
    <path d="M16.0689 32.5248H14.4299V34.1638H16.0689V32.5248Z" fill="#54A84E"/>
    <path d="M16.0461 32.5476H14.4526V34.1183H16.0461V32.5476Z" fill="#54A84E"/>
    <path d="M16.0689 30.9313H14.4299V32.5703H16.0689V30.9313Z" fill="#54A84E"/>
    <path d="M16.0461 30.9541H14.4526V32.5476H16.0461V30.9541Z" fill="#54A84E"/>
    <path d="M16.0689 29.3606H14.4299V30.9996H16.0689V29.3606Z" fill="#54A84E"/>
    <path d="M16.0461 29.3834H14.4526V30.9769H16.0461V29.3834Z" fill="#54A84E"/>
    <path d="M16.0689 27.7671H14.4299V29.4061H16.0689V27.7671Z" fill="#54A84E"/>
    <path d="M16.0461 27.7899H14.4526V29.3834H16.0461V27.7899Z" fill="#54A84E"/>
    <path d="M16.0689 26.1965H14.4299V27.8355H16.0689V26.1965Z" fill="#54A84E"/>
    <path d="M16.0461 26.2191H14.4526V27.7898H16.0461V26.2191Z" fill="#54A84E"/>
    <path d="M16.0689 24.6029H14.4299V26.2419H16.0689V24.6029Z" fill="#54A84E"/>
    <path d="M16.0461 24.6256H14.4526V26.2191H16.0461V24.6256Z" fill="#54A84E"/>
    <path d="M16.0689 23.0322H14.4299V24.6712H16.0689V23.0322Z" fill="#54A84E"/>
    <path d="M16.0461 23.0551H14.4526V24.6485H16.0461V23.0551Z" fill="#54A84E"/>
    <path d="M16.0689 21.4388H14.4299V23.0779H16.0689V21.4388Z" fill="#54A84E"/>
    <path d="M16.0461 21.4614H14.4526V23.0549H16.0461V21.4614Z" fill="#54A84E"/>
    <path d="M16.0689 19.868H14.4299V21.507H16.0689V19.868Z" fill="#54A84E"/>
    <path d="M16.0461 19.8909H14.4526V21.4616H16.0461V19.8909Z" fill="#54A84E"/>
    <path d="M16.0689 18.2745H14.4299V19.9135H16.0689V18.2745Z" fill="#F57E77"/>
    <path d="M16.0461 18.2974H14.4526V19.8908H16.0461V18.2974Z" fill="#F57E77"/>
    <path d="M16.0689 13.5168H14.4299V15.1559H16.0689V13.5168Z" fill="#F57E77"/>
    <path d="M16.0461 13.5396H14.4526V15.133H16.0461V13.5396Z" fill="#F57E77"/>
    <path d="M16.0689 11.9462H14.4299V13.5852H16.0689V11.9462Z" fill="#FFE4CE"/>
    <path d="M16.0461 11.9689H14.4526V13.5624H16.0461V11.9689Z" fill="#FFE4CE"/>
    <path d="M16.0689 10.3527H14.4299V11.9917H16.0689V10.3527Z" fill="#FFE4CE"/>
    <path d="M16.0461 10.3754H14.4526V11.9688H16.0461V10.3754Z" fill="#FFE4CE"/>
    <path d="M16.0689 8.78198H14.4299V10.421H16.0689V8.78198Z" fill="#FFE4CE"/>
    <path d="M16.0461 8.80481H14.4526V10.3755H16.0461V8.80481Z" fill="#FFE4CE"/>
    <path d="M16.0689 7.18848H14.4299V8.82748H16.0689V7.18848Z" fill="#FFE4CE"/>
    <path d="M16.0461 7.21118H14.4526V8.80466H16.0461V7.21118Z" fill="#FFE4CE"/>
    <path d="M16.0689 5.6178H14.4299V7.25681H16.0689V5.6178Z" fill="#3D041F"/>
    <path d="M16.0461 5.64062H14.4526V7.23411H16.0461V5.64062Z" fill="#3D041F"/>
    <path d="M16.0689 4.02429H14.4299V5.6633H16.0689V4.02429Z" fill="#621931"/>
    <path d="M16.0461 4.047H14.4526V5.64048H16.0461V4.047Z" fill="#621931"/>
    <path d="M16.0689 2.45361H14.4299V4.09262H16.0689V2.45361Z" fill="#621931"/>
    <path d="M16.0461 2.47632H14.4526V4.04703H16.0461V2.47632Z" fill="#621931"/>
    <path d="M14.4754 70.5179H12.8364V72.157H14.4754V70.5179Z" fill="#26031F"/>
    <path d="M14.4527 70.5406H12.8592V72.1341H14.4527V70.5406Z" fill="#26031F"/>
    <path d="M14.4754 68.9243H12.8364V70.5633H14.4754V68.9243Z" fill="#E17346"/>
    <path d="M14.4527 68.9473H12.8592V70.518H14.4527V68.9473Z" fill="#E17346"/>
    <path d="M14.4754 67.3538H12.8364V68.9928H14.4754V67.3538Z" fill="#E17346"/>
    <path d="M14.4527 67.3766H12.8592V68.9701H14.4527V67.3766Z" fill="#E17346"/>
    <path d="M14.4754 65.7603H12.8364V67.3993H14.4754V65.7603Z" fill="#E17346"/>
    <path d="M14.4527 65.7831H12.8592V67.3766H14.4527V65.7831Z" fill="#E17346"/>
    <path d="M14.4754 64.1896H12.8364V65.8286H14.4754V64.1896Z" fill="#105E7C"/>
    <path d="M14.4527 64.2123H12.8592V65.8058H14.4527V64.2123Z" fill="#105E7C"/>
    <path d="M14.4754 62.5961H12.8364V64.2351H14.4754V62.5961Z" fill="#105E7C"/>
    <path d="M14.4527 62.6188H12.8592V64.1895H14.4527V62.6188Z" fill="#105E7C"/>
    <path d="M14.4754 61.0253H12.8364V62.6643H14.4754V61.0253Z" fill="#105E7C"/>
    <path d="M14.4527 61.0481H12.8592V62.6416H14.4527V61.0481Z" fill="#105E7C"/>
    <path d="M14.4754 59.4319H12.8364V61.0709H14.4754V59.4319Z" fill="#105E7C"/>
    <path d="M14.4527 59.4546H12.8592V61.0481H14.4527V59.4546Z" fill="#105E7C"/>
    <path d="M14.4754 57.8384H12.8364V59.4774H14.4754V57.8384Z" fill="#105E7C"/>
    <path d="M14.4527 57.884H12.8592V59.4775H14.4527V57.884Z" fill="#105E7C"/>
    <path d="M14.4754 56.2677H12.8364V57.9067H14.4754V56.2677Z" fill="#105E7C"/>
    <path d="M14.4527 56.2904H12.8592V57.8611H14.4527V56.2904Z" fill="#105E7C"/>
    <path d="M14.4754 54.6741H12.8364V56.3131H14.4754V54.6741Z" fill="#105E7C"/>
    <path d="M14.4527 54.7197H12.8592V56.3132H14.4527V54.7197Z" fill="#105E7C"/>
    <path d="M14.4754 53.1035H12.8364V54.7425H14.4754V53.1035Z" fill="#105E7C"/>
    <path d="M14.4527 53.1261H12.8592V54.7196H14.4527V53.1261Z" fill="#105E7C"/>
    <path d="M14.4754 51.51H12.8364V53.149H14.4754V51.51Z" fill="#105E7C"/>
    <path d="M14.4527 51.5328H12.8592V53.1036H14.4527V51.5328Z" fill="#105E7C"/>
    <path d="M14.4754 49.9393H12.8364V51.5783H14.4754V49.9393Z" fill="#105E7C"/>
    <path d="M14.4527 49.962H12.8592V51.5555H14.4527V49.962Z" fill="#105E7C"/>
    <path d="M14.4754 48.3458H12.8364V49.9848H14.4754V48.3458Z" fill="#105E7C"/>
    <path d="M14.4527 48.3685H12.8592V49.962H14.4527V48.3685Z" fill="#105E7C"/>
    <path d="M14.4754 46.775H12.8364V48.414H14.4754V46.775Z" fill="#105E7C"/>
    <path d="M14.4527 46.7979H12.8592V48.3913H14.4527V46.7979Z" fill="#105E7C"/>
    <path d="M14.4754 45.1816H12.8364V46.8206H14.4754V45.1816Z" fill="#105E7C"/>
    <path d="M14.4527 45.2043H12.8592V46.7751H14.4527V45.2043Z" fill="#105E7C"/>
    <path d="M14.4754 43.611H12.8364V45.25H14.4754V43.611Z" fill="#105E7C"/>
    <path d="M14.4527 43.6337H12.8592V45.2271H14.4527V43.6337Z" fill="#105E7C"/>
    <path d="M14.4754 42.0173H12.8364V43.6563H14.4754V42.0173Z" fill="#1D71B8"/>
    <path d="M14.4527 42.0402H12.8592V43.6336H14.4527V42.0402Z" fill="#1D71B8"/>
    <path d="M14.4754 40.4468H12.8364V42.0858H14.4754V40.4468Z" fill="#1D71B8"/>
    <path d="M14.4527 40.4695H12.8592V42.063H14.4527V40.4695Z" fill="#1D71B8"/>
    <path d="M14.4754 38.8533H12.8364V40.4923H14.4754V38.8533Z" fill="#1D71B8"/>
    <path d="M14.4527 38.8759H12.8592V40.4466H14.4527V38.8759Z" fill="#1D71B8"/>
    <path d="M14.4754 37.2596H12.8364V38.8987H14.4754V37.2596Z" fill="#303086"/>
    <path d="M14.4527 37.3053H12.8592V38.8988H14.4527V37.3053Z" fill="#303086"/>
    <path d="M14.4754 35.6891H12.8364V37.3281H14.4754V35.6891Z" fill="#54A84E"/>
    <path d="M14.4527 35.7118H12.8592V37.3053H14.4527V35.7118Z" fill="#54A84E"/>
    <path d="M14.4754 34.0956H12.8364V35.7346H14.4754V34.0956Z" fill="#54A84E"/>
    <path d="M14.4527 34.1183H12.8592V35.7118H14.4527V34.1183Z" fill="#54A84E"/>
    <path d="M14.4754 32.5248H12.8364V34.1638H14.4754V32.5248Z" fill="#54A84E"/>
    <path d="M14.4527 32.5476H12.8592V34.1183H14.4527V32.5476Z" fill="#54A84E"/>
    <path d="M14.4754 30.9313H12.8364V32.5703H14.4754V30.9313Z" fill="#54A84E"/>
    <path d="M14.4527 30.9541H12.8592V32.5476H14.4527V30.9541Z" fill="#54A84E"/>
    <path d="M14.4754 29.3606H12.8364V30.9996H14.4754V29.3606Z" fill="#54A84E"/>
    <path d="M14.4527 29.3834H12.8592V30.9769H14.4527V29.3834Z" fill="#54A84E"/>
    <path d="M14.4754 27.7671H12.8364V29.4061H14.4754V27.7671Z" fill="#54A84E"/>
    <path d="M14.4527 27.7899H12.8592V29.3834H14.4527V27.7899Z" fill="#54A84E"/>
    <path d="M14.4754 26.1965H12.8364V27.8355H14.4754V26.1965Z" fill="#54A84E"/>
    <path d="M14.4527 26.2191H12.8592V27.7898H14.4527V26.2191Z" fill="#54A84E"/>
    <path d="M14.4754 24.6029H12.8364V26.2419H14.4754V24.6029Z" fill="#54A84E"/>
    <path d="M14.4527 24.6256H12.8592V26.2191H14.4527V24.6256Z" fill="#54A84E"/>
    <path d="M14.4754 23.0322H12.8364V24.6712H14.4754V23.0322Z" fill="#54A84E"/>
    <path d="M14.4527 23.0551H12.8592V24.6485H14.4527V23.0551Z" fill="#54A84E"/>
    <path d="M14.4754 21.4388H12.8364V23.0779H14.4754V21.4388Z" fill="#54A84E"/>
    <path d="M14.4527 21.4614H12.8592V23.0549H14.4527V21.4614Z" fill="#54A84E"/>
    <path d="M14.4754 19.868H12.8364V21.507H14.4754V19.868Z" fill="#54A84E"/>
    <path d="M14.4527 19.8909H12.8592V21.4616H14.4527V19.8909Z" fill="#54A84E"/>
    <path d="M14.4754 18.2745H12.8364V19.9135H14.4754V18.2745Z" fill="#F57E77"/>
    <path d="M14.4527 18.2974H12.8592V19.8908H14.4527V18.2974Z" fill="#F57E77"/>
    <path d="M14.4754 16.681H12.8364V18.32H14.4754V16.681Z" fill="#F57E77"/>
    <path d="M14.4527 16.7039H12.8592V18.2973H14.4527V16.7039Z" fill="#F57E77"/>
    <path d="M14.4754 15.1104H12.8364V16.7494H14.4754V15.1104Z" fill="#F57E77"/>
    <path d="M14.4527 15.1331H12.8592V16.7038H14.4527V15.1331Z" fill="#F57E77"/>
    <path d="M14.4754 13.5168H12.8364V15.1559H14.4754V13.5168Z" fill="#FFE4CE"/>
    <path d="M14.4527 13.5396H12.8592V15.133H14.4527V13.5396Z" fill="#FFE4CE"/>
    <path d="M14.4754 11.9462H12.8364V13.5852H14.4754V11.9462Z" fill="#FFE4CE"/>
    <path d="M14.4527 11.9689H12.8592V13.5624H14.4527V11.9689Z" fill="#FFE4CE"/>
    <path d="M14.4754 10.3527H12.8364V11.9917H14.4754V10.3527Z" fill="#FFE4CE"/>
    <path d="M14.4527 10.3754H12.8592V11.9688H14.4527V10.3754Z" fill="#FFE4CE"/>
    <path d="M14.4754 8.78198H12.8364V10.421H14.4754V8.78198Z" fill="#66667C"/>
    <path d="M14.4527 8.80481H12.8592V10.3755H14.4527V8.80481Z" fill="#66667C"/>
    <path d="M14.4754 7.18848H12.8364V8.82748H14.4754V7.18848Z" fill="#FFE4CE"/>
    <path d="M14.4527 7.21118H12.8592V8.80466H14.4527V7.21118Z" fill="#FFE4CE"/>
    <path d="M14.4754 5.6178H12.8364V7.25681H14.4754V5.6178Z" fill="#FFE4CE"/>
    <path d="M14.4527 5.64062H12.8592V7.23411H14.4527V5.64062Z" fill="#FFE4CE"/>
    <path d="M14.4754 4.02429H12.8364V5.6633H14.4754V4.02429Z" fill="#3D041F"/>
    <path d="M14.4527 4.047H12.8592V5.64048H14.4527V4.047Z" fill="#3D041F"/>
    <path d="M14.4754 2.45361H12.8364V4.09262H14.4754V2.45361Z" fill="#621931"/>
    <path d="M14.4527 2.47632H12.8592V4.04703H14.4527V2.47632Z" fill="#621931"/>
    <path d="M14.4754 0.860107H12.8364V2.49912H14.4754V0.860107Z" fill="#621931"/>
    <path d="M14.4527 0.882812H12.8592V2.47629H14.4527V0.882812Z" fill="#621931"/>
    <path d="M12.9048 42.0173H11.2657V43.6563H12.9048V42.0173Z" fill="#105E7C"/>
    <path d="M12.8819 42.0402H11.2884V43.6336H12.8819V42.0402Z" fill="#105E7C"/>
    <path d="M12.9048 40.4468H11.2657V42.0858H12.9048V40.4468Z" fill="#105E7C"/>
    <path d="M12.8819 40.4695H11.2884V42.063H12.8819V40.4695Z" fill="#105E7C"/>
    <path d="M12.9048 38.8533H11.2657V40.4923H12.9048V38.8533Z" fill="#105E7C"/>
    <path d="M12.8819 38.8759H11.2884V40.4466H12.8819V38.8759Z" fill="#105E7C"/>
    <path d="M12.9048 37.2596H11.2657V38.8987H12.9048V37.2596Z" fill="#303086"/>
    <path d="M12.8819 37.3053H11.2884V38.8988H12.8819V37.3053Z" fill="#303086"/>
    <path d="M12.9048 35.6891H11.2657V37.3281H12.9048V35.6891Z" fill="#54A84E"/>
    <path d="M12.8819 35.7118H11.2884V37.3053H12.8819V35.7118Z" fill="#54A84E"/>
    <path d="M12.9048 34.0956H11.2657V35.7346H12.9048V34.0956Z" fill="#54A84E"/>
    <path d="M12.8819 34.1183H11.2884V35.7118H12.8819V34.1183Z" fill="#54A84E"/>
    <path d="M12.9048 32.5248H11.2657V34.1638H12.9048V32.5248Z" fill="#54A84E"/>
    <path d="M12.8819 32.5476H11.2884V34.1183H12.8819V32.5476Z" fill="#54A84E"/>
    <path d="M12.9048 30.9313H11.2657V32.5703H12.9048V30.9313Z" fill="#54A84E"/>
    <path d="M12.8819 30.9541H11.2884V32.5476H12.8819V30.9541Z" fill="#54A84E"/>
    <path d="M12.9048 29.3606H11.2657V30.9996H12.9048V29.3606Z" fill="#54A84E"/>
    <path d="M12.8819 29.3834H11.2884V30.9769H12.8819V29.3834Z" fill="#54A84E"/>
    <path d="M12.9048 27.7671H11.2657V29.4061H12.9048V27.7671Z" fill="#54A84E"/>
    <path d="M12.8819 27.7899H11.2884V29.3834H12.8819V27.7899Z" fill="#54A84E"/>
    <path d="M12.9048 26.1965H11.2657V27.8355H12.9048V26.1965Z" fill="#54A84E"/>
    <path d="M12.8819 26.2191H11.2884V27.7898H12.8819V26.2191Z" fill="#54A84E"/>
    <path d="M12.9048 24.6029H11.2657V26.2419H12.9048V24.6029Z" fill="#54A84E"/>
    <path d="M12.8819 24.6256H11.2884V26.2191H12.8819V24.6256Z" fill="#54A84E"/>
    <path d="M12.9048 23.0322H11.2657V24.6712H12.9048V23.0322Z" fill="#54A84E"/>
    <path d="M12.8819 23.0551H11.2884V24.6485H12.8819V23.0551Z" fill="#54A84E"/>
    <path d="M12.9048 21.4388H11.2657V23.0779H12.9048V21.4388Z" fill="#54A84E"/>
    <path d="M12.8819 21.4614H11.2884V23.0549H12.8819V21.4614Z" fill="#54A84E"/>
    <path d="M12.9048 19.868H11.2657V21.507H12.9048V19.868Z" fill="#F57E77"/>
    <path d="M12.8819 19.8909H11.2884V21.4616H12.8819V19.8909Z" fill="#F57E77"/>
    <path d="M12.9048 18.2745H11.2657V19.9135H12.9048V18.2745Z" fill="#FFE4CE"/>
    <path d="M12.8819 18.2974H11.2884V19.8908H12.8819V18.2974Z" fill="#FFE4CE"/>
    <path d="M12.9048 16.681H11.2657V18.32H12.9048V16.681Z" fill="#FFE4CE"/>
    <path d="M12.8819 16.7039H11.2884V18.2973H12.8819V16.7039Z" fill="#FFE4CE"/>
    <path d="M12.9048 15.1104H11.2657V16.7494H12.9048V15.1104Z" fill="#F57E77"/>
    <path d="M12.8819 15.1331H11.2884V16.7038H12.8819V15.1331Z" fill="#F57E77"/>
    <path d="M12.9048 13.5168H11.2657V15.1559H12.9048V13.5168Z" fill="#FFE4CE"/>
    <path d="M12.8819 13.5396H11.2884V15.133H12.8819V13.5396Z" fill="#FFE4CE"/>
    <path d="M12.9048 11.9462H11.2657V13.5852H12.9048V11.9462Z" fill="#FFE4CE"/>
    <path d="M12.8819 11.9689H11.2884V13.5624H12.8819V11.9689Z" fill="#FFE4CE"/>
    <path d="M12.9048 10.3527H11.2657V11.9917H12.9048V10.3527Z" fill="#FFE4CE"/>
    <path d="M12.8819 10.3754H11.2884V11.9688H12.8819V10.3754Z" fill="#FFE4CE"/>
    <path d="M12.9048 8.78198H11.2657V10.421H12.9048V8.78198Z" fill="#FFE4CE"/>
    <path d="M12.8819 8.80481H11.2884V10.3755H12.8819V8.80481Z" fill="#FFE4CE"/>
    <path d="M12.9048 7.18848H11.2657V8.82748H12.9048V7.18848Z" fill="#FFE4CE"/>
    <path d="M12.8819 7.21118H11.2884V8.80466H12.8819V7.21118Z" fill="#FFE4CE"/>
    <path d="M12.9048 5.6178H11.2657V7.25681H12.9048V5.6178Z" fill="#FFE4CE"/>
    <path d="M12.8819 5.64062H11.2884V7.23411H12.8819V5.64062Z" fill="#FFE4CE"/>
    <path d="M12.9048 4.02429H11.2657V5.6633H12.9048V4.02429Z" fill="#3D041F"/>
    <path d="M12.8819 4.047H11.2884V5.64048H12.8819V4.047Z" fill="#3D041F"/>
    <path d="M12.9048 2.45361H11.2657V4.09262H12.9048V2.45361Z" fill="#621931"/>
    <path d="M12.8819 2.47632H11.2884V4.04703H12.8819V2.47632Z" fill="#621931"/>
    <path d="M11.3111 70.5179H9.67213V72.157H11.3111V70.5179Z" fill="#26031F"/>
    <path d="M11.2657 70.5406H9.69502V72.1341H11.2657V70.5406Z" fill="#26031F"/>
    <path d="M11.3111 68.9243H9.67213V70.5633H11.3111V68.9243Z" fill="#E17346"/>
    <path d="M11.2657 68.9473H9.69502V70.518H11.2657V68.9473Z" fill="#E17346"/>
    <path d="M11.3111 67.3538H9.67213V68.9928H11.3111V67.3538Z" fill="#E17346"/>
    <path d="M11.2657 67.3766H9.69502V68.9701H11.2657V67.3766Z" fill="#E17346"/>
    <path d="M11.3111 65.7603H9.67213V67.3993H11.3111V65.7603Z" fill="#E17346"/>
    <path d="M11.2657 65.7831H9.69502V67.3766H11.2657V65.7831Z" fill="#E17346"/>
    <path d="M11.3111 64.1896H9.67213V65.8286H11.3111V64.1896Z" fill="#105E7C"/>
    <path d="M11.2657 64.2123H9.69502V65.8058H11.2657V64.2123Z" fill="#105E7C"/>
    <path d="M11.3111 62.5961H9.67213V64.2351H11.3111V62.5961Z" fill="#105E7C"/>
    <path d="M11.2657 62.6188H9.69502V64.1895H11.2657V62.6188Z" fill="#105E7C"/>
    <path d="M11.3111 61.0253H9.67213V62.6643H11.3111V61.0253Z" fill="#105E7C"/>
    <path d="M11.2657 61.0481H9.69502V62.6416H11.2657V61.0481Z" fill="#105E7C"/>
    <path d="M11.3111 59.4319H9.67213V61.0709H11.3111V59.4319Z" fill="#105E7C"/>
    <path d="M11.2657 59.4546H9.69502V61.0481H11.2657V59.4546Z" fill="#105E7C"/>
    <path d="M11.3111 57.8384H9.67213V59.4774H11.3111V57.8384Z" fill="#105E7C"/>
    <path d="M11.2657 57.884H9.69502V59.4775H11.2657V57.884Z" fill="#105E7C"/>
    <path d="M11.3111 56.2677H9.67213V57.9067H11.3111V56.2677Z" fill="#105E7C"/>
    <path d="M11.2657 56.2904H9.69502V57.8611H11.2657V56.2904Z" fill="#105E7C"/>
    <path d="M11.3111 54.6741H9.67213V56.3131H11.3111V54.6741Z" fill="#105E7C"/>
    <path d="M11.2657 54.7197H9.69502V56.3132H11.2657V54.7197Z" fill="#105E7C"/>
    <path d="M11.3111 53.1035H9.67213V54.7425H11.3111V53.1035Z" fill="#105E7C"/>
    <path d="M11.2657 53.1261H9.69502V54.7196H11.2657V53.1261Z" fill="#105E7C"/>
    <path d="M11.3111 51.51H9.67213V53.149H11.3111V51.51Z" fill="#105E7C"/>
    <path d="M11.2657 51.5328H9.69502V53.1036H11.2657V51.5328Z" fill="#105E7C"/>
    <path d="M11.3111 49.9393H9.67213V51.5783H11.3111V49.9393Z" fill="#105E7C"/>
    <path d="M11.2657 49.962H9.69502V51.5555H11.2657V49.962Z" fill="#105E7C"/>
    <path d="M11.3111 48.3458H9.67213V49.9848H11.3111V48.3458Z" fill="#105E7C"/>
    <path d="M11.2657 48.3685H9.69502V49.962H11.2657V48.3685Z" fill="#105E7C"/>
    <path d="M11.3111 46.775H9.67213V48.414H11.3111V46.775Z" fill="#105E7C"/>
    <path d="M11.2657 46.7979H9.69502V48.3913H11.2657V46.7979Z" fill="#105E7C"/>
    <path d="M11.3111 45.1816H9.67213V46.8206H11.3111V45.1816Z" fill="#105E7C"/>
    <path d="M11.2657 45.2043H9.69502V46.7751H11.2657V45.2043Z" fill="#105E7C"/>
    <path d="M11.3111 43.611H9.67213V45.25H11.3111V43.611Z" fill="#105E7C"/>
    <path d="M11.2657 43.6337H9.69502V45.2271H11.2657V43.6337Z" fill="#105E7C"/>
    <path d="M11.3111 42.0173H9.67213V43.6563H11.3111V42.0173Z" fill="#1D71B8"/>
    <path d="M11.2657 42.0402H9.69502V43.6336H11.2657V42.0402Z" fill="#1D71B8"/>
    <path d="M11.3111 40.4468H9.67213V42.0858H11.3111V40.4468Z" fill="#1D71B8"/>
    <path d="M11.2657 40.4695H9.69502V42.063H11.2657V40.4695Z" fill="#1D71B8"/>
    <path d="M11.3111 38.8533H9.67213V40.4923H11.3111V38.8533Z" fill="#1D71B8"/>
    <path d="M11.2657 38.8759H9.69502V40.4466H11.2657V38.8759Z" fill="#1D71B8"/>
    <path d="M11.3111 37.2596H9.67213V38.8987H11.3111V37.2596Z" fill="#303086"/>
    <path d="M11.2657 37.3053H9.69502V38.8988H11.2657V37.3053Z" fill="#303086"/>
    <path d="M11.3111 35.6891H9.67213V37.3281H11.3111V35.6891Z" fill="#54A84E"/>
    <path d="M11.2657 35.7118H9.69502V37.3053H11.2657V35.7118Z" fill="#54A84E"/>
    <path d="M11.3111 34.0956H9.67213V35.7346H11.3111V34.0956Z" fill="#54A84E"/>
    <path d="M11.2657 34.1183H9.69502V35.7118H11.2657V34.1183Z" fill="#54A84E"/>
    <path d="M11.3111 32.5248H9.67213V34.1638H11.3111V32.5248Z" fill="#54A84E"/>
    <path d="M11.2657 32.5476H9.69502V34.1183H11.2657V32.5476Z" fill="#54A84E"/>
    <path d="M11.3111 30.9313H9.67213V32.5703H11.3111V30.9313Z" fill="#54A84E"/>
    <path d="M11.2657 30.9541H9.69502V32.5476H11.2657V30.9541Z" fill="#54A84E"/>
    <path d="M11.3111 29.3606H9.67213V30.9996H11.3111V29.3606Z" fill="#54A84E"/>
    <path d="M11.2657 29.3834H9.69502V30.9769H11.2657V29.3834Z" fill="#54A84E"/>
    <path d="M11.3111 27.7671H9.67213V29.4061H11.3111V27.7671Z" fill="#54A84E"/>
    <path d="M11.2657 27.7899H9.69502V29.3834H11.2657V27.7899Z" fill="#54A84E"/>
    <path d="M11.3111 26.1965H9.67213V27.8355H11.3111V26.1965Z" fill="#54A84E"/>
    <path d="M11.2657 26.2191H9.69502V27.7898H11.2657V26.2191Z" fill="#54A84E"/>
    <path d="M11.3111 24.6029H9.67213V26.2419H11.3111V24.6029Z" fill="#54A84E"/>
    <path d="M11.2657 24.6256H9.69502V26.2191H11.2657V24.6256Z" fill="#54A84E"/>
    <path d="M11.3111 23.0322H9.67213V24.6712H11.3111V23.0322Z" fill="#54A84E"/>
    <path d="M11.2657 23.0551H9.69502V24.6485H11.2657V23.0551Z" fill="#54A84E"/>
    <path d="M11.3111 21.4388H9.67213V23.0779H11.3111V21.4388Z" fill="#54A84E"/>
    <path d="M11.2657 21.4614H9.69502V23.0549H11.2657V21.4614Z" fill="#54A84E"/>
    <path d="M11.3111 19.868H9.67213V21.507H11.3111V19.868Z" fill="#54A84E"/>
    <path d="M11.2657 19.8909H9.69502V21.4616H11.2657V19.8909Z" fill="#54A84E"/>
    <path d="M11.3111 18.2745H9.67213V19.9135H11.3111V18.2745Z" fill="#FFE4CE"/>
    <path d="M11.2657 18.2974H9.69502V19.8908H11.2657V18.2974Z" fill="#FFE4CE"/>
    <path d="M11.3111 16.681H9.67213V18.32H11.3111V16.681Z" fill="#FFE4CE"/>
    <path d="M11.2657 16.7039H9.69502V18.2973H11.2657V16.7039Z" fill="#FFE4CE"/>
    <path d="M11.3111 15.1104H9.67213V16.7494H11.3111V15.1104Z" fill="#F57E77"/>
    <path d="M11.2657 15.1331H9.69502V16.7038H11.2657V15.1331Z" fill="#F57E77"/>
    <path d="M11.3111 13.5168H9.67213V15.1559H11.3111V13.5168Z" fill="#FFE4CE"/>
    <path d="M11.2657 13.5396H9.69502V15.133H11.2657V13.5396Z" fill="#FFE4CE"/>
    <path d="M11.3111 11.9462H9.67213V13.5852H11.3111V11.9462Z" fill="#FFE4CE"/>
    <path d="M11.2657 11.9689H9.69502V13.5624H11.2657V11.9689Z" fill="#FFE4CE"/>
    <path d="M11.3111 10.3527H9.67213V11.9917H11.3111V10.3527Z" fill="#FFE4CE"/>
    <path d="M11.2657 10.3754H9.69502V11.9688H11.2657V10.3754Z" fill="#FFE4CE"/>
    <path d="M11.3111 8.78198H9.67213V10.421H11.3111V8.78198Z" fill="#66667C"/>
    <path d="M11.2657 8.80481H9.69502V10.3755H11.2657V8.80481Z" fill="#66667C"/>
    <path d="M11.3111 7.18848H9.67213V8.82748H11.3111V7.18848Z" fill="#FFE4CE"/>
    <path d="M11.2657 7.21118H9.69502V8.80466H11.2657V7.21118Z" fill="#FFE4CE"/>
    <path d="M11.3111 5.6178H9.67213V7.25681H11.3111V5.6178Z" fill="#FFE4CE"/>
    <path d="M11.2657 5.64062H9.69502V7.23411H11.2657V5.64062Z" fill="#FFE4CE"/>
    <path d="M11.3111 4.02429H9.67213V5.6633H11.3111V4.02429Z" fill="#3D041F"/>
    <path d="M11.2657 4.047H9.69502V5.64048H11.2657V4.047Z" fill="#3D041F"/>
    <path d="M11.3111 2.45361H9.67213V4.09262H11.3111V2.45361Z" fill="#621931"/>
    <path d="M11.2657 2.47632H9.69502V4.04703H11.2657V2.47632Z" fill="#621931"/>
    <path d="M9.74054 70.5179H8.10153V72.157H9.74054V70.5179Z" fill="#382A4C"/>
    <path d="M9.71776 70.5406H8.12428V72.1341H9.71776V70.5406Z" fill="#382A4C"/>
    <path d="M9.74054 68.9243H8.10153V70.5633H9.74054V68.9243Z" fill="#F39200"/>
    <path d="M9.71776 68.9473H8.12428V70.518H9.71776V68.9473Z" fill="#F39200"/>
    <path d="M9.74054 67.3538H8.10153V68.9928H9.74054V67.3538Z" fill="#F39200"/>
    <path d="M9.71776 67.3766H8.12428V68.9701H9.71776V67.3766Z" fill="#F39200"/>
    <path d="M9.74054 65.7603H8.10153V67.3993H9.74054V65.7603Z" fill="#F39200"/>
    <path d="M9.71776 65.7831H8.12428V67.3766H9.71776V65.7831Z" fill="#F39200"/>
    <path d="M9.74054 64.1896H8.10153V65.8286H9.74054V64.1896Z" fill="#1D71B8"/>
    <path d="M9.71776 64.2123H8.12428V65.8058H9.71776V64.2123Z" fill="#1D71B8"/>
    <path d="M9.74054 62.5961H8.10153V64.2351H9.74054V62.5961Z" fill="#1D71B8"/>
    <path d="M9.71776 62.6188H8.12428V64.1895H9.71776V62.6188Z" fill="#1D71B8"/>
    <path d="M9.74054 61.0253H8.10153V62.6643H9.74054V61.0253Z" fill="#1D71B8"/>
    <path d="M9.71776 61.0481H8.12428V62.6416H9.71776V61.0481Z" fill="#1D71B8"/>
    <path d="M9.74054 59.4319H8.10153V61.0709H9.74054V59.4319Z" fill="#1D71B8"/>
    <path d="M9.71776 59.4546H8.12428V61.0481H9.71776V59.4546Z" fill="#1D71B8"/>
    <path d="M9.74054 57.8384H8.10153V59.4774H9.74054V57.8384Z" fill="#1D71B8"/>
    <path d="M9.71776 57.884H8.12428V59.4775H9.71776V57.884Z" fill="#1D71B8"/>
    <path d="M9.74054 56.2677H8.10153V57.9067H9.74054V56.2677Z" fill="#1D71B8"/>
    <path d="M9.71776 56.2904H8.12428V57.8611H9.71776V56.2904Z" fill="#1D71B8"/>
    <path d="M9.74054 54.6741H8.10153V56.3131H9.74054V54.6741Z" fill="#1D71B8"/>
    <path d="M9.71776 54.7197H8.12428V56.3132H9.71776V54.7197Z" fill="#1D71B8"/>
    <path d="M9.74054 53.1035H8.10153V54.7425H9.74054V53.1035Z" fill="#1D71B8"/>
    <path d="M9.71776 53.1261H8.12428V54.7196H9.71776V53.1261Z" fill="#1D71B8"/>
    <path d="M9.74054 51.51H8.10153V53.149H9.74054V51.51Z" fill="#1D71B8"/>
    <path d="M9.71776 51.5328H8.12428V53.1036H9.71776V51.5328Z" fill="#1D71B8"/>
    <path d="M9.74054 49.9393H8.10153V51.5783H9.74054V49.9393Z" fill="#1D71B8"/>
    <path d="M9.71776 49.962H8.12428V51.5555H9.71776V49.962Z" fill="#1D71B8"/>
    <path d="M9.74054 48.3458H8.10153V49.9848H9.74054V48.3458Z" fill="#1D71B8"/>
    <path d="M9.71776 48.3685H8.12428V49.962H9.71776V48.3685Z" fill="#1D71B8"/>
    <path d="M9.74054 46.775H8.10153V48.414H9.74054V46.775Z" fill="#1D71B8"/>
    <path d="M9.71776 46.7979H8.12428V48.3913H9.71776V46.7979Z" fill="#1D71B8"/>
    <path d="M9.74054 45.1816H8.10153V46.8206H9.74054V45.1816Z" fill="#1D71B8"/>
    <path d="M9.71776 45.2043H8.12428V46.7751H9.71776V45.2043Z" fill="#1D71B8"/>
    <path d="M9.74054 43.611H8.10153V45.25H9.74054V43.611Z" fill="#1D71B8"/>
    <path d="M9.71776 43.6337H8.12428V45.2271H9.71776V43.6337Z" fill="#1D71B8"/>
    <path d="M9.74054 42.0173H8.10153V43.6563H9.74054V42.0173Z" fill="#1D71B8"/>
    <path d="M9.71776 42.0402H8.12428V43.6336H9.71776V42.0402Z" fill="#1D71B8"/>
    <path d="M9.74054 40.4468H8.10153V42.0858H9.74054V40.4468Z" fill="#1D71B8"/>
    <path d="M9.71776 40.4695H8.12428V42.063H9.71776V40.4695Z" fill="#1D71B8"/>
    <path d="M9.74054 38.8533H8.10153V40.4923H9.74054V38.8533Z" fill="#1D71B8"/>
    <path d="M9.71776 38.8759H8.12428V40.4466H9.71776V38.8759Z" fill="#1D71B8"/>
    <path d="M9.74054 37.2596H8.10153V38.8987H9.74054V37.2596Z" fill="#105E7C"/>
    <path d="M9.71776 37.3053H8.12428V38.8988H9.71776V37.3053Z" fill="#105E7C"/>
    <path d="M9.74054 35.6891H8.10153V37.3281H9.74054V35.6891Z" fill="#54A84E"/>
    <path d="M9.71776 35.7118H8.12428V37.3053H9.71776V35.7118Z" fill="#54A84E"/>
    <path d="M9.74054 34.0956H8.10153V35.7346H9.74054V34.0956Z" fill="#54A84E"/>
    <path d="M9.71776 34.1183H8.12428V35.7118H9.71776V34.1183Z" fill="#54A84E"/>
    <path d="M9.74054 32.5248H8.10153V34.1638H9.74054V32.5248Z" fill="#54A84E"/>
    <path d="M9.71776 32.5476H8.12428V34.1183H9.71776V32.5476Z" fill="#54A84E"/>
    <path d="M9.74054 30.9313H8.10153V32.5703H9.74054V30.9313Z" fill="#54A84E"/>
    <path d="M9.71776 30.9541H8.12428V32.5476H9.71776V30.9541Z" fill="#54A84E"/>
    <path d="M9.74054 29.3606H8.10153V30.9996H9.74054V29.3606Z" fill="#54A84E"/>
    <path d="M9.71776 29.3834H8.12428V30.9769H9.71776V29.3834Z" fill="#54A84E"/>
    <path d="M9.74054 27.7671H8.10153V29.4061H9.74054V27.7671Z" fill="#54A84E"/>
    <path d="M9.71776 27.7899H8.12428V29.3834H9.71776V27.7899Z" fill="#54A84E"/>
    <path d="M9.74054 26.1965H8.10153V27.8355H9.74054V26.1965Z" fill="#54A84E"/>
    <path d="M9.71776 26.2191H8.12428V27.7898H9.71776V26.2191Z" fill="#54A84E"/>
    <path d="M9.74054 24.6029H8.10153V26.2419H9.74054V24.6029Z" fill="#54A84E"/>
    <path d="M9.71776 24.6256H8.12428V26.2191H9.71776V24.6256Z" fill="#54A84E"/>
    <path d="M9.74054 23.0322H8.10153V24.6712H9.74054V23.0322Z" fill="#54A84E"/>
    <path d="M9.71776 23.0551H8.12428V24.6485H9.71776V23.0551Z" fill="#54A84E"/>
    <path d="M9.74054 21.4388H8.10153V23.0779H9.74054V21.4388Z" fill="#54A84E"/>
    <path d="M9.71776 21.4614H8.12428V23.0549H9.71776V21.4614Z" fill="#54A84E"/>
    <path d="M9.74054 19.868H8.10153V21.507H9.74054V19.868Z" fill="#54A84E"/>
    <path d="M9.71776 19.8909H8.12428V21.4616H9.71776V19.8909Z" fill="#54A84E"/>
    <path d="M9.74054 18.2745H8.10153V19.9135H9.74054V18.2745Z" fill="#FFE4CE"/>
    <path d="M9.71776 18.2974H8.12428V19.8908H9.71776V18.2974Z" fill="#FFE4CE"/>
    <path d="M9.74054 13.5168H8.10153V15.1559H9.74054V13.5168Z" fill="#FFE4CE"/>
    <path d="M9.71776 13.5396H8.12428V15.133H9.71776V13.5396Z" fill="#FFE4CE"/>
    <path d="M9.74054 11.9462H8.10153V13.5852H9.74054V11.9462Z" fill="#FFE4CE"/>
    <path d="M9.71776 11.9689H8.12428V13.5624H9.71776V11.9689Z" fill="#FFE4CE"/>
    <path d="M9.74054 10.3527H8.10153V11.9917H9.74054V10.3527Z" fill="#FFE4CE"/>
    <path d="M9.71776 10.3754H8.12428V11.9688H9.71776V10.3754Z" fill="#FFE4CE"/>
    <path d="M9.74054 8.78198H8.10153V10.421H9.74054V8.78198Z" fill="#FFE4CE"/>
    <path d="M9.71776 8.80481H8.12428V10.3755H9.71776V8.80481Z" fill="#FFE4CE"/>
    <path d="M9.74054 7.18848H8.10153V8.82748H9.74054V7.18848Z" fill="#FFE4CE"/>
    <path d="M9.71776 7.21118H8.12428V8.80466H9.71776V7.21118Z" fill="#FFE4CE"/>
    <path d="M9.74054 5.6178H8.10153V7.25681H9.74054V5.6178Z" fill="#3D041F"/>
    <path d="M9.71776 5.64062H8.12428V7.23411H9.71776V5.64062Z" fill="#3D041F"/>
    <path d="M9.74054 4.02429H8.10153V5.6633H9.74054V4.02429Z" fill="#621931"/>
    <path d="M9.71776 4.047H8.12428V5.64048H9.71776V4.047Z" fill="#621931"/>
    <path d="M9.74054 2.45361H8.10153V4.09262H9.74054V2.45361Z" fill="#621931"/>
    <path d="M9.71776 2.47632H8.12428V4.04703H9.71776V2.47632Z" fill="#621931"/>
    <path d="M8.14705 70.5179H6.50804V72.157H8.14705V70.5179Z" fill="#382A4C"/>
    <path d="M8.12427 70.5406H6.53079V72.1341H8.12427V70.5406Z" fill="#382A4C"/>
    <path d="M8.14705 68.9243H6.50804V70.5633H8.14705V68.9243Z" fill="#F39200"/>
    <path d="M8.12427 68.9473H6.53079V70.518H8.12427V68.9473Z" fill="#F39200"/>
    <path d="M8.14705 67.3538H6.50804V68.9928H8.14705V67.3538Z" fill="#F39200"/>
    <path d="M8.12427 67.3766H6.53079V68.9701H8.12427V67.3766Z" fill="#F39200"/>
    <path d="M8.14705 65.7603H6.50804V67.3993H8.14705V65.7603Z" fill="#F39200"/>
    <path d="M8.12427 65.7831H6.53079V67.3766H8.12427V65.7831Z" fill="#F39200"/>
    <path d="M8.14705 64.1896H6.50804V65.8286H8.14705V64.1896Z" fill="#E17346"/>
    <path d="M8.12427 64.2123H6.53079V65.8058H8.12427V64.2123Z" fill="#E17346"/>
    <path d="M8.14705 62.5961H6.50804V64.2351H8.14705V62.5961Z" fill="#1D71B8"/>
    <path d="M8.12427 62.6188H6.53079V64.1895H8.12427V62.6188Z" fill="#1D71B8"/>
    <path d="M8.14705 61.0253H6.50804V62.6643H8.14705V61.0253Z" fill="#1D71B8"/>
    <path d="M8.12427 61.0481H6.53079V62.6416H8.12427V61.0481Z" fill="#1D71B8"/>
    <path d="M8.14705 59.4319H6.50804V61.0709H8.14705V59.4319Z" fill="#1D71B8"/>
    <path d="M8.12427 59.4546H6.53079V61.0481H8.12427V59.4546Z" fill="#1D71B8"/>
    <path d="M8.14705 57.8384H6.50804V59.4774H8.14705V57.8384Z" fill="#1D71B8"/>
    <path d="M8.12427 57.884H6.53079V59.4775H8.12427V57.884Z" fill="#1D71B8"/>
    <path d="M8.14705 56.2677H6.50804V57.9067H8.14705V56.2677Z" fill="#1D71B8"/>
    <path d="M8.12427 56.2904H6.53079V57.8611H8.12427V56.2904Z" fill="#1D71B8"/>
    <path d="M8.14705 54.6741H6.50804V56.3131H8.14705V54.6741Z" fill="#1D71B8"/>
    <path d="M8.12427 54.7197H6.53079V56.3132H8.12427V54.7197Z" fill="#1D71B8"/>
    <path d="M8.14705 53.1035H6.50804V54.7425H8.14705V53.1035Z" fill="#1D71B8"/>
    <path d="M8.12427 53.1261H6.53079V54.7196H8.12427V53.1261Z" fill="#1D71B8"/>
    <path d="M8.14705 51.51H6.50804V53.149H8.14705V51.51Z" fill="#1D71B8"/>
    <path d="M8.12427 51.5328H6.53079V53.1036H8.12427V51.5328Z" fill="#1D71B8"/>
    <path d="M8.14705 49.9393H6.50804V51.5783H8.14705V49.9393Z" fill="#1D71B8"/>
    <path d="M8.12427 49.962H6.53079V51.5555H8.12427V49.962Z" fill="#1D71B8"/>
    <path d="M8.14705 48.3458H6.50804V49.9848H8.14705V48.3458Z" fill="#1D71B8"/>
    <path d="M8.12427 48.3685H6.53079V49.962H8.12427V48.3685Z" fill="#1D71B8"/>
    <path d="M8.14705 46.775H6.50804V48.414H8.14705V46.775Z" fill="#1D71B8"/>
    <path d="M8.12427 46.7979H6.53079V48.3913H8.12427V46.7979Z" fill="#1D71B8"/>
    <path d="M8.14705 45.1816H6.50804V46.8206H8.14705V45.1816Z" fill="#1D71B8"/>
    <path d="M8.12427 45.2043H6.53079V46.7751H8.12427V45.2043Z" fill="#1D71B8"/>
    <path d="M8.14705 43.611H6.50804V45.25H8.14705V43.611Z" fill="#1D71B8"/>
    <path d="M8.12427 43.6337H6.53079V45.2271H8.12427V43.6337Z" fill="#1D71B8"/>
    <path d="M8.14705 42.0173H6.50804V43.6563H8.14705V42.0173Z" fill="#1D71B8"/>
    <path d="M8.12427 42.0402H6.53079V43.6336H8.12427V42.0402Z" fill="#1D71B8"/>
    <path d="M8.14705 40.4468H6.50804V42.0858H8.14705V40.4468Z" fill="#105E7C"/>
    <path d="M8.12427 40.4695H6.53079V42.063H8.12427V40.4695Z" fill="#105E7C"/>
    <path d="M8.14705 38.8533H6.50804V40.4923H8.14705V38.8533Z" fill="#105E7C"/>
    <path d="M8.12427 38.8759H6.53079V40.4466H8.12427V38.8759Z" fill="#105E7C"/>
    <path d="M8.14705 37.2596H6.50804V38.8987H8.14705V37.2596Z" fill="#105E7C"/>
    <path d="M8.12427 37.3053H6.53079V38.8988H8.12427V37.3053Z" fill="#105E7C"/>
    <path d="M8.14705 35.6891H6.50804V37.3281H8.14705V35.6891Z" fill="#54A84E"/>
    <path d="M8.12427 35.7118H6.53079V37.3053H8.12427V35.7118Z" fill="#54A84E"/>
    <path d="M8.14705 34.0956H6.50804V35.7346H8.14705V34.0956Z" fill="#54A84E"/>
    <path d="M8.12427 34.1183H6.53079V35.7118H8.12427V34.1183Z" fill="#54A84E"/>
    <path d="M8.14705 32.5248H6.50804V34.1638H8.14705V32.5248Z" fill="#54A84E"/>
    <path d="M8.12427 32.5476H6.53079V34.1183H8.12427V32.5476Z" fill="#54A84E"/>
    <path d="M8.14705 30.9313H6.50804V32.5703H8.14705V30.9313Z" fill="#54A84E"/>
    <path d="M8.12427 30.9541H6.53079V32.5476H8.12427V30.9541Z" fill="#54A84E"/>
    <path d="M8.14705 29.3606H6.50804V30.9996H8.14705V29.3606Z" fill="#54A84E"/>
    <path d="M8.12427 29.3834H6.53079V30.9769H8.12427V29.3834Z" fill="#54A84E"/>
    <path d="M8.14705 27.7671H6.50804V29.4061H8.14705V27.7671Z" fill="#54A84E"/>
    <path d="M8.12427 27.7899H6.53079V29.3834H8.12427V27.7899Z" fill="#54A84E"/>
    <path d="M8.14705 26.1965H6.50804V27.8355H8.14705V26.1965Z" fill="#54A84E"/>
    <path d="M8.12427 26.2191H6.53079V27.7898H8.12427V26.2191Z" fill="#54A84E"/>
    <path d="M8.14705 24.6029H6.50804V26.2419H8.14705V24.6029Z" fill="#376732"/>
    <path d="M8.12427 24.6256H6.53079V26.2191H8.12427V24.6256Z" fill="#376732"/>
    <path d="M8.14705 23.0322H6.50804V24.6712H8.14705V23.0322Z" fill="#54A84E"/>
    <path d="M8.12427 23.0551H6.53079V24.6485H8.12427V23.0551Z" fill="#54A84E"/>
    <path d="M8.14705 21.4388H6.50804V23.0779H8.14705V21.4388Z" fill="#54A84E"/>
    <path d="M8.12427 21.4614H6.53079V23.0549H8.12427V21.4614Z" fill="#54A84E"/>
    <path d="M8.14705 19.868H6.50804V21.507H8.14705V19.868Z" fill="#54A84E"/>
    <path d="M8.12427 19.8909H6.53079V21.4616H8.12427V19.8909Z" fill="#54A84E"/>
    <path d="M8.14705 18.2745H6.50804V19.9135H8.14705V18.2745Z" fill="#54A84E"/>
    <path d="M8.12427 18.2974H6.53079V19.8908H8.12427V18.2974Z" fill="#54A84E"/>
    <path d="M8.14705 11.9462H6.50804V13.5852H8.14705V11.9462Z" fill="#F57E77"/>
    <path d="M8.12427 11.9689H6.53079V13.5624H8.12427V11.9689Z" fill="#F57E77"/>
    <path d="M8.14705 10.3527H6.50804V11.9917H8.14705V10.3527Z" fill="#3D041F"/>
    <path d="M8.12427 10.3754H6.53079V11.9688H8.12427V10.3754Z" fill="#3D041F"/>
    <path d="M8.14705 8.78198H6.50804V10.421H8.14705V8.78198Z" fill="#3D041F"/>
    <path d="M8.12427 8.80481H6.53079V10.3755H8.12427V8.80481Z" fill="#3D041F"/>
    <path d="M8.14705 7.18848H6.50804V8.82748H8.14705V7.18848Z" fill="#621931"/>
    <path d="M8.12427 7.21118H6.53079V8.80466H8.12427V7.21118Z" fill="#621931"/>
    <path d="M8.14705 5.6178H6.50804V7.25681H8.14705V5.6178Z" fill="#621931"/>
    <path d="M8.12427 5.64062H6.53079V7.23411H8.12427V5.64062Z" fill="#621931"/>
    <path d="M8.14705 4.02429H6.50804V5.6633H8.14705V4.02429Z" fill="#621931"/>
    <path d="M8.12427 4.047H6.53079V5.64048H8.12427V4.047Z" fill="#621931"/>
    <path d="M6.57631 70.5179H4.9373V72.157H6.57631V70.5179Z" fill="#382A4C"/>
    <path d="M6.55355 70.5406H4.96007V72.1341H6.55355V70.5406Z" fill="#382A4C"/>
    <path d="M6.57631 68.9243H4.9373V70.5633H6.57631V68.9243Z" fill="#E7E0D4"/>
    <path d="M6.55355 68.9473H4.96007V70.518H6.55355V68.9473Z" fill="#E7E0D4"/>
    <path d="M6.57631 67.3538H4.9373V68.9928H6.57631V67.3538Z" fill="#F39200"/>
    <path d="M6.55355 67.3766H4.96007V68.9701H6.55355V67.3766Z" fill="#F39200"/>
    <path d="M6.57631 64.1896H4.9373V65.8286H6.57631V64.1896Z" fill="#F39200"/>
    <path d="M6.55355 64.2123H4.96007V65.8058H6.55355V64.2123Z" fill="#F39200"/>
    <path d="M6.57631 23.0322H4.9373V24.6712H6.57631V23.0322Z" fill="#376732"/>
    <path d="M6.55355 23.0551H4.96007V24.6485H6.55355V23.0551Z" fill="#376732"/>
    <path d="M6.57631 21.4388H4.9373V23.0779H6.57631V21.4388Z" fill="#54A84E"/>
    <path d="M6.55355 21.4614H4.96007V23.0549H6.55355V21.4614Z" fill="#54A84E"/>
    <path d="M6.57631 19.868H4.9373V21.507H6.57631V19.868Z" fill="#54A84E"/>
    <path d="M6.55355 19.8909H4.96007V21.4616H6.55355V19.8909Z" fill="#54A84E"/>
    <path d="M6.57631 18.2745H4.9373V19.9135H6.57631V18.2745Z" fill="#54A84E"/>
    <path d="M6.55355 18.2974H4.96007V19.8908H6.55355V18.2974Z" fill="#54A84E"/>
    <path d="M6.57631 10.3527H4.9373V11.9917H6.57631V10.3527Z" fill="#F57E77"/>
    <path d="M6.55355 10.3754H4.96007V11.9688H6.55355V10.3754Z" fill="#F57E77"/>
    <path d="M6.57631 8.78198H4.9373V10.421H6.57631V8.78198Z" fill="#FFE4CE"/>
    <path d="M6.55355 8.80481H4.96007V10.3755H6.55355V8.80481Z" fill="#FFE4CE"/>
    <path d="M6.57631 7.18848H4.9373V8.82748H6.57631V7.18848Z" fill="#3D041F"/>
    <path d="M6.55355 7.21118H4.96007V8.80466H6.55355V7.21118Z" fill="#3D041F"/>
    <path d="M4.98282 70.5179H3.34381V72.157H4.98282V70.5179Z" fill="#382A4C"/>
    <path d="M4.93729 70.5406H3.36658V72.1341H4.93729V70.5406Z" fill="#382A4C"/>
    <path d="M4.98282 68.9243H3.34381V70.5633H4.98282V68.9243Z" fill="white"/>
    <path d="M4.93729 68.9473H3.36658V70.518H4.93729V68.9473Z" fill="white"/>
    <path d="M4.98282 67.3538H3.34381V68.9928H4.98282V67.3538Z" fill="#E7E0D4"/>
    <path d="M4.93729 67.3766H3.36658V68.9701H4.93729V67.3766Z" fill="#E7E0D4"/>
    <path d="M4.98282 43.611H3.34381V45.25H4.98282V43.611Z" fill="#FFE4CE"/>
    <path d="M4.93729 43.6337H3.36658V45.2271H4.93729V43.6337Z" fill="#FFE4CE"/>
    <path d="M4.98282 42.0173H3.34381V43.6563H4.98282V42.0173Z" fill="#F57E77"/>
    <path d="M4.93729 42.0402H3.36658V43.6336H4.93729V42.0402Z" fill="#F57E77"/>
    <path d="M4.98282 27.7671H3.34381V29.4061H4.98282V27.7671Z" fill="#376732"/>
    <path d="M4.93729 27.7899H3.36658V29.3834H4.93729V27.7899Z" fill="#376732"/>
    <path d="M4.98282 26.1965H3.34381V27.8355H4.98282V26.1965Z" fill="#376732"/>
    <path d="M4.93729 26.2191H3.36658V27.7898H4.93729V26.2191Z" fill="#376732"/>
    <path d="M4.98282 24.6029H3.34381V26.2419H4.98282V24.6029Z" fill="#376732"/>
    <path d="M4.93729 24.6256H3.36658V26.2191H4.93729V24.6256Z" fill="#376732"/>
    <path d="M4.98282 23.0322H3.34381V24.6712H4.98282V23.0322Z" fill="#54A84E"/>
    <path d="M4.93729 23.0551H3.36658V24.6485H4.93729V23.0551Z" fill="#54A84E"/>
    <path d="M4.98282 21.4388H3.34381V23.0779H4.98282V21.4388Z" fill="#54A84E"/>
    <path d="M4.93729 21.4614H3.36658V23.0549H4.93729V21.4614Z" fill="#54A84E"/>
    <path d="M4.98282 19.868H3.34381V21.507H4.98282V19.868Z" fill="#54A84E"/>
    <path d="M4.93729 19.8909H3.36658V21.4616H4.93729V19.8909Z" fill="#54A84E"/>
    <path d="M3.41209 70.5179H1.77309V72.157H3.41209V70.5179Z" fill="#382A4C"/>
    <path d="M3.38933 70.5406H1.79585V72.1341H3.38933V70.5406Z" fill="#382A4C"/>
    <path d="M3.41209 68.9243H1.77309V70.5633H3.41209V68.9243Z" fill="white"/>
    <path d="M3.38933 68.9473H1.79585V70.518H3.38933V68.9473Z" fill="white"/>
    <path d="M3.41209 67.3538H1.77309V68.9928H3.41209V67.3538Z" fill="white"/>
    <path d="M3.38933 67.3766H1.79585V68.9701H3.38933V67.3766Z" fill="white"/>
    <path d="M3.41209 45.1816H1.77309V46.8206H3.41209V45.1816Z" fill="#FFE4CE"/>
    <path d="M3.38933 45.2043H1.79585V46.7751H3.38933V45.2043Z" fill="#FFE4CE"/>
    <path d="M3.41209 43.611H1.77309V45.25H3.41209V43.611Z" fill="#FFE4CE"/>
    <path d="M3.38933 43.6337H1.79585V45.2271H3.38933V43.6337Z" fill="#FFE4CE"/>
    <path d="M3.41209 42.0173H1.77309V43.6563H3.41209V42.0173Z" fill="#FFE4CE"/>
    <path d="M3.38933 42.0402H1.79585V43.6336H3.38933V42.0402Z" fill="#FFE4CE"/>
    <path d="M3.41209 40.4468H1.77309V42.0858H3.41209V40.4468Z" fill="#F57E77"/>
    <path d="M3.38933 40.4695H1.79585V42.063H3.38933V40.4695Z" fill="#F57E77"/>
    <path d="M3.41209 38.8533H1.77309V40.4923H3.41209V38.8533Z" fill="#105E7C"/>
    <path d="M3.38933 38.8759H1.79585V40.4466H3.38933V38.8759Z" fill="#105E7C"/>
    <path d="M3.41209 37.2596H1.77309V38.8987H3.41209V37.2596Z" fill="#F57E77"/>
    <path d="M3.38933 37.3053H1.79585V38.8988H3.38933V37.3053Z" fill="#F57E77"/>
    <path d="M3.41209 35.6891H1.77309V37.3281H3.41209V35.6891Z" fill="#F57E77"/>
    <path d="M3.38933 35.7118H1.79585V37.3053H3.38933V35.7118Z" fill="#F57E77"/>
    <path d="M3.41209 34.0956H1.77309V35.7346H3.41209V34.0956Z" fill="#F57E77"/>
    <path d="M3.38933 34.1183H1.79585V35.7118H3.38933V34.1183Z" fill="#F57E77"/>
    <path d="M3.41209 32.5248H1.77309V34.1638H3.41209V32.5248Z" fill="#F57E77"/>
    <path d="M3.38933 32.5476H1.79585V34.1183H3.38933V32.5476Z" fill="#F57E77"/>
    <path d="M3.41209 30.9313H1.77309V32.5703H3.41209V30.9313Z" fill="#F57E77"/>
    <path d="M3.38933 30.9541H1.79585V32.5476H3.38933V30.9541Z" fill="#F57E77"/>
    <path d="M3.41209 29.3606H1.77309V30.9996H3.41209V29.3606Z" fill="#F57E77"/>
    <path d="M3.38933 29.3834H1.79585V30.9769H3.38933V29.3834Z" fill="#F57E77"/>
    <path d="M3.41209 27.7671H1.77309V29.4061H3.41209V27.7671Z" fill="#54A84E"/>
    <path d="M3.38933 27.7899H1.79585V29.3834H3.38933V27.7899Z" fill="#54A84E"/>
    <path d="M3.41209 26.1965H1.77309V27.8355H3.41209V26.1965Z" fill="#54A84E"/>
    <path d="M3.38933 26.2191H1.79585V27.7898H3.38933V26.2191Z" fill="#54A84E"/>
    <path d="M3.41209 24.6029H1.77309V26.2419H3.41209V24.6029Z" fill="#54A84E"/>
    <path d="M3.38933 24.6256H1.79585V26.2191H3.38933V24.6256Z" fill="#54A84E"/>
    <path d="M3.41209 23.0322H1.77309V24.6712H3.41209V23.0322Z" fill="#54A84E"/>
    <path d="M3.38933 23.0551H1.79585V24.6485H3.38933V23.0551Z" fill="#54A84E"/>
    <path d="M3.41209 21.4388H1.77309V23.0779H3.41209V21.4388Z" fill="#54A84E"/>
    <path d="M3.38933 21.4614H1.79585V23.0549H3.38933V21.4614Z" fill="#54A84E"/>
    <path d="M3.41209 19.868H1.77309V21.507H3.41209V19.868Z" fill="#54A84E"/>
    <path d="M3.38933 19.8909H1.79585V21.4616H3.38933V19.8909Z" fill="#54A84E"/>
    <path d="M1.8186 70.5179H0.179596V72.157H1.8186V70.5179Z" fill="#382A4C"/>
    <path d="M1.79584 70.5406H0.202362V72.1341H1.79584V70.5406Z" fill="#382A4C"/>
    <path d="M1.8186 45.1816H0.179596V46.8206H1.8186V45.1816Z" fill="#FFE4CE"/>
    <path d="M1.79584 45.2043H0.202362V46.7751H1.79584V45.2043Z" fill="#FFE4CE"/>
    <path d="M1.8186 43.611H0.179596V45.25H1.8186V43.611Z" fill="#FFE4CE"/>
    <path d="M1.79584 43.6337H0.202362V45.2271H1.79584V43.6337Z" fill="#FFE4CE"/>
    <path d="M1.8186 42.0173H0.179596V43.6563H1.8186V42.0173Z" fill="#FFE4CE"/>
    <path d="M1.79584 42.0402H0.202362V43.6336H1.79584V42.0402Z" fill="#FFE4CE"/>
    <path d="M1.8186 40.4468H0.179596V42.0858H1.8186V40.4468Z" fill="#FFE4CE"/>
    <path d="M1.79584 40.4695H0.202362V42.063H1.79584V40.4695Z" fill="#FFE4CE"/>
    <path d="M1.8186 38.8533H0.179596V40.4923H1.8186V38.8533Z" fill="#303086"/>
    <path d="M1.79584 38.8759H0.202362V40.4466H1.79584V38.8759Z" fill="#303086"/>
    <path d="M1.8186 37.2596H0.179596V38.8987H1.8186V37.2596Z" fill="#FFE4CE"/>
    <path d="M1.79584 37.3053H0.202362V38.8988H1.79584V37.3053Z" fill="#FFE4CE"/>
    <path d="M1.8186 35.6891H0.179596V37.3281H1.8186V35.6891Z" fill="#FFE4CE"/>
    <path d="M1.79584 35.7118H0.202362V37.3053H1.79584V35.7118Z" fill="#FFE4CE"/>
    <path d="M1.8186 34.0956H0.179596V35.7346H1.8186V34.0956Z" fill="#FFE4CE"/>
    <path d="M1.79584 34.1183H0.202362V35.7118H1.79584V34.1183Z" fill="#FFE4CE"/>
    <path d="M1.8186 32.5248H0.179596V34.1638H1.8186V32.5248Z" fill="#FFE4CE"/>
    <path d="M1.79584 32.5476H0.202362V34.1183H1.79584V32.5476Z" fill="#FFE4CE"/>
    <path d="M1.8186 30.9313H0.179596V32.5703H1.8186V30.9313Z" fill="#FFE4CE"/>
    <path d="M1.79584 30.9541H0.202362V32.5476H1.79584V30.9541Z" fill="#FFE4CE"/>
    <path d="M1.8186 29.3606H0.179596V30.9996H1.8186V29.3606Z" fill="#FFE4CE"/>
    <path d="M1.79584 29.3834H0.202362V30.9769H1.79584V29.3834Z" fill="#FFE4CE"/>
    <path d="M1.8186 27.7671H0.179596V29.4061H1.8186V27.7671Z" fill="#54A84E"/>
    <path d="M1.79584 27.7899H0.202362V29.3834H1.79584V27.7899Z" fill="#54A84E"/>
    <path d="M1.8186 26.1965H0.179596V27.8355H1.8186V26.1965Z" fill="#54A84E"/>
    <path d="M1.79584 26.2191H0.202362V27.7898H1.79584V26.2191Z" fill="#54A84E"/>
    <path d="M1.8186 24.6029H0.179596V26.2419H1.8186V24.6029Z" fill="#54A84E"/>
    <path d="M1.79584 24.6256H0.202362V26.2191H1.79584V24.6256Z" fill="#54A84E"/>
    <path d="M1.8186 23.0322H0.179596V24.6712H1.8186V23.0322Z" fill="#54A84E"/>
    <path d="M1.79584 23.0551H0.202362V24.6485H1.79584V23.0551Z" fill="#54A84E"/>
</svg>
