<svg width="24" height="60" viewBox="0 0 24 60" fill="none" xmlns="http://www.w3.org/2000/svg">
    <path d="M22.3937 58.3373H20.7424V60H22.3937V58.3373Z" fill="#391709"/>
    <path d="M22.3708 58.3604H20.7654V59.9768H22.3708V58.3604Z" fill="#391709"/>
    <path d="M22.3937 56.7202H20.7424V58.3829H22.3937V56.7202Z" fill="#482C02"/>
    <path d="M22.3708 56.7435H20.7654V58.3369H22.3708V56.7435Z" fill="#482C02"/>
    <path d="M20.8104 58.3373H19.1592V60H20.8104V58.3373Z" fill="#391709"/>
    <path d="M20.7875 58.3604H19.1821V59.9768H20.7875V58.3604Z" fill="#391709"/>
    <path d="M20.8104 56.7202H19.1592V58.3829H20.8104V56.7202Z" fill="#482C02"/>
    <path d="M20.7875 56.7435H19.1821V58.3369H20.7875V56.7435Z" fill="#482C02"/>
    <path d="M20.8104 55.1265H19.1592V56.7891H20.8104V55.1265Z" fill="#391709"/>
    <path d="M20.7875 55.1495H19.1821V56.766H20.7875V55.1495Z" fill="#482C02"/>
    <path d="M19.2042 58.3373H17.553V60H19.2042V58.3373Z" fill="#391709"/>
    <path d="M19.1813 58.3604H17.5759V59.9768H19.1813V58.3604Z" fill="#391709"/>
    <path d="M19.2042 56.7202H17.553V58.3829H19.2042V56.7202Z" fill="#391709"/>
    <path d="M19.1813 56.7435H17.5759V58.3369H19.1813V56.7435Z" fill="#482C02"/>
    <path d="M19.2042 55.1265H17.553V56.7891H19.2042V55.1265Z" fill="#482C02"/>
    <path d="M19.1813 55.1495H17.5759V56.766H19.1813V55.1495Z" fill="#482C02"/>
    <path d="M17.598 58.3373H15.9468V60H17.598V58.3373Z" fill="#391709"/>
    <path d="M17.5751 58.3604H15.9927V59.9768H17.5751V58.3604Z" fill="#391709"/>
    <path d="M17.598 56.7202H15.9468V58.3829H17.598V56.7202Z" fill="#482C02"/>
    <path d="M17.5751 56.7435H15.9927V58.3369H17.5751V56.7435Z" fill="#482C02"/>
    <path d="M17.598 55.1265H15.9468V56.7891H17.598V55.1265Z" fill="#482C02"/>
    <path d="M17.5751 55.1495H15.9927V56.766H17.5751V55.1495Z" fill="#482C02"/>
    <path d="M17.598 53.5094H15.9468V55.1721H17.598V53.5094Z" fill="#482C02"/>
    <path d="M17.5751 53.5326H15.9927V55.1491H17.5751V53.5326Z" fill="#482C02"/>
    <path d="M17.5983 49.0421H15.947V50.7048H17.5983V49.0421Z" fill="#424343"/>
    <path d="M17.5983 47.4249H15.947V49.0876H17.5983V47.4249Z" fill="#424343"/>
    <path d="M17.5751 47.4481H15.9927V49.0415H17.5751V47.4481Z" fill="#424343"/>
    <path d="M17.5983 45.8312H15.947V47.4939H17.5983V45.8312Z" fill="#424343"/>
    <path d="M17.5751 45.8542H15.9927V47.4707H17.5751V45.8542Z" fill="#424343"/>
    <path d="M17.5983 44.2141H15.947V45.8768H17.5983V44.2141Z" fill="#424343"/>
    <path d="M17.5751 44.2372H15.9927V45.8537H17.5751V44.2372Z" fill="#424343"/>
    <path d="M17.5983 42.597H15.947V44.2597H17.5983V42.597Z" fill="#424343"/>
    <path d="M17.5751 42.6433H15.9927V44.2598H17.5751V42.6433Z" fill="#424343"/>
    <path d="M17.5983 41.0033H15.947V42.666H17.5983V41.0033Z" fill="#424343"/>
    <path d="M17.5751 41.026H15.9927V42.6194H17.5751V41.026Z" fill="#424343"/>
    <path d="M17.5983 39.386H15.947V41.0487H17.5983V39.386Z" fill="#424343"/>
    <path d="M17.5751 39.4325H15.9927V41.049H17.5751V39.4325Z" fill="#424343"/>
    <path d="M17.5983 37.7925H15.947V39.4552H17.5983V37.7925Z" fill="#424343"/>
    <path d="M17.5751 37.8152H15.9927V39.4317H17.5751V37.8152Z" fill="#424343"/>
    <path d="M17.5983 36.1754H15.947V37.8381H17.5983V36.1754Z" fill="#424343"/>
    <path d="M17.5751 36.1984H15.9927V37.7918H17.5751V36.1984Z" fill="#424343"/>
    <path d="M17.5983 34.5815H15.947V36.2442H17.5983V34.5815Z" fill="#424343"/>
    <path d="M17.5751 34.6046H15.9927V36.2211H17.5751V34.6046Z" fill="#424343"/>
    <path d="M17.5983 32.9645H15.947V34.6271H17.5983V32.9645Z" fill="#424343"/>
    <path d="M17.5751 32.9875H15.9927V34.604H17.5751V32.9875Z" fill="#424343"/>
    <path d="M17.5983 31.3705H15.947V33.0332H17.5983V31.3705Z" fill="#424343"/>
    <path d="M17.5751 31.3937H15.9927V33.0102H17.5751V31.3937Z" fill="#424343"/>
    <path d="M17.5983 29.7537H15.947V31.4163H17.5983V29.7537Z" fill="#424343"/>
    <path d="M17.5751 29.7765H15.9927V31.3699H17.5751V29.7765Z" fill="#424343"/>
    <path d="M17.5983 28.1597H15.947V29.8223H17.5983V28.1597Z" fill="#424343"/>
    <path d="M17.5751 28.1826H15.9927V29.7991H17.5751V28.1826Z" fill="#424343"/>
    <path d="M17.5983 26.5425H15.947V28.2052H17.5983V26.5425Z" fill="#424343"/>
    <path d="M17.5751 26.5656H15.9927V28.182H17.5751V26.5656Z" fill="#424343"/>
    <path d="M17.5983 24.9487H15.947V26.6114H17.5983V24.9487Z" fill="#262828"/>
    <path d="M17.5751 24.9718H15.9927V26.5883H17.5751V24.9718Z" fill="#262828"/>
    <path d="M17.5983 23.3317H15.947V24.9943H17.5983V23.3317Z" fill="#262828"/>
    <path d="M17.5751 23.3546H15.9927V24.948H17.5751V23.3546Z" fill="#262828"/>
    <path d="M17.5983 21.7146H15.947V23.3773H17.5983V21.7146Z" fill="#262828"/>
    <path d="M17.5751 21.7609H15.9927V23.3774H17.5751V21.7609Z" fill="#262828"/>
    <path d="M16.015 58.3373H14.3638V60H16.015V58.3373Z" fill="#391709"/>
    <path d="M15.9919 58.3604H14.3865V59.9768H15.9919V58.3604Z" fill="#391709"/>
    <path d="M16.015 56.7202H14.3638V58.3829H16.015V56.7202Z" fill="#482C02"/>
    <path d="M15.9919 56.7435H14.3865V58.3369H15.9919V56.7435Z" fill="#482C02"/>
    <path d="M16.015 55.1265H14.3638V56.7891H16.015V55.1265Z" fill="#482C02"/>
    <path d="M15.9919 55.1495H14.3865V56.766H15.9919V55.1495Z" fill="#482C02"/>
    <path d="M16.015 53.5094H14.3638V55.1721H16.015V53.5094Z" fill="#482C02"/>
    <path d="M15.9919 53.5326H14.3865V55.1491H15.9919V53.5326Z" fill="#482C02"/>
    <path d="M16.015 49.0421H14.3638V50.7048H16.015V49.0421Z" fill="#424343"/>
    <path d="M15.9919 49.0652H14.3865V50.6817H15.9919V49.0652Z" fill="#424343"/>
    <path d="M16.015 47.4249H14.3638V49.0876H16.015V47.4249Z" fill="#424343"/>
    <path d="M15.9919 47.4481H14.3865V49.0415H15.9919V47.4481Z" fill="#424343"/>
    <path d="M16.015 45.8312H14.3638V47.4939H16.015V45.8312Z" fill="#424343"/>
    <path d="M15.9919 45.8542H14.3865V47.4707H15.9919V45.8542Z" fill="#424343"/>
    <path d="M16.015 44.2141H14.3638V45.8768H16.015V44.2141Z" fill="#424343"/>
    <path d="M15.9919 44.2372H14.3865V45.8537H15.9919V44.2372Z" fill="#424343"/>
    <path d="M16.015 42.597H14.3638V44.2597H16.015V42.597Z" fill="#424343"/>
    <path d="M15.9919 42.6433H14.3865V44.2598H15.9919V42.6433Z" fill="#424343"/>
    <path d="M16.015 41.0033H14.3638V42.666H16.015V41.0033Z" fill="#424343"/>
    <path d="M15.9919 41.026H14.3865V42.6194H15.9919V41.026Z" fill="#424343"/>
    <path d="M16.015 39.386H14.3638V41.0487H16.015V39.386Z" fill="#424343"/>
    <path d="M15.9919 39.4325H14.3865V41.049H15.9919V39.4325Z" fill="#424343"/>
    <path d="M16.015 37.7925H14.3638V39.4552H16.015V37.7925Z" fill="#424343"/>
    <path d="M15.9919 37.8152H14.3865V39.4317H15.9919V37.8152Z" fill="#424343"/>
    <path d="M16.015 36.1754H14.3638V37.8381H16.015V36.1754Z" fill="#424343"/>
    <path d="M15.9919 36.1984H14.3865V37.7918H15.9919V36.1984Z" fill="#424343"/>
    <path d="M16.015 34.5815H14.3638V36.2442H16.015V34.5815Z" fill="#424343"/>
    <path d="M15.9919 34.6046H14.3865V36.2211H15.9919V34.6046Z" fill="#424343"/>
    <path d="M16.015 32.9645H14.3638V34.6271H16.015V32.9645Z" fill="#424343"/>
    <path d="M15.9919 32.9875H14.3865V34.604H15.9919V32.9875Z" fill="#424343"/>
    <path d="M16.015 31.3705H14.3638V33.0332H16.015V31.3705Z" fill="#424343"/>
    <path d="M15.9919 31.3937H14.3865V33.0102H15.9919V31.3937Z" fill="#424343"/>
    <path d="M16.015 29.7537H14.3638V31.4163H16.015V29.7537Z" fill="#424343"/>
    <path d="M15.9919 29.7765H14.3865V31.3699H15.9919V29.7765Z" fill="#424343"/>
    <path d="M16.015 28.1597H14.3638V29.8223H16.015V28.1597Z" fill="#424343"/>
    <path d="M15.9919 28.1826H14.3865V29.7991H15.9919V28.1826Z" fill="#424343"/>
    <path d="M16.015 26.5425H14.3638V28.2052H16.015V26.5425Z" fill="#424343"/>
    <path d="M15.9919 26.5656H14.3865V28.182H15.9919V26.5656Z" fill="#424343"/>
    <path d="M16.015 24.9487H14.3638V26.6114H16.015V24.9487Z" fill="#424343"/>
    <path d="M15.9919 24.9718H14.3865V26.5883H15.9919V24.9718Z" fill="#424343"/>
    <path d="M16.015 23.3317H14.3638V24.9943H16.015V23.3317Z" fill="#424343"/>
    <path d="M15.9919 23.3546H14.3865V24.948H15.9919V23.3546Z" fill="#424343"/>
    <path d="M16.015 21.7146H14.3638V23.3773H16.015V21.7146Z" fill="#262828"/>
    <path d="M15.9919 21.7609H14.3865V23.3774H15.9919V21.7609Z" fill="#262828"/>
    <path d="M14.4086 58.3373H12.7573V60H14.4086V58.3373Z" fill="#26031F"/>
    <path d="M14.3859 58.3604H12.7805V59.9768H14.3859V58.3604Z" fill="#26031F"/>
    <path d="M14.4086 56.7202H12.7573V58.3829H14.4086V56.7202Z" fill="#391709"/>
    <path d="M14.3859 56.7435H12.7805V58.3369H14.3859V56.7435Z" fill="#391709"/>
    <path d="M14.4086 55.1265H12.7573V56.7891H14.4086V55.1265Z" fill="#391709"/>
    <path d="M14.3859 55.1495H12.7805V56.766H14.3859V55.1495Z" fill="#391709"/>
    <path d="M14.4086 53.5094H12.7573V55.1721H14.4086V53.5094Z" fill="#391709"/>
    <path d="M14.3859 53.5326H12.7805V55.1491H14.3859V53.5326Z" fill="#391709"/>
    <path d="M14.4088 49.0421H12.7576V50.7048H14.4088V49.0421Z" fill="#262828"/>
    <path d="M14.3859 49.0652H12.7805V50.6817H14.3859V49.0652Z" fill="#262828"/>
    <path d="M14.4088 47.4249H12.7576V49.0876H14.4088V47.4249Z" fill="#262828"/>
    <path d="M14.3859 47.4481H12.7805V49.0415H14.3859V47.4481Z" fill="#262828"/>
    <path d="M14.4088 45.8312H12.7576V47.4939H14.4088V45.8312Z" fill="#262828"/>
    <path d="M14.3859 45.8542H12.7805V47.4707H14.3859V45.8542Z" fill="#262828"/>
    <path d="M14.4088 44.2141H12.7576V45.8768H14.4088V44.2141Z" fill="#262828"/>
    <path d="M14.3859 44.2372H12.7805V45.8537H14.3859V44.2372Z" fill="#262828"/>
    <path d="M14.4088 42.597H12.7576V44.2597H14.4088V42.597Z" fill="#262828"/>
    <path d="M14.3859 42.6433H12.7805V44.2598H14.3859V42.6433Z" fill="#262828"/>
    <path d="M14.4088 41.0033H12.7576V42.666H14.4088V41.0033Z" fill="#262828"/>
    <path d="M14.3859 41.026H12.7805V42.6194H14.3859V41.026Z" fill="#262828"/>
    <path d="M14.4088 39.386H12.7576V41.0487H14.4088V39.386Z" fill="#262828"/>
    <path d="M14.3859 39.4325H12.7805V41.049H14.3859V39.4325Z" fill="#262828"/>
    <path d="M14.4088 37.7925H12.7576V39.4552H14.4088V37.7925Z" fill="#262828"/>
    <path d="M14.3859 37.8152H12.7805V39.4317H14.3859V37.8152Z" fill="#262828"/>
    <path d="M14.4088 36.1754H12.7576V37.8381H14.4088V36.1754Z" fill="#262828"/>
    <path d="M14.3859 36.1984H12.7805V37.7918H14.3859V36.1984Z" fill="#262828"/>
    <path d="M14.4088 34.5815H12.7576V36.2442H14.4088V34.5815Z" fill="#262828"/>
    <path d="M14.3859 34.6046H12.7805V36.2211H14.3859V34.6046Z" fill="#262828"/>
    <path d="M14.4088 32.9645H12.7576V34.6271H14.4088V32.9645Z" fill="#262828"/>
    <path d="M14.3859 32.9875H12.7805V34.604H14.3859V32.9875Z" fill="#262828"/>
    <path d="M14.4088 31.3705H12.7576V33.0332H14.4088V31.3705Z" fill="#262828"/>
    <path d="M14.3859 31.3937H12.7805V33.0102H14.3859V31.3937Z" fill="#262828"/>
    <path d="M14.4088 29.7537H12.7576V31.4163H14.4088V29.7537Z" fill="#262828"/>
    <path d="M14.3859 29.7765H12.7805V31.3699H14.3859V29.7765Z" fill="#262828"/>
    <path d="M14.4088 28.1597H12.7576V29.8223H14.4088V28.1597Z" fill="#262828"/>
    <path d="M14.3859 28.1826H12.7805V29.7991H14.3859V28.1826Z" fill="#262828"/>
    <path d="M14.4088 26.5425H12.7576V28.2052H14.4088V26.5425Z" fill="#424343"/>
    <path d="M14.3859 26.5656H12.7805V28.182H14.3859V26.5656Z" fill="#424343"/>
    <path d="M14.4088 24.9487H12.7576V26.6114H14.4088V24.9487Z" fill="#424343"/>
    <path d="M14.3859 24.9718H12.7805V26.5883H14.3859V24.9718Z" fill="#424343"/>
    <path d="M14.4088 23.3317H12.7576V24.9943H14.4088V23.3317Z" fill="#424343"/>
    <path d="M14.3859 23.3546H12.7805V24.948H14.3859V23.3546Z" fill="#424343"/>
    <path d="M14.4088 21.7146H12.7576V23.3773H14.4088V21.7146Z" fill="#391709"/>
    <path d="M14.3859 21.7609H12.7805V23.3774H14.3859V21.7609Z" fill="#262828"/>
    <path d="M12.8258 26.5425H11.1746V28.2052H12.8258V26.5425Z" fill="#424343"/>
    <path d="M12.8258 24.9487H11.1746V26.6114H12.8258V24.9487Z" fill="#424343"/>
    <path d="M12.8258 23.3317H11.1746V24.9943H12.8258V23.3317Z" fill="#424343"/>
    <path d="M12.8258 21.7146H11.1746V23.3773H12.8258V21.7146Z" fill="#391709"/>
    <path d="M12.8026 21.7609H11.1973V23.3774H12.8026V21.7609Z" fill="#262828"/>
    <path d="M11.2191 58.3373H9.56787V60H11.2191V58.3373Z" fill="#26031F"/>
    <path d="M11.1735 58.3604H9.59106V59.9768H11.1735V58.3604Z" fill="#26031F"/>
    <path d="M11.2191 56.7202H9.56787V58.3829H11.2191V56.7202Z" fill="#391709"/>
    <path d="M11.1735 56.7435H9.59106V58.3369H11.1735V56.7435Z" fill="#391709"/>
    <path d="M11.2191 55.1265H9.56787V56.7891H11.2191V55.1265Z" fill="#391709"/>
    <path d="M11.1735 55.1495H9.59106V56.766H11.1735V55.1495Z" fill="#391709"/>
    <path d="M11.2191 53.5094H9.56787V55.1721H11.2191V53.5094Z" fill="#391709"/>
    <path d="M11.1735 53.5326H9.59106V55.1491H11.1735V53.5326Z" fill="#391709"/>
    <path d="M11.2194 49.0421H9.56812V50.7048H11.2194V49.0421Z" fill="#262828"/>
    <path d="M11.1738 49.0652H9.59131V50.6817H11.1738V49.0652Z" fill="#262828"/>
    <path d="M11.2194 47.4249H9.56812V49.0876H11.2194V47.4249Z" fill="#262828"/>
    <path d="M11.1738 47.4481H9.59131V49.0415H11.1738V47.4481Z" fill="#262828"/>
    <path d="M11.2194 45.8312H9.56812V47.4939H11.2194V45.8312Z" fill="#262828"/>
    <path d="M11.1738 45.8542H9.59131V47.4707H11.1738V45.8542Z" fill="#262828"/>
    <path d="M11.2194 44.2141H9.56812V45.8768H11.2194V44.2141Z" fill="#262828"/>
    <path d="M11.1738 44.2372H9.59131V45.8537H11.1738V44.2372Z" fill="#262828"/>
    <path d="M11.2194 42.597H9.56812V44.2597H11.2194V42.597Z" fill="#262828"/>
    <path d="M11.1738 42.6433H9.59131V44.2598H11.1738V42.6433Z" fill="#262828"/>
    <path d="M11.2194 41.0033H9.56812V42.666H11.2194V41.0033Z" fill="#262828"/>
    <path d="M11.1738 41.026H9.59131V42.6194H11.1738V41.026Z" fill="#262828"/>
    <path d="M11.2194 39.386H9.56812V41.0487H11.2194V39.386Z" fill="#262828"/>
    <path d="M11.1738 39.4325H9.59131V41.049H11.1738V39.4325Z" fill="#262828"/>
    <path d="M11.2194 37.7925H9.56812V39.4552H11.2194V37.7925Z" fill="#262828"/>
    <path d="M11.1738 37.8152H9.59131V39.4317H11.1738V37.8152Z" fill="#262828"/>
    <path d="M11.2194 36.1754H9.56812V37.8381H11.2194V36.1754Z" fill="#262828"/>
    <path d="M11.1738 36.1984H9.59131V37.7918H11.1738V36.1984Z" fill="#262828"/>
    <path d="M11.2194 34.5815H9.56812V36.2442H11.2194V34.5815Z" fill="#262828"/>
    <path d="M11.1738 34.6046H9.59131V36.2211H11.1738V34.6046Z" fill="#262828"/>
    <path d="M11.2194 32.9645H9.56812V34.6271H11.2194V32.9645Z" fill="#262828"/>
    <path d="M11.1738 32.9875H9.59131V34.604H11.1738V32.9875Z" fill="#262828"/>
    <path d="M11.2194 31.3705H9.56812V33.0332H11.2194V31.3705Z" fill="#262828"/>
    <path d="M11.1738 31.3937H9.59131V33.0102H11.1738V31.3937Z" fill="#262828"/>
    <path d="M11.2194 29.7537H9.56812V31.4163H11.2194V29.7537Z" fill="#262828"/>
    <path d="M11.1738 29.7765H9.59131V31.3699H11.1738V29.7765Z" fill="#262828"/>
    <path d="M11.2194 28.1597H9.56812V29.8223H11.2194V28.1597Z" fill="#262828"/>
    <path d="M11.1738 28.1826H9.59131V29.7991H11.1738V28.1826Z" fill="#262828"/>
    <path d="M11.2194 26.5425H9.56812V28.2052H11.2194V26.5425Z" fill="#424343"/>
    <path d="M11.1738 26.5656H9.59131V28.182H11.1738V26.5656Z" fill="#424343"/>
    <path d="M11.2194 24.9487H9.56812V26.6114H11.2194V24.9487Z" fill="#424343"/>
    <path d="M11.1738 24.9718H9.59131V26.5883H11.1738V24.9718Z" fill="#424343"/>
    <path d="M11.2194 23.3317H9.56812V24.9943H11.2194V23.3317Z" fill="#424343"/>
    <path d="M11.1738 23.3546H9.59131V24.948H11.1738V23.3546Z" fill="#424343"/>
    <path d="M11.2194 21.7146H9.56812V23.3773H11.2194V21.7146Z" fill="#391709"/>
    <path d="M11.1738 21.7609H9.59131V23.3774H11.1738V21.7609Z" fill="#262828"/>
    <path d="M9.63636 58.3373H7.98511V60H9.63636V58.3373Z" fill="#391709"/>
    <path d="M9.6132 58.3604H8.00781V59.9768H9.6132V58.3604Z" fill="#391709"/>
    <path d="M9.63636 56.7202H7.98511V58.3829H9.63636V56.7202Z" fill="#482C02"/>
    <path d="M9.6132 56.7435H8.00781V58.3369H9.6132V56.7435Z" fill="#482C02"/>
    <path d="M9.63636 55.1265H7.98511V56.7891H9.63636V55.1265Z" fill="#482C02"/>
    <path d="M9.6132 55.1495H8.00781V56.766H9.6132V55.1495Z" fill="#482C02"/>
    <path d="M9.63636 53.5094H7.98511V55.1721H9.63636V53.5094Z" fill="#482C02"/>
    <path d="M9.6132 53.5326H8.00781V55.1491H9.6132V53.5326Z" fill="#482C02"/>
    <path d="M9.63636 49.0421H7.98511V50.7048H9.63636V49.0421Z" fill="#424343"/>
    <path d="M9.6132 49.0652H8.00781V50.6817H9.6132V49.0652Z" fill="#424343"/>
    <path d="M9.63636 47.4249H7.98511V49.0876H9.63636V47.4249Z" fill="#424343"/>
    <path d="M9.6132 47.4481H8.00781V49.0415H9.6132V47.4481Z" fill="#424343"/>
    <path d="M9.63636 45.8312H7.98511V47.4939H9.63636V45.8312Z" fill="#424343"/>
    <path d="M9.6132 45.8542H8.00781V47.4707H9.6132V45.8542Z" fill="#424343"/>
    <path d="M9.63636 44.2141H7.98511V45.8768H9.63636V44.2141Z" fill="#424343"/>
    <path d="M9.6132 44.2372H8.00781V45.8537H9.6132V44.2372Z" fill="#424343"/>
    <path d="M9.63636 42.597H7.98511V44.2597H9.63636V42.597Z" fill="#424343"/>
    <path d="M9.6132 42.6433H8.00781V44.2598H9.6132V42.6433Z" fill="#424343"/>
    <path d="M9.63636 41.0033H7.98511V42.666H9.63636V41.0033Z" fill="#424343"/>
    <path d="M9.6132 41.026H8.00781V42.6194H9.6132V41.026Z" fill="#424343"/>
    <path d="M9.63636 39.386H7.98511V41.0487H9.63636V39.386Z" fill="#424343"/>
    <path d="M9.6132 39.4325H8.00781V41.049H9.6132V39.4325Z" fill="#424343"/>
    <path d="M9.63636 37.7925H7.98511V39.4552H9.63636V37.7925Z" fill="#424343"/>
    <path d="M9.6132 37.8152H8.00781V39.4317H9.6132V37.8152Z" fill="#424343"/>
    <path d="M9.63636 36.1754H7.98511V37.8381H9.63636V36.1754Z" fill="#424343"/>
    <path d="M9.6132 36.1984H8.00781V37.7918H9.6132V36.1984Z" fill="#424343"/>
    <path d="M9.63636 34.5815H7.98511V36.2442H9.63636V34.5815Z" fill="#424343"/>
    <path d="M9.6132 34.6046H8.00781V36.2211H9.6132V34.6046Z" fill="#424343"/>
    <path d="M9.63636 32.9645H7.98511V34.6271H9.63636V32.9645Z" fill="#424343"/>
    <path d="M9.6132 32.9875H8.00781V34.604H9.6132V32.9875Z" fill="#424343"/>
    <path d="M9.63636 31.3705H7.98511V33.0332H9.63636V31.3705Z" fill="#424343"/>
    <path d="M9.6132 31.3937H8.00781V33.0102H9.6132V31.3937Z" fill="#424343"/>
    <path d="M9.63636 29.7537H7.98511V31.4163H9.63636V29.7537Z" fill="#424343"/>
    <path d="M9.6132 29.7765H8.00781V31.3699H9.6132V29.7765Z" fill="#424343"/>
    <path d="M9.63636 28.1597H7.98511V29.8223H9.63636V28.1597Z" fill="#424343"/>
    <path d="M9.6132 28.1826H8.00781V29.7991H9.6132V28.1826Z" fill="#424343"/>
    <path d="M9.63636 26.5425H7.98511V28.2052H9.63636V26.5425Z" fill="#424343"/>
    <path d="M9.6132 26.5656H8.00781V28.182H9.6132V26.5656Z" fill="#424343"/>
    <path d="M9.63636 24.9487H7.98511V26.6114H9.63636V24.9487Z" fill="#424343"/>
    <path d="M9.6132 24.9718H8.00781V26.5883H9.6132V24.9718Z" fill="#424343"/>
    <path d="M9.63636 23.3317H7.98511V24.9943H9.63636V23.3317Z" fill="#424343"/>
    <path d="M9.6132 23.3546H8.00781V24.948H9.6132V23.3546Z" fill="#424343"/>
    <path d="M9.63636 21.7146H7.98511V23.3773H9.63636V21.7146Z" fill="#262828"/>
    <path d="M9.6132 21.7609H8.00781V23.3774H9.6132V21.7609Z" fill="#262828"/>
    <path d="M8.02991 58.3373H6.37866V60H8.02991V58.3373Z" fill="#391709"/>
    <path d="M8.00675 58.3604H6.40137V59.9768H8.00675V58.3604Z" fill="#391709"/>
    <path d="M8.02991 56.7202H6.37866V58.3829H8.02991V56.7202Z" fill="#482C02"/>
    <path d="M8.00675 56.7435H6.40137V58.3369H8.00675V56.7435Z" fill="#482C02"/>
    <path d="M8.02991 55.1265H6.37866V56.7891H8.02991V55.1265Z" fill="#482C02"/>
    <path d="M8.00675 55.1495H6.40137V56.766H8.00675V55.1495Z" fill="#482C02"/>
    <path d="M8.02991 53.5094H6.37866V55.1721H8.02991V53.5094Z" fill="#482C02"/>
    <path d="M8.00675 53.5326H6.40137V55.1491H8.00675V53.5326Z" fill="#482C02"/>
    <path d="M8.03016 49.0421H6.37891V50.7048H8.03016V49.0421Z" fill="#424343"/>
    <path d="M8.03016 47.4249H6.37891V49.0876H8.03016V47.4249Z" fill="#424343"/>
    <path d="M8.007 47.4481H6.40161V49.0415H8.007V47.4481Z" fill="#424343"/>
    <path d="M8.03016 45.8312H6.37891V47.4939H8.03016V45.8312Z" fill="#424343"/>
    <path d="M8.007 45.8542H6.40161V47.4707H8.007V45.8542Z" fill="#424343"/>
    <path d="M8.03016 44.2141H6.37891V45.8768H8.03016V44.2141Z" fill="#424343"/>
    <path d="M8.007 44.2372H6.40161V45.8537H8.007V44.2372Z" fill="#424343"/>
    <path d="M8.03016 42.597H6.37891V44.2597H8.03016V42.597Z" fill="#424343"/>
    <path d="M8.007 42.6433H6.40161V44.2598H8.007V42.6433Z" fill="#424343"/>
    <path d="M8.03016 41.0033H6.37891V42.666H8.03016V41.0033Z" fill="#424343"/>
    <path d="M8.007 41.026H6.40161V42.6194H8.007V41.026Z" fill="#424343"/>
    <path d="M8.03016 39.386H6.37891V41.0487H8.03016V39.386Z" fill="#424343"/>
    <path d="M8.007 39.4325H6.40161V41.049H8.007V39.4325Z" fill="#424343"/>
    <path d="M8.03016 37.7925H6.37891V39.4552H8.03016V37.7925Z" fill="#424343"/>
    <path d="M8.007 37.8152H6.40161V39.4317H8.007V37.8152Z" fill="#424343"/>
    <path d="M8.03016 36.1754H6.37891V37.8381H8.03016V36.1754Z" fill="#424343"/>
    <path d="M8.007 36.1984H6.40161V37.7918H8.007V36.1984Z" fill="#424343"/>
    <path d="M8.03016 34.5815H6.37891V36.2442H8.03016V34.5815Z" fill="#424343"/>
    <path d="M8.007 34.6046H6.40161V36.2211H8.007V34.6046Z" fill="#424343"/>
    <path d="M8.03016 32.9645H6.37891V34.6271H8.03016V32.9645Z" fill="#424343"/>
    <path d="M8.007 32.9875H6.40161V34.604H8.007V32.9875Z" fill="#424343"/>
    <path d="M8.03016 31.3705H6.37891V33.0332H8.03016V31.3705Z" fill="#424343"/>
    <path d="M8.007 31.3937H6.40161V33.0102H8.007V31.3937Z" fill="#424343"/>
    <path d="M8.03016 29.7537H6.37891V31.4163H8.03016V29.7537Z" fill="#424343"/>
    <path d="M8.007 29.7765H6.40161V31.3699H8.007V29.7765Z" fill="#424343"/>
    <path d="M8.03016 28.1597H6.37891V29.8223H8.03016V28.1597Z" fill="#424343"/>
    <path d="M8.007 28.1826H6.40161V29.7991H8.007V28.1826Z" fill="#424343"/>
    <path d="M8.03016 26.5425H6.37891V28.2052H8.03016V26.5425Z" fill="#424343"/>
    <path d="M8.007 26.5656H6.40161V28.182H8.007V26.5656Z" fill="#424343"/>
    <path d="M8.03016 24.9487H6.37891V26.6114H8.03016V24.9487Z" fill="#262828"/>
    <path d="M8.007 24.9718H6.40161V26.5883H8.007V24.9718Z" fill="#262828"/>
    <path d="M8.03016 23.3317H6.37891V24.9943H8.03016V23.3317Z" fill="#262828"/>
    <path d="M8.007 23.3546H6.40161V24.948H8.007V23.3546Z" fill="#262828"/>
    <path d="M8.03016 21.7146H6.37891V23.3773H8.03016V21.7146Z" fill="#262828"/>
    <path d="M8.007 21.7609H6.40161V23.3774H8.007V21.7609Z" fill="#262828"/>
    <path d="M6.44691 58.3373H4.79565V60H6.44691V58.3373Z" fill="#391709"/>
    <path d="M6.42374 58.3604H4.81836V59.9768H6.42374V58.3604Z" fill="#391709"/>
    <path d="M6.44691 56.7202H4.79565V58.3829H6.44691V56.7202Z" fill="#482C02"/>
    <path d="M6.44691 55.1265H4.79565V56.7891H6.44691V55.1265Z" fill="#482C02"/>
    <path d="M6.42374 55.1495H4.81836V56.766H6.42374V55.1495Z" fill="#482C02"/>
    <path d="M4.84071 58.3373H3.18945V60H4.84071V58.3373Z" fill="#391709"/>
    <path d="M4.79485 58.3604H3.2124V59.9768H4.79485V58.3604Z" fill="#391709"/>
    <path d="M4.84071 56.7202H3.18945V58.3829H4.84071V56.7202Z" fill="#482C02"/>
    <path d="M4.79485 56.7435H3.2124V58.3369H4.79485V56.7435Z" fill="#482C02"/>
    <path d="M4.84071 55.1265H3.18945V56.7891H4.84071V55.1265Z" fill="#482C02"/>
    <path d="M3.25745 58.3373H1.6062V60H3.25745V58.3373Z" fill="#391709"/>
    <path d="M3.23429 58.3604H1.62891V59.9768H3.23429V58.3604Z" fill="#391709"/>
    <path d="M3.25745 56.7202H1.6062V58.3829H3.25745V56.7202Z" fill="#482C02"/>
    <path d="M3.23429 56.7435H1.62891V58.3369H3.23429V56.7435Z" fill="#482C02"/>
    <path d="M3.25745 14.9554H1.6062V16.6181H3.25745V14.9554Z" fill="#C5C5C5"/>
    <path d="M1.65125 14.9554H0V16.6181H1.65125V14.9554Z" fill="white"/>
    <path d="M23.9996 17.6716H22.3484V19.3343H23.9996V17.6716Z" fill="#FFE4CE"/>
    <path d="M23.9538 17.6947H22.3713V19.3112H23.9538V17.6947Z" fill="#FFE4CE"/>
    <path d="M23.9996 16.0546H22.3484V17.7172H23.9996V16.0546Z" fill="#FFE4CE"/>
    <path d="M23.9538 16.0776H22.3713V17.6941H23.9538V16.0776Z" fill="#FFE4CE"/>
    <path d="M23.9996 14.4606H22.3484V16.1232H23.9996V14.4606Z" fill="#FFE4CE"/>
    <path d="M23.9538 14.4838H22.3713V16.0772H23.9538V14.4838Z" fill="#FFE4CE"/>
    <path d="M23.9996 12.8438H22.3484V14.5064H23.9996V12.8438Z" fill="#FFE4CE"/>
    <path d="M23.9538 12.8667H22.3713V14.4832H23.9538V12.8667Z" fill="#FFE4CE"/>
    <path d="M23.9996 11.2498H22.3484V12.9124H23.9996V11.2498Z" fill="#FFE4CE"/>
    <path d="M23.9538 11.2729H22.3713V12.8894H23.9538V11.2729Z" fill="#FFE4CE"/>
    <path d="M23.9996 9.63281H22.3484V11.2955H23.9996V9.63281Z" fill="white"/>
    <path d="M24 9.65588H22.3713V22.5458H24V9.65588Z" fill="white"/>
    <path d="M23.9996 8.0387H22.3484V9.70137H23.9996V8.0387Z" fill="white"/>
    <path d="M23.9538 8.06189H22.3713V9.65528H23.9538V8.06189Z" fill="white"/>
    <path d="M23.9996 6.42175H22.3484V8.08442H23.9996V6.42175Z" fill="white"/>
    <path d="M23.9538 6.44507H22.3713V8.06156H23.9538V6.44507Z" fill="white"/>
    <path d="M23.9996 4.82788H22.3484V6.49055H23.9996V4.82788Z" fill="white"/>
    <path d="M23.9538 4.85107H22.3713V6.46756H23.9538V4.85107Z" fill="white"/>
    <path d="M22.3934 17.6716H20.7422V19.3343H22.3934V17.6716Z" fill="#F57E77"/>
    <path d="M22.3705 17.6947H20.7651V19.3112H22.3705V17.6947Z" fill="#F57E77"/>
    <path d="M22.3934 16.0546H20.7422V17.7172H22.3934V16.0546Z" fill="#F57E77"/>
    <path d="M22.3705 16.0776H20.7651V17.6941H22.3705V16.0776Z" fill="#F57E77"/>
    <path d="M22.3934 14.4606H20.7422V16.1232H22.3934V14.4606Z" fill="#F57E77"/>
    <path d="M22.3705 14.4838H20.7651V16.0772H22.3705V14.4838Z" fill="#F57E77"/>
    <path d="M22.3934 12.8438H20.7422V14.5064H22.3934V12.8438Z" fill="#F57E77"/>
    <path d="M22.3705 12.8667H20.7651V14.4832H22.3705V12.8667Z" fill="#F57E77"/>
    <path d="M22.3934 11.2498H20.7422V12.9124H22.3934V11.2498Z" fill="#F57E77"/>
    <path d="M22.3705 11.2729H20.7651V12.8894H22.3705V11.2729Z" fill="#F57E77"/>
    <path d="M22.3934 9.63281H20.7422V11.2955H22.3934V9.63281Z" fill="white"/>
    <path d="M22.3934 8.0387H20.7422V9.70137H22.3934V8.0387Z" fill="white"/>
    <path d="M22.3705 8.06189H20.7651V9.65528H22.3705V8.06189Z" fill="#C5C5C5"/>
    <path d="M22.3934 6.42175H20.7422V8.08442H22.3934V6.42175Z" fill="white"/>
    <path d="M22.3705 6.44507H20.7651V8.06156H22.3705V6.44507Z" fill="white"/>
    <path d="M22.3934 4.82788H20.7422V6.49055H22.3934V4.82788Z" fill="white"/>
    <path d="M22.3705 4.85107H20.7651V6.46756H22.3705V4.85107Z" fill="white"/>
    <path d="M22.3934 3.21082H20.7422V4.87349H22.3934V3.21082Z" fill="white"/>
    <path d="M22.3705 3.23389H20.7651V4.85037H22.3705V3.23389Z" fill="white"/>
    <path d="M22.3934 1.61707H20.7422V3.27974H22.3934V1.61707Z" fill="white"/>
    <path d="M22.3705 1.64001H20.7651V3.23341H22.3705V1.64001Z" fill="white"/>
    <path d="M20.8104 6.42175H19.1592V8.08442H20.8104V6.42175Z" fill="#C5C5C5"/>
    <path d="M20.7875 6.44507H19.1821V8.06156H20.7875V6.44507Z" fill="#C5C5C5"/>
    <path d="M20.8104 4.82788H19.1592V6.49055H20.8104V4.82788Z" fill="white"/>
    <path d="M20.7875 4.85107H19.1821V6.46756H20.7875V4.85107Z" fill="white"/>
    <path d="M20.8104 3.21082H19.1592V4.87349H20.8104V3.21082Z" fill="white"/>
    <path d="M20.7875 3.23389H19.1821V4.85037H20.7875V3.23389Z" fill="white"/>
    <path d="M20.8104 1.61707H19.1592V3.27974H20.8104V1.61707Z" fill="white"/>
    <path d="M20.7875 1.64001H19.1821V3.23341H20.7875V1.64001Z" fill="white"/>
    <path d="M19.2042 4.82788H17.553V6.49055H19.2042V4.82788Z" fill="#C5C5C5"/>
    <path d="M19.1813 4.85107H17.5759V6.46756H19.1813V4.85107Z" fill="#C5C5C5"/>
    <path d="M19.2042 3.21082H17.553V4.87349H19.2042V3.21082Z" fill="white"/>
    <path d="M19.1813 3.23389H17.5759V4.85037H19.1813V3.23389Z" fill="white"/>
    <path d="M19.2042 1.61707H17.553V3.27974H19.2042V1.61707Z" fill="white"/>
    <path d="M19.1813 1.64001H17.5759V3.23341H19.1813V1.64001Z" fill="white"/>
    <path d="M19.2042 0H17.553V1.66267H19.2042V0Z" fill="white"/>
    <path d="M19.1813 0.0229492H17.5759V1.63944H19.1813V0.0229492Z" fill="white"/>
    <path d="M17.598 17.6716H15.9468V19.3343H17.598V17.6716Z" fill="#C5C5C5"/>
    <path d="M17.5751 17.6947H15.9927V19.3112H17.5751V17.6947Z" fill="#C5C5C5"/>
    <path d="M17.598 16.0546H15.9468V17.7172H17.598V16.0546Z" fill="#C5C5C5"/>
    <path d="M17.5751 16.0776H15.9927V17.6941H17.5751V16.0776Z" fill="#C5C5C5"/>
    <path d="M17.598 14.4606H15.9468V16.1232H17.598V14.4606Z" fill="#C5C5C5"/>
    <path d="M17.5751 14.4838H15.9927V16.0772H17.5751V14.4838Z" fill="#C5C5C5"/>
    <path d="M17.598 12.8438H15.9468V14.5064H17.598V12.8438Z" fill="#C5C5C5"/>
    <path d="M17.5751 12.8667H15.9927V14.4832H17.5751V12.8667Z" fill="#C5C5C5"/>
    <path d="M17.598 11.2498H15.9468V12.9124H17.598V11.2498Z" fill="#C5C5C5"/>
    <path d="M17.5751 11.2729H15.9927V12.8894H17.5751V11.2729Z" fill="#C5C5C5"/>
    <path d="M17.598 9.63281H15.9468V11.2955H17.598V9.63281Z" fill="#C5C5C5"/>
    <path d="M17.5751 9.65588H15.9927V11.2724H17.5751V9.65588Z" fill="#C5C5C5"/>
    <path d="M17.598 8.0387H15.9468V9.70137H17.598V8.0387Z" fill="#C5C5C5"/>
    <path d="M17.5751 8.06189H15.9927V9.65528H17.5751V8.06189Z" fill="#C5C5C5"/>
    <path d="M17.598 6.42175H15.9468V8.08442H17.598V6.42175Z" fill="#C5C5C5"/>
    <path d="M17.5751 6.44507H15.9927V8.06156H17.5751V6.44507Z" fill="#C5C5C5"/>
    <path d="M17.598 4.82788H15.9468V6.49055H17.598V4.82788Z" fill="#C5C5C5"/>
    <path d="M17.5751 4.85107H15.9927V6.46756H17.5751V4.85107Z" fill="#C5C5C5"/>
    <path d="M17.598 3.21082H15.9468V4.87349H17.598V3.21082Z" fill="white"/>
    <path d="M17.5751 3.23389H15.9927V4.85037H17.5751V3.23389Z" fill="white"/>
    <path d="M17.598 1.61707H15.9468V3.27974H17.598V1.61707Z" fill="white"/>
    <path d="M17.5751 1.64001H15.9927V3.23341H17.5751V1.64001Z" fill="white"/>
    <path d="M17.598 0H15.9468V1.66267H17.598V0Z" fill="white"/>
    <path d="M17.5751 0.0229492H15.9927V1.63944H17.5751V0.0229492Z" fill="white"/>
    <path d="M16.0148 17.6716H14.3635V19.3343H16.0148V17.6716Z" fill="white"/>
    <path d="M16.0148 16.0546H14.3635V17.7172H16.0148V16.0546Z" fill="white"/>
    <path d="M15.9916 16.0776H14.3862V17.6941H15.9916V16.0776Z" fill="white"/>
    <path d="M16.0148 14.4606H14.3635V16.1232H16.0148V14.4606Z" fill="white"/>
    <path d="M15.9916 14.4838H14.3862V16.0772H15.9916V14.4838Z" fill="white"/>
    <path d="M16.0148 12.8438H14.3635V14.5064H16.0148V12.8438Z" fill="white"/>
    <path d="M15.9916 12.8667H14.3862V14.4832H15.9916V12.8667Z" fill="white"/>
    <path d="M16.0148 11.2498H14.3635V12.9124H16.0148V11.2498Z" fill="white"/>
    <path d="M15.9916 11.2729H14.3862V12.8894H15.9916V11.2729Z" fill="white"/>
    <path d="M16.0148 9.63281H14.3635V11.2955H16.0148V9.63281Z" fill="white"/>
    <path d="M15.9916 9.65588H14.3862V11.2724H15.9916V9.65588Z" fill="white"/>
    <path d="M16.0148 8.0387H14.3635V9.70137H16.0148V8.0387Z" fill="white"/>
    <path d="M15.9916 8.06189H14.3862V9.65528H15.9916V8.06189Z" fill="white"/>
    <path d="M16.0148 6.42175H14.3635V8.08442H16.0148V6.42175Z" fill="white"/>
    <path d="M15.9916 6.44507H14.3862V8.06156H15.9916V6.44507Z" fill="white"/>
    <path d="M16.0148 4.82788H14.3635V6.49055H16.0148V4.82788Z" fill="white"/>
    <path d="M15.9916 4.85107H14.3862V6.46756H15.9916V4.85107Z" fill="white"/>
    <path d="M16.0148 3.21082H14.3635V4.87349H16.0148V3.21082Z" fill="white"/>
    <path d="M15.9916 3.23389H14.3862V4.85037H15.9916V3.23389Z" fill="white"/>
    <path d="M16.0148 1.61707H14.3635V3.27974H16.0148V1.61707Z" fill="white"/>
    <path d="M15.9916 1.64001H14.3862V3.23341H15.9916V1.64001Z" fill="white"/>
    <path d="M16.0148 0H14.3635V1.66267H16.0148V0Z" fill="#F57E77"/>
    <path d="M15.9916 0.0229492H14.3862V1.63944H15.9916V0.0229492Z" fill="white"/>
    <path d="M14.4086 17.6716H12.7573V19.3343H14.4086V17.6716Z" fill="white"/>
    <path d="M14.3859 17.6947H12.7805V19.3112H14.3859V17.6947Z" fill="white"/>
    <path d="M14.4086 16.0546H12.7573V17.7172H14.4086V16.0546Z" fill="white"/>
    <path d="M14.3859 16.0776H12.7805V17.6941H14.3859V16.0776Z" fill="white"/>
    <path d="M14.4086 14.4606H12.7573V16.1232H14.4086V14.4606Z" fill="white"/>
    <path d="M14.3859 14.4838H12.7805V16.0772H14.3859V14.4838Z" fill="white"/>
    <path d="M14.4086 12.8438H12.7573V14.5064H14.4086V12.8438Z" fill="white"/>
    <path d="M14.3859 12.8667H12.7805V14.4832H14.3859V12.8667Z" fill="white"/>
    <path d="M14.4086 11.2498H12.7573V12.9124H14.4086V11.2498Z" fill="white"/>
    <path d="M14.3859 11.2729H12.7805V12.8894H14.3859V11.2729Z" fill="white"/>
    <path d="M14.4086 9.63281H12.7573V11.2955H14.4086V9.63281Z" fill="white"/>
    <path d="M14.3859 9.65588H12.7805V11.2724H14.3859V9.65588Z" fill="white"/>
    <path d="M14.4086 8.0387H12.7573V9.70137H14.4086V8.0387Z" fill="white"/>
    <path d="M14.3859 8.06189H12.7805V9.65528H14.3859V8.06189Z" fill="white"/>
    <path d="M14.4086 6.42175H12.7573V8.08442H14.4086V6.42175Z" fill="white"/>
    <path d="M14.3859 6.44507H12.7805V8.06156H14.3859V6.44507Z" fill="white"/>
    <path d="M14.4086 4.82788H12.7573V6.49055H14.4086V4.82788Z" fill="white"/>
    <path d="M14.3859 4.85107H12.7805V6.46756H14.3859V4.85107Z" fill="white"/>
    <path d="M14.4086 3.21082H12.7573V4.87349H14.4086V3.21082Z" fill="white"/>
    <path d="M14.3859 3.23389H12.7805V4.85037H14.3859V3.23389Z" fill="white"/>
    <path d="M14.4086 1.61707H12.7573V3.27974H14.4086V1.61707Z" fill="white"/>
    <path d="M14.3859 1.64001H12.7805V3.23341H14.3859V1.64001Z" fill="white"/>
    <path d="M14.4086 0H12.7573V1.66267H14.4086V0Z" fill="#F57E77"/>
    <path d="M14.3859 0.0229492H12.7805V1.63944H14.3859V0.0229492Z" fill="#F57E77"/>
    <path d="M12.8256 17.6716H11.1743V19.3343H12.8256V17.6716Z" fill="white"/>
    <path d="M12.8026 17.6947H11.1973V19.3112H12.8026V17.6947Z" fill="white"/>
    <path d="M12.8256 16.0546H11.1743V17.7172H12.8256V16.0546Z" fill="white"/>
    <path d="M12.8026 16.0776H11.1973V17.6941H12.8026V16.0776Z" fill="white"/>
    <path d="M12.8256 14.4606H11.1743V16.1232H12.8256V14.4606Z" fill="white"/>
    <path d="M12.8026 14.4838H11.1973V16.0772H12.8026V14.4838Z" fill="white"/>
    <path d="M12.8256 12.8438H11.1743V14.5064H12.8256V12.8438Z" fill="white"/>
    <path d="M12.8026 12.8667H11.1973V14.4832H12.8026V12.8667Z" fill="white"/>
    <path d="M12.8256 11.2498H11.1743V12.9124H12.8256V11.2498Z" fill="white"/>
    <path d="M12.8026 11.2729H11.1973V12.8894H12.8026V11.2729Z" fill="white"/>
    <path d="M12.8256 9.63281H11.1743V11.2955H12.8256V9.63281Z" fill="white"/>
    <path d="M12.8026 9.65588H11.1973V11.2724H12.8026V9.65588Z" fill="white"/>
    <path d="M12.8256 8.0387H11.1743V9.70137H12.8256V8.0387Z" fill="white"/>
    <path d="M12.8026 8.06189H11.1973V9.65528H12.8026V8.06189Z" fill="white"/>
    <path d="M12.8256 6.42175H11.1743V8.08442H12.8256V6.42175Z" fill="white"/>
    <path d="M12.8026 6.44507H11.1973V8.06156H12.8026V6.44507Z" fill="white"/>
    <path d="M12.8256 4.82788H11.1743V6.49055H12.8256V4.82788Z" fill="white"/>
    <path d="M12.8026 4.85107H11.1973V6.46756H12.8026V4.85107Z" fill="white"/>
    <path d="M12.8256 3.21082H11.1743V4.87349H12.8256V3.21082Z" fill="white"/>
    <path d="M12.8026 3.23389H11.1973V4.85037H12.8026V3.23389Z" fill="white"/>
    <path d="M12.8256 1.61707H11.1743V3.27974H12.8256V1.61707Z" fill="#F57E77"/>
    <path d="M12.8026 1.64001H11.1973V3.23341H12.8026V1.64001Z" fill="#F57E77"/>
    <path d="M12.8256 0H11.1743V1.66267H12.8256V0Z" fill="#FFE4CE"/>
    <path d="M12.8026 0.0229492H11.1973V1.63944H12.8026V0.0229492Z" fill="#FFE4CE"/>
    <path d="M11.2191 17.6716H9.56787V19.3343H11.2191V17.6716Z" fill="white"/>
    <path d="M11.1735 17.6947H9.59106V19.3112H11.1735V17.6947Z" fill="white"/>
    <path d="M11.2191 16.0546H9.56787V17.7172H11.2191V16.0546Z" fill="white"/>
    <path d="M11.1735 16.0776H9.59106V17.6941H11.1735V16.0776Z" fill="white"/>
    <path d="M11.2191 14.4606H9.56787V16.1232H11.2191V14.4606Z" fill="white"/>
    <path d="M11.1735 14.4838H9.59106V16.0772H11.1735V14.4838Z" fill="white"/>
    <path d="M11.2191 12.8438H9.56787V14.5064H11.2191V12.8438Z" fill="white"/>
    <path d="M11.1735 12.8667H9.59106V14.4832H11.1735V12.8667Z" fill="white"/>
    <path d="M11.2191 11.2498H9.56787V12.9124H11.2191V11.2498Z" fill="white"/>
    <path d="M11.1735 11.2729H9.59106V12.8894H11.1735V11.2729Z" fill="white"/>
    <path d="M11.2191 9.63281H9.56787V11.2955H11.2191V9.63281Z" fill="white"/>
    <path d="M11.1735 9.65588H9.59106V11.2724H11.1735V9.65588Z" fill="white"/>
    <path d="M11.2191 8.0387H9.56787V9.70137H11.2191V8.0387Z" fill="white"/>
    <path d="M11.1735 8.06189H9.59106V9.65528H11.1735V8.06189Z" fill="white"/>
    <path d="M11.2191 6.42175H9.56787V8.08442H11.2191V6.42175Z" fill="white"/>
    <path d="M11.1735 6.44507H9.59106V8.06156H11.1735V6.44507Z" fill="white"/>
    <path d="M11.2191 4.82788H9.56787V6.49055H11.2191V4.82788Z" fill="white"/>
    <path d="M11.1735 4.85107H9.59106V6.46756H11.1735V4.85107Z" fill="white"/>
    <path d="M11.2191 3.21082H9.56787V4.87349H11.2191V3.21082Z" fill="white"/>
    <path d="M11.1735 3.23389H9.59106V4.85037H11.1735V3.23389Z" fill="white"/>
    <path d="M11.2191 1.61707H9.56787V3.27974H11.2191V1.61707Z" fill="white"/>
    <path d="M11.1735 1.64001H9.59106V3.23341H11.1735V1.64001Z" fill="white"/>
    <path d="M11.2191 0H9.56787V1.66267H11.2191V0Z" fill="#FFE4CE"/>
    <path d="M11.1735 0.0229492H9.59106V1.63944H11.1735V0.0229492Z" fill="#FFE4CE"/>
    <path d="M9.63612 17.6716H7.98486V19.3343H9.63612V17.6716Z" fill="white"/>
    <path d="M9.61295 17.6947H8.00757V19.3112H9.61295V17.6947Z" fill="white"/>
    <path d="M9.63612 16.0546H7.98486V17.7172H9.63612V16.0546Z" fill="white"/>
    <path d="M9.61295 16.0776H8.00757V17.6941H9.61295V16.0776Z" fill="white"/>
    <path d="M9.63612 14.4606H7.98486V16.1232H9.63612V14.4606Z" fill="white"/>
    <path d="M9.61295 14.4838H8.00757V16.0772H9.61295V14.4838Z" fill="white"/>
    <path d="M9.63612 12.8438H7.98486V14.5064H9.63612V12.8438Z" fill="white"/>
    <path d="M9.61295 12.8667H8.00757V14.4832H9.61295V12.8667Z" fill="white"/>
    <path d="M9.63612 11.2498H7.98486V12.9124H9.63612V11.2498Z" fill="white"/>
    <path d="M9.61295 11.2729H8.00757V12.8894H9.61295V11.2729Z" fill="white"/>
    <path d="M9.63612 9.63281H7.98486V11.2955H9.63612V9.63281Z" fill="white"/>
    <path d="M9.61295 9.65588H8.00757V11.2724H9.61295V9.65588Z" fill="white"/>
    <path d="M9.63612 8.0387H7.98486V9.70137H9.63612V8.0387Z" fill="white"/>
    <path d="M9.61295 8.06189H8.00757V9.65528H9.61295V8.06189Z" fill="white"/>
    <path d="M9.63612 6.42175H7.98486V8.08442H9.63612V6.42175Z" fill="white"/>
    <path d="M9.61295 6.44507H8.00757V8.06156H9.61295V6.44507Z" fill="white"/>
    <path d="M9.63612 4.82788H7.98486V6.49055H9.63612V4.82788Z" fill="white"/>
    <path d="M9.61295 4.85107H8.00757V6.46756H9.61295V4.85107Z" fill="white"/>
    <path d="M9.63612 3.21082H7.98486V4.87349H9.63612V3.21082Z" fill="white"/>
    <path d="M9.61295 3.23389H8.00757V4.85037H9.61295V3.23389Z" fill="white"/>
    <path d="M9.63612 1.61707H7.98486V3.27974H9.63612V1.61707Z" fill="white"/>
    <path d="M9.61295 1.64001H8.00757V3.23341H9.61295V1.64001Z" fill="white"/>
    <path d="M9.63612 0H7.98486V1.66267H9.63612V0Z" fill="#FFE4CE"/>
    <path d="M9.61295 0.0229492H8.00757V1.63944H9.61295V0.0229492Z" fill="white"/>
    <path d="M10.9486 0.0231934H9.34326V1.63968H10.9486V0.0231934Z" fill="white"/>
    <path d="M8.02991 17.6716H6.37866V19.3343H8.02991V17.6716Z" fill="white"/>
    <path d="M8.00675 17.6947H6.40137V19.3112H8.00675V17.6947Z" fill="white"/>
    <path d="M8.02991 16.0546H6.37866V17.7172H8.02991V16.0546Z" fill="white"/>
    <path d="M8.00675 16.0776H6.40137V17.6941H8.00675V16.0776Z" fill="white"/>
    <path d="M8.02991 14.4606H6.37866V16.1232H8.02991V14.4606Z" fill="white"/>
    <path d="M8.00675 14.4838H6.40137V16.0772H8.00675V14.4838Z" fill="white"/>
    <path d="M8.02991 9.63281H6.37866V11.2955H8.02991V9.63281Z" fill="white"/>
    <path d="M8.00675 9.65588H6.40137V11.2724H8.00675V9.65588Z" fill="white"/>
    <path d="M8.02991 8.0387H6.37866V9.70137H8.02991V8.0387Z" fill="white"/>
    <path d="M8.00675 8.06189H6.40137V9.65528H8.00675V8.06189Z" fill="white"/>
    <path d="M8.02991 6.42175H6.37866V8.08442H8.02991V6.42175Z" fill="white"/>
    <path d="M8.02991 4.82788H6.37866V6.49055H8.02991V4.82788Z" fill="white"/>
    <path d="M8.00675 4.85107H6.40137V6.46756H8.00675V4.85107Z" fill="white"/>
    <path d="M8.02991 3.21082H6.37866V4.87349H8.02991V3.21082Z" fill="white"/>
    <path d="M8.00675 3.23389H6.40137V4.85037H8.00675V3.23389Z" fill="white"/>
    <path d="M8.02991 1.61707H6.37866V3.27974H8.02991V1.61707Z" fill="white"/>
    <path d="M8.00675 1.64001H6.40137V3.23341H8.00675V1.64001Z" fill="white"/>
    <path d="M8.02991 0H6.37866V1.66267H8.02991V0Z" fill="white"/>
    <path d="M8.00675 0.0229492H6.40137V1.63944H8.00675V0.0229492Z" fill="white"/>
    <path d="M6.44691 4.82788H4.79565V6.49055H6.44691V4.82788Z" fill="#C5C5C5"/>
    <path d="M6.42374 4.85107H4.81836V6.46756H6.42374V4.85107Z" fill="#C5C5C5"/>
    <path d="M6.44691 3.21082H4.79565V4.87349H6.44691V3.21082Z" fill="white"/>
    <path d="M6.42374 3.23389H4.81836V4.85037H6.42374V3.23389Z" fill="white"/>
    <path d="M6.44691 1.61707H4.79565V3.27974H6.44691V1.61707Z" fill="white"/>
    <path d="M6.42374 1.64001H4.81836V3.23341H6.42374V1.64001Z" fill="white"/>
    <path d="M6.44691 0H4.79565V1.66267H6.44691V0Z" fill="white"/>
    <path d="M6.42374 0.0229492H4.81836V1.63944H6.42374V0.0229492Z" fill="white"/>
    <path d="M4.84071 4.82788H3.18945V6.49055H4.84071V4.82788Z" fill="white"/>
    <path d="M7.97331 4.85107H4.86377V6.4912H7.97331V4.85107Z" fill="#C5C5C5"/>
    <path d="M4.84071 3.21082H3.18945V4.87349H4.84071V3.21082Z" fill="white"/>
    <path d="M4.79485 3.23389H3.2124V4.85037H4.79485V3.23389Z" fill="white"/>
    <path d="M4.84071 1.61707H3.18945V3.27974H4.84071V1.61707Z" fill="white"/>
    <path d="M4.79485 1.64001H3.2124V3.23341H4.79485V1.64001Z" fill="white"/>
    <path d="M3.23429 9.65588H1.62891V11.2724H3.23429V9.65588Z" fill="#C5C5C5"/>
    <path d="M3.25745 8.0387H1.6062V9.70137H3.25745V8.0387Z" fill="#C5C5C5"/>
    <path d="M3.23429 8.06189H1.62891V9.65528H3.23429V8.06189Z" fill="#C5C5C5"/>
    <path d="M3.25745 6.42175H1.6062V8.08442H3.25745V6.42175Z" fill="white"/>
    <path d="M4.8632 6.44507H3.25781V8.06156H4.8632V6.44507Z" fill="#C5C5C5"/>
    <path d="M7.97333 6.49109H6.36743V19.3347H7.97333V6.49109Z" fill="#C5C5C5"/>
    <path d="M3.25745 4.82788H1.6062V6.49055H3.25745V4.82788Z" fill="white"/>
    <path d="M3.23429 4.85107H1.62891V6.46756H3.23429V4.85107Z" fill="white"/>
    <path d="M3.25745 3.21082H1.6062V4.87349H3.25745V3.21082Z" fill="white"/>
    <path d="M3.23429 3.23389H1.62891V4.85037H3.23429V3.23389Z" fill="white"/>
    <path d="M3.25745 1.61707H1.6062V3.27974H3.25745V1.61707Z" fill="white"/>
    <path d="M3.23429 1.64001H1.62891V3.23341H3.23429V1.64001Z" fill="white"/>
    <path d="M1.62833 20.9055H0.0229492V22.499H1.62833V20.9055Z" fill="white"/>
    <path d="M1.62833 9.65588H0.0229492V11.2724H1.62833V9.65588Z" fill="white"/>
    <path d="M1.65125 8.0387H0V9.70137H1.65125V8.0387Z" fill="white"/>
    <path d="M1.62833 8.06189H0.0229492V9.65528H1.62833V8.06189Z" fill="white"/>
    <path d="M1.65125 6.42175H0V8.08442H1.65125V6.42175Z" fill="white"/>
    <path d="M1.62833 6.44507H0.0229492V8.06156H1.62833V6.44507Z" fill="white"/>
    <path d="M1.65125 4.82788H0V6.49055H1.65125V4.82788Z" fill="white"/>
    <path d="M1.62833 4.85107H0.0229492V6.46756H1.62833V4.85107Z" fill="white"/>
    <path d="M12.8264 0.0231934H11.2205V3.28025H12.8264V0.0231934Z" fill="white"/>
    <path d="M16.0155 0.0231934H8.03076V1.6402H16.0155V0.0231934Z" fill="white"/>
    <path d="M12.8261 0.0462646H11.2202V4.82797H12.8261V0.0462646Z" fill="white"/>
    <path d="M14.4091 0.0233154H12.8032V3.28037H14.4091V0.0233154Z" fill="white"/>
    <path d="M11.2429 0.0233154H9.63696V3.28037H11.2429V0.0233154Z" fill="white"/>
    <path d="M9.57853 0.0231934H7.97314V1.63968H9.57853V0.0231934Z" fill="#C5C5C5"/>
    <path d="M11.1847 1.66345H9.57935V3.27994H11.1847V1.66345Z" fill="#C5C5C5"/>
    <path d="M14.3411 0.0577393H15.9465V1.67423H14.3411V0.0577393Z" fill="#C5C5C5"/>
    <path d="M12.7349 1.69788H14.3403V3.31436H12.7349V1.69788Z" fill="#C5C5C5"/>
    <path d="M11.1282 3.21082H12.7341V19.2653H11.1282V3.21082Z" fill="#C5C5C5"/>
    <path d="M3.23429 21.7141H1.62891V22.5224H3.23429V21.7141Z" fill="#C5C5C5"/>
    <path d="M3.25745 20.8824H1.6062V22.5451H3.25745V20.8824Z" fill="#262828"/>
    <path d="M3.23429 20.9055H1.62891V22.5452H3.23429V20.9055Z" fill="#C5C5C5"/>
    <path d="M3.25745 19.2655H1.6062V20.9282H3.25745V19.2655Z" fill="#C5C5C5"/>
    <path d="M3.23429 19.3116H1.62891V20.9281H3.23429V19.3116Z" fill="#C5C5C5"/>
    <path d="M3.25745 17.6716H1.6062V19.3343H3.25745V17.6716Z" fill="#C5C5C5"/>
    <path d="M3.23429 17.6947H1.62891V19.3112H3.23429V17.6947Z" fill="#C5C5C5"/>
    <path d="M3.25745 16.0546H1.6062V17.7172H3.25745V16.0546Z" fill="#C5C5C5"/>
    <path d="M3.23429 16.0776H1.62891V17.6941H3.23429V16.0776Z" fill="#C5C5C5"/>
    <path d="M3.25745 14.4606H1.6062V16.1232H3.25745V14.4606Z" fill="#C5C5C5"/>
    <path d="M3.23429 14.4838H1.62891V16.0772H3.23429V14.4838Z" fill="#C5C5C5"/>
    <path d="M3.25745 12.8438H1.6062V14.5064H3.25745V12.8438Z" fill="#C5C5C5"/>
    <path d="M3.23429 12.8667H1.62891V14.4832H3.23429V12.8667Z" fill="#C5C5C5"/>
    <path d="M3.25745 11.2498H1.6062V12.9124H3.25745V11.2498Z" fill="#C5C5C5"/>
    <path d="M3.23429 11.2729H1.62891V12.8894H3.23429V11.2729Z" fill="#C5C5C5"/>
    <path d="M1.65125 20.8824H0V22.5451H1.65125V20.8824Z" fill="white"/>
    <path d="M1.65125 19.2655H0V20.9282H1.65125V19.2655Z" fill="white"/>
    <path d="M1.62833 19.3116H0.0229492V20.9281H1.62833V19.3116Z" fill="white"/>
    <path d="M1.65125 17.6716H0V19.3343H1.65125V17.6716Z" fill="white"/>
    <path d="M1.62833 17.6947H0.0229492V19.3112H1.62833V17.6947Z" fill="white"/>
    <path d="M1.65125 16.0546H0V17.7172H1.65125V16.0546Z" fill="white"/>
    <path d="M1.62833 16.0776H0.0229492V17.6941H1.62833V16.0776Z" fill="white"/>
    <path d="M1.65125 14.4606H0V16.1232H1.65125V14.4606Z" fill="white"/>
    <path d="M1.62833 14.4838H0.0229492V16.0772H1.62833V14.4838Z" fill="white"/>
    <path d="M1.65125 12.8438H0V14.5064H1.65125V12.8438Z" fill="white"/>
    <path d="M1.62833 12.8667H0.0229492V14.4832H1.62833V12.8667Z" fill="white"/>
    <path d="M1.65125 11.2498H0V12.9124H1.65125V11.2498Z" fill="white"/>
    <path d="M1.62833 11.2729H0.0229492V12.8894H1.62833V11.2729Z" fill="white"/>
    <path d="M22.394 8.08508H20.7422V22.5459H22.394V8.08508Z" fill="#C5C5C5"/>
</svg>
