<svg width="141" height="237" viewBox="0 0 141 237" fill="none" xmlns="http://www.w3.org/2000/svg">
    <path d="M16.8901 81.9418L18.3041 87.2227L13.0269 88.6377L11.6129 83.3568L16.8901 81.9418Z" fill="#FFE4CE"/>
    <path d="M22.1669 80.5261L23.5809 85.807L18.2273 87.2425L16.8133 81.9616L22.1669 80.5261Z" fill="#FFE4CE"/>
    <path d="M27.5209 79.0908L28.9349 84.3716L23.5813 85.8072L22.1673 80.5263L27.5209 79.0908Z" fill="#FFE4CE"/>
    <path d="M36.8531 76.589L38.2671 81.8699L28.8585 84.3928L27.4445 79.1119L36.8531 76.589Z" fill="#FFE4CE"/>
    <path d="M38.1514 76.2405L39.5654 81.5214L34.2883 82.9364L32.8743 77.6555L38.1514 76.2405Z" fill="#FFE4CE"/>
    <path d="M43.4282 74.8255L44.8422 80.1064L39.4885 81.5419L38.0745 76.261L43.4282 74.8255Z" fill="#FFE4CE"/>
    <path d="M18.3039 87.222L19.7384 92.5795L14.4613 93.9945L13.0268 88.6371L18.3039 87.222Z" fill="#FFE4CE"/>
    <path d="M23.5809 85.8074L25.0154 91.1648L19.6618 92.6003L18.2273 87.2429L23.5809 85.8074Z" fill="#FFE4CE"/>
    <path d="M28.9349 84.3719L30.3694 89.7293L25.0158 91.1649L23.5813 85.8074L28.9349 84.3719Z" fill="#FFE4CE"/>
    <path d="M38.7645 81.7366L40.199 87.094L30.2927 89.7503L28.8582 84.3929L38.7645 81.7366Z" fill="#F57E77"/>
    <path d="M39.5656 81.5209L41.0001 86.8783L35.723 88.2933L34.2885 82.9359L39.5656 81.5209Z" fill="#F57E77"/>
    <path d="M44.8421 80.1061L46.2766 85.4635L40.923 86.899L39.4885 81.5416L44.8421 80.1061Z" fill="#F57E77"/>
    <path d="M24.9954 91.0878L26.4299 96.4453L21.0763 97.8808L19.6418 92.5233L24.9954 91.0878Z" fill="#FFE4CE"/>
    <path d="M30.3486 89.6525L31.7831 95.0099L26.4295 96.4454L24.995 91.088L30.3486 89.6525Z" fill="#F57E77"/>
    <path d="M96.6341 88.1598L91.0966 87.9253L90.8655 93.3876L96.403 93.6221L96.6341 88.1598Z" fill="#F57E77"/>
    <path d="M96.8687 82.618L91.3312 82.3834L91.0968 87.9249L96.6343 88.1594L96.8687 82.618Z" fill="#F57E77"/>
    <path d="M97.1 77.1557L91.5625 76.9212L91.3281 82.4626L96.8656 82.6972L97.1 77.1557Z" fill="#F57E77"/>
    <path d="M91.0968 87.925L85.5593 87.6904L85.3283 93.1527L90.8658 93.3873L91.0968 87.925Z" fill="#FFE4CE"/>
    <path d="M91.3307 82.3839L85.7932 82.1493L85.5588 87.6908L91.0963 87.9253L91.3307 82.3839Z" fill="#FFE4CE"/>
    <path d="M91.562 76.9204L86.0244 76.6872L85.7887 82.2286L91.3263 82.4618L91.562 76.9204Z" fill="#FFE4CE"/>
    <path d="M39.1343 115.998H44.8351V121.703H39.1343V115.998Z" fill="#54A84E"/>
    <path d="M39.2132 116.078H44.6765V121.624H39.2132V116.078Z" fill="#54A84E"/>
    <path d="M39.1343 110.452H44.8351V116.157H39.1343V110.452Z" fill="#54A84E"/>
    <path d="M39.2132 110.531H44.6765V116.078H39.2132V110.531Z" fill="#54A84E"/>
    <path d="M39.1343 104.985H44.8351V110.69H39.1343V104.985Z" fill="#54A84E"/>
    <path d="M39.2132 105.064H44.6765V110.531H39.2132V105.064Z" fill="#54A84E"/>
    <path d="M39.1343 99.4382H44.8351V105.143H39.1343V99.4382Z" fill="#54A84E"/>
    <path d="M39.2132 99.5179H44.6765V105.064H39.2132V99.5179Z" fill="#54A84E"/>
    <path d="M39.1343 93.971H44.8351V99.6759H39.1343V93.971Z" fill="#54A84E"/>
    <path d="M39.2132 94.0507H44.6765V99.5971H39.2132V94.0507Z" fill="#54A84E"/>
    <path d="M39.1343 88.4249H44.8351V94.1298H39.1343V88.4249Z" fill="#54A84E"/>
    <path d="M39.2132 88.5037H44.6765V94.0501H39.2132V88.5037Z" fill="#54A84E"/>
    <path d="M39.1343 82.9576H44.8351V88.6625H39.1343V82.9576Z" fill="#54A84E"/>
    <path d="M39.2132 83.0365H44.6765V88.5037H39.2132V83.0365Z" fill="#54A84E"/>
    <path d="M39.1343 77.4108H44.8351V83.1157H39.1343V77.4108Z" fill="#54A84E"/>
    <path d="M39.2142 76.8117H44.6775V82.3582H39.2142V76.8117Z" fill="#54A84E"/>
    <path d="M39.1343 71.9444H44.8351V77.6493H39.1343V71.9444Z" fill="#54A84E"/>
    <path d="M39.2142 71.3445H44.6775V76.891H39.2142V71.3445Z" fill="#54A84E"/>
    <path d="M39.1343 66.3976H44.8351V72.1024H39.1343V66.3976Z" fill="#54A84E"/>
    <path d="M39.2132 66.4763H44.6765V72.0227H39.2132V66.4763Z" fill="#54A84E"/>
    <path d="M39.1343 60.9302H44.8351V66.6351H39.1343V60.9302Z" fill="#54A84E"/>
    <path d="M39.2132 61.0099H44.6765V66.4771H39.2132V61.0099Z" fill="#54A84E"/>
    <path d="M39.1343 55.3842H44.8351V61.0891H39.1343V55.3842Z" fill="#54A84E"/>
    <path d="M39.2132 55.463H44.6765V61.0095H39.2132V55.463Z" fill="#54A84E"/>
    <path d="M35.2716 60.9029H40.7349V66.4493H35.2716V60.9029Z" fill="#54A84E"/>
    <path d="M35.2716 64.3837H40.7349V69.9301H35.2716V64.3837Z" fill="#54A84E"/>
    <path d="M35.2716 67.8645H40.7349V73.4109H35.2716V67.8645Z" fill="#54A84E"/>
    <path d="M39.1343 16.7967H44.8351V22.5016H39.1343V16.7967Z" fill="#3D041F"/>
    <path d="M39.2132 16.8754H44.6765V22.4218H39.2132V16.8754Z" fill="#3D041F"/>
    <path d="M39.1343 11.3294H44.8351V17.0343H39.1343V11.3294Z" fill="#621931"/>
    <path d="M39.2132 11.409H44.6765V16.9554H39.2132V11.409Z" fill="#621931"/>
    <path d="M39.1343 5.78329H44.8351V11.4882H39.1343V5.78329Z" fill="#621931"/>
    <path d="M39.2132 5.86215H44.6765V11.4086H39.2132V5.86215Z" fill="#621931"/>
    <path d="M44.5985 115.998H50.2993V121.703H44.5985V115.998Z" fill="#54A84E"/>
    <path d="M44.5985 110.452H50.2993V116.157H44.5985V110.452Z" fill="#54A84E"/>
    <path d="M44.6771 110.531H50.2196V116.078H44.6771V110.531Z" fill="#54A84E"/>
    <path d="M44.5985 104.985H50.2993V110.69H44.5985V104.985Z" fill="#54A84E"/>
    <path d="M44.6771 105.064H50.2196V110.531H44.6771V105.064Z" fill="#54A84E"/>
    <path d="M44.5985 99.4382H50.2993V105.143H44.5985V99.4382Z" fill="#54A84E"/>
    <path d="M44.6771 99.5179H50.2196V105.064H44.6771V99.5179Z" fill="#54A84E"/>
    <path d="M44.5985 93.971H50.2993V99.6759H44.5985V93.971Z" fill="#54A84E"/>
    <path d="M44.6771 94.0507H50.2196V99.5971H44.6771V94.0507Z" fill="#54A84E"/>
    <path d="M44.5985 88.4249H50.2993V94.1298H44.5985V88.4249Z" fill="#54A84E"/>
    <path d="M44.6771 88.5037H50.2196V94.0501H44.6771V88.5037Z" fill="#54A84E"/>
    <path d="M44.5985 82.9576H50.2993V88.6625H44.5985V82.9576Z" fill="#54A84E"/>
    <path d="M44.6771 83.0365H50.2196V88.5037H44.6771V83.0365Z" fill="#54A84E"/>
    <path d="M44.5985 77.4108H50.2993V83.1157H44.5985V77.4108Z" fill="#54A84E"/>
    <path d="M44.6771 77.4904H50.2196V83.0369H44.6771V77.4904Z" fill="#54A84E"/>
    <path d="M44.5985 71.9444H50.2993V77.6493H44.5985V71.9444Z" fill="#54A84E"/>
    <path d="M44.6771 72.0233H50.2196V77.5697H44.6771V72.0233Z" fill="#54A84E"/>
    <path d="M44.5985 66.3976H50.2993V72.1024H44.5985V66.3976Z" fill="#54A84E"/>
    <path d="M44.6771 66.4763H50.2196V72.0227H44.6771V66.4763Z" fill="#54A84E"/>
    <path d="M44.5985 60.9302H50.2993V66.6351H44.5985V60.9302Z" fill="#54A84E"/>
    <path d="M44.6771 61.0099H50.2196V66.4771H44.6771V61.0099Z" fill="#54A84E"/>
    <path d="M44.5985 55.3842H50.2993V61.0891H44.5985V55.3842Z" fill="#F57E77"/>
    <path d="M44.6771 55.463H50.2196V61.0095H44.6771V55.463Z" fill="#54A84E"/>
    <path d="M44.5985 33.3568H50.2993V39.0617H44.5985V33.3568Z" fill="#FFE4CE"/>
    <path d="M44.6771 33.4356H50.2196V38.982H44.6771V33.4356Z" fill="#FFE4CE"/>
    <path d="M44.5985 27.8099H50.2993V33.5148H44.5985V27.8099Z" fill="#FFE4CE"/>
    <path d="M44.6771 27.8896H50.2196V33.436H44.6771V27.8896Z" fill="#FFE4CE"/>
    <path d="M47.6911 22.6149H58.1257V29.5763H47.6911V22.6149Z" fill="#FFE4CE"/>
    <path d="M44.5985 22.3435H50.2993V28.0484H44.5985V22.3435Z" fill="#FFE4CE"/>
    <path d="M44.6771 22.4224H50.2196V27.8895H44.6771V22.4224Z" fill="#FFE4CE"/>
    <path d="M44.5985 16.7967H50.2993V22.5016H44.5985V16.7967Z" fill="#FFE4CE"/>
    <path d="M44.6771 16.8754H50.2196V22.4218H44.6771V16.8754Z" fill="#FFE4CE"/>
    <path d="M44.5985 11.3294H50.2993V17.0343H44.5985V11.3294Z" fill="#3D041F"/>
    <path d="M44.6771 11.409H50.2196V16.9554H44.6771V11.409Z" fill="#3D041F"/>
    <path d="M44.5985 5.78329H50.2993V11.4882H44.5985V5.78329Z" fill="#621931"/>
    <path d="M44.6771 5.86215H50.2196V11.4086H44.6771V5.86215Z" fill="#621931"/>
    <path d="M44.5985 0.316101H50.2993V6.02099H44.5985V0.316101Z" fill="#621931"/>
    <path d="M44.6771 0.394836H50.2196V5.86202H44.6771V0.394836Z" fill="#621931"/>
    <path d="M50.1405 115.998H55.8413V121.703H50.1405V115.998Z" fill="#54A84E"/>
    <path d="M50.2192 116.078H55.7617V121.624H50.2192V116.078Z" fill="#54A84E"/>
    <path d="M50.1405 110.452H55.8413V116.157H50.1405V110.452Z" fill="#54A84E"/>
    <path d="M50.2192 110.531H55.7617V116.078H50.2192V110.531Z" fill="#54A84E"/>
    <path d="M50.1405 104.985H55.8413V110.69H50.1405V104.985Z" fill="#54A84E"/>
    <path d="M50.2192 105.064H55.7617V110.531H50.2192V105.064Z" fill="#54A84E"/>
    <path d="M50.1405 99.4382H55.8413V105.143H50.1405V99.4382Z" fill="#54A84E"/>
    <path d="M50.2192 99.5179H55.7617V105.064H50.2192V99.5179Z" fill="#54A84E"/>
    <path d="M50.1405 93.971H55.8413V99.6759H50.1405V93.971Z" fill="#54A84E"/>
    <path d="M50.2192 94.0507H55.7617V99.5971H50.2192V94.0507Z" fill="#54A84E"/>
    <path d="M50.1405 88.4249H55.8413V94.1298H50.1405V88.4249Z" fill="#54A84E"/>
    <path d="M50.2192 88.5037H55.7617V94.0501H50.2192V88.5037Z" fill="#54A84E"/>
    <path d="M50.1405 82.9576H55.8413V88.6625H50.1405V82.9576Z" fill="#54A84E"/>
    <path d="M50.2192 83.0365H55.7617V88.5037H50.2192V83.0365Z" fill="#54A84E"/>
    <path d="M50.1405 77.4108H55.8413V83.1157H50.1405V77.4108Z" fill="#54A84E"/>
    <path d="M50.2192 77.4904H55.7617V83.0369H50.2192V77.4904Z" fill="#54A84E"/>
    <path d="M50.1405 71.9444H55.8413V77.6493H50.1405V71.9444Z" fill="#54A84E"/>
    <path d="M50.2192 72.0233H55.7617V77.5697H50.2192V72.0233Z" fill="#54A84E"/>
    <path d="M50.1405 66.3976H55.8413V72.1024H50.1405V66.3976Z" fill="#54A84E"/>
    <path d="M50.2192 66.4763H55.7617V72.0227H50.2192V66.4763Z" fill="#54A84E"/>
    <path d="M50.1405 60.9302H55.8413V66.6351H50.1405V60.9302Z" fill="#54A84E"/>
    <path d="M50.2192 61.0099H55.7617V66.4771H50.2192V61.0099Z" fill="#54A84E"/>
    <path d="M50.1405 55.3842H55.8413V61.0891H50.1405V55.3842Z" fill="#F57E77"/>
    <path d="M50.2192 55.463H55.7617V61.0095H50.2192V55.463Z" fill="#F57E77"/>
    <path d="M50.1405 49.8381H55.8413V55.543H50.1405V49.8381Z" fill="#F57E77"/>
    <path d="M50.2192 49.917H55.7617V55.4634H50.2192V49.917Z" fill="#F57E77"/>
    <path d="M50.1405 44.3701H55.8413V50.075H50.1405V44.3701Z" fill="#F57E77"/>
    <path d="M50.1405 38.8241H55.8413V44.529H50.1405V38.8241Z" fill="#FFE4CE"/>
    <path d="M47.6914 19.1348H68.5607V29.5769H47.6914V19.1348Z" fill="#FFE4CE"/>
    <path d="M50.1405 33.3568H55.8413V39.0617H50.1405V33.3568Z" fill="#FFE4CE"/>
    <path d="M50.2192 33.4356H55.7617V38.982H50.2192V33.4356Z" fill="#FFE4CE"/>
    <path d="M50.1405 27.8099H55.8413V33.5148H50.1405V27.8099Z" fill="#FFE4CE"/>
    <path d="M50.2192 27.8896H55.7617V33.436H50.2192V27.8896Z" fill="#FFE4CE"/>
    <path d="M50.1405 16.7967H55.8413V22.5016H50.1405V16.7967Z" fill="#FFE4CE"/>
    <path d="M50.2192 16.8754H55.7617V22.4218H50.2192V16.8754Z" fill="#FFE4CE"/>
    <path d="M50.1405 11.3294H55.8413V17.0343H50.1405V11.3294Z" fill="#FFE4CE"/>
    <path d="M50.2192 11.409H55.7617V16.9554H50.2192V11.409Z" fill="#FFE4CE"/>
    <path d="M50.1405 5.78329H55.8413V11.4882H50.1405V5.78329Z" fill="#3D041F"/>
    <path d="M50.2192 5.86215H55.7617V11.4086H50.2192V5.86215Z" fill="#3D041F"/>
    <path d="M50.1405 0.316101H55.8413V6.02099H50.1405V0.316101Z" fill="#621931"/>
    <path d="M50.2192 0.394836H55.7617V5.86202H50.2192V0.394836Z" fill="#621931"/>
    <path d="M55.6031 115.998H61.304V121.703H55.6031V115.998Z" fill="#54A84E"/>
    <path d="M59.1618 120.075H64.7042V123.583H59.1618V120.075Z" fill="#105E7C"/>
    <path d="M63.9475 120.075H74.3822V123.556H63.9475V120.075Z" fill="#105E7C"/>
    <path d="M55.6031 110.452H61.304V116.157H55.6031V110.452Z" fill="#54A84E"/>
    <path d="M55.6834 110.531H61.2258V116.078H55.6834V110.531Z" fill="#54A84E"/>
    <path d="M55.6031 104.985H61.304V110.69H55.6031V104.985Z" fill="#54A84E"/>
    <path d="M55.6834 105.064H61.2258V110.531H55.6834V105.064Z" fill="#54A84E"/>
    <path d="M55.6031 99.4382H61.304V105.143H55.6031V99.4382Z" fill="#54A84E"/>
    <path d="M55.6834 99.5179H61.2258V105.064H55.6834V99.5179Z" fill="#54A84E"/>
    <path d="M55.6031 93.971H61.304V99.6759H55.6031V93.971Z" fill="#54A84E"/>
    <path d="M55.6834 94.0507H61.2258V99.5971H55.6834V94.0507Z" fill="#54A84E"/>
    <path d="M55.6031 88.4249H61.304V94.1298H55.6031V88.4249Z" fill="#54A84E"/>
    <path d="M55.6834 88.5037H61.2258V94.0501H55.6834V88.5037Z" fill="#54A84E"/>
    <path d="M55.6031 82.9576H61.304V88.6625H55.6031V82.9576Z" fill="#54A84E"/>
    <path d="M55.6834 83.0365H61.2258V88.5037H55.6834V83.0365Z" fill="#54A84E"/>
    <path d="M55.6031 77.4108H61.304V83.1157H55.6031V77.4108Z" fill="#54A84E"/>
    <path d="M55.6834 77.4904H61.2258V83.0369H55.6834V77.4904Z" fill="#54A84E"/>
    <path d="M55.6031 71.9444H61.304V77.6493H55.6031V71.9444Z" fill="#54A84E"/>
    <path d="M55.6834 72.0233H61.2258V77.5697H55.6834V72.0233Z" fill="#54A84E"/>
    <path d="M55.6031 66.3976H61.304V72.1024H55.6031V66.3976Z" fill="#54A84E"/>
    <path d="M55.6834 66.4763H61.2258V72.0227H55.6834V66.4763Z" fill="#54A84E"/>
    <path d="M55.6031 60.9302H61.304V66.6351H55.6031V60.9302Z" fill="#F57E77"/>
    <path d="M50.2991 61.0099H61.2258V68.7967H50.2991V61.0099Z" fill="#54A84E"/>
    <path d="M55.6031 55.3842H61.304V61.0891H55.6031V55.3842Z" fill="#FFE4CE"/>
    <path d="M55.6834 55.463H61.2258V61.0095H55.6834V55.463Z" fill="#FFE4CE"/>
    <path d="M55.6031 49.8381H61.304V55.543H55.6031V49.8381Z" fill="#FFE4CE"/>
    <path d="M55.6834 49.917H61.2258V55.4634H55.6834V49.917Z" fill="#FFE4CE"/>
    <path d="M55.6031 44.3701H61.304V50.075H55.6031V44.3701Z" fill="#FFE4CE"/>
    <path d="M55.6834 44.4498H61.2258V49.9169H55.6834V44.4498Z" fill="#FFE4CE"/>
    <path d="M55.6031 38.8241H61.304V44.529H55.6031V38.8241Z" fill="#FFE4CE"/>
    <path d="M55.6834 38.9028H61.2258V44.4492H55.6834V38.9028Z" fill="#FFE4CE"/>
    <path d="M55.6031 33.3568H61.304V39.0617H55.6031V33.3568Z" fill="#FFE4CE"/>
    <path d="M55.6834 33.4356H61.2258V38.982H55.6834V33.4356Z" fill="#FFE4CE"/>
    <path d="M55.6031 27.8099H61.304V33.5148H55.6031V27.8099Z" fill="#FFE4CE"/>
    <path d="M55.6834 27.8896H61.2258V33.436H55.6834V27.8896Z" fill="#FFE4CE"/>
    <path d="M55.6031 22.3435H61.304V28.0484H55.6031V22.3435Z" fill="#FFE4CE"/>
    <path d="M55.6834 22.4224H61.2258V27.8895H55.6834V22.4224Z" fill="#FFE4CE"/>
    <path d="M55.6031 16.7967H61.304V22.5016H55.6031V16.7967Z" fill="#FFE4CE"/>
    <path d="M55.6834 16.8754H61.2258V22.4218H55.6834V16.8754Z" fill="#FFE4CE"/>
    <path d="M55.6031 11.3294H61.304V17.0343H55.6031V11.3294Z" fill="#FFE4CE"/>
    <path d="M55.6834 11.409H61.2258V16.9554H55.6834V11.409Z" fill="#FFE4CE"/>
    <path d="M55.6031 5.78329H61.304V11.4882H55.6031V5.78329Z" fill="#3D041F"/>
    <path d="M55.6834 5.86215H61.2258V11.4086H55.6834V5.86215Z" fill="#3D041F"/>
    <path d="M55.6031 0.316101H61.304V6.02099H55.6031V0.316101Z" fill="#621931"/>
    <path d="M55.6834 0.394836H61.2258V5.86202H55.6834V0.394836Z" fill="#621931"/>
    <path d="M61.1458 110.452H66.8467V116.157H61.1458V110.452Z" fill="#54A84E"/>
    <path d="M61.3039 110.531H66.7672V116.078H61.3039V110.531Z" fill="#54A84E"/>
    <path d="M61.1458 104.985H66.8467V110.69H61.1458V104.985Z" fill="#54A84E"/>
    <path d="M61.3039 105.064H66.7672V110.531H61.3039V105.064Z" fill="#54A84E"/>
    <path d="M61.1458 99.4382H66.8467V105.143H61.1458V99.4382Z" fill="#54A84E"/>
    <path d="M61.3039 99.5179H66.7672V105.064H61.3039V99.5179Z" fill="#54A84E"/>
    <path d="M61.1458 93.971H66.8467V99.6759H61.1458V93.971Z" fill="#54A84E"/>
    <path d="M61.3039 94.0507H66.7672V99.5971H61.3039V94.0507Z" fill="#54A84E"/>
    <path d="M61.1458 88.4249H66.8467V94.1298H61.1458V88.4249Z" fill="#54A84E"/>
    <path d="M61.3039 88.5037H66.7672V94.0501H61.3039V88.5037Z" fill="#54A84E"/>
    <path d="M61.1458 82.9576H66.8467V88.6625H61.1458V82.9576Z" fill="#54A84E"/>
    <path d="M61.3039 83.0365H66.7672V88.5037H61.3039V83.0365Z" fill="#54A84E"/>
    <path d="M61.1458 77.4108H66.8467V83.1157H61.1458V77.4108Z" fill="#54A84E"/>
    <path d="M61.3039 77.4904H66.7672V83.0369H61.3039V77.4904Z" fill="#54A84E"/>
    <path d="M61.1458 71.9444H66.8467V77.6493H61.1458V71.9444Z" fill="#54A84E"/>
    <path d="M61.3039 72.0233H66.7672V77.5697H61.3039V72.0233Z" fill="#54A84E"/>
    <path d="M61.1458 66.3976H66.8467V72.1024H61.1458V66.3976Z" fill="#54A84E"/>
    <path d="M61.3039 66.4763H66.7672V72.0227H61.3039V66.4763Z" fill="#54A84E"/>
    <path d="M61.1458 60.9302H66.8467V66.6351H61.1458V60.9302Z" fill="#54A84E"/>
    <path d="M61.3039 61.0099H66.7672V66.4771H61.3039V61.0099Z" fill="#54A84E"/>
    <path d="M61.1458 55.3842H66.8467V61.0891H61.1458V55.3842Z" fill="#FFE4CE"/>
    <path d="M61.3039 55.463H66.7672V61.0095H61.3039V55.463Z" fill="#FFE4CE"/>
    <path d="M61.1458 49.8381H66.8467V55.543H61.1458V49.8381Z" fill="#FFE4CE"/>
    <path d="M61.3039 49.917H66.7672V55.4634H61.3039V49.917Z" fill="#FFE4CE"/>
    <path d="M61.1458 44.3701H66.8467V50.075H61.1458V44.3701Z" fill="#FFE4CE"/>
    <path d="M61.3039 44.4498H66.7672V49.9169H61.3039V44.4498Z" fill="#FFE4CE"/>
    <path d="M61.1458 38.8241H66.8467V44.529H61.1458V38.8241Z" fill="#FFE4CE"/>
    <path d="M61.3039 38.9028H66.7672V44.4492H61.3039V38.9028Z" fill="#FFE4CE"/>
    <path d="M61.1458 33.3568H66.8467V39.0617H61.1458V33.3568Z" fill="#FFE4CE"/>
    <path d="M61.3039 33.4356H66.7672V38.982H61.3039V33.4356Z" fill="#FFE4CE"/>
    <path d="M61.1458 27.8099H66.8467V33.5148H61.1458V27.8099Z" fill="#FFE4CE"/>
    <path d="M61.3039 27.8896H66.7672V33.436H61.3039V27.8896Z" fill="#FFE4CE"/>
    <path d="M61.1458 16.7967H66.8467V22.5016H61.1458V16.7967Z" fill="#FFE4CE"/>
    <path d="M61.3039 16.8754H66.7672V22.4218H61.3039V16.8754Z" fill="#FFE4CE"/>
    <path d="M61.1458 11.3294H66.8467V17.0343H61.1458V11.3294Z" fill="#FFE4CE"/>
    <path d="M61.3039 11.409H66.7672V16.9554H61.3039V11.409Z" fill="#FFE4CE"/>
    <path d="M61.1458 5.78329H66.8467V11.4882H61.1458V5.78329Z" fill="#3D041F"/>
    <path d="M61.3039 5.86215H66.7672V11.4086H61.3039V5.86215Z" fill="#3D041F"/>
    <path d="M61.1458 0.316101H66.8467V6.02099H61.1458V0.316101Z" fill="#621931"/>
    <path d="M61.3039 0.394836H66.7672V5.86202H61.3039V0.394836Z" fill="#621931"/>
    <path d="M66.6092 115.998H72.3101V121.703H66.6092V115.998Z" fill="#54A84E"/>
    <path d="M66.6888 116.078H72.2313V121.624H66.6888V116.078Z" fill="#54A84E"/>
    <path d="M66.6092 110.452H72.3101V116.157H66.6092V110.452Z" fill="#54A84E"/>
    <path d="M66.6888 110.531H72.2313V116.078H66.6888V110.531Z" fill="#54A84E"/>
    <path d="M66.6092 104.985H72.3101V110.69H66.6092V104.985Z" fill="#54A84E"/>
    <path d="M66.6888 105.064H72.2313V110.531H66.6888V105.064Z" fill="#54A84E"/>
    <path d="M66.6092 99.4382H72.3101V105.143H66.6092V99.4382Z" fill="#54A84E"/>
    <path d="M66.6888 99.5179H72.2313V105.064H66.6888V99.5179Z" fill="#54A84E"/>
    <path d="M66.6092 93.971H72.3101V99.6759H66.6092V93.971Z" fill="#54A84E"/>
    <path d="M66.6888 94.0507H72.2313V99.5971H66.6888V94.0507Z" fill="#54A84E"/>
    <path d="M66.6092 88.4249H72.3101V94.1298H66.6092V88.4249Z" fill="#54A84E"/>
    <path d="M66.6888 88.5037H72.2313V94.0501H66.6888V88.5037Z" fill="#54A84E"/>
    <path d="M66.6092 82.9576H72.3101V88.6625H66.6092V82.9576Z" fill="#54A84E"/>
    <path d="M66.6888 83.0365H72.2313V88.5037H66.6888V83.0365Z" fill="#54A84E"/>
    <path d="M66.6092 77.4108H72.3101V83.1157H66.6092V77.4108Z" fill="#54A84E"/>
    <path d="M66.6888 77.4904H72.2313V83.0369H66.6888V77.4904Z" fill="#54A84E"/>
    <path d="M66.6092 71.9444H72.3101V77.6493H66.6092V71.9444Z" fill="#54A84E"/>
    <path d="M66.6888 72.0233H72.2313V77.5697H66.6888V72.0233Z" fill="#54A84E"/>
    <path d="M66.6092 66.3976H72.3101V72.1024H66.6092V66.3976Z" fill="#54A84E"/>
    <path d="M66.6888 66.4763H72.2313V72.0227H66.6888V66.4763Z" fill="#54A84E"/>
    <path d="M66.6092 60.9302H72.3101V66.6351H66.6092V60.9302Z" fill="#54A84E"/>
    <path d="M66.6888 61.0099H72.2313V66.4771H66.6888V61.0099Z" fill="#54A84E"/>
    <path d="M66.6092 55.3842H72.3101V61.0891H66.6092V55.3842Z" fill="#FFE4CE"/>
    <path d="M66.6888 55.463H72.2313V61.0095H66.6888V55.463Z" fill="#FFE4CE"/>
    <path d="M66.6092 33.3568H72.3101V39.0617H66.6092V33.3568Z" fill="#FFE4CE"/>
    <path d="M66.6888 33.4356H72.2313V38.982H66.6888V33.4356Z" fill="#F57E77"/>
    <path d="M66.6092 27.8099H72.3101V33.5148H66.6092V27.8099Z" fill="#FFE4CE"/>
    <path d="M66.6888 27.8896H72.2313V33.436H66.6888V27.8896Z" fill="#FFE4CE"/>
    <path d="M66.6092 22.3435H72.3101V28.0484H66.6092V22.3435Z" fill="#FFE4CE"/>
    <path d="M66.6888 22.4224H72.2313V27.8895H66.6888V22.4224Z" fill="#FFE4CE"/>
    <path d="M66.6092 16.7967H72.3101V22.5016H66.6092V16.7967Z" fill="#FFE4CE"/>
    <path d="M66.6888 16.8754H72.2313V22.4218H66.6888V16.8754Z" fill="#FFE4CE"/>
    <path d="M66.6092 11.3294H72.3101V17.0343H66.6092V11.3294Z" fill="#3D041F"/>
    <path d="M66.6888 11.409H72.2313V16.9554H66.6888V11.409Z" fill="#3D041F"/>
    <path d="M65.0818 15.6541H75.5165V22.6154H65.0818V15.6541Z" fill="#3D041F"/>
    <path d="M61.6042 8.69244H68.5607V19.1345H61.6042V8.69244Z" fill="#3D041F"/>
    <path d="M66.6092 5.78329H72.3101V11.4882H66.6092V5.78329Z" fill="#621931"/>
    <path d="M66.6888 5.86215H72.2313V11.4086H66.6888V5.86215Z" fill="#621931"/>
    <path d="M66.6092 0.316101H72.3101V6.02099H66.6092V0.316101Z" fill="#621931"/>
    <path d="M66.6888 0.394836H72.2313V5.86202H66.6888V0.394836Z" fill="#621931"/>
    <path d="M72.1515 115.998H77.8523V121.703H72.1515V115.998Z" fill="#54A84E"/>
    <path d="M72.231 116.078H77.7734V121.624H72.231V116.078Z" fill="#54A84E"/>
    <path d="M72.1515 110.452H77.8523V116.157H72.1515V110.452Z" fill="#54A84E"/>
    <path d="M72.231 110.531H77.7734V116.078H72.231V110.531Z" fill="#54A84E"/>
    <path d="M72.1515 104.985H77.8523V110.69H72.1515V104.985Z" fill="#54A84E"/>
    <path d="M72.231 105.064H77.7734V110.531H72.231V105.064Z" fill="#54A84E"/>
    <path d="M72.1515 99.4382H77.8523V105.143H72.1515V99.4382Z" fill="#54A84E"/>
    <path d="M72.231 99.5179H77.7734V105.064H72.231V99.5179Z" fill="#376732"/>
    <path d="M72.1515 93.971H77.8523V99.6759H72.1515V93.971Z" fill="#54A84E"/>
    <path d="M72.1515 88.4249H77.8523V94.1298H72.1515V88.4249Z" fill="#54A84E"/>
    <path d="M72.231 88.5037H77.7734V94.0501H72.231V88.5037Z" fill="#376732"/>
    <path d="M72.1515 82.9576H77.8523V88.6625H72.1515V82.9576Z" fill="#54A84E"/>
    <path d="M72.1515 77.4108H77.8523V83.1157H72.1515V77.4108Z" fill="#54A84E"/>
    <path d="M72.231 77.4904H77.7734V83.0369H72.231V77.4904Z" fill="#54A84E"/>
    <path d="M72.1515 71.9444H77.8523V77.6493H72.1515V71.9444Z" fill="#54A84E"/>
    <path d="M72.231 72.0233H77.7734V77.5697H72.231V72.0233Z" fill="#54A84E"/>
    <path d="M72.1515 66.3976H77.8523V72.1024H72.1515V66.3976Z" fill="#54A84E"/>
    <path d="M72.231 66.4763H77.7734V72.0227H72.231V66.4763Z" fill="#54A84E"/>
    <path d="M72.1515 60.9302H77.8523V66.6351H72.1515V60.9302Z" fill="#54A84E"/>
    <path d="M72.231 61.0099H77.7734V66.4771H72.231V61.0099Z" fill="#54A84E"/>
    <path d="M72.1515 55.3842H77.8523V61.0891H72.1515V55.3842Z" fill="#54A84E"/>
    <path d="M72.231 55.463H77.7734V61.0095H72.231V55.463Z" fill="#54A84E"/>
    <path d="M72.1515 27.8099H77.8523V33.5148H72.1515V27.8099Z" fill="#3D041F"/>
    <path d="M72.231 27.8896H77.7734V33.436H72.231V27.8896Z" fill="#3D041F"/>
    <path d="M72.1515 22.3435H77.8523V28.0484H72.1515V22.3435Z" fill="#3D041F"/>
    <path d="M72.231 22.4224H77.7734V27.8895H72.231V22.4224Z" fill="#3D041F"/>
    <path d="M72.1515 16.7967H77.8523V22.5016H72.1515V16.7967Z" fill="#621931"/>
    <path d="M72.231 16.8754H77.7734V22.4218H72.231V16.8754Z" fill="#621931"/>
    <path d="M72.1515 11.3294H77.8523V17.0343H72.1515V11.3294Z" fill="#621931"/>
    <path d="M72.231 11.409H77.7734V16.9554H72.231V11.409Z" fill="#621931"/>
    <path d="M72.1515 5.78329H77.8523V11.4882H72.1515V5.78329Z" fill="#621931"/>
    <path d="M72.231 5.86215H77.7734V11.4086H72.231V5.86215Z" fill="#621931"/>
    <path d="M77.6156 71.9444H83.3164V77.6493H77.6156V71.9444Z" fill="#54A84E"/>
    <path d="M77.6943 72.0233H83.2368V77.5697H77.6943V72.0233Z" fill="#54A84E"/>
    <path d="M77.6156 66.3976H83.3164V72.1024H77.6156V66.3976Z" fill="#54A84E"/>
    <path d="M77.6943 66.4763H83.2368V72.0227H77.6943V66.4763Z" fill="#54A84E"/>
    <path d="M77.6156 60.9302H83.3164V66.6351H77.6156V60.9302Z" fill="#54A84E"/>
    <path d="M77.6943 61.0099H83.2368V66.4771H77.6943V61.0099Z" fill="#54A84E"/>
    <path d="M77.6156 55.3842H83.3164V61.0891H77.6156V55.3842Z" fill="#54A84E"/>
    <path d="M77.6943 55.463H83.2368V61.0095H77.6943V55.463Z" fill="#54A84E"/>
    <path d="M75.5168 15.6541H82.4733V26.0961H75.5168V15.6541Z" fill="#3D041F"/>
    <path d="M83.1577 71.9444H88.8585V77.6493H83.1577V71.9444Z" fill="#54A84E"/>
    <path d="M83.1577 66.3976H88.8585V72.1024H83.1577V66.3976Z" fill="#54A84E"/>
    <path d="M83.3156 66.4763H88.7789V72.0227H83.3156V66.4763Z" fill="#54A84E"/>
    <path d="M83.1577 60.9302H88.8585V66.6351H83.1577V60.9302Z" fill="#54A84E"/>
    <path d="M83.3156 61.0099H88.7789V66.4771H83.3156V61.0099Z" fill="#54A84E"/>
    <path d="M88.6211 71.9444H94.3219V77.6493H88.6211V71.9444Z" fill="#54A84E"/>
    <path d="M88.6211 66.3976H94.3219V72.1024H88.6211V66.3976Z" fill="#54A84E"/>
    <path d="M88.6998 66.4763H94.2423V72.0227H88.6998V66.4763Z" fill="#54A84E"/>
    <path d="M88.6211 60.9302H94.3219V66.6351H88.6211V60.9302Z" fill="#54A84E"/>
    <path d="M88.6998 61.0099H94.2423V66.4771H88.6998V61.0099Z" fill="#54A84E"/>
    <path d="M94.1639 71.9444H99.8647V77.6493H94.1639V71.9444Z" fill="#54A84E"/>
    <path d="M76.9308 22.6149H82.4733V28.1613H76.9308V22.6149Z" fill="#3D041F"/>
    <path d="M48.9466 22.6149H54.6475V28.3198H48.9466V22.6149Z" fill="#66667C"/>
    <path d="M70.0523 26.0956H75.5156V31.6421H70.0523V26.0956Z" fill="#FFE4CE"/>
    <path d="M88.6998 72.0233H94.2423V77.5697H88.6998V72.0233Z" fill="#54A84E"/>
    <path d="M0.416604 230.611H6.11743V236.316H0.416604V230.611Z" fill="#382A4C"/>
    <path d="M5.9586 230.611H11.6594V236.316H5.9586V230.611Z" fill="#382A4C"/>
    <path d="M5.9586 225.064H11.6594V230.769H5.9586V225.064Z" fill="white"/>
    <path d="M5.9586 219.598H11.6594V225.303H5.9586V219.598Z" fill="white"/>
    <path d="M11.423 230.611H17.1238V236.316H11.423V230.611Z" fill="#382A4C"/>
    <path d="M11.423 225.064H17.1238V230.769H11.423V225.064Z" fill="white"/>
    <path d="M11.422 219.598H17.1228V225.303H11.422V219.598Z" fill="#E7E0D4"/>
    <path d="M17.0437 230.69H22.5862V236.237H17.0437V230.69Z" fill="#382A4C"/>
    <path d="M16.9649 225.064H22.6658V230.769H16.9649V225.064Z" fill="#E7E0D4"/>
    <path d="M16.9649 219.598H22.6658V225.303H16.9649V219.598Z" fill="#F39200"/>
    <path d="M16.9649 208.585H22.6658V214.29H16.9649V208.585Z" fill="#F39200"/>
    <path d="M22.5079 230.611H28.2087V236.316H22.5079V230.611Z" fill="#382A4C"/>
    <path d="M22.5079 225.064H28.2087V230.769H22.5079V225.064Z" fill="#F39200"/>
    <path d="M22.5071 219.598H28.2079V225.303H22.5071V219.598Z" fill="#F39200"/>
    <path d="M22.5071 214.051H28.2079V219.756H22.5071V214.051Z" fill="#F39200"/>
    <path d="M22.5071 208.584H28.2079V214.289H22.5071V208.584Z" fill="#E17346"/>
    <path d="M22.5071 203.038H28.2079V208.743H22.5071V203.038Z" fill="#1D71B8"/>
    <path d="M22.5071 197.571H28.2079V203.275H22.5071V197.571Z" fill="#1D71B8"/>
    <path d="M22.5079 192.024H28.2087V197.729H22.5079V192.024Z" fill="#1D71B8"/>
    <path d="M22.5079 186.478H28.2087V192.183H22.5079V186.478Z" fill="#1D71B8"/>
    <path d="M23.4354 162.857L28.7136 164.065L27.8592 167.803L22.5811 166.594L23.4354 162.857Z" fill="#1D71B8"/>
    <path d="M22.5071 166.506H28.2079V186.715H22.5071V166.506Z" fill="#1D71B8"/>
    <path d="M27.9703 230.611H33.6711V236.316H27.9703V230.611Z" fill="#382A4C"/>
    <path d="M27.9703 225.064H33.6711V230.769H27.9703V225.064Z" fill="#F39200"/>
    <path d="M27.9703 219.598H33.6711V225.303H27.9703V219.598Z" fill="#F39200"/>
    <path d="M27.9703 214.051H33.6711V219.756H27.9703V214.051Z" fill="#F39200"/>
    <path d="M27.9703 208.584H33.6711V214.289H27.9703V208.584Z" fill="#1D71B8"/>
    <path d="M27.9703 203.038H33.6711V208.743H27.9703V203.038Z" fill="#1D71B8"/>
    <path d="M27.9703 197.571H33.6711V203.275H27.9703V197.571Z" fill="#1D71B8"/>
    <path d="M27.9703 192.024H33.6711V197.729H27.9703V192.024Z" fill="#1D71B8"/>
    <path d="M27.9703 186.478H33.6711V192.183H27.9703V186.478Z" fill="#1D71B8"/>
    <path d="M27.9713 165.027H33.6721V186.716H27.9713V165.027Z" fill="#1D71B8"/>
    <path d="M33.5134 230.611H39.2142V236.316H33.5134V230.611Z" fill="#26031F"/>
    <path d="M33.5134 225.064H39.2142V230.769H33.5134V225.064Z" fill="#E17346"/>
    <path d="M33.5913 219.678H39.1338V225.224H33.5913V219.678Z" fill="#E17346"/>
    <path d="M33.5134 214.051H39.2142V219.756H33.5134V214.051Z" fill="#E17346"/>
    <path d="M33.5134 208.584H39.2142V214.289H33.5134V208.584Z" fill="#105E7C"/>
    <path d="M33.5134 203.038H39.2142V208.743H33.5134V203.038Z" fill="#105E7C"/>
    <path d="M33.5134 197.571H39.2142V203.275H33.5134V197.571Z" fill="#105E7C"/>
    <path d="M33.5134 192.024H39.2142V197.729H33.5134V192.024Z" fill="#105E7C"/>
    <path d="M33.5134 186.478H39.2142V192.183H33.5134V186.478Z" fill="#105E7C"/>
    <path d="M33.5708 166.057H39.2026V187.061H33.5708V166.057Z" fill="#105E7C"/>
    <path d="M25.6386 158.135L30.8131 160.53L28.4207 165.708L23.2462 163.314L25.6386 158.135Z" fill="#1D71B8"/>
    <path d="M25.6767 158.24L30.6356 160.534L28.3429 165.497L23.384 163.203L25.6767 158.24Z" fill="#1D71B8"/>
    <path d="M27.9302 153.173L33.1047 155.567L30.7123 160.745L25.5378 158.351L27.9302 153.173Z" fill="#1D71B8"/>
    <path d="M27.9693 153.278L32.9282 155.573L30.6023 160.607L25.6433 158.313L27.9693 153.278Z" fill="#1D71B8"/>
    <path d="M30.257 148.138L35.4315 150.533L33.0391 155.711L27.8646 153.317L30.257 148.138Z" fill="#1D71B8"/>
    <path d="M30.2951 148.244L35.254 150.538L32.9281 155.573L27.9691 153.278L30.2951 148.244Z" fill="#1D71B8"/>
    <path d="M32.5495 143.176L37.724 145.57L35.3316 150.748L30.1571 148.354L32.5495 143.176Z" fill="#1D71B8"/>
    <path d="M32.5884 143.281L37.5474 145.576L35.2214 150.61L30.2625 148.316L32.5884 143.281Z" fill="#1D71B8"/>
    <path d="M34.8754 138.142L40.0499 140.536L37.6575 145.714L32.483 143.32L34.8754 138.142Z" fill="#1D71B8"/>
    <path d="M34.9144 138.246L39.8733 140.541L37.5806 145.503L32.6216 143.209L34.9144 138.246Z" fill="#1D71B8"/>
    <path d="M37.168 133.179L42.3425 135.573L39.9501 140.751L34.7756 138.357L37.168 133.179Z" fill="#1D71B8"/>
    <path d="M37.207 133.285L42.1659 135.579L39.84 140.613L34.881 138.319L37.207 133.285Z" fill="#1D71B8"/>
    <path d="M39.4946 128.144L44.6692 130.538L42.2768 135.716L37.1023 133.322L39.4946 128.144Z" fill="#1D71B8"/>
    <path d="M39.5328 128.25L44.4917 130.544L42.1658 135.578L37.2068 133.284L39.5328 128.25Z" fill="#1D71B8"/>
    <path d="M41.7863 123.182L46.9608 125.576L44.5684 130.754L39.3939 128.36L41.7863 123.182Z" fill="#105E7C"/>
    <path d="M41.8255 123.288L46.7844 125.582L44.4585 130.616L39.4995 128.322L41.8255 123.288Z" fill="#105E7C"/>
    <path d="M30.5969 160.429L35.7715 162.823L33.3791 168.001L28.2045 165.607L30.5969 160.429Z" fill="#1D71B8"/>
    <path d="M30.6352 160.535L35.666 162.863L33.3733 167.825L28.3425 165.498L30.6352 160.535Z" fill="#1D71B8"/>
    <path d="M32.8894 155.467L38.064 157.861L35.6716 163.039L30.497 160.645L32.8894 155.467Z" fill="#1D71B8"/>
    <path d="M32.9281 155.572L37.9589 157.9L35.6329 162.934L30.6021 160.607L32.9281 155.572Z" fill="#1D71B8"/>
    <path d="M35.2162 150.433L40.3907 152.827L37.9983 158.005L32.8238 155.611L35.2162 150.433Z" fill="#1D71B8"/>
    <path d="M35.2537 150.538L40.2845 152.866L37.9586 157.9L32.9278 155.573L35.2537 150.538Z" fill="#1D71B8"/>
    <path d="M37.5081 145.47L42.6826 147.864L40.2902 153.042L35.1157 150.648L37.5081 145.47Z" fill="#1D71B8"/>
    <path d="M37.5472 145.576L42.578 147.903L40.2521 152.938L35.2213 150.61L37.5472 145.576Z" fill="#1D71B8"/>
    <path d="M39.8345 140.436L45.009 142.83L42.6166 148.008L37.4421 145.614L39.8345 140.436Z" fill="#1D71B8"/>
    <path d="M39.8731 140.541L44.9039 142.868L42.6112 147.831L37.5804 145.503L39.8731 140.541Z" fill="#1D71B8"/>
    <path d="M42.1265 135.473L47.301 137.867L44.9086 143.046L39.7341 140.651L42.1265 135.473Z" fill="#1D71B8"/>
    <path d="M42.1656 135.579L47.1964 137.906L44.8705 142.941L39.8397 140.613L42.1656 135.579Z" fill="#1D71B8"/>
    <path d="M44.453 130.438L49.6276 132.832L47.2352 138.011L42.0606 135.617L44.453 130.438Z" fill="#1D71B8"/>
    <path d="M44.4913 130.544L49.5221 132.871L47.1962 137.906L42.1653 135.578L44.4913 130.544Z" fill="#1D71B8"/>
    <path d="M46.7456 125.476L51.9202 127.871L49.5278 133.049L44.3532 130.655L46.7456 125.476Z" fill="#1D71B8"/>
    <path d="M46.784 125.581L51.8148 127.909L49.4889 132.943L44.4581 130.615L46.784 125.581Z" fill="#1D71B8"/>
    <path d="M49.0715 120.442L54.2461 122.836L51.8537 128.015L46.6791 125.62L49.0715 120.442Z" fill="#1D71B8"/>
    <path d="M49.1098 120.547L54.1406 122.875L51.8479 127.837L46.8171 125.509L49.1098 120.547Z" fill="#1D71B8"/>
    <path d="M35.6283 162.757L40.8029 165.151L38.4105 170.329L33.2359 167.935L35.6283 162.757Z" fill="#105E7C"/>
    <path d="M37.9199 157.794L43.0945 160.188L40.7021 165.367L35.5275 162.973L37.9199 157.794Z" fill="#105E7C"/>
    <path d="M37.9583 157.899L42.9891 160.227L40.6632 165.261L35.6324 162.933L37.9583 157.899Z" fill="#105E7C"/>
    <path d="M40.2466 152.76L45.4211 155.154L43.0287 160.333L37.8542 157.939L40.2466 152.76Z" fill="#105E7C"/>
    <path d="M40.2841 152.865L45.3149 155.193L42.989 160.227L37.9582 157.899L40.2841 152.865Z" fill="#105E7C"/>
    <path d="M42.5394 147.798L47.714 150.192L45.3216 155.37L40.147 152.976L42.5394 147.798Z" fill="#105E7C"/>
    <path d="M42.5777 147.902L47.6085 150.23L45.2826 155.264L40.2518 152.937L42.5777 147.902Z" fill="#105E7C"/>
    <path d="M44.8651 142.763L50.0397 145.158L47.6473 150.336L42.4727 147.942L44.8651 142.763Z" fill="#105E7C"/>
    <path d="M44.9036 142.868L49.9344 145.196L47.6417 150.158L42.6109 147.831L44.9036 142.868Z" fill="#105E7C"/>
    <path d="M47.1576 137.801L52.3322 140.195L49.9398 145.373L44.7652 142.979L47.1576 137.801Z" fill="#105E7C"/>
    <path d="M49.4844 132.767L54.6589 135.161L52.2665 140.339L47.092 137.945L49.4844 132.767Z" fill="#1D71B8"/>
    <path d="M49.5219 132.871L54.5527 135.199L52.2268 140.233L47.196 137.906L49.5219 132.871Z" fill="#1D71B8"/>
    <path d="M51.7761 127.804L56.9507 130.198L54.5583 135.376L49.3837 132.982L51.7761 127.804Z" fill="#1D71B8"/>
    <path d="M51.8145 127.908L56.8453 130.236L54.5194 135.27L49.4886 132.943L51.8145 127.908Z" fill="#1D71B8"/>
    <path d="M54.1019 122.77L59.2765 125.164L56.8841 130.342L51.7095 127.948L54.1019 122.77Z" fill="#1D71B8"/>
    <path d="M54.1405 122.874L59.1713 125.202L56.8786 130.164L51.8477 127.837L54.1405 122.874Z" fill="#1D71B8"/>
    <path d="M56.4292 117.734L61.6033 120.129L59.2119 125.308L54.0378 122.913L56.4292 117.734Z" fill="#54A84E"/>
    <path d="M50.0584 131.709L55.0892 134.036L49.9001 145.268L44.8693 142.94L50.0584 131.709Z" fill="#105E7C"/>
    <path d="M72.2113 160.957L77.0448 157.932L80.0676 162.769L75.2341 165.793L72.2113 160.957Z" fill="#1D71B8"/>
    <path d="M72.3207 160.982L76.9528 158.083L82.2575 166.572L77.6255 169.471L72.3207 160.982Z" fill="#1D71B8"/>
    <path d="M69.315 156.322L74.1484 153.297L77.1712 158.134L72.3377 161.159L69.315 156.322Z" fill="#1D71B8"/>
    <path d="M69.4235 156.347L74.0555 153.448L76.9943 158.15L72.3623 161.049L69.4235 156.347Z" fill="#1D71B8"/>
    <path d="M66.3756 151.619L71.2091 148.594L74.2319 153.43L69.3984 156.455L66.3756 151.619Z" fill="#1D71B8"/>
    <path d="M66.4849 151.644L71.1169 148.745L74.0557 153.448L69.4237 156.347L66.4849 151.644Z" fill="#1D71B8"/>
    <path d="M63.4793 146.984L68.3127 143.959L71.3355 148.796L66.502 151.82L63.4793 146.984Z" fill="#1D71B8"/>
    <path d="M63.5879 147.008L68.22 144.11L71.1588 148.812L66.5267 151.711L63.5879 147.008Z" fill="#1D71B8"/>
    <path d="M60.5408 142.281L65.3743 139.256L68.397 144.093L63.5636 147.118L60.5408 142.281Z" fill="#1D71B8"/>
    <path d="M60.6493 142.305L65.2814 139.407L68.1782 144.042L63.5461 146.941L60.6493 142.305Z" fill="#1D71B8"/>
    <path d="M57.6436 137.645L62.4771 134.621L65.4998 139.457L60.6664 142.482L57.6436 137.645Z" fill="#1D71B8"/>
    <path d="M57.7531 137.671L62.3851 134.772L65.3239 139.474L60.6919 142.373L57.7531 137.671Z" fill="#1D71B8"/>
    <path d="M54.7043 132.943L59.5377 129.918L62.5605 134.755L57.727 137.779L54.7043 132.943Z" fill="#1D71B8"/>
    <path d="M54.8136 132.968L59.4457 130.069L62.3845 134.772L57.7524 137.671L54.8136 132.968Z" fill="#1D71B8"/>
    <path d="M51.8079 128.307L56.6414 125.283L59.6641 130.119L54.8307 133.144L51.8079 128.307Z" fill="#105E7C"/>
    <path d="M51.9165 128.332L56.5486 125.434L59.4874 130.136L54.8553 133.035L51.9165 128.332Z" fill="#105E7C"/>
    <path d="M48.8687 123.605L53.7021 120.58L56.7249 125.417L51.8915 128.442L48.8687 123.605Z" fill="#105E7C"/>
    <path d="M48.978 123.63L53.6101 120.731L56.5069 125.367L51.8749 128.266L48.978 123.63Z" fill="#105E7C"/>
    <path d="M76.8428 158.057L81.6763 155.033L84.699 159.869L79.8656 162.894L76.8428 158.057Z" fill="#1D71B8"/>
    <path d="M76.9523 158.084L81.6515 155.143L87.862 165.081L83.1628 168.022L76.9523 158.084Z" fill="#1D71B8"/>
    <path d="M73.9466 153.422L78.78 150.397L81.8028 155.234L76.9693 158.259L73.9466 153.422Z" fill="#1D71B8"/>
    <path d="M74.0552 153.448L78.7544 150.507L81.6932 155.21L76.994 158.15L74.0552 153.448Z" fill="#1D71B8"/>
    <path d="M71.0081 148.719L75.8416 145.694L78.8643 150.531L74.0309 153.556L71.0081 148.719Z" fill="#1D71B8"/>
    <path d="M71.1166 148.746L75.8158 145.805L78.7546 150.507L74.0554 153.448L71.1166 148.746Z" fill="#1D71B8"/>
    <path d="M68.111 144.084L72.9445 141.06L75.9672 145.896L71.1338 148.921L68.111 144.084Z" fill="#1D71B8"/>
    <path d="M68.2205 144.11L72.9197 141.169L75.8585 145.872L71.1593 148.812L68.2205 144.11Z" fill="#1D71B8"/>
    <path d="M65.1724 139.382L70.0059 136.357L73.0286 141.194L68.1952 144.219L65.1724 139.382Z" fill="#1D71B8"/>
    <path d="M65.281 139.407L69.9802 136.466L72.877 141.101L68.1778 144.042L65.281 139.407Z" fill="#1D71B8"/>
    <path d="M62.2754 134.747L67.1089 131.722L70.1316 136.559L65.2982 139.584L62.2754 134.747Z" fill="#1D71B8"/>
    <path d="M62.3848 134.772L67.084 131.831L70.0228 136.533L65.3236 139.474L62.3848 134.772Z" fill="#1D71B8"/>
    <path d="M59.336 130.043L64.1694 127.018L67.1922 131.855L62.3587 134.88L59.336 130.043Z" fill="#1D71B8"/>
    <path d="M59.4453 130.07L64.1445 127.129L67.0833 131.831L62.3841 134.772L59.4453 130.07Z" fill="#1D71B8"/>
    <path d="M56.4397 125.409L61.2732 122.384L64.296 127.221L59.4625 130.246L56.4397 125.409Z" fill="#1D71B8"/>
    <path d="M56.5482 125.434L61.2474 122.493L64.1862 127.196L59.487 130.136L56.5482 125.434Z" fill="#1D71B8"/>
    <path d="M53.5004 120.706L58.3339 117.681L61.3566 122.518L56.5232 125.543L53.5004 120.706Z" fill="#1D71B8"/>
    <path d="M53.5169 120.698L58.2161 117.757L61.1129 122.392L56.4137 125.333L53.5169 120.698Z" fill="#54A84E"/>
    <path d="M81.5434 155.117L86.3768 152.092L91.1247 159.689L86.2912 162.714L81.5434 155.117Z" fill="#105E7C"/>
    <path d="M78.6455 150.481L83.479 147.456L86.5018 152.293L81.6683 155.318L78.6455 150.481Z" fill="#105E7C"/>
    <path d="M78.754 150.506L83.4532 147.566L86.392 152.268L81.6928 155.209L78.754 150.506Z" fill="#105E7C"/>
    <path d="M75.7078 145.779L80.5413 142.754L83.564 147.591L78.7306 150.616L75.7078 145.779Z" fill="#105E7C"/>
    <path d="M75.8154 145.805L80.5146 142.864L83.4534 147.567L78.7542 150.508L75.8154 145.805Z" fill="#105E7C"/>
    <path d="M72.8098 141.144L77.6433 138.119L80.6661 142.956L75.8326 145.981L72.8098 141.144Z" fill="#105E7C"/>
    <path d="M72.9192 141.168L77.6184 138.228L80.5572 142.93L75.858 145.871L72.9192 141.168Z" fill="#105E7C"/>
    <path d="M69.8714 136.442L74.7048 133.417L77.7276 138.253L72.8941 141.278L69.8714 136.442Z" fill="#105E7C"/>
    <path d="M69.9799 136.466L74.6791 133.525L77.5759 138.161L72.8767 141.102L69.9799 136.466Z" fill="#105E7C"/>
    <path d="M66.9743 131.806L71.8077 128.781L74.8305 133.618L69.997 136.643L66.9743 131.806Z" fill="#105E7C"/>
    <path d="M67.0828 131.831L71.782 128.89L74.7208 133.593L70.0216 136.534L67.0828 131.831Z" fill="#105E7C"/>
    <path d="M64.0357 127.103L68.8691 124.078L71.8919 128.915L67.0584 131.94L64.0357 127.103Z" fill="#1D71B8"/>
    <path d="M64.1443 127.128L68.8435 124.187L71.7823 128.89L67.0831 131.831L64.1443 127.128Z" fill="#1D71B8"/>
    <path d="M61.1393 122.468L65.9728 119.443L68.9955 124.28L64.1621 127.305L61.1393 122.468Z" fill="#1D71B8"/>
    <path d="M61.2471 122.493L65.9463 119.552L68.8851 124.255L64.1859 127.196L61.2471 122.493Z" fill="#1D71B8"/>
    <path d="M58.2001 117.766L63.0336 114.741L66.0563 119.578L61.2229 122.602L58.2001 117.766Z" fill="#1D71B8"/>
    <path d="M58.2157 117.757L62.9149 114.816L65.8117 119.451L61.1125 122.392L58.2157 117.757Z" fill="#54A84E"/>
    <path d="M69.4236 129.077L74.9661 129.077L74.9661 134.544L69.4236 134.544L69.4236 129.077Z" fill="#105E7C"/>
    <path d="M123.735 206.492L125.384 201.031L130.841 202.682L129.192 208.143L123.735 206.492Z" fill="#382A4C"/>
    <path d="M125.338 201.183L126.988 195.722L132.445 197.372L130.795 202.833L125.338 201.183Z" fill="#382A4C"/>
    <path d="M120.032 199.578L121.681 194.117L127.138 195.767L125.489 201.228L120.032 199.578Z" fill="white"/>
    <path d="M114.803 197.996L116.452 192.536L121.909 194.186L120.26 199.647L114.803 197.996Z" fill="white"/>
    <path d="M126.919 195.949L128.568 190.489L134.025 192.139L132.376 197.6L126.919 195.949Z" fill="#382A4C"/>
    <path d="M121.613 194.345L123.262 188.884L128.719 190.534L127.07 195.995L121.613 194.345Z" fill="white"/>
    <path d="M116.383 192.763L118.033 187.302L123.49 188.953L121.84 194.414L116.383 192.763Z" fill="#E7E0D4"/>
    <path d="M128.62 190.587L130.224 185.278L135.529 186.882L133.926 192.192L128.62 190.587Z" fill="#382A4C"/>
    <path d="M123.216 189.035L124.866 183.574L130.323 185.225L128.674 190.686L123.216 189.035Z" fill="#E7E0D4"/>
    <path d="M117.987 187.454L119.636 181.993L125.093 183.643L123.444 189.104L117.987 187.454Z" fill="#F39200"/>
    <path d="M107.452 184.267L109.101 178.807L114.558 180.457L112.909 185.918L107.452 184.267Z" fill="#F39200"/>
    <path d="M130.126 185.33L131.775 179.869L137.232 181.52L135.583 186.981L130.126 185.33Z" fill="#382A4C"/>
    <path d="M124.819 183.726L126.469 178.265L131.926 179.915L130.276 185.376L124.819 183.726Z" fill="#F39200"/>
    <path d="M119.591 182.145L121.24 176.684L126.697 178.334L125.048 183.795L119.591 182.145Z" fill="#F39200"/>
    <path d="M114.285 180.54L115.934 175.079L121.391 176.73L119.742 182.191L114.285 180.54Z" fill="#F39200"/>
    <path d="M109.055 178.959L110.705 173.498L116.162 175.148L114.512 180.609L109.055 178.959Z" fill="#E17346"/>
    <path d="M103.749 177.354L105.399 171.893L110.856 173.543L109.206 179.004L103.749 177.354Z" fill="#1D71B8"/>
    <path d="M98.5198 175.772L100.169 170.311L105.626 171.961L103.977 177.422L98.5198 175.772Z" fill="#1D71B8"/>
    <path d="M93.2149 174.167L94.8641 168.706L100.321 170.356L98.6719 175.817L93.2149 174.167Z" fill="#1D71B8"/>
    <path d="M87.9091 172.562L89.5583 167.101L95.0154 168.752L93.3661 174.213L87.9091 172.562Z" fill="#1D71B8"/>
    <path d="M82.6797 170.981L84.329 165.52L89.786 167.17L88.1368 172.631L82.6797 170.981Z" fill="#1D71B8"/>
    <path d="M77.6854 169.414L79.3347 163.953L84.9814 165.661L83.3321 171.122L77.6854 169.414Z" fill="#1D71B8"/>
    <path d="M131.706 180.097L133.356 174.636L138.813 176.287L137.163 181.747L131.706 180.097Z" fill="#382A4C"/>
    <path d="M126.4 178.492L128.05 173.031L133.507 174.682L131.857 180.143L126.4 178.492Z" fill="#F39200"/>
    <path d="M121.171 176.911L122.82 171.45L128.277 173.1L126.628 178.561L121.171 176.911Z" fill="#F39200"/>
    <path d="M115.865 175.306L117.514 169.845L122.971 171.496L121.322 176.957L115.865 175.306Z" fill="#F39200"/>
    <path d="M110.636 173.725L112.285 168.264L117.742 169.914L116.093 175.375L110.636 173.725Z" fill="#1D71B8"/>
    <path d="M105.331 172.121L106.98 166.66L112.437 168.31L110.788 173.771L105.331 172.121Z" fill="#1D71B8"/>
    <path d="M100.1 170.538L101.75 165.077L107.207 166.728L105.557 172.189L100.1 170.538Z" fill="#1D71B8"/>
    <path d="M94.7953 168.934L96.4446 163.473L101.902 165.124L100.252 170.585L94.7953 168.934Z" fill="#1D71B8"/>
    <path d="M89.4895 167.33L91.1388 161.869L96.5958 163.519L94.9466 168.98L89.4895 167.33Z" fill="#1D71B8"/>
    <path d="M80.9267 164.739L82.5759 159.278L91.3667 161.937L89.7174 167.398L80.9267 164.739Z" fill="#1D71B8"/>
    <path d="M133.31 174.788L134.959 169.327L140.416 170.978L138.767 176.439L133.31 174.788Z" fill="#26031F"/>
    <path d="M128.004 173.184L129.653 167.723L135.11 169.373L133.461 174.834L128.004 173.184Z" fill="#E17346"/>
    <path d="M122.873 171.549L124.477 166.24L129.782 167.845L128.179 173.154L122.873 171.549Z" fill="#E17346"/>
    <path d="M117.469 169.997L119.118 164.536L124.575 166.187L122.926 171.648L117.469 169.997Z" fill="#E17346"/>
    <path d="M112.239 168.415L113.888 162.954L119.345 164.605L117.696 170.065L112.239 168.415Z" fill="#105E7C"/>
    <path d="M106.934 166.811L108.583 161.35L114.041 163.001L112.391 168.462L106.934 166.811Z" fill="#105E7C"/>
    <path d="M101.704 165.229L103.353 159.768L108.81 161.418L107.161 166.879L101.704 165.229Z" fill="#105E7C"/>
    <path d="M96.3989 163.625L98.0482 158.164L103.505 159.814L101.856 165.275L96.3989 163.625Z" fill="#105E7C"/>
    <path d="M85.8404 160.43L87.4896 154.969L98.1998 158.209L96.5505 163.67L85.8404 160.43Z" fill="#105E7C"/>
    <path d="M39.2134 120.075H48.2237V123.556H39.2134V120.075Z" fill="#105E7C"/>
    <path d="M48.2237 120.075H57.3646V123.556H48.2237V120.075Z" fill="#105E7C"/>
    <path d="M57.3646 120.075H66.5042V123.556H57.3646V120.075Z" fill="#105E7C"/>
    <path d="M66.3748 120.075H75.5156V123.556H66.3748V120.075Z" fill="#105E7C"/>
    <path d="M39.214 123.556H48.0877V133.998H39.214V123.556Z" fill="#1D71B8"/>
    <path d="M48.0877 123.556H57.0901V133.998H48.0877V123.556Z" fill="#1D71B8"/>
    <path d="M57.0901 123.556H66.0911V133.998H57.0901V123.556Z" fill="#1D71B8"/>
    <path d="M65.9637 123.556H74.9659V133.998H65.9637V123.556Z" fill="#1D71B8"/>
    <path d="M68.4207 123.542L75.144 123.542L75.144 133.997L68.4207 133.997L68.4207 123.542Z" fill="#105E7C"/>
    <path d="M72.231 72.1029H77.7734V88.5037H72.231V72.1029Z" fill="#376732"/>
    <path d="M72.231 85.8079H77.7734V99.5971H72.231V85.8079Z" fill="#376732"/>
    <path d="M74.1481 72.0522H83.3951V77.5986H74.1481V72.0522Z" fill="#376732"/>
    <path d="M72.3101 66.6348H77.7734V72.1812H72.3101V66.6348Z" fill="#376732"/>
    <path d="M89.7286 94.9687L93.6477 98.8906L84.9157 107.629L80.9966 103.707L89.7286 94.9687Z" fill="#F57E77"/>
    <path d="M62.9696 114.016L66.8328 117.882L62.9696 121.748L59.1065 117.882L62.9696 114.016Z" fill="#FFE4CE"/>
    <path d="M66.8318 110.149L70.6949 114.015L66.7758 117.937L62.9127 114.071L66.8318 110.149Z" fill="#FFE4CE"/>
    <path d="M70.7512 106.228L74.6144 110.094L70.6953 114.016L66.8321 110.15L70.7512 106.228Z" fill="#FFE4CE"/>
    <path d="M75.7536 101.221L79.6167 105.087L74.558 110.149L70.6949 106.284L75.7536 101.221Z" fill="#FFE4CE"/>
    <path d="M78.533 98.4399L82.3961 102.306L78.533 106.172L74.6699 102.306L78.533 98.4399Z" fill="#FFE4CE"/>
    <path d="M86.1126 91.0934H90.5626V96.5606H86.1126V91.0934Z" fill="#FFE4CE"/>
    <path d="M86.5816 90.3872L90.4447 94.2531L82.3413 102.362L78.4781 98.4964L86.5816 90.3872Z" fill="#FFE4CE"/>
    <path d="M66.8323 117.881L70.7515 121.803L66.8883 125.669L62.9692 121.747L66.8323 117.881Z" fill="#FFE4CE"/>
    <path d="M70.6953 114.016L74.6144 117.938L70.6953 121.859L66.7761 117.938L70.6953 114.016Z" fill="#FFE4CE"/>
    <path d="M74.6147 110.093L78.5338 114.015L74.6147 117.937L70.6956 114.015L74.6147 110.093Z" fill="#FFE4CE"/>
    <path d="M79.5971 105.107L83.5162 109.029L78.4775 114.072L74.5584 110.15L79.5971 105.107Z" fill="#F57E77"/>
    <path d="M82.3964 102.306L86.3156 106.228L82.4524 110.094L78.5333 106.172L82.3964 102.306Z" fill="#F57E77"/>
    <path d="M96.3848 92.2288L96.3848 99.1902L88.1457 99.1902L88.1457 92.2288L96.3848 92.2288Z" fill="#F57E77"/>
    <path d="M92.9066 92.2295L92.9066 96.5615L88.1457 96.5615L88.1457 92.2295L92.9066 92.2295Z" fill="#FFE4CE"/>
    <path d="M92.9066 88.7496L92.9066 92.2293L89.4293 92.2293L89.4293 88.7496L92.9066 88.7496Z" fill="#FFE4CE"/>
    <path d="M92.9066 85.2687L92.9066 88.7485L89.4293 88.7485L89.4293 85.2687L92.9066 85.2687Z" fill="#FFE4CE"/>
    <path d="M92.9066 81.7879L92.9066 85.2677L89.4293 85.2677L89.4293 81.7879L92.9066 81.7879Z" fill="#FFE4CE"/>
    <path d="M74.5584 117.881L78.4775 121.803L74.5584 125.725L70.6393 121.803L74.5584 117.881Z" fill="#FFE4CE"/>
    <path d="M78.477 113.96L82.3961 117.882L78.477 121.804L74.5579 117.882L78.477 113.96Z" fill="#F57E77"/>
    <path d="M92.9066 74.8255L92.9066 81.7869L89.4284 81.7869L89.4284 74.8255L92.9066 74.8255Z" fill="#FFE4CE"/>
    <path d="M50.1401 39.0622H66.8467V44.2913H50.1401V39.0622Z" fill="#FFE4CE"/>
    <path d="M50.2995 44.6082H67.147V50.7653H50.2995V44.6082Z" fill="#F57E77"/>
    <path d="M61.6036 39.0622H67.1461V44.6086H61.6036V39.0622Z" fill="#F57E77"/>
    <path d="M83.3165 72.0233H95.4529V77.5697H83.3165V72.0233Z" fill="#54A84E"/>
</svg>
