<svg width="92" height="244" viewBox="0 0 92 244" fill="none" xmlns="http://www.w3.org/2000/svg">
    <path d="M85.8122 238.165H80.2783V243.731H85.8122V238.165Z" fill="#382A4C"/>
    <path d="M85.6583 238.243H80.355V243.653H85.6583V238.243Z" fill="#382A4C"/>
    <path d="M85.8122 76.9221H80.2783V82.4876H85.8122V76.9221Z" fill="#54A84E"/>
    <path d="M85.6583 77.0001H80.355V82.411H85.6583V77.0001Z" fill="#54A84E"/>
    <path d="M80.4321 238.165H74.8982V243.731H80.4321V238.165Z" fill="#382A4C"/>
    <path d="M80.3549 238.243H74.9747V243.653H80.3549V238.243Z" fill="#382A4C"/>
    <path d="M80.4321 232.754H74.8982V238.319H80.4321V232.754Z" fill="white"/>
    <path d="M80.3549 232.832H74.9747V238.165H80.3549V232.832Z" fill="white"/>
    <path d="M80.4321 227.421H74.8982V232.986H80.4321V227.421Z" fill="white"/>
    <path d="M80.3549 227.498H74.9747V232.909H80.3549V227.498Z" fill="white"/>
    <path d="M80.4321 76.9221H74.8982V82.4876H80.4321V76.9221Z" fill="#54A84E"/>
    <path d="M80.3549 77.0001H74.9747V82.411H80.3549V77.0001Z" fill="#54A84E"/>
    <path d="M80.4321 71.5121H74.8982V77.0775H80.4321V71.5121Z" fill="#54A84E"/>
    <path d="M80.3549 71.5883H74.9747V76.9992H80.3549V71.5883Z" fill="#54A84E"/>
    <path d="M80.4321 66.1782H74.8982V71.7436H80.4321V66.1782Z" fill="#54A84E"/>
    <path d="M80.3549 66.2552H74.9747V71.5888H80.3549V66.2552Z" fill="#54A84E"/>
    <path d="M75.1284 238.165H69.5945V243.731H75.1284V238.165Z" fill="#382A4C"/>
    <path d="M75.0523 238.243H69.6721V243.653H75.0523V238.243Z" fill="#382A4C"/>
    <path d="M75.1284 232.754H69.5945V238.319H75.1284V232.754Z" fill="white"/>
    <path d="M75.0523 232.832H69.6721V238.165H75.0523V232.832Z" fill="white"/>
    <path d="M75.1284 227.421H69.5945V232.986H75.1284V227.421Z" fill="#E7E0D4"/>
    <path d="M75.0523 227.498H69.6721V232.909H75.0523V227.498Z" fill="#E7E0D4"/>
    <path d="M75.1284 76.9221H69.5945V82.4876H75.1284V76.9221Z" fill="#54A84E"/>
    <path d="M75.0523 77.0001H69.6721V82.411H75.0523V77.0001Z" fill="#54A84E"/>
    <path d="M75.1284 71.5121H69.5945V77.0775H75.1284V71.5121Z" fill="#54A84E"/>
    <path d="M75.0523 71.5883H69.6721V76.9992H75.0523V71.5883Z" fill="#54A84E"/>
    <path d="M75.1284 66.1782H69.5945V71.7436H75.1284V66.1782Z" fill="#54A84E"/>
    <path d="M75.0523 66.2552H69.6721V71.5888H75.0523V66.2552Z" fill="#54A84E"/>
    <path d="M69.7481 238.165H64.2142V243.731H69.7481V238.165Z" fill="#382A4C"/>
    <path d="M69.6719 238.243H64.2917V243.653H69.6719V238.243Z" fill="#382A4C"/>
    <path d="M69.7481 232.754H64.2142V238.319H69.7481V232.754Z" fill="#E7E0D4"/>
    <path d="M69.6719 232.832H64.2917V238.165H69.6719V232.832Z" fill="#E7E0D4"/>
    <path d="M69.7481 227.421H64.2142V232.986H69.7481V227.421Z" fill="#F39200"/>
    <path d="M69.6719 227.498H64.2917V232.909H69.6719V227.498Z" fill="#F39200"/>
    <path d="M69.7481 216.677H64.2142V222.242H69.7481V216.677Z" fill="#F39200"/>
    <path d="M69.6719 216.754H64.2917V222.165H69.6719V216.754Z" fill="#F39200"/>
    <path d="M69.7481 76.9221H64.2142V82.4876H69.7481V76.9221Z" fill="#376732"/>
    <path d="M69.6719 77.0001H64.2917V82.411H69.6719V77.0001Z" fill="#376732"/>
    <path d="M69.7481 71.5121H64.2142V77.0775H69.7481V71.5121Z" fill="#54A84E"/>
    <path d="M69.6719 71.5883H64.2917V76.9992H69.6719V71.5883Z" fill="#54A84E"/>
    <path d="M69.7481 66.1782H64.2142V71.7436H69.7481V66.1782Z" fill="#54A84E"/>
    <path d="M69.6719 66.2552H64.2917V71.5888H69.6719V66.2552Z" fill="#54A84E"/>
    <path d="M69.7481 60.7673H64.2142V66.3328H69.7481V60.7673Z" fill="#54A84E"/>
    <path d="M69.6719 60.8444H64.2917V66.2553H69.6719V60.8444Z" fill="#54A84E"/>
    <path d="M69.7481 33.8677H64.2142V39.4331H69.7481V33.8677Z" fill="#F57E77"/>
    <path d="M69.6719 33.9448H64.2917V39.3556H69.6719V33.9448Z" fill="#F57E77"/>
    <path d="M69.7481 28.5339H64.2142V34.0993H69.7481V28.5339Z" fill="#FFE4CE"/>
    <path d="M69.6719 28.6118H64.2917V33.9453H69.6719V28.6118Z" fill="#FFE4CE"/>
    <path d="M69.7481 23.1229H64.2142V28.6884H69.7481V23.1229Z" fill="#3D041F"/>
    <path d="M69.6719 23.2H64.2917V28.6109H69.6719V23.2Z" fill="#3D041F"/>
    <path d="M64.368 238.165H58.8341V243.731H64.368V238.165Z" fill="#382A4C"/>
    <path d="M64.2915 238.243H58.9882V243.653H64.2915V238.243Z" fill="#382A4C"/>
    <path d="M64.368 232.754H58.8341V238.319H64.368V232.754Z" fill="#F39200"/>
    <path d="M64.2915 232.832H58.9882V238.165H64.2915V232.832Z" fill="#F39200"/>
    <path d="M64.368 227.421H58.8341V232.986H64.368V227.421Z" fill="#F39200"/>
    <path d="M64.2915 227.498H58.9882V232.909H64.2915V227.498Z" fill="#F39200"/>
    <path d="M64.368 222.01H58.8341V227.575H64.368V222.01Z" fill="#F39200"/>
    <path d="M64.2915 222.087H58.9882V227.498H64.2915V222.087Z" fill="#F39200"/>
    <path d="M64.368 216.677H58.8341V222.242H64.368V216.677Z" fill="#E17346"/>
    <path d="M64.2915 216.754H58.9882V222.165H64.2915V216.754Z" fill="#E17346"/>
    <path d="M64.368 211.266H58.8341V216.831H64.368V211.266Z" fill="#1D71B8"/>
    <path d="M64.2915 211.343H58.9882V216.677H64.2915V211.343Z" fill="#1D71B8"/>
    <path d="M64.368 205.932H58.8341V211.498H64.368V205.932Z" fill="#1D71B8"/>
    <path d="M64.2915 206.01H58.9882V211.421H64.2915V206.01Z" fill="#1D71B8"/>
    <path d="M64.368 200.521H58.8341V206.087H64.368V200.521Z" fill="#1D71B8"/>
    <path d="M64.2915 200.599H58.9882V206.01H64.2915V200.599Z" fill="#1D71B8"/>
    <path d="M64.368 195.111H58.8341V200.677H64.368V195.111Z" fill="#1D71B8"/>
    <path d="M64.2915 195.265H58.9882V200.676H64.2915V195.265Z" fill="#1D71B8"/>
    <path d="M64.368 189.777H58.8341V195.343H64.368V189.777Z" fill="#1D71B8"/>
    <path d="M64.2915 189.854H58.9882V195.188H64.2915V189.854Z" fill="#1D71B8"/>
    <path d="M64.368 184.366H58.8341V189.932H64.368V184.366Z" fill="#1D71B8"/>
    <path d="M64.2915 184.521H58.9882V189.932H64.2915V184.521Z" fill="#1D71B8"/>
    <path d="M64.368 179.033H58.8341V184.599H64.368V179.033Z" fill="#1D71B8"/>
    <path d="M64.2915 179.11H58.9882V184.52H64.2915V179.11Z" fill="#1D71B8"/>
    <path d="M64.368 173.622H58.8341V179.188H64.368V173.622Z" fill="#1D71B8"/>
    <path d="M64.2915 173.7H58.9882V179.033H64.2915V173.7Z" fill="#1D71B8"/>
    <path d="M64.368 168.289H58.8341V173.854H64.368V168.289Z" fill="#1D71B8"/>
    <path d="M64.2915 168.366H58.9882V173.776H64.2915V168.366Z" fill="#1D71B8"/>
    <path d="M64.368 162.878H58.8341V168.443H64.368V162.878Z" fill="#1D71B8"/>
    <path d="M64.2915 162.955H58.9882V168.366H64.2915V162.955Z" fill="#1D71B8"/>
    <path d="M64.368 157.544H58.8341V163.109H64.368V157.544Z" fill="#1D71B8"/>
    <path d="M64.2915 157.622H58.9882V163.033H64.2915V157.622Z" fill="#1D71B8"/>
    <path d="M64.368 152.133H58.8341V157.698H64.368V152.133Z" fill="#1D71B8"/>
    <path d="M64.2915 152.211H58.9882V157.544H64.2915V152.211Z" fill="#1D71B8"/>
    <path d="M64.368 146.8H58.8341V152.365H64.368V146.8Z" fill="#1D71B8"/>
    <path d="M64.2915 146.877H58.9882V152.288H64.2915V146.877Z" fill="#1D71B8"/>
    <path d="M64.368 141.389H58.8341V146.954H64.368V141.389Z" fill="#1D71B8"/>
    <path d="M64.2915 141.466H58.9882V146.877H64.2915V141.466Z" fill="#1D71B8"/>
    <path d="M64.368 136.056H58.8341V141.621H64.368V136.056Z" fill="#105E7C"/>
    <path d="M64.2915 136.133H58.9882V141.544H64.2915V136.133Z" fill="#105E7C"/>
    <path d="M64.368 130.645H58.8341V136.211H64.368V130.645Z" fill="#105E7C"/>
    <path d="M64.2915 130.721H58.9882V136.055H64.2915V130.721Z" fill="#105E7C"/>
    <path d="M64.368 125.233H58.8341V130.799H64.368V125.233Z" fill="#105E7C"/>
    <path d="M64.2915 125.388H58.9882V130.799H64.2915V125.388Z" fill="#105E7C"/>
    <path d="M64.368 119.9H58.8341V125.466H64.368V119.9Z" fill="#376732"/>
    <path d="M64.2915 119.977H58.9882V125.388H64.2915V119.977Z" fill="#376732"/>
    <path d="M64.368 114.489H58.8341V120.055H64.368V114.489Z" fill="#376732"/>
    <path d="M64.2915 114.566H58.9882V119.977H64.2915V114.566Z" fill="#376732"/>
    <path d="M64.368 109.156H58.8341V114.721H64.368V109.156Z" fill="#376732"/>
    <path d="M64.2915 109.233H58.9882V114.566H64.2915V109.233Z" fill="#376732"/>
    <path d="M64.368 103.745H58.8341V109.31H64.368V103.745Z" fill="#376732"/>
    <path d="M64.2915 103.822H58.9882V109.233H64.2915V103.822Z" fill="#376732"/>
    <path d="M64.368 98.4108H58.8341V103.976H64.368V98.4108Z" fill="#376732"/>
    <path d="M64.2915 98.4879H58.9882V103.899H64.2915V98.4879Z" fill="#376732"/>
    <path d="M64.368 92.9999H58.8341V98.5654H64.368V92.9999Z" fill="#376732"/>
    <path d="M64.2915 93.0778H58.9882V98.4887H64.2915V93.0778Z" fill="#376732"/>
    <path d="M64.368 87.6668H58.8341V93.2323H64.368V87.6668Z" fill="#376732"/>
    <path d="M64.2915 87.744H58.9882V93.0775H64.2915V87.744Z" fill="#376732"/>
    <path d="M64.368 82.256H58.8341V87.8214H64.368V82.256Z" fill="#376732"/>
    <path d="M64.2915 82.3331H58.9882V87.7439H64.2915V82.3331Z" fill="#376732"/>
    <path d="M64.368 76.9221H58.8341V82.4876H64.368V76.9221Z" fill="#376732"/>
    <path d="M64.2915 77.0001H58.9882V82.411H64.2915V77.0001Z" fill="#376732"/>
    <path d="M64.368 71.5121H58.8341V77.0775H64.368V71.5121Z" fill="#54A84E"/>
    <path d="M64.2915 71.5883H58.9882V76.9992H64.2915V71.5883Z" fill="#54A84E"/>
    <path d="M64.368 66.1782H58.8341V71.7436H64.368V66.1782Z" fill="#54A84E"/>
    <path d="M64.2915 66.2552H58.9882V71.5888H64.2915V66.2552Z" fill="#54A84E"/>
    <path d="M64.368 60.7673H58.8341V66.3328H64.368V60.7673Z" fill="#54A84E"/>
    <path d="M64.2915 60.8444H58.9882V66.2553H64.2915V60.8444Z" fill="#54A84E"/>
    <path d="M64.368 39.2786H58.8341V44.8441H64.368V39.2786Z" fill="#F57E77"/>
    <path d="M64.2915 39.3557H58.9882V44.7666H64.2915V39.3557Z" fill="#F57E77"/>
    <path d="M64.368 33.8677H58.8341V39.4331H64.368V33.8677Z" fill="#3D041F"/>
    <path d="M64.2915 33.9448H58.9882V39.3556H64.2915V33.9448Z" fill="#3D041F"/>
    <path d="M64.368 28.5339H58.8341V34.0993H64.368V28.5339Z" fill="#3D041F"/>
    <path d="M64.2915 28.6118H58.9882V33.9453H64.2915V28.6118Z" fill="#3D041F"/>
    <path d="M64.368 23.1229H58.8341V28.6884H64.368V23.1229Z" fill="#3D041F"/>
    <path d="M64.2915 23.2H58.9882V28.6109H64.2915V23.2Z" fill="#3D041F"/>
    <path d="M64.368 17.79H58.8341V23.3554H64.368V17.79Z" fill="#621931"/>
    <path d="M64.2915 17.8671H58.9882V23.2779H64.2915V17.8671Z" fill="#621931"/>
    <path d="M64.368 12.379H58.8341V17.9444H64.368V12.379Z" fill="#621931"/>
    <path d="M64.2915 12.4561H58.9882V17.8669H64.2915V12.4561Z" fill="#621931"/>
    <path d="M59.0652 238.165H53.5314V243.731H59.0652V238.165Z" fill="#382A4C"/>
    <path d="M58.9881 238.243H53.6079V243.653H58.9881V238.243Z" fill="#382A4C"/>
    <path d="M59.0652 232.754H53.5314V238.319H59.0652V232.754Z" fill="#F39200"/>
    <path d="M58.9881 232.832H53.6079V238.165H58.9881V232.832Z" fill="#F39200"/>
    <path d="M59.0652 227.421H53.5314V232.986H59.0652V227.421Z" fill="#F39200"/>
    <path d="M58.9881 227.498H53.6079V232.909H58.9881V227.498Z" fill="#F39200"/>
    <path d="M59.0652 222.01H53.5314V227.575H59.0652V222.01Z" fill="#F39200"/>
    <path d="M58.9881 222.087H53.6079V227.498H58.9881V222.087Z" fill="#F39200"/>
    <path d="M59.0652 216.677H53.5314V222.242H59.0652V216.677Z" fill="#1D71B8"/>
    <path d="M58.9881 216.754H53.6079V222.165H58.9881V216.754Z" fill="#1D71B8"/>
    <path d="M59.0652 211.266H53.5314V216.831H59.0652V211.266Z" fill="#1D71B8"/>
    <path d="M58.9881 211.343H53.6079V216.677H58.9881V211.343Z" fill="#1D71B8"/>
    <path d="M59.0652 205.932H53.5314V211.498H59.0652V205.932Z" fill="#1D71B8"/>
    <path d="M58.9881 206.01H53.6079V211.421H58.9881V206.01Z" fill="#1D71B8"/>
    <path d="M59.0652 200.521H53.5314V206.087H59.0652V200.521Z" fill="#1D71B8"/>
    <path d="M58.9881 200.599H53.6079V206.01H58.9881V200.599Z" fill="#1D71B8"/>
    <path d="M59.0652 195.111H53.5314V200.677H59.0652V195.111Z" fill="#1D71B8"/>
    <path d="M58.9881 195.265H53.6079V200.676H58.9881V195.265Z" fill="#1D71B8"/>
    <path d="M59.0652 189.777H53.5314V195.343H59.0652V189.777Z" fill="#1D71B8"/>
    <path d="M58.9881 189.854H53.6079V195.188H58.9881V189.854Z" fill="#1D71B8"/>
    <path d="M59.0652 184.366H53.5314V189.932H59.0652V184.366Z" fill="#1D71B8"/>
    <path d="M58.9881 184.521H53.6079V189.932H58.9881V184.521Z" fill="#1D71B8"/>
    <path d="M59.0652 179.033H53.5314V184.599H59.0652V179.033Z" fill="#1D71B8"/>
    <path d="M58.9881 179.11H53.6079V184.52H58.9881V179.11Z" fill="#1D71B8"/>
    <path d="M59.0652 173.622H53.5314V179.188H59.0652V173.622Z" fill="#1D71B8"/>
    <path d="M58.9881 173.7H53.6079V179.033H58.9881V173.7Z" fill="#1D71B8"/>
    <path d="M59.0652 168.289H53.5314V173.854H59.0652V168.289Z" fill="#1D71B8"/>
    <path d="M58.9881 168.366H53.6079V173.776H58.9881V168.366Z" fill="#1D71B8"/>
    <path d="M59.0652 162.878H53.5314V168.443H59.0652V162.878Z" fill="#1D71B8"/>
    <path d="M58.9881 162.955H53.6079V168.366H58.9881V162.955Z" fill="#1D71B8"/>
    <path d="M59.0652 157.544H53.5314V163.109H59.0652V157.544Z" fill="#1D71B8"/>
    <path d="M58.9881 157.622H53.6079V163.033H58.9881V157.622Z" fill="#1D71B8"/>
    <path d="M59.0652 152.133H53.5314V157.698H59.0652V152.133Z" fill="#1D71B8"/>
    <path d="M58.9881 152.211H53.6079V157.544H58.9881V152.211Z" fill="#1D71B8"/>
    <path d="M59.0652 146.8H53.5314V152.365H59.0652V146.8Z" fill="#1D71B8"/>
    <path d="M58.9881 146.877H53.6079V152.288H58.9881V146.877Z" fill="#1D71B8"/>
    <path d="M59.0652 141.389H53.5314V146.954H59.0652V141.389Z" fill="#1D71B8"/>
    <path d="M58.9881 141.466H53.6079V146.877H58.9881V141.466Z" fill="#1D71B8"/>
    <path d="M59.0652 136.056H53.5314V141.621H59.0652V136.056Z" fill="#1D71B8"/>
    <path d="M58.9881 136.133H53.6079V141.544H58.9881V136.133Z" fill="#1D71B8"/>
    <path d="M59.0652 130.645H53.5314V136.211H59.0652V130.645Z" fill="#1D71B8"/>
    <path d="M58.9881 130.721H53.6079V136.055H58.9881V130.721Z" fill="#1D71B8"/>
    <path d="M59.0652 125.233H53.5314V130.799H59.0652V125.233Z" fill="#105E7C"/>
    <path d="M58.9881 125.388H53.6079V130.799H58.9881V125.388Z" fill="#105E7C"/>
    <path d="M59.0652 119.9H53.5314V125.466H59.0652V119.9Z" fill="#376732"/>
    <path d="M58.9881 119.977H53.6079V125.388H58.9881V119.977Z" fill="#376732"/>
    <path d="M59.0652 114.489H53.5314V120.055H59.0652V114.489Z" fill="#54A84E"/>
    <path d="M58.9881 114.566H53.6079V119.977H58.9881V114.566Z" fill="#54A84E"/>
    <path d="M59.0652 109.156H53.5314V114.721H59.0652V109.156Z" fill="#54A84E"/>
    <path d="M58.9881 109.233H53.6079V114.566H58.9881V109.233Z" fill="#54A84E"/>
    <path d="M59.0652 103.745H53.5314V109.31H59.0652V103.745Z" fill="#54A84E"/>
    <path d="M58.9881 103.822H53.6079V109.233H58.9881V103.822Z" fill="#54A84E"/>
    <path d="M59.0652 98.4108H53.5314V103.976H59.0652V98.4108Z" fill="#54A84E"/>
    <path d="M58.9881 98.4879H53.6079V103.899H58.9881V98.4879Z" fill="#54A84E"/>
    <path d="M59.0652 92.9999H53.5314V98.5654H59.0652V92.9999Z" fill="#54A84E"/>
    <path d="M58.9881 93.0778H53.6079V98.4887H58.9881V93.0778Z" fill="#54A84E"/>
    <path d="M59.0652 87.6668H53.5314V93.2323H59.0652V87.6668Z" fill="#54A84E"/>
    <path d="M58.9881 87.744H53.6079V93.0775H58.9881V87.744Z" fill="#54A84E"/>
    <path d="M59.0652 82.256H53.5314V87.8214H59.0652V82.256Z" fill="#54A84E"/>
    <path d="M58.9881 82.3331H53.6079V87.7439H58.9881V82.3331Z" fill="#54A84E"/>
    <path d="M59.0652 76.9221H53.5314V82.4876H59.0652V76.9221Z" fill="#54A84E"/>
    <path d="M58.9881 77.0001H53.6079V82.411H58.9881V77.0001Z" fill="#54A84E"/>
    <path d="M59.0652 71.5121H53.5314V77.0775H59.0652V71.5121Z" fill="#54A84E"/>
    <path d="M58.9881 71.5883H53.6079V76.9992H58.9881V71.5883Z" fill="#54A84E"/>
    <path d="M59.0652 66.1782H53.5314V71.7436H59.0652V66.1782Z" fill="#54A84E"/>
    <path d="M58.9881 66.2552H53.6079V71.5888H58.9881V66.2552Z" fill="#54A84E"/>
    <path d="M59.0652 60.7673H53.5314V66.3328H59.0652V60.7673Z" fill="#F57E77"/>
    <path d="M58.9881 60.8444H53.6079V66.2553H58.9881V60.8444Z" fill="#F57E77"/>
    <path d="M59.0652 44.6116H53.5314V50.177H59.0652V44.6116Z" fill="#F57E77"/>
    <path d="M58.9881 44.6887H53.6079V50.0996H58.9881V44.6887Z" fill="#F57E77"/>
    <path d="M59.0652 39.2786H53.5314V44.8441H59.0652V39.2786Z" fill="#FFE4CE"/>
    <path d="M58.9881 39.3557H53.6079V44.7666H58.9881V39.3557Z" fill="#FFE4CE"/>
    <path d="M59.0652 33.8677H53.5314V39.4331H59.0652V33.8677Z" fill="#FFE4CE"/>
    <path d="M58.9881 33.9448H53.6079V39.3556H58.9881V33.9448Z" fill="#FFE4CE"/>
    <path d="M59.0652 28.5339H53.5314V34.0993H59.0652V28.5339Z" fill="#FFE4CE"/>
    <path d="M58.9881 28.6118H53.6079V33.9453H58.9881V28.6118Z" fill="#FFE4CE"/>
    <path d="M59.0652 23.1229H53.5314V28.6884H59.0652V23.1229Z" fill="#FFE4CE"/>
    <path d="M58.9881 23.2H53.6079V28.6109H58.9881V23.2Z" fill="#FFE4CE"/>
    <path d="M59.0652 17.79H53.5314V23.3554H59.0652V17.79Z" fill="#3D041F"/>
    <path d="M58.9881 17.8671H53.6079V23.2779H58.9881V17.8671Z" fill="#3D041F"/>
    <path d="M59.0652 12.379H53.5314V17.9444H59.0652V12.379Z" fill="#621931"/>
    <path d="M58.9881 12.4561H53.6079V17.8669H58.9881V12.4561Z" fill="#621931"/>
    <path d="M59.0652 7.04524H53.5314V12.6107H59.0652V7.04524Z" fill="#621931"/>
    <path d="M58.9881 7.12312H53.6079V12.4567H58.9881V7.12312Z" fill="#621931"/>
    <path d="M53.685 238.165H48.1511V243.731H53.685V238.165Z" fill="#26031F"/>
    <path d="M53.6088 238.243H48.2286V243.653H53.6088V238.243Z" fill="#26031F"/>
    <path d="M53.685 232.754H48.1511V238.319H53.685V232.754Z" fill="#E17346"/>
    <path d="M53.6088 232.832H48.2286V238.165H53.6088V232.832Z" fill="#E17346"/>
    <path d="M53.685 227.421H48.1511V232.986H53.685V227.421Z" fill="#E17346"/>
    <path d="M53.6088 227.498H48.2286V232.909H53.6088V227.498Z" fill="#E17346"/>
    <path d="M53.685 222.01H48.1511V227.575H53.685V222.01Z" fill="#E17346"/>
    <path d="M53.6088 222.087H48.2286V227.498H53.6088V222.087Z" fill="#E17346"/>
    <path d="M53.685 216.677H48.1511V222.242H53.685V216.677Z" fill="#105E7C"/>
    <path d="M53.6088 216.754H48.2286V222.165H53.6088V216.754Z" fill="#105E7C"/>
    <path d="M53.685 211.266H48.1511V216.831H53.685V211.266Z" fill="#105E7C"/>
    <path d="M53.6088 211.343H48.2286V216.677H53.6088V211.343Z" fill="#105E7C"/>
    <path d="M53.685 205.932H48.1511V211.498H53.685V205.932Z" fill="#105E7C"/>
    <path d="M53.6088 206.01H48.2286V211.421H53.6088V206.01Z" fill="#105E7C"/>
    <path d="M53.685 200.521H48.1511V206.087H53.685V200.521Z" fill="#105E7C"/>
    <path d="M53.6088 200.599H48.2286V206.01H53.6088V200.599Z" fill="#105E7C"/>
    <path d="M53.685 195.111H48.1511V200.677H53.685V195.111Z" fill="#105E7C"/>
    <path d="M53.6088 195.265H48.2286V200.676H53.6088V195.265Z" fill="#105E7C"/>
    <path d="M53.685 189.777H48.1511V195.343H53.685V189.777Z" fill="#105E7C"/>
    <path d="M53.6088 189.854H48.2286V195.188H53.6088V189.854Z" fill="#105E7C"/>
    <path d="M53.685 184.366H48.1511V189.932H53.685V184.366Z" fill="#105E7C"/>
    <path d="M53.6088 184.521H48.2286V189.932H53.6088V184.521Z" fill="#105E7C"/>
    <path d="M53.685 179.033H48.1511V184.599H53.685V179.033Z" fill="#105E7C"/>
    <path d="M53.6088 179.11H48.2286V184.52H53.6088V179.11Z" fill="#105E7C"/>
    <path d="M53.685 173.622H48.1511V179.188H53.685V173.622Z" fill="#105E7C"/>
    <path d="M53.6088 173.7H48.2286V179.033H53.6088V173.7Z" fill="#105E7C"/>
    <path d="M53.685 168.289H48.1511V173.854H53.685V168.289Z" fill="#105E7C"/>
    <path d="M53.6088 168.366H48.2286V173.776H53.6088V168.366Z" fill="#105E7C"/>
    <path d="M53.685 162.878H48.1511V168.443H53.685V162.878Z" fill="#105E7C"/>
    <path d="M53.6088 162.955H48.2286V168.366H53.6088V162.955Z" fill="#105E7C"/>
    <path d="M53.685 157.544H48.1511V163.109H53.685V157.544Z" fill="#105E7C"/>
    <path d="M53.6088 157.622H48.2286V163.033H53.6088V157.622Z" fill="#105E7C"/>
    <path d="M53.685 152.133H48.1511V157.698H53.685V152.133Z" fill="#105E7C"/>
    <path d="M53.6088 152.211H48.2286V157.544H53.6088V152.211Z" fill="#105E7C"/>
    <path d="M53.685 146.8H48.1511V152.365H53.685V146.8Z" fill="#105E7C"/>
    <path d="M53.6088 146.877H48.2286V152.288H53.6088V146.877Z" fill="#105E7C"/>
    <path d="M53.685 141.389H48.1511V146.954H53.685V141.389Z" fill="#1D71B8"/>
    <path d="M53.6088 141.466H48.2286V146.877H53.6088V141.466Z" fill="#1D71B8"/>
    <path d="M53.685 136.056H48.1511V141.621H53.685V136.056Z" fill="#1D71B8"/>
    <path d="M53.6088 136.133H48.2286V141.544H53.6088V136.133Z" fill="#1D71B8"/>
    <path d="M53.685 130.645H48.1511V136.211H53.685V130.645Z" fill="#1D71B8"/>
    <path d="M53.6088 130.721H48.2286V136.055H53.6088V130.721Z" fill="#1D71B8"/>
    <path d="M53.685 125.233H48.1511V130.799H53.685V125.233Z" fill="#303086"/>
    <path d="M53.6088 125.388H48.2286V130.799H53.6088V125.388Z" fill="#105E7C"/>
    <path d="M53.685 119.9H48.1511V125.466H53.685V119.9Z" fill="#54A84E"/>
    <path d="M53.6088 119.977H48.2286V125.388H53.6088V119.977Z" fill="#54A84E"/>
    <path d="M53.685 114.489H48.1511V120.055H53.685V114.489Z" fill="#54A84E"/>
    <path d="M53.6088 114.566H48.2286V119.977H53.6088V114.566Z" fill="#54A84E"/>
    <path d="M53.685 109.156H48.1511V114.721H53.685V109.156Z" fill="#54A84E"/>
    <path d="M53.6088 109.233H48.2286V114.566H53.6088V109.233Z" fill="#54A84E"/>
    <path d="M53.685 103.745H48.1511V109.31H53.685V103.745Z" fill="#54A84E"/>
    <path d="M53.6088 103.822H48.2286V109.233H53.6088V103.822Z" fill="#54A84E"/>
    <path d="M53.685 98.4108H48.1511V103.976H53.685V98.4108Z" fill="#54A84E"/>
    <path d="M53.6088 98.4879H48.2286V103.899H53.6088V98.4879Z" fill="#54A84E"/>
    <path d="M53.685 92.9999H48.1511V98.5654H53.685V92.9999Z" fill="#54A84E"/>
    <path d="M53.6088 93.0778H48.2286V98.4887H53.6088V93.0778Z" fill="#54A84E"/>
    <path d="M53.685 87.6668H48.1511V93.2323H53.685V87.6668Z" fill="#54A84E"/>
    <path d="M53.6088 87.744H48.2286V93.0775H53.6088V87.744Z" fill="#54A84E"/>
    <path d="M53.685 82.256H48.1511V87.8214H53.685V82.256Z" fill="#54A84E"/>
    <path d="M53.6088 82.3331H48.2286V87.7439H53.6088V82.3331Z" fill="#54A84E"/>
    <path d="M53.685 76.9221H48.1511V82.4876H53.685V76.9221Z" fill="#54A84E"/>
    <path d="M53.6088 77.0001H48.2286V82.411H53.6088V77.0001Z" fill="#54A84E"/>
    <path d="M53.685 71.5121H48.1511V77.0775H53.685V71.5121Z" fill="#54A84E"/>
    <path d="M53.6088 71.5883H48.2286V76.9992H53.6088V71.5883Z" fill="#54A84E"/>
    <path d="M53.685 66.1782H48.1511V71.7436H53.685V66.1782Z" fill="#54A84E"/>
    <path d="M53.6088 66.2552H48.2286V71.5888H53.6088V66.2552Z" fill="#54A84E"/>
    <path d="M53.685 60.7673H48.1511V66.3328H53.685V60.7673Z" fill="#F57E77"/>
    <path d="M53.6088 60.8444H48.2286V66.2553H53.6088V60.8444Z" fill="#F57E77"/>
    <path d="M53.685 55.3563H48.1511V60.9218H53.685V55.3563Z" fill="#F57E77"/>
    <path d="M53.6088 55.4334H48.2286V60.8443H53.6088V55.4334Z" fill="#F57E77"/>
    <path d="M53.685 50.0226H48.1511V55.588H53.685V50.0226Z" fill="#F57E77"/>
    <path d="M53.6088 50.0997H48.2286V55.4332H53.6088V50.0997Z" fill="#F57E77"/>
    <path d="M53.685 44.6116H48.1511V50.177H53.685V44.6116Z" fill="#FFE4CE"/>
    <path d="M53.6088 44.6887H48.2286V50.0996H53.6088V44.6887Z" fill="#FFE4CE"/>
    <path d="M53.685 39.2786H48.1511V44.8441H53.685V39.2786Z" fill="#FFE4CE"/>
    <path d="M53.6088 39.3557H48.2286V44.7666H53.6088V39.3557Z" fill="#FFE4CE"/>
    <path d="M53.685 33.8677H48.1511V39.4331H53.685V33.8677Z" fill="#FFE4CE"/>
    <path d="M53.6088 33.9448H48.2286V39.3556H53.6088V33.9448Z" fill="#FFE4CE"/>
    <path d="M53.685 28.5339H48.1511V34.0993H53.685V28.5339Z" fill="#66667C"/>
    <path d="M53.6088 28.6118H48.2286V33.9453H53.6088V28.6118Z" fill="#66667C"/>
    <path d="M53.685 23.1229H48.1511V28.6884H53.685V23.1229Z" fill="#FFE4CE"/>
    <path d="M53.6088 23.2H48.2286V28.6109H53.6088V23.2Z" fill="#FFE4CE"/>
    <path d="M53.685 17.79H48.1511V23.3554H53.685V17.79Z" fill="#FFE4CE"/>
    <path d="M53.6088 17.8671H48.2286V23.2779H53.6088V17.8671Z" fill="#FFE4CE"/>
    <path d="M53.685 12.379H48.1511V17.9444H53.685V12.379Z" fill="#3D041F"/>
    <path d="M53.6088 12.4561H48.2286V17.8669H53.6088V12.4561Z" fill="#3D041F"/>
    <path d="M53.685 7.04524H48.1511V12.6107H53.685V7.04524Z" fill="#621931"/>
    <path d="M53.6088 7.12312H48.2286V12.4567H53.6088V7.12312Z" fill="#621931"/>
    <path d="M48.3823 141.389H42.8484V146.954H48.3823V141.389Z" fill="#105E7C"/>
    <path d="M48.3043 141.466H42.9242V146.877H48.3043V141.466Z" fill="#1D71B8"/>
    <path d="M48.3823 136.056H42.8484V141.621H48.3823V136.056Z" fill="#105E7C"/>
    <path d="M48.3043 136.133H42.9242V141.544H48.3043V136.133Z" fill="#1D71B8"/>
    <path d="M48.3823 130.645H42.8484V136.211H48.3823V130.645Z" fill="#105E7C"/>
    <path d="M48.3043 130.721H42.9242V136.055H48.3043V130.721Z" fill="#1D71B8"/>
    <path d="M48.3823 125.233H42.8484V130.799H48.3823V125.233Z" fill="#303086"/>
    <path d="M48.3043 125.388H42.9242V130.799H48.3043V125.388Z" fill="#105E7C"/>
    <path d="M48.3823 119.9H42.8484V125.466H48.3823V119.9Z" fill="#54A84E"/>
    <path d="M48.3043 119.977H42.9242V125.388H48.3043V119.977Z" fill="#54A84E"/>
    <path d="M48.3823 114.489H42.8484V120.055H48.3823V114.489Z" fill="#54A84E"/>
    <path d="M48.3043 114.566H42.9242V119.977H48.3043V114.566Z" fill="#54A84E"/>
    <path d="M48.3823 109.156H42.8484V114.721H48.3823V109.156Z" fill="#54A84E"/>
    <path d="M48.3043 109.233H42.9242V114.566H48.3043V109.233Z" fill="#54A84E"/>
    <path d="M48.3823 103.745H42.8484V109.31H48.3823V103.745Z" fill="#54A84E"/>
    <path d="M48.3043 103.822H42.9242V109.233H48.3043V103.822Z" fill="#54A84E"/>
    <path d="M48.3823 98.4108H42.8484V103.976H48.3823V98.4108Z" fill="#54A84E"/>
    <path d="M48.3043 98.4879H42.9242V103.899H48.3043V98.4879Z" fill="#54A84E"/>
    <path d="M48.3823 92.9999H42.8484V98.5654H48.3823V92.9999Z" fill="#54A84E"/>
    <path d="M48.3043 93.0778H42.9242V98.4887H48.3043V93.0778Z" fill="#54A84E"/>
    <path d="M48.3823 87.6668H42.8484V93.2323H48.3823V87.6668Z" fill="#54A84E"/>
    <path d="M48.3043 87.744H42.9242V93.0775H48.3043V87.744Z" fill="#54A84E"/>
    <path d="M48.3823 82.256H42.8484V87.8214H48.3823V82.256Z" fill="#54A84E"/>
    <path d="M48.3043 82.3331H42.9242V87.7439H48.3043V82.3331Z" fill="#54A84E"/>
    <path d="M48.3823 76.9221H42.8484V82.4876H48.3823V76.9221Z" fill="#54A84E"/>
    <path d="M48.3043 77.0001H42.9242V82.411H48.3043V77.0001Z" fill="#54A84E"/>
    <path d="M48.3823 71.5121H42.8484V77.0775H48.3823V71.5121Z" fill="#54A84E"/>
    <path d="M48.3043 71.5883H42.9242V76.9992H48.3043V71.5883Z" fill="#54A84E"/>
    <path d="M48.3823 66.1782H42.8484V71.7436H48.3823V66.1782Z" fill="#F57E77"/>
    <path d="M48.3043 66.2552H42.9242V71.5888H48.3043V66.2552Z" fill="#F57E77"/>
    <path d="M48.3823 60.7673H42.8484V66.3328H48.3823V60.7673Z" fill="#FFE4CE"/>
    <path d="M48.3043 60.8444H42.9242V66.2553H48.3043V60.8444Z" fill="#FFE4CE"/>
    <path d="M48.3823 55.3563H42.8484V60.9218H48.3823V55.3563Z" fill="#FFE4CE"/>
    <path d="M48.3043 55.4334H42.9242V60.8443H48.3043V55.4334Z" fill="#FFE4CE"/>
    <path d="M48.3823 50.0226H42.8484V55.588H48.3823V50.0226Z" fill="#F57E77"/>
    <path d="M48.3043 50.0997H42.9242V55.4332H48.3043V50.0997Z" fill="#F57E77"/>
    <path d="M48.3823 44.6116H42.8484V50.177H48.3823V44.6116Z" fill="#FFE4CE"/>
    <path d="M48.3043 44.6887H42.9242V50.0996H48.3043V44.6887Z" fill="#FFE4CE"/>
    <path d="M48.3823 39.2786H42.8484V44.8441H48.3823V39.2786Z" fill="#FFE4CE"/>
    <path d="M48.3043 39.3557H42.9242V44.7666H48.3043V39.3557Z" fill="#FFE4CE"/>
    <path d="M48.3823 33.8677H42.8484V39.4331H48.3823V33.8677Z" fill="#FFE4CE"/>
    <path d="M48.3043 33.9448H42.9242V39.3556H48.3043V33.9448Z" fill="#FFE4CE"/>
    <path d="M48.3823 28.5339H42.8484V34.0993H48.3823V28.5339Z" fill="#FFE4CE"/>
    <path d="M48.3043 28.6118H42.9242V33.9453H48.3043V28.6118Z" fill="#FFE4CE"/>
    <path d="M48.3823 23.1229H42.8484V28.6884H48.3823V23.1229Z" fill="#FFE4CE"/>
    <path d="M48.3043 23.2H42.9242V28.6109H48.3043V23.2Z" fill="#FFE4CE"/>
    <path d="M48.3823 17.79H42.8484V23.3554H48.3823V17.79Z" fill="#FFE4CE"/>
    <path d="M48.3043 17.8671H42.9242V23.2779H48.3043V17.8671Z" fill="#FFE4CE"/>
    <path d="M48.3823 12.379H42.8484V17.9444H48.3823V12.379Z" fill="#3D041F"/>
    <path d="M48.3043 12.4561H42.9242V17.8669H48.3043V12.4561Z" fill="#3D041F"/>
    <path d="M48.3823 7.04524H42.8484V12.6107H48.3823V7.04524Z" fill="#621931"/>
    <path d="M48.3043 7.12312H42.9242V12.4567H48.3043V7.12312Z" fill="#621931"/>
    <path d="M43.0012 238.165H37.4673V243.731H43.0012V238.165Z" fill="#26031F"/>
    <path d="M42.848 238.243H37.5447V243.653H42.848V238.243Z" fill="#26031F"/>
    <path d="M43.0012 232.754H37.4673V238.319H43.0012V232.754Z" fill="#E17346"/>
    <path d="M42.848 232.832H37.5447V238.165H42.848V232.832Z" fill="#E17346"/>
    <path d="M43.0012 227.421H37.4673V232.986H43.0012V227.421Z" fill="#E17346"/>
    <path d="M42.848 227.498H37.5447V232.909H42.848V227.498Z" fill="#E17346"/>
    <path d="M43.0012 222.01H37.4673V227.575H43.0012V222.01Z" fill="#E17346"/>
    <path d="M42.848 222.087H37.5447V227.498H42.848V222.087Z" fill="#E17346"/>
    <path d="M43.0012 216.677H37.4673V222.242H43.0012V216.677Z" fill="#105E7C"/>
    <path d="M42.848 216.754H37.5447V222.165H42.848V216.754Z" fill="#105E7C"/>
    <path d="M43.0012 211.266H37.4673V216.831H43.0012V211.266Z" fill="#105E7C"/>
    <path d="M42.848 211.343H37.5447V216.677H42.848V211.343Z" fill="#105E7C"/>
    <path d="M43.0012 205.932H37.4673V211.498H43.0012V205.932Z" fill="#105E7C"/>
    <path d="M42.848 206.01H37.5447V211.421H42.848V206.01Z" fill="#105E7C"/>
    <path d="M43.0012 200.521H37.4673V206.087H43.0012V200.521Z" fill="#105E7C"/>
    <path d="M42.848 200.599H37.5447V206.01H42.848V200.599Z" fill="#105E7C"/>
    <path d="M43.0012 195.111H37.4673V200.677H43.0012V195.111Z" fill="#105E7C"/>
    <path d="M42.848 195.265H37.5447V200.676H42.848V195.265Z" fill="#105E7C"/>
    <path d="M43.0012 189.777H37.4673V195.343H43.0012V189.777Z" fill="#105E7C"/>
    <path d="M42.848 189.854H37.5447V195.188H42.848V189.854Z" fill="#105E7C"/>
    <path d="M43.0012 184.366H37.4673V189.932H43.0012V184.366Z" fill="#105E7C"/>
    <path d="M42.848 184.521H37.5447V189.932H42.848V184.521Z" fill="#105E7C"/>
    <path d="M43.0012 179.033H37.4673V184.599H43.0012V179.033Z" fill="#105E7C"/>
    <path d="M42.848 179.11H37.5447V184.52H42.848V179.11Z" fill="#105E7C"/>
    <path d="M43.0012 173.622H37.4673V179.188H43.0012V173.622Z" fill="#105E7C"/>
    <path d="M42.848 173.7H37.5447V179.033H42.848V173.7Z" fill="#105E7C"/>
    <path d="M43.0012 168.289H37.4673V173.854H43.0012V168.289Z" fill="#105E7C"/>
    <path d="M42.848 168.366H37.5447V173.776H42.848V168.366Z" fill="#105E7C"/>
    <path d="M43.0012 162.878H37.4673V168.443H43.0012V162.878Z" fill="#105E7C"/>
    <path d="M42.848 162.955H37.5447V168.366H42.848V162.955Z" fill="#105E7C"/>
    <path d="M43.0012 157.544H37.4673V163.109H43.0012V157.544Z" fill="#105E7C"/>
    <path d="M42.848 157.622H37.5447V163.033H42.848V157.622Z" fill="#105E7C"/>
    <path d="M43.0012 152.133H37.4673V157.698H43.0012V152.133Z" fill="#105E7C"/>
    <path d="M42.848 152.211H37.5447V157.544H42.848V152.211Z" fill="#105E7C"/>
    <path d="M43.0012 146.8H37.4673V152.365H43.0012V146.8Z" fill="#105E7C"/>
    <path d="M42.848 146.877H37.5447V152.288H42.848V146.877Z" fill="#105E7C"/>
    <path d="M43.0012 141.389H37.4673V146.954H43.0012V141.389Z" fill="#1D71B8"/>
    <path d="M42.848 141.466H37.5447V146.877H42.848V141.466Z" fill="#1D71B8"/>
    <path d="M43.0012 136.056H37.4673V141.621H43.0012V136.056Z" fill="#1D71B8"/>
    <path d="M42.848 136.133H37.5447V141.544H42.848V136.133Z" fill="#1D71B8"/>
    <path d="M43.0012 130.645H37.4673V136.211H43.0012V130.645Z" fill="#1D71B8"/>
    <path d="M42.848 130.721H37.5447V136.055H42.848V130.721Z" fill="#1D71B8"/>
    <path d="M43.0012 125.233H37.4673V130.799H43.0012V125.233Z" fill="#303086"/>
    <path d="M42.848 125.388H37.5447V130.799H42.848V125.388Z" fill="#105E7C"/>
    <path d="M43.0012 119.9H37.4673V125.466H43.0012V119.9Z" fill="#54A84E"/>
    <path d="M42.848 119.977H37.5447V125.388H42.848V119.977Z" fill="#54A84E"/>
    <path d="M43.0012 114.489H37.4673V120.055H43.0012V114.489Z" fill="#54A84E"/>
    <path d="M42.848 114.566H37.5447V119.977H42.848V114.566Z" fill="#54A84E"/>
    <path d="M43.0012 109.156H37.4673V114.721H43.0012V109.156Z" fill="#54A84E"/>
    <path d="M42.848 109.233H37.5447V114.566H42.848V109.233Z" fill="#54A84E"/>
    <path d="M43.0012 103.745H37.4673V109.31H43.0012V103.745Z" fill="#54A84E"/>
    <path d="M42.848 103.822H37.5447V109.233H42.848V103.822Z" fill="#54A84E"/>
    <path d="M43.0012 98.4108H37.4673V103.976H43.0012V98.4108Z" fill="#54A84E"/>
    <path d="M42.848 98.4879H37.5447V103.899H42.848V98.4879Z" fill="#54A84E"/>
    <path d="M43.0012 92.9999H37.4673V98.5654H43.0012V92.9999Z" fill="#54A84E"/>
    <path d="M42.848 93.0778H37.5447V98.4887H42.848V93.0778Z" fill="#54A84E"/>
    <path d="M43.0012 87.6668H37.4673V93.2323H43.0012V87.6668Z" fill="#54A84E"/>
    <path d="M42.848 87.744H37.5447V93.0775H42.848V87.744Z" fill="#54A84E"/>
    <path d="M43.0012 82.256H37.4673V87.8214H43.0012V82.256Z" fill="#54A84E"/>
    <path d="M42.848 82.3331H37.5447V87.7439H42.848V82.3331Z" fill="#54A84E"/>
    <path d="M43.0012 76.9221H37.4673V82.4876H43.0012V76.9221Z" fill="#54A84E"/>
    <path d="M42.848 77.0001H37.5447V82.411H42.848V77.0001Z" fill="#54A84E"/>
    <path d="M43.0012 71.5121H37.4673V77.0775H43.0012V71.5121Z" fill="#54A84E"/>
    <path d="M42.848 71.5883H37.5447V76.9992H42.848V71.5883Z" fill="#54A84E"/>
    <path d="M43.0012 66.1782H37.4673V71.7436H43.0012V66.1782Z" fill="#54A84E"/>
    <path d="M42.848 66.2552H37.5447V71.5888H42.848V66.2552Z" fill="#54A84E"/>
    <path d="M43.0012 60.7673H37.4673V66.3328H43.0012V60.7673Z" fill="#FFE4CE"/>
    <path d="M42.848 60.8444H37.5447V66.2553H42.848V60.8444Z" fill="#FFE4CE"/>
    <path d="M43.0012 55.3563H37.4673V60.9218H43.0012V55.3563Z" fill="#FFE4CE"/>
    <path d="M42.848 55.4334H37.5447V60.8443H42.848V55.4334Z" fill="#FFE4CE"/>
    <path d="M43.0012 50.0226H37.4673V55.588H43.0012V50.0226Z" fill="#F57E77"/>
    <path d="M42.848 50.0997H37.5447V55.4332H42.848V50.0997Z" fill="#F57E77"/>
    <path d="M43.0012 44.6116H37.4673V50.177H43.0012V44.6116Z" fill="#FFE4CE"/>
    <path d="M42.848 44.6887H37.5447V50.0996H42.848V44.6887Z" fill="#FFE4CE"/>
    <path d="M43.0012 39.2786H37.4673V44.8441H43.0012V39.2786Z" fill="#FFE4CE"/>
    <path d="M42.848 39.3557H37.5447V44.7666H42.848V39.3557Z" fill="#FFE4CE"/>
    <path d="M43.0012 33.8677H37.4673V39.4331H43.0012V33.8677Z" fill="#FFE4CE"/>
    <path d="M42.848 33.9448H37.5447V39.3556H42.848V33.9448Z" fill="#FFE4CE"/>
    <path d="M43.0012 28.5339H37.4673V34.0993H43.0012V28.5339Z" fill="#66667C"/>
    <path d="M42.848 28.6118H37.5447V33.9453H42.848V28.6118Z" fill="#66667C"/>
    <path d="M43.0012 23.1229H37.4673V28.6884H43.0012V23.1229Z" fill="#FFE4CE"/>
    <path d="M42.848 23.2H37.5447V28.6109H42.848V23.2Z" fill="#FFE4CE"/>
    <path d="M43.0012 17.79H37.4673V23.3554H43.0012V17.79Z" fill="#FFE4CE"/>
    <path d="M42.848 17.8671H37.5447V23.2779H42.848V17.8671Z" fill="#FFE4CE"/>
    <path d="M43.0012 12.379H37.4673V17.9444H43.0012V12.379Z" fill="#3D041F"/>
    <path d="M42.848 12.4561H37.5447V17.8669H42.848V12.4561Z" fill="#3D041F"/>
    <path d="M43.0012 7.04524H37.4673V12.6107H43.0012V7.04524Z" fill="#621931"/>
    <path d="M42.848 7.12312H37.5447V12.4567H42.848V7.12312Z" fill="#621931"/>
    <path d="M37.6983 238.165H32.1644V243.731H37.6983V238.165Z" fill="#382A4C"/>
    <path d="M37.6214 238.243H32.2412V243.653H37.6214V238.243Z" fill="#382A4C"/>
    <path d="M37.6983 232.754H32.1644V238.319H37.6983V232.754Z" fill="#F39200"/>
    <path d="M37.6214 232.832H32.2412V238.165H37.6214V232.832Z" fill="#F39200"/>
    <path d="M37.6983 227.421H32.1644V232.986H37.6983V227.421Z" fill="#F39200"/>
    <path d="M37.6214 227.498H32.2412V232.909H37.6214V227.498Z" fill="#F39200"/>
    <path d="M37.6983 222.01H32.1644V227.575H37.6983V222.01Z" fill="#F39200"/>
    <path d="M37.6214 222.087H32.2412V227.498H37.6214V222.087Z" fill="#F39200"/>
    <path d="M37.6983 216.677H32.1644V222.242H37.6983V216.677Z" fill="#1D71B8"/>
    <path d="M37.6214 216.754H32.2412V222.165H37.6214V216.754Z" fill="#1D71B8"/>
    <path d="M37.6983 211.266H32.1644V216.831H37.6983V211.266Z" fill="#1D71B8"/>
    <path d="M37.6214 211.343H32.2412V216.677H37.6214V211.343Z" fill="#1D71B8"/>
    <path d="M37.6983 205.932H32.1644V211.498H37.6983V205.932Z" fill="#1D71B8"/>
    <path d="M37.6214 206.01H32.2412V211.421H37.6214V206.01Z" fill="#1D71B8"/>
    <path d="M37.6983 200.521H32.1644V206.087H37.6983V200.521Z" fill="#1D71B8"/>
    <path d="M37.6214 200.599H32.2412V206.01H37.6214V200.599Z" fill="#1D71B8"/>
    <path d="M37.6983 195.111H32.1644V200.677H37.6983V195.111Z" fill="#1D71B8"/>
    <path d="M37.6214 195.265H32.2412V200.676H37.6214V195.265Z" fill="#1D71B8"/>
    <path d="M37.6983 189.777H32.1644V195.343H37.6983V189.777Z" fill="#1D71B8"/>
    <path d="M37.6214 189.854H32.2412V195.188H37.6214V189.854Z" fill="#1D71B8"/>
    <path d="M37.6983 184.366H32.1644V189.932H37.6983V184.366Z" fill="#1D71B8"/>
    <path d="M37.6214 184.521H32.2412V189.932H37.6214V184.521Z" fill="#1D71B8"/>
    <path d="M37.6983 179.033H32.1644V184.599H37.6983V179.033Z" fill="#1D71B8"/>
    <path d="M37.6214 179.11H32.2412V184.52H37.6214V179.11Z" fill="#1D71B8"/>
    <path d="M37.6983 173.622H32.1644V179.188H37.6983V173.622Z" fill="#1D71B8"/>
    <path d="M37.6214 173.7H32.2412V179.033H37.6214V173.7Z" fill="#1D71B8"/>
    <path d="M37.6983 168.289H32.1644V173.854H37.6983V168.289Z" fill="#1D71B8"/>
    <path d="M37.6214 168.366H32.2412V173.776H37.6214V168.366Z" fill="#1D71B8"/>
    <path d="M37.6983 162.878H32.1644V168.443H37.6983V162.878Z" fill="#1D71B8"/>
    <path d="M37.6214 162.955H32.2412V168.366H37.6214V162.955Z" fill="#1D71B8"/>
    <path d="M37.6983 157.544H32.1644V163.109H37.6983V157.544Z" fill="#1D71B8"/>
    <path d="M37.6214 157.622H32.2412V163.033H37.6214V157.622Z" fill="#1D71B8"/>
    <path d="M37.6983 152.133H32.1644V157.698H37.6983V152.133Z" fill="#1D71B8"/>
    <path d="M37.6214 152.211H32.2412V157.544H37.6214V152.211Z" fill="#1D71B8"/>
    <path d="M37.6983 146.8H32.1644V152.365H37.6983V146.8Z" fill="#1D71B8"/>
    <path d="M37.6214 146.877H32.2412V152.288H37.6214V146.877Z" fill="#1D71B8"/>
    <path d="M37.6983 141.389H32.1644V146.954H37.6983V141.389Z" fill="#1D71B8"/>
    <path d="M37.6214 141.466H32.2412V146.877H37.6214V141.466Z" fill="#1D71B8"/>
    <path d="M37.6983 136.056H32.1644V141.621H37.6983V136.056Z" fill="#1D71B8"/>
    <path d="M37.6214 136.133H32.2412V141.544H37.6214V136.133Z" fill="#1D71B8"/>
    <path d="M37.6983 130.645H32.1644V136.211H37.6983V130.645Z" fill="#1D71B8"/>
    <path d="M37.6214 130.721H32.2412V136.055H37.6214V130.721Z" fill="#1D71B8"/>
    <path d="M37.6983 125.233H32.1644V130.799H37.6983V125.233Z" fill="#105E7C"/>
    <path d="M37.6214 125.388H32.2412V130.799H37.6214V125.388Z" fill="#105E7C"/>
    <path d="M37.6983 119.9H32.1644V125.466H37.6983V119.9Z" fill="#54A84E"/>
    <path d="M37.6214 119.977H32.2412V125.388H37.6214V119.977Z" fill="#54A84E"/>
    <path d="M37.6983 114.489H32.1644V120.055H37.6983V114.489Z" fill="#54A84E"/>
    <path d="M37.6214 114.566H32.2412V119.977H37.6214V114.566Z" fill="#54A84E"/>
    <path d="M37.6983 109.156H32.1644V114.721H37.6983V109.156Z" fill="#54A84E"/>
    <path d="M37.6214 109.233H32.2412V114.566H37.6214V109.233Z" fill="#54A84E"/>
    <path d="M37.6983 103.745H32.1644V109.31H37.6983V103.745Z" fill="#54A84E"/>
    <path d="M37.6214 103.822H32.2412V109.233H37.6214V103.822Z" fill="#54A84E"/>
    <path d="M37.6983 98.4108H32.1644V103.976H37.6983V98.4108Z" fill="#54A84E"/>
    <path d="M37.6214 98.4879H32.2412V103.899H37.6214V98.4879Z" fill="#54A84E"/>
    <path d="M37.6983 92.9999H32.1644V98.5654H37.6983V92.9999Z" fill="#54A84E"/>
    <path d="M37.6214 93.0778H32.2412V98.4887H37.6214V93.0778Z" fill="#54A84E"/>
    <path d="M37.6983 87.6668H32.1644V93.2323H37.6983V87.6668Z" fill="#54A84E"/>
    <path d="M37.6214 87.744H32.2412V93.0775H37.6214V87.744Z" fill="#54A84E"/>
    <path d="M37.6983 82.256H32.1644V87.8214H37.6983V82.256Z" fill="#54A84E"/>
    <path d="M37.6214 82.3331H32.2412V87.7439H37.6214V82.3331Z" fill="#54A84E"/>
    <path d="M37.6983 76.9221H32.1644V82.4876H37.6983V76.9221Z" fill="#54A84E"/>
    <path d="M37.6214 77.0001H32.2412V82.411H37.6214V77.0001Z" fill="#54A84E"/>
    <path d="M37.6983 71.5121H32.1644V77.0775H37.6983V71.5121Z" fill="#54A84E"/>
    <path d="M37.6214 71.5883H32.2412V76.9992H37.6214V71.5883Z" fill="#54A84E"/>
    <path d="M37.6983 66.1782H32.1644V71.7436H37.6983V66.1782Z" fill="#54A84E"/>
    <path d="M37.6214 66.2552H32.2412V71.5888H37.6214V66.2552Z" fill="#54A84E"/>
    <path d="M37.6983 60.7673H32.1644V66.3328H37.6983V60.7673Z" fill="#FFE4CE"/>
    <path d="M37.6214 60.8444H32.2412V66.2553H37.6214V60.8444Z" fill="#FFE4CE"/>
    <path d="M37.6983 44.6116H32.1644V50.177H37.6983V44.6116Z" fill="#FFE4CE"/>
    <path d="M37.6214 44.6887H32.2412V50.0996H37.6214V44.6887Z" fill="#FFE4CE"/>
    <path d="M37.6983 39.2786H32.1644V44.8441H37.6983V39.2786Z" fill="#FFE4CE"/>
    <path d="M37.6214 39.3557H32.2412V44.7666H37.6214V39.3557Z" fill="#FFE4CE"/>
    <path d="M37.6983 33.8677H32.1644V39.4331H37.6983V33.8677Z" fill="#FFE4CE"/>
    <path d="M37.6214 33.9448H32.2412V39.3556H37.6214V33.9448Z" fill="#FFE4CE"/>
    <path d="M37.6983 28.5339H32.1644V34.0993H37.6983V28.5339Z" fill="#FFE4CE"/>
    <path d="M37.6214 28.6118H32.2412V33.9453H37.6214V28.6118Z" fill="#FFE4CE"/>
    <path d="M37.6983 23.1229H32.1644V28.6884H37.6983V23.1229Z" fill="#FFE4CE"/>
    <path d="M37.6214 23.2H32.2412V28.6109H37.6214V23.2Z" fill="#FFE4CE"/>
    <path d="M37.6983 17.79H32.1644V23.3554H37.6983V17.79Z" fill="#3D041F"/>
    <path d="M37.6214 17.8671H32.2412V23.2779H37.6214V17.8671Z" fill="#3D041F"/>
    <path d="M37.6983 12.379H32.1644V17.9444H37.6983V12.379Z" fill="#621931"/>
    <path d="M37.6214 12.4561H32.2412V17.8669H37.6214V12.4561Z" fill="#621931"/>
    <path d="M37.6983 7.04524H32.1644V12.6107H37.6983V7.04524Z" fill="#621931"/>
    <path d="M37.6214 7.12312H32.2412V12.4567H37.6214V7.12312Z" fill="#621931"/>
    <path d="M32.3183 238.165H26.7844V243.731H32.3183V238.165Z" fill="#382A4C"/>
    <path d="M32.241 238.243H26.8608V243.653H32.241V238.243Z" fill="#382A4C"/>
    <path d="M32.3183 232.754H26.7844V238.319H32.3183V232.754Z" fill="#F39200"/>
    <path d="M32.241 232.832H26.8608V238.165H32.241V232.832Z" fill="#F39200"/>
    <path d="M32.3183 227.421H26.7844V232.986H32.3183V227.421Z" fill="#F39200"/>
    <path d="M32.241 227.498H26.8608V232.909H32.241V227.498Z" fill="#F39200"/>
    <path d="M32.3183 222.01H26.7844V227.575H32.3183V222.01Z" fill="#F39200"/>
    <path d="M32.241 222.087H26.8608V227.498H32.241V222.087Z" fill="#F39200"/>
    <path d="M32.3183 216.677H26.7844V222.242H32.3183V216.677Z" fill="#E17346"/>
    <path d="M32.241 216.754H26.8608V222.165H32.241V216.754Z" fill="#E17346"/>
    <path d="M32.3183 211.266H26.7844V216.831H32.3183V211.266Z" fill="#1D71B8"/>
    <path d="M32.241 211.343H26.8608V216.677H32.241V211.343Z" fill="#1D71B8"/>
    <path d="M32.3183 205.932H26.7844V211.498H32.3183V205.932Z" fill="#1D71B8"/>
    <path d="M32.241 206.01H26.8608V211.421H32.241V206.01Z" fill="#1D71B8"/>
    <path d="M32.3183 200.521H26.7844V206.087H32.3183V200.521Z" fill="#1D71B8"/>
    <path d="M32.241 200.599H26.8608V206.01H32.241V200.599Z" fill="#1D71B8"/>
    <path d="M32.3183 195.111H26.7844V200.677H32.3183V195.111Z" fill="#1D71B8"/>
    <path d="M32.241 195.265H26.8608V200.676H32.241V195.265Z" fill="#1D71B8"/>
    <path d="M32.3183 189.777H26.7844V195.343H32.3183V189.777Z" fill="#1D71B8"/>
    <path d="M32.241 189.854H26.8608V195.188H32.241V189.854Z" fill="#1D71B8"/>
    <path d="M32.3183 184.366H26.7844V189.932H32.3183V184.366Z" fill="#1D71B8"/>
    <path d="M32.241 184.521H26.8608V189.932H32.241V184.521Z" fill="#1D71B8"/>
    <path d="M32.3183 179.033H26.7844V184.599H32.3183V179.033Z" fill="#1D71B8"/>
    <path d="M32.241 179.11H26.8608V184.52H32.241V179.11Z" fill="#1D71B8"/>
    <path d="M32.3183 173.622H26.7844V179.188H32.3183V173.622Z" fill="#1D71B8"/>
    <path d="M32.241 173.7H26.8608V179.033H32.241V173.7Z" fill="#1D71B8"/>
    <path d="M32.3183 168.289H26.7844V173.854H32.3183V168.289Z" fill="#1D71B8"/>
    <path d="M32.241 168.366H26.8608V173.776H32.241V168.366Z" fill="#1D71B8"/>
    <path d="M32.3183 162.878H26.7844V168.443H32.3183V162.878Z" fill="#1D71B8"/>
    <path d="M32.241 162.955H26.8608V168.366H32.241V162.955Z" fill="#1D71B8"/>
    <path d="M32.3183 157.544H26.7844V163.109H32.3183V157.544Z" fill="#1D71B8"/>
    <path d="M32.241 157.622H26.8608V163.033H32.241V157.622Z" fill="#1D71B8"/>
    <path d="M32.3183 152.133H26.7844V157.698H32.3183V152.133Z" fill="#1D71B8"/>
    <path d="M32.241 152.211H26.8608V157.544H32.241V152.211Z" fill="#1D71B8"/>
    <path d="M32.3183 146.8H26.7844V152.365H32.3183V146.8Z" fill="#1D71B8"/>
    <path d="M32.241 146.877H26.8608V152.288H32.241V146.877Z" fill="#1D71B8"/>
    <path d="M32.3183 141.389H26.7844V146.954H32.3183V141.389Z" fill="#1D71B8"/>
    <path d="M32.241 141.466H26.8608V146.877H32.241V141.466Z" fill="#1D71B8"/>
    <path d="M32.3183 136.056H26.7844V141.621H32.3183V136.056Z" fill="#105E7C"/>
    <path d="M32.3183 130.645H26.7844V136.211H32.3183V130.645Z" fill="#105E7C"/>
    <path d="M32.3183 125.233H26.7844V130.799H32.3183V125.233Z" fill="#105E7C"/>
    <path d="M32.241 136.133H26.8608V141.544H32.241V136.133Z" fill="#105E7C"/>
    <path d="M32.241 130.722H26.8608V136.056H32.241V130.722Z" fill="#105E7C"/>
    <path d="M32.241 125.388H26.8608V130.799H32.241V125.388Z" fill="#105E7C"/>
    <path d="M32.3183 119.9H26.7844V125.466H32.3183V119.9Z" fill="#54A84E"/>
    <path d="M32.241 119.977H26.8608V125.388H32.241V119.977Z" fill="#54A84E"/>
    <path d="M32.3183 114.489H26.7844V120.055H32.3183V114.489Z" fill="#54A84E"/>
    <path d="M32.241 114.566H26.8608V119.977H32.241V114.566Z" fill="#54A84E"/>
    <path d="M32.3183 109.156H26.7844V114.721H32.3183V109.156Z" fill="#54A84E"/>
    <path d="M32.241 109.233H26.8608V114.566H32.241V109.233Z" fill="#54A84E"/>
    <path d="M32.3183 103.745H26.7844V109.31H32.3183V103.745Z" fill="#54A84E"/>
    <path d="M32.241 103.822H26.8608V109.233H32.241V103.822Z" fill="#54A84E"/>
    <path d="M32.3183 98.4108H26.7844V103.976H32.3183V98.4108Z" fill="#54A84E"/>
    <path d="M32.241 98.4879H26.8608V103.899H32.241V98.4879Z" fill="#54A84E"/>
    <path d="M32.3183 92.9999H26.7844V98.5654H32.3183V92.9999Z" fill="#54A84E"/>
    <path d="M32.241 93.0778H26.8608V98.4887H32.241V93.0778Z" fill="#54A84E"/>
    <path d="M32.3183 87.6668H26.7844V93.2323H32.3183V87.6668Z" fill="#54A84E"/>
    <path d="M32.241 87.744H26.8608V93.0775H32.241V87.744Z" fill="#54A84E"/>
    <path d="M32.3183 82.256H26.7844V87.8214H32.3183V82.256Z" fill="#376732"/>
    <path d="M32.241 82.3331H26.8608V87.7439H32.241V82.3331Z" fill="#376732"/>
    <path d="M32.3183 76.9221H26.7844V82.4876H32.3183V76.9221Z" fill="#54A84E"/>
    <path d="M32.241 77.0001H26.8608V82.411H32.241V77.0001Z" fill="#54A84E"/>
    <path d="M32.3183 71.5121H26.7844V77.0775H32.3183V71.5121Z" fill="#54A84E"/>
    <path d="M32.241 71.5883H26.8608V76.9992H32.241V71.5883Z" fill="#54A84E"/>
    <path d="M32.3183 66.1782H26.7844V71.7436H32.3183V66.1782Z" fill="#54A84E"/>
    <path d="M32.241 66.2552H26.8608V71.5888H32.241V66.2552Z" fill="#54A84E"/>
    <path d="M32.3183 60.7673H26.7844V66.3328H32.3183V60.7673Z" fill="#54A84E"/>
    <path d="M32.241 60.8444H26.8608V66.2553H32.241V60.8444Z" fill="#54A84E"/>
    <path d="M32.3183 39.2786H26.7844V44.8441H32.3183V39.2786Z" fill="#F57E77"/>
    <path d="M32.241 39.3557H26.8608V44.7666H32.241V39.3557Z" fill="#F57E77"/>
    <path d="M32.3183 33.8677H26.7844V39.4331H32.3183V33.8677Z" fill="#3D041F"/>
    <path d="M32.241 33.9448H26.8608V39.3556H32.241V33.9448Z" fill="#3D041F"/>
    <path d="M32.3183 28.5339H26.7844V34.0993H32.3183V28.5339Z" fill="#3D041F"/>
    <path d="M32.241 28.6118H26.8608V33.9453H32.241V28.6118Z" fill="#3D041F"/>
    <path d="M32.3183 23.1229H26.7844V28.6884H32.3183V23.1229Z" fill="#621931"/>
    <path d="M32.241 23.2H26.8608V28.6109H32.241V23.2Z" fill="#621931"/>
    <path d="M32.3183 17.79H26.7844V23.3554H32.3183V17.79Z" fill="#621931"/>
    <path d="M32.241 17.8671H26.8608V23.2779H32.241V17.8671Z" fill="#621931"/>
    <path d="M32.3183 12.379H26.7844V17.9444H32.3183V12.379Z" fill="#621931"/>
    <path d="M32.241 12.4561H26.8608V17.8669H32.241V12.4561Z" fill="#621931"/>
    <path d="M27.0145 238.165H21.4806V243.731H27.0145V238.165Z" fill="#382A4C"/>
    <path d="M26.9383 238.243H21.5581V243.653H26.9383V238.243Z" fill="#382A4C"/>
    <path d="M27.0145 232.754H21.4806V238.319H27.0145V232.754Z" fill="#E7E0D4"/>
    <path d="M26.9383 232.832H21.5581V238.165H26.9383V232.832Z" fill="#E7E0D4"/>
    <path d="M27.0145 227.421H21.4806V232.986H27.0145V227.421Z" fill="#F39200"/>
    <path d="M26.9383 227.498H21.5581V232.909H26.9383V227.498Z" fill="#F39200"/>
    <path d="M27.0145 216.677H21.4806V222.242H27.0145V216.677Z" fill="#F39200"/>
    <path d="M26.9383 216.754H21.5581V222.165H26.9383V216.754Z" fill="#F39200"/>
    <path d="M27.0145 76.9221H21.4806V82.4876H27.0145V76.9221Z" fill="#376732"/>
    <path d="M26.9383 77.0001H21.5581V82.411H26.9383V77.0001Z" fill="#376732"/>
    <path d="M27.0145 71.5121H21.4806V77.0775H27.0145V71.5121Z" fill="#54A84E"/>
    <path d="M26.9383 71.5883H21.5581V76.9992H26.9383V71.5883Z" fill="#54A84E"/>
    <path d="M27.0145 66.1782H21.4806V71.7436H27.0145V66.1782Z" fill="#54A84E"/>
    <path d="M26.9383 66.2552H21.5581V71.5888H26.9383V66.2552Z" fill="#54A84E"/>
    <path d="M27.0145 60.7673H21.4806V66.3328H27.0145V60.7673Z" fill="#54A84E"/>
    <path d="M26.9383 60.8444H21.5581V66.2553H26.9383V60.8444Z" fill="#54A84E"/>
    <path d="M27.0145 33.8677H21.4806V39.4331H27.0145V33.8677Z" fill="#F57E77"/>
    <path d="M26.9383 33.9448H21.5581V39.3556H26.9383V33.9448Z" fill="#F57E77"/>
    <path d="M27.0145 28.5339H21.4806V34.0993H27.0145V28.5339Z" fill="#FFE4CE"/>
    <path d="M26.9383 28.6118H21.5581V33.9453H26.9383V28.6118Z" fill="#FFE4CE"/>
    <path d="M27.0145 23.1229H21.4806V28.6884H27.0145V23.1229Z" fill="#3D041F"/>
    <path d="M26.9383 23.2H21.5581V28.6109H26.9383V23.2Z" fill="#3D041F"/>
    <path d="M21.6342 238.165H16.1003V243.731H21.6342V238.165Z" fill="#382A4C"/>
    <path d="M21.4813 238.243H16.178V243.653H21.4813V238.243Z" fill="#382A4C"/>
    <path d="M21.6342 232.754H16.1003V238.319H21.6342V232.754Z" fill="white"/>
    <path d="M21.4813 232.832H16.178V238.165H21.4813V232.832Z" fill="white"/>
    <path d="M21.6342 227.421H16.1003V232.986H21.6342V227.421Z" fill="#E7E0D4"/>
    <path d="M21.4813 227.498H16.178V232.909H21.4813V227.498Z" fill="#E7E0D4"/>
    <path d="M21.6342 76.9221H16.1003V82.4876H21.6342V76.9221Z" fill="#54A84E"/>
    <path d="M21.4813 77.0001H16.178V82.411H21.4813V77.0001Z" fill="#54A84E"/>
    <path d="M21.6342 71.5121H16.1003V77.0775H21.6342V71.5121Z" fill="#54A84E"/>
    <path d="M21.4813 71.5883H16.178V76.9992H21.4813V71.5883Z" fill="#54A84E"/>
    <path d="M21.6342 66.1782H16.1003V71.7436H21.6342V66.1782Z" fill="#54A84E"/>
    <path d="M21.4813 66.2552H16.178V71.5888H21.4813V66.2552Z" fill="#54A84E"/>
    <path d="M16.3315 238.165H10.7976V243.731H16.3315V238.165Z" fill="#382A4C"/>
    <path d="M16.2545 238.243H10.8744V243.653H16.2545V238.243Z" fill="#382A4C"/>
    <path d="M16.3315 232.754H10.7976V238.319H16.3315V232.754Z" fill="white"/>
    <path d="M16.2545 232.832H10.8744V238.165H16.2545V232.832Z" fill="white"/>
    <path d="M16.3315 227.421H10.7976V232.986H16.3315V227.421Z" fill="white"/>
    <path d="M16.2545 227.498H10.8744V232.909H16.2545V227.498Z" fill="white"/>
    <path d="M16.3315 76.9221H10.7976V82.4876H16.3315V76.9221Z" fill="#54A84E"/>
    <path d="M16.2545 77.0001H10.8744V82.411H16.2545V77.0001Z" fill="#54A84E"/>
    <path d="M10.7976 60.095H0.115601V82.4106H10.7976V60.095Z" fill="#54A84E"/>
    <path d="M90.8829 59.2684H80.2009V81.584H90.8829V59.2684Z" fill="#54A84E"/>
    <path d="M16.3315 71.5121H10.7976V77.0775H16.3315V71.5121Z" fill="#54A84E"/>
    <path d="M16.2545 71.5883H10.8744V76.9992H16.2545V71.5883Z" fill="#54A84E"/>
    <path d="M16.3315 66.1782H10.7976V71.7436H16.3315V66.1782Z" fill="#54A84E"/>
    <path d="M16.2545 66.2552H10.8744V71.5888H16.2545V66.2552Z" fill="#54A84E"/>
    <path d="M10.9514 238.165H5.41748V243.731H10.9514V238.165Z" fill="#382A4C"/>
    <path d="M10.8743 238.243H5.49414V243.653H10.8743V238.243Z" fill="#382A4C"/>
    <path d="M16.1794 11.3974L10.8761 11.3974L10.8761 5.98659L16.1794 5.98659L16.1794 11.3974Z" fill="#FFE4CE"/>
    <path d="M16.3331 16.8863L10.7992 16.8863L10.7992 11.3209L16.3331 11.3209L16.3331 16.8863Z" fill="#F57E77"/>
    <path d="M10.9525 6.06447L5.57239 6.06447L5.57239 0.730934L10.9525 0.730933L10.9525 6.06447Z" fill="#FFE4CE"/>
    <path d="M10.9525 11.3974L5.57239 11.3974L5.57239 5.98659L10.9525 5.98659L10.9525 11.3974Z" fill="#FFE4CE"/>
    <path d="M11.0297 16.8863L5.49585 16.8863L5.49585 11.3209L11.0297 11.3209L11.0297 16.8863Z" fill="#FFE4CE"/>
    <path d="M10.9525 16.8084L5.57239 16.8084L5.57239 11.3976L10.9525 11.3976L10.9525 16.8084Z" fill="#FFE4CE"/>
    <path d="M11.0297 22.2193L5.49585 22.2193L5.49585 16.6538L11.0297 16.6538L11.0297 22.2193Z" fill="#F57E77"/>
    <path d="M10.9525 22.1422L5.57239 22.1422L5.57239 16.7313L10.9525 16.7313L10.9525 22.1422Z" fill="#F57E77"/>
    <path d="M11.0297 27.6302L5.49585 27.6302L5.49585 22.0648L11.0297 22.0648L11.0297 27.6302Z" fill="#105E7C"/>
    <path d="M10.9525 30.2773L5.57239 30.2773L5.57239 20.2326L10.9525 20.2326L10.9525 30.2773Z" fill="#F57E77"/>
    <path d="M11.0297 33.0411L5.49585 33.0411L5.49585 27.4757L11.0297 27.4756L11.0297 33.0411Z" fill="#F57E77"/>
    <path d="M10.9525 32.8861L5.57239 32.8861L5.57239 27.4753L10.9525 27.4753L10.9525 32.8861Z" fill="#F57E77"/>
    <path d="M11.0297 38.3742L5.49585 38.3742L5.49585 32.8087L11.0297 32.8087L11.0297 38.3742Z" fill="#F57E77"/>
    <path d="M10.9525 38.297L5.57239 38.297L5.57239 32.8861L10.9525 32.8861L10.9525 38.297Z" fill="#F57E77"/>
    <path d="M11.0297 43.785L5.49585 43.785L5.49585 38.2196L11.0297 38.2196L11.0297 43.785Z" fill="#F57E77"/>
    <path d="M10.9525 43.7079L5.57239 43.7079L5.57239 38.2971L10.9525 38.2971L10.9525 43.7079Z" fill="#F57E77"/>
    <path d="M11.0297 49.1189L5.49585 49.1189L5.49585 43.5535L11.0297 43.5535L11.0297 49.1189Z" fill="#F57E77"/>
    <path d="M10.9525 49.0418L5.57239 49.0418L5.57239 43.7083L10.9525 43.7083L10.9525 49.0418Z" fill="#F57E77"/>
    <path d="M11.0297 54.5298L5.49585 54.5298L5.49585 48.9643L11.0297 48.9643L11.0297 54.5298Z" fill="#F57E77"/>
    <path d="M10.9525 54.4527L5.57239 54.4527L5.57239 49.0418L10.9525 49.0418L10.9525 54.4527Z" fill="#F57E77"/>
    <path d="M11.0297 59.8636L5.49585 59.8636L5.49585 54.2982L11.0297 54.2982L11.0297 59.8636Z" fill="#F57E77"/>
    <path d="M10.9525 59.7858L5.57239 59.7858L5.57239 54.3749L10.9525 54.3749L10.9525 59.7858Z" fill="#F57E77"/>
    <path d="M5.57229 6.06447L0.192139 6.06447L0.192138 0.730934L5.57229 0.730933L5.57229 6.06447Z" fill="#FFE4CE"/>
    <path d="M5.64947 11.4745L0.115601 11.4745L0.1156 5.9091L5.64947 5.9091L5.64947 11.4745Z" fill="#FFE4CE"/>
    <path d="M5.64947 16.8863L0.115601 16.8863L0.1156 11.3209L5.64947 11.3209L5.64947 16.8863Z" fill="#FFE4CE"/>
    <path d="M5.57229 16.8084L0.192139 16.8084L0.192138 11.3976L5.57229 11.3976L5.57229 16.8084Z" fill="#FFE4CE"/>
    <path d="M5.64947 22.2193L0.115601 22.2193L0.1156 16.6538L5.64947 16.6538L5.64947 22.2193Z" fill="#FFE4CE"/>
    <path d="M5.57229 22.1422L0.192139 22.1422L0.192138 16.7313L5.57229 16.7313L5.57229 22.1422Z" fill="#FFE4CE"/>
    <path d="M5.64947 27.6302L0.115601 27.6302L0.1156 22.0648L5.64947 22.0648L5.64947 27.6302Z" fill="#303086"/>
    <path d="M5.57229 32.4393L0.192139 32.4393L0.192138 19.6419L5.57229 19.6419L5.57229 32.4393Z" fill="#FFE4CE"/>
    <path d="M5.64947 33.042L0.115601 33.042L0.1156 27.4766L5.64947 27.4766L5.64947 33.042Z" fill="#FFE4CE"/>
    <path d="M5.57229 32.8861L0.192139 32.8861L0.192138 27.4753L5.57229 27.4753L5.57229 32.8861Z" fill="#FFE4CE"/>
    <path d="M5.64947 38.3742L0.115601 38.3742L0.1156 32.8087L5.64947 32.8087L5.64947 38.3742Z" fill="#FFE4CE"/>
    <path d="M5.57229 38.297L0.192139 38.297L0.192138 32.8861L5.57229 32.8861L5.57229 38.297Z" fill="#FFE4CE"/>
    <path d="M5.64947 43.7859L0.115601 43.7859L0.1156 38.2205L5.64947 38.2205L5.64947 43.7859Z" fill="#FFE4CE"/>
    <path d="M5.57229 43.7079L0.192139 43.7079L0.192138 38.2971L5.57229 38.2971L5.57229 43.7079Z" fill="#FFE4CE"/>
    <path d="M5.64947 49.1189L0.115601 49.1189L0.1156 43.5535L5.64947 43.5535L5.64947 49.1189Z" fill="#FFE4CE"/>
    <path d="M5.57229 49.0418L0.192139 49.0418L0.192138 43.7083L5.57229 43.7083L5.57229 49.0418Z" fill="#FFE4CE"/>
    <path d="M5.64947 54.5298L0.115601 54.5298L0.1156 48.9643L5.64947 48.9643L5.64947 54.5298Z" fill="#FFE4CE"/>
    <path d="M5.57229 54.4527L0.192139 54.4527L0.192138 49.0418L5.57229 49.0418L5.57229 54.4527Z" fill="#FFE4CE"/>
    <path d="M5.64947 59.8637L0.115601 59.8637L0.1156 54.2982L5.64947 54.2982L5.64947 59.8637Z" fill="#FFE4CE"/>
    <path d="M5.57229 59.7858L0.192139 59.7858L0.192138 54.375L5.57229 54.375L5.57229 59.7858Z" fill="#FFE4CE"/>
    <path d="M75.0518 12.4173L80.3551 12.4173L80.3551 7.00645L75.0518 7.00644L75.0518 12.4173Z" fill="#FFE4CE"/>
    <path d="M74.8979 17.906L80.4318 17.906L80.4318 12.3406L74.8979 12.3406L74.8979 17.906Z" fill="#F57E77"/>
    <path d="M80.2785 7.0842L85.6587 7.0842L85.6587 1.75066L80.2785 1.75066L80.2785 7.0842Z" fill="#FFE4CE"/>
    <path d="M80.2785 12.4173L85.6587 12.4173L85.6587 7.00645L80.2785 7.00644L80.2785 12.4173Z" fill="#FFE4CE"/>
    <path d="M80.2015 17.906L85.7354 17.906L85.7354 12.3406L80.2015 12.3406L80.2015 17.906Z" fill="#FFE4CE"/>
    <path d="M80.2785 17.8281L85.6587 17.8281L85.6587 12.4173L80.2785 12.4173L80.2785 17.8281Z" fill="#FFE4CE"/>
    <path d="M80.2015 23.2391L85.7354 23.2391L85.7354 17.6737L80.2015 17.6737L80.2015 23.2391Z" fill="#F57E77"/>
    <path d="M80.2785 23.162L85.6587 23.162L85.6587 17.7512L80.2785 17.7512L80.2785 23.162Z" fill="#F57E77"/>
    <path d="M80.2015 28.65L85.7354 28.65L85.7354 23.0845L80.2015 23.0845L80.2015 28.65Z" fill="#105E7C"/>
    <path d="M80.2785 31.0541L85.6587 31.0541L85.6587 21.5931L80.2785 21.5931L80.2785 31.0541Z" fill="#F57E77"/>
    <path d="M80.2015 34.0609L85.7354 34.0609L85.7354 28.4955L80.2015 28.4955L80.2015 34.0609Z" fill="#F57E77"/>
    <path d="M80.2785 33.9058L85.6587 33.9058L85.6587 28.495L80.2785 28.495L80.2785 33.9058Z" fill="#F57E77"/>
    <path d="M80.2015 39.3939L85.7354 39.3939L85.7354 33.8285L80.2015 33.8285L80.2015 39.3939Z" fill="#F57E77"/>
    <path d="M80.2785 39.3168L85.6587 39.3168L85.6587 33.906L80.2785 33.906L80.2785 39.3168Z" fill="#F57E77"/>
    <path d="M80.2015 44.8049L85.7354 44.8049L85.7354 39.2394L80.2015 39.2394L80.2015 44.8049Z" fill="#F57E77"/>
    <path d="M80.2785 44.7278L85.6587 44.7278L85.6587 39.3169L80.2785 39.3169L80.2785 44.7278Z" fill="#F57E77"/>
    <path d="M80.2015 50.1386L85.7354 50.1386L85.7354 44.5732L80.2015 44.5732L80.2015 50.1386Z" fill="#F57E77"/>
    <path d="M80.2785 50.0616L85.6587 50.0616L85.6587 44.728L80.2785 44.728L80.2785 50.0616Z" fill="#F57E77"/>
    <path d="M80.2015 55.5496L85.7354 55.5496L85.7354 49.9842L80.2015 49.9842L80.2015 55.5496Z" fill="#F57E77"/>
    <path d="M80.2785 55.4725L85.6587 55.4725L85.6587 50.0617L80.2785 50.0617L80.2785 55.4725Z" fill="#F57E77"/>
    <path d="M80.2015 60.8834L85.7354 60.8834L85.7354 55.3179L80.2015 55.3179L80.2015 60.8834Z" fill="#F57E77"/>
    <path d="M80.2785 60.8055L85.6587 60.8055L85.6587 55.3947L80.2785 55.3947L80.2785 60.8055Z" fill="#F57E77"/>
    <path d="M85.6588 7.0842L91.0389 7.0842L91.0389 1.75066L85.6588 1.75066L85.6588 7.0842Z" fill="#FFE4CE"/>
    <path d="M85.5817 12.4944L91.1156 12.4944L91.1156 6.92895L85.5817 6.92895L85.5817 12.4944Z" fill="#FFE4CE"/>
    <path d="M85.5817 17.9061L91.1156 17.9061L91.1156 12.3407L85.5817 12.3407L85.5817 17.9061Z" fill="#FFE4CE"/>
    <path d="M85.6588 17.8281L91.0389 17.8281L91.0389 12.4173L85.6588 12.4173L85.6588 17.8281Z" fill="#FFE4CE"/>
    <path d="M85.5817 23.2391L91.1156 23.2391L91.1156 17.6737L85.5817 17.6737L85.5817 23.2391Z" fill="#FFE4CE"/>
    <path d="M85.6588 23.162L91.0389 23.162L91.0389 17.7512L85.6588 17.7512L85.6588 23.162Z" fill="#FFE4CE"/>
    <path d="M85.5817 28.65L91.1156 28.65L91.1156 23.0845L85.5817 23.0845L85.5817 28.65Z" fill="#303086"/>
    <path d="M85.6588 32.4386L91.0389 32.4386L91.0389 21.0161L85.6588 21.0161L85.6588 32.4386Z" fill="#FFE4CE"/>
    <path d="M85.5817 34.0617L91.1156 34.0617L91.1156 28.4963L85.5817 28.4963L85.5817 34.0617Z" fill="#FFE4CE"/>
    <path d="M85.6588 33.9058L91.0389 33.9058L91.0389 28.495L85.6588 28.495L85.6588 33.9058Z" fill="#FFE4CE"/>
    <path d="M85.5817 39.3939L91.1156 39.3939L91.1156 33.8285L85.5817 33.8285L85.5817 39.3939Z" fill="#FFE4CE"/>
    <path d="M85.6588 39.3168L91.0389 39.3168L91.0389 33.906L85.6588 33.906L85.6588 39.3168Z" fill="#FFE4CE"/>
    <path d="M85.5817 44.8057L91.1156 44.8057L91.1156 39.2402L85.5817 39.2402L85.5817 44.8057Z" fill="#FFE4CE"/>
    <path d="M85.6588 44.7278L91.0389 44.7278L91.0389 39.3169L85.6588 39.3169L85.6588 44.7278Z" fill="#FFE4CE"/>
    <path d="M85.5817 50.1386L91.1156 50.1386L91.1156 44.5732L85.5817 44.5732L85.5817 50.1386Z" fill="#FFE4CE"/>
    <path d="M85.6588 50.0616L91.0389 50.0616L91.0389 44.728L85.6588 44.728L85.6588 50.0616Z" fill="#FFE4CE"/>
    <path d="M85.5817 55.5496L91.1156 55.5496L91.1156 49.9842L85.5817 49.9842L85.5817 55.5496Z" fill="#FFE4CE"/>
    <path d="M85.6588 55.4725L91.0389 55.4725L91.0389 50.0617L85.6588 50.0617L85.6588 55.4725Z" fill="#FFE4CE"/>
    <path d="M85.5816 60.8834L91.1155 60.8834L91.1155 55.3179L85.5816 55.3179L85.5816 60.8834Z" fill="#FFE4CE"/>
    <path d="M85.6588 60.8055L91.0389 60.8055L91.0389 55.3947L85.6588 55.3947L85.6588 60.8055Z" fill="#FFE4CE"/>
    <path d="M21.6348 77.1028H16.2546V82.5137H21.6348V77.1028Z" fill="#376732"/>
</svg>
