<svg width="39" height="38" viewBox="0 0 39 38" fill="none" xmlns="http://www.w3.org/2000/svg">
    <path d="M34.4311 9.56645C34.5828 9.56645 34.7344 9.56645 34.8861 9.56645C34.8976 9.57508 34.8926 9.58802 34.8933 9.59953C34.894 9.61391 34.8933 9.62829 34.8933 9.64267C34.8933 16.8016 34.8933 23.9613 34.8933 31.1202C34.8933 31.1439 34.8933 31.1677 34.8933 31.1885C34.889 31.1921 34.8875 31.195 34.8853 31.195C24.4149 31.195 13.9452 31.195 3.47482 31.195C3.47338 31.195 3.47121 31.1921 3.46832 31.1892C3.46832 23.3702 3.46832 15.5504 3.46832 7.73141C3.47121 7.72854 3.47266 7.72566 3.4741 7.72566C3.47915 7.72494 3.48349 7.72566 3.48854 7.72566C3.63079 7.72566 3.77233 7.72566 3.91458 7.72566C3.92685 7.73213 3.93769 7.74004 3.94274 7.7537C3.96007 7.89608 3.94852 8.03845 3.94996 8.18082C3.94996 8.19017 3.94996 8.1988 3.94996 8.20815C3.95285 8.35556 3.95213 8.50224 3.94996 8.64965C3.95429 9.18751 3.95068 9.72536 3.95213 10.2632C3.95213 10.3373 3.95429 10.4113 3.95068 10.4854C3.95357 10.5264 3.95213 10.5667 3.95213 10.6076C3.95213 11.5877 3.95213 12.5678 3.95213 13.5479C3.95213 13.5881 3.9478 13.6291 3.96296 13.6672C3.99906 13.6931 4.03878 13.6831 4.07633 13.6852C4.17887 13.6924 4.28285 13.6701 4.38466 13.7003C4.39261 13.7061 4.39838 13.7133 4.40272 13.7219C4.41716 13.8707 4.42582 14.0196 4.39694 14.1677C4.37167 14.1929 4.33917 14.1878 4.30812 14.1886C4.21642 14.1893 4.12543 14.1886 4.03373 14.1893C4.00773 14.1893 3.97957 14.185 3.96079 14.2101C3.93696 14.2878 3.95357 14.3669 3.94996 14.4453C3.94707 14.5049 3.95141 14.5646 3.94852 14.6243C3.94852 14.6336 3.94852 14.6423 3.94852 14.6516C3.95141 14.799 3.95068 14.9464 3.94852 15.0938C3.95285 15.132 3.95068 15.1708 3.95068 15.2089C3.95068 20.325 3.95068 25.4411 3.95068 30.5579C3.95068 30.6054 3.94419 30.6535 3.96224 30.6974C4.00123 30.7211 4.04022 30.7139 4.07777 30.7139C4.76593 30.7147 5.45409 30.7139 6.14225 30.7139C6.1733 30.7139 6.20507 30.7132 6.23612 30.7161C6.27945 30.7125 6.32277 30.7139 6.3661 30.7139C8.4508 30.7139 10.5355 30.7139 12.6195 30.7139C12.6483 30.7139 12.6772 30.7132 12.7061 30.7161C12.7494 30.7125 12.7928 30.7139 12.8361 30.7139C19.974 30.7139 27.112 30.7139 34.2506 30.7139C34.2961 30.7139 34.3416 30.719 34.3842 30.7039C34.4066 30.6507 34.4275 12.6174 34.4073 12.4161C34.4051 12.3938 34.4001 12.3737 34.369 12.3521C34.2802 12.3478 34.1798 12.3521 34.0795 12.3499C34.0419 12.3492 34.0029 12.3564 33.9683 12.3348C33.9654 12.3312 33.9596 12.3283 33.9589 12.324C33.9408 12.1723 33.9322 12.0206 33.9632 11.8689C33.9986 11.8401 34.0405 11.848 34.0809 11.8466C34.1835 11.843 34.2867 11.8523 34.3849 11.8401C34.4131 11.7962 34.4051 11.7545 34.4051 11.715C34.4059 11.0427 34.4051 10.3711 34.4059 9.69876C34.4059 9.65849 34.4001 9.61678 34.4189 9.57867C34.4246 9.57364 34.4283 9.57004 34.4311 9.56645Z" fill="black"/>
    <path d="M4.37729 7.26572C4.38234 7.26572 4.38668 7.26572 4.39173 7.26572C4.41267 7.2463 4.43939 7.24415 4.46611 7.24271C4.49499 7.24199 4.52387 7.24199 4.55276 7.24199C9.68326 7.24199 14.8138 7.24199 19.9443 7.24271C19.9984 7.24271 20.0555 7.22833 20.1053 7.26572C20.1327 7.29808 20.127 7.33762 20.1277 7.37502C20.1306 7.47928 20.1219 7.58354 20.1335 7.68277C20.166 7.70866 20.1984 7.70291 20.2288 7.70291C20.3147 7.70362 20.4006 7.70291 20.4866 7.70362C20.5154 7.70362 20.5443 7.70506 20.5674 7.72592C20.5682 7.73023 20.5696 7.73454 20.5703 7.73886C20.5674 7.74173 20.5645 7.74533 20.5617 7.74821C20.5544 7.75252 20.5458 7.75612 20.5371 7.75827C20.4302 7.7669 20.3234 7.75971 20.2165 7.76259C20.1862 7.76331 20.1544 7.75755 20.1277 7.77841C20.1067 7.79998 20.1111 7.8273 20.1111 7.85319C20.1103 7.9366 20.1118 8.02073 20.1104 8.10414C20.1104 8.1329 20.1118 8.16238 20.0901 8.18755C20.0533 8.21487 20.0093 8.2084 19.9667 8.2084C19.5991 8.20912 19.2316 8.2084 18.864 8.20912C18.8286 8.20912 18.7918 8.20337 18.7579 8.22207C18.7355 8.25658 18.7427 8.29541 18.7427 8.33352C18.742 8.85771 18.7427 9.38119 18.742 9.90538C18.742 9.9478 18.7499 9.99238 18.7218 10.0305C18.69 10.0528 18.6532 10.0499 18.6171 10.0499C16.6826 10.0506 14.7481 10.0499 12.8136 10.0499C12.7774 10.0499 12.7406 10.0535 12.7089 10.0312C12.6785 9.99095 12.6879 9.94421 12.6879 9.89891C12.6872 9.23018 12.6879 8.56146 12.6872 7.89274C12.6872 7.85463 12.6937 7.8158 12.6749 7.77841C12.6359 7.75396 12.5911 7.76331 12.5493 7.76331C11.1123 7.76259 9.67532 7.76259 8.23834 7.76259C7.00861 7.76259 5.77816 7.76259 4.54843 7.76259C4.50293 7.76259 4.45672 7.76762 4.41195 7.75396C4.40256 7.75036 4.39534 7.74389 4.38956 7.73598C4.39101 7.73095 4.39173 7.72663 4.39317 7.7216C4.39679 7.71872 4.40112 7.71585 4.40473 7.71297C4.456 7.69356 4.50943 7.70147 4.56215 7.70147C8.8023 7.70075 13.0432 7.70147 17.2833 7.70147C18.1665 7.70147 19.0496 7.70147 19.9327 7.70147C19.9732 7.70147 20.0143 7.70866 20.0612 7.68205C20.0706 7.56413 20.0714 7.44117 20.0612 7.32252C20.0121 7.2952 19.9681 7.30311 19.9255 7.30311C18.7629 7.30239 17.6011 7.30311 16.4385 7.30311C12.4771 7.30311 8.51635 7.30311 4.55492 7.30311C4.50438 7.30311 4.45383 7.30814 4.40401 7.29592C4.38884 7.29017 4.37657 7.2837 4.37729 7.26572Z" fill="#C57915"/>
    <path d="M20.1045 7.26562C14.8671 7.26562 9.62904 7.26562 4.39166 7.26562C4.39166 7.11462 4.39166 6.96362 4.39166 6.81262C4.40033 6.80111 4.41333 6.80614 4.42488 6.80542C4.43932 6.80471 4.45376 6.80542 4.4682 6.80542C9.65503 6.80542 14.8419 6.80542 20.028 6.80542C20.0518 6.80542 20.0756 6.80542 20.0973 6.80542C20.1009 6.80902 20.1045 6.81046 20.1045 6.81262C20.1052 6.81765 20.1045 6.82196 20.1045 6.827C20.1045 6.97297 20.1045 7.11965 20.1045 7.26562Z" fill="black"/>
    <path d="M21.491 8.646C25.6489 8.646 29.806 8.646 33.9609 8.646C33.9653 8.65031 33.9682 8.65175 33.9689 8.65319C33.9696 8.65822 33.9689 8.66253 33.9689 8.66757C33.9689 8.81354 33.9689 8.96022 33.9689 9.10619C33.9653 9.10907 33.9617 9.11266 33.958 9.11554C33.9097 9.13711 33.8584 9.1292 33.8086 9.1292C31.0437 9.12345 28.2787 9.12777 25.5138 9.12633C24.2191 9.12561 22.9244 9.12633 21.6297 9.12633C21.5892 9.12633 21.5481 9.13064 21.5076 9.12057C21.4983 9.1177 21.491 9.11195 21.4845 9.10476C21.4614 9.05945 21.4701 9.01056 21.4715 8.9631C21.4744 8.86028 21.4585 8.75745 21.4816 8.65534C21.4845 8.65247 21.4881 8.64959 21.491 8.646Z" fill="black"/>
    <path d="M20.5669 7.72582C20.4138 7.72582 20.2614 7.72582 20.1105 7.72582C20.1069 7.72007 20.1047 7.71863 20.1047 7.71647C20.1047 7.56619 20.1047 7.41591 20.1047 7.26562C20.2578 7.26562 20.4102 7.26562 20.5611 7.26562C20.5647 7.27138 20.5669 7.27282 20.5669 7.27497C20.5669 7.42526 20.5669 7.57554 20.5669 7.72582Z" fill="black"/>
    <path d="M21.0289 8.18604C21.182 8.18604 21.3344 8.18604 21.4853 8.18604C21.4889 8.19179 21.4911 8.19323 21.4911 8.19538C21.4911 8.34567 21.4911 8.49595 21.4911 8.64623C21.4853 8.65055 21.4802 8.65702 21.473 8.65774C21.325 8.66924 21.1762 8.67931 21.0282 8.65198C21.0217 8.64479 21.0145 8.63688 21.0137 8.62754C21.0072 8.48373 20.9979 8.33991 21.0188 8.1961C21.0224 8.19323 21.026 8.18963 21.0289 8.18604Z" fill="black"/>
    <path d="M20.5668 7.73997C20.5668 7.73493 20.5668 7.73062 20.5668 7.72559C20.7199 7.72559 20.8722 7.72559 21.0231 7.72559C21.0268 7.73134 21.0289 7.73278 21.0289 7.73493C21.0289 7.88522 21.0289 8.0355 21.0289 8.18578C21.0253 8.18866 21.0217 8.19369 21.0174 8.19441C20.8672 8.21886 20.7177 8.20376 20.5682 8.19657C20.561 8.18363 20.5538 8.17572 20.5531 8.16637C20.5415 8.03478 20.5451 7.90319 20.5509 7.77232C20.5509 7.75938 20.5588 7.74931 20.5668 7.73997Z" fill="black"/>
    <path d="M33.969 9.10645C34.122 9.10645 34.2744 9.10645 34.4253 9.10645C34.4289 9.1122 34.4311 9.11364 34.4311 9.11579C34.4311 9.26608 34.4311 9.41636 34.4311 9.56664C34.4224 9.57096 34.4347 9.5688 34.4253 9.57096C34.2722 9.60907 34.1199 9.58821 33.9675 9.57599C33.9502 9.54939 33.9473 9.52566 33.9466 9.50193C33.9444 9.39263 33.9444 9.28261 33.9466 9.17332C33.9473 9.14887 33.9516 9.12514 33.969 9.10645Z" fill="black"/>
    <path d="M4.37746 7.26562C4.37674 7.27569 4.38179 7.28073 4.3919 7.28001C4.40562 7.29511 4.41212 7.31236 4.41284 7.33178C4.41645 7.44611 4.41645 7.55972 4.41284 7.67405C4.41212 7.69346 4.40562 7.71144 4.3919 7.72582C4.38251 7.73373 4.37313 7.74092 4.36085 7.74164C4.22799 7.74811 4.0944 7.74811 3.96153 7.74164C3.94926 7.74092 3.93987 7.73301 3.93048 7.72582C3.93048 7.57338 3.93048 7.42166 3.93048 7.27138C3.93626 7.26778 3.9377 7.26562 3.93987 7.26562C4.08501 7.26562 4.2316 7.26562 4.37746 7.26562Z" fill="black"/>
    <path d="M3.92961 7.72559C4.08342 7.72559 4.23795 7.72559 4.39175 7.72559C4.39175 7.73062 4.39175 7.73493 4.39175 7.73997C4.3246 7.77304 3.99821 7.77304 3.92961 7.73997C3.9195 7.74069 3.91445 7.73565 3.91517 7.72559C3.92022 7.72559 3.92456 7.72559 3.92961 7.72559Z" fill="#BE7200"/>
    <path d="M33.9689 12.3276C34.1205 12.3276 34.2721 12.3276 34.4238 12.3276C34.4353 12.3362 34.4303 12.3492 34.431 12.3607C34.4317 12.375 34.431 12.3894 34.431 12.4038C34.431 18.4892 34.431 24.5746 34.431 30.66C34.431 30.6837 34.431 30.7074 34.431 30.7283C34.4267 30.7319 34.4252 30.7347 34.4231 30.7347C27.1855 30.7347 19.9479 30.7347 12.7103 30.7347C12.6908 30.7139 12.6886 30.6873 12.6872 30.6607C12.6865 30.6369 12.6865 30.6125 12.6865 30.5888C12.6865 25.3195 12.6865 20.0503 12.6872 14.781C12.6872 14.7335 12.6785 14.6847 12.7052 14.6408C12.7435 14.612 12.789 14.6228 12.8309 14.6228C14.3278 14.6221 15.824 14.6221 17.3209 14.6221C17.5902 14.6221 17.8596 14.6221 18.1296 14.6221C18.16 14.6221 18.1932 14.6293 18.2185 14.6041C18.2416 14.5725 18.2322 14.5351 18.2343 14.5006C18.2401 14.3963 18.2221 14.292 18.2466 14.1885C18.2517 14.1799 18.2582 14.1741 18.2676 14.1705C18.3001 14.1597 18.334 14.1626 18.3672 14.1626C18.9095 14.1626 19.4518 14.1626 19.9948 14.1626C20.0324 14.1626 20.0721 14.1554 20.1067 14.1777C20.1205 14.1928 20.1255 14.2115 20.1262 14.2309C20.1299 14.3481 20.1306 14.4661 20.1262 14.5833C20.1255 14.6005 20.1205 14.6163 20.1104 14.63C20.0764 14.6566 20.0367 14.648 19.9992 14.648C19.615 14.6487 19.2301 14.648 18.846 14.6487C18.8135 14.6487 18.7774 14.6401 18.7528 14.6724C18.7391 14.7048 18.7427 14.7386 18.7427 14.7724C18.7427 19.8921 18.7427 25.011 18.7427 30.1307C18.7427 30.166 18.7369 30.2026 18.7557 30.2371C18.7904 30.2594 18.8301 30.2515 18.8676 30.2515C19.732 30.2522 20.5956 30.2515 21.46 30.2515C25.4171 30.2515 29.3734 30.2515 33.3305 30.2508C33.376 30.2508 33.4222 30.2594 33.4655 30.2379C33.4858 30.2199 33.4879 30.1969 33.4879 30.1724C33.4879 30.1509 33.4879 30.1293 33.4879 30.1077C33.4879 24.3869 33.4879 18.6654 33.4879 12.9445C33.4879 12.9064 33.4937 12.8683 33.4764 12.8194C33.3377 12.7871 33.1897 12.8273 33.0561 12.7986C33.0453 12.7885 33.0402 12.7856 33.0395 12.7813C33.0178 12.6346 33.0157 12.4872 33.041 12.3405C33.0626 12.3211 33.0893 12.3218 33.1153 12.3218C33.3731 12.3211 33.6316 12.3211 33.8894 12.3218C33.9111 12.3218 33.9327 12.3218 33.9515 12.3341C33.9768 12.3578 33.9754 12.3894 33.9754 12.4196C33.9761 12.5073 33.9754 12.5944 33.9761 12.6821C33.9761 12.708 33.9717 12.7346 33.9956 12.754C34.1234 12.7806 34.2519 12.7597 34.3884 12.7648C34.4007 12.6296 34.3971 12.5052 34.3913 12.375C34.2534 12.347 34.1183 12.3772 33.9869 12.3556C33.9782 12.352 33.9717 12.347 33.9667 12.3398C33.9667 12.3362 33.9674 12.3319 33.9689 12.3276Z" fill="#F89F19"/>
    <path d="M18.2561 14.1832C18.2561 14.3321 18.2561 14.4802 18.2561 14.629C18.2286 14.6427 18.199 14.6355 18.1709 14.6355C16.3793 14.6362 14.5871 14.6355 12.7956 14.6362C12.7674 14.6362 12.7378 14.629 12.7104 14.6434C12.7104 20.0076 12.7104 25.3718 12.7104 30.7359C10.5534 30.7359 8.39726 30.7359 6.24036 30.7359C6.21942 30.7129 6.21797 30.6834 6.21725 30.6547C6.21653 30.6187 6.21653 30.5828 6.21653 30.5468C6.21653 25.3013 6.21653 20.0558 6.21581 14.811C6.21581 14.7635 6.22375 14.7153 6.20281 14.6693C6.16742 14.6448 6.12771 14.6528 6.09016 14.6528C5.56592 14.652 5.04095 14.6528 4.51671 14.652C4.47411 14.652 4.42934 14.6592 4.38962 14.6341C4.37734 14.6211 4.37157 14.606 4.37085 14.5888C4.36507 14.4651 4.36435 14.3421 4.37157 14.2184C4.37229 14.2041 4.37807 14.1911 4.38818 14.1796C4.40912 14.1645 4.43222 14.1624 4.45678 14.1624C4.4806 14.1624 4.50516 14.1624 4.52899 14.1624C9.05798 14.1624 13.587 14.1624 18.1153 14.1631C18.1636 14.1638 18.2135 14.1494 18.2561 14.1832Z" fill="#F19E32"/>
    <path d="M4.39177 14.6288C5.00555 14.6288 5.61933 14.6288 6.2324 14.6288C6.23384 14.6288 6.23601 14.6316 6.24034 14.6352C6.24034 20.0001 6.24034 25.3679 6.24034 30.7349C5.47275 30.7349 4.70516 30.7349 3.93757 30.7349C3.93613 30.7349 3.93396 30.7321 3.92963 30.7285C3.92963 25.5167 3.92963 20.3029 3.92963 15.089C3.95779 15.0645 3.99245 15.0674 4.02567 15.0667C4.11015 15.066 4.19391 15.0667 4.2784 15.066C4.3044 15.066 4.33111 15.0674 4.36577 15.0473C4.37299 14.9301 4.37155 14.8071 4.3665 14.6892C4.33689 14.6597 4.30656 14.6654 4.2784 14.6647C4.19175 14.664 4.1051 14.6647 4.01844 14.664C3.98739 14.664 3.95562 14.6647 3.92963 14.6417C3.92963 14.6367 3.92963 14.6324 3.92963 14.6273C3.9354 14.623 3.94046 14.6165 3.94768 14.6158C4.08993 14.5971 4.23219 14.5971 4.37444 14.6158C4.38094 14.618 4.38599 14.6245 4.39177 14.6288Z" fill="#FFB656"/>
    <path d="M4.39166 14.1686C4.39166 14.0197 4.39166 13.8716 4.39166 13.7227C4.41044 13.7033 4.43499 13.7033 4.45882 13.7026C4.48265 13.7019 4.5072 13.7019 4.53103 13.7019C9.67453 13.7019 14.8188 13.7019 19.9623 13.7026C20.0092 13.7026 20.059 13.6918 20.1038 13.7184C20.1081 13.7271 20.106 13.7148 20.1081 13.7242C20.1392 13.873 20.1413 14.0219 20.1074 14.1707C20.0821 14.1808 20.0554 14.1757 20.0287 14.1757C19.438 14.1757 18.8473 14.1757 18.2559 14.1757C13.6656 14.1757 9.07447 14.1757 4.48409 14.175C4.45304 14.175 4.42127 14.1822 4.39166 14.1686Z" fill="#FFB656"/>
    <path d="M3.92963 10.4869C3.92963 9.87354 3.92963 9.25947 3.92963 8.64611C3.95779 8.62166 3.99245 8.62454 4.02567 8.62382C4.11015 8.6231 4.19391 8.62382 4.2784 8.6231C4.3044 8.6231 4.33183 8.62598 4.36577 8.60297C4.37299 8.4872 4.37083 8.36424 4.3665 8.24703C4.33689 8.21755 4.30656 8.2233 4.2784 8.22259C4.19175 8.22187 4.1051 8.22259 4.01844 8.22187C3.98739 8.22187 3.95562 8.22259 3.92963 8.19958C3.92963 8.19454 3.92963 8.19023 3.92963 8.18519C3.95273 8.16434 3.98234 8.1629 4.01122 8.1629C4.13903 8.1629 4.26612 8.16075 4.39394 8.16434C4.8698 8.16003 5.34566 8.16362 5.8208 8.16218C5.92623 8.16218 6.03237 8.16147 6.1378 8.16218C6.17391 8.16218 6.21001 8.16075 6.23962 8.1816C6.26561 8.2118 6.26345 8.24631 6.26345 8.27939C6.26417 8.83235 6.26417 9.38458 6.26345 9.93754C6.26345 9.96846 6.26489 10.0001 6.24539 10.0274C6.20784 10.0569 6.16307 10.049 6.12047 10.049C5.58901 10.0497 5.05827 10.049 4.5268 10.0497C4.4907 10.0497 4.45459 10.0447 4.42065 10.0612C4.39394 10.0821 4.39827 10.1123 4.39827 10.1403C4.39827 10.2259 4.39899 10.3122 4.39755 10.3977C4.39755 10.4287 4.40043 10.4603 4.37949 10.4869C4.36289 10.5027 4.34122 10.507 4.31956 10.5078C4.2098 10.5113 4.09932 10.5106 3.98956 10.5085C3.96718 10.5078 3.94623 10.502 3.92963 10.4869Z" fill="#C57915"/>
    <path d="M33.9689 9.10645C33.9689 9.25889 33.9689 9.41061 33.9689 9.56089C33.9747 9.56449 33.9762 9.56664 33.9783 9.56664C34.1292 9.56664 34.2802 9.56664 34.4311 9.56664C34.4311 10.3324 34.4311 11.0975 34.4311 11.8604C34.4268 11.864 34.4246 11.8669 34.4231 11.8669C34.2715 11.8669 34.1206 11.8669 33.9689 11.8669C33.9661 11.8633 33.9624 11.8597 33.9596 11.8568C33.9408 11.8187 33.9466 11.777 33.9466 11.7368C33.9458 11.2154 33.9466 10.6941 33.9458 10.1728C33.9458 10.1376 33.9494 10.1009 33.9357 10.0685C33.9097 10.0455 33.8801 10.0498 33.852 10.0498C33.7631 10.0491 33.6743 10.0506 33.5855 10.0491C33.5566 10.0484 33.5277 10.0491 33.5032 10.0297C33.475 9.98585 33.4859 9.93696 33.4844 9.8895C33.4808 9.79458 33.4902 9.69967 33.4772 9.60188C33.3292 9.57096 33.1826 9.6105 33.0396 9.57311C33.0013 9.43362 33.0396 9.29484 33.0143 9.16613C32.9854 9.14024 32.9558 9.14456 32.9277 9.14384C32.8432 9.14312 32.7594 9.14384 32.6749 9.14384C29.0038 9.14384 25.3327 9.14384 21.6615 9.14384C21.6254 9.14384 21.5893 9.14671 21.5532 9.14168C21.5286 9.1388 21.4976 9.14312 21.4918 9.10645C25.6504 9.10645 29.8097 9.10645 33.9689 9.10645Z" fill="#C57915"/>
    <path d="M3.92963 10.4871C4.07838 10.4871 4.22641 10.4871 4.37733 10.4871C4.37733 10.3325 4.37733 10.1822 4.37733 10.0326C4.38383 10.0297 4.38816 10.0283 4.39177 10.0269C4.42426 10.0664 4.41488 10.1139 4.41488 10.1584C4.4156 11.2981 4.4156 12.4379 4.41488 13.5776C4.41488 13.6178 4.42065 13.6595 4.40188 13.6976C4.39899 13.7012 4.39538 13.7048 4.39177 13.7084C4.24013 13.7084 4.08849 13.7084 3.93757 13.7084C3.93613 13.7084 3.93396 13.7056 3.92963 13.702C3.92963 12.6313 3.92963 11.5592 3.92963 10.4871Z" fill="#BE7200"/>
    <path d="M20.1045 13.7227C14.8671 13.7227 9.62904 13.7227 4.39166 13.7227C4.39166 13.7177 4.39166 13.7134 4.39166 13.7084C4.4126 13.6889 4.43932 13.6868 4.46604 13.6853C4.49709 13.6839 4.52886 13.6846 4.55991 13.6846C9.68319 13.6846 14.8058 13.6846 19.929 13.6846C19.9796 13.6846 20.0301 13.6796 20.08 13.6918C20.0893 13.6954 20.0973 13.7004 20.1038 13.7076C20.1038 13.7134 20.1038 13.7177 20.1045 13.7227Z" fill="#C97800"/>
    <path d="M4.39188 14.1687C9.0133 14.1687 13.6347 14.1687 18.2562 14.1687C18.2612 14.1716 18.2627 14.1752 18.2612 14.178C18.2598 14.1809 18.2583 14.1831 18.2562 14.1831C13.6347 14.1831 9.0133 14.1831 4.39188 14.1831C4.3861 14.1874 4.38105 14.1939 4.37383 14.1946C4.23158 14.2133 4.08932 14.2133 3.94707 14.1946C3.93985 14.1939 3.93479 14.1874 3.92902 14.1831C3.93046 14.1788 3.93263 14.1752 3.93479 14.1687C4.08716 14.1687 4.23952 14.1687 4.39188 14.1687Z" fill="#F39200"/>
    <path d="M3.92963 14.6431C4.08127 14.6431 4.23291 14.6431 4.38383 14.6431C4.39394 14.6495 4.39177 14.6596 4.39177 14.6682C4.39177 14.7998 4.39177 14.9314 4.39177 15.0637C4.39177 15.0709 4.39105 15.0774 4.39032 15.0831C4.38744 15.086 4.38599 15.0882 4.38383 15.0889C4.37877 15.0896 4.37444 15.0889 4.36938 15.0889C4.2228 15.0889 4.07621 15.0889 3.92963 15.0889C3.92963 14.94 3.92963 14.7919 3.92963 14.6431Z" fill="#C57915"/>
    <path d="M4.16079 14.7207C4.34145 14.7207 4.4879 14.5797 4.4879 14.4058C4.4879 14.2318 4.34145 14.0908 4.16079 14.0908C3.98013 14.0908 3.83368 14.2318 3.83368 14.4058C3.83368 14.5797 3.98013 14.7207 4.16079 14.7207Z" fill="#FFB656"/>
    <path d="M4.39177 8.18605C4.23796 8.18605 4.08343 8.18605 3.92963 8.18605C3.92963 8.03721 3.92963 7.88908 3.92963 7.74023C4.08343 7.74023 4.23796 7.74023 4.39177 7.74023C4.40549 7.75533 4.41199 7.77259 4.41271 7.79201C4.41632 7.90634 4.41632 8.01995 4.41271 8.13428C4.41199 8.15369 4.40549 8.17095 4.39177 8.18605Z" fill="#F9A63A"/>
    <path d="M3.92963 8.20044C4.08127 8.20044 4.23291 8.20044 4.38383 8.20044C4.39394 8.20691 4.39177 8.21698 4.39177 8.22561C4.39177 8.35719 4.39177 8.48878 4.39177 8.62109C4.39177 8.62828 4.39105 8.63475 4.39032 8.6405C4.38744 8.64338 4.38599 8.64554 4.38383 8.64625C4.37877 8.64697 4.37444 8.64625 4.36938 8.64625C4.2228 8.64625 4.07621 8.64625 3.92963 8.64625C3.92963 8.49741 3.92963 8.34928 3.92963 8.20044Z" fill="#BE7200"/>
    <path d="M33.969 11.8676C33.969 12.0208 33.969 12.1747 33.969 12.3278C33.9639 12.3285 33.9596 12.3293 33.9545 12.33C33.9473 12.3235 33.9423 12.3156 33.9387 12.3062C33.9228 12.2113 33.935 12.115 33.9307 12.0193C33.9293 11.9863 33.9358 11.9517 33.9177 11.9223C33.8989 11.905 33.8766 11.9064 33.8556 11.905C33.8246 11.9036 33.7928 11.9043 33.7617 11.9043C29.7259 11.9043 25.6894 11.9043 21.6536 11.9036C21.6016 11.9036 21.5475 11.9136 21.4976 11.887C21.489 11.8798 21.489 11.8712 21.4955 11.8626C21.5179 11.8446 21.5446 11.8446 21.5706 11.8432C21.5966 11.8417 21.6233 11.8424 21.65 11.8424C25.7053 11.8424 29.7606 11.8424 33.8152 11.8432C33.8672 11.8446 33.922 11.8317 33.969 11.8676Z" fill="#C97800"/>
    <path d="M33.969 11.8677C29.8097 11.8677 25.6504 11.8677 21.4911 11.8677C21.4882 11.8641 21.4846 11.8605 21.4817 11.8569C21.4558 11.7074 21.4673 11.5585 21.476 11.4219C21.5099 11.3874 21.5395 11.3867 21.5684 11.3852C21.6045 11.3838 21.6406 11.3845 21.6767 11.3845C25.5609 11.3845 29.4458 11.3845 33.3299 11.3838C33.3754 11.3838 33.4216 11.3924 33.465 11.3709C33.491 11.3493 33.4873 11.3191 33.4873 11.291C33.4873 11.0609 33.4881 10.8308 33.4873 10.6007C33.4873 10.5209 33.4743 10.5087 33.3956 10.5073C33.3718 10.5065 33.3473 10.5073 33.3234 10.5073C28.4883 10.5073 23.6531 10.5044 18.8179 10.508C14.2211 10.5116 9.62418 10.508 5.02731 10.5109C4.98254 10.5109 4.93561 10.5022 4.87856 10.5317C4.87856 11.4198 4.87856 12.3143 4.88434 13.208C4.91394 13.2239 4.93849 13.2224 4.96232 13.2239C4.98399 13.2246 5.00565 13.2246 5.02731 13.2246C9.56425 13.2246 14.1005 13.2246 18.6374 13.2246C18.6641 13.2246 18.6901 13.2239 18.7168 13.2267C19.1537 13.2231 19.5913 13.2253 20.0282 13.2253C20.052 13.2253 20.0765 13.2267 20.0982 13.2382C20.1062 13.2433 20.1127 13.2505 20.117 13.2591C20.1343 13.4051 20.1372 13.5518 20.1155 13.6977C20.1127 13.7013 20.109 13.7042 20.1062 13.7078C14.8688 13.7078 9.63068 13.7078 4.39331 13.7078C4.39331 12.4804 4.39331 11.2536 4.39331 10.0262C5.00926 10.0262 5.62593 10.0262 6.24188 10.0262C6.26282 10.0068 6.28954 10.0046 6.31626 10.0032C6.34009 10.0025 6.36464 10.0025 6.38847 10.0025C8.44789 10.0025 10.5066 10.0025 12.566 10.0032C12.6151 10.0032 12.6678 9.9917 12.7126 10.0262C14.715 10.0262 16.7181 10.0262 18.7204 10.0262C18.7414 10.0068 18.7681 10.0046 18.7948 10.0032C18.8237 10.0025 18.8526 10.0025 18.8815 10.0025C23.7036 10.0025 28.5258 10.0025 33.3487 10.0032C33.4029 10.0032 33.4599 9.98883 33.5097 10.0262C33.6628 10.0262 33.8159 10.0262 33.9719 10.0262C33.969 10.6432 33.969 11.2558 33.969 11.8677Z" fill="black"/>
    <path d="M12.7102 10.0268C10.5533 10.0268 8.39714 10.0268 6.24023 10.0268C6.24023 9.41636 6.24023 8.80588 6.24023 8.1954C6.24023 8.19324 6.23807 8.1918 6.23662 8.18965C6.23446 8.18821 6.23301 8.18605 6.23085 8.18605C5.61778 8.18605 5.00472 8.18605 4.39166 8.18605C4.39166 8.03721 4.39166 7.88908 4.39166 7.74023C7.16307 7.74023 9.93448 7.74023 12.7037 7.74023C12.7073 7.74455 12.7102 7.74671 12.7102 7.74814C12.7102 8.50819 12.7102 9.26751 12.7102 10.0268Z" fill="#BE7200"/>
    <path d="M33.5067 10.0269C28.5769 10.0269 23.6479 10.0269 18.7181 10.0269C18.7181 9.41493 18.7181 8.8023 18.7181 8.19253C18.7232 8.18894 18.7246 8.18678 18.7268 8.18606C18.729 8.18534 18.7319 8.18606 18.734 8.18606C18.7362 8.18606 18.7391 8.18606 18.7412 8.18606C18.7463 8.18606 18.7506 8.18606 18.7557 8.18606C18.7579 8.18606 18.7607 8.18606 18.7629 8.18606C18.768 8.18606 18.7723 8.18606 18.7774 8.18606C19.2005 8.18606 19.6236 8.18606 20.0461 8.18606C20.0511 8.18606 20.0555 8.18606 20.0605 8.18606C20.0627 8.18606 20.0656 8.18606 20.0677 8.18606C20.0699 8.18606 20.0728 8.18606 20.075 8.18606C20.0771 8.18606 20.08 8.18678 20.0822 8.18606C20.0843 8.18534 20.0858 8.18319 20.0901 8.17959C20.0901 8.0365 20.0901 7.89125 20.0901 7.74672C20.0966 7.74384 20.101 7.7424 20.1046 7.74097C20.132 7.77332 20.1255 7.81287 20.127 7.85026C20.1306 7.94949 20.1197 8.04944 20.1335 8.1458C20.1724 8.17312 20.2122 8.16162 20.2497 8.16449C20.3494 8.1724 20.4505 8.14795 20.5479 8.18031C20.5508 8.18391 20.5537 8.18678 20.5559 8.19038C20.5544 8.19469 20.5523 8.19829 20.5508 8.2026C20.5248 8.22633 20.4931 8.22274 20.462 8.22345C20.3804 8.22417 20.2988 8.22345 20.2172 8.22417C20.1912 8.22417 20.1638 8.2213 20.1306 8.24503C20.1233 8.36295 20.1248 8.48807 20.1306 8.61822C20.2642 8.63116 20.3876 8.62469 20.5032 8.62325C20.5335 8.59089 20.5292 8.56141 20.5292 8.53337C20.5299 8.44996 20.5292 8.36583 20.5299 8.28242C20.5299 8.25653 20.5299 8.22921 20.5472 8.20692C20.5501 8.20404 20.553 8.20044 20.5566 8.19757C20.5609 8.19901 20.5653 8.20044 20.5689 8.20188C20.5941 8.23496 20.5862 8.27451 20.5876 8.3119C20.5913 8.41113 20.5804 8.51108 20.5963 8.61534C20.7299 8.64266 20.8649 8.61175 20.9956 8.63404C21.0043 8.63691 21.0108 8.64266 21.0166 8.64986C21.0159 8.6592 21.0108 8.66639 21.0029 8.67071C20.9451 8.69588 20.8844 8.68149 20.8252 8.68437C20.7516 8.68797 20.6772 8.67862 20.5949 8.69372C20.5812 8.82171 20.5884 8.94611 20.5905 9.08057C20.7241 9.08992 20.8498 9.0892 20.979 9.08129C21.0014 8.99572 20.9862 8.91447 20.9913 8.83465C20.9949 8.77857 20.9776 8.7196 21.0094 8.66639C21.013 8.66352 21.0159 8.66064 21.0195 8.65777C21.0238 8.65992 21.0274 8.66136 21.0317 8.66352C21.057 8.70019 21.0483 8.74118 21.0498 8.78144C21.0527 8.87852 21.0455 8.97559 21.0548 9.07626C21.1964 9.1007 21.3336 9.07266 21.4672 9.09423C21.4751 9.09783 21.4831 9.10286 21.4896 9.10861C21.491 9.11293 21.4932 9.11652 21.4953 9.123C25.3419 9.123 29.19 9.123 33.0352 9.123C33.0388 9.12659 33.0409 9.12803 33.0417 9.13019C33.0424 9.13234 33.0424 9.1345 33.0424 9.13666C33.0424 9.27831 33.0424 9.41925 33.0424 9.5609C33.0424 9.56306 33.0453 9.5645 33.0489 9.56881C33.1976 9.56881 33.3486 9.56881 33.4966 9.56881C33.5009 9.57313 33.5038 9.57456 33.5045 9.57672C33.5053 9.58175 33.5045 9.58607 33.5045 9.5911C33.5067 9.73419 33.5067 9.88088 33.5067 10.0269Z" fill="#C97800"/>
    <path d="M4.39166 7.72584C4.39166 7.577 4.39166 7.42887 4.39166 7.28003C9.62182 7.28003 14.852 7.28003 20.0821 7.28003C20.0836 7.28003 20.0857 7.28291 20.0886 7.28578C20.0886 7.43031 20.0886 7.57556 20.0886 7.72009C20.0857 7.72297 20.0836 7.72584 20.0821 7.72584C14.852 7.72584 9.62182 7.72584 4.39166 7.72584Z" fill="#F9A63A"/>
    <path d="M20.5524 8.18605C20.4066 8.18605 20.26 8.18605 20.1141 8.18605C20.112 8.18605 20.1105 8.18389 20.1083 8.18246C20.1069 8.1803 20.1047 8.17886 20.1047 8.1767C20.1047 8.03145 20.1047 7.88548 20.1047 7.74023C20.2542 7.74023 20.403 7.74023 20.5524 7.74023C20.564 7.88908 20.564 8.03721 20.5524 8.18605Z" fill="#F9A63A"/>
    <path d="M20.5524 8.18605C20.5524 8.03721 20.5524 7.88908 20.5524 7.74023C20.5575 7.74023 20.5618 7.74023 20.5669 7.74023C20.5669 7.88548 20.5669 8.03145 20.5669 8.1767C20.5669 8.17886 20.569 8.1803 20.5726 8.18605C20.7228 8.18605 20.8759 8.18605 21.029 8.18605C21.029 8.33921 21.029 8.49309 21.029 8.64625C21.024 8.652 21.0196 8.652 21.0146 8.64625C20.9871 8.61389 20.9929 8.57434 20.9922 8.53695C20.9893 8.43772 20.9972 8.33777 20.9871 8.24214C20.9445 8.21409 20.9026 8.22416 20.8629 8.22344C20.7886 8.222 20.7149 8.22344 20.6405 8.22272C20.6138 8.222 20.5878 8.21985 20.5669 8.20115C20.5618 8.20115 20.5575 8.20115 20.5524 8.20115C20.5524 8.1954 20.5524 8.19108 20.5524 8.18605Z" fill="#C57915"/>
    <path d="M21.0145 8.646C21.0195 8.646 21.0239 8.646 21.0289 8.646C21.1827 8.646 21.3372 8.646 21.4911 8.646C21.4911 8.79916 21.4911 8.95303 21.4911 9.10619C21.486 9.10619 21.4817 9.10619 21.4766 9.10619C21.4492 9.07384 21.4549 9.03429 21.4542 8.9969C21.4513 8.89767 21.4593 8.79772 21.4492 8.70208C21.4066 8.67404 21.3647 8.68411 21.325 8.68339C21.2506 8.68195 21.1769 8.68339 21.1026 8.68267C21.0758 8.68195 21.0498 8.67979 21.0289 8.6611C21.0239 8.6611 21.0195 8.6611 21.0145 8.6611C21.0145 8.65534 21.0145 8.65103 21.0145 8.646Z" fill="#C57915"/>
    <path d="M20.1046 14.6288C20.1046 14.48 20.1046 14.3319 20.1046 14.183C20.1298 14.1593 20.1616 14.1636 20.1927 14.1629C20.2829 14.1622 20.3732 14.1629 20.4634 14.1629C20.4894 14.1629 20.5169 14.1665 20.5342 14.1406C20.5559 14.0407 20.5385 13.94 20.5443 13.84C20.5465 13.7998 20.5378 13.7581 20.5617 13.7214C20.5877 13.6984 20.6201 13.7034 20.6512 13.7027C20.7422 13.702 20.8339 13.7027 20.9249 13.702C20.9509 13.702 20.9783 13.7063 20.9964 13.6804C21.0187 13.5805 21.0014 13.4798 21.0065 13.3798C21.0086 13.3396 21 13.2979 21.0238 13.2612C21.0498 13.2382 21.0823 13.2432 21.1133 13.2425C21.2043 13.2418 21.296 13.2425 21.387 13.2418C21.413 13.2418 21.4404 13.2461 21.4585 13.2202C21.4809 13.1203 21.4636 13.0196 21.4686 12.9196C21.4708 12.8794 21.4621 12.8377 21.4859 12.801C21.5119 12.778 21.5444 12.7823 21.5748 12.7823C21.6657 12.7816 21.7567 12.7823 21.847 12.7816C21.873 12.7816 21.9004 12.7859 21.9192 12.7614C21.9445 12.6335 21.9264 12.5055 21.9286 12.3746C21.7806 12.3458 21.6397 12.3818 21.5025 12.3516C21.4939 12.3466 21.4888 12.3394 21.4874 12.33C21.4932 12.3221 21.5004 12.3164 21.5098 12.3128C21.5452 12.3013 21.5813 12.3041 21.6174 12.3041C25.6878 12.3041 29.7583 12.3041 33.8288 12.3041C33.8714 12.3041 33.9161 12.2962 33.9537 12.3271C33.958 12.33 33.9595 12.3336 33.958 12.3365C33.9566 12.3394 33.9551 12.3415 33.9537 12.3415C33.6504 12.3415 33.3471 12.3415 33.0438 12.3415C33.0272 12.4889 33.0409 12.6371 33.0359 12.7931C33.1919 12.7974 33.3421 12.7924 33.4894 12.796C33.5045 12.8305 33.4988 12.8592 33.4988 12.888C33.4988 18.6556 33.4988 24.4224 33.4988 30.19C33.4988 30.218 33.506 30.2475 33.4923 30.2748C28.5704 30.2748 23.6493 30.2748 18.7275 30.2748C18.7254 30.2748 18.7239 30.2727 18.7181 30.2691C18.7181 25.0616 18.7181 19.8521 18.7181 14.6425C18.7434 14.6296 18.7701 14.636 18.7961 14.636C19.2063 14.6353 19.6172 14.636 20.0273 14.6353C20.0526 14.636 20.08 14.6425 20.1046 14.6288Z" fill="#F39200"/>
    <path d="M33.4923 30.2756C33.4923 24.4534 33.4923 18.6305 33.4923 12.8097C33.4894 12.8068 33.488 12.8047 33.4858 12.8032C33.4836 12.8025 33.4815 12.8025 33.4793 12.8025C33.3327 12.8025 33.1854 12.8025 33.0388 12.8025C33.0367 12.8025 33.0352 12.7996 33.0316 12.7975C33.0316 12.6486 33.0316 12.4983 33.0316 12.3481C33.0367 12.3459 33.0403 12.3445 33.0446 12.343C33.0446 12.489 33.0446 12.6357 33.0446 12.7816C33.0533 12.7931 33.0663 12.7888 33.0778 12.7888C33.2056 12.7888 33.3327 12.7888 33.4605 12.7888C33.475 12.7888 33.4887 12.7888 33.5003 12.7888C33.5039 12.7931 33.5068 12.7953 33.5068 12.7967C33.5068 18.6218 33.5068 24.4462 33.5068 30.2698C33.5003 30.272 33.4966 30.2742 33.4923 30.2756Z" fill="#F39200"/>
    <path d="M33.969 12.342C34.1156 12.342 34.2622 12.342 34.4088 12.342C34.4189 12.3485 34.4167 12.3586 34.4167 12.3672C34.4167 12.4988 34.4167 12.6304 34.4167 12.762C34.4167 12.7692 34.416 12.7756 34.4152 12.7814C34.4124 12.7843 34.4109 12.7864 34.4088 12.7871C34.4037 12.7879 34.3994 12.7871 34.3943 12.7871C34.2528 12.7871 34.1105 12.7871 33.969 12.7871C33.9574 12.639 33.9574 12.4909 33.969 12.342Z" fill="#FFB656"/>
    <path d="M12.7104 14.6433C12.7118 14.639 12.714 14.6354 12.7162 14.6289C14.5618 14.6289 16.409 14.6289 18.2561 14.6289C18.2547 14.6332 18.2525 14.6368 18.2503 14.6433C16.4039 14.6433 14.5575 14.6433 12.7104 14.6433Z" fill="#F39200"/>
    <path d="M20.5667 14.1686C20.5653 14.1729 20.5631 14.1765 20.5609 14.183C20.4093 14.183 20.2569 14.183 20.1046 14.183C19.4886 14.183 18.8719 14.183 18.256 14.183C18.256 14.1779 18.256 14.1736 18.256 14.1686C18.8719 14.1686 19.4886 14.1686 20.1046 14.1686C20.1103 14.1643 20.1154 14.1578 20.1226 14.1571C20.2649 14.1384 20.4071 14.1384 20.5494 14.1571C20.5559 14.1578 20.5609 14.1643 20.5667 14.1686Z" fill="#F39200"/>
    <path d="M20.1046 14.6289C20.1031 14.6332 20.101 14.6368 20.0988 14.6433C19.6395 14.6433 19.1788 14.6433 18.7181 14.6433C18.7196 14.639 18.7218 14.6354 18.7239 14.6289C19.1839 14.6289 19.6439 14.6289 20.1046 14.6289Z" fill="#F39200"/>
    <path d="M33.9691 12.342C33.9691 12.4909 33.9691 12.639 33.9691 12.7878C33.9647 12.7864 33.9611 12.7842 33.9547 12.7821C33.9547 12.6361 33.9547 12.4894 33.9547 12.342C33.9547 12.337 33.9547 12.3327 33.9547 12.3276C33.9597 12.3276 33.964 12.3276 33.9691 12.3276C33.9691 12.3327 33.9691 12.337 33.9691 12.342Z" fill="#F39200"/>
    <path d="M20.5669 14.1685C20.4131 14.1685 20.2585 14.1685 20.1047 14.1685C20.1047 14.0197 20.1047 13.8715 20.1047 13.7227C20.112 13.7162 20.1199 13.709 20.1293 13.7083C20.2672 13.6982 20.4051 13.699 20.543 13.7076C20.5524 13.7083 20.5604 13.7155 20.5669 13.7227C20.5669 13.8715 20.5669 14.0197 20.5669 14.1685Z" fill="#C97800"/>
    <path d="M20.5669 13.7226C20.4131 13.7226 20.2585 13.7226 20.1047 13.7226C20.1047 13.7176 20.1047 13.7133 20.1047 13.7082C20.1278 13.6874 20.1567 13.6859 20.1856 13.6859C20.3127 13.6859 20.4391 13.6838 20.5662 13.6874C20.6932 13.6838 20.8203 13.6859 20.9474 13.6859C20.9763 13.6859 21.0052 13.6874 21.0283 13.7082C21.0269 13.7125 21.0247 13.7161 21.0225 13.7226C20.8716 13.7226 20.7192 13.7226 20.5669 13.7226Z" fill="#F39200"/>
    <path d="M33.9544 12.3279C29.8002 12.3279 25.6453 12.3279 21.491 12.3279C21.4838 12.3214 21.4766 12.3135 21.4759 12.3042C21.4629 12.1711 21.4629 12.0381 21.4759 11.9058C21.4766 11.8965 21.4838 11.8886 21.491 11.8821C25.6438 11.8821 29.7966 11.8821 33.9465 11.8821C33.9508 11.8864 33.9537 11.8878 33.9544 11.8893C33.9552 11.8914 33.9544 11.8943 33.9544 11.8965C33.9544 12.0403 33.9544 12.1841 33.9544 12.3279Z" fill="#FFB656"/>
    <path d="M21.491 11.8821C21.491 12.0309 21.491 12.179 21.491 12.3279C21.4823 12.3322 21.4946 12.3307 21.4852 12.3322C21.3321 12.3566 21.179 12.3609 21.0267 12.3293C21.0101 12.3099 21.0072 12.2862 21.0064 12.2624C21.0043 12.1531 21.0043 12.0431 21.0064 11.9338C21.0072 11.9101 21.0101 11.8864 21.0274 11.867C21.0462 11.8497 21.0707 11.8468 21.0945 11.8461C21.2043 11.8439 21.3148 11.8439 21.4245 11.8461C21.4491 11.8468 21.4722 11.8511 21.491 11.8684C21.491 11.8727 21.491 11.877 21.491 11.8821Z" fill="black"/>
    <path d="M18.7182 13.2483C14.0975 13.2483 9.47677 13.2483 4.85535 13.2483C4.85535 12.3265 4.85535 11.409 4.85535 10.4929C4.85824 10.49 4.85968 10.4879 4.86185 10.4871C4.8669 10.4864 4.87123 10.4871 4.87629 10.4871C14.4174 10.4871 23.9577 10.4871 33.4988 10.4871C33.501 10.4871 33.5024 10.49 33.506 10.4922C33.506 10.7949 33.506 11.0983 33.506 11.4018C33.501 11.4039 33.4973 11.4054 33.493 11.4068C33.4649 11.3745 33.4699 11.3349 33.4699 11.2968C33.4692 11.0789 33.4699 10.8603 33.4692 10.6425C33.4692 10.6094 33.4735 10.5749 33.4584 10.5439C33.3999 10.5188 18.8409 10.5137 18.7564 10.5389C18.7348 10.5727 18.7427 10.6123 18.7427 10.6496C18.742 11.4715 18.7427 12.2934 18.742 13.116C18.7413 13.1613 18.7507 13.2088 18.7182 13.2483Z" fill="#FFF6EF"/>
    <path d="M18.7181 13.2483C18.7181 12.3351 18.7181 11.4219 18.7181 10.5087C18.7268 10.4964 18.7398 10.5022 18.7514 10.5015C18.7658 10.5008 18.7802 10.5015 18.7947 10.5015C23.6688 10.5015 28.5423 10.5015 33.4164 10.5015C33.4403 10.5015 33.4641 10.5015 33.485 10.5015C33.4894 10.5051 33.4923 10.5072 33.4923 10.5087C33.493 10.5137 33.4923 10.518 33.4923 10.523C33.4923 10.8179 33.4923 11.1127 33.4923 11.4075C29.4933 11.4075 25.495 11.4075 21.4989 11.4075C21.4946 11.4118 21.4917 11.4132 21.491 11.4147C21.4903 11.4197 21.491 11.424 21.491 11.4291C21.491 11.575 21.491 11.7217 21.491 11.8677C21.3379 11.8677 21.1855 11.8677 21.0346 11.8677C21.031 11.8734 21.0289 11.8749 21.0289 11.877C21.0289 12.0273 21.0289 12.1776 21.0289 12.3279C21.0252 12.3308 21.0224 12.3336 21.0187 12.3372C20.9516 12.3617 20.8815 12.3459 20.8122 12.3502C20.7436 12.3545 20.6736 12.3423 20.6079 12.3588C20.5833 12.3854 20.5884 12.4149 20.5884 12.4429C20.5877 12.5314 20.5884 12.6191 20.5877 12.7075C20.5869 12.7363 20.5877 12.7651 20.5689 12.7895C20.5335 12.8176 20.4916 12.8089 20.4512 12.8104C20.3486 12.814 20.2454 12.8032 20.1464 12.8176C20.119 12.8535 20.1284 12.8909 20.1262 12.9254C20.1197 13.0297 20.1399 13.1354 20.1132 13.2389C20.1103 13.2425 20.1067 13.2454 20.1038 13.2483C19.6424 13.2483 19.1803 13.2483 18.7181 13.2483Z" fill="#FEFEFE"/>
    <path d="M20.5669 13.7082C20.4131 13.7082 20.2585 13.7082 20.1047 13.7082C20.1047 13.5594 20.1047 13.4112 20.1047 13.2624C20.1134 13.2588 20.1011 13.2602 20.1105 13.2581C20.2629 13.2322 20.4152 13.23 20.5683 13.2595C20.5857 13.2789 20.5885 13.3027 20.5893 13.3264C20.5914 13.4314 20.5914 13.5364 20.5893 13.6413C20.5885 13.6658 20.5842 13.6895 20.5669 13.7082Z" fill="#FFB656"/>
    <path d="M20.5669 13.2625C20.4131 13.2625 20.2585 13.2625 20.1047 13.2625C20.1047 13.2574 20.1047 13.2531 20.1047 13.2481C20.1199 13.2351 20.138 13.228 20.1574 13.228C20.2867 13.228 20.416 13.2186 20.5445 13.2337C20.5532 13.2366 20.5604 13.2423 20.5662 13.2495C20.5662 13.2531 20.5669 13.2582 20.5669 13.2625Z" fill="#C97800"/>
    <path d="M21.0145 8.66064C21.0145 8.80805 21.0145 8.95618 21.0145 9.10502C20.8643 9.10502 20.7185 9.10502 20.5726 9.10502C20.5647 9.05397 20.5625 8.78504 20.5697 8.66496C20.5719 8.66352 20.5733 8.66136 20.5755 8.66136C20.7221 8.66064 20.8679 8.66064 21.0145 8.66064Z" fill="#C57915"/>
    <path d="M20.5668 8.20044C20.7127 8.20044 20.8593 8.20044 21.0051 8.20044C21.0073 8.20044 21.0088 8.2026 21.0109 8.20403C21.0124 8.20619 21.0145 8.20763 21.0145 8.20979C21.0145 8.35504 21.0145 8.50101 21.0145 8.64625C20.8687 8.64625 20.7221 8.64625 20.5762 8.64625C20.5741 8.64625 20.5726 8.6441 20.5704 8.64266C20.569 8.6405 20.5668 8.63906 20.5668 8.63691C20.5668 8.49166 20.5668 8.34569 20.5668 8.20044Z" fill="#F9A63A"/>
    <path d="M21.029 8.66064C21.1749 8.66064 21.3214 8.66064 21.4673 8.66064C21.4695 8.66064 21.4709 8.6628 21.4731 8.66424C21.4745 8.6664 21.4767 8.66784 21.4767 8.66999C21.4767 8.81524 21.4767 8.96121 21.4767 9.10646C21.3308 9.10646 21.1842 9.10646 21.0384 9.10646C21.0362 9.10646 21.0348 9.1043 21.0326 9.10287C21.0312 9.10071 21.029 9.09927 21.029 9.09711C21.029 8.95186 21.029 8.80589 21.029 8.66064Z" fill="#F9A63A"/>
    <path d="M20.5524 8.20044C20.5524 8.34641 20.5524 8.49166 20.5524 8.63763C20.5524 8.63978 20.5495 8.64122 20.5473 8.64482C20.4029 8.64482 20.257 8.64482 20.1112 8.64482C20.1032 8.59376 20.1011 8.32484 20.1083 8.20475C20.1104 8.20332 20.1119 8.20116 20.1141 8.20116C20.2599 8.20044 20.4058 8.20044 20.5524 8.20044Z" fill="#C57915"/>
    <path d="M21.4911 12.342C21.6442 12.342 21.7965 12.342 21.9475 12.342C21.9511 12.3478 21.9532 12.3492 21.9532 12.3514C21.9532 12.4966 21.9532 12.6426 21.9532 12.7879C21.7994 12.8015 21.6456 12.795 21.4918 12.7915C21.4824 12.7835 21.4752 12.7735 21.4745 12.7613C21.4687 12.6246 21.4564 12.4887 21.4817 12.3528C21.4846 12.3492 21.4882 12.3456 21.4911 12.342Z" fill="#C97800"/>
    <path d="M21.4911 12.8025C21.4911 12.9513 21.4911 13.0994 21.4911 13.2483C21.3366 13.2612 21.182 13.2569 21.0268 13.2504C21.0123 13.2353 21.008 13.2167 21.0073 13.198C21.0037 13.0836 21.0037 12.9693 21.0073 12.855C21.008 12.8356 21.0131 12.8169 21.0253 12.8018C21.0427 12.7859 21.0636 12.7838 21.0853 12.7831C21.2001 12.7816 21.3149 12.7816 21.4297 12.7831C21.4535 12.7831 21.4745 12.7867 21.4911 12.8025Z" fill="#C97800"/>
    <path d="M20.5668 13.7084C20.5668 13.5596 20.5668 13.4114 20.5668 13.2626C20.7206 13.2295 20.8752 13.2295 21.029 13.2626C21.029 13.4114 21.029 13.5596 21.029 13.7084C20.8752 13.7084 20.7206 13.7084 20.5668 13.7084Z" fill="#C97800"/>
    <path d="M21.4912 12.8025C21.3373 12.8025 21.1828 12.8025 21.029 12.8025C21.0283 12.7982 21.0276 12.7939 21.0261 12.7888C21.0297 12.786 21.0326 12.7824 21.0355 12.7795C21.0398 12.7773 21.0435 12.7759 21.0478 12.7737C21.1778 12.7586 21.3085 12.768 21.4384 12.768C21.4579 12.768 21.4753 12.7752 21.4904 12.7881C21.6442 12.7881 21.7988 12.7881 21.9526 12.7881C21.9511 12.7924 21.949 12.796 21.9468 12.8025C21.7959 12.8025 21.6435 12.8025 21.4912 12.8025Z" fill="#F39200"/>
    <path d="M21.029 13.2626C20.8752 13.2626 20.7206 13.2626 20.5668 13.2626C20.5668 13.2576 20.5668 13.2533 20.5668 13.2483C20.5704 13.2454 20.5741 13.2418 20.5769 13.2389C20.7279 13.2231 20.8788 13.2065 21.029 13.2483C21.1828 13.2483 21.3373 13.2483 21.4911 13.2483C21.4897 13.2526 21.4875 13.2562 21.4853 13.2626C21.3337 13.2626 21.1813 13.2626 21.029 13.2626Z" fill="#F39200"/>
    <path d="M21.0289 12.3276C21.1827 12.3276 21.3372 12.3276 21.491 12.3276C21.491 12.3327 21.491 12.337 21.491 12.342C21.4817 12.3499 21.4716 12.3578 21.4593 12.3586C21.3185 12.3643 21.1769 12.3773 21.0361 12.3514C21.0275 12.3456 21.0246 12.3377 21.0289 12.3276Z" fill="#C97800"/>
    <path d="M20.5669 13.2483C20.4131 13.2483 20.2585 13.2483 20.1047 13.2483C20.1047 13.0958 20.1047 12.9441 20.1047 12.7938C20.1105 12.7902 20.112 12.7881 20.1141 12.7881C20.265 12.7881 20.416 12.7881 20.5669 12.7881C20.5698 12.7917 20.5727 12.7946 20.5763 12.7982C20.5806 12.8061 20.5835 12.8147 20.5857 12.8233C20.5929 12.9427 20.5885 13.062 20.5885 13.1814C20.5885 13.2059 20.5842 13.2296 20.5669 13.2483Z" fill="black"/>
    <path d="M21.0291 12.3276C21.0291 12.3327 21.0291 12.337 21.0291 12.342C21.0428 12.3571 21.0493 12.3744 21.05 12.3938C21.0537 12.5081 21.0537 12.6217 21.05 12.7361C21.0493 12.7555 21.0428 12.7735 21.0291 12.7878C21.0197 12.795 21.0096 12.8029 20.9981 12.8037C20.8652 12.8108 20.7316 12.8108 20.5987 12.8037C20.5865 12.8029 20.5771 12.795 20.5677 12.7878C20.5677 12.6354 20.5677 12.4837 20.5677 12.3334C20.5735 12.3298 20.5749 12.3276 20.5771 12.3276C20.7273 12.3276 20.8782 12.3276 21.0291 12.3276Z" fill="black"/>
    <path d="M21.26 12.8799C21.4407 12.8799 21.5871 12.7389 21.5871 12.5649C21.5871 12.391 21.4407 12.25 21.26 12.25C21.0794 12.25 20.9329 12.391 20.9329 12.5649C20.9329 12.7389 21.0794 12.8799 21.26 12.8799Z" fill="#FFB656"/>
    <path d="M20.5668 13.2481C20.5668 13.0993 20.5668 12.9512 20.5668 12.8023C20.7206 12.7908 20.8752 12.7908 21.029 12.8023C21.029 12.9512 21.029 13.0993 21.029 13.2481C20.8752 13.2481 20.7206 13.2481 20.5668 13.2481Z" fill="#FFB656"/>
    <path d="M20.7978 12.8053C20.9785 12.8053 21.1249 12.8008 21.1249 12.7952C21.1249 12.7897 20.9785 12.7852 20.7978 12.7852C20.6172 12.7852 20.4707 12.7897 20.4707 12.7952C20.4707 12.8008 20.6172 12.8053 20.7978 12.8053Z" fill="#C97800"/>
</svg>
